G04 EAGLE Gerber RS-274X export*
G75*
%MOMM*%
%FSLAX34Y34*%
%LPD*%
%INSolderpaste Top*%
%IPPOS*%
%AMOC8*
5,1,8,0,0,1.08239X$1,22.5*%
G01*
%ADD10R,10.410000X10.800000*%
%ADD11R,2.159000X1.066800*%
%ADD12R,4.000000X1.600000*%
%ADD13R,2.400000X2.400000*%
%ADD14R,2.900000X5.400000*%
%ADD15R,1.000000X1.100000*%
%ADD16R,1.000000X1.500000*%
%ADD17R,1.500000X1.000000*%
%ADD18R,4.500000X4.500000*%
%ADD19R,1.500000X2.500000*%
%ADD20R,7.000000X7.000000*%
%ADD21R,1.550000X0.600000*%
%ADD22R,1.800000X1.200000*%
%ADD23R,1.100000X1.000000*%
%ADD24R,0.800000X0.800000*%
%ADD25R,1.300000X1.550000*%
%ADD26R,0.800000X1.000000*%
%ADD27R,1.500000X0.700000*%
%ADD28R,1.400000X1.400000*%


D10*
X155100Y413500D03*
D11*
X71788Y447536D03*
X71788Y430518D03*
X71788Y413500D03*
X71788Y396482D03*
X71788Y379464D03*
D12*
X67450Y515850D03*
X138450Y515850D03*
X76500Y170900D03*
X147500Y170900D03*
D13*
X28100Y390200D03*
X28100Y434200D03*
D14*
X40750Y278850D03*
X139750Y278850D03*
D15*
X186500Y335000D03*
X203500Y335000D03*
X203500Y310000D03*
X186500Y310000D03*
D16*
X681900Y492500D03*
X669200Y492500D03*
X656500Y492500D03*
X643800Y492500D03*
X631100Y492500D03*
X618400Y492500D03*
X605700Y492500D03*
X593000Y492500D03*
D17*
X537500Y342700D03*
D16*
X554900Y307500D03*
X567600Y307500D03*
X580300Y307500D03*
X593000Y307500D03*
X605700Y307500D03*
X618400Y307500D03*
X631100Y307500D03*
D17*
X537500Y431600D03*
D16*
X580300Y492500D03*
X567600Y492500D03*
X554900Y492500D03*
D17*
X537500Y457000D03*
X537500Y444300D03*
D16*
X694600Y492500D03*
X707300Y492500D03*
X720000Y492500D03*
D17*
X537500Y418900D03*
X537500Y406200D03*
X537500Y393500D03*
X537500Y355400D03*
X537500Y368100D03*
X537500Y380800D03*
D16*
X643800Y307500D03*
X656500Y307500D03*
X669200Y307500D03*
X681900Y307500D03*
X694600Y307500D03*
X707300Y307500D03*
X720000Y307500D03*
D18*
X646700Y393200D03*
D19*
X292000Y579250D03*
X338000Y579250D03*
D20*
X315000Y648250D03*
D21*
X712700Y205400D03*
X712700Y195400D03*
X712700Y185400D03*
X712700Y175400D03*
X712700Y165400D03*
X712700Y155400D03*
D22*
X690450Y218400D03*
X690450Y142400D03*
D23*
X292000Y544280D03*
X292000Y527280D03*
X341000Y525720D03*
X341000Y542720D03*
D19*
X397000Y579250D03*
X443000Y579250D03*
D20*
X420000Y648250D03*
D23*
X396000Y544280D03*
X396000Y527280D03*
X447000Y525720D03*
X447000Y542720D03*
D19*
X502000Y579250D03*
X548000Y579250D03*
D20*
X525000Y648250D03*
D23*
X500000Y543500D03*
X500000Y526500D03*
D15*
X578500Y540000D03*
X561500Y540000D03*
D19*
X338000Y225750D03*
X292000Y225750D03*
D20*
X315000Y156750D03*
D23*
X340000Y261500D03*
X340000Y278500D03*
X290000Y278500D03*
X290000Y261500D03*
D19*
X443000Y225750D03*
X397000Y225750D03*
D20*
X420000Y156750D03*
D23*
X445000Y261500D03*
X445000Y278500D03*
X395000Y278500D03*
X395000Y261500D03*
D19*
X548000Y225750D03*
X502000Y225750D03*
D20*
X525000Y156750D03*
D15*
X561500Y265000D03*
X578500Y265000D03*
D23*
X500000Y278500D03*
X500000Y261500D03*
D15*
X695000Y521500D03*
X695000Y538500D03*
X720000Y521500D03*
X720000Y538500D03*
D23*
X130000Y71500D03*
X130000Y88500D03*
D24*
X170000Y72500D03*
X170000Y87500D03*
D23*
X695000Y573500D03*
X695000Y556500D03*
D25*
X677500Y684750D03*
X677500Y605250D03*
X722500Y684750D03*
X722500Y605250D03*
D23*
X720000Y556500D03*
X720000Y573500D03*
D26*
X763000Y603500D03*
X785000Y603500D03*
X785000Y686500D03*
X763000Y686500D03*
D27*
X751500Y622500D03*
X751500Y652500D03*
X751500Y667500D03*
D24*
X525000Y542500D03*
X525000Y527500D03*
X315000Y542500D03*
X315000Y527500D03*
X420000Y542500D03*
X420000Y527500D03*
X315000Y262500D03*
X315000Y277500D03*
X420000Y262500D03*
X420000Y277500D03*
X525000Y262500D03*
X525000Y277500D03*
D28*
X365000Y639000D03*
X365000Y601000D03*
X470000Y639000D03*
X470000Y601000D03*
X580000Y639000D03*
X580000Y601000D03*
X365000Y161000D03*
X365000Y199000D03*
X470000Y161000D03*
X470000Y199000D03*
X580000Y161000D03*
X580000Y199000D03*
D23*
X615000Y573500D03*
X615000Y556500D03*
X615000Y538500D03*
X615000Y521500D03*
X645000Y573500D03*
X645000Y556500D03*
X645000Y538500D03*
X645000Y521500D03*
X670000Y573500D03*
X670000Y556500D03*
X670000Y538500D03*
X670000Y521500D03*
M02*
