G04 EAGLE Gerber RS-274X export*
G75*
%MOMM*%
%FSLAX34Y34*%
%LPD*%
%INSolderpaste Bottom*%
%IPPOS*%
%AMOC8*
5,1,8,0,0,1.08239X$1,22.5*%
G01*
%ADD10R,1.200000X1.200000*%
%ADD11R,2.235200X1.219200*%
%ADD12R,2.200000X3.600000*%
%ADD13R,1.600000X1.803000*%
%ADD14R,1.803000X1.600000*%
%ADD15R,2.600000X2.400000*%
%ADD16R,6.200000X5.400000*%
%ADD17R,1.600000X1.000000*%
%ADD18R,1.400000X1.400000*%
%ADD19R,1.780000X1.550000*%
%ADD20R,1.400000X1.000000*%
%ADD21R,0.800000X1.000000*%
%ADD22R,1.500000X0.700000*%


D10*
X87000Y559500D03*
X113000Y559500D03*
X113000Y620500D03*
X87000Y620500D03*
D11*
X400988Y533114D03*
X400988Y510000D03*
X400988Y486886D03*
D12*
X339010Y510000D03*
D13*
X384220Y620000D03*
X355780Y620000D03*
D14*
X820000Y624220D03*
X820000Y595780D03*
D15*
X130000Y505000D03*
X66000Y505000D03*
D13*
X384220Y570000D03*
X355780Y570000D03*
D14*
X780000Y624220D03*
X780000Y595780D03*
X770000Y725780D03*
X770000Y754220D03*
D16*
X265000Y510000D03*
D17*
X192000Y487200D03*
X192000Y532800D03*
D18*
X160000Y609000D03*
X160000Y571000D03*
D13*
X864220Y710000D03*
X835780Y710000D03*
D16*
X265000Y590000D03*
D17*
X192000Y567200D03*
X192000Y612800D03*
D19*
X117300Y367700D03*
X142700Y367700D03*
X142700Y272300D03*
X117300Y272300D03*
D20*
X251000Y350000D03*
X229000Y359500D03*
X229000Y340500D03*
D18*
X200000Y331000D03*
X200000Y369000D03*
D14*
X200000Y275780D03*
X200000Y304220D03*
D19*
X327300Y367700D03*
X352700Y367700D03*
X352700Y272300D03*
X327300Y272300D03*
D20*
X461000Y350000D03*
X439000Y359500D03*
X439000Y340500D03*
D18*
X410000Y331000D03*
X410000Y369000D03*
D14*
X410000Y275780D03*
X410000Y304220D03*
D19*
X537300Y367700D03*
X562700Y367700D03*
X562700Y272300D03*
X537300Y272300D03*
D20*
X671000Y350000D03*
X649000Y359500D03*
X649000Y340500D03*
D18*
X620000Y331000D03*
X620000Y369000D03*
D14*
X620000Y275780D03*
X620000Y304220D03*
D19*
X747300Y367700D03*
X772700Y367700D03*
X772700Y272300D03*
X747300Y272300D03*
D20*
X881000Y350000D03*
X859000Y359500D03*
X859000Y340500D03*
D18*
X830000Y331000D03*
X830000Y369000D03*
D14*
X830000Y275780D03*
X830000Y304220D03*
X240000Y275780D03*
X240000Y304220D03*
X450000Y275780D03*
X450000Y304220D03*
X660000Y275780D03*
X660000Y304220D03*
X870000Y275780D03*
X870000Y304220D03*
D13*
X665780Y490000D03*
X694220Y490000D03*
D21*
X958000Y693500D03*
X980000Y693500D03*
X980000Y610500D03*
X958000Y610500D03*
D22*
X946500Y674500D03*
X946500Y644500D03*
X946500Y629500D03*
D13*
X134220Y60000D03*
X105780Y60000D03*
X334220Y60000D03*
X305780Y60000D03*
X534220Y60000D03*
X505780Y60000D03*
X734220Y60000D03*
X705780Y60000D03*
M02*
