G04 EAGLE Gerber RS-274X export*
G75*
%MOMM*%
%FSLAX34Y34*%
%LPD*%
%INSolderpaste Top*%
%IPPOS*%
%AMOC8*
5,1,8,0,0,1.08239X$1,22.5*%
G01*
%ADD10R,1.803000X1.600000*%
%ADD11R,1.550000X1.300000*%
%ADD12R,1.000000X1.500000*%
%ADD13R,1.500000X1.000000*%
%ADD14R,4.500000X4.500000*%
%ADD15R,2.500000X1.200000*%
%ADD16R,1.130000X2.440000*%
%ADD17R,1.600000X1.803000*%


D10*
X770000Y725780D03*
X770000Y754220D03*
D11*
X889750Y732500D03*
X810250Y732500D03*
X889750Y687500D03*
X810250Y687500D03*
D12*
X788900Y648500D03*
X776200Y648500D03*
X763500Y648500D03*
X750800Y648500D03*
X738100Y648500D03*
X725400Y648500D03*
X712700Y648500D03*
X700000Y648500D03*
D13*
X644500Y498700D03*
D12*
X661900Y463500D03*
X674600Y463500D03*
X687300Y463500D03*
X700000Y463500D03*
X712700Y463500D03*
X725400Y463500D03*
X738100Y463500D03*
D13*
X644500Y587600D03*
D12*
X687300Y648500D03*
X674600Y648500D03*
X661900Y648500D03*
D13*
X644500Y613000D03*
X644500Y600300D03*
D12*
X801600Y648500D03*
X814300Y648500D03*
X827000Y648500D03*
D13*
X644500Y574900D03*
X644500Y562200D03*
X644500Y549500D03*
X644500Y511400D03*
X644500Y524100D03*
X644500Y536800D03*
D12*
X750800Y463500D03*
X763500Y463500D03*
X776200Y463500D03*
X788900Y463500D03*
X801600Y463500D03*
X814300Y463500D03*
X827000Y463500D03*
D14*
X753700Y549200D03*
D15*
X732500Y698000D03*
X667500Y687000D03*
X732500Y738000D03*
X732500Y768000D03*
X632500Y698000D03*
X567500Y687000D03*
X632500Y738000D03*
X632500Y768000D03*
X532500Y698000D03*
X467500Y687000D03*
X532500Y738000D03*
X532500Y768000D03*
X432500Y698000D03*
X367500Y687000D03*
X432500Y738000D03*
X432500Y768000D03*
D16*
X243500Y363000D03*
X218100Y363000D03*
X192700Y363000D03*
X167300Y363000D03*
X141900Y363000D03*
X116500Y363000D03*
X116500Y277000D03*
X141900Y277000D03*
X167300Y277000D03*
X192700Y277000D03*
X218100Y277000D03*
X243500Y277000D03*
X453500Y363000D03*
X428100Y363000D03*
X402700Y363000D03*
X377300Y363000D03*
X351900Y363000D03*
X326500Y363000D03*
X326500Y277000D03*
X351900Y277000D03*
X377300Y277000D03*
X402700Y277000D03*
X428100Y277000D03*
X453500Y277000D03*
X663500Y363000D03*
X638100Y363000D03*
X612700Y363000D03*
X587300Y363000D03*
X561900Y363000D03*
X536500Y363000D03*
X536500Y277000D03*
X561900Y277000D03*
X587300Y277000D03*
X612700Y277000D03*
X638100Y277000D03*
X663500Y277000D03*
X873500Y363000D03*
X848100Y363000D03*
X822700Y363000D03*
X797300Y363000D03*
X771900Y363000D03*
X746500Y363000D03*
X746500Y277000D03*
X771900Y277000D03*
X797300Y277000D03*
X822700Y277000D03*
X848100Y277000D03*
X873500Y277000D03*
D17*
X134220Y60000D03*
X105780Y60000D03*
X334220Y60000D03*
X305780Y60000D03*
X534220Y60000D03*
X505780Y60000D03*
X734220Y60000D03*
X705780Y60000D03*
M02*
