G04 EAGLE Gerber RS-274X export*
G75*
%MOMM*%
%FSLAX34Y34*%
%LPD*%
%IN*%
%IPPOS*%
%AMOC8*
5,1,8,0,0,1.08239X$1,22.5*%
G01*
%ADD10C,0.254000*%


D10*
X0Y50000D02*
X190Y45642D01*
X760Y41318D01*
X1704Y37059D01*
X3015Y32899D01*
X4685Y28869D01*
X6699Y25000D01*
X9042Y21321D01*
X11698Y17861D01*
X14645Y14645D01*
X17861Y11698D01*
X21321Y9042D01*
X25000Y6699D01*
X28869Y4685D01*
X32899Y3015D01*
X37059Y1704D01*
X41318Y760D01*
X45642Y190D01*
X50000Y0D01*
X750000Y0D01*
X754358Y190D01*
X758682Y760D01*
X762941Y1704D01*
X767101Y3015D01*
X771131Y4685D01*
X775000Y6699D01*
X778679Y9042D01*
X782139Y11698D01*
X785355Y14645D01*
X788302Y17861D01*
X790958Y21321D01*
X793301Y25000D01*
X795315Y28869D01*
X796985Y32899D01*
X798296Y37059D01*
X799240Y41318D01*
X799810Y45642D01*
X800000Y50000D01*
X800000Y650000D01*
X799810Y654358D01*
X799240Y658682D01*
X798296Y662941D01*
X796985Y667101D01*
X795315Y671131D01*
X793301Y675000D01*
X790958Y678679D01*
X788302Y682139D01*
X785355Y685355D01*
X782139Y688302D01*
X778679Y690958D01*
X775000Y693301D01*
X771131Y695315D01*
X767101Y696985D01*
X762941Y698296D01*
X758682Y699240D01*
X754358Y699810D01*
X750000Y700000D01*
X50000Y700000D01*
X45642Y699810D01*
X41318Y699240D01*
X37059Y698296D01*
X32899Y696985D01*
X28869Y695315D01*
X25000Y693301D01*
X21321Y690958D01*
X17861Y688302D01*
X14645Y685355D01*
X11698Y682139D01*
X9042Y678679D01*
X6699Y675000D01*
X4685Y671131D01*
X3015Y667101D01*
X1704Y662941D01*
X760Y658682D01*
X190Y654358D01*
X0Y650000D01*
X0Y50000D01*
X191593Y670540D02*
X190923Y670615D01*
X190266Y670765D01*
X189630Y670988D01*
X189023Y671280D01*
X188453Y671639D01*
X187926Y672059D01*
X187449Y672536D01*
X187029Y673063D01*
X186670Y673633D01*
X186378Y674240D01*
X186155Y674876D01*
X186005Y675533D01*
X185930Y676203D01*
X185930Y676877D01*
X186005Y677547D01*
X186155Y678204D01*
X186378Y678840D01*
X186670Y679447D01*
X187029Y680018D01*
X187449Y680544D01*
X187926Y681021D01*
X188453Y681441D01*
X189023Y681800D01*
X189630Y682092D01*
X190266Y682315D01*
X190923Y682465D01*
X191593Y682540D01*
X192267Y682540D01*
X192937Y682465D01*
X193594Y682315D01*
X194230Y682092D01*
X194837Y681800D01*
X195408Y681441D01*
X195934Y681021D01*
X196411Y680544D01*
X196831Y680018D01*
X197190Y679447D01*
X197482Y678840D01*
X197705Y678204D01*
X197855Y677547D01*
X197930Y676877D01*
X197930Y676203D01*
X197855Y675533D01*
X197705Y674876D01*
X197482Y674240D01*
X197190Y673633D01*
X196831Y673063D01*
X196411Y672536D01*
X195934Y672059D01*
X195408Y671639D01*
X194837Y671280D01*
X194230Y670988D01*
X193594Y670765D01*
X192937Y670615D01*
X192267Y670540D01*
X191593Y670540D01*
X191593Y600540D02*
X190923Y600615D01*
X190266Y600765D01*
X189630Y600988D01*
X189023Y601280D01*
X188453Y601639D01*
X187926Y602059D01*
X187449Y602536D01*
X187029Y603063D01*
X186670Y603633D01*
X186378Y604240D01*
X186155Y604876D01*
X186005Y605533D01*
X185930Y606203D01*
X185930Y606877D01*
X186005Y607547D01*
X186155Y608204D01*
X186378Y608840D01*
X186670Y609447D01*
X187029Y610018D01*
X187449Y610544D01*
X187926Y611021D01*
X188453Y611441D01*
X189023Y611800D01*
X189630Y612092D01*
X190266Y612315D01*
X190923Y612465D01*
X191593Y612540D01*
X192267Y612540D01*
X192937Y612465D01*
X193594Y612315D01*
X194230Y612092D01*
X194837Y611800D01*
X195408Y611441D01*
X195934Y611021D01*
X196411Y610544D01*
X196831Y610018D01*
X197190Y609447D01*
X197482Y608840D01*
X197705Y608204D01*
X197855Y607547D01*
X197930Y606877D01*
X197930Y606203D01*
X197855Y605533D01*
X197705Y604876D01*
X197482Y604240D01*
X197190Y603633D01*
X196831Y603063D01*
X196411Y602536D01*
X195934Y602059D01*
X195408Y601639D01*
X194837Y601280D01*
X194230Y600988D01*
X193594Y600765D01*
X192937Y600615D01*
X192267Y600540D01*
X191593Y600540D01*
X329663Y668000D02*
X328993Y668075D01*
X328336Y668225D01*
X327700Y668448D01*
X327093Y668740D01*
X326523Y669099D01*
X325996Y669519D01*
X325519Y669996D01*
X325099Y670523D01*
X324740Y671093D01*
X324448Y671700D01*
X324225Y672336D01*
X324075Y672993D01*
X324000Y673663D01*
X324000Y674337D01*
X324075Y675007D01*
X324225Y675664D01*
X324448Y676300D01*
X324740Y676907D01*
X325099Y677478D01*
X325519Y678004D01*
X325996Y678481D01*
X326523Y678901D01*
X327093Y679260D01*
X327700Y679552D01*
X328336Y679775D01*
X328993Y679925D01*
X329663Y680000D01*
X330337Y680000D01*
X331007Y679925D01*
X331664Y679775D01*
X332300Y679552D01*
X332907Y679260D01*
X333478Y678901D01*
X334004Y678481D01*
X334481Y678004D01*
X334901Y677478D01*
X335260Y676907D01*
X335552Y676300D01*
X335775Y675664D01*
X335925Y675007D01*
X336000Y674337D01*
X336000Y673663D01*
X335925Y672993D01*
X335775Y672336D01*
X335552Y671700D01*
X335260Y671093D01*
X334901Y670523D01*
X334481Y669996D01*
X334004Y669519D01*
X333478Y669099D01*
X332907Y668740D01*
X332300Y668448D01*
X331664Y668225D01*
X331007Y668075D01*
X330337Y668000D01*
X329663Y668000D01*
X329663Y598000D02*
X328993Y598075D01*
X328336Y598225D01*
X327700Y598448D01*
X327093Y598740D01*
X326523Y599099D01*
X325996Y599519D01*
X325519Y599996D01*
X325099Y600523D01*
X324740Y601093D01*
X324448Y601700D01*
X324225Y602336D01*
X324075Y602993D01*
X324000Y603663D01*
X324000Y604337D01*
X324075Y605007D01*
X324225Y605664D01*
X324448Y606300D01*
X324740Y606907D01*
X325099Y607478D01*
X325519Y608004D01*
X325996Y608481D01*
X326523Y608901D01*
X327093Y609260D01*
X327700Y609552D01*
X328336Y609775D01*
X328993Y609925D01*
X329663Y610000D01*
X330337Y610000D01*
X331007Y609925D01*
X331664Y609775D01*
X332300Y609552D01*
X332907Y609260D01*
X333478Y608901D01*
X334004Y608481D01*
X334481Y608004D01*
X334901Y607478D01*
X335260Y606907D01*
X335552Y606300D01*
X335775Y605664D01*
X335925Y605007D01*
X336000Y604337D01*
X336000Y603663D01*
X335925Y602993D01*
X335775Y602336D01*
X335552Y601700D01*
X335260Y601093D01*
X334901Y600523D01*
X334481Y599996D01*
X334004Y599519D01*
X333478Y599099D01*
X332907Y598740D01*
X332300Y598448D01*
X331664Y598225D01*
X331007Y598075D01*
X330337Y598000D01*
X329663Y598000D01*
X469663Y668000D02*
X468993Y668075D01*
X468336Y668225D01*
X467700Y668448D01*
X467093Y668740D01*
X466523Y669099D01*
X465996Y669519D01*
X465519Y669996D01*
X465099Y670523D01*
X464740Y671093D01*
X464448Y671700D01*
X464225Y672336D01*
X464075Y672993D01*
X464000Y673663D01*
X464000Y674337D01*
X464075Y675007D01*
X464225Y675664D01*
X464448Y676300D01*
X464740Y676907D01*
X465099Y677478D01*
X465519Y678004D01*
X465996Y678481D01*
X466523Y678901D01*
X467093Y679260D01*
X467700Y679552D01*
X468336Y679775D01*
X468993Y679925D01*
X469663Y680000D01*
X470337Y680000D01*
X471007Y679925D01*
X471664Y679775D01*
X472300Y679552D01*
X472907Y679260D01*
X473478Y678901D01*
X474004Y678481D01*
X474481Y678004D01*
X474901Y677478D01*
X475260Y676907D01*
X475552Y676300D01*
X475775Y675664D01*
X475925Y675007D01*
X476000Y674337D01*
X476000Y673663D01*
X475925Y672993D01*
X475775Y672336D01*
X475552Y671700D01*
X475260Y671093D01*
X474901Y670523D01*
X474481Y669996D01*
X474004Y669519D01*
X473478Y669099D01*
X472907Y668740D01*
X472300Y668448D01*
X471664Y668225D01*
X471007Y668075D01*
X470337Y668000D01*
X469663Y668000D01*
X469663Y598000D02*
X468993Y598075D01*
X468336Y598225D01*
X467700Y598448D01*
X467093Y598740D01*
X466523Y599099D01*
X465996Y599519D01*
X465519Y599996D01*
X465099Y600523D01*
X464740Y601093D01*
X464448Y601700D01*
X464225Y602336D01*
X464075Y602993D01*
X464000Y603663D01*
X464000Y604337D01*
X464075Y605007D01*
X464225Y605664D01*
X464448Y606300D01*
X464740Y606907D01*
X465099Y607478D01*
X465519Y608004D01*
X465996Y608481D01*
X466523Y608901D01*
X467093Y609260D01*
X467700Y609552D01*
X468336Y609775D01*
X468993Y609925D01*
X469663Y610000D01*
X470337Y610000D01*
X471007Y609925D01*
X471664Y609775D01*
X472300Y609552D01*
X472907Y609260D01*
X473478Y608901D01*
X474004Y608481D01*
X474481Y608004D01*
X474901Y607478D01*
X475260Y606907D01*
X475552Y606300D01*
X475775Y605664D01*
X475925Y605007D01*
X476000Y604337D01*
X476000Y603663D01*
X475925Y602993D01*
X475775Y602336D01*
X475552Y601700D01*
X475260Y601093D01*
X474901Y600523D01*
X474481Y599996D01*
X474004Y599519D01*
X473478Y599099D01*
X472907Y598740D01*
X472300Y598448D01*
X471664Y598225D01*
X471007Y598075D01*
X470337Y598000D01*
X469663Y598000D01*
X609663Y668000D02*
X608993Y668075D01*
X608336Y668225D01*
X607700Y668448D01*
X607093Y668740D01*
X606523Y669099D01*
X605996Y669519D01*
X605519Y669996D01*
X605099Y670523D01*
X604740Y671093D01*
X604448Y671700D01*
X604225Y672336D01*
X604075Y672993D01*
X604000Y673663D01*
X604000Y674337D01*
X604075Y675007D01*
X604225Y675664D01*
X604448Y676300D01*
X604740Y676907D01*
X605099Y677478D01*
X605519Y678004D01*
X605996Y678481D01*
X606523Y678901D01*
X607093Y679260D01*
X607700Y679552D01*
X608336Y679775D01*
X608993Y679925D01*
X609663Y680000D01*
X610337Y680000D01*
X611007Y679925D01*
X611664Y679775D01*
X612300Y679552D01*
X612907Y679260D01*
X613478Y678901D01*
X614004Y678481D01*
X614481Y678004D01*
X614901Y677478D01*
X615260Y676907D01*
X615552Y676300D01*
X615775Y675664D01*
X615925Y675007D01*
X616000Y674337D01*
X616000Y673663D01*
X615925Y672993D01*
X615775Y672336D01*
X615552Y671700D01*
X615260Y671093D01*
X614901Y670523D01*
X614481Y669996D01*
X614004Y669519D01*
X613478Y669099D01*
X612907Y668740D01*
X612300Y668448D01*
X611664Y668225D01*
X611007Y668075D01*
X610337Y668000D01*
X609663Y668000D01*
X609663Y598000D02*
X608993Y598075D01*
X608336Y598225D01*
X607700Y598448D01*
X607093Y598740D01*
X606523Y599099D01*
X605996Y599519D01*
X605519Y599996D01*
X605099Y600523D01*
X604740Y601093D01*
X604448Y601700D01*
X604225Y602336D01*
X604075Y602993D01*
X604000Y603663D01*
X604000Y604337D01*
X604075Y605007D01*
X604225Y605664D01*
X604448Y606300D01*
X604740Y606907D01*
X605099Y607478D01*
X605519Y608004D01*
X605996Y608481D01*
X606523Y608901D01*
X607093Y609260D01*
X607700Y609552D01*
X608336Y609775D01*
X608993Y609925D01*
X609663Y610000D01*
X610337Y610000D01*
X611007Y609925D01*
X611664Y609775D01*
X612300Y609552D01*
X612907Y609260D01*
X613478Y608901D01*
X614004Y608481D01*
X614481Y608004D01*
X614901Y607478D01*
X615260Y606907D01*
X615552Y606300D01*
X615775Y605664D01*
X615925Y605007D01*
X616000Y604337D01*
X616000Y603663D01*
X615925Y602993D01*
X615775Y602336D01*
X615552Y601700D01*
X615260Y601093D01*
X614901Y600523D01*
X614481Y599996D01*
X614004Y599519D01*
X613478Y599099D01*
X612907Y598740D01*
X612300Y598448D01*
X611664Y598225D01*
X611007Y598075D01*
X610337Y598000D01*
X609663Y598000D01*
X190337Y32000D02*
X191007Y31925D01*
X191664Y31775D01*
X192300Y31552D01*
X192907Y31260D01*
X193478Y30901D01*
X194004Y30481D01*
X194481Y30004D01*
X194901Y29478D01*
X195260Y28907D01*
X195552Y28300D01*
X195775Y27664D01*
X195925Y27007D01*
X196000Y26337D01*
X196000Y25663D01*
X195925Y24993D01*
X195775Y24336D01*
X195552Y23700D01*
X195260Y23093D01*
X194901Y22523D01*
X194481Y21996D01*
X194004Y21519D01*
X193478Y21099D01*
X192907Y20740D01*
X192300Y20448D01*
X191664Y20225D01*
X191007Y20075D01*
X190337Y20000D01*
X189663Y20000D01*
X188993Y20075D01*
X188336Y20225D01*
X187700Y20448D01*
X187093Y20740D01*
X186523Y21099D01*
X185996Y21519D01*
X185519Y21996D01*
X185099Y22523D01*
X184740Y23093D01*
X184448Y23700D01*
X184225Y24336D01*
X184075Y24993D01*
X184000Y25663D01*
X184000Y26337D01*
X184075Y27007D01*
X184225Y27664D01*
X184448Y28300D01*
X184740Y28907D01*
X185099Y29478D01*
X185519Y30004D01*
X185996Y30481D01*
X186523Y30901D01*
X187093Y31260D01*
X187700Y31552D01*
X188336Y31775D01*
X188993Y31925D01*
X189663Y32000D01*
X190337Y32000D01*
X190337Y102000D02*
X191007Y101925D01*
X191664Y101775D01*
X192300Y101552D01*
X192907Y101260D01*
X193478Y100901D01*
X194004Y100481D01*
X194481Y100004D01*
X194901Y99478D01*
X195260Y98907D01*
X195552Y98300D01*
X195775Y97664D01*
X195925Y97007D01*
X196000Y96337D01*
X196000Y95663D01*
X195925Y94993D01*
X195775Y94336D01*
X195552Y93700D01*
X195260Y93093D01*
X194901Y92523D01*
X194481Y91996D01*
X194004Y91519D01*
X193478Y91099D01*
X192907Y90740D01*
X192300Y90448D01*
X191664Y90225D01*
X191007Y90075D01*
X190337Y90000D01*
X189663Y90000D01*
X188993Y90075D01*
X188336Y90225D01*
X187700Y90448D01*
X187093Y90740D01*
X186523Y91099D01*
X185996Y91519D01*
X185519Y91996D01*
X185099Y92523D01*
X184740Y93093D01*
X184448Y93700D01*
X184225Y94336D01*
X184075Y94993D01*
X184000Y95663D01*
X184000Y96337D01*
X184075Y97007D01*
X184225Y97664D01*
X184448Y98300D01*
X184740Y98907D01*
X185099Y99478D01*
X185519Y100004D01*
X185996Y100481D01*
X186523Y100901D01*
X187093Y101260D01*
X187700Y101552D01*
X188336Y101775D01*
X188993Y101925D01*
X189663Y102000D01*
X190337Y102000D01*
X300337Y32000D02*
X301007Y31925D01*
X301664Y31775D01*
X302300Y31552D01*
X302907Y31260D01*
X303478Y30901D01*
X304004Y30481D01*
X304481Y30004D01*
X304901Y29478D01*
X305260Y28907D01*
X305552Y28300D01*
X305775Y27664D01*
X305925Y27007D01*
X306000Y26337D01*
X306000Y25663D01*
X305925Y24993D01*
X305775Y24336D01*
X305552Y23700D01*
X305260Y23093D01*
X304901Y22523D01*
X304481Y21996D01*
X304004Y21519D01*
X303478Y21099D01*
X302907Y20740D01*
X302300Y20448D01*
X301664Y20225D01*
X301007Y20075D01*
X300337Y20000D01*
X299663Y20000D01*
X298993Y20075D01*
X298336Y20225D01*
X297700Y20448D01*
X297093Y20740D01*
X296523Y21099D01*
X295996Y21519D01*
X295519Y21996D01*
X295099Y22523D01*
X294740Y23093D01*
X294448Y23700D01*
X294225Y24336D01*
X294075Y24993D01*
X294000Y25663D01*
X294000Y26337D01*
X294075Y27007D01*
X294225Y27664D01*
X294448Y28300D01*
X294740Y28907D01*
X295099Y29478D01*
X295519Y30004D01*
X295996Y30481D01*
X296523Y30901D01*
X297093Y31260D01*
X297700Y31552D01*
X298336Y31775D01*
X298993Y31925D01*
X299663Y32000D01*
X300337Y32000D01*
X300337Y102000D02*
X301007Y101925D01*
X301664Y101775D01*
X302300Y101552D01*
X302907Y101260D01*
X303478Y100901D01*
X304004Y100481D01*
X304481Y100004D01*
X304901Y99478D01*
X305260Y98907D01*
X305552Y98300D01*
X305775Y97664D01*
X305925Y97007D01*
X306000Y96337D01*
X306000Y95663D01*
X305925Y94993D01*
X305775Y94336D01*
X305552Y93700D01*
X305260Y93093D01*
X304901Y92523D01*
X304481Y91996D01*
X304004Y91519D01*
X303478Y91099D01*
X302907Y90740D01*
X302300Y90448D01*
X301664Y90225D01*
X301007Y90075D01*
X300337Y90000D01*
X299663Y90000D01*
X298993Y90075D01*
X298336Y90225D01*
X297700Y90448D01*
X297093Y90740D01*
X296523Y91099D01*
X295996Y91519D01*
X295519Y91996D01*
X295099Y92523D01*
X294740Y93093D01*
X294448Y93700D01*
X294225Y94336D01*
X294075Y94993D01*
X294000Y95663D01*
X294000Y96337D01*
X294075Y97007D01*
X294225Y97664D01*
X294448Y98300D01*
X294740Y98907D01*
X295099Y99478D01*
X295519Y100004D01*
X295996Y100481D01*
X296523Y100901D01*
X297093Y101260D01*
X297700Y101552D01*
X298336Y101775D01*
X298993Y101925D01*
X299663Y102000D01*
X300337Y102000D01*
X410337Y32000D02*
X411007Y31925D01*
X411664Y31775D01*
X412300Y31552D01*
X412907Y31260D01*
X413478Y30901D01*
X414004Y30481D01*
X414481Y30004D01*
X414901Y29478D01*
X415260Y28907D01*
X415552Y28300D01*
X415775Y27664D01*
X415925Y27007D01*
X416000Y26337D01*
X416000Y25663D01*
X415925Y24993D01*
X415775Y24336D01*
X415552Y23700D01*
X415260Y23093D01*
X414901Y22523D01*
X414481Y21996D01*
X414004Y21519D01*
X413478Y21099D01*
X412907Y20740D01*
X412300Y20448D01*
X411664Y20225D01*
X411007Y20075D01*
X410337Y20000D01*
X409663Y20000D01*
X408993Y20075D01*
X408336Y20225D01*
X407700Y20448D01*
X407093Y20740D01*
X406523Y21099D01*
X405996Y21519D01*
X405519Y21996D01*
X405099Y22523D01*
X404740Y23093D01*
X404448Y23700D01*
X404225Y24336D01*
X404075Y24993D01*
X404000Y25663D01*
X404000Y26337D01*
X404075Y27007D01*
X404225Y27664D01*
X404448Y28300D01*
X404740Y28907D01*
X405099Y29478D01*
X405519Y30004D01*
X405996Y30481D01*
X406523Y30901D01*
X407093Y31260D01*
X407700Y31552D01*
X408336Y31775D01*
X408993Y31925D01*
X409663Y32000D01*
X410337Y32000D01*
X410337Y102000D02*
X411007Y101925D01*
X411664Y101775D01*
X412300Y101552D01*
X412907Y101260D01*
X413478Y100901D01*
X414004Y100481D01*
X414481Y100004D01*
X414901Y99478D01*
X415260Y98907D01*
X415552Y98300D01*
X415775Y97664D01*
X415925Y97007D01*
X416000Y96337D01*
X416000Y95663D01*
X415925Y94993D01*
X415775Y94336D01*
X415552Y93700D01*
X415260Y93093D01*
X414901Y92523D01*
X414481Y91996D01*
X414004Y91519D01*
X413478Y91099D01*
X412907Y90740D01*
X412300Y90448D01*
X411664Y90225D01*
X411007Y90075D01*
X410337Y90000D01*
X409663Y90000D01*
X408993Y90075D01*
X408336Y90225D01*
X407700Y90448D01*
X407093Y90740D01*
X406523Y91099D01*
X405996Y91519D01*
X405519Y91996D01*
X405099Y92523D01*
X404740Y93093D01*
X404448Y93700D01*
X404225Y94336D01*
X404075Y94993D01*
X404000Y95663D01*
X404000Y96337D01*
X404075Y97007D01*
X404225Y97664D01*
X404448Y98300D01*
X404740Y98907D01*
X405099Y99478D01*
X405519Y100004D01*
X405996Y100481D01*
X406523Y100901D01*
X407093Y101260D01*
X407700Y101552D01*
X408336Y101775D01*
X408993Y101925D01*
X409663Y102000D01*
X410337Y102000D01*
X520337Y32000D02*
X521007Y31925D01*
X521664Y31775D01*
X522300Y31552D01*
X522907Y31260D01*
X523478Y30901D01*
X524004Y30481D01*
X524481Y30004D01*
X524901Y29478D01*
X525260Y28907D01*
X525552Y28300D01*
X525775Y27664D01*
X525925Y27007D01*
X526000Y26337D01*
X526000Y25663D01*
X525925Y24993D01*
X525775Y24336D01*
X525552Y23700D01*
X525260Y23093D01*
X524901Y22523D01*
X524481Y21996D01*
X524004Y21519D01*
X523478Y21099D01*
X522907Y20740D01*
X522300Y20448D01*
X521664Y20225D01*
X521007Y20075D01*
X520337Y20000D01*
X519663Y20000D01*
X518993Y20075D01*
X518336Y20225D01*
X517700Y20448D01*
X517093Y20740D01*
X516523Y21099D01*
X515996Y21519D01*
X515519Y21996D01*
X515099Y22523D01*
X514740Y23093D01*
X514448Y23700D01*
X514225Y24336D01*
X514075Y24993D01*
X514000Y25663D01*
X514000Y26337D01*
X514075Y27007D01*
X514225Y27664D01*
X514448Y28300D01*
X514740Y28907D01*
X515099Y29478D01*
X515519Y30004D01*
X515996Y30481D01*
X516523Y30901D01*
X517093Y31260D01*
X517700Y31552D01*
X518336Y31775D01*
X518993Y31925D01*
X519663Y32000D01*
X520337Y32000D01*
X520337Y102000D02*
X521007Y101925D01*
X521664Y101775D01*
X522300Y101552D01*
X522907Y101260D01*
X523478Y100901D01*
X524004Y100481D01*
X524481Y100004D01*
X524901Y99478D01*
X525260Y98907D01*
X525552Y98300D01*
X525775Y97664D01*
X525925Y97007D01*
X526000Y96337D01*
X526000Y95663D01*
X525925Y94993D01*
X525775Y94336D01*
X525552Y93700D01*
X525260Y93093D01*
X524901Y92523D01*
X524481Y91996D01*
X524004Y91519D01*
X523478Y91099D01*
X522907Y90740D01*
X522300Y90448D01*
X521664Y90225D01*
X521007Y90075D01*
X520337Y90000D01*
X519663Y90000D01*
X518993Y90075D01*
X518336Y90225D01*
X517700Y90448D01*
X517093Y90740D01*
X516523Y91099D01*
X515996Y91519D01*
X515519Y91996D01*
X515099Y92523D01*
X514740Y93093D01*
X514448Y93700D01*
X514225Y94336D01*
X514075Y94993D01*
X514000Y95663D01*
X514000Y96337D01*
X514075Y97007D01*
X514225Y97664D01*
X514448Y98300D01*
X514740Y98907D01*
X515099Y99478D01*
X515519Y100004D01*
X515996Y100481D01*
X516523Y100901D01*
X517093Y101260D01*
X517700Y101552D01*
X518336Y101775D01*
X518993Y101925D01*
X519663Y102000D01*
X520337Y102000D01*
M02*
