G04 EAGLE Gerber RS-274X export*
G75*
%MOMM*%
%FSLAX34Y34*%
%LPD*%
%INSoldermask Top*%
%IPPOS*%
%AMOC8*
5,1,8,0,0,1.08239X$1,22.5*%
G01*
%ADD10C,1.603200*%
%ADD11R,1.203200X1.303200*%
%ADD12C,1.983200*%
%ADD13C,6.045200*%
%ADD14R,2.703200X1.403200*%
%ADD15C,1.403200*%
%ADD16R,1.303200X1.203200*%
%ADD17R,2.006200X1.803200*%
%ADD18C,1.993900*%
%ADD19C,0.959600*%


D10*
X49300Y501000D03*
X74700Y501000D03*
D11*
X46500Y425000D03*
X63500Y425000D03*
X220000Y548500D03*
X220000Y531500D03*
D12*
X484900Y236100D03*
X459500Y236100D03*
X434100Y236100D03*
X408700Y236100D03*
X383300Y236100D03*
X357900Y236100D03*
X332500Y236100D03*
X307100Y236100D03*
X281700Y236100D03*
X256300Y236100D03*
X230900Y236100D03*
X205500Y236100D03*
X484900Y464700D03*
X459500Y464700D03*
X434100Y464700D03*
X408700Y464700D03*
X383300Y464700D03*
X357900Y464700D03*
X332500Y464700D03*
X307100Y464700D03*
X281700Y464700D03*
X256300Y464700D03*
X230900Y464700D03*
X205500Y464700D03*
D13*
X50000Y50000D03*
X50000Y650000D03*
X750000Y50000D03*
X750000Y650000D03*
D14*
X224430Y590540D03*
X159430Y579540D03*
X224430Y630540D03*
X224430Y660540D03*
D15*
X191930Y676540D03*
X191930Y606540D03*
D14*
X362500Y588000D03*
X297500Y577000D03*
X362500Y628000D03*
X362500Y658000D03*
D15*
X330000Y674000D03*
X330000Y604000D03*
D14*
X502500Y588000D03*
X437500Y577000D03*
X502500Y628000D03*
X502500Y658000D03*
D15*
X470000Y674000D03*
X470000Y604000D03*
D14*
X642500Y588000D03*
X577500Y577000D03*
X642500Y628000D03*
X642500Y658000D03*
D15*
X610000Y674000D03*
X610000Y604000D03*
D14*
X157500Y112000D03*
X222500Y123000D03*
X157500Y72000D03*
X157500Y42000D03*
D15*
X190000Y26000D03*
X190000Y96000D03*
D14*
X267500Y112000D03*
X332500Y123000D03*
X267500Y72000D03*
X267500Y42000D03*
D15*
X300000Y26000D03*
X300000Y96000D03*
D14*
X377500Y112000D03*
X442500Y123000D03*
X377500Y72000D03*
X377500Y42000D03*
D15*
X410000Y26000D03*
X410000Y96000D03*
D14*
X487500Y112000D03*
X552500Y123000D03*
X487500Y72000D03*
X487500Y42000D03*
D15*
X520000Y26000D03*
X520000Y96000D03*
D16*
X190000Y531500D03*
X190000Y548500D03*
X160000Y548500D03*
X160000Y531500D03*
D17*
X130000Y654220D03*
X130000Y625780D03*
D11*
X360000Y548500D03*
X360000Y531500D03*
D16*
X330000Y531500D03*
X330000Y548500D03*
X300000Y548500D03*
X300000Y531500D03*
D17*
X270000Y654220D03*
X270000Y625780D03*
D11*
X500000Y548500D03*
X500000Y531500D03*
D16*
X470000Y531500D03*
X470000Y548500D03*
X440000Y548500D03*
X440000Y531500D03*
D17*
X410000Y654220D03*
X410000Y625780D03*
D11*
X640000Y548500D03*
X640000Y531500D03*
D16*
X610000Y531500D03*
X610000Y548500D03*
X580000Y548500D03*
X580000Y531500D03*
D17*
X550000Y654220D03*
X550000Y625780D03*
D11*
X220000Y151500D03*
X220000Y168500D03*
D16*
X190000Y168500D03*
X190000Y151500D03*
X160000Y151500D03*
X160000Y168500D03*
D17*
X130000Y55780D03*
X130000Y84220D03*
D11*
X330000Y151500D03*
X330000Y168500D03*
D16*
X300000Y168500D03*
X300000Y151500D03*
X270000Y151500D03*
X270000Y168500D03*
D17*
X240000Y55780D03*
X240000Y84220D03*
D11*
X440000Y151500D03*
X440000Y168500D03*
D16*
X410000Y168500D03*
X410000Y151500D03*
X380000Y151500D03*
X380000Y168500D03*
D17*
X350000Y55780D03*
X350000Y84220D03*
D11*
X550000Y151500D03*
X550000Y168500D03*
D16*
X520000Y168500D03*
X520000Y151500D03*
X490000Y151500D03*
X490000Y168500D03*
D17*
X460000Y55780D03*
X460000Y84220D03*
D18*
X655400Y65304D02*
X655400Y47397D01*
X604600Y47397D02*
X604600Y65304D01*
D19*
X28000Y650000D03*
X34472Y665405D03*
X49941Y671722D03*
X65346Y665251D03*
X71663Y649781D03*
X65191Y634376D03*
X49722Y628059D03*
X34317Y634531D03*
X728000Y50000D03*
X734472Y65405D03*
X749941Y71722D03*
X765346Y65251D03*
X771663Y49781D03*
X765191Y34376D03*
X749722Y28059D03*
X734317Y34531D03*
X28000Y50000D03*
X34472Y65405D03*
X49941Y71722D03*
X65346Y65251D03*
X71663Y49781D03*
X65191Y34376D03*
X49722Y28059D03*
X34317Y34531D03*
X728000Y650000D03*
X734472Y665405D03*
X749941Y671722D03*
X765346Y665251D03*
X771663Y649781D03*
X765191Y634376D03*
X749722Y628059D03*
X734317Y634531D03*
X240000Y180000D03*
X355000Y180000D03*
X395000Y190000D03*
X224430Y612000D03*
X362500Y610000D03*
X502500Y609000D03*
X642500Y642000D03*
X157500Y91000D03*
X267500Y91000D03*
X377500Y92000D03*
X487500Y90000D03*
M02*
