G04 EAGLE Gerber RS-274X export*
G75*
%MOMM*%
%FSLAX34Y34*%
%LPD*%
%INTop Copper*%
%IPPOS*%
%AMOC8*
5,1,8,0,0,1.08239X$1,22.5*%
G01*
%ADD10R,1.168400X1.600200*%
%ADD11R,1.000000X1.000000*%
%ADD12C,0.609600*%
%ADD13C,0.200000*%
%ADD14C,0.508000*%
%ADD15C,0.254000*%
%ADD16C,0.203200*%
%ADD17C,0.711200*%

G36*
X14444Y289255D02*
X14444Y289255D01*
X14469Y289252D01*
X14564Y289275D01*
X14661Y289290D01*
X14682Y289302D01*
X14706Y289308D01*
X14790Y289359D01*
X14876Y289405D01*
X14893Y289423D01*
X14914Y289436D01*
X14976Y289512D01*
X15043Y289584D01*
X15053Y289606D01*
X15069Y289625D01*
X15103Y289716D01*
X15144Y289806D01*
X15146Y289830D01*
X15155Y289853D01*
X15169Y290000D01*
X15169Y604199D01*
X15165Y604223D01*
X15168Y604248D01*
X15146Y604343D01*
X15130Y604440D01*
X15118Y604461D01*
X15112Y604485D01*
X15061Y604569D01*
X15015Y604655D01*
X14997Y604672D01*
X14984Y604693D01*
X14908Y604755D01*
X14837Y604822D01*
X14814Y604832D01*
X14795Y604848D01*
X14704Y604882D01*
X14614Y604923D01*
X14590Y604925D01*
X14567Y604934D01*
X14420Y604948D01*
X13069Y604948D01*
X11867Y606150D01*
X11867Y623850D01*
X13069Y625052D01*
X26451Y625052D01*
X26850Y624653D01*
X26870Y624639D01*
X26886Y624620D01*
X26969Y624568D01*
X27049Y624511D01*
X27072Y624504D01*
X27093Y624491D01*
X27188Y624468D01*
X27282Y624440D01*
X27306Y624441D01*
X27330Y624435D01*
X27428Y624445D01*
X27526Y624448D01*
X27549Y624456D01*
X27573Y624459D01*
X27663Y624499D01*
X27754Y624534D01*
X27773Y624549D01*
X27796Y624559D01*
X27910Y624653D01*
X28309Y625052D01*
X29152Y625052D01*
X29176Y625056D01*
X29201Y625053D01*
X29296Y625075D01*
X29393Y625091D01*
X29414Y625103D01*
X29438Y625109D01*
X29522Y625160D01*
X29608Y625206D01*
X29625Y625224D01*
X29646Y625237D01*
X29708Y625313D01*
X29775Y625384D01*
X29785Y625407D01*
X29801Y625426D01*
X29835Y625517D01*
X29876Y625607D01*
X29878Y625631D01*
X29887Y625654D01*
X29901Y625801D01*
X29901Y749122D01*
X29888Y749203D01*
X29883Y749285D01*
X29868Y749322D01*
X29862Y749362D01*
X29823Y749435D01*
X29792Y749511D01*
X29766Y749542D01*
X29747Y749578D01*
X29687Y749634D01*
X29633Y749696D01*
X29586Y749728D01*
X29569Y749744D01*
X29549Y749753D01*
X29511Y749779D01*
X28807Y750163D01*
X28784Y750171D01*
X28710Y750208D01*
X28095Y750437D01*
X28095Y750438D01*
X28048Y750493D01*
X28023Y750533D01*
X28016Y750538D01*
X28000Y750562D01*
X27965Y750589D01*
X27936Y750623D01*
X27814Y750706D01*
X26319Y751522D01*
X26277Y751537D01*
X26239Y751560D01*
X26163Y751577D01*
X26089Y751603D01*
X26044Y751603D01*
X26001Y751613D01*
X25945Y751610D01*
X25415Y752007D01*
X25394Y752018D01*
X25325Y752065D01*
X24749Y752379D01*
X24749Y752380D01*
X24707Y752446D01*
X24673Y752516D01*
X24642Y752548D01*
X24618Y752586D01*
X24509Y752685D01*
X23146Y753706D01*
X23106Y753727D01*
X23072Y753755D01*
X22999Y753782D01*
X22929Y753819D01*
X22885Y753825D01*
X22844Y753841D01*
X22788Y753846D01*
X22320Y754315D01*
X22300Y754329D01*
X22239Y754385D01*
X21714Y754778D01*
X21714Y754779D01*
X21681Y754850D01*
X21658Y754925D01*
X21631Y754960D01*
X21613Y755001D01*
X21519Y755115D01*
X20315Y756319D01*
X20279Y756345D01*
X20249Y756378D01*
X20181Y756416D01*
X20117Y756462D01*
X20074Y756475D01*
X20035Y756496D01*
X19981Y756509D01*
X19585Y757039D01*
X19567Y757056D01*
X19515Y757120D01*
X19050Y757584D01*
X19050Y757585D01*
X19029Y757660D01*
X19016Y757737D01*
X18995Y757776D01*
X18983Y757819D01*
X18906Y757946D01*
X17885Y759309D01*
X17853Y759340D01*
X17828Y759376D01*
X17766Y759424D01*
X17709Y759478D01*
X17669Y759497D01*
X17634Y759523D01*
X17582Y759544D01*
X17265Y760125D01*
X17250Y760145D01*
X17207Y760215D01*
X16813Y760741D01*
X16814Y760741D01*
X16803Y760819D01*
X16801Y760897D01*
X16786Y760939D01*
X16780Y760983D01*
X16722Y761119D01*
X15906Y762614D01*
X15879Y762649D01*
X15859Y762689D01*
X15804Y762745D01*
X15756Y762806D01*
X15718Y762831D01*
X15687Y762862D01*
X15639Y762890D01*
X15408Y763510D01*
X15396Y763531D01*
X15363Y763607D01*
X15049Y764184D01*
X15049Y764263D01*
X15059Y764340D01*
X15050Y764384D01*
X15050Y764428D01*
X15012Y764571D01*
X14417Y766167D01*
X14395Y766205D01*
X14381Y766248D01*
X14334Y766311D01*
X14296Y766379D01*
X14262Y766408D01*
X14236Y766444D01*
X14192Y766478D01*
X14051Y767125D01*
X14042Y767148D01*
X14021Y767228D01*
X13792Y767843D01*
X13804Y767921D01*
X13824Y767996D01*
X13821Y768041D01*
X13828Y768085D01*
X13811Y768231D01*
X13449Y769896D01*
X13432Y769937D01*
X13425Y769981D01*
X13388Y770050D01*
X13359Y770122D01*
X13330Y770156D01*
X13309Y770195D01*
X13270Y770236D01*
X13223Y770896D01*
X13218Y770920D01*
X13208Y771002D01*
X13068Y771643D01*
X13069Y771644D01*
X13091Y771719D01*
X13122Y771791D01*
X13126Y771835D01*
X13138Y771878D01*
X13142Y772025D01*
X13029Y773612D01*
X13012Y773681D01*
X13006Y773752D01*
X12984Y773799D01*
X12972Y773849D01*
X12949Y773886D01*
X12949Y774700D01*
X12946Y774718D01*
X12947Y774754D01*
X12890Y775555D01*
X12894Y775562D01*
X12910Y775631D01*
X12935Y775697D01*
X12942Y775775D01*
X12948Y775800D01*
X12946Y775815D01*
X12949Y775844D01*
X12949Y849156D01*
X12938Y849226D01*
X12936Y849297D01*
X12918Y849345D01*
X12910Y849396D01*
X12889Y849434D01*
X12947Y850246D01*
X12946Y850264D01*
X12949Y850300D01*
X12949Y851104D01*
X12954Y851110D01*
X12974Y851178D01*
X13004Y851242D01*
X13017Y851319D01*
X13024Y851343D01*
X13024Y851359D01*
X13029Y851388D01*
X13142Y852975D01*
X13138Y853019D01*
X13144Y853063D01*
X13127Y853140D01*
X13120Y853218D01*
X13102Y853258D01*
X13093Y853302D01*
X13067Y853351D01*
X13208Y853998D01*
X13209Y854022D01*
X13223Y854104D01*
X13270Y854759D01*
X13271Y854759D01*
X13313Y854825D01*
X13363Y854885D01*
X13379Y854927D01*
X13403Y854964D01*
X13449Y855104D01*
X13811Y856769D01*
X13813Y856813D01*
X13824Y856856D01*
X13819Y856934D01*
X13823Y857012D01*
X13811Y857055D01*
X13808Y857099D01*
X13790Y857152D01*
X14021Y857772D01*
X14026Y857796D01*
X14051Y857875D01*
X14191Y858516D01*
X14191Y858517D01*
X14243Y858576D01*
X14301Y858628D01*
X14323Y858667D01*
X14352Y858701D01*
X14417Y858833D01*
X15012Y860429D01*
X15021Y860472D01*
X15038Y860513D01*
X15044Y860592D01*
X15059Y860668D01*
X15053Y860712D01*
X15056Y860757D01*
X15046Y860811D01*
X15363Y861393D01*
X15371Y861416D01*
X15408Y861490D01*
X15637Y862105D01*
X15638Y862105D01*
X15697Y862156D01*
X15762Y862200D01*
X15789Y862235D01*
X15823Y862264D01*
X15906Y862386D01*
X16722Y863881D01*
X16737Y863923D01*
X16760Y863961D01*
X16777Y864037D01*
X16803Y864111D01*
X16803Y864156D01*
X16813Y864199D01*
X16810Y864255D01*
X17207Y864785D01*
X17218Y864806D01*
X17265Y864875D01*
X17579Y865451D01*
X17580Y865451D01*
X17646Y865493D01*
X17716Y865527D01*
X17748Y865558D01*
X17786Y865582D01*
X17885Y865691D01*
X18906Y867054D01*
X18927Y867094D01*
X18955Y867128D01*
X18982Y867201D01*
X19019Y867271D01*
X19025Y867315D01*
X19041Y867356D01*
X19046Y867412D01*
X19515Y867880D01*
X19529Y867900D01*
X19585Y867961D01*
X19978Y868486D01*
X19979Y868486D01*
X20050Y868519D01*
X20125Y868542D01*
X20160Y868569D01*
X20201Y868587D01*
X20315Y868681D01*
X21519Y869885D01*
X21545Y869921D01*
X21578Y869951D01*
X21616Y870019D01*
X21662Y870083D01*
X21675Y870126D01*
X21696Y870165D01*
X21709Y870219D01*
X22239Y870615D01*
X22256Y870633D01*
X22320Y870685D01*
X22784Y871150D01*
X22785Y871150D01*
X22860Y871171D01*
X22937Y871184D01*
X22976Y871205D01*
X23019Y871217D01*
X23146Y871294D01*
X24509Y872315D01*
X24516Y872321D01*
X24517Y872322D01*
X24537Y872344D01*
X24540Y872347D01*
X24576Y872372D01*
X24624Y872434D01*
X24678Y872491D01*
X24681Y872498D01*
X24683Y872500D01*
X24699Y872533D01*
X24723Y872566D01*
X24744Y872618D01*
X25325Y872935D01*
X25345Y872950D01*
X25415Y872993D01*
X25941Y873387D01*
X25941Y873386D01*
X26019Y873397D01*
X26097Y873399D01*
X26139Y873414D01*
X26183Y873420D01*
X26319Y873478D01*
X27814Y874294D01*
X27849Y874321D01*
X27889Y874341D01*
X27945Y874396D01*
X28006Y874444D01*
X28031Y874482D01*
X28062Y874513D01*
X28090Y874561D01*
X28710Y874792D01*
X28731Y874804D01*
X28807Y874837D01*
X29384Y875151D01*
X29463Y875151D01*
X29540Y875141D01*
X29584Y875150D01*
X29628Y875150D01*
X29771Y875188D01*
X31367Y875783D01*
X31405Y875805D01*
X31448Y875819D01*
X31510Y875865D01*
X31579Y875904D01*
X31608Y875938D01*
X31644Y875964D01*
X31678Y876008D01*
X32325Y876149D01*
X32348Y876158D01*
X32428Y876179D01*
X33043Y876408D01*
X33121Y876396D01*
X33196Y876376D01*
X33241Y876379D01*
X33285Y876372D01*
X33431Y876389D01*
X35096Y876751D01*
X35137Y876768D01*
X35181Y876775D01*
X35250Y876812D01*
X35322Y876841D01*
X35356Y876870D01*
X35395Y876891D01*
X35436Y876930D01*
X36096Y876977D01*
X36120Y876982D01*
X36202Y876992D01*
X36843Y877132D01*
X36844Y877131D01*
X36919Y877109D01*
X36991Y877078D01*
X37035Y877074D01*
X37078Y877062D01*
X37225Y877058D01*
X38924Y877179D01*
X38967Y877189D01*
X39012Y877191D01*
X39085Y877218D01*
X39161Y877236D01*
X39199Y877260D01*
X39241Y877275D01*
X39286Y877307D01*
X39947Y877260D01*
X39971Y877262D01*
X40053Y877260D01*
X40708Y877307D01*
X40709Y877306D01*
X40780Y877273D01*
X40847Y877232D01*
X40890Y877223D01*
X40930Y877204D01*
X41076Y877179D01*
X42775Y877058D01*
X42819Y877062D01*
X42863Y877056D01*
X42940Y877073D01*
X43018Y877080D01*
X43058Y877098D01*
X43102Y877107D01*
X43151Y877133D01*
X43798Y876992D01*
X43822Y876991D01*
X43904Y876977D01*
X44559Y876930D01*
X44625Y876887D01*
X44685Y876837D01*
X44727Y876821D01*
X44764Y876797D01*
X44904Y876751D01*
X46569Y876389D01*
X46613Y876387D01*
X46656Y876376D01*
X46734Y876381D01*
X46812Y876377D01*
X46855Y876389D01*
X46899Y876392D01*
X46952Y876410D01*
X47572Y876179D01*
X47596Y876174D01*
X47675Y876149D01*
X48317Y876009D01*
X48376Y875957D01*
X48428Y875899D01*
X48467Y875877D01*
X48501Y875848D01*
X48633Y875783D01*
X50229Y875188D01*
X50272Y875179D01*
X50313Y875162D01*
X50392Y875156D01*
X50468Y875141D01*
X50512Y875147D01*
X50557Y875144D01*
X50611Y875154D01*
X51193Y874837D01*
X51216Y874829D01*
X51290Y874792D01*
X51905Y874563D01*
X51905Y874562D01*
X51956Y874503D01*
X52000Y874438D01*
X52035Y874411D01*
X52064Y874377D01*
X52186Y874294D01*
X53681Y873478D01*
X53723Y873463D01*
X53761Y873440D01*
X53837Y873423D01*
X53911Y873397D01*
X53956Y873397D01*
X53999Y873387D01*
X54055Y873390D01*
X54585Y872993D01*
X54606Y872982D01*
X54675Y872935D01*
X55251Y872621D01*
X55251Y872620D01*
X55293Y872554D01*
X55327Y872484D01*
X55357Y872453D01*
X55376Y872423D01*
X55378Y872421D01*
X55382Y872414D01*
X55491Y872315D01*
X56854Y871294D01*
X56894Y871273D01*
X56928Y871245D01*
X57001Y871218D01*
X57071Y871181D01*
X57115Y871175D01*
X57156Y871159D01*
X57212Y871154D01*
X57680Y870685D01*
X57700Y870671D01*
X57761Y870615D01*
X58286Y870222D01*
X58286Y870221D01*
X58319Y870150D01*
X58342Y870075D01*
X58369Y870040D01*
X58387Y869999D01*
X58481Y869885D01*
X59685Y868681D01*
X59721Y868655D01*
X59751Y868622D01*
X59819Y868584D01*
X59883Y868538D01*
X59926Y868526D01*
X59965Y868504D01*
X60019Y868491D01*
X60415Y867961D01*
X60433Y867944D01*
X60443Y867927D01*
X60454Y867919D01*
X60485Y867880D01*
X60950Y867416D01*
X60950Y867415D01*
X60971Y867340D01*
X60984Y867263D01*
X61005Y867224D01*
X61017Y867181D01*
X61094Y867054D01*
X62115Y865691D01*
X62125Y865681D01*
X62126Y865680D01*
X62130Y865676D01*
X62147Y865660D01*
X62172Y865624D01*
X62234Y865576D01*
X62291Y865522D01*
X62331Y865503D01*
X62366Y865477D01*
X62418Y865456D01*
X62735Y864875D01*
X62750Y864855D01*
X62793Y864785D01*
X63187Y864259D01*
X63186Y864259D01*
X63197Y864181D01*
X63199Y864103D01*
X63214Y864061D01*
X63220Y864017D01*
X63278Y863881D01*
X64094Y862386D01*
X64121Y862351D01*
X64141Y862311D01*
X64196Y862255D01*
X64244Y862194D01*
X64282Y862169D01*
X64313Y862138D01*
X64361Y862110D01*
X64592Y861490D01*
X64604Y861469D01*
X64637Y861393D01*
X64951Y860816D01*
X64951Y860737D01*
X64941Y860660D01*
X64950Y860616D01*
X64950Y860572D01*
X64988Y860429D01*
X65583Y858833D01*
X65605Y858795D01*
X65619Y858752D01*
X65665Y858690D01*
X65704Y858621D01*
X65738Y858592D01*
X65764Y858556D01*
X65808Y858522D01*
X65949Y857875D01*
X65958Y857852D01*
X65979Y857772D01*
X66208Y857157D01*
X66196Y857079D01*
X66176Y857004D01*
X66179Y856959D01*
X66172Y856915D01*
X66189Y856769D01*
X66551Y855104D01*
X66568Y855063D01*
X66575Y855019D01*
X66612Y854950D01*
X66641Y854878D01*
X66670Y854844D01*
X66691Y854805D01*
X66730Y854764D01*
X66777Y854104D01*
X66782Y854080D01*
X66792Y853998D01*
X66932Y853357D01*
X66931Y853356D01*
X66909Y853281D01*
X66878Y853209D01*
X66874Y853165D01*
X66862Y853122D01*
X66858Y852975D01*
X66971Y851388D01*
X66988Y851319D01*
X66994Y851248D01*
X67016Y851201D01*
X67028Y851151D01*
X67051Y851114D01*
X67051Y850300D01*
X67054Y850282D01*
X67053Y850246D01*
X67110Y849445D01*
X67106Y849438D01*
X67090Y849369D01*
X67065Y849303D01*
X67058Y849225D01*
X67052Y849200D01*
X67054Y849185D01*
X67051Y849156D01*
X67051Y775844D01*
X67062Y775774D01*
X67064Y775703D01*
X67082Y775655D01*
X67090Y775604D01*
X67111Y775566D01*
X67053Y774754D01*
X67054Y774736D01*
X67051Y774700D01*
X67051Y773896D01*
X67046Y773890D01*
X67026Y773822D01*
X66996Y773758D01*
X66983Y773681D01*
X66976Y773657D01*
X66976Y773641D01*
X66971Y773612D01*
X66858Y772025D01*
X66862Y771981D01*
X66856Y771937D01*
X66873Y771860D01*
X66880Y771782D01*
X66898Y771742D01*
X66907Y771698D01*
X66933Y771649D01*
X66792Y771002D01*
X66791Y770978D01*
X66777Y770896D01*
X66730Y770241D01*
X66687Y770175D01*
X66637Y770115D01*
X66621Y770073D01*
X66597Y770036D01*
X66551Y769896D01*
X66189Y768231D01*
X66187Y768187D01*
X66176Y768144D01*
X66181Y768066D01*
X66177Y767988D01*
X66189Y767945D01*
X66192Y767901D01*
X66210Y767848D01*
X65979Y767228D01*
X65974Y767204D01*
X65949Y767125D01*
X65809Y766483D01*
X65757Y766424D01*
X65699Y766372D01*
X65677Y766333D01*
X65648Y766299D01*
X65583Y766167D01*
X64988Y764571D01*
X64979Y764528D01*
X64962Y764487D01*
X64956Y764408D01*
X64941Y764332D01*
X64947Y764288D01*
X64944Y764243D01*
X64954Y764189D01*
X64637Y763607D01*
X64629Y763584D01*
X64592Y763510D01*
X64363Y762895D01*
X64362Y762895D01*
X64303Y762844D01*
X64238Y762800D01*
X64211Y762765D01*
X64177Y762736D01*
X64094Y762614D01*
X63278Y761119D01*
X63263Y761077D01*
X63240Y761039D01*
X63223Y760963D01*
X63197Y760889D01*
X63197Y760844D01*
X63187Y760801D01*
X63190Y760745D01*
X62793Y760215D01*
X62787Y760204D01*
X62780Y760196D01*
X62773Y760181D01*
X62735Y760125D01*
X62421Y759549D01*
X62420Y759549D01*
X62354Y759507D01*
X62284Y759473D01*
X62252Y759442D01*
X62214Y759418D01*
X62115Y759309D01*
X61094Y757946D01*
X61073Y757906D01*
X61045Y757872D01*
X61018Y757799D01*
X60981Y757729D01*
X60975Y757685D01*
X60959Y757643D01*
X60954Y757588D01*
X60486Y757120D01*
X60471Y757100D01*
X60416Y757039D01*
X60022Y756514D01*
X60021Y756514D01*
X59950Y756481D01*
X59875Y756458D01*
X59840Y756431D01*
X59799Y756413D01*
X59685Y756319D01*
X58481Y755115D01*
X58455Y755079D01*
X58422Y755049D01*
X58384Y754981D01*
X58338Y754917D01*
X58325Y754874D01*
X58304Y754835D01*
X58291Y754781D01*
X57761Y754385D01*
X57758Y754382D01*
X57755Y754380D01*
X57739Y754363D01*
X57680Y754315D01*
X57216Y753850D01*
X57215Y753850D01*
X57140Y753829D01*
X57063Y753816D01*
X57024Y753795D01*
X56981Y753783D01*
X56854Y753706D01*
X55491Y752685D01*
X55460Y752653D01*
X55424Y752628D01*
X55376Y752566D01*
X55322Y752509D01*
X55303Y752469D01*
X55277Y752434D01*
X55256Y752382D01*
X54675Y752065D01*
X54655Y752050D01*
X54585Y752007D01*
X54059Y751613D01*
X54059Y751614D01*
X53981Y751603D01*
X53903Y751601D01*
X53861Y751586D01*
X53817Y751580D01*
X53681Y751522D01*
X52186Y750706D01*
X52151Y750679D01*
X52111Y750659D01*
X52087Y750635D01*
X52085Y750634D01*
X52075Y750623D01*
X52055Y750604D01*
X51994Y750556D01*
X51969Y750518D01*
X51938Y750487D01*
X51922Y750460D01*
X51918Y750456D01*
X51913Y750445D01*
X51910Y750439D01*
X51290Y750208D01*
X51269Y750196D01*
X51193Y750163D01*
X50616Y749849D01*
X50537Y749849D01*
X50460Y749859D01*
X50416Y749850D01*
X50372Y749850D01*
X50229Y749812D01*
X48633Y749217D01*
X48595Y749195D01*
X48552Y749181D01*
X48489Y749134D01*
X48421Y749096D01*
X48392Y749062D01*
X48356Y749036D01*
X48322Y748992D01*
X47675Y748851D01*
X47652Y748842D01*
X47572Y748821D01*
X46957Y748592D01*
X46879Y748604D01*
X46804Y748624D01*
X46759Y748621D01*
X46715Y748628D01*
X46569Y748611D01*
X44904Y748249D01*
X44863Y748232D01*
X44819Y748225D01*
X44750Y748188D01*
X44678Y748159D01*
X44644Y748130D01*
X44605Y748109D01*
X44564Y748070D01*
X43904Y748023D01*
X43880Y748018D01*
X43798Y748008D01*
X43157Y747868D01*
X43156Y747869D01*
X43081Y747891D01*
X43009Y747922D01*
X42965Y747926D01*
X42922Y747938D01*
X42775Y747942D01*
X41076Y747821D01*
X41033Y747811D01*
X40988Y747809D01*
X40915Y747782D01*
X40839Y747764D01*
X40801Y747740D01*
X40759Y747725D01*
X40664Y747658D01*
X40659Y747657D01*
X40612Y747636D01*
X40562Y747625D01*
X40501Y747587D01*
X40436Y747558D01*
X40398Y747523D01*
X40354Y747496D01*
X40309Y747441D01*
X40256Y747392D01*
X40232Y747347D01*
X40199Y747307D01*
X40174Y747241D01*
X40140Y747178D01*
X40131Y747127D01*
X40113Y747079D01*
X40100Y746944D01*
X40099Y746937D01*
X40099Y746935D01*
X40099Y746932D01*
X40099Y625801D01*
X40103Y625777D01*
X40100Y625752D01*
X40122Y625657D01*
X40138Y625560D01*
X40150Y625539D01*
X40156Y625515D01*
X40207Y625431D01*
X40253Y625345D01*
X40271Y625328D01*
X40284Y625307D01*
X40360Y625245D01*
X40431Y625178D01*
X40454Y625168D01*
X40473Y625152D01*
X40564Y625118D01*
X40654Y625077D01*
X40678Y625075D01*
X40701Y625066D01*
X40848Y625052D01*
X41691Y625052D01*
X42090Y624653D01*
X42110Y624639D01*
X42126Y624620D01*
X42209Y624568D01*
X42289Y624511D01*
X42312Y624504D01*
X42333Y624491D01*
X42428Y624468D01*
X42522Y624440D01*
X42546Y624441D01*
X42570Y624435D01*
X42668Y624445D01*
X42766Y624448D01*
X42789Y624456D01*
X42813Y624459D01*
X42903Y624499D01*
X42994Y624534D01*
X43013Y624549D01*
X43036Y624559D01*
X43150Y624653D01*
X43549Y625052D01*
X56931Y625052D01*
X58133Y623850D01*
X58133Y606150D01*
X56931Y604948D01*
X55580Y604948D01*
X55556Y604944D01*
X55531Y604947D01*
X55436Y604925D01*
X55339Y604909D01*
X55318Y604897D01*
X55294Y604891D01*
X55210Y604840D01*
X55124Y604794D01*
X55107Y604776D01*
X55086Y604763D01*
X55024Y604687D01*
X54957Y604616D01*
X54947Y604593D01*
X54931Y604574D01*
X54897Y604483D01*
X54856Y604393D01*
X54854Y604369D01*
X54845Y604346D01*
X54831Y604199D01*
X54831Y298338D01*
X47022Y290530D01*
X46979Y290470D01*
X46929Y290417D01*
X46909Y290372D01*
X46880Y290331D01*
X46859Y290261D01*
X46828Y290194D01*
X46823Y290145D01*
X46809Y290098D01*
X46811Y290025D01*
X46804Y289951D01*
X46815Y289903D01*
X46817Y289854D01*
X46843Y289785D01*
X46859Y289714D01*
X46885Y289672D01*
X46903Y289626D01*
X46949Y289569D01*
X46988Y289506D01*
X47026Y289475D01*
X47057Y289437D01*
X47120Y289398D01*
X47177Y289352D01*
X47223Y289334D01*
X47265Y289308D01*
X47336Y289291D01*
X47405Y289265D01*
X47478Y289258D01*
X47502Y289252D01*
X47519Y289254D01*
X47552Y289251D01*
X119660Y289251D01*
X119684Y289255D01*
X119709Y289252D01*
X119804Y289275D01*
X119901Y289290D01*
X119922Y289302D01*
X119946Y289308D01*
X120030Y289359D01*
X120116Y289405D01*
X120133Y289423D01*
X120154Y289436D01*
X120216Y289512D01*
X120283Y289584D01*
X120293Y289606D01*
X120309Y289625D01*
X120343Y289716D01*
X120384Y289806D01*
X120386Y289830D01*
X120395Y289853D01*
X120409Y290000D01*
X120409Y537788D01*
X120393Y537884D01*
X120384Y537981D01*
X120374Y538004D01*
X120370Y538029D01*
X120324Y538115D01*
X120283Y538204D01*
X120262Y538229D01*
X120255Y538244D01*
X120236Y538261D01*
X120190Y538318D01*
X85169Y573338D01*
X85169Y604199D01*
X85165Y604223D01*
X85168Y604248D01*
X85146Y604343D01*
X85130Y604440D01*
X85118Y604461D01*
X85112Y604485D01*
X85061Y604569D01*
X85015Y604655D01*
X84997Y604672D01*
X84984Y604693D01*
X84908Y604755D01*
X84837Y604822D01*
X84814Y604832D01*
X84795Y604848D01*
X84704Y604882D01*
X84614Y604923D01*
X84590Y604925D01*
X84567Y604934D01*
X84420Y604948D01*
X83069Y604948D01*
X81867Y606150D01*
X81867Y623850D01*
X83069Y625052D01*
X96451Y625052D01*
X96850Y624653D01*
X96870Y624639D01*
X96886Y624620D01*
X96969Y624568D01*
X97049Y624511D01*
X97072Y624504D01*
X97093Y624491D01*
X97188Y624468D01*
X97282Y624440D01*
X97306Y624441D01*
X97330Y624435D01*
X97428Y624445D01*
X97526Y624448D01*
X97549Y624456D01*
X97573Y624459D01*
X97663Y624499D01*
X97754Y624534D01*
X97773Y624549D01*
X97796Y624559D01*
X97910Y624653D01*
X98309Y625052D01*
X99152Y625052D01*
X99176Y625056D01*
X99201Y625053D01*
X99296Y625075D01*
X99393Y625091D01*
X99414Y625103D01*
X99438Y625109D01*
X99522Y625160D01*
X99608Y625206D01*
X99625Y625224D01*
X99646Y625237D01*
X99708Y625313D01*
X99775Y625384D01*
X99785Y625407D01*
X99801Y625426D01*
X99835Y625517D01*
X99876Y625607D01*
X99878Y625631D01*
X99887Y625654D01*
X99901Y625801D01*
X99901Y746932D01*
X99893Y746983D01*
X99894Y747034D01*
X99873Y747102D01*
X99862Y747173D01*
X99837Y747218D01*
X99822Y747267D01*
X99780Y747325D01*
X99747Y747388D01*
X99709Y747423D01*
X99679Y747465D01*
X99621Y747506D01*
X99569Y747555D01*
X99522Y747576D01*
X99480Y747606D01*
X99411Y747626D01*
X99346Y747656D01*
X99333Y747657D01*
X99324Y747663D01*
X99291Y747694D01*
X99220Y747727D01*
X99153Y747768D01*
X99110Y747777D01*
X99070Y747796D01*
X98924Y747821D01*
X97225Y747942D01*
X97181Y747938D01*
X97137Y747944D01*
X97060Y747927D01*
X96982Y747920D01*
X96942Y747902D01*
X96898Y747893D01*
X96849Y747867D01*
X96202Y748008D01*
X96178Y748009D01*
X96096Y748023D01*
X95441Y748070D01*
X95375Y748113D01*
X95315Y748163D01*
X95273Y748179D01*
X95236Y748203D01*
X95096Y748249D01*
X93431Y748611D01*
X93387Y748613D01*
X93344Y748624D01*
X93266Y748619D01*
X93188Y748623D01*
X93145Y748611D01*
X93101Y748608D01*
X93048Y748590D01*
X92428Y748821D01*
X92404Y748826D01*
X92325Y748851D01*
X91683Y748991D01*
X91624Y749043D01*
X91572Y749101D01*
X91533Y749123D01*
X91499Y749152D01*
X91367Y749217D01*
X89771Y749812D01*
X89728Y749821D01*
X89687Y749838D01*
X89608Y749844D01*
X89532Y749859D01*
X89488Y749853D01*
X89443Y749856D01*
X89389Y749846D01*
X88807Y750163D01*
X88784Y750171D01*
X88710Y750208D01*
X88095Y750437D01*
X88095Y750438D01*
X88048Y750493D01*
X88023Y750533D01*
X88016Y750538D01*
X88000Y750562D01*
X87965Y750589D01*
X87936Y750623D01*
X87814Y750706D01*
X86319Y751522D01*
X86277Y751537D01*
X86239Y751560D01*
X86163Y751577D01*
X86089Y751603D01*
X86044Y751603D01*
X86001Y751613D01*
X85945Y751610D01*
X85415Y752007D01*
X85394Y752018D01*
X85325Y752065D01*
X84749Y752379D01*
X84749Y752380D01*
X84707Y752446D01*
X84673Y752516D01*
X84642Y752548D01*
X84618Y752586D01*
X84509Y752685D01*
X83146Y753706D01*
X83106Y753727D01*
X83072Y753755D01*
X82999Y753782D01*
X82929Y753819D01*
X82885Y753825D01*
X82844Y753841D01*
X82788Y753846D01*
X82320Y754315D01*
X82300Y754329D01*
X82239Y754385D01*
X81714Y754778D01*
X81714Y754779D01*
X81681Y754850D01*
X81658Y754925D01*
X81631Y754960D01*
X81613Y755001D01*
X81519Y755115D01*
X80315Y756319D01*
X80279Y756345D01*
X80249Y756378D01*
X80181Y756416D01*
X80117Y756462D01*
X80074Y756474D01*
X80035Y756496D01*
X79981Y756509D01*
X79585Y757039D01*
X79567Y757056D01*
X79515Y757120D01*
X79050Y757584D01*
X79050Y757585D01*
X79029Y757660D01*
X79016Y757737D01*
X78995Y757776D01*
X78983Y757819D01*
X78906Y757946D01*
X77885Y759309D01*
X77853Y759340D01*
X77828Y759376D01*
X77766Y759424D01*
X77709Y759478D01*
X77669Y759497D01*
X77634Y759523D01*
X77582Y759544D01*
X77265Y760125D01*
X77250Y760145D01*
X77207Y760215D01*
X76813Y760741D01*
X76814Y760741D01*
X76803Y760819D01*
X76801Y760897D01*
X76786Y760939D01*
X76780Y760983D01*
X76722Y761119D01*
X75906Y762614D01*
X75879Y762649D01*
X75859Y762689D01*
X75804Y762745D01*
X75756Y762806D01*
X75718Y762831D01*
X75687Y762862D01*
X75639Y762890D01*
X75408Y763510D01*
X75396Y763531D01*
X75363Y763607D01*
X75049Y764184D01*
X75049Y764263D01*
X75059Y764340D01*
X75050Y764384D01*
X75050Y764428D01*
X75012Y764571D01*
X74417Y766167D01*
X74395Y766205D01*
X74381Y766248D01*
X74335Y766310D01*
X74296Y766379D01*
X74262Y766408D01*
X74236Y766444D01*
X74192Y766478D01*
X74051Y767125D01*
X74042Y767148D01*
X74021Y767228D01*
X73792Y767843D01*
X73804Y767921D01*
X73824Y767996D01*
X73821Y768041D01*
X73828Y768085D01*
X73811Y768231D01*
X73449Y769896D01*
X73432Y769937D01*
X73425Y769981D01*
X73388Y770050D01*
X73359Y770122D01*
X73330Y770156D01*
X73309Y770195D01*
X73270Y770236D01*
X73223Y770896D01*
X73218Y770920D01*
X73208Y771002D01*
X73068Y771643D01*
X73069Y771644D01*
X73091Y771719D01*
X73122Y771791D01*
X73126Y771835D01*
X73138Y771878D01*
X73142Y772025D01*
X73029Y773612D01*
X73012Y773681D01*
X73006Y773752D01*
X72984Y773799D01*
X72972Y773849D01*
X72949Y773886D01*
X72949Y774700D01*
X72946Y774718D01*
X72947Y774754D01*
X72890Y775555D01*
X72894Y775562D01*
X72910Y775631D01*
X72935Y775697D01*
X72942Y775775D01*
X72948Y775800D01*
X72946Y775815D01*
X72949Y775844D01*
X72949Y849156D01*
X72938Y849226D01*
X72936Y849297D01*
X72918Y849345D01*
X72910Y849396D01*
X72889Y849434D01*
X72947Y850246D01*
X72946Y850264D01*
X72949Y850300D01*
X72949Y851104D01*
X72954Y851110D01*
X72974Y851178D01*
X73004Y851242D01*
X73017Y851320D01*
X73024Y851343D01*
X73024Y851359D01*
X73029Y851388D01*
X73142Y852975D01*
X73138Y853019D01*
X73144Y853063D01*
X73127Y853140D01*
X73120Y853218D01*
X73102Y853258D01*
X73093Y853302D01*
X73067Y853351D01*
X73208Y853998D01*
X73209Y854022D01*
X73223Y854104D01*
X73270Y854759D01*
X73271Y854759D01*
X73313Y854825D01*
X73363Y854885D01*
X73379Y854927D01*
X73403Y854964D01*
X73449Y855104D01*
X73811Y856769D01*
X73813Y856813D01*
X73824Y856856D01*
X73819Y856934D01*
X73823Y857012D01*
X73811Y857055D01*
X73808Y857099D01*
X73790Y857152D01*
X74021Y857772D01*
X74026Y857796D01*
X74051Y857875D01*
X74191Y858516D01*
X74191Y858517D01*
X74243Y858576D01*
X74301Y858628D01*
X74323Y858667D01*
X74352Y858701D01*
X74417Y858833D01*
X75012Y860429D01*
X75021Y860472D01*
X75038Y860513D01*
X75044Y860592D01*
X75059Y860668D01*
X75053Y860712D01*
X75056Y860757D01*
X75046Y860811D01*
X75363Y861393D01*
X75371Y861416D01*
X75408Y861490D01*
X75637Y862105D01*
X75638Y862105D01*
X75697Y862156D01*
X75762Y862200D01*
X75789Y862235D01*
X75823Y862264D01*
X75906Y862386D01*
X76722Y863881D01*
X76737Y863923D01*
X76760Y863961D01*
X76777Y864037D01*
X76803Y864111D01*
X76803Y864156D01*
X76813Y864199D01*
X76810Y864255D01*
X77207Y864785D01*
X77218Y864806D01*
X77265Y864875D01*
X77579Y865451D01*
X77580Y865451D01*
X77646Y865493D01*
X77716Y865527D01*
X77748Y865558D01*
X77786Y865582D01*
X77885Y865691D01*
X78906Y867054D01*
X78927Y867094D01*
X78955Y867128D01*
X78982Y867201D01*
X79019Y867271D01*
X79025Y867315D01*
X79041Y867356D01*
X79046Y867412D01*
X79515Y867880D01*
X79529Y867900D01*
X79585Y867961D01*
X79978Y868486D01*
X79979Y868486D01*
X80050Y868519D01*
X80125Y868542D01*
X80160Y868569D01*
X80201Y868587D01*
X80315Y868681D01*
X81519Y869885D01*
X81545Y869921D01*
X81578Y869951D01*
X81616Y870019D01*
X81662Y870083D01*
X81675Y870126D01*
X81696Y870165D01*
X81709Y870219D01*
X82239Y870615D01*
X82256Y870633D01*
X82320Y870685D01*
X82784Y871150D01*
X82785Y871150D01*
X82860Y871171D01*
X82937Y871184D01*
X82976Y871205D01*
X83019Y871217D01*
X83146Y871294D01*
X84509Y872315D01*
X84516Y872321D01*
X84517Y872322D01*
X84537Y872344D01*
X84540Y872347D01*
X84576Y872372D01*
X84624Y872434D01*
X84678Y872491D01*
X84681Y872498D01*
X84683Y872500D01*
X84699Y872533D01*
X84723Y872566D01*
X84744Y872618D01*
X85325Y872935D01*
X85345Y872950D01*
X85415Y872993D01*
X85941Y873387D01*
X85941Y873386D01*
X86019Y873397D01*
X86097Y873399D01*
X86139Y873414D01*
X86183Y873420D01*
X86319Y873478D01*
X87814Y874294D01*
X87849Y874321D01*
X87889Y874341D01*
X87945Y874396D01*
X88006Y874444D01*
X88031Y874482D01*
X88062Y874513D01*
X88090Y874561D01*
X88710Y874792D01*
X88731Y874804D01*
X88807Y874837D01*
X89384Y875151D01*
X89463Y875151D01*
X89540Y875141D01*
X89584Y875150D01*
X89628Y875150D01*
X89771Y875188D01*
X91367Y875783D01*
X91405Y875805D01*
X91448Y875819D01*
X91511Y875866D01*
X91579Y875904D01*
X91608Y875938D01*
X91644Y875964D01*
X91678Y876008D01*
X92325Y876149D01*
X92348Y876158D01*
X92428Y876179D01*
X93043Y876408D01*
X93121Y876396D01*
X93196Y876376D01*
X93241Y876379D01*
X93285Y876372D01*
X93431Y876389D01*
X95096Y876751D01*
X95137Y876768D01*
X95181Y876775D01*
X95250Y876812D01*
X95322Y876841D01*
X95356Y876870D01*
X95395Y876891D01*
X95436Y876930D01*
X96096Y876977D01*
X96120Y876982D01*
X96202Y876992D01*
X96843Y877132D01*
X96844Y877131D01*
X96919Y877109D01*
X96991Y877078D01*
X97035Y877074D01*
X97078Y877062D01*
X97225Y877058D01*
X98924Y877179D01*
X98967Y877189D01*
X99012Y877191D01*
X99085Y877218D01*
X99161Y877236D01*
X99199Y877260D01*
X99241Y877275D01*
X99286Y877307D01*
X99947Y877260D01*
X99971Y877262D01*
X100053Y877260D01*
X100708Y877307D01*
X100709Y877306D01*
X100780Y877273D01*
X100847Y877232D01*
X100890Y877223D01*
X100930Y877204D01*
X101076Y877179D01*
X102775Y877058D01*
X102819Y877062D01*
X102863Y877056D01*
X102940Y877073D01*
X103018Y877080D01*
X103058Y877098D01*
X103102Y877107D01*
X103151Y877133D01*
X103798Y876992D01*
X103822Y876991D01*
X103904Y876977D01*
X104559Y876930D01*
X104559Y876929D01*
X104625Y876887D01*
X104685Y876837D01*
X104727Y876821D01*
X104764Y876797D01*
X104904Y876751D01*
X106569Y876389D01*
X106613Y876387D01*
X106656Y876376D01*
X106734Y876381D01*
X106812Y876377D01*
X106855Y876389D01*
X106899Y876392D01*
X106952Y876410D01*
X107572Y876179D01*
X107596Y876174D01*
X107675Y876149D01*
X108316Y876009D01*
X108317Y876009D01*
X108376Y875957D01*
X108428Y875899D01*
X108467Y875877D01*
X108501Y875848D01*
X108633Y875783D01*
X110229Y875188D01*
X110272Y875179D01*
X110313Y875162D01*
X110392Y875156D01*
X110468Y875141D01*
X110512Y875147D01*
X110557Y875144D01*
X110611Y875154D01*
X111193Y874837D01*
X111216Y874829D01*
X111290Y874792D01*
X111905Y874563D01*
X111905Y874562D01*
X111956Y874503D01*
X112000Y874438D01*
X112035Y874411D01*
X112064Y874377D01*
X112186Y874294D01*
X113681Y873478D01*
X113723Y873463D01*
X113761Y873440D01*
X113837Y873423D01*
X113911Y873397D01*
X113956Y873397D01*
X113999Y873387D01*
X114055Y873390D01*
X114585Y872993D01*
X114606Y872982D01*
X114675Y872935D01*
X115251Y872621D01*
X115251Y872620D01*
X115293Y872554D01*
X115327Y872484D01*
X115357Y872453D01*
X115376Y872423D01*
X115378Y872421D01*
X115382Y872414D01*
X115491Y872315D01*
X116854Y871294D01*
X116894Y871273D01*
X116928Y871245D01*
X117001Y871218D01*
X117071Y871181D01*
X117115Y871175D01*
X117156Y871159D01*
X117212Y871154D01*
X117680Y870685D01*
X117700Y870671D01*
X117761Y870615D01*
X118286Y870222D01*
X118286Y870221D01*
X118319Y870150D01*
X118342Y870075D01*
X118369Y870040D01*
X118387Y869999D01*
X118481Y869885D01*
X119685Y868681D01*
X119721Y868655D01*
X119751Y868622D01*
X119819Y868584D01*
X119883Y868538D01*
X119926Y868525D01*
X119965Y868504D01*
X120019Y868491D01*
X120415Y867961D01*
X120433Y867944D01*
X120443Y867927D01*
X120454Y867919D01*
X120485Y867880D01*
X120950Y867416D01*
X120950Y867415D01*
X120971Y867340D01*
X120984Y867263D01*
X121005Y867224D01*
X121017Y867181D01*
X121094Y867054D01*
X122115Y865691D01*
X122125Y865681D01*
X122126Y865680D01*
X122130Y865676D01*
X122147Y865660D01*
X122172Y865624D01*
X122234Y865576D01*
X122291Y865522D01*
X122331Y865503D01*
X122366Y865477D01*
X122418Y865456D01*
X122735Y864875D01*
X122750Y864855D01*
X122793Y864785D01*
X123187Y864259D01*
X123186Y864259D01*
X123197Y864181D01*
X123199Y864103D01*
X123214Y864061D01*
X123220Y864017D01*
X123278Y863881D01*
X124094Y862386D01*
X124121Y862351D01*
X124141Y862311D01*
X124196Y862255D01*
X124244Y862194D01*
X124282Y862169D01*
X124313Y862138D01*
X124361Y862110D01*
X124592Y861490D01*
X124604Y861469D01*
X124637Y861393D01*
X124951Y860816D01*
X124951Y860737D01*
X124941Y860660D01*
X124950Y860616D01*
X124950Y860572D01*
X124988Y860429D01*
X125583Y858833D01*
X125605Y858795D01*
X125619Y858752D01*
X125665Y858690D01*
X125704Y858621D01*
X125738Y858592D01*
X125764Y858556D01*
X125808Y858522D01*
X125949Y857875D01*
X125958Y857852D01*
X125979Y857772D01*
X126208Y857157D01*
X126196Y857079D01*
X126176Y857004D01*
X126179Y856959D01*
X126172Y856915D01*
X126189Y856769D01*
X126551Y855104D01*
X126568Y855063D01*
X126575Y855019D01*
X126612Y854950D01*
X126641Y854878D01*
X126670Y854844D01*
X126691Y854805D01*
X126730Y854764D01*
X126777Y854104D01*
X126782Y854080D01*
X126792Y853998D01*
X126932Y853357D01*
X126931Y853356D01*
X126909Y853281D01*
X126878Y853209D01*
X126874Y853165D01*
X126862Y853122D01*
X126858Y852975D01*
X126971Y851388D01*
X126988Y851319D01*
X126994Y851248D01*
X127016Y851201D01*
X127028Y851151D01*
X127051Y851114D01*
X127051Y850300D01*
X127054Y850282D01*
X127053Y850246D01*
X127110Y849445D01*
X127106Y849438D01*
X127090Y849369D01*
X127065Y849303D01*
X127058Y849225D01*
X127052Y849200D01*
X127054Y849185D01*
X127051Y849156D01*
X127051Y775844D01*
X127062Y775774D01*
X127064Y775703D01*
X127082Y775655D01*
X127090Y775604D01*
X127111Y775566D01*
X127053Y774754D01*
X127054Y774736D01*
X127051Y774700D01*
X127051Y773896D01*
X127046Y773890D01*
X127026Y773822D01*
X126996Y773758D01*
X126983Y773681D01*
X126976Y773657D01*
X126976Y773641D01*
X126971Y773612D01*
X126858Y772025D01*
X126862Y771981D01*
X126856Y771937D01*
X126873Y771860D01*
X126880Y771782D01*
X126898Y771742D01*
X126907Y771698D01*
X126933Y771649D01*
X126792Y771002D01*
X126791Y770978D01*
X126777Y770896D01*
X126730Y770241D01*
X126729Y770241D01*
X126687Y770175D01*
X126637Y770115D01*
X126621Y770073D01*
X126597Y770036D01*
X126551Y769896D01*
X126189Y768231D01*
X126187Y768187D01*
X126176Y768144D01*
X126181Y768066D01*
X126177Y767988D01*
X126189Y767945D01*
X126192Y767901D01*
X126210Y767848D01*
X125979Y767228D01*
X125974Y767204D01*
X125949Y767125D01*
X125809Y766483D01*
X125757Y766424D01*
X125699Y766372D01*
X125677Y766333D01*
X125648Y766299D01*
X125583Y766167D01*
X124988Y764571D01*
X124979Y764528D01*
X124962Y764487D01*
X124956Y764408D01*
X124941Y764332D01*
X124947Y764288D01*
X124944Y764243D01*
X124954Y764189D01*
X124637Y763607D01*
X124629Y763584D01*
X124592Y763510D01*
X124363Y762895D01*
X124362Y762895D01*
X124303Y762844D01*
X124238Y762800D01*
X124211Y762765D01*
X124177Y762736D01*
X124094Y762614D01*
X123278Y761119D01*
X123263Y761077D01*
X123240Y761039D01*
X123223Y760963D01*
X123197Y760889D01*
X123197Y760844D01*
X123187Y760801D01*
X123190Y760745D01*
X122793Y760215D01*
X122787Y760204D01*
X122780Y760196D01*
X122773Y760181D01*
X122735Y760125D01*
X122421Y759549D01*
X122420Y759549D01*
X122354Y759507D01*
X122284Y759473D01*
X122252Y759442D01*
X122214Y759418D01*
X122115Y759309D01*
X121094Y757946D01*
X121073Y757906D01*
X121045Y757872D01*
X121018Y757798D01*
X120981Y757729D01*
X120975Y757685D01*
X120959Y757644D01*
X120954Y757588D01*
X120485Y757120D01*
X120471Y757100D01*
X120415Y757039D01*
X120022Y756514D01*
X120021Y756514D01*
X119950Y756481D01*
X119875Y756458D01*
X119840Y756431D01*
X119799Y756413D01*
X119685Y756319D01*
X118481Y755115D01*
X118455Y755079D01*
X118422Y755049D01*
X118384Y754981D01*
X118338Y754917D01*
X118326Y754874D01*
X118304Y754835D01*
X118291Y754781D01*
X117761Y754385D01*
X117758Y754382D01*
X117755Y754380D01*
X117739Y754363D01*
X117680Y754315D01*
X117216Y753850D01*
X117215Y753850D01*
X117140Y753829D01*
X117063Y753816D01*
X117024Y753795D01*
X116981Y753783D01*
X116854Y753706D01*
X115491Y752685D01*
X115460Y752653D01*
X115424Y752628D01*
X115376Y752566D01*
X115322Y752509D01*
X115303Y752469D01*
X115277Y752434D01*
X115256Y752382D01*
X114675Y752065D01*
X114655Y752050D01*
X114585Y752007D01*
X114059Y751613D01*
X114059Y751614D01*
X113981Y751603D01*
X113903Y751601D01*
X113861Y751586D01*
X113817Y751580D01*
X113681Y751522D01*
X112186Y750706D01*
X112151Y750679D01*
X112111Y750659D01*
X112087Y750635D01*
X112085Y750634D01*
X112075Y750623D01*
X112055Y750604D01*
X111994Y750556D01*
X111969Y750518D01*
X111938Y750487D01*
X111922Y750460D01*
X111918Y750456D01*
X111913Y750445D01*
X111910Y750439D01*
X111290Y750208D01*
X111268Y750196D01*
X111193Y750163D01*
X110489Y749779D01*
X110424Y749729D01*
X110354Y749685D01*
X110329Y749654D01*
X110297Y749629D01*
X110252Y749560D01*
X110199Y749497D01*
X110185Y749459D01*
X110163Y749425D01*
X110142Y749345D01*
X110113Y749269D01*
X110108Y749211D01*
X110102Y749189D01*
X110103Y749168D01*
X110099Y749122D01*
X110099Y625801D01*
X110103Y625777D01*
X110100Y625752D01*
X110122Y625657D01*
X110138Y625560D01*
X110150Y625539D01*
X110156Y625515D01*
X110207Y625431D01*
X110253Y625345D01*
X110271Y625328D01*
X110284Y625307D01*
X110360Y625245D01*
X110431Y625178D01*
X110454Y625168D01*
X110473Y625152D01*
X110564Y625118D01*
X110654Y625077D01*
X110678Y625075D01*
X110701Y625066D01*
X110848Y625052D01*
X111691Y625052D01*
X112090Y624653D01*
X112110Y624639D01*
X112126Y624620D01*
X112209Y624568D01*
X112289Y624511D01*
X112312Y624504D01*
X112333Y624491D01*
X112428Y624468D01*
X112522Y624440D01*
X112546Y624441D01*
X112570Y624435D01*
X112668Y624445D01*
X112766Y624448D01*
X112789Y624456D01*
X112813Y624459D01*
X112903Y624499D01*
X112994Y624534D01*
X113013Y624549D01*
X113036Y624559D01*
X113150Y624653D01*
X113549Y625052D01*
X126931Y625052D01*
X128133Y623850D01*
X128133Y606150D01*
X126931Y604948D01*
X125580Y604948D01*
X125556Y604944D01*
X125531Y604947D01*
X125436Y604925D01*
X125339Y604909D01*
X125318Y604897D01*
X125294Y604891D01*
X125210Y604840D01*
X125124Y604794D01*
X125107Y604776D01*
X125086Y604763D01*
X125024Y604687D01*
X124957Y604616D01*
X124947Y604593D01*
X124931Y604574D01*
X124897Y604483D01*
X124856Y604393D01*
X124854Y604369D01*
X124845Y604346D01*
X124831Y604199D01*
X124831Y583138D01*
X124843Y583065D01*
X124845Y582992D01*
X124866Y582922D01*
X124870Y582897D01*
X124878Y582882D01*
X124888Y582851D01*
X125607Y581115D01*
X125607Y578885D01*
X124753Y576824D01*
X123176Y575247D01*
X121115Y574393D01*
X118885Y574393D01*
X116824Y575247D01*
X115247Y576824D01*
X114393Y578885D01*
X114393Y581115D01*
X115247Y583176D01*
X115430Y583359D01*
X115487Y583438D01*
X115549Y583514D01*
X115557Y583537D01*
X115572Y583557D01*
X115600Y583651D01*
X115635Y583742D01*
X115638Y583775D01*
X115643Y583791D01*
X115642Y583816D01*
X115649Y583889D01*
X115649Y604199D01*
X115645Y604223D01*
X115648Y604248D01*
X115626Y604343D01*
X115610Y604440D01*
X115598Y604461D01*
X115592Y604485D01*
X115541Y604569D01*
X115495Y604655D01*
X115477Y604672D01*
X115464Y604693D01*
X115388Y604755D01*
X115317Y604822D01*
X115294Y604832D01*
X115275Y604848D01*
X115184Y604882D01*
X115094Y604923D01*
X115070Y604925D01*
X115047Y604934D01*
X114900Y604948D01*
X113549Y604948D01*
X113150Y605347D01*
X113130Y605361D01*
X113114Y605380D01*
X113031Y605432D01*
X112951Y605489D01*
X112928Y605496D01*
X112907Y605509D01*
X112812Y605532D01*
X112718Y605560D01*
X112693Y605559D01*
X112670Y605565D01*
X112572Y605555D01*
X112474Y605552D01*
X112451Y605544D01*
X112427Y605541D01*
X112337Y605501D01*
X112246Y605466D01*
X112227Y605451D01*
X112204Y605441D01*
X112090Y605347D01*
X111691Y604948D01*
X98309Y604948D01*
X97910Y605347D01*
X97890Y605361D01*
X97874Y605380D01*
X97791Y605432D01*
X97711Y605489D01*
X97688Y605496D01*
X97667Y605509D01*
X97572Y605532D01*
X97478Y605560D01*
X97453Y605559D01*
X97430Y605565D01*
X97332Y605555D01*
X97234Y605552D01*
X97211Y605544D01*
X97187Y605541D01*
X97097Y605501D01*
X97006Y605466D01*
X96987Y605451D01*
X96964Y605441D01*
X96850Y605347D01*
X96451Y604948D01*
X95100Y604948D01*
X95076Y604944D01*
X95051Y604947D01*
X94956Y604925D01*
X94859Y604909D01*
X94838Y604897D01*
X94814Y604891D01*
X94730Y604840D01*
X94644Y604794D01*
X94627Y604776D01*
X94606Y604763D01*
X94544Y604687D01*
X94477Y604616D01*
X94467Y604593D01*
X94451Y604574D01*
X94417Y604483D01*
X94376Y604393D01*
X94374Y604369D01*
X94365Y604346D01*
X94351Y604199D01*
X94351Y577452D01*
X94367Y577356D01*
X94376Y577259D01*
X94386Y577236D01*
X94390Y577211D01*
X94436Y577125D01*
X94477Y577036D01*
X94498Y577011D01*
X94505Y576996D01*
X94524Y576979D01*
X94570Y576922D01*
X129591Y541902D01*
X129591Y290000D01*
X129595Y289976D01*
X129592Y289951D01*
X129614Y289856D01*
X129630Y289759D01*
X129642Y289738D01*
X129648Y289714D01*
X129699Y289630D01*
X129745Y289544D01*
X129763Y289527D01*
X129776Y289506D01*
X129852Y289444D01*
X129923Y289377D01*
X129946Y289367D01*
X129965Y289352D01*
X130056Y289317D01*
X130146Y289276D01*
X130170Y289274D01*
X130193Y289265D01*
X130340Y289251D01*
X136710Y289251D01*
X136734Y289255D01*
X136759Y289252D01*
X136854Y289275D01*
X136951Y289290D01*
X136972Y289302D01*
X136996Y289308D01*
X137080Y289359D01*
X137166Y289405D01*
X137183Y289423D01*
X137204Y289436D01*
X137266Y289512D01*
X137333Y289584D01*
X137343Y289606D01*
X137359Y289625D01*
X137393Y289716D01*
X137434Y289806D01*
X137436Y289830D01*
X137445Y289853D01*
X137459Y290000D01*
X137459Y858000D01*
X137457Y858016D01*
X137458Y858049D01*
X137165Y862514D01*
X137165Y862516D01*
X137141Y862659D01*
X134830Y871286D01*
X134820Y871308D01*
X134816Y871332D01*
X134755Y871466D01*
X130290Y879200D01*
X130274Y879219D01*
X130264Y879241D01*
X130170Y879356D01*
X123856Y885670D01*
X123836Y885685D01*
X123820Y885703D01*
X123700Y885790D01*
X115966Y890255D01*
X115943Y890263D01*
X115924Y890278D01*
X115786Y890330D01*
X107159Y892641D01*
X107158Y892641D01*
X107014Y892665D01*
X102549Y892958D01*
X102533Y892956D01*
X102500Y892959D01*
X43775Y892959D01*
X43695Y892946D01*
X43615Y892942D01*
X43576Y892926D01*
X43534Y892920D01*
X43515Y892910D01*
X42459Y892958D01*
X42447Y892957D01*
X42424Y892959D01*
X42167Y892959D01*
X42162Y892958D01*
X42153Y892959D01*
X37445Y892868D01*
X37444Y892868D01*
X37300Y892851D01*
X27768Y890763D01*
X27745Y890754D01*
X27721Y890751D01*
X27584Y890696D01*
X18918Y886212D01*
X18898Y886198D01*
X18876Y886189D01*
X18757Y886100D01*
X11547Y879526D01*
X11532Y879507D01*
X11512Y879493D01*
X11421Y879377D01*
X6157Y871160D01*
X6148Y871138D01*
X6133Y871119D01*
X6074Y870983D01*
X3117Y861684D01*
X3117Y861683D01*
X3086Y861541D01*
X2545Y856713D01*
X2547Y856689D01*
X2541Y856629D01*
X2541Y290000D01*
X2545Y289976D01*
X2542Y289951D01*
X2564Y289856D01*
X2580Y289759D01*
X2592Y289738D01*
X2598Y289714D01*
X2649Y289630D01*
X2695Y289544D01*
X2713Y289527D01*
X2726Y289506D01*
X2802Y289444D01*
X2873Y289377D01*
X2896Y289367D01*
X2915Y289352D01*
X3006Y289317D01*
X3096Y289276D01*
X3120Y289274D01*
X3143Y289265D01*
X3290Y289251D01*
X14420Y289251D01*
X14444Y289255D01*
G37*
G36*
X32544Y289267D02*
X32544Y289267D01*
X32641Y289276D01*
X32664Y289286D01*
X32689Y289290D01*
X32775Y289336D01*
X32864Y289377D01*
X32889Y289398D01*
X32904Y289405D01*
X32921Y289424D01*
X32978Y289470D01*
X45430Y301922D01*
X45487Y302001D01*
X45549Y302077D01*
X45557Y302100D01*
X45572Y302120D01*
X45600Y302214D01*
X45635Y302305D01*
X45638Y302338D01*
X45643Y302354D01*
X45642Y302379D01*
X45649Y302452D01*
X45649Y604199D01*
X45645Y604223D01*
X45648Y604248D01*
X45626Y604343D01*
X45610Y604440D01*
X45598Y604461D01*
X45592Y604485D01*
X45541Y604569D01*
X45495Y604655D01*
X45477Y604672D01*
X45464Y604693D01*
X45388Y604755D01*
X45317Y604822D01*
X45294Y604832D01*
X45275Y604848D01*
X45184Y604882D01*
X45094Y604923D01*
X45070Y604925D01*
X45047Y604934D01*
X44900Y604948D01*
X43549Y604948D01*
X43150Y605347D01*
X43130Y605361D01*
X43114Y605380D01*
X43031Y605432D01*
X42951Y605489D01*
X42928Y605496D01*
X42907Y605509D01*
X42812Y605532D01*
X42718Y605560D01*
X42693Y605559D01*
X42670Y605565D01*
X42572Y605555D01*
X42474Y605552D01*
X42451Y605544D01*
X42427Y605541D01*
X42337Y605501D01*
X42246Y605466D01*
X42227Y605451D01*
X42204Y605441D01*
X42090Y605347D01*
X41691Y604948D01*
X28309Y604948D01*
X27910Y605347D01*
X27890Y605361D01*
X27874Y605380D01*
X27791Y605432D01*
X27711Y605489D01*
X27688Y605496D01*
X27667Y605509D01*
X27572Y605532D01*
X27478Y605560D01*
X27453Y605559D01*
X27430Y605565D01*
X27332Y605555D01*
X27234Y605552D01*
X27211Y605544D01*
X27187Y605541D01*
X27097Y605501D01*
X27006Y605466D01*
X26987Y605451D01*
X26964Y605441D01*
X26850Y605347D01*
X26451Y604948D01*
X25100Y604948D01*
X25076Y604944D01*
X25051Y604947D01*
X24956Y604925D01*
X24859Y604909D01*
X24838Y604897D01*
X24814Y604891D01*
X24730Y604840D01*
X24644Y604794D01*
X24627Y604776D01*
X24606Y604763D01*
X24544Y604687D01*
X24477Y604616D01*
X24467Y604593D01*
X24451Y604574D01*
X24417Y604483D01*
X24376Y604393D01*
X24374Y604369D01*
X24365Y604346D01*
X24351Y604199D01*
X24351Y290000D01*
X24355Y289976D01*
X24352Y289951D01*
X24374Y289856D01*
X24390Y289759D01*
X24402Y289738D01*
X24408Y289714D01*
X24459Y289630D01*
X24505Y289544D01*
X24523Y289527D01*
X24536Y289506D01*
X24612Y289444D01*
X24683Y289377D01*
X24706Y289367D01*
X24725Y289352D01*
X24816Y289317D01*
X24906Y289276D01*
X24930Y289274D01*
X24953Y289265D01*
X25100Y289251D01*
X32448Y289251D01*
X32544Y289267D01*
G37*
G36*
X103558Y750050D02*
X103558Y750050D01*
X103559Y750050D01*
X107044Y750808D01*
X107045Y750808D01*
X110387Y752055D01*
X110388Y752055D01*
X113518Y753764D01*
X113519Y753765D01*
X116375Y755902D01*
X116375Y755903D01*
X118897Y758425D01*
X118898Y758425D01*
X121035Y761281D01*
X121035Y761282D01*
X121036Y761282D01*
X122745Y764412D01*
X122745Y764413D01*
X123992Y767755D01*
X123992Y767756D01*
X124750Y771241D01*
X124750Y771242D01*
X124751Y771242D01*
X124753Y771274D01*
X124754Y771289D01*
X124756Y771314D01*
X124757Y771329D01*
X124760Y771369D01*
X124762Y771408D01*
X124765Y771448D01*
X124768Y771488D01*
X124771Y771528D01*
X124772Y771543D01*
X124775Y771582D01*
X124778Y771622D01*
X124781Y771662D01*
X124783Y771702D01*
X124786Y771741D01*
X124787Y771756D01*
X124790Y771796D01*
X124793Y771836D01*
X124796Y771875D01*
X124796Y771876D01*
X124799Y771915D01*
X124802Y771955D01*
X124803Y771970D01*
X124805Y772010D01*
X124808Y772049D01*
X124811Y772089D01*
X124814Y772129D01*
X124817Y772169D01*
X124818Y772184D01*
X124821Y772223D01*
X124824Y772263D01*
X124826Y772303D01*
X124829Y772343D01*
X124832Y772382D01*
X124833Y772397D01*
X124836Y772437D01*
X124839Y772477D01*
X124842Y772516D01*
X124842Y772517D01*
X124845Y772556D01*
X124847Y772596D01*
X124848Y772611D01*
X124851Y772651D01*
X124854Y772690D01*
X124857Y772730D01*
X124860Y772770D01*
X124863Y772810D01*
X124864Y772825D01*
X124867Y772864D01*
X124869Y772904D01*
X124872Y772944D01*
X124875Y772984D01*
X124878Y773023D01*
X124879Y773038D01*
X124882Y773078D01*
X124885Y773118D01*
X124888Y773157D01*
X124890Y773197D01*
X124893Y773237D01*
X124894Y773252D01*
X124897Y773292D01*
X124900Y773331D01*
X124903Y773371D01*
X124906Y773411D01*
X124908Y773451D01*
X124909Y773451D01*
X124908Y773451D01*
X124910Y773466D01*
X124912Y773505D01*
X124915Y773545D01*
X124918Y773585D01*
X124921Y773624D01*
X124921Y773625D01*
X124924Y773664D01*
X124925Y773679D01*
X124928Y773719D01*
X124931Y773759D01*
X124933Y773798D01*
X124936Y773838D01*
X124939Y773878D01*
X124940Y773893D01*
X124943Y773933D01*
X124946Y773972D01*
X124949Y774012D01*
X124951Y774052D01*
X124952Y774052D01*
X124951Y774052D01*
X124954Y774092D01*
X124955Y774106D01*
X124955Y774107D01*
X124958Y774146D01*
X124961Y774186D01*
X124964Y774226D01*
X124967Y774265D01*
X124967Y774266D01*
X124970Y774305D01*
X124971Y774320D01*
X124974Y774360D01*
X124976Y774400D01*
X124979Y774439D01*
X124982Y774479D01*
X124985Y774519D01*
X124986Y774534D01*
X124989Y774574D01*
X124992Y774613D01*
X124994Y774653D01*
X124995Y774653D01*
X124994Y774653D01*
X124997Y774693D01*
X125000Y774733D01*
X125001Y774747D01*
X125004Y774787D01*
X125005Y774800D01*
X125005Y850200D01*
X124751Y853758D01*
X124750Y853759D01*
X123992Y857244D01*
X123992Y857245D01*
X122745Y860587D01*
X122745Y860588D01*
X121036Y863718D01*
X121035Y863719D01*
X118898Y866575D01*
X118897Y866575D01*
X116375Y869097D01*
X116375Y869098D01*
X113519Y871235D01*
X113518Y871236D01*
X110388Y872945D01*
X110387Y872945D01*
X107045Y874192D01*
X107044Y874192D01*
X103559Y874950D01*
X103558Y874950D01*
X103558Y874951D01*
X103525Y874953D01*
X103456Y874958D01*
X103386Y874963D01*
X103317Y874968D01*
X103247Y874973D01*
X103178Y874978D01*
X103108Y874983D01*
X103039Y874988D01*
X102969Y874993D01*
X102900Y874998D01*
X102830Y875003D01*
X102761Y875008D01*
X102691Y875013D01*
X102622Y875017D01*
X102553Y875022D01*
X102552Y875022D01*
X102483Y875027D01*
X102414Y875032D01*
X102413Y875032D01*
X102344Y875037D01*
X102275Y875042D01*
X102205Y875047D01*
X102136Y875052D01*
X102066Y875057D01*
X101997Y875062D01*
X101927Y875067D01*
X101858Y875072D01*
X101788Y875077D01*
X101719Y875082D01*
X101649Y875087D01*
X101580Y875092D01*
X101510Y875097D01*
X101441Y875102D01*
X101372Y875107D01*
X101371Y875107D01*
X101302Y875112D01*
X101233Y875117D01*
X101232Y875117D01*
X101163Y875122D01*
X101094Y875127D01*
X101024Y875132D01*
X100955Y875137D01*
X100885Y875142D01*
X100816Y875147D01*
X100746Y875152D01*
X100677Y875157D01*
X100607Y875162D01*
X100538Y875167D01*
X100468Y875172D01*
X100399Y875176D01*
X100329Y875181D01*
X100260Y875186D01*
X100190Y875191D01*
X100121Y875196D01*
X100052Y875201D01*
X100051Y875201D01*
X100000Y875205D01*
X99949Y875201D01*
X99948Y875201D01*
X99879Y875196D01*
X99810Y875191D01*
X99740Y875186D01*
X99671Y875181D01*
X99601Y875176D01*
X99532Y875172D01*
X99462Y875167D01*
X99393Y875162D01*
X99323Y875157D01*
X99254Y875152D01*
X99184Y875147D01*
X99115Y875142D01*
X99045Y875137D01*
X98976Y875132D01*
X98906Y875127D01*
X98837Y875122D01*
X98768Y875117D01*
X98767Y875117D01*
X98698Y875112D01*
X98629Y875107D01*
X98628Y875107D01*
X98559Y875102D01*
X98490Y875097D01*
X98420Y875092D01*
X98351Y875087D01*
X98281Y875082D01*
X98212Y875077D01*
X98142Y875072D01*
X98073Y875067D01*
X98003Y875062D01*
X97934Y875057D01*
X97864Y875052D01*
X97795Y875047D01*
X97725Y875042D01*
X97656Y875037D01*
X97587Y875032D01*
X97586Y875032D01*
X97517Y875027D01*
X97448Y875022D01*
X97447Y875022D01*
X97378Y875017D01*
X97309Y875013D01*
X97239Y875008D01*
X97170Y875003D01*
X97100Y874998D01*
X97031Y874993D01*
X96961Y874988D01*
X96892Y874983D01*
X96822Y874978D01*
X96753Y874973D01*
X96683Y874968D01*
X96614Y874963D01*
X96544Y874958D01*
X96475Y874953D01*
X96442Y874951D01*
X96441Y874950D01*
X92956Y874192D01*
X92955Y874192D01*
X89613Y872945D01*
X89612Y872945D01*
X86482Y871236D01*
X86481Y871235D01*
X83625Y869098D01*
X83625Y869097D01*
X81103Y866575D01*
X81102Y866575D01*
X78965Y863719D01*
X78964Y863718D01*
X77255Y860588D01*
X77255Y860587D01*
X76008Y857245D01*
X76008Y857244D01*
X75250Y853759D01*
X75250Y853758D01*
X75248Y853742D01*
X75246Y853702D01*
X75245Y853702D01*
X75246Y853702D01*
X75244Y853687D01*
X75243Y853662D01*
X75242Y853647D01*
X75239Y853608D01*
X75236Y853568D01*
X75233Y853528D01*
X75230Y853489D01*
X75230Y853488D01*
X75227Y853449D01*
X75226Y853434D01*
X75223Y853394D01*
X75221Y853354D01*
X75218Y853315D01*
X75215Y853275D01*
X75212Y853235D01*
X75211Y853220D01*
X75208Y853180D01*
X75205Y853141D01*
X75203Y853101D01*
X75202Y853101D01*
X75203Y853101D01*
X75200Y853061D01*
X75197Y853021D01*
X75196Y853007D01*
X75196Y853006D01*
X75193Y852967D01*
X75190Y852927D01*
X75187Y852887D01*
X75184Y852848D01*
X75184Y852847D01*
X75182Y852808D01*
X75180Y852793D01*
X75178Y852753D01*
X75175Y852713D01*
X75172Y852674D01*
X75169Y852634D01*
X75166Y852594D01*
X75165Y852579D01*
X75162Y852539D01*
X75160Y852500D01*
X75159Y852500D01*
X75160Y852500D01*
X75157Y852460D01*
X75154Y852420D01*
X75151Y852380D01*
X75150Y852366D01*
X75147Y852326D01*
X75144Y852286D01*
X75141Y852246D01*
X75139Y852207D01*
X75136Y852167D01*
X75135Y852152D01*
X75132Y852112D01*
X75129Y852072D01*
X75126Y852033D01*
X75123Y851993D01*
X75120Y851953D01*
X75119Y851938D01*
X75117Y851899D01*
X75116Y851898D01*
X75117Y851898D01*
X75114Y851859D01*
X75111Y851819D01*
X75108Y851779D01*
X75105Y851740D01*
X75105Y851739D01*
X75104Y851725D01*
X75101Y851685D01*
X75098Y851645D01*
X75096Y851605D01*
X75093Y851566D01*
X75090Y851526D01*
X75089Y851511D01*
X75086Y851471D01*
X75083Y851431D01*
X75080Y851392D01*
X75077Y851352D01*
X75075Y851312D01*
X75074Y851297D01*
X75073Y851297D01*
X75071Y851258D01*
X75071Y851257D01*
X75068Y851218D01*
X75065Y851178D01*
X75062Y851138D01*
X75059Y851099D01*
X75059Y851098D01*
X75058Y851084D01*
X75055Y851044D01*
X75053Y851004D01*
X75050Y850964D01*
X75047Y850925D01*
X75044Y850885D01*
X75043Y850870D01*
X75040Y850830D01*
X75037Y850790D01*
X75034Y850751D01*
X75032Y850711D01*
X75029Y850671D01*
X75028Y850656D01*
X75025Y850617D01*
X75022Y850577D01*
X75019Y850537D01*
X75016Y850497D01*
X75013Y850458D01*
X75012Y850443D01*
X75010Y850403D01*
X75007Y850363D01*
X75004Y850323D01*
X75001Y850284D01*
X74998Y850244D01*
X74997Y850229D01*
X74995Y850200D01*
X74995Y774800D01*
X75250Y771242D01*
X75250Y771241D01*
X76008Y767756D01*
X76008Y767755D01*
X77255Y764413D01*
X77255Y764412D01*
X78964Y761282D01*
X78965Y761281D01*
X81102Y758425D01*
X81103Y758425D01*
X83625Y755903D01*
X83625Y755902D01*
X86481Y753765D01*
X86482Y753765D01*
X86482Y753764D01*
X89612Y752055D01*
X89613Y752055D01*
X92955Y750808D01*
X92956Y750808D01*
X96441Y750050D01*
X96442Y750050D01*
X100000Y749795D01*
X103558Y750050D01*
G37*
G36*
X43558Y750050D02*
X43558Y750050D01*
X43559Y750050D01*
X47044Y750808D01*
X47045Y750808D01*
X50387Y752055D01*
X50388Y752055D01*
X53518Y753764D01*
X53519Y753765D01*
X56375Y755902D01*
X56375Y755903D01*
X58897Y758425D01*
X58898Y758425D01*
X61035Y761281D01*
X61035Y761282D01*
X61036Y761282D01*
X62745Y764412D01*
X62745Y764413D01*
X63992Y767755D01*
X63992Y767756D01*
X64750Y771241D01*
X64750Y771242D01*
X64751Y771242D01*
X64753Y771274D01*
X64754Y771289D01*
X64756Y771314D01*
X64757Y771329D01*
X64760Y771369D01*
X64762Y771408D01*
X64765Y771448D01*
X64768Y771488D01*
X64771Y771528D01*
X64772Y771543D01*
X64775Y771582D01*
X64778Y771622D01*
X64781Y771662D01*
X64783Y771702D01*
X64786Y771741D01*
X64787Y771756D01*
X64790Y771796D01*
X64793Y771836D01*
X64796Y771875D01*
X64796Y771876D01*
X64799Y771915D01*
X64802Y771955D01*
X64803Y771970D01*
X64805Y772010D01*
X64808Y772049D01*
X64811Y772089D01*
X64814Y772129D01*
X64817Y772169D01*
X64818Y772184D01*
X64821Y772223D01*
X64824Y772263D01*
X64826Y772303D01*
X64829Y772343D01*
X64832Y772382D01*
X64833Y772397D01*
X64836Y772437D01*
X64839Y772477D01*
X64842Y772516D01*
X64842Y772517D01*
X64845Y772556D01*
X64847Y772596D01*
X64848Y772611D01*
X64851Y772651D01*
X64854Y772690D01*
X64857Y772730D01*
X64860Y772770D01*
X64863Y772810D01*
X64864Y772825D01*
X64867Y772864D01*
X64869Y772904D01*
X64872Y772944D01*
X64875Y772984D01*
X64878Y773023D01*
X64879Y773038D01*
X64882Y773078D01*
X64885Y773118D01*
X64888Y773157D01*
X64890Y773197D01*
X64893Y773237D01*
X64894Y773252D01*
X64897Y773292D01*
X64900Y773331D01*
X64903Y773371D01*
X64906Y773411D01*
X64908Y773451D01*
X64909Y773451D01*
X64908Y773451D01*
X64910Y773466D01*
X64912Y773505D01*
X64915Y773545D01*
X64918Y773585D01*
X64921Y773624D01*
X64921Y773625D01*
X64924Y773664D01*
X64925Y773679D01*
X64928Y773719D01*
X64931Y773759D01*
X64933Y773798D01*
X64936Y773838D01*
X64939Y773878D01*
X64940Y773893D01*
X64943Y773933D01*
X64946Y773972D01*
X64949Y774012D01*
X64951Y774052D01*
X64952Y774052D01*
X64951Y774052D01*
X64954Y774092D01*
X64955Y774106D01*
X64955Y774107D01*
X64958Y774146D01*
X64961Y774186D01*
X64964Y774226D01*
X64967Y774265D01*
X64967Y774266D01*
X64970Y774305D01*
X64971Y774320D01*
X64974Y774360D01*
X64976Y774400D01*
X64979Y774439D01*
X64982Y774479D01*
X64985Y774519D01*
X64986Y774534D01*
X64989Y774574D01*
X64992Y774613D01*
X64994Y774653D01*
X64995Y774653D01*
X64994Y774653D01*
X64997Y774693D01*
X65000Y774733D01*
X65001Y774747D01*
X65004Y774787D01*
X65005Y774800D01*
X65005Y850200D01*
X64751Y853758D01*
X64750Y853759D01*
X63992Y857244D01*
X63992Y857245D01*
X62745Y860587D01*
X62745Y860588D01*
X61036Y863718D01*
X61035Y863719D01*
X58898Y866575D01*
X58897Y866575D01*
X56375Y869097D01*
X56375Y869098D01*
X53519Y871235D01*
X53518Y871236D01*
X50388Y872945D01*
X50387Y872945D01*
X47045Y874192D01*
X47044Y874192D01*
X43559Y874950D01*
X43558Y874950D01*
X43558Y874951D01*
X43525Y874953D01*
X43456Y874958D01*
X43386Y874963D01*
X43317Y874968D01*
X43247Y874973D01*
X43178Y874978D01*
X43108Y874983D01*
X43039Y874988D01*
X42969Y874993D01*
X42900Y874998D01*
X42830Y875003D01*
X42761Y875008D01*
X42691Y875013D01*
X42622Y875017D01*
X42553Y875022D01*
X42552Y875022D01*
X42483Y875027D01*
X42414Y875032D01*
X42413Y875032D01*
X42344Y875037D01*
X42275Y875042D01*
X42205Y875047D01*
X42136Y875052D01*
X42066Y875057D01*
X41997Y875062D01*
X41927Y875067D01*
X41858Y875072D01*
X41788Y875077D01*
X41719Y875082D01*
X41649Y875087D01*
X41580Y875092D01*
X41510Y875097D01*
X41441Y875102D01*
X41372Y875107D01*
X41371Y875107D01*
X41302Y875112D01*
X41233Y875117D01*
X41232Y875117D01*
X41163Y875122D01*
X41094Y875127D01*
X41024Y875132D01*
X40955Y875137D01*
X40885Y875142D01*
X40816Y875147D01*
X40746Y875152D01*
X40677Y875157D01*
X40607Y875162D01*
X40538Y875167D01*
X40468Y875172D01*
X40399Y875176D01*
X40329Y875181D01*
X40260Y875186D01*
X40190Y875191D01*
X40121Y875196D01*
X40052Y875201D01*
X40051Y875201D01*
X40000Y875205D01*
X39949Y875201D01*
X39948Y875201D01*
X39879Y875196D01*
X39810Y875191D01*
X39740Y875186D01*
X39671Y875181D01*
X39601Y875176D01*
X39532Y875172D01*
X39462Y875167D01*
X39393Y875162D01*
X39323Y875157D01*
X39254Y875152D01*
X39184Y875147D01*
X39115Y875142D01*
X39045Y875137D01*
X38976Y875132D01*
X38906Y875127D01*
X38837Y875122D01*
X38768Y875117D01*
X38767Y875117D01*
X38698Y875112D01*
X38629Y875107D01*
X38628Y875107D01*
X38559Y875102D01*
X38490Y875097D01*
X38420Y875092D01*
X38351Y875087D01*
X38281Y875082D01*
X38212Y875077D01*
X38142Y875072D01*
X38073Y875067D01*
X38003Y875062D01*
X37934Y875057D01*
X37864Y875052D01*
X37795Y875047D01*
X37725Y875042D01*
X37656Y875037D01*
X37587Y875032D01*
X37586Y875032D01*
X37517Y875027D01*
X37448Y875022D01*
X37447Y875022D01*
X37378Y875017D01*
X37309Y875013D01*
X37239Y875008D01*
X37170Y875003D01*
X37100Y874998D01*
X37031Y874993D01*
X36961Y874988D01*
X36892Y874983D01*
X36822Y874978D01*
X36753Y874973D01*
X36683Y874968D01*
X36614Y874963D01*
X36544Y874958D01*
X36475Y874953D01*
X36442Y874951D01*
X36441Y874950D01*
X32956Y874192D01*
X32955Y874192D01*
X29613Y872945D01*
X29612Y872945D01*
X26482Y871236D01*
X26481Y871235D01*
X23625Y869098D01*
X23625Y869097D01*
X21103Y866575D01*
X21102Y866575D01*
X18965Y863719D01*
X18964Y863718D01*
X17255Y860588D01*
X17255Y860587D01*
X16008Y857245D01*
X16008Y857244D01*
X15250Y853759D01*
X15250Y853758D01*
X15248Y853742D01*
X15246Y853702D01*
X15245Y853702D01*
X15246Y853702D01*
X15244Y853687D01*
X15243Y853662D01*
X15242Y853647D01*
X15239Y853608D01*
X15236Y853568D01*
X15233Y853528D01*
X15230Y853489D01*
X15230Y853488D01*
X15227Y853449D01*
X15226Y853434D01*
X15223Y853394D01*
X15221Y853354D01*
X15218Y853315D01*
X15215Y853275D01*
X15212Y853235D01*
X15211Y853220D01*
X15208Y853180D01*
X15205Y853141D01*
X15203Y853101D01*
X15202Y853101D01*
X15203Y853101D01*
X15200Y853061D01*
X15197Y853021D01*
X15196Y853007D01*
X15196Y853006D01*
X15193Y852967D01*
X15190Y852927D01*
X15187Y852887D01*
X15184Y852848D01*
X15184Y852847D01*
X15182Y852808D01*
X15180Y852793D01*
X15178Y852753D01*
X15175Y852713D01*
X15172Y852674D01*
X15169Y852634D01*
X15166Y852594D01*
X15165Y852579D01*
X15162Y852539D01*
X15160Y852500D01*
X15159Y852500D01*
X15160Y852500D01*
X15157Y852460D01*
X15154Y852420D01*
X15151Y852380D01*
X15150Y852366D01*
X15147Y852326D01*
X15144Y852286D01*
X15141Y852246D01*
X15139Y852207D01*
X15136Y852167D01*
X15135Y852152D01*
X15132Y852112D01*
X15129Y852072D01*
X15126Y852033D01*
X15123Y851993D01*
X15120Y851953D01*
X15119Y851938D01*
X15117Y851899D01*
X15116Y851898D01*
X15117Y851898D01*
X15114Y851859D01*
X15111Y851819D01*
X15108Y851779D01*
X15105Y851740D01*
X15105Y851739D01*
X15104Y851725D01*
X15101Y851685D01*
X15098Y851645D01*
X15096Y851605D01*
X15093Y851566D01*
X15090Y851526D01*
X15089Y851511D01*
X15086Y851471D01*
X15083Y851431D01*
X15080Y851392D01*
X15077Y851352D01*
X15075Y851312D01*
X15074Y851297D01*
X15073Y851297D01*
X15071Y851258D01*
X15071Y851257D01*
X15068Y851218D01*
X15065Y851178D01*
X15062Y851138D01*
X15059Y851099D01*
X15059Y851098D01*
X15058Y851084D01*
X15055Y851044D01*
X15053Y851004D01*
X15050Y850964D01*
X15047Y850925D01*
X15044Y850885D01*
X15043Y850870D01*
X15040Y850830D01*
X15037Y850790D01*
X15034Y850751D01*
X15032Y850711D01*
X15029Y850671D01*
X15028Y850656D01*
X15025Y850617D01*
X15022Y850577D01*
X15019Y850537D01*
X15016Y850497D01*
X15013Y850458D01*
X15012Y850443D01*
X15010Y850403D01*
X15007Y850363D01*
X15004Y850323D01*
X15001Y850284D01*
X14998Y850244D01*
X14997Y850229D01*
X14995Y850200D01*
X14995Y774800D01*
X15250Y771242D01*
X15250Y771241D01*
X16008Y767756D01*
X16008Y767755D01*
X17255Y764413D01*
X17255Y764412D01*
X18964Y761282D01*
X18965Y761281D01*
X21102Y758425D01*
X21103Y758425D01*
X23625Y755903D01*
X23625Y755902D01*
X26481Y753765D01*
X26482Y753765D01*
X26482Y753764D01*
X29612Y752055D01*
X29613Y752055D01*
X32955Y750808D01*
X32956Y750808D01*
X36441Y750050D01*
X36442Y750050D01*
X40000Y749795D01*
X43558Y750050D01*
G37*
G36*
X-2444Y863571D02*
X-2444Y863571D01*
X-2437Y863570D01*
X-2326Y863598D01*
X-2214Y863624D01*
X-2208Y863628D01*
X-2201Y863630D01*
X-2104Y863692D01*
X-2006Y863753D01*
X-2002Y863759D01*
X-1996Y863763D01*
X-1924Y863853D01*
X-1852Y863941D01*
X-1849Y863948D01*
X-1844Y863954D01*
X-1786Y864090D01*
X1172Y873392D01*
X7309Y882972D01*
X15716Y890637D01*
X25821Y895865D01*
X32223Y897268D01*
X32262Y897284D01*
X32304Y897290D01*
X32375Y897329D01*
X32450Y897358D01*
X32482Y897386D01*
X32519Y897405D01*
X32574Y897464D01*
X32636Y897517D01*
X32657Y897553D01*
X32686Y897584D01*
X32719Y897657D01*
X32761Y897726D01*
X32769Y897768D01*
X32787Y897806D01*
X32795Y897886D01*
X32811Y897965D01*
X32807Y898007D01*
X32811Y898049D01*
X32792Y898127D01*
X32783Y898207D01*
X32765Y898245D01*
X32755Y898286D01*
X32713Y898355D01*
X32678Y898428D01*
X32649Y898458D01*
X32627Y898494D01*
X32564Y898545D01*
X32508Y898603D01*
X32471Y898622D01*
X32438Y898649D01*
X32363Y898677D01*
X32291Y898714D01*
X32249Y898720D01*
X32210Y898735D01*
X32063Y898749D01*
X-2500Y898749D01*
X-2524Y898745D01*
X-2549Y898748D01*
X-2644Y898726D01*
X-2741Y898710D01*
X-2762Y898698D01*
X-2786Y898692D01*
X-2870Y898641D01*
X-2956Y898595D01*
X-2973Y898577D01*
X-2994Y898564D01*
X-3056Y898488D01*
X-3123Y898417D01*
X-3133Y898394D01*
X-3149Y898375D01*
X-3183Y898284D01*
X-3224Y898194D01*
X-3226Y898170D01*
X-3235Y898147D01*
X-3249Y898000D01*
X-3249Y864317D01*
X-3248Y864310D01*
X-3249Y864302D01*
X-3228Y864190D01*
X-3210Y864076D01*
X-3206Y864069D01*
X-3205Y864062D01*
X-3149Y863963D01*
X-3095Y863861D01*
X-3089Y863856D01*
X-3086Y863849D01*
X-3000Y863772D01*
X-2917Y863694D01*
X-2910Y863691D01*
X-2904Y863686D01*
X-2799Y863641D01*
X-2694Y863593D01*
X-2687Y863592D01*
X-2680Y863590D01*
X-2567Y863580D01*
X-2451Y863569D01*
X-2444Y863571D01*
G37*
G36*
X142524Y865573D02*
X142524Y865573D01*
X142549Y865571D01*
X142644Y865593D01*
X142740Y865609D01*
X142762Y865620D01*
X142786Y865626D01*
X142870Y865678D01*
X142956Y865724D01*
X142973Y865742D01*
X142994Y865755D01*
X143056Y865830D01*
X143123Y865902D01*
X143133Y865924D01*
X143149Y865943D01*
X143183Y866035D01*
X143224Y866124D01*
X143226Y866148D01*
X143235Y866171D01*
X143249Y866318D01*
X143249Y898000D01*
X143245Y898024D01*
X143248Y898049D01*
X143226Y898144D01*
X143210Y898241D01*
X143198Y898262D01*
X143192Y898286D01*
X143141Y898370D01*
X143095Y898456D01*
X143077Y898473D01*
X143064Y898494D01*
X142988Y898556D01*
X142917Y898623D01*
X142894Y898633D01*
X142875Y898649D01*
X142784Y898683D01*
X142694Y898724D01*
X142670Y898726D01*
X142647Y898735D01*
X142500Y898749D01*
X110818Y898749D01*
X110794Y898745D01*
X110769Y898748D01*
X110674Y898725D01*
X110578Y898710D01*
X110556Y898698D01*
X110532Y898692D01*
X110449Y898641D01*
X110362Y898595D01*
X110345Y898577D01*
X110325Y898564D01*
X110262Y898488D01*
X110196Y898417D01*
X110185Y898394D01*
X110170Y898375D01*
X110135Y898283D01*
X110095Y898194D01*
X110092Y898170D01*
X110084Y898147D01*
X110080Y898049D01*
X110071Y897951D01*
X110076Y897927D01*
X110075Y897903D01*
X110104Y897809D01*
X110126Y897714D01*
X110139Y897693D01*
X110146Y897669D01*
X110203Y897590D01*
X110255Y897506D01*
X110274Y897491D01*
X110288Y897471D01*
X110368Y897414D01*
X110443Y897352D01*
X110466Y897343D01*
X110486Y897328D01*
X110624Y897276D01*
X117955Y895312D01*
X127086Y890041D01*
X134541Y882586D01*
X139812Y873455D01*
X141776Y866124D01*
X141786Y866102D01*
X141790Y866078D01*
X141837Y865991D01*
X141877Y865902D01*
X141894Y865884D01*
X141905Y865862D01*
X141977Y865795D01*
X142044Y865724D01*
X142066Y865712D01*
X142084Y865696D01*
X142173Y865655D01*
X142259Y865609D01*
X142283Y865605D01*
X142306Y865595D01*
X142403Y865585D01*
X142500Y865569D01*
X142524Y865573D01*
G37*
D10*
X89760Y615000D03*
X105000Y615000D03*
X120240Y615000D03*
X19760Y615000D03*
X35000Y615000D03*
X50240Y615000D03*
D11*
X20000Y812500D03*
X120000Y812500D03*
D12*
X35000Y768753D02*
X35000Y615000D01*
X105000Y615000D02*
X105000Y769097D01*
D13*
X112500Y20000D02*
X15000Y20000D01*
X15000Y30000D01*
X112500Y30000D01*
X15000Y30000D02*
X15000Y40000D01*
X15000Y50000D01*
X15000Y60000D01*
X15000Y70000D01*
X15000Y80000D01*
X15000Y90000D01*
X15000Y40000D02*
X112500Y40000D01*
X15000Y20000D02*
X15000Y10000D01*
X112500Y10000D01*
X112500Y50000D02*
X15000Y50000D01*
X15000Y60000D02*
X112500Y60000D01*
X112500Y70000D02*
X15000Y70000D01*
X15000Y80000D02*
X112500Y80000D01*
X112500Y90000D02*
X15000Y90000D01*
X15000Y100000D01*
X15000Y110000D01*
X15000Y120000D01*
X15000Y130000D01*
X15000Y140000D01*
X15000Y100000D02*
X112500Y100000D01*
X112500Y110000D02*
X15000Y110000D01*
X15000Y120000D02*
X112500Y120000D01*
X112500Y130000D02*
X15000Y130000D01*
X15000Y140000D02*
X112500Y140000D01*
X15000Y140000D02*
X15000Y150000D01*
X15000Y160000D01*
X15000Y170000D01*
X15000Y180000D01*
X15000Y190000D01*
X15000Y150000D02*
X112500Y150000D01*
X112500Y160000D02*
X15000Y160000D01*
X15000Y170000D02*
X112500Y170000D01*
X112500Y180000D02*
X15000Y180000D01*
X15000Y190000D02*
X112500Y190000D01*
X15000Y190000D02*
X15000Y200000D01*
X15000Y210000D01*
X15000Y220000D01*
X15000Y230000D01*
X15000Y240000D01*
X15000Y250000D01*
X15000Y252500D01*
X15000Y200000D02*
X112500Y200000D01*
X112500Y210000D02*
X15000Y210000D01*
X15000Y220000D02*
X112500Y220000D01*
X112500Y230000D02*
X15000Y230000D01*
X15000Y240000D02*
X112500Y240000D01*
X112500Y250000D02*
X15000Y250000D01*
D14*
X19760Y284760D02*
X19760Y615000D01*
D15*
X19760Y284760D02*
X12368Y277368D01*
D16*
X15000Y255000D02*
X15000Y252500D01*
X15000Y255000D02*
X12368Y257632D01*
D15*
X12368Y277368D01*
D17*
X25000Y275000D03*
D14*
X50240Y300240D02*
X50240Y615000D01*
X50240Y300240D02*
X25000Y275000D01*
D13*
X117500Y45000D02*
X117500Y35000D01*
X117500Y45000D02*
X117500Y55000D01*
X117500Y65000D01*
X117500Y75000D01*
X117500Y85000D01*
X117500Y95000D01*
X117500Y105000D01*
X117500Y35000D02*
X20000Y35000D01*
X20000Y5000D02*
X115000Y5000D01*
X115098Y5002D01*
X115196Y5008D01*
X115294Y5017D01*
X115391Y5031D01*
X115488Y5048D01*
X115584Y5069D01*
X115679Y5094D01*
X115773Y5122D01*
X115865Y5155D01*
X115957Y5190D01*
X116047Y5230D01*
X116135Y5272D01*
X116222Y5319D01*
X116306Y5368D01*
X116389Y5421D01*
X116469Y5477D01*
X116548Y5537D01*
X116624Y5599D01*
X116697Y5664D01*
X116768Y5732D01*
X116836Y5803D01*
X116901Y5876D01*
X116963Y5952D01*
X117023Y6031D01*
X117079Y6111D01*
X117132Y6194D01*
X117181Y6278D01*
X117228Y6365D01*
X117270Y6453D01*
X117310Y6543D01*
X117345Y6635D01*
X117378Y6727D01*
X117406Y6821D01*
X117431Y6916D01*
X117452Y7012D01*
X117469Y7109D01*
X117483Y7206D01*
X117492Y7304D01*
X117498Y7402D01*
X117500Y7500D01*
X117500Y25000D02*
X20000Y25000D01*
X117500Y25000D02*
X117500Y35000D01*
X117500Y25000D02*
X117500Y15000D01*
X117500Y7500D01*
X117500Y15000D02*
X20000Y15000D01*
X20000Y45000D02*
X117500Y45000D01*
X117500Y55000D02*
X20000Y55000D01*
X20000Y65000D02*
X117500Y65000D01*
X117500Y75000D02*
X20000Y75000D01*
X20000Y85000D02*
X117500Y85000D01*
X117500Y95000D02*
X20000Y95000D01*
X117500Y105000D02*
X117500Y115000D01*
X117500Y125000D01*
X117500Y135000D01*
X117500Y145000D01*
X117500Y155000D01*
X117500Y105000D02*
X20000Y105000D01*
X20000Y115000D02*
X117500Y115000D01*
X117500Y125000D02*
X20000Y125000D01*
X20000Y135000D02*
X117500Y135000D01*
X117500Y145000D02*
X20000Y145000D01*
X117500Y155000D02*
X117500Y165000D01*
X117500Y175000D01*
X117500Y185000D01*
X117500Y195000D01*
X117500Y205000D01*
X117500Y155000D02*
X20000Y155000D01*
X20000Y165000D02*
X117500Y165000D01*
X117500Y175000D02*
X20000Y175000D01*
X20000Y185000D02*
X117500Y185000D01*
X117500Y195000D02*
X20000Y195000D01*
X117500Y205000D02*
X117500Y215000D01*
X117500Y225000D01*
X117500Y235000D01*
X117500Y245000D01*
X117500Y250000D01*
X117500Y205000D02*
X20000Y205000D01*
X20000Y215000D02*
X117500Y215000D01*
X117500Y225000D02*
X20000Y225000D01*
X20000Y235000D02*
X117500Y235000D01*
X117500Y245000D02*
X20000Y245000D01*
D16*
X117500Y250000D02*
X117500Y252500D01*
X125000Y260000D01*
D14*
X125000Y540000D01*
X89760Y575240D02*
X89760Y615000D01*
X89760Y575240D02*
X125000Y540000D01*
X120240Y580240D02*
X120240Y615000D01*
X120240Y580240D02*
X120000Y580000D01*
D17*
X120000Y580000D03*
M02*
