G04 EAGLE Gerber RS-274X export*
G75*
%MOMM*%
%FSLAX34Y34*%
%LPD*%
%INBottom Copper*%
%IPPOS*%
%AMOC8*
5,1,8,0,0,1.08239X$1,22.5*%
G01*
%ADD10C,0.203200*%
%ADD11C,0.711200*%
%ADD12C,0.254000*%
%ADD13C,0.508000*%

G36*
X114684Y287255D02*
X114684Y287255D01*
X114709Y287252D01*
X114804Y287275D01*
X114901Y287290D01*
X114922Y287302D01*
X114946Y287308D01*
X115030Y287359D01*
X115116Y287405D01*
X115133Y287423D01*
X115154Y287436D01*
X115216Y287512D01*
X115283Y287584D01*
X115293Y287606D01*
X115309Y287625D01*
X115343Y287716D01*
X115384Y287806D01*
X115386Y287830D01*
X115395Y287853D01*
X115409Y288000D01*
X115409Y576351D01*
X115393Y576448D01*
X115384Y576544D01*
X115374Y576567D01*
X115370Y576592D01*
X115324Y576678D01*
X115283Y576767D01*
X115262Y576792D01*
X115255Y576807D01*
X115253Y576808D01*
X114393Y578885D01*
X114393Y581115D01*
X115247Y583176D01*
X116824Y584753D01*
X118885Y585607D01*
X121115Y585607D01*
X123176Y584753D01*
X124753Y583176D01*
X125607Y581115D01*
X125607Y578885D01*
X124734Y576779D01*
X124691Y576726D01*
X124683Y576703D01*
X124668Y576683D01*
X124640Y576589D01*
X124605Y576498D01*
X124602Y576465D01*
X124597Y576449D01*
X124598Y576424D01*
X124591Y576351D01*
X124591Y288000D01*
X124595Y287976D01*
X124592Y287951D01*
X124614Y287856D01*
X124630Y287759D01*
X124642Y287738D01*
X124648Y287714D01*
X124699Y287630D01*
X124745Y287544D01*
X124763Y287527D01*
X124776Y287506D01*
X124852Y287444D01*
X124923Y287377D01*
X124946Y287367D01*
X124965Y287352D01*
X125056Y287317D01*
X125146Y287276D01*
X125170Y287274D01*
X125193Y287265D01*
X125340Y287251D01*
X136710Y287251D01*
X136734Y287255D01*
X136759Y287252D01*
X136854Y287275D01*
X136951Y287290D01*
X136972Y287302D01*
X136996Y287308D01*
X137080Y287359D01*
X137166Y287405D01*
X137183Y287423D01*
X137204Y287436D01*
X137266Y287512D01*
X137333Y287584D01*
X137343Y287606D01*
X137359Y287625D01*
X137393Y287716D01*
X137434Y287806D01*
X137436Y287830D01*
X137445Y287853D01*
X137459Y288000D01*
X137459Y858000D01*
X137457Y858016D01*
X137458Y858049D01*
X137165Y862514D01*
X137165Y862516D01*
X137141Y862659D01*
X134830Y871286D01*
X134820Y871308D01*
X134816Y871332D01*
X134755Y871466D01*
X130290Y879200D01*
X130274Y879219D01*
X130264Y879241D01*
X130170Y879356D01*
X123856Y885670D01*
X123836Y885685D01*
X123820Y885703D01*
X123700Y885790D01*
X115966Y890255D01*
X115943Y890263D01*
X115924Y890278D01*
X115786Y890330D01*
X107159Y892641D01*
X107158Y892641D01*
X107014Y892665D01*
X102549Y892958D01*
X102533Y892956D01*
X102500Y892959D01*
X43775Y892959D01*
X43695Y892946D01*
X43615Y892942D01*
X43576Y892926D01*
X43534Y892920D01*
X43515Y892910D01*
X42459Y892958D01*
X42447Y892957D01*
X42424Y892959D01*
X42167Y892959D01*
X42162Y892958D01*
X42153Y892959D01*
X37445Y892868D01*
X37444Y892868D01*
X37300Y892851D01*
X27768Y890763D01*
X27745Y890754D01*
X27721Y890751D01*
X27584Y890696D01*
X18918Y886212D01*
X18898Y886198D01*
X18876Y886189D01*
X18757Y886100D01*
X11547Y879526D01*
X11532Y879507D01*
X11512Y879493D01*
X11421Y879377D01*
X6157Y871160D01*
X6148Y871138D01*
X6133Y871119D01*
X6074Y870983D01*
X3117Y861684D01*
X3117Y861683D01*
X3086Y861541D01*
X2545Y856713D01*
X2547Y856689D01*
X2541Y856629D01*
X2541Y288000D01*
X2545Y287976D01*
X2542Y287951D01*
X2564Y287856D01*
X2580Y287759D01*
X2592Y287738D01*
X2598Y287714D01*
X2649Y287630D01*
X2695Y287544D01*
X2713Y287527D01*
X2726Y287506D01*
X2802Y287444D01*
X2873Y287377D01*
X2896Y287367D01*
X2915Y287352D01*
X3006Y287317D01*
X3096Y287276D01*
X3120Y287274D01*
X3143Y287265D01*
X3290Y287251D01*
X114660Y287251D01*
X114684Y287255D01*
G37*
%LPC*%
G36*
X40054Y747740D02*
X40054Y747740D01*
X40029Y747738D01*
X39947Y747740D01*
X39292Y747693D01*
X39291Y747694D01*
X39220Y747727D01*
X39153Y747768D01*
X39110Y747777D01*
X39070Y747796D01*
X38924Y747821D01*
X37225Y747942D01*
X37181Y747938D01*
X37137Y747944D01*
X37060Y747927D01*
X36982Y747920D01*
X36942Y747902D01*
X36898Y747893D01*
X36849Y747867D01*
X36202Y748008D01*
X36178Y748009D01*
X36096Y748023D01*
X35441Y748070D01*
X35441Y748071D01*
X35375Y748113D01*
X35315Y748163D01*
X35273Y748179D01*
X35236Y748203D01*
X35096Y748249D01*
X33431Y748611D01*
X33387Y748613D01*
X33344Y748624D01*
X33266Y748619D01*
X33188Y748623D01*
X33145Y748611D01*
X33101Y748608D01*
X33048Y748590D01*
X32428Y748821D01*
X32404Y748826D01*
X32325Y748851D01*
X31684Y748991D01*
X31683Y748991D01*
X31624Y749043D01*
X31572Y749101D01*
X31533Y749123D01*
X31499Y749152D01*
X31367Y749217D01*
X29771Y749812D01*
X29728Y749821D01*
X29687Y749838D01*
X29608Y749844D01*
X29532Y749859D01*
X29488Y749853D01*
X29443Y749856D01*
X29389Y749846D01*
X28807Y750163D01*
X28784Y750171D01*
X28710Y750208D01*
X28095Y750437D01*
X28095Y750438D01*
X28044Y750497D01*
X28000Y750562D01*
X27965Y750589D01*
X27936Y750623D01*
X27814Y750706D01*
X26319Y751522D01*
X26277Y751537D01*
X26239Y751560D01*
X26163Y751577D01*
X26089Y751603D01*
X26044Y751603D01*
X26001Y751613D01*
X25945Y751610D01*
X25415Y752007D01*
X25394Y752018D01*
X25325Y752065D01*
X24749Y752379D01*
X24749Y752380D01*
X24707Y752446D01*
X24673Y752516D01*
X24642Y752548D01*
X24618Y752586D01*
X24509Y752685D01*
X23146Y753706D01*
X23106Y753727D01*
X23072Y753755D01*
X22999Y753782D01*
X22929Y753819D01*
X22885Y753825D01*
X22844Y753841D01*
X22788Y753846D01*
X22320Y754315D01*
X22300Y754329D01*
X22239Y754385D01*
X21714Y754778D01*
X21714Y754779D01*
X21681Y754850D01*
X21658Y754925D01*
X21631Y754960D01*
X21613Y755001D01*
X21519Y755115D01*
X20315Y756319D01*
X20279Y756345D01*
X20249Y756378D01*
X20181Y756416D01*
X20117Y756462D01*
X20074Y756475D01*
X20035Y756496D01*
X19981Y756509D01*
X19585Y757039D01*
X19567Y757056D01*
X19515Y757120D01*
X19050Y757584D01*
X19050Y757585D01*
X19029Y757660D01*
X19016Y757737D01*
X18995Y757776D01*
X18983Y757819D01*
X18906Y757946D01*
X17885Y759309D01*
X17853Y759340D01*
X17828Y759376D01*
X17766Y759424D01*
X17709Y759478D01*
X17669Y759497D01*
X17634Y759523D01*
X17582Y759544D01*
X17265Y760125D01*
X17250Y760145D01*
X17207Y760215D01*
X16813Y760741D01*
X16814Y760741D01*
X16803Y760819D01*
X16803Y760822D01*
X16803Y760825D01*
X16803Y760827D01*
X16801Y760897D01*
X16786Y760939D01*
X16780Y760983D01*
X16750Y761053D01*
X16748Y761063D01*
X16742Y761073D01*
X16722Y761119D01*
X15906Y762614D01*
X15879Y762649D01*
X15859Y762689D01*
X15804Y762745D01*
X15756Y762806D01*
X15718Y762831D01*
X15687Y762862D01*
X15639Y762890D01*
X15408Y763510D01*
X15396Y763531D01*
X15363Y763607D01*
X15049Y764184D01*
X15049Y764263D01*
X15059Y764340D01*
X15050Y764384D01*
X15050Y764428D01*
X15012Y764571D01*
X14417Y766167D01*
X14395Y766205D01*
X14381Y766248D01*
X14334Y766311D01*
X14296Y766379D01*
X14262Y766408D01*
X14236Y766444D01*
X14192Y766478D01*
X14051Y767125D01*
X14042Y767148D01*
X14021Y767228D01*
X13792Y767843D01*
X13804Y767921D01*
X13824Y767996D01*
X13821Y768041D01*
X13828Y768085D01*
X13811Y768231D01*
X13449Y769896D01*
X13432Y769937D01*
X13425Y769981D01*
X13388Y770050D01*
X13359Y770122D01*
X13330Y770156D01*
X13309Y770195D01*
X13270Y770236D01*
X13223Y770896D01*
X13218Y770920D01*
X13208Y771002D01*
X13068Y771643D01*
X13069Y771644D01*
X13091Y771719D01*
X13122Y771791D01*
X13126Y771835D01*
X13138Y771878D01*
X13142Y772025D01*
X13029Y773612D01*
X13012Y773681D01*
X13006Y773752D01*
X12984Y773799D01*
X12972Y773849D01*
X12949Y773886D01*
X12949Y774700D01*
X12946Y774718D01*
X12947Y774754D01*
X12890Y775555D01*
X12894Y775562D01*
X12910Y775631D01*
X12935Y775697D01*
X12942Y775775D01*
X12948Y775800D01*
X12946Y775815D01*
X12949Y775844D01*
X12949Y849156D01*
X12938Y849226D01*
X12936Y849297D01*
X12918Y849345D01*
X12910Y849396D01*
X12889Y849434D01*
X12947Y850246D01*
X12946Y850264D01*
X12949Y850300D01*
X12949Y851104D01*
X12954Y851110D01*
X12974Y851178D01*
X13004Y851242D01*
X13017Y851319D01*
X13024Y851343D01*
X13024Y851359D01*
X13029Y851388D01*
X13142Y852975D01*
X13138Y853019D01*
X13144Y853063D01*
X13127Y853140D01*
X13120Y853218D01*
X13102Y853258D01*
X13093Y853302D01*
X13067Y853351D01*
X13208Y853998D01*
X13209Y854022D01*
X13223Y854104D01*
X13270Y854759D01*
X13271Y854759D01*
X13313Y854825D01*
X13363Y854885D01*
X13379Y854927D01*
X13403Y854964D01*
X13449Y855104D01*
X13811Y856769D01*
X13813Y856813D01*
X13824Y856856D01*
X13819Y856934D01*
X13823Y857012D01*
X13811Y857055D01*
X13808Y857099D01*
X13790Y857152D01*
X14021Y857772D01*
X14026Y857796D01*
X14051Y857875D01*
X14191Y858516D01*
X14191Y858517D01*
X14243Y858576D01*
X14301Y858628D01*
X14323Y858667D01*
X14352Y858701D01*
X14417Y858833D01*
X15012Y860429D01*
X15021Y860472D01*
X15038Y860513D01*
X15044Y860592D01*
X15059Y860668D01*
X15053Y860712D01*
X15056Y860757D01*
X15046Y860811D01*
X15363Y861393D01*
X15371Y861416D01*
X15408Y861490D01*
X15637Y862105D01*
X15638Y862105D01*
X15697Y862156D01*
X15762Y862200D01*
X15789Y862235D01*
X15823Y862264D01*
X15906Y862386D01*
X16722Y863881D01*
X16737Y863923D01*
X16760Y863961D01*
X16777Y864037D01*
X16803Y864111D01*
X16803Y864156D01*
X16813Y864199D01*
X16810Y864255D01*
X17207Y864785D01*
X17218Y864806D01*
X17265Y864875D01*
X17579Y865451D01*
X17580Y865451D01*
X17646Y865493D01*
X17716Y865527D01*
X17748Y865558D01*
X17786Y865582D01*
X17885Y865691D01*
X18906Y867054D01*
X18927Y867094D01*
X18955Y867128D01*
X18982Y867201D01*
X19019Y867271D01*
X19025Y867315D01*
X19041Y867356D01*
X19046Y867412D01*
X19515Y867880D01*
X19529Y867900D01*
X19585Y867961D01*
X19978Y868486D01*
X19979Y868486D01*
X20050Y868519D01*
X20125Y868542D01*
X20160Y868569D01*
X20201Y868587D01*
X20315Y868681D01*
X21519Y869885D01*
X21545Y869921D01*
X21578Y869951D01*
X21616Y870019D01*
X21662Y870083D01*
X21675Y870126D01*
X21696Y870165D01*
X21709Y870219D01*
X22239Y870615D01*
X22256Y870633D01*
X22320Y870685D01*
X22784Y871150D01*
X22785Y871150D01*
X22860Y871171D01*
X22937Y871184D01*
X22976Y871205D01*
X23019Y871217D01*
X23146Y871294D01*
X24509Y872315D01*
X24540Y872347D01*
X24576Y872372D01*
X24624Y872434D01*
X24678Y872491D01*
X24697Y872531D01*
X24723Y872566D01*
X24744Y872618D01*
X25325Y872935D01*
X25345Y872950D01*
X25415Y872993D01*
X25941Y873387D01*
X25941Y873386D01*
X26019Y873397D01*
X26097Y873399D01*
X26139Y873414D01*
X26183Y873420D01*
X26319Y873478D01*
X27814Y874294D01*
X27849Y874321D01*
X27889Y874341D01*
X27945Y874396D01*
X28006Y874444D01*
X28031Y874482D01*
X28062Y874513D01*
X28090Y874561D01*
X28710Y874792D01*
X28731Y874804D01*
X28807Y874837D01*
X29384Y875151D01*
X29463Y875151D01*
X29540Y875141D01*
X29584Y875150D01*
X29628Y875150D01*
X29771Y875188D01*
X31367Y875783D01*
X31405Y875805D01*
X31448Y875819D01*
X31511Y875866D01*
X31579Y875904D01*
X31608Y875938D01*
X31644Y875964D01*
X31678Y876008D01*
X32325Y876149D01*
X32348Y876158D01*
X32428Y876179D01*
X33043Y876408D01*
X33121Y876396D01*
X33196Y876376D01*
X33241Y876379D01*
X33285Y876372D01*
X33431Y876389D01*
X35096Y876751D01*
X35137Y876768D01*
X35181Y876775D01*
X35250Y876812D01*
X35322Y876841D01*
X35356Y876870D01*
X35395Y876891D01*
X35436Y876930D01*
X36096Y876977D01*
X36120Y876982D01*
X36202Y876992D01*
X36843Y877132D01*
X36844Y877131D01*
X36919Y877109D01*
X36991Y877078D01*
X37035Y877074D01*
X37078Y877062D01*
X37225Y877058D01*
X38924Y877179D01*
X38967Y877189D01*
X39012Y877191D01*
X39085Y877218D01*
X39161Y877236D01*
X39199Y877260D01*
X39241Y877275D01*
X39286Y877307D01*
X39947Y877260D01*
X39971Y877262D01*
X40053Y877260D01*
X40708Y877307D01*
X40709Y877306D01*
X40780Y877273D01*
X40847Y877232D01*
X40890Y877223D01*
X40930Y877204D01*
X41076Y877179D01*
X42775Y877058D01*
X42819Y877062D01*
X42863Y877056D01*
X42940Y877073D01*
X43018Y877080D01*
X43058Y877098D01*
X43102Y877107D01*
X43151Y877133D01*
X43798Y876992D01*
X43822Y876991D01*
X43904Y876977D01*
X44559Y876930D01*
X44559Y876929D01*
X44625Y876887D01*
X44685Y876837D01*
X44727Y876821D01*
X44764Y876797D01*
X44904Y876751D01*
X46569Y876389D01*
X46613Y876387D01*
X46656Y876376D01*
X46734Y876381D01*
X46812Y876377D01*
X46855Y876389D01*
X46899Y876392D01*
X46952Y876410D01*
X47572Y876179D01*
X47596Y876174D01*
X47675Y876149D01*
X48317Y876009D01*
X48376Y875957D01*
X48428Y875899D01*
X48467Y875877D01*
X48501Y875848D01*
X48633Y875783D01*
X50229Y875188D01*
X50272Y875179D01*
X50313Y875162D01*
X50392Y875156D01*
X50468Y875141D01*
X50512Y875147D01*
X50557Y875144D01*
X50611Y875154D01*
X51193Y874837D01*
X51216Y874829D01*
X51290Y874792D01*
X51905Y874563D01*
X51905Y874562D01*
X51956Y874503D01*
X52000Y874438D01*
X52035Y874411D01*
X52064Y874377D01*
X52186Y874294D01*
X53681Y873478D01*
X53723Y873463D01*
X53761Y873440D01*
X53837Y873423D01*
X53911Y873397D01*
X53956Y873397D01*
X53999Y873387D01*
X54055Y873390D01*
X54585Y872993D01*
X54606Y872982D01*
X54675Y872935D01*
X55251Y872621D01*
X55251Y872620D01*
X55293Y872554D01*
X55327Y872484D01*
X55358Y872452D01*
X55382Y872414D01*
X55491Y872315D01*
X56854Y871294D01*
X56894Y871273D01*
X56928Y871245D01*
X57001Y871218D01*
X57071Y871181D01*
X57115Y871175D01*
X57156Y871159D01*
X57212Y871154D01*
X57680Y870685D01*
X57700Y870671D01*
X57761Y870615D01*
X58286Y870222D01*
X58286Y870221D01*
X58319Y870150D01*
X58342Y870075D01*
X58369Y870040D01*
X58387Y869999D01*
X58481Y869885D01*
X59685Y868681D01*
X59721Y868655D01*
X59751Y868622D01*
X59819Y868584D01*
X59883Y868538D01*
X59926Y868526D01*
X59965Y868504D01*
X60019Y868491D01*
X60415Y867961D01*
X60433Y867944D01*
X60485Y867880D01*
X60950Y867416D01*
X60950Y867415D01*
X60971Y867340D01*
X60984Y867263D01*
X61005Y867224D01*
X61017Y867181D01*
X61094Y867054D01*
X62115Y865691D01*
X62147Y865660D01*
X62172Y865624D01*
X62234Y865576D01*
X62291Y865522D01*
X62331Y865503D01*
X62366Y865477D01*
X62418Y865456D01*
X62735Y864875D01*
X62750Y864855D01*
X62793Y864785D01*
X63187Y864259D01*
X63186Y864259D01*
X63197Y864181D01*
X63199Y864103D01*
X63214Y864061D01*
X63220Y864017D01*
X63278Y863881D01*
X64094Y862386D01*
X64121Y862351D01*
X64141Y862311D01*
X64196Y862255D01*
X64244Y862194D01*
X64282Y862169D01*
X64313Y862138D01*
X64361Y862110D01*
X64592Y861490D01*
X64604Y861469D01*
X64637Y861393D01*
X64951Y860816D01*
X64951Y860737D01*
X64941Y860660D01*
X64950Y860616D01*
X64950Y860572D01*
X64988Y860429D01*
X65583Y858833D01*
X65605Y858795D01*
X65619Y858752D01*
X65665Y858690D01*
X65704Y858621D01*
X65738Y858592D01*
X65764Y858556D01*
X65808Y858522D01*
X65949Y857875D01*
X65958Y857852D01*
X65979Y857772D01*
X66208Y857157D01*
X66196Y857079D01*
X66176Y857004D01*
X66179Y856959D01*
X66172Y856915D01*
X66189Y856769D01*
X66551Y855104D01*
X66568Y855063D01*
X66575Y855019D01*
X66612Y854950D01*
X66641Y854878D01*
X66670Y854844D01*
X66691Y854805D01*
X66730Y854764D01*
X66777Y854104D01*
X66782Y854080D01*
X66792Y853998D01*
X66932Y853357D01*
X66931Y853356D01*
X66909Y853281D01*
X66878Y853209D01*
X66874Y853165D01*
X66862Y853122D01*
X66858Y852975D01*
X66971Y851388D01*
X66988Y851319D01*
X66994Y851248D01*
X67016Y851201D01*
X67028Y851151D01*
X67051Y851114D01*
X67051Y850300D01*
X67054Y850282D01*
X67053Y850246D01*
X67110Y849445D01*
X67106Y849438D01*
X67090Y849369D01*
X67065Y849303D01*
X67058Y849225D01*
X67052Y849200D01*
X67054Y849185D01*
X67051Y849156D01*
X67051Y775844D01*
X67062Y775774D01*
X67064Y775703D01*
X67082Y775655D01*
X67090Y775604D01*
X67111Y775566D01*
X67053Y774754D01*
X67054Y774736D01*
X67051Y774700D01*
X67051Y773896D01*
X67046Y773890D01*
X67026Y773822D01*
X66996Y773758D01*
X66983Y773681D01*
X66976Y773657D01*
X66976Y773641D01*
X66971Y773612D01*
X66858Y772025D01*
X66862Y771981D01*
X66856Y771937D01*
X66873Y771860D01*
X66880Y771782D01*
X66898Y771742D01*
X66907Y771698D01*
X66933Y771649D01*
X66792Y771002D01*
X66791Y770978D01*
X66777Y770896D01*
X66730Y770241D01*
X66687Y770175D01*
X66637Y770115D01*
X66621Y770073D01*
X66597Y770036D01*
X66551Y769896D01*
X66189Y768231D01*
X66187Y768187D01*
X66176Y768144D01*
X66181Y768066D01*
X66177Y767988D01*
X66189Y767945D01*
X66192Y767901D01*
X66210Y767848D01*
X65979Y767228D01*
X65974Y767204D01*
X65949Y767125D01*
X65809Y766483D01*
X65757Y766424D01*
X65699Y766372D01*
X65677Y766333D01*
X65648Y766299D01*
X65583Y766167D01*
X64988Y764571D01*
X64979Y764528D01*
X64962Y764487D01*
X64956Y764408D01*
X64941Y764332D01*
X64947Y764288D01*
X64944Y764243D01*
X64954Y764189D01*
X64637Y763607D01*
X64629Y763584D01*
X64592Y763510D01*
X64363Y762895D01*
X64362Y762895D01*
X64303Y762844D01*
X64238Y762800D01*
X64211Y762765D01*
X64177Y762736D01*
X64094Y762614D01*
X63278Y761119D01*
X63263Y761077D01*
X63240Y761039D01*
X63229Y760989D01*
X63221Y760971D01*
X63219Y760950D01*
X63197Y760889D01*
X63197Y760844D01*
X63187Y760801D01*
X63190Y760745D01*
X62793Y760215D01*
X62782Y760194D01*
X62735Y760125D01*
X62421Y759549D01*
X62420Y759549D01*
X62354Y759507D01*
X62284Y759473D01*
X62252Y759442D01*
X62214Y759418D01*
X62115Y759309D01*
X61094Y757946D01*
X61073Y757906D01*
X61045Y757872D01*
X61018Y757798D01*
X60981Y757729D01*
X60975Y757685D01*
X60959Y757644D01*
X60954Y757588D01*
X60485Y757120D01*
X60471Y757100D01*
X60415Y757039D01*
X60022Y756514D01*
X60021Y756514D01*
X59950Y756481D01*
X59875Y756458D01*
X59840Y756431D01*
X59799Y756413D01*
X59685Y756319D01*
X58481Y755115D01*
X58455Y755079D01*
X58422Y755049D01*
X58384Y754981D01*
X58338Y754917D01*
X58326Y754874D01*
X58304Y754835D01*
X58291Y754781D01*
X57761Y754385D01*
X57744Y754367D01*
X57680Y754315D01*
X57216Y753850D01*
X57215Y753850D01*
X57140Y753829D01*
X57063Y753816D01*
X57024Y753795D01*
X56981Y753783D01*
X56854Y753706D01*
X55491Y752685D01*
X55460Y752653D01*
X55424Y752628D01*
X55376Y752566D01*
X55322Y752509D01*
X55303Y752469D01*
X55277Y752434D01*
X55256Y752382D01*
X54675Y752065D01*
X54655Y752050D01*
X54585Y752007D01*
X54059Y751613D01*
X54059Y751614D01*
X53981Y751603D01*
X53903Y751601D01*
X53861Y751586D01*
X53817Y751580D01*
X53681Y751522D01*
X52186Y750706D01*
X52151Y750679D01*
X52111Y750659D01*
X52055Y750604D01*
X51994Y750556D01*
X51969Y750518D01*
X51938Y750487D01*
X51910Y750439D01*
X51290Y750208D01*
X51269Y750196D01*
X51193Y750163D01*
X50616Y749849D01*
X50537Y749849D01*
X50460Y749859D01*
X50416Y749850D01*
X50372Y749850D01*
X50229Y749812D01*
X48633Y749217D01*
X48595Y749195D01*
X48552Y749181D01*
X48490Y749135D01*
X48421Y749096D01*
X48392Y749062D01*
X48356Y749036D01*
X48322Y748992D01*
X47675Y748851D01*
X47652Y748842D01*
X47572Y748821D01*
X46957Y748592D01*
X46879Y748604D01*
X46804Y748624D01*
X46759Y748621D01*
X46715Y748628D01*
X46569Y748611D01*
X44904Y748249D01*
X44863Y748232D01*
X44819Y748225D01*
X44750Y748188D01*
X44678Y748159D01*
X44644Y748130D01*
X44605Y748109D01*
X44564Y748070D01*
X43904Y748023D01*
X43880Y748018D01*
X43798Y748008D01*
X43157Y747868D01*
X43156Y747869D01*
X43081Y747891D01*
X43009Y747922D01*
X42965Y747926D01*
X42922Y747938D01*
X42775Y747942D01*
X41076Y747821D01*
X41033Y747811D01*
X40988Y747809D01*
X40915Y747782D01*
X40839Y747764D01*
X40801Y747740D01*
X40759Y747725D01*
X40714Y747693D01*
X40054Y747740D01*
G37*
%LPD*%
%LPC*%
G36*
X100053Y747740D02*
X100053Y747740D01*
X100029Y747738D01*
X99947Y747740D01*
X99292Y747693D01*
X99291Y747694D01*
X99220Y747727D01*
X99153Y747768D01*
X99110Y747777D01*
X99070Y747796D01*
X98924Y747821D01*
X97225Y747942D01*
X97181Y747938D01*
X97137Y747944D01*
X97060Y747927D01*
X96982Y747920D01*
X96942Y747902D01*
X96898Y747893D01*
X96849Y747867D01*
X96202Y748008D01*
X96178Y748009D01*
X96096Y748023D01*
X95441Y748070D01*
X95441Y748071D01*
X95375Y748113D01*
X95315Y748163D01*
X95273Y748179D01*
X95236Y748203D01*
X95096Y748249D01*
X93431Y748611D01*
X93387Y748613D01*
X93344Y748624D01*
X93266Y748619D01*
X93188Y748623D01*
X93145Y748611D01*
X93101Y748608D01*
X93048Y748590D01*
X92428Y748821D01*
X92404Y748826D01*
X92325Y748851D01*
X91683Y748991D01*
X91624Y749043D01*
X91572Y749101D01*
X91533Y749123D01*
X91499Y749152D01*
X91367Y749217D01*
X89771Y749812D01*
X89728Y749821D01*
X89687Y749838D01*
X89608Y749844D01*
X89532Y749859D01*
X89488Y749853D01*
X89443Y749856D01*
X89389Y749846D01*
X88807Y750163D01*
X88784Y750171D01*
X88710Y750208D01*
X88095Y750437D01*
X88095Y750438D01*
X88044Y750497D01*
X88000Y750562D01*
X87965Y750589D01*
X87936Y750623D01*
X87814Y750706D01*
X86319Y751522D01*
X86277Y751537D01*
X86239Y751560D01*
X86163Y751577D01*
X86089Y751603D01*
X86044Y751603D01*
X86001Y751613D01*
X85945Y751610D01*
X85415Y752007D01*
X85394Y752018D01*
X85325Y752065D01*
X84749Y752379D01*
X84749Y752380D01*
X84707Y752446D01*
X84673Y752516D01*
X84642Y752548D01*
X84618Y752586D01*
X84509Y752685D01*
X83146Y753706D01*
X83106Y753727D01*
X83072Y753755D01*
X82999Y753782D01*
X82929Y753819D01*
X82885Y753825D01*
X82844Y753841D01*
X82788Y753846D01*
X82320Y754315D01*
X82300Y754329D01*
X82239Y754385D01*
X81714Y754778D01*
X81714Y754779D01*
X81681Y754850D01*
X81658Y754925D01*
X81631Y754960D01*
X81613Y755001D01*
X81519Y755115D01*
X80315Y756319D01*
X80279Y756345D01*
X80249Y756378D01*
X80181Y756416D01*
X80117Y756462D01*
X80074Y756474D01*
X80035Y756496D01*
X79981Y756509D01*
X79585Y757039D01*
X79567Y757056D01*
X79515Y757120D01*
X79050Y757584D01*
X79050Y757585D01*
X79029Y757660D01*
X79016Y757737D01*
X78995Y757776D01*
X78983Y757819D01*
X78906Y757946D01*
X77885Y759309D01*
X77853Y759340D01*
X77828Y759376D01*
X77766Y759424D01*
X77709Y759478D01*
X77669Y759497D01*
X77634Y759523D01*
X77582Y759544D01*
X77265Y760125D01*
X77250Y760145D01*
X77207Y760215D01*
X76813Y760741D01*
X76814Y760741D01*
X76803Y760819D01*
X76803Y760822D01*
X76803Y760825D01*
X76803Y760827D01*
X76801Y760897D01*
X76786Y760939D01*
X76780Y760983D01*
X76750Y761053D01*
X76748Y761063D01*
X76742Y761073D01*
X76722Y761119D01*
X75906Y762614D01*
X75879Y762649D01*
X75859Y762689D01*
X75804Y762745D01*
X75756Y762806D01*
X75718Y762831D01*
X75687Y762862D01*
X75639Y762890D01*
X75408Y763510D01*
X75396Y763531D01*
X75363Y763607D01*
X75049Y764184D01*
X75049Y764263D01*
X75059Y764340D01*
X75050Y764384D01*
X75050Y764428D01*
X75012Y764571D01*
X74417Y766167D01*
X74395Y766205D01*
X74381Y766248D01*
X74335Y766310D01*
X74296Y766379D01*
X74262Y766408D01*
X74236Y766444D01*
X74192Y766478D01*
X74051Y767125D01*
X74042Y767148D01*
X74021Y767228D01*
X73792Y767843D01*
X73804Y767921D01*
X73824Y767996D01*
X73821Y768041D01*
X73828Y768085D01*
X73811Y768231D01*
X73449Y769896D01*
X73432Y769937D01*
X73425Y769981D01*
X73388Y770050D01*
X73359Y770122D01*
X73330Y770156D01*
X73309Y770195D01*
X73270Y770236D01*
X73223Y770896D01*
X73218Y770920D01*
X73208Y771002D01*
X73068Y771643D01*
X73069Y771644D01*
X73091Y771719D01*
X73122Y771791D01*
X73126Y771835D01*
X73138Y771878D01*
X73142Y772025D01*
X73029Y773612D01*
X73012Y773681D01*
X73006Y773752D01*
X72984Y773799D01*
X72972Y773849D01*
X72949Y773886D01*
X72949Y774700D01*
X72946Y774718D01*
X72947Y774754D01*
X72890Y775555D01*
X72894Y775562D01*
X72910Y775631D01*
X72935Y775697D01*
X72942Y775775D01*
X72948Y775800D01*
X72946Y775815D01*
X72949Y775844D01*
X72949Y849156D01*
X72938Y849226D01*
X72936Y849297D01*
X72918Y849345D01*
X72910Y849396D01*
X72889Y849434D01*
X72947Y850246D01*
X72946Y850264D01*
X72949Y850300D01*
X72949Y851104D01*
X72954Y851110D01*
X72974Y851178D01*
X73004Y851242D01*
X73017Y851319D01*
X73024Y851343D01*
X73024Y851359D01*
X73029Y851388D01*
X73142Y852975D01*
X73138Y853019D01*
X73144Y853063D01*
X73127Y853140D01*
X73120Y853218D01*
X73102Y853258D01*
X73093Y853302D01*
X73067Y853351D01*
X73208Y853998D01*
X73209Y854022D01*
X73223Y854104D01*
X73270Y854759D01*
X73313Y854825D01*
X73363Y854885D01*
X73379Y854927D01*
X73403Y854964D01*
X73449Y855104D01*
X73811Y856769D01*
X73813Y856813D01*
X73824Y856856D01*
X73819Y856934D01*
X73823Y857012D01*
X73811Y857055D01*
X73808Y857099D01*
X73790Y857152D01*
X74021Y857772D01*
X74026Y857796D01*
X74051Y857875D01*
X74191Y858517D01*
X74243Y858576D01*
X74301Y858628D01*
X74323Y858667D01*
X74352Y858701D01*
X74417Y858833D01*
X75012Y860429D01*
X75021Y860472D01*
X75038Y860513D01*
X75044Y860592D01*
X75059Y860668D01*
X75053Y860712D01*
X75056Y860757D01*
X75046Y860811D01*
X75363Y861393D01*
X75371Y861416D01*
X75408Y861490D01*
X75637Y862105D01*
X75638Y862105D01*
X75697Y862156D01*
X75762Y862200D01*
X75789Y862235D01*
X75823Y862264D01*
X75906Y862386D01*
X76722Y863881D01*
X76737Y863923D01*
X76760Y863961D01*
X76777Y864037D01*
X76803Y864111D01*
X76803Y864156D01*
X76813Y864199D01*
X76810Y864255D01*
X77207Y864785D01*
X77218Y864806D01*
X77265Y864875D01*
X77579Y865451D01*
X77580Y865451D01*
X77646Y865493D01*
X77716Y865527D01*
X77748Y865558D01*
X77786Y865582D01*
X77885Y865691D01*
X78906Y867054D01*
X78927Y867094D01*
X78955Y867128D01*
X78982Y867201D01*
X79019Y867271D01*
X79025Y867315D01*
X79041Y867356D01*
X79046Y867412D01*
X79515Y867880D01*
X79529Y867900D01*
X79585Y867961D01*
X79978Y868486D01*
X79979Y868486D01*
X80050Y868519D01*
X80125Y868542D01*
X80160Y868569D01*
X80201Y868587D01*
X80315Y868681D01*
X81519Y869885D01*
X81545Y869921D01*
X81578Y869951D01*
X81616Y870019D01*
X81662Y870083D01*
X81674Y870126D01*
X81696Y870165D01*
X81709Y870219D01*
X82239Y870615D01*
X82256Y870633D01*
X82320Y870685D01*
X82784Y871150D01*
X82785Y871150D01*
X82860Y871171D01*
X82937Y871184D01*
X82976Y871205D01*
X83019Y871217D01*
X83146Y871294D01*
X84509Y872315D01*
X84540Y872347D01*
X84576Y872372D01*
X84624Y872434D01*
X84678Y872491D01*
X84697Y872531D01*
X84723Y872566D01*
X84744Y872618D01*
X85325Y872935D01*
X85345Y872950D01*
X85415Y872993D01*
X85941Y873387D01*
X85941Y873386D01*
X86019Y873397D01*
X86097Y873399D01*
X86139Y873414D01*
X86183Y873420D01*
X86319Y873478D01*
X87814Y874294D01*
X87849Y874321D01*
X87889Y874341D01*
X87945Y874396D01*
X88006Y874444D01*
X88031Y874482D01*
X88062Y874513D01*
X88090Y874561D01*
X88710Y874792D01*
X88731Y874804D01*
X88807Y874837D01*
X89384Y875151D01*
X89463Y875151D01*
X89540Y875141D01*
X89584Y875150D01*
X89628Y875150D01*
X89771Y875188D01*
X91367Y875783D01*
X91405Y875805D01*
X91448Y875819D01*
X91511Y875866D01*
X91579Y875904D01*
X91608Y875938D01*
X91644Y875964D01*
X91678Y876008D01*
X92325Y876149D01*
X92348Y876158D01*
X92428Y876179D01*
X93043Y876408D01*
X93121Y876396D01*
X93196Y876376D01*
X93241Y876379D01*
X93285Y876372D01*
X93431Y876389D01*
X95096Y876751D01*
X95137Y876768D01*
X95181Y876775D01*
X95250Y876812D01*
X95322Y876841D01*
X95356Y876870D01*
X95395Y876891D01*
X95436Y876930D01*
X96096Y876977D01*
X96120Y876982D01*
X96202Y876992D01*
X96843Y877132D01*
X96844Y877131D01*
X96919Y877109D01*
X96991Y877078D01*
X97035Y877074D01*
X97078Y877062D01*
X97225Y877058D01*
X98924Y877179D01*
X98967Y877189D01*
X99012Y877191D01*
X99085Y877218D01*
X99161Y877236D01*
X99199Y877259D01*
X99241Y877275D01*
X99286Y877307D01*
X99947Y877260D01*
X99971Y877262D01*
X100053Y877260D01*
X100708Y877307D01*
X100709Y877306D01*
X100780Y877273D01*
X100846Y877232D01*
X100890Y877223D01*
X100930Y877204D01*
X101076Y877179D01*
X102775Y877058D01*
X102819Y877062D01*
X102863Y877056D01*
X102940Y877073D01*
X103018Y877080D01*
X103058Y877098D01*
X103102Y877107D01*
X103151Y877133D01*
X103798Y876992D01*
X103822Y876991D01*
X103904Y876977D01*
X104559Y876930D01*
X104559Y876929D01*
X104625Y876887D01*
X104685Y876837D01*
X104727Y876821D01*
X104764Y876797D01*
X104904Y876751D01*
X106569Y876389D01*
X106613Y876387D01*
X106656Y876376D01*
X106734Y876381D01*
X106812Y876377D01*
X106855Y876389D01*
X106899Y876392D01*
X106952Y876410D01*
X107572Y876179D01*
X107596Y876174D01*
X107675Y876149D01*
X108316Y876009D01*
X108317Y876009D01*
X108376Y875957D01*
X108428Y875899D01*
X108467Y875877D01*
X108501Y875848D01*
X108633Y875783D01*
X110229Y875188D01*
X110272Y875179D01*
X110313Y875162D01*
X110392Y875156D01*
X110468Y875141D01*
X110512Y875147D01*
X110557Y875144D01*
X110611Y875154D01*
X111193Y874837D01*
X111216Y874829D01*
X111290Y874792D01*
X111905Y874563D01*
X111905Y874562D01*
X111956Y874503D01*
X112000Y874438D01*
X112035Y874411D01*
X112064Y874377D01*
X112186Y874294D01*
X113681Y873478D01*
X113723Y873463D01*
X113761Y873440D01*
X113837Y873423D01*
X113911Y873397D01*
X113956Y873397D01*
X113999Y873387D01*
X114055Y873390D01*
X114585Y872993D01*
X114606Y872982D01*
X114675Y872935D01*
X115251Y872621D01*
X115251Y872620D01*
X115293Y872554D01*
X115327Y872484D01*
X115358Y872452D01*
X115382Y872414D01*
X115491Y872315D01*
X116854Y871294D01*
X116894Y871273D01*
X116928Y871245D01*
X117001Y871218D01*
X117071Y871181D01*
X117115Y871175D01*
X117156Y871159D01*
X117212Y871154D01*
X117680Y870685D01*
X117700Y870671D01*
X117761Y870615D01*
X118286Y870222D01*
X118286Y870221D01*
X118319Y870150D01*
X118342Y870075D01*
X118369Y870040D01*
X118387Y869999D01*
X118481Y869885D01*
X119685Y868681D01*
X119721Y868655D01*
X119751Y868622D01*
X119819Y868584D01*
X119883Y868538D01*
X119926Y868525D01*
X119965Y868504D01*
X120019Y868491D01*
X120415Y867961D01*
X120433Y867944D01*
X120485Y867880D01*
X120950Y867416D01*
X120950Y867415D01*
X120971Y867340D01*
X120984Y867263D01*
X121005Y867224D01*
X121017Y867181D01*
X121094Y867054D01*
X122115Y865691D01*
X122147Y865660D01*
X122172Y865624D01*
X122234Y865576D01*
X122291Y865522D01*
X122331Y865503D01*
X122366Y865477D01*
X122418Y865456D01*
X122735Y864875D01*
X122750Y864855D01*
X122793Y864785D01*
X123187Y864259D01*
X123186Y864259D01*
X123197Y864181D01*
X123199Y864103D01*
X123214Y864061D01*
X123220Y864017D01*
X123278Y863881D01*
X124094Y862386D01*
X124121Y862351D01*
X124141Y862311D01*
X124196Y862255D01*
X124244Y862194D01*
X124282Y862169D01*
X124313Y862138D01*
X124361Y862110D01*
X124592Y861490D01*
X124604Y861469D01*
X124637Y861393D01*
X124951Y860816D01*
X124951Y860737D01*
X124941Y860660D01*
X124950Y860616D01*
X124950Y860572D01*
X124988Y860429D01*
X125583Y858833D01*
X125605Y858795D01*
X125619Y858752D01*
X125666Y858689D01*
X125704Y858621D01*
X125738Y858592D01*
X125764Y858556D01*
X125808Y858522D01*
X125949Y857875D01*
X125958Y857852D01*
X125979Y857772D01*
X126208Y857157D01*
X126196Y857079D01*
X126176Y857004D01*
X126179Y856959D01*
X126172Y856915D01*
X126189Y856769D01*
X126551Y855104D01*
X126568Y855063D01*
X126575Y855019D01*
X126612Y854950D01*
X126641Y854878D01*
X126670Y854844D01*
X126691Y854805D01*
X126730Y854764D01*
X126777Y854104D01*
X126782Y854080D01*
X126792Y853998D01*
X126932Y853357D01*
X126931Y853356D01*
X126909Y853281D01*
X126878Y853209D01*
X126874Y853165D01*
X126862Y853122D01*
X126858Y852975D01*
X126971Y851388D01*
X126988Y851319D01*
X126994Y851248D01*
X127016Y851201D01*
X127028Y851151D01*
X127051Y851114D01*
X127051Y850300D01*
X127054Y850282D01*
X127053Y850246D01*
X127110Y849445D01*
X127106Y849438D01*
X127090Y849369D01*
X127065Y849303D01*
X127058Y849225D01*
X127052Y849200D01*
X127054Y849185D01*
X127051Y849156D01*
X127051Y775844D01*
X127062Y775774D01*
X127064Y775703D01*
X127082Y775655D01*
X127090Y775604D01*
X127111Y775566D01*
X127053Y774754D01*
X127054Y774736D01*
X127051Y774700D01*
X127051Y773896D01*
X127046Y773890D01*
X127026Y773822D01*
X126996Y773758D01*
X126983Y773681D01*
X126976Y773657D01*
X126976Y773641D01*
X126971Y773612D01*
X126858Y772025D01*
X126862Y771981D01*
X126856Y771937D01*
X126873Y771860D01*
X126880Y771782D01*
X126898Y771742D01*
X126907Y771698D01*
X126933Y771649D01*
X126792Y771002D01*
X126791Y770978D01*
X126777Y770896D01*
X126730Y770241D01*
X126729Y770241D01*
X126687Y770175D01*
X126637Y770115D01*
X126621Y770073D01*
X126597Y770036D01*
X126551Y769896D01*
X126189Y768231D01*
X126187Y768187D01*
X126176Y768144D01*
X126181Y768066D01*
X126177Y767988D01*
X126189Y767945D01*
X126192Y767901D01*
X126210Y767848D01*
X125979Y767228D01*
X125974Y767204D01*
X125949Y767125D01*
X125809Y766484D01*
X125809Y766483D01*
X125757Y766424D01*
X125699Y766372D01*
X125677Y766333D01*
X125648Y766299D01*
X125583Y766167D01*
X124988Y764571D01*
X124979Y764528D01*
X124962Y764487D01*
X124956Y764408D01*
X124941Y764332D01*
X124947Y764288D01*
X124944Y764243D01*
X124954Y764189D01*
X124637Y763607D01*
X124629Y763584D01*
X124592Y763510D01*
X124363Y762895D01*
X124362Y762895D01*
X124303Y762844D01*
X124238Y762800D01*
X124211Y762765D01*
X124177Y762736D01*
X124094Y762614D01*
X123278Y761119D01*
X123263Y761077D01*
X123240Y761039D01*
X123229Y760989D01*
X123221Y760971D01*
X123219Y760950D01*
X123197Y760889D01*
X123197Y760844D01*
X123187Y760801D01*
X123190Y760745D01*
X122793Y760215D01*
X122782Y760194D01*
X122735Y760125D01*
X122421Y759549D01*
X122420Y759549D01*
X122354Y759507D01*
X122284Y759473D01*
X122252Y759442D01*
X122214Y759418D01*
X122115Y759309D01*
X121094Y757946D01*
X121073Y757906D01*
X121045Y757872D01*
X121018Y757798D01*
X120981Y757729D01*
X120975Y757685D01*
X120959Y757644D01*
X120954Y757588D01*
X120485Y757120D01*
X120471Y757100D01*
X120415Y757039D01*
X120022Y756514D01*
X120021Y756514D01*
X119950Y756481D01*
X119875Y756458D01*
X119840Y756431D01*
X119799Y756413D01*
X119685Y756319D01*
X118481Y755115D01*
X118455Y755079D01*
X118422Y755049D01*
X118384Y754981D01*
X118338Y754917D01*
X118325Y754874D01*
X118304Y754835D01*
X118291Y754781D01*
X117761Y754385D01*
X117744Y754367D01*
X117680Y754315D01*
X117216Y753850D01*
X117215Y753850D01*
X117140Y753829D01*
X117063Y753816D01*
X117024Y753795D01*
X116981Y753783D01*
X116854Y753706D01*
X115491Y752685D01*
X115460Y752653D01*
X115424Y752628D01*
X115376Y752566D01*
X115322Y752509D01*
X115303Y752469D01*
X115277Y752434D01*
X115256Y752382D01*
X114675Y752065D01*
X114655Y752050D01*
X114585Y752007D01*
X114059Y751613D01*
X114059Y751614D01*
X113981Y751603D01*
X113903Y751601D01*
X113861Y751586D01*
X113817Y751580D01*
X113681Y751522D01*
X112186Y750706D01*
X112151Y750679D01*
X112111Y750659D01*
X112055Y750604D01*
X111994Y750556D01*
X111969Y750518D01*
X111938Y750487D01*
X111910Y750439D01*
X111290Y750208D01*
X111269Y750196D01*
X111193Y750163D01*
X110616Y749849D01*
X110537Y749849D01*
X110460Y749859D01*
X110416Y749850D01*
X110372Y749850D01*
X110229Y749812D01*
X108633Y749217D01*
X108595Y749195D01*
X108552Y749181D01*
X108489Y749134D01*
X108421Y749096D01*
X108392Y749062D01*
X108356Y749036D01*
X108322Y748992D01*
X107675Y748851D01*
X107652Y748842D01*
X107572Y748821D01*
X106957Y748592D01*
X106879Y748604D01*
X106804Y748624D01*
X106759Y748621D01*
X106715Y748628D01*
X106569Y748611D01*
X104904Y748249D01*
X104863Y748232D01*
X104819Y748225D01*
X104750Y748188D01*
X104678Y748159D01*
X104644Y748130D01*
X104605Y748109D01*
X104564Y748070D01*
X103904Y748023D01*
X103880Y748018D01*
X103798Y748008D01*
X103157Y747868D01*
X103156Y747869D01*
X103081Y747891D01*
X103009Y747922D01*
X102965Y747926D01*
X102922Y747938D01*
X102775Y747942D01*
X101076Y747821D01*
X101033Y747811D01*
X100988Y747809D01*
X100915Y747782D01*
X100839Y747764D01*
X100801Y747740D01*
X100759Y747725D01*
X100714Y747693D01*
X100053Y747740D01*
G37*
%LPD*%
G36*
X103558Y750050D02*
X103558Y750050D01*
X103559Y750050D01*
X107044Y750808D01*
X107045Y750808D01*
X110387Y752055D01*
X110388Y752055D01*
X113518Y753764D01*
X113519Y753765D01*
X116375Y755902D01*
X116375Y755903D01*
X118897Y758425D01*
X118898Y758425D01*
X121035Y761281D01*
X121035Y761282D01*
X121036Y761282D01*
X122745Y764412D01*
X122745Y764413D01*
X123992Y767755D01*
X123992Y767756D01*
X124750Y771241D01*
X124750Y771242D01*
X124751Y771242D01*
X124753Y771274D01*
X124754Y771289D01*
X124756Y771314D01*
X124757Y771329D01*
X124760Y771369D01*
X124762Y771408D01*
X124765Y771448D01*
X124768Y771488D01*
X124771Y771528D01*
X124772Y771543D01*
X124775Y771582D01*
X124778Y771622D01*
X124781Y771662D01*
X124783Y771702D01*
X124786Y771741D01*
X124787Y771756D01*
X124790Y771796D01*
X124793Y771836D01*
X124796Y771875D01*
X124796Y771876D01*
X124799Y771915D01*
X124802Y771955D01*
X124803Y771970D01*
X124805Y772010D01*
X124808Y772049D01*
X124811Y772089D01*
X124814Y772129D01*
X124817Y772169D01*
X124818Y772184D01*
X124821Y772223D01*
X124824Y772263D01*
X124826Y772303D01*
X124829Y772343D01*
X124832Y772382D01*
X124833Y772397D01*
X124836Y772437D01*
X124839Y772477D01*
X124842Y772516D01*
X124842Y772517D01*
X124845Y772556D01*
X124847Y772596D01*
X124848Y772611D01*
X124851Y772651D01*
X124854Y772690D01*
X124857Y772730D01*
X124860Y772770D01*
X124863Y772810D01*
X124864Y772825D01*
X124867Y772864D01*
X124869Y772904D01*
X124872Y772944D01*
X124875Y772984D01*
X124878Y773023D01*
X124879Y773038D01*
X124882Y773078D01*
X124885Y773118D01*
X124888Y773157D01*
X124890Y773197D01*
X124893Y773237D01*
X124894Y773252D01*
X124897Y773292D01*
X124900Y773331D01*
X124903Y773371D01*
X124906Y773411D01*
X124908Y773451D01*
X124909Y773451D01*
X124908Y773451D01*
X124910Y773466D01*
X124912Y773505D01*
X124915Y773545D01*
X124918Y773585D01*
X124921Y773624D01*
X124921Y773625D01*
X124924Y773664D01*
X124925Y773679D01*
X124928Y773719D01*
X124931Y773759D01*
X124933Y773798D01*
X124936Y773838D01*
X124939Y773878D01*
X124940Y773893D01*
X124943Y773933D01*
X124946Y773972D01*
X124949Y774012D01*
X124951Y774052D01*
X124952Y774052D01*
X124951Y774052D01*
X124954Y774092D01*
X124955Y774106D01*
X124955Y774107D01*
X124958Y774146D01*
X124961Y774186D01*
X124964Y774226D01*
X124967Y774265D01*
X124967Y774266D01*
X124970Y774305D01*
X124971Y774320D01*
X124974Y774360D01*
X124976Y774400D01*
X124979Y774439D01*
X124982Y774479D01*
X124985Y774519D01*
X124986Y774534D01*
X124989Y774574D01*
X124992Y774613D01*
X124994Y774653D01*
X124995Y774653D01*
X124994Y774653D01*
X124997Y774693D01*
X125000Y774733D01*
X125001Y774747D01*
X125004Y774787D01*
X125005Y774800D01*
X125005Y850200D01*
X124751Y853758D01*
X124750Y853759D01*
X123992Y857244D01*
X123992Y857245D01*
X122745Y860587D01*
X122745Y860588D01*
X121036Y863718D01*
X121035Y863719D01*
X118898Y866575D01*
X118897Y866575D01*
X116375Y869097D01*
X116375Y869098D01*
X113519Y871235D01*
X113518Y871236D01*
X110388Y872945D01*
X110387Y872945D01*
X107045Y874192D01*
X107044Y874192D01*
X103559Y874950D01*
X103558Y874950D01*
X103558Y874951D01*
X103525Y874953D01*
X103456Y874958D01*
X103386Y874963D01*
X103317Y874968D01*
X103247Y874973D01*
X103178Y874978D01*
X103108Y874983D01*
X103039Y874988D01*
X102969Y874993D01*
X102900Y874998D01*
X102830Y875003D01*
X102761Y875008D01*
X102691Y875013D01*
X102622Y875017D01*
X102553Y875022D01*
X102552Y875022D01*
X102483Y875027D01*
X102414Y875032D01*
X102413Y875032D01*
X102344Y875037D01*
X102275Y875042D01*
X102205Y875047D01*
X102136Y875052D01*
X102066Y875057D01*
X101997Y875062D01*
X101927Y875067D01*
X101858Y875072D01*
X101788Y875077D01*
X101719Y875082D01*
X101649Y875087D01*
X101580Y875092D01*
X101510Y875097D01*
X101441Y875102D01*
X101372Y875107D01*
X101371Y875107D01*
X101302Y875112D01*
X101233Y875117D01*
X101232Y875117D01*
X101163Y875122D01*
X101094Y875127D01*
X101024Y875132D01*
X100955Y875137D01*
X100885Y875142D01*
X100816Y875147D01*
X100746Y875152D01*
X100677Y875157D01*
X100607Y875162D01*
X100538Y875167D01*
X100468Y875172D01*
X100399Y875176D01*
X100329Y875181D01*
X100260Y875186D01*
X100190Y875191D01*
X100121Y875196D01*
X100052Y875201D01*
X100051Y875201D01*
X100000Y875205D01*
X99949Y875201D01*
X99948Y875201D01*
X99879Y875196D01*
X99810Y875191D01*
X99740Y875186D01*
X99671Y875181D01*
X99601Y875176D01*
X99532Y875172D01*
X99462Y875167D01*
X99393Y875162D01*
X99323Y875157D01*
X99254Y875152D01*
X99184Y875147D01*
X99115Y875142D01*
X99045Y875137D01*
X98976Y875132D01*
X98906Y875127D01*
X98837Y875122D01*
X98768Y875117D01*
X98767Y875117D01*
X98698Y875112D01*
X98629Y875107D01*
X98628Y875107D01*
X98559Y875102D01*
X98490Y875097D01*
X98420Y875092D01*
X98351Y875087D01*
X98281Y875082D01*
X98212Y875077D01*
X98142Y875072D01*
X98073Y875067D01*
X98003Y875062D01*
X97934Y875057D01*
X97864Y875052D01*
X97795Y875047D01*
X97725Y875042D01*
X97656Y875037D01*
X97587Y875032D01*
X97586Y875032D01*
X97517Y875027D01*
X97448Y875022D01*
X97447Y875022D01*
X97378Y875017D01*
X97309Y875013D01*
X97239Y875008D01*
X97170Y875003D01*
X97100Y874998D01*
X97031Y874993D01*
X96961Y874988D01*
X96892Y874983D01*
X96822Y874978D01*
X96753Y874973D01*
X96683Y874968D01*
X96614Y874963D01*
X96544Y874958D01*
X96475Y874953D01*
X96442Y874951D01*
X96441Y874950D01*
X92956Y874192D01*
X92955Y874192D01*
X89613Y872945D01*
X89612Y872945D01*
X86482Y871236D01*
X86481Y871235D01*
X83625Y869098D01*
X83625Y869097D01*
X81103Y866575D01*
X81102Y866575D01*
X78965Y863719D01*
X78964Y863718D01*
X77255Y860588D01*
X77255Y860587D01*
X76008Y857245D01*
X76008Y857244D01*
X75250Y853759D01*
X75250Y853758D01*
X75248Y853742D01*
X75246Y853702D01*
X75245Y853702D01*
X75246Y853702D01*
X75244Y853687D01*
X75243Y853662D01*
X75242Y853647D01*
X75239Y853608D01*
X75236Y853568D01*
X75233Y853528D01*
X75230Y853489D01*
X75230Y853488D01*
X75227Y853449D01*
X75226Y853434D01*
X75223Y853394D01*
X75221Y853354D01*
X75218Y853315D01*
X75215Y853275D01*
X75212Y853235D01*
X75211Y853220D01*
X75208Y853180D01*
X75205Y853141D01*
X75203Y853101D01*
X75202Y853101D01*
X75203Y853101D01*
X75200Y853061D01*
X75197Y853021D01*
X75196Y853007D01*
X75196Y853006D01*
X75193Y852967D01*
X75190Y852927D01*
X75187Y852887D01*
X75184Y852848D01*
X75184Y852847D01*
X75182Y852808D01*
X75180Y852793D01*
X75178Y852753D01*
X75175Y852713D01*
X75172Y852674D01*
X75169Y852634D01*
X75166Y852594D01*
X75165Y852579D01*
X75162Y852539D01*
X75160Y852500D01*
X75159Y852500D01*
X75160Y852500D01*
X75157Y852460D01*
X75154Y852420D01*
X75151Y852380D01*
X75150Y852366D01*
X75147Y852326D01*
X75144Y852286D01*
X75141Y852246D01*
X75139Y852207D01*
X75136Y852167D01*
X75135Y852152D01*
X75132Y852112D01*
X75129Y852072D01*
X75126Y852033D01*
X75123Y851993D01*
X75120Y851953D01*
X75119Y851938D01*
X75117Y851899D01*
X75116Y851898D01*
X75117Y851898D01*
X75114Y851859D01*
X75111Y851819D01*
X75108Y851779D01*
X75105Y851740D01*
X75105Y851739D01*
X75104Y851725D01*
X75101Y851685D01*
X75098Y851645D01*
X75096Y851605D01*
X75093Y851566D01*
X75090Y851526D01*
X75089Y851511D01*
X75086Y851471D01*
X75083Y851431D01*
X75080Y851392D01*
X75077Y851352D01*
X75075Y851312D01*
X75074Y851297D01*
X75073Y851297D01*
X75071Y851258D01*
X75071Y851257D01*
X75068Y851218D01*
X75065Y851178D01*
X75062Y851138D01*
X75059Y851099D01*
X75059Y851098D01*
X75058Y851084D01*
X75055Y851044D01*
X75053Y851004D01*
X75050Y850964D01*
X75047Y850925D01*
X75044Y850885D01*
X75043Y850870D01*
X75040Y850830D01*
X75037Y850790D01*
X75034Y850751D01*
X75032Y850711D01*
X75029Y850671D01*
X75028Y850656D01*
X75025Y850617D01*
X75022Y850577D01*
X75019Y850537D01*
X75016Y850497D01*
X75013Y850458D01*
X75012Y850443D01*
X75010Y850403D01*
X75007Y850363D01*
X75004Y850323D01*
X75001Y850284D01*
X74998Y850244D01*
X74997Y850229D01*
X74995Y850200D01*
X74995Y774800D01*
X75250Y771242D01*
X75250Y771241D01*
X76008Y767756D01*
X76008Y767755D01*
X77255Y764413D01*
X77255Y764412D01*
X78964Y761282D01*
X78965Y761281D01*
X81102Y758425D01*
X81103Y758425D01*
X83625Y755903D01*
X83625Y755902D01*
X86481Y753765D01*
X86482Y753765D01*
X86482Y753764D01*
X89612Y752055D01*
X89613Y752055D01*
X92955Y750808D01*
X92956Y750808D01*
X96441Y750050D01*
X96442Y750050D01*
X100000Y749795D01*
X103558Y750050D01*
G37*
G36*
X43558Y750050D02*
X43558Y750050D01*
X43559Y750050D01*
X47044Y750808D01*
X47045Y750808D01*
X50387Y752055D01*
X50388Y752055D01*
X53518Y753764D01*
X53519Y753765D01*
X56375Y755902D01*
X56375Y755903D01*
X58897Y758425D01*
X58898Y758425D01*
X61035Y761281D01*
X61035Y761282D01*
X61036Y761282D01*
X62745Y764412D01*
X62745Y764413D01*
X63992Y767755D01*
X63992Y767756D01*
X64750Y771241D01*
X64750Y771242D01*
X64751Y771242D01*
X64753Y771274D01*
X64754Y771289D01*
X64756Y771314D01*
X64757Y771329D01*
X64760Y771369D01*
X64762Y771408D01*
X64765Y771448D01*
X64768Y771488D01*
X64771Y771528D01*
X64772Y771543D01*
X64775Y771582D01*
X64778Y771622D01*
X64781Y771662D01*
X64783Y771702D01*
X64786Y771741D01*
X64787Y771756D01*
X64790Y771796D01*
X64793Y771836D01*
X64796Y771875D01*
X64796Y771876D01*
X64799Y771915D01*
X64802Y771955D01*
X64803Y771970D01*
X64805Y772010D01*
X64808Y772049D01*
X64811Y772089D01*
X64814Y772129D01*
X64817Y772169D01*
X64818Y772184D01*
X64821Y772223D01*
X64824Y772263D01*
X64826Y772303D01*
X64829Y772343D01*
X64832Y772382D01*
X64833Y772397D01*
X64836Y772437D01*
X64839Y772477D01*
X64842Y772516D01*
X64842Y772517D01*
X64845Y772556D01*
X64847Y772596D01*
X64848Y772611D01*
X64851Y772651D01*
X64854Y772690D01*
X64857Y772730D01*
X64860Y772770D01*
X64863Y772810D01*
X64864Y772825D01*
X64867Y772864D01*
X64869Y772904D01*
X64872Y772944D01*
X64875Y772984D01*
X64878Y773023D01*
X64879Y773038D01*
X64882Y773078D01*
X64885Y773118D01*
X64888Y773157D01*
X64890Y773197D01*
X64893Y773237D01*
X64894Y773252D01*
X64897Y773292D01*
X64900Y773331D01*
X64903Y773371D01*
X64906Y773411D01*
X64908Y773451D01*
X64909Y773451D01*
X64908Y773451D01*
X64910Y773466D01*
X64912Y773505D01*
X64915Y773545D01*
X64918Y773585D01*
X64921Y773624D01*
X64921Y773625D01*
X64924Y773664D01*
X64925Y773679D01*
X64928Y773719D01*
X64931Y773759D01*
X64933Y773798D01*
X64936Y773838D01*
X64939Y773878D01*
X64940Y773893D01*
X64943Y773933D01*
X64946Y773972D01*
X64949Y774012D01*
X64951Y774052D01*
X64952Y774052D01*
X64951Y774052D01*
X64954Y774092D01*
X64955Y774106D01*
X64955Y774107D01*
X64958Y774146D01*
X64961Y774186D01*
X64964Y774226D01*
X64967Y774265D01*
X64967Y774266D01*
X64970Y774305D01*
X64971Y774320D01*
X64974Y774360D01*
X64976Y774400D01*
X64979Y774439D01*
X64982Y774479D01*
X64985Y774519D01*
X64986Y774534D01*
X64989Y774574D01*
X64992Y774613D01*
X64994Y774653D01*
X64995Y774653D01*
X64994Y774653D01*
X64997Y774693D01*
X65000Y774733D01*
X65001Y774747D01*
X65004Y774787D01*
X65005Y774800D01*
X65005Y850200D01*
X64751Y853758D01*
X64750Y853759D01*
X63992Y857244D01*
X63992Y857245D01*
X62745Y860587D01*
X62745Y860588D01*
X61036Y863718D01*
X61035Y863719D01*
X58898Y866575D01*
X58897Y866575D01*
X56375Y869097D01*
X56375Y869098D01*
X53519Y871235D01*
X53518Y871236D01*
X50388Y872945D01*
X50387Y872945D01*
X47045Y874192D01*
X47044Y874192D01*
X43559Y874950D01*
X43558Y874950D01*
X43558Y874951D01*
X43525Y874953D01*
X43456Y874958D01*
X43386Y874963D01*
X43317Y874968D01*
X43247Y874973D01*
X43178Y874978D01*
X43108Y874983D01*
X43039Y874988D01*
X42969Y874993D01*
X42900Y874998D01*
X42830Y875003D01*
X42761Y875008D01*
X42691Y875013D01*
X42622Y875017D01*
X42553Y875022D01*
X42552Y875022D01*
X42483Y875027D01*
X42414Y875032D01*
X42413Y875032D01*
X42344Y875037D01*
X42275Y875042D01*
X42205Y875047D01*
X42136Y875052D01*
X42066Y875057D01*
X41997Y875062D01*
X41927Y875067D01*
X41858Y875072D01*
X41788Y875077D01*
X41719Y875082D01*
X41649Y875087D01*
X41580Y875092D01*
X41510Y875097D01*
X41441Y875102D01*
X41372Y875107D01*
X41371Y875107D01*
X41302Y875112D01*
X41233Y875117D01*
X41232Y875117D01*
X41163Y875122D01*
X41094Y875127D01*
X41024Y875132D01*
X40955Y875137D01*
X40885Y875142D01*
X40816Y875147D01*
X40746Y875152D01*
X40677Y875157D01*
X40607Y875162D01*
X40538Y875167D01*
X40468Y875172D01*
X40399Y875176D01*
X40329Y875181D01*
X40260Y875186D01*
X40190Y875191D01*
X40121Y875196D01*
X40052Y875201D01*
X40051Y875201D01*
X40000Y875205D01*
X39949Y875201D01*
X39948Y875201D01*
X39879Y875196D01*
X39810Y875191D01*
X39740Y875186D01*
X39671Y875181D01*
X39601Y875176D01*
X39532Y875172D01*
X39462Y875167D01*
X39393Y875162D01*
X39323Y875157D01*
X39254Y875152D01*
X39184Y875147D01*
X39115Y875142D01*
X39045Y875137D01*
X38976Y875132D01*
X38906Y875127D01*
X38837Y875122D01*
X38768Y875117D01*
X38767Y875117D01*
X38698Y875112D01*
X38629Y875107D01*
X38628Y875107D01*
X38559Y875102D01*
X38490Y875097D01*
X38420Y875092D01*
X38351Y875087D01*
X38281Y875082D01*
X38212Y875077D01*
X38142Y875072D01*
X38073Y875067D01*
X38003Y875062D01*
X37934Y875057D01*
X37864Y875052D01*
X37795Y875047D01*
X37725Y875042D01*
X37656Y875037D01*
X37587Y875032D01*
X37586Y875032D01*
X37517Y875027D01*
X37448Y875022D01*
X37447Y875022D01*
X37378Y875017D01*
X37309Y875013D01*
X37239Y875008D01*
X37170Y875003D01*
X37100Y874998D01*
X37031Y874993D01*
X36961Y874988D01*
X36892Y874983D01*
X36822Y874978D01*
X36753Y874973D01*
X36683Y874968D01*
X36614Y874963D01*
X36544Y874958D01*
X36475Y874953D01*
X36442Y874951D01*
X36441Y874950D01*
X32956Y874192D01*
X32955Y874192D01*
X29613Y872945D01*
X29612Y872945D01*
X26482Y871236D01*
X26481Y871235D01*
X23625Y869098D01*
X23625Y869097D01*
X21103Y866575D01*
X21102Y866575D01*
X18965Y863719D01*
X18964Y863718D01*
X17255Y860588D01*
X17255Y860587D01*
X16008Y857245D01*
X16008Y857244D01*
X15250Y853759D01*
X15250Y853758D01*
X15248Y853742D01*
X15246Y853702D01*
X15245Y853702D01*
X15246Y853702D01*
X15244Y853687D01*
X15243Y853662D01*
X15242Y853647D01*
X15239Y853608D01*
X15236Y853568D01*
X15233Y853528D01*
X15230Y853489D01*
X15230Y853488D01*
X15227Y853449D01*
X15226Y853434D01*
X15223Y853394D01*
X15221Y853354D01*
X15218Y853315D01*
X15215Y853275D01*
X15212Y853235D01*
X15211Y853220D01*
X15208Y853180D01*
X15205Y853141D01*
X15203Y853101D01*
X15202Y853101D01*
X15203Y853101D01*
X15200Y853061D01*
X15197Y853021D01*
X15196Y853007D01*
X15196Y853006D01*
X15193Y852967D01*
X15190Y852927D01*
X15187Y852887D01*
X15184Y852848D01*
X15184Y852847D01*
X15182Y852808D01*
X15180Y852793D01*
X15178Y852753D01*
X15175Y852713D01*
X15172Y852674D01*
X15169Y852634D01*
X15166Y852594D01*
X15165Y852579D01*
X15162Y852539D01*
X15160Y852500D01*
X15159Y852500D01*
X15160Y852500D01*
X15157Y852460D01*
X15154Y852420D01*
X15151Y852380D01*
X15150Y852366D01*
X15147Y852326D01*
X15144Y852286D01*
X15141Y852246D01*
X15139Y852207D01*
X15136Y852167D01*
X15135Y852152D01*
X15132Y852112D01*
X15129Y852072D01*
X15126Y852033D01*
X15123Y851993D01*
X15120Y851953D01*
X15119Y851938D01*
X15117Y851899D01*
X15116Y851898D01*
X15117Y851898D01*
X15114Y851859D01*
X15111Y851819D01*
X15108Y851779D01*
X15105Y851740D01*
X15105Y851739D01*
X15104Y851725D01*
X15101Y851685D01*
X15098Y851645D01*
X15096Y851605D01*
X15093Y851566D01*
X15090Y851526D01*
X15089Y851511D01*
X15086Y851471D01*
X15083Y851431D01*
X15080Y851392D01*
X15077Y851352D01*
X15075Y851312D01*
X15074Y851297D01*
X15073Y851297D01*
X15071Y851258D01*
X15071Y851257D01*
X15068Y851218D01*
X15065Y851178D01*
X15062Y851138D01*
X15059Y851099D01*
X15059Y851098D01*
X15058Y851084D01*
X15055Y851044D01*
X15053Y851004D01*
X15050Y850964D01*
X15047Y850925D01*
X15044Y850885D01*
X15043Y850870D01*
X15040Y850830D01*
X15037Y850790D01*
X15034Y850751D01*
X15032Y850711D01*
X15029Y850671D01*
X15028Y850656D01*
X15025Y850617D01*
X15022Y850577D01*
X15019Y850537D01*
X15016Y850497D01*
X15013Y850458D01*
X15012Y850443D01*
X15010Y850403D01*
X15007Y850363D01*
X15004Y850323D01*
X15001Y850284D01*
X14998Y850244D01*
X14997Y850229D01*
X14995Y850200D01*
X14995Y774800D01*
X15250Y771242D01*
X15250Y771241D01*
X16008Y767756D01*
X16008Y767755D01*
X17255Y764413D01*
X17255Y764412D01*
X18964Y761282D01*
X18965Y761281D01*
X21102Y758425D01*
X21103Y758425D01*
X23625Y755903D01*
X23625Y755902D01*
X26481Y753765D01*
X26482Y753765D01*
X26482Y753764D01*
X29612Y752055D01*
X29613Y752055D01*
X32955Y750808D01*
X32956Y750808D01*
X36441Y750050D01*
X36442Y750050D01*
X40000Y749795D01*
X43558Y750050D01*
G37*
G36*
X144524Y287255D02*
X144524Y287255D01*
X144549Y287252D01*
X144644Y287275D01*
X144741Y287290D01*
X144762Y287302D01*
X144786Y287308D01*
X144870Y287359D01*
X144956Y287405D01*
X144973Y287423D01*
X144994Y287436D01*
X145056Y287512D01*
X145123Y287584D01*
X145133Y287606D01*
X145149Y287625D01*
X145183Y287716D01*
X145224Y287806D01*
X145226Y287830D01*
X145235Y287853D01*
X145249Y288000D01*
X145249Y896000D01*
X145245Y896024D01*
X145248Y896049D01*
X145226Y896144D01*
X145210Y896241D01*
X145198Y896262D01*
X145192Y896286D01*
X145141Y896370D01*
X145095Y896456D01*
X145077Y896473D01*
X145064Y896494D01*
X144988Y896556D01*
X144917Y896623D01*
X144894Y896633D01*
X144875Y896649D01*
X144784Y896683D01*
X144694Y896724D01*
X144670Y896726D01*
X144647Y896735D01*
X144500Y896749D01*
X118262Y896749D01*
X118214Y896741D01*
X118164Y896743D01*
X118094Y896722D01*
X118021Y896710D01*
X117978Y896686D01*
X117931Y896672D01*
X117871Y896629D01*
X117806Y896595D01*
X117772Y896559D01*
X117732Y896530D01*
X117690Y896470D01*
X117639Y896417D01*
X117619Y896372D01*
X117590Y896332D01*
X117569Y896261D01*
X117538Y896194D01*
X117534Y896145D01*
X117519Y896098D01*
X117522Y896025D01*
X117514Y895951D01*
X117525Y895904D01*
X117527Y895854D01*
X117553Y895786D01*
X117570Y895714D01*
X117595Y895672D01*
X117613Y895626D01*
X117659Y895569D01*
X117698Y895506D01*
X117736Y895475D01*
X117767Y895437D01*
X117886Y895352D01*
X117887Y895352D01*
X117887Y895351D01*
X127086Y890041D01*
X134541Y882586D01*
X139812Y873455D01*
X142541Y863271D01*
X142541Y288000D01*
X142545Y287976D01*
X142542Y287951D01*
X142564Y287856D01*
X142580Y287759D01*
X142592Y287738D01*
X142598Y287714D01*
X142649Y287630D01*
X142695Y287544D01*
X142713Y287527D01*
X142726Y287506D01*
X142802Y287444D01*
X142873Y287377D01*
X142896Y287367D01*
X142915Y287352D01*
X143006Y287317D01*
X143096Y287276D01*
X143120Y287274D01*
X143143Y287265D01*
X143290Y287251D01*
X144500Y287251D01*
X144524Y287255D01*
G37*
G36*
X-444Y869859D02*
X-444Y869859D01*
X-437Y869859D01*
X-326Y869887D01*
X-214Y869913D01*
X-208Y869917D01*
X-201Y869919D01*
X-104Y869981D01*
X-6Y870042D01*
X-2Y870047D01*
X4Y870051D01*
X76Y870142D01*
X149Y870230D01*
X151Y870237D01*
X156Y870243D01*
X214Y870378D01*
X1172Y873392D01*
X7309Y882972D01*
X15716Y890637D01*
X24795Y895335D01*
X24848Y895374D01*
X24907Y895405D01*
X24945Y895447D01*
X24991Y895480D01*
X25028Y895535D01*
X25073Y895584D01*
X25097Y895635D01*
X25129Y895682D01*
X25147Y895745D01*
X25174Y895806D01*
X25180Y895862D01*
X25195Y895916D01*
X25192Y895983D01*
X25198Y896049D01*
X25186Y896104D01*
X25183Y896160D01*
X25158Y896222D01*
X25143Y896286D01*
X25113Y896334D01*
X25092Y896387D01*
X25049Y896437D01*
X25014Y896494D01*
X24971Y896529D01*
X24934Y896572D01*
X24877Y896606D01*
X24826Y896649D01*
X24773Y896668D01*
X24725Y896697D01*
X24660Y896711D01*
X24598Y896735D01*
X24509Y896743D01*
X24486Y896748D01*
X24474Y896747D01*
X24451Y896749D01*
X-500Y896749D01*
X-524Y896745D01*
X-549Y896748D01*
X-644Y896726D01*
X-741Y896710D01*
X-762Y896698D01*
X-786Y896692D01*
X-870Y896641D01*
X-956Y896595D01*
X-973Y896577D01*
X-994Y896564D01*
X-1056Y896488D01*
X-1123Y896417D01*
X-1133Y896394D01*
X-1149Y896375D01*
X-1183Y896284D01*
X-1224Y896194D01*
X-1226Y896170D01*
X-1235Y896147D01*
X-1249Y896000D01*
X-1249Y870605D01*
X-1248Y870598D01*
X-1249Y870591D01*
X-1228Y870478D01*
X-1210Y870365D01*
X-1206Y870358D01*
X-1205Y870351D01*
X-1149Y870251D01*
X-1095Y870149D01*
X-1089Y870144D01*
X-1086Y870138D01*
X-1000Y870061D01*
X-917Y869983D01*
X-910Y869980D01*
X-904Y869975D01*
X-799Y869929D01*
X-694Y869882D01*
X-687Y869881D01*
X-680Y869878D01*
X-567Y869869D01*
X-451Y869858D01*
X-444Y869859D01*
G37*
D10*
X35000Y265000D02*
X35000Y8000D01*
X45000Y8000D02*
X45000Y265000D01*
X55000Y265000D02*
X55000Y8000D01*
X65000Y8000D02*
X65000Y265000D01*
X75000Y265000D02*
X75000Y8000D01*
X85000Y8000D02*
X85000Y265000D01*
X95000Y265000D02*
X95000Y8000D01*
X20000Y4000D02*
X20000Y270000D01*
X30000Y260000D02*
X30000Y4000D01*
X40000Y4000D02*
X40000Y260000D01*
X50000Y260000D02*
X50000Y4000D01*
X60000Y4000D02*
X60000Y260000D01*
X70000Y260000D02*
X70000Y4000D01*
X80000Y4000D02*
X80000Y260000D01*
X90000Y260000D02*
X90000Y4000D01*
X100000Y4000D02*
X100000Y260000D01*
X110000Y260000D02*
X110000Y4000D01*
X20000Y270000D02*
X25000Y275000D01*
D11*
X25000Y275000D03*
D10*
X20000Y4000D02*
X110000Y4000D01*
X25000Y8000D02*
X25000Y266184D01*
X105000Y266000D02*
X105000Y8000D01*
X105000Y266000D02*
X105000Y266184D01*
X25000Y266184D01*
D11*
X120000Y580000D03*
D12*
X119000Y266000D02*
X105000Y266000D01*
D13*
X119000Y266000D02*
X120000Y267000D01*
X120000Y580000D01*
M02*
