G04 EAGLE Gerber RS-274X export*
G75*
%MOMM*%
%FSLAX34Y34*%
%LPD*%
%INSoldermask Bottom*%
%IPPOS*%
%AMOC8*
5,1,8,0,0,1.08239X$1,22.5*%
G01*

G36*
X112505Y6499D02*
X112505Y6499D01*
X112505Y6500D01*
X112505Y245000D01*
X112505Y245001D01*
X112361Y246464D01*
X112360Y246464D01*
X112361Y246465D01*
X111934Y247872D01*
X111933Y247872D01*
X111934Y247872D01*
X111240Y249169D01*
X111240Y249170D01*
X110307Y250306D01*
X110307Y250307D01*
X110306Y250307D01*
X109170Y251240D01*
X109169Y251240D01*
X107872Y251934D01*
X107872Y251933D01*
X107872Y251934D01*
X106465Y252361D01*
X106464Y252360D01*
X106464Y252361D01*
X105001Y252505D01*
X105000Y252505D01*
X25000Y252505D01*
X23536Y252361D01*
X23536Y252360D01*
X23535Y252361D01*
X22128Y251934D01*
X22128Y251933D01*
X22128Y251934D01*
X20831Y251240D01*
X20830Y251240D01*
X19694Y250307D01*
X19693Y250307D01*
X19693Y250306D01*
X18760Y249170D01*
X18760Y249169D01*
X18067Y247872D01*
X18066Y247872D01*
X17639Y246465D01*
X17640Y246464D01*
X17639Y246464D01*
X17495Y245001D01*
X17495Y245000D01*
X17495Y6500D01*
X17499Y6495D01*
X17500Y6495D01*
X112500Y6495D01*
X112505Y6499D01*
G37*
G36*
X103558Y750050D02*
X103558Y750050D01*
X103559Y750050D01*
X107044Y750808D01*
X107045Y750808D01*
X110387Y752055D01*
X110388Y752055D01*
X113518Y753764D01*
X113519Y753765D01*
X116375Y755902D01*
X116375Y755903D01*
X118897Y758425D01*
X118898Y758425D01*
X121035Y761281D01*
X121035Y761282D01*
X121036Y761282D01*
X122745Y764412D01*
X122745Y764413D01*
X123992Y767755D01*
X123992Y767756D01*
X124750Y771241D01*
X124750Y771242D01*
X124751Y771242D01*
X124753Y771274D01*
X124754Y771289D01*
X124756Y771314D01*
X124757Y771329D01*
X124760Y771369D01*
X124762Y771408D01*
X124765Y771448D01*
X124768Y771488D01*
X124771Y771528D01*
X124772Y771543D01*
X124775Y771582D01*
X124778Y771622D01*
X124781Y771662D01*
X124783Y771702D01*
X124786Y771741D01*
X124787Y771756D01*
X124790Y771796D01*
X124793Y771836D01*
X124796Y771875D01*
X124796Y771876D01*
X124799Y771915D01*
X124802Y771955D01*
X124803Y771970D01*
X124805Y772010D01*
X124808Y772049D01*
X124811Y772089D01*
X124814Y772129D01*
X124817Y772169D01*
X124818Y772184D01*
X124821Y772223D01*
X124824Y772263D01*
X124826Y772303D01*
X124829Y772343D01*
X124832Y772382D01*
X124833Y772397D01*
X124836Y772437D01*
X124839Y772477D01*
X124842Y772516D01*
X124842Y772517D01*
X124845Y772556D01*
X124847Y772596D01*
X124848Y772611D01*
X124851Y772651D01*
X124854Y772690D01*
X124857Y772730D01*
X124860Y772770D01*
X124863Y772810D01*
X124864Y772825D01*
X124867Y772864D01*
X124869Y772904D01*
X124872Y772944D01*
X124875Y772984D01*
X124878Y773023D01*
X124879Y773038D01*
X124882Y773078D01*
X124885Y773118D01*
X124888Y773157D01*
X124890Y773197D01*
X124893Y773237D01*
X124894Y773252D01*
X124897Y773292D01*
X124900Y773331D01*
X124903Y773371D01*
X124906Y773411D01*
X124908Y773451D01*
X124909Y773451D01*
X124908Y773451D01*
X124910Y773466D01*
X124912Y773505D01*
X124915Y773545D01*
X124918Y773585D01*
X124921Y773624D01*
X124921Y773625D01*
X124924Y773664D01*
X124925Y773679D01*
X124928Y773719D01*
X124931Y773759D01*
X124933Y773798D01*
X124936Y773838D01*
X124939Y773878D01*
X124940Y773893D01*
X124943Y773933D01*
X124946Y773972D01*
X124949Y774012D01*
X124951Y774052D01*
X124952Y774052D01*
X124951Y774052D01*
X124954Y774092D01*
X124955Y774106D01*
X124955Y774107D01*
X124958Y774146D01*
X124961Y774186D01*
X124964Y774226D01*
X124967Y774265D01*
X124967Y774266D01*
X124970Y774305D01*
X124971Y774320D01*
X124974Y774360D01*
X124976Y774400D01*
X124979Y774439D01*
X124982Y774479D01*
X124985Y774519D01*
X124986Y774534D01*
X124989Y774574D01*
X124992Y774613D01*
X124994Y774653D01*
X124995Y774653D01*
X124994Y774653D01*
X124997Y774693D01*
X125000Y774733D01*
X125001Y774747D01*
X125004Y774787D01*
X125005Y774800D01*
X125005Y850200D01*
X124751Y853758D01*
X124750Y853759D01*
X123992Y857244D01*
X123992Y857245D01*
X122745Y860587D01*
X122745Y860588D01*
X121036Y863718D01*
X121035Y863719D01*
X118898Y866575D01*
X118897Y866575D01*
X116375Y869097D01*
X116375Y869098D01*
X113519Y871235D01*
X113518Y871236D01*
X110388Y872945D01*
X110387Y872945D01*
X107045Y874192D01*
X107044Y874192D01*
X103559Y874950D01*
X103558Y874950D01*
X103558Y874951D01*
X103525Y874953D01*
X103456Y874958D01*
X103386Y874963D01*
X103317Y874968D01*
X103247Y874973D01*
X103178Y874978D01*
X103108Y874983D01*
X103039Y874988D01*
X102969Y874993D01*
X102900Y874998D01*
X102830Y875003D01*
X102761Y875008D01*
X102691Y875013D01*
X102622Y875017D01*
X102553Y875022D01*
X102552Y875022D01*
X102483Y875027D01*
X102414Y875032D01*
X102413Y875032D01*
X102344Y875037D01*
X102275Y875042D01*
X102205Y875047D01*
X102136Y875052D01*
X102066Y875057D01*
X101997Y875062D01*
X101927Y875067D01*
X101858Y875072D01*
X101788Y875077D01*
X101719Y875082D01*
X101649Y875087D01*
X101580Y875092D01*
X101510Y875097D01*
X101441Y875102D01*
X101372Y875107D01*
X101371Y875107D01*
X101302Y875112D01*
X101233Y875117D01*
X101232Y875117D01*
X101163Y875122D01*
X101094Y875127D01*
X101024Y875132D01*
X100955Y875137D01*
X100885Y875142D01*
X100816Y875147D01*
X100746Y875152D01*
X100677Y875157D01*
X100607Y875162D01*
X100538Y875167D01*
X100468Y875172D01*
X100399Y875176D01*
X100329Y875181D01*
X100260Y875186D01*
X100190Y875191D01*
X100121Y875196D01*
X100052Y875201D01*
X100051Y875201D01*
X100000Y875205D01*
X99949Y875201D01*
X99948Y875201D01*
X99879Y875196D01*
X99810Y875191D01*
X99740Y875186D01*
X99671Y875181D01*
X99601Y875176D01*
X99532Y875172D01*
X99462Y875167D01*
X99393Y875162D01*
X99323Y875157D01*
X99254Y875152D01*
X99184Y875147D01*
X99115Y875142D01*
X99045Y875137D01*
X98976Y875132D01*
X98906Y875127D01*
X98837Y875122D01*
X98768Y875117D01*
X98767Y875117D01*
X98698Y875112D01*
X98629Y875107D01*
X98628Y875107D01*
X98559Y875102D01*
X98490Y875097D01*
X98420Y875092D01*
X98351Y875087D01*
X98281Y875082D01*
X98212Y875077D01*
X98142Y875072D01*
X98073Y875067D01*
X98003Y875062D01*
X97934Y875057D01*
X97864Y875052D01*
X97795Y875047D01*
X97725Y875042D01*
X97656Y875037D01*
X97587Y875032D01*
X97586Y875032D01*
X97517Y875027D01*
X97448Y875022D01*
X97447Y875022D01*
X97378Y875017D01*
X97309Y875013D01*
X97239Y875008D01*
X97170Y875003D01*
X97100Y874998D01*
X97031Y874993D01*
X96961Y874988D01*
X96892Y874983D01*
X96822Y874978D01*
X96753Y874973D01*
X96683Y874968D01*
X96614Y874963D01*
X96544Y874958D01*
X96475Y874953D01*
X96442Y874951D01*
X96441Y874950D01*
X92956Y874192D01*
X92955Y874192D01*
X89613Y872945D01*
X89612Y872945D01*
X86482Y871236D01*
X86481Y871235D01*
X83625Y869098D01*
X83625Y869097D01*
X81103Y866575D01*
X81102Y866575D01*
X78965Y863719D01*
X78964Y863718D01*
X77255Y860588D01*
X77255Y860587D01*
X76008Y857245D01*
X76008Y857244D01*
X75250Y853759D01*
X75250Y853758D01*
X75248Y853742D01*
X75246Y853702D01*
X75245Y853702D01*
X75246Y853702D01*
X75244Y853687D01*
X75243Y853662D01*
X75242Y853647D01*
X75239Y853608D01*
X75236Y853568D01*
X75233Y853528D01*
X75230Y853489D01*
X75230Y853488D01*
X75227Y853449D01*
X75226Y853434D01*
X75223Y853394D01*
X75221Y853354D01*
X75218Y853315D01*
X75215Y853275D01*
X75212Y853235D01*
X75211Y853220D01*
X75208Y853180D01*
X75205Y853141D01*
X75203Y853101D01*
X75202Y853101D01*
X75203Y853101D01*
X75200Y853061D01*
X75197Y853021D01*
X75196Y853007D01*
X75196Y853006D01*
X75193Y852967D01*
X75190Y852927D01*
X75187Y852887D01*
X75184Y852848D01*
X75184Y852847D01*
X75182Y852808D01*
X75180Y852793D01*
X75178Y852753D01*
X75175Y852713D01*
X75172Y852674D01*
X75169Y852634D01*
X75166Y852594D01*
X75165Y852579D01*
X75162Y852539D01*
X75160Y852500D01*
X75159Y852500D01*
X75160Y852500D01*
X75157Y852460D01*
X75154Y852420D01*
X75151Y852380D01*
X75150Y852366D01*
X75147Y852326D01*
X75144Y852286D01*
X75141Y852246D01*
X75139Y852207D01*
X75136Y852167D01*
X75135Y852152D01*
X75132Y852112D01*
X75129Y852072D01*
X75126Y852033D01*
X75123Y851993D01*
X75120Y851953D01*
X75119Y851938D01*
X75117Y851899D01*
X75116Y851898D01*
X75117Y851898D01*
X75114Y851859D01*
X75111Y851819D01*
X75108Y851779D01*
X75105Y851740D01*
X75105Y851739D01*
X75104Y851725D01*
X75101Y851685D01*
X75098Y851645D01*
X75096Y851605D01*
X75093Y851566D01*
X75090Y851526D01*
X75089Y851511D01*
X75086Y851471D01*
X75083Y851431D01*
X75080Y851392D01*
X75077Y851352D01*
X75075Y851312D01*
X75074Y851297D01*
X75073Y851297D01*
X75071Y851258D01*
X75071Y851257D01*
X75068Y851218D01*
X75065Y851178D01*
X75062Y851138D01*
X75059Y851099D01*
X75059Y851098D01*
X75058Y851084D01*
X75055Y851044D01*
X75053Y851004D01*
X75050Y850964D01*
X75047Y850925D01*
X75044Y850885D01*
X75043Y850870D01*
X75040Y850830D01*
X75037Y850790D01*
X75034Y850751D01*
X75032Y850711D01*
X75029Y850671D01*
X75028Y850656D01*
X75025Y850617D01*
X75022Y850577D01*
X75019Y850537D01*
X75016Y850497D01*
X75013Y850458D01*
X75012Y850443D01*
X75010Y850403D01*
X75007Y850363D01*
X75004Y850323D01*
X75001Y850284D01*
X74998Y850244D01*
X74997Y850229D01*
X74995Y850200D01*
X74995Y774800D01*
X75250Y771242D01*
X75250Y771241D01*
X76008Y767756D01*
X76008Y767755D01*
X77255Y764413D01*
X77255Y764412D01*
X78964Y761282D01*
X78965Y761281D01*
X81102Y758425D01*
X81103Y758425D01*
X83625Y755903D01*
X83625Y755902D01*
X86481Y753765D01*
X86482Y753765D01*
X86482Y753764D01*
X89612Y752055D01*
X89613Y752055D01*
X92955Y750808D01*
X92956Y750808D01*
X96441Y750050D01*
X96442Y750050D01*
X100000Y749795D01*
X103558Y750050D01*
G37*
G36*
X43558Y750050D02*
X43558Y750050D01*
X43559Y750050D01*
X47044Y750808D01*
X47045Y750808D01*
X50387Y752055D01*
X50388Y752055D01*
X53518Y753764D01*
X53519Y753765D01*
X56375Y755902D01*
X56375Y755903D01*
X58897Y758425D01*
X58898Y758425D01*
X61035Y761281D01*
X61035Y761282D01*
X61036Y761282D01*
X62745Y764412D01*
X62745Y764413D01*
X63992Y767755D01*
X63992Y767756D01*
X64750Y771241D01*
X64750Y771242D01*
X64751Y771242D01*
X64753Y771274D01*
X64754Y771289D01*
X64756Y771314D01*
X64757Y771329D01*
X64760Y771369D01*
X64762Y771408D01*
X64765Y771448D01*
X64768Y771488D01*
X64771Y771528D01*
X64772Y771543D01*
X64775Y771582D01*
X64778Y771622D01*
X64781Y771662D01*
X64783Y771702D01*
X64786Y771741D01*
X64787Y771756D01*
X64790Y771796D01*
X64793Y771836D01*
X64796Y771875D01*
X64796Y771876D01*
X64799Y771915D01*
X64802Y771955D01*
X64803Y771970D01*
X64805Y772010D01*
X64808Y772049D01*
X64811Y772089D01*
X64814Y772129D01*
X64817Y772169D01*
X64818Y772184D01*
X64821Y772223D01*
X64824Y772263D01*
X64826Y772303D01*
X64829Y772343D01*
X64832Y772382D01*
X64833Y772397D01*
X64836Y772437D01*
X64839Y772477D01*
X64842Y772516D01*
X64842Y772517D01*
X64845Y772556D01*
X64847Y772596D01*
X64848Y772611D01*
X64851Y772651D01*
X64854Y772690D01*
X64857Y772730D01*
X64860Y772770D01*
X64863Y772810D01*
X64864Y772825D01*
X64867Y772864D01*
X64869Y772904D01*
X64872Y772944D01*
X64875Y772984D01*
X64878Y773023D01*
X64879Y773038D01*
X64882Y773078D01*
X64885Y773118D01*
X64888Y773157D01*
X64890Y773197D01*
X64893Y773237D01*
X64894Y773252D01*
X64897Y773292D01*
X64900Y773331D01*
X64903Y773371D01*
X64906Y773411D01*
X64908Y773451D01*
X64909Y773451D01*
X64908Y773451D01*
X64910Y773466D01*
X64912Y773505D01*
X64915Y773545D01*
X64918Y773585D01*
X64921Y773624D01*
X64921Y773625D01*
X64924Y773664D01*
X64925Y773679D01*
X64928Y773719D01*
X64931Y773759D01*
X64933Y773798D01*
X64936Y773838D01*
X64939Y773878D01*
X64940Y773893D01*
X64943Y773933D01*
X64946Y773972D01*
X64949Y774012D01*
X64951Y774052D01*
X64952Y774052D01*
X64951Y774052D01*
X64954Y774092D01*
X64955Y774106D01*
X64955Y774107D01*
X64958Y774146D01*
X64961Y774186D01*
X64964Y774226D01*
X64967Y774265D01*
X64967Y774266D01*
X64970Y774305D01*
X64971Y774320D01*
X64974Y774360D01*
X64976Y774400D01*
X64979Y774439D01*
X64982Y774479D01*
X64985Y774519D01*
X64986Y774534D01*
X64989Y774574D01*
X64992Y774613D01*
X64994Y774653D01*
X64995Y774653D01*
X64994Y774653D01*
X64997Y774693D01*
X65000Y774733D01*
X65001Y774747D01*
X65004Y774787D01*
X65005Y774800D01*
X65005Y850200D01*
X64751Y853758D01*
X64750Y853759D01*
X63992Y857244D01*
X63992Y857245D01*
X62745Y860587D01*
X62745Y860588D01*
X61036Y863718D01*
X61035Y863719D01*
X58898Y866575D01*
X58897Y866575D01*
X56375Y869097D01*
X56375Y869098D01*
X53519Y871235D01*
X53518Y871236D01*
X50388Y872945D01*
X50387Y872945D01*
X47045Y874192D01*
X47044Y874192D01*
X43559Y874950D01*
X43558Y874950D01*
X43558Y874951D01*
X43525Y874953D01*
X43456Y874958D01*
X43386Y874963D01*
X43317Y874968D01*
X43247Y874973D01*
X43178Y874978D01*
X43108Y874983D01*
X43039Y874988D01*
X42969Y874993D01*
X42900Y874998D01*
X42830Y875003D01*
X42761Y875008D01*
X42691Y875013D01*
X42622Y875017D01*
X42553Y875022D01*
X42552Y875022D01*
X42483Y875027D01*
X42414Y875032D01*
X42413Y875032D01*
X42344Y875037D01*
X42275Y875042D01*
X42205Y875047D01*
X42136Y875052D01*
X42066Y875057D01*
X41997Y875062D01*
X41927Y875067D01*
X41858Y875072D01*
X41788Y875077D01*
X41719Y875082D01*
X41649Y875087D01*
X41580Y875092D01*
X41510Y875097D01*
X41441Y875102D01*
X41372Y875107D01*
X41371Y875107D01*
X41302Y875112D01*
X41233Y875117D01*
X41232Y875117D01*
X41163Y875122D01*
X41094Y875127D01*
X41024Y875132D01*
X40955Y875137D01*
X40885Y875142D01*
X40816Y875147D01*
X40746Y875152D01*
X40677Y875157D01*
X40607Y875162D01*
X40538Y875167D01*
X40468Y875172D01*
X40399Y875176D01*
X40329Y875181D01*
X40260Y875186D01*
X40190Y875191D01*
X40121Y875196D01*
X40052Y875201D01*
X40051Y875201D01*
X40000Y875205D01*
X39949Y875201D01*
X39948Y875201D01*
X39879Y875196D01*
X39810Y875191D01*
X39740Y875186D01*
X39671Y875181D01*
X39601Y875176D01*
X39532Y875172D01*
X39462Y875167D01*
X39393Y875162D01*
X39323Y875157D01*
X39254Y875152D01*
X39184Y875147D01*
X39115Y875142D01*
X39045Y875137D01*
X38976Y875132D01*
X38906Y875127D01*
X38837Y875122D01*
X38768Y875117D01*
X38767Y875117D01*
X38698Y875112D01*
X38629Y875107D01*
X38628Y875107D01*
X38559Y875102D01*
X38490Y875097D01*
X38420Y875092D01*
X38351Y875087D01*
X38281Y875082D01*
X38212Y875077D01*
X38142Y875072D01*
X38073Y875067D01*
X38003Y875062D01*
X37934Y875057D01*
X37864Y875052D01*
X37795Y875047D01*
X37725Y875042D01*
X37656Y875037D01*
X37587Y875032D01*
X37586Y875032D01*
X37517Y875027D01*
X37448Y875022D01*
X37447Y875022D01*
X37378Y875017D01*
X37309Y875013D01*
X37239Y875008D01*
X37170Y875003D01*
X37100Y874998D01*
X37031Y874993D01*
X36961Y874988D01*
X36892Y874983D01*
X36822Y874978D01*
X36753Y874973D01*
X36683Y874968D01*
X36614Y874963D01*
X36544Y874958D01*
X36475Y874953D01*
X36442Y874951D01*
X36441Y874950D01*
X32956Y874192D01*
X32955Y874192D01*
X29613Y872945D01*
X29612Y872945D01*
X26482Y871236D01*
X26481Y871235D01*
X23625Y869098D01*
X23625Y869097D01*
X21103Y866575D01*
X21102Y866575D01*
X18965Y863719D01*
X18964Y863718D01*
X17255Y860588D01*
X17255Y860587D01*
X16008Y857245D01*
X16008Y857244D01*
X15250Y853759D01*
X15250Y853758D01*
X15248Y853742D01*
X15246Y853702D01*
X15245Y853702D01*
X15246Y853702D01*
X15244Y853687D01*
X15243Y853662D01*
X15242Y853647D01*
X15239Y853608D01*
X15236Y853568D01*
X15233Y853528D01*
X15230Y853489D01*
X15230Y853488D01*
X15227Y853449D01*
X15226Y853434D01*
X15223Y853394D01*
X15221Y853354D01*
X15218Y853315D01*
X15215Y853275D01*
X15212Y853235D01*
X15211Y853220D01*
X15208Y853180D01*
X15205Y853141D01*
X15203Y853101D01*
X15202Y853101D01*
X15203Y853101D01*
X15200Y853061D01*
X15197Y853021D01*
X15196Y853007D01*
X15196Y853006D01*
X15193Y852967D01*
X15190Y852927D01*
X15187Y852887D01*
X15184Y852848D01*
X15184Y852847D01*
X15182Y852808D01*
X15180Y852793D01*
X15178Y852753D01*
X15175Y852713D01*
X15172Y852674D01*
X15169Y852634D01*
X15166Y852594D01*
X15165Y852579D01*
X15162Y852539D01*
X15160Y852500D01*
X15159Y852500D01*
X15160Y852500D01*
X15157Y852460D01*
X15154Y852420D01*
X15151Y852380D01*
X15150Y852366D01*
X15147Y852326D01*
X15144Y852286D01*
X15141Y852246D01*
X15139Y852207D01*
X15136Y852167D01*
X15135Y852152D01*
X15132Y852112D01*
X15129Y852072D01*
X15126Y852033D01*
X15123Y851993D01*
X15120Y851953D01*
X15119Y851938D01*
X15117Y851899D01*
X15116Y851898D01*
X15117Y851898D01*
X15114Y851859D01*
X15111Y851819D01*
X15108Y851779D01*
X15105Y851740D01*
X15105Y851739D01*
X15104Y851725D01*
X15101Y851685D01*
X15098Y851645D01*
X15096Y851605D01*
X15093Y851566D01*
X15090Y851526D01*
X15089Y851511D01*
X15086Y851471D01*
X15083Y851431D01*
X15080Y851392D01*
X15077Y851352D01*
X15075Y851312D01*
X15074Y851297D01*
X15073Y851297D01*
X15071Y851258D01*
X15071Y851257D01*
X15068Y851218D01*
X15065Y851178D01*
X15062Y851138D01*
X15059Y851099D01*
X15059Y851098D01*
X15058Y851084D01*
X15055Y851044D01*
X15053Y851004D01*
X15050Y850964D01*
X15047Y850925D01*
X15044Y850885D01*
X15043Y850870D01*
X15040Y850830D01*
X15037Y850790D01*
X15034Y850751D01*
X15032Y850711D01*
X15029Y850671D01*
X15028Y850656D01*
X15025Y850617D01*
X15022Y850577D01*
X15019Y850537D01*
X15016Y850497D01*
X15013Y850458D01*
X15012Y850443D01*
X15010Y850403D01*
X15007Y850363D01*
X15004Y850323D01*
X15001Y850284D01*
X14998Y850244D01*
X14997Y850229D01*
X14995Y850200D01*
X14995Y774800D01*
X15250Y771242D01*
X15250Y771241D01*
X16008Y767756D01*
X16008Y767755D01*
X17255Y764413D01*
X17255Y764412D01*
X18964Y761282D01*
X18965Y761281D01*
X21102Y758425D01*
X21103Y758425D01*
X23625Y755903D01*
X23625Y755902D01*
X26481Y753765D01*
X26482Y753765D01*
X26482Y753764D01*
X29612Y752055D01*
X29613Y752055D01*
X32955Y750808D01*
X32956Y750808D01*
X36441Y750050D01*
X36442Y750050D01*
X40000Y749795D01*
X43558Y750050D01*
G37*
M02*
