G04 EAGLE Gerber RS-274X export*
G75*
%MOMM*%
%FSLAX34Y34*%
%LPD*%
%INSoldermask Bottom*%
%IPPOS*%
%AMOC8*
5,1,8,0,0,1.08239X$1,22.5*%
G01*
%ADD10C,1.603200*%
%ADD11C,1.983200*%
%ADD12C,6.045200*%
%ADD13C,1.403200*%
%ADD14C,1.993900*%
%ADD15C,0.959600*%


D10*
X49300Y501000D03*
X74700Y501000D03*
D11*
X484900Y236100D03*
X459500Y236100D03*
X434100Y236100D03*
X408700Y236100D03*
X383300Y236100D03*
X357900Y236100D03*
X332500Y236100D03*
X307100Y236100D03*
X281700Y236100D03*
X256300Y236100D03*
X230900Y236100D03*
X205500Y236100D03*
X484900Y464700D03*
X459500Y464700D03*
X434100Y464700D03*
X408700Y464700D03*
X383300Y464700D03*
X357900Y464700D03*
X332500Y464700D03*
X307100Y464700D03*
X281700Y464700D03*
X256300Y464700D03*
X230900Y464700D03*
X205500Y464700D03*
D12*
X50000Y50000D03*
X50000Y650000D03*
X750000Y50000D03*
X750000Y650000D03*
D13*
X191930Y676540D03*
X191930Y606540D03*
X330000Y674000D03*
X330000Y604000D03*
X470000Y674000D03*
X470000Y604000D03*
X610000Y674000D03*
X610000Y604000D03*
X190000Y26000D03*
X190000Y96000D03*
X300000Y26000D03*
X300000Y96000D03*
X410000Y26000D03*
X410000Y96000D03*
X520000Y26000D03*
X520000Y96000D03*
D14*
X655400Y65304D02*
X655400Y47397D01*
X604600Y47397D02*
X604600Y65304D01*
D15*
X28000Y650000D03*
X34472Y665405D03*
X49941Y671722D03*
X65346Y665251D03*
X71663Y649781D03*
X65191Y634376D03*
X49722Y628059D03*
X34317Y634531D03*
X728000Y50000D03*
X734472Y65405D03*
X749941Y71722D03*
X765346Y65251D03*
X771663Y49781D03*
X765191Y34376D03*
X749722Y28059D03*
X734317Y34531D03*
X28000Y50000D03*
X34472Y65405D03*
X49941Y71722D03*
X65346Y65251D03*
X71663Y49781D03*
X65191Y34376D03*
X49722Y28059D03*
X34317Y34531D03*
X728000Y650000D03*
X734472Y665405D03*
X749941Y671722D03*
X765346Y665251D03*
X771663Y649781D03*
X765191Y634376D03*
X749722Y628059D03*
X734317Y634531D03*
X240000Y180000D03*
X355000Y180000D03*
X395000Y190000D03*
X224430Y612000D03*
X362500Y610000D03*
X502500Y609000D03*
X642500Y642000D03*
X157500Y91000D03*
X267500Y91000D03*
X377500Y92000D03*
X487500Y90000D03*
M02*
