M48
;GenerationSoftware,Autodesk,EAGLE,9.5.1*%
;CreationDate,2021-12-12T21:42:52Z*%
FMAT,2
ICI,OFF
METRIC,TZ,000.000
T6C0.350
T5C0.800
T4C1.000
T3C1.194
T2C1.200
T1C3.000
%
G90
M71
T1
X75000Y65000
X75000Y5000
X5000Y65000
X5000Y5000
T2
X19193Y67654
X19193Y60654
X52000Y9600
X52000Y2600
X41000Y2600
X41000Y9600
X30000Y9600
X33000Y67400
X30000Y2600
X19000Y9600
X19000Y2600
X61000Y60400
X61000Y67400
X47000Y60400
X47000Y67400
X33000Y60400
T3
X65540Y5635
X60460Y5635
T4
X48490Y23610
X45950Y23610
X43410Y23610
X40870Y23610
X38330Y23610
X35790Y23610
X33250Y23610
X28170Y23610
X25630Y23610
X23090Y23610
X20550Y23610
X48490Y46470
X45950Y46470
X43410Y46470
X40870Y46470
X38330Y46470
X35790Y46470
X30710Y46470
X28170Y46470
X25630Y46470
X23090Y46470
X20550Y46470
X33250Y46470
X30710Y23610
T5
X4930Y50100
X7470Y50100
T6
X4994Y67172
X6535Y66525
X7166Y64978
X6519Y63438
X4972Y62806
X3432Y63453
X72800Y5000
X73447Y6541
X74994Y7172
X77166Y4978
X76519Y3438
X74972Y2806
X73432Y3453
X2800Y5000
X3447Y6541
X4994Y7172
X6535Y6525
X7166Y4978
X6519Y3438
X4972Y2806
X3432Y3453
X22443Y61200
X35500Y18000
X24000Y18000
X39500Y19000
X73432Y63453
X74972Y62806
X2800Y65000
X3447Y66541
X48750Y9000
X37750Y9200
X76535Y6525
X26750Y9100
X15750Y9100
X64250Y64200
X50250Y60900
X36250Y61000
X77166Y64978
X76535Y66525
X74994Y67172
X73447Y66541
X72800Y65000
X76519Y63438
M30