G04 EAGLE Gerber RS-274X export*
G75*
%MOMM*%
%FSLAX34Y34*%
%LPD*%
%INSolderpaste Bottom*%
%IPPOS*%
%AMOC8*
5,1,8,0,0,1.08239X$1,22.5*%
G01*
%ADD10R,2.235200X1.219200*%
%ADD11R,2.200000X3.600000*%
%ADD12R,1.600000X1.803000*%
%ADD13R,1.803000X1.600000*%
%ADD14R,1.000000X1.400000*%
%ADD15R,2.100000X1.500000*%
%ADD16R,1.200000X2.500000*%
%ADD17R,0.800000X1.000000*%
%ADD18R,1.500000X0.700000*%


D10*
X331512Y501886D03*
X331512Y525000D03*
X331512Y548114D03*
D11*
X393490Y525000D03*
D12*
X298280Y582500D03*
X326720Y582500D03*
X368280Y582500D03*
X396720Y582500D03*
D13*
X295000Y448280D03*
X295000Y476720D03*
X165000Y394220D03*
X165000Y365780D03*
D12*
X185780Y645000D03*
X214220Y645000D03*
X245780Y646184D03*
X274220Y646184D03*
X287220Y800500D03*
X258780Y800500D03*
D14*
X198684Y757184D03*
X189184Y735184D03*
X208184Y735184D03*
D12*
X185780Y697500D03*
X214220Y697500D03*
X214220Y673684D03*
X185780Y673684D03*
D14*
X255000Y756000D03*
X245500Y734000D03*
X264500Y734000D03*
D12*
X245780Y697500D03*
X274220Y697500D03*
X274220Y670132D03*
X245780Y670132D03*
D14*
X322500Y756000D03*
X313000Y734000D03*
X332000Y734000D03*
D12*
X310280Y697500D03*
X338720Y697500D03*
X338720Y673500D03*
X310280Y673500D03*
D15*
X290000Y732000D03*
X290000Y768000D03*
X357500Y730949D03*
X357500Y766949D03*
D16*
X423000Y296449D03*
X412000Y231449D03*
X463000Y296449D03*
X493000Y296449D03*
X423000Y200000D03*
X412000Y135000D03*
X463000Y200000D03*
X493000Y200000D03*
D17*
X406000Y710500D03*
X428000Y710500D03*
X428000Y627500D03*
X406000Y627500D03*
D18*
X394500Y691500D03*
X394500Y661500D03*
X394500Y646500D03*
M02*
