G04 EAGLE Gerber RS-274X export*
G75*
%MOMM*%
%FSLAX34Y34*%
%LPD*%
%INSolderpaste Top*%
%IPPOS*%
%AMOC8*
5,1,8,0,0,1.08239X$1,22.5*%
G01*
%ADD10R,1.000000X1.500000*%
%ADD11R,1.500000X1.000000*%
%ADD12R,4.500000X4.500000*%
%ADD13R,2.235200X1.219200*%
%ADD14R,2.200000X3.600000*%
%ADD15R,1.600000X1.803000*%
%ADD16R,1.803000X1.600000*%
%ADD17R,1.168400X1.600200*%
%ADD18R,1.000000X1.000000*%


D10*
X329400Y797500D03*
X316700Y797500D03*
X304000Y797500D03*
X291300Y797500D03*
X278600Y797500D03*
X265900Y797500D03*
X253200Y797500D03*
X240500Y797500D03*
D11*
X185000Y647700D03*
D10*
X202400Y612500D03*
X215100Y612500D03*
X227800Y612500D03*
X240500Y612500D03*
X253200Y612500D03*
X265900Y612500D03*
X278600Y612500D03*
D11*
X185000Y736600D03*
D10*
X227800Y797500D03*
X215100Y797500D03*
X202400Y797500D03*
D11*
X185000Y762000D03*
X185000Y749300D03*
D10*
X342100Y797500D03*
X354800Y797500D03*
X367500Y797500D03*
D11*
X185000Y723900D03*
X185000Y711200D03*
X185000Y698500D03*
X185000Y660400D03*
X185000Y673100D03*
X185000Y685800D03*
D10*
X291300Y612500D03*
X304000Y612500D03*
X316700Y612500D03*
X329400Y612500D03*
X342100Y612500D03*
X354800Y612500D03*
X367500Y612500D03*
D12*
X294200Y698200D03*
D13*
X331512Y548114D03*
X331512Y525000D03*
X331512Y501886D03*
D14*
X393490Y525000D03*
D15*
X298280Y582500D03*
X326720Y582500D03*
X368280Y582500D03*
X396720Y582500D03*
D16*
X165000Y394220D03*
X165000Y365780D03*
D17*
X89760Y615000D03*
X105000Y615000D03*
X120240Y615000D03*
X19760Y615000D03*
X35000Y615000D03*
X50240Y615000D03*
D18*
X302500Y227500D03*
X242500Y227500D03*
X20000Y812500D03*
X120000Y812500D03*
D16*
X221000Y252220D03*
X221000Y223780D03*
M02*
