M48
;GenerationSoftware,Autodesk,EAGLE,9.5.1*%
;CreationDate,2020-12-13T23:01:38Z*%
FMAT,2
ICI,OFF
METRIC,TZ,000.000
T6C0.350
T5C0.900
T4C1.016
T3C1.194
T2C1.200
T1C3.000
%
G90
M71
T1
X81000Y73600
X5000Y73600
X81000Y5300
X5000Y5000
T2
X20600Y45000
X13600Y26000
X20600Y26000
X25600Y35000
X32600Y35000
X13600Y45000
X25600Y54000
X32600Y54000
T3
X78032Y43422
X78032Y60527
X78032Y55527
X7635Y63946
X2635Y63946
X78032Y24477
X78032Y19477
X78032Y36449
X78032Y31449
X78032Y48422
T4
X55620Y9770
X59160Y4690
X3600Y19210
X59160Y7230
X59160Y9770
X58310Y77000
X55770Y77000
X53230Y77000
X50690Y77000
X3600Y11590
X3600Y14130
X3600Y16670
X48540Y4690
X48540Y7230
X48540Y9770
X52080Y4690
X52080Y7230
X52080Y9770
X55620Y4690
X55620Y7230
T5
X68300Y75900
X71300Y75900
X26120Y74610
X14120Y62610
X20120Y60610
X14120Y74610
X26120Y62610
X43120Y74610
X36880Y18390
X42880Y16390
X30880Y4390
X13880Y16390
X25880Y4390
X19880Y18390
X25880Y16390
X13880Y4390
X43120Y62610
X31120Y74610
X37120Y60610
X31120Y62610
X30880Y16390
X42880Y4390
T6
X59300Y40200
X41300Y60300
X41200Y47800
X48800Y47300
X61900Y40300
X49800Y41200
X54200Y28300
X64400Y28300
X56800Y28300
X59300Y28300
X50300Y29700
X61800Y28200
X35000Y18400
X36200Y25200
X64400Y15600
X54200Y15600
X56700Y15600
X59400Y15600
X32200Y65200
X32900Y73400
X19200Y12000
X21500Y16900
X24000Y13400
X24100Y5800
X41000Y13200
X40900Y6700
X24700Y47800
X27100Y46600
X22594Y45400
X33610Y52190
X36000Y53900
X59500Y64700
X69100Y60200
X25600Y44400
X37300Y47800
X16400Y45700
X46500Y22600
X39900Y22800
X37400Y42200
X39700Y42400
X39800Y52400
X47900Y40700
X48200Y38000
X77700Y12000
X77300Y9000
X48900Y34600
X73300Y64000
X73200Y30800
X38500Y33200
X38300Y55500
X25700Y57400
X27500Y72300
X28700Y36400
X37300Y29400
X67900Y55900
X37400Y24100
X38200Y69600
X44600Y71500
X45900Y27100
X46200Y42300
X36000Y26700
X36000Y29500
X34700Y34100
X35000Y22100
X50300Y21800
X50400Y12600
X55500Y12600
X72900Y32900
X72000Y14200
X45000Y13600
X33500Y29600
X33500Y19600
X17900Y19700
X18000Y7100
X45000Y19800
X33500Y6500
X32100Y33006
X70800Y19200
X69800Y12500
X76400Y12400
X27800Y2300
X28500Y33300
X11100Y24300
X27100Y23700
X27200Y33300
X53700Y11400
X44400Y11700
X24600Y29400
X25500Y6100
X31000Y6100
X71000Y61500
X71000Y49600
X71000Y37400
X71100Y25700
X43700Y60200
X55387Y64212
X54400Y72200
X45200Y58500
X45200Y44400
X42300Y29900
X60500Y26800
X60500Y63200
X47700Y29900
X48063Y26800
X42300Y31800
X44100Y14900
X30200Y10100
X21800Y7300
X29800Y60300
X42300Y58700
X42300Y50500
X47500Y49500
X47400Y71000
X63700Y71900
X51127Y75514
X21100Y13800
X26800Y8300
X39700Y13500
X51800Y22300
X55400Y19700
X47400Y36800
X69800Y31700
X70900Y43300
X71000Y54700
X75000Y64800
X48900Y63300
X39700Y67500
X36000Y67100
X26700Y68900
X22000Y69100
X48600Y58400
X75400Y18700
X69100Y72800
X63900Y75500
X65700Y64200
X66600Y25800
X30500Y21000
X19500Y54422
X30200Y55000
X18200Y21100
X9400Y54400
X9500Y21100
X72600Y68500
X34600Y70200
X21100Y67100
X13200Y66300
X52100Y23800
X53300Y69700
X26500Y67200
X43600Y69600
X55500Y25422
X38800Y12600
X38800Y8900
X21300Y12400
X21350Y8950
X43000Y25100
X53100Y36422
X66100Y67100
X44200Y68300
X45000Y61800
X23400Y61900
X25800Y52006
X68000Y71900
X58000Y48000
X42300Y48500
X53100Y52200
X56700Y52200
X59300Y52200
X64300Y52300
X61800Y52200
X50000Y53200
X61800Y14600
X51600Y14600
X51600Y19600
X64400Y40300
X54300Y40300
X56800Y40300
M30