M48
;GenerationSoftware,Autodesk,EAGLE,9.5.1*%
;CreationDate,2020-11-01T15:37:49Z*%
FMAT,2
ICI,OFF
METRIC,TZ,000.000
T6C0.350
T5C0.900
T4C1.000
T3C1.016
T2C1.200
T1C3.000
%
G90
M71
T1
X95000Y5300
X5000Y5000
X5000Y74600
X95000Y74900
T2
X50000Y78400
X60000Y78400
X70000Y78400
X70000Y71400
X60000Y71400
X50000Y71400
X40000Y78400
X40000Y71400
T3
X97100Y56010
X97100Y50930
X97100Y48390
X97100Y53470
T4
X81270Y6000
X30000Y73230
X23000Y65300
X8000Y45300
X28000Y45300
X28000Y65300
X13000Y65300
X8000Y65300
X18000Y65300
X13000Y45300
X18000Y45300
X23000Y45300
X30000Y75770
X41270Y6000
X18730Y6000
X21270Y6000
X38730Y6000
X58730Y6000
X61270Y6000
X78730Y6000
T5
X96900Y66700
X96900Y63700
X73610Y17880
X87610Y23880
X33610Y11880
X66610Y11880
X54610Y23880
X31610Y17880
X52610Y17880
X66610Y23880
X54610Y11880
X87610Y11880
X33610Y23880
X45610Y11880
X45610Y23880
X12610Y11880
X24610Y23880
X10610Y17880
X24610Y11880
X12610Y23880
X75610Y23880
X75610Y11880
T6
X47300Y29100
X63800Y32800
X52400Y32800
X68100Y28900
X76900Y32800
X73100Y32700
X89400Y30700
X67900Y72100
X67500Y75900
X73900Y62600
X53400Y64200
X71200Y61100
X48700Y63100
X72200Y66700
X42600Y51000
X56600Y75700
X56700Y66600
X64100Y46500
X75800Y48600
X72200Y48600
X30400Y43300
X51000Y43800
X72500Y43400
X75600Y42600
X11500Y8000
X31500Y8000
X51500Y8000
X71500Y8000
X15300Y42200
X23800Y39200
X23900Y42200
X48200Y36300
X71200Y69600
X47300Y42200
X69100Y36400
X69200Y42200
X39700Y66900
X20500Y34800
X65100Y71900
X18000Y39300
X41500Y34800
X57500Y34800
X62500Y34800
X34000Y34800
X76000Y34800
X82500Y48300
X34000Y47900
X80100Y59578
X84400Y67700
X73300Y72200
X35200Y38600
X15600Y54900
X20000Y54900
X85700Y63900
X37700Y38500
X37700Y31600
X16400Y31700
X16700Y38900
X58700Y38500
X58700Y31600
X77000Y77000
X81200Y71000
X18100Y36300
X16700Y30300
X60000Y36300
X60000Y30300
X39000Y36300
X11700Y30800
X39000Y30300
X21800Y58800
X20300Y46600
X19270Y38670
X18400Y50700
X11300Y53500
X23300Y24800
X20300Y24800
X39300Y25600
X44400Y25500
X58700Y24700
X58730Y20100
X78700Y24800
X86900Y25500
X21700Y32800
X26400Y29000
X42600Y32700
X32200Y32700
M30