G04 EAGLE Gerber RS-274X export*
G75*
%MOMM*%
%FSLAX34Y34*%
%LPD*%
%IN*%
%IPPOS*%
%AMOC8*
5,1,8,0,0,1.08239X$1,22.5*%
G01*
%ADD10C,0.254000*%


D10*
X0Y50000D02*
X190Y45642D01*
X760Y41318D01*
X1704Y37059D01*
X3015Y32899D01*
X4685Y28869D01*
X6699Y25000D01*
X9042Y21321D01*
X11698Y17861D01*
X14645Y14645D01*
X17861Y11698D01*
X21321Y9042D01*
X25000Y6699D01*
X28869Y4685D01*
X32899Y3015D01*
X37059Y1704D01*
X41318Y760D01*
X45642Y190D01*
X50000Y0D01*
X950000Y0D01*
X954358Y190D01*
X958682Y760D01*
X962941Y1704D01*
X967101Y3015D01*
X971131Y4685D01*
X975000Y6699D01*
X978679Y9042D01*
X982139Y11698D01*
X985355Y14645D01*
X988302Y17861D01*
X990958Y21321D01*
X993301Y25000D01*
X995315Y28869D01*
X996985Y32899D01*
X998296Y37059D01*
X999240Y41318D01*
X999810Y45642D01*
X1000000Y50000D01*
X1000000Y760000D01*
X999848Y763486D01*
X999392Y766946D01*
X998637Y770353D01*
X997588Y773681D01*
X996252Y776905D01*
X994641Y780000D01*
X992766Y782943D01*
X990642Y785712D01*
X988284Y788284D01*
X985712Y790642D01*
X982943Y792766D01*
X980000Y794641D01*
X976905Y796252D01*
X973681Y797588D01*
X970353Y798637D01*
X966946Y799392D01*
X963486Y799848D01*
X960000Y800000D01*
X50000Y800000D01*
X45642Y799810D01*
X41318Y799240D01*
X37059Y798296D01*
X32899Y796985D01*
X28869Y795315D01*
X25000Y793301D01*
X21321Y790958D01*
X17861Y788302D01*
X14645Y785355D01*
X11698Y782139D01*
X9042Y778679D01*
X6699Y775000D01*
X4685Y771131D01*
X3015Y767101D01*
X1704Y762941D01*
X760Y758682D01*
X190Y754358D01*
X0Y750000D01*
X0Y50000D01*
X150000Y710000D02*
X190000Y710000D01*
X190000Y730000D01*
X150000Y730000D01*
X150000Y710000D01*
X150000Y760000D02*
X190000Y760000D01*
X190000Y780000D01*
X150000Y780000D01*
X150000Y760000D01*
X969295Y662500D02*
X969880Y662577D01*
X970450Y662730D01*
X970995Y662955D01*
X971505Y663250D01*
X971973Y663609D01*
X972391Y664027D01*
X972750Y664495D01*
X973045Y665005D01*
X973270Y665550D01*
X973423Y666120D01*
X973500Y666705D01*
X973500Y667295D01*
X973423Y667880D01*
X973270Y668450D01*
X973045Y668995D01*
X972750Y669505D01*
X972391Y669973D01*
X971973Y670391D01*
X971505Y670750D01*
X970995Y671045D01*
X970450Y671270D01*
X969880Y671423D01*
X969295Y671500D01*
X968705Y671500D01*
X968120Y671423D01*
X967550Y671270D01*
X967005Y671045D01*
X966495Y670750D01*
X966027Y670391D01*
X965609Y669973D01*
X965250Y669505D01*
X964955Y668995D01*
X964730Y668450D01*
X964577Y667880D01*
X964500Y667295D01*
X964500Y666705D01*
X964577Y666120D01*
X964730Y665550D01*
X964955Y665005D01*
X965250Y664495D01*
X965609Y664027D01*
X966027Y663609D01*
X966495Y663250D01*
X967005Y662955D01*
X967550Y662730D01*
X968120Y662577D01*
X968705Y662500D01*
X969295Y662500D01*
X969295Y632500D02*
X969880Y632577D01*
X970450Y632730D01*
X970995Y632955D01*
X971505Y633250D01*
X971973Y633609D01*
X972391Y634027D01*
X972750Y634495D01*
X973045Y635005D01*
X973270Y635550D01*
X973423Y636120D01*
X973500Y636705D01*
X973500Y637295D01*
X973423Y637880D01*
X973270Y638450D01*
X973045Y638995D01*
X972750Y639505D01*
X972391Y639973D01*
X971973Y640391D01*
X971505Y640750D01*
X970995Y641045D01*
X970450Y641270D01*
X969880Y641423D01*
X969295Y641500D01*
X968705Y641500D01*
X968120Y641423D01*
X967550Y641270D01*
X967005Y641045D01*
X966495Y640750D01*
X966027Y640391D01*
X965609Y639973D01*
X965250Y639505D01*
X964955Y638995D01*
X964730Y638450D01*
X964577Y637880D01*
X964500Y637295D01*
X964500Y636705D01*
X964577Y636120D01*
X964730Y635550D01*
X964955Y635005D01*
X965250Y634495D01*
X965609Y634027D01*
X966027Y633609D01*
X966495Y633250D01*
X967005Y632955D01*
X967550Y632730D01*
X968120Y632577D01*
X968705Y632500D01*
X969295Y632500D01*
X699663Y778000D02*
X698993Y778075D01*
X698336Y778225D01*
X697700Y778448D01*
X697093Y778740D01*
X696523Y779099D01*
X695996Y779519D01*
X695519Y779996D01*
X695099Y780523D01*
X694740Y781093D01*
X694448Y781700D01*
X694225Y782336D01*
X694075Y782993D01*
X694000Y783663D01*
X694000Y784337D01*
X694075Y785007D01*
X694225Y785664D01*
X694448Y786300D01*
X694740Y786907D01*
X695099Y787478D01*
X695519Y788004D01*
X695996Y788481D01*
X696523Y788901D01*
X697093Y789260D01*
X697700Y789552D01*
X698336Y789775D01*
X698993Y789925D01*
X699663Y790000D01*
X700337Y790000D01*
X701007Y789925D01*
X701664Y789775D01*
X702300Y789552D01*
X702907Y789260D01*
X703478Y788901D01*
X704004Y788481D01*
X704481Y788004D01*
X704901Y787478D01*
X705260Y786907D01*
X705552Y786300D01*
X705775Y785664D01*
X705925Y785007D01*
X706000Y784337D01*
X706000Y783663D01*
X705925Y782993D01*
X705775Y782336D01*
X705552Y781700D01*
X705260Y781093D01*
X704901Y780523D01*
X704481Y779996D01*
X704004Y779519D01*
X703478Y779099D01*
X702907Y778740D01*
X702300Y778448D01*
X701664Y778225D01*
X701007Y778075D01*
X700337Y778000D01*
X699663Y778000D01*
X699663Y708000D02*
X698993Y708075D01*
X698336Y708225D01*
X697700Y708448D01*
X697093Y708740D01*
X696523Y709099D01*
X695996Y709519D01*
X695519Y709996D01*
X695099Y710523D01*
X694740Y711093D01*
X694448Y711700D01*
X694225Y712336D01*
X694075Y712993D01*
X694000Y713663D01*
X694000Y714337D01*
X694075Y715007D01*
X694225Y715664D01*
X694448Y716300D01*
X694740Y716907D01*
X695099Y717478D01*
X695519Y718004D01*
X695996Y718481D01*
X696523Y718901D01*
X697093Y719260D01*
X697700Y719552D01*
X698336Y719775D01*
X698993Y719925D01*
X699663Y720000D01*
X700337Y720000D01*
X701007Y719925D01*
X701664Y719775D01*
X702300Y719552D01*
X702907Y719260D01*
X703478Y718901D01*
X704004Y718481D01*
X704481Y718004D01*
X704901Y717478D01*
X705260Y716907D01*
X705552Y716300D01*
X705775Y715664D01*
X705925Y715007D01*
X706000Y714337D01*
X706000Y713663D01*
X705925Y712993D01*
X705775Y712336D01*
X705552Y711700D01*
X705260Y711093D01*
X704901Y710523D01*
X704481Y709996D01*
X704004Y709519D01*
X703478Y709099D01*
X702907Y708740D01*
X702300Y708448D01*
X701664Y708225D01*
X701007Y708075D01*
X700337Y708000D01*
X699663Y708000D01*
X599663Y778000D02*
X598993Y778075D01*
X598336Y778225D01*
X597700Y778448D01*
X597093Y778740D01*
X596523Y779099D01*
X595996Y779519D01*
X595519Y779996D01*
X595099Y780523D01*
X594740Y781093D01*
X594448Y781700D01*
X594225Y782336D01*
X594075Y782993D01*
X594000Y783663D01*
X594000Y784337D01*
X594075Y785007D01*
X594225Y785664D01*
X594448Y786300D01*
X594740Y786907D01*
X595099Y787478D01*
X595519Y788004D01*
X595996Y788481D01*
X596523Y788901D01*
X597093Y789260D01*
X597700Y789552D01*
X598336Y789775D01*
X598993Y789925D01*
X599663Y790000D01*
X600337Y790000D01*
X601007Y789925D01*
X601664Y789775D01*
X602300Y789552D01*
X602907Y789260D01*
X603478Y788901D01*
X604004Y788481D01*
X604481Y788004D01*
X604901Y787478D01*
X605260Y786907D01*
X605552Y786300D01*
X605775Y785664D01*
X605925Y785007D01*
X606000Y784337D01*
X606000Y783663D01*
X605925Y782993D01*
X605775Y782336D01*
X605552Y781700D01*
X605260Y781093D01*
X604901Y780523D01*
X604481Y779996D01*
X604004Y779519D01*
X603478Y779099D01*
X602907Y778740D01*
X602300Y778448D01*
X601664Y778225D01*
X601007Y778075D01*
X600337Y778000D01*
X599663Y778000D01*
X599663Y708000D02*
X598993Y708075D01*
X598336Y708225D01*
X597700Y708448D01*
X597093Y708740D01*
X596523Y709099D01*
X595996Y709519D01*
X595519Y709996D01*
X595099Y710523D01*
X594740Y711093D01*
X594448Y711700D01*
X594225Y712336D01*
X594075Y712993D01*
X594000Y713663D01*
X594000Y714337D01*
X594075Y715007D01*
X594225Y715664D01*
X594448Y716300D01*
X594740Y716907D01*
X595099Y717478D01*
X595519Y718004D01*
X595996Y718481D01*
X596523Y718901D01*
X597093Y719260D01*
X597700Y719552D01*
X598336Y719775D01*
X598993Y719925D01*
X599663Y720000D01*
X600337Y720000D01*
X601007Y719925D01*
X601664Y719775D01*
X602300Y719552D01*
X602907Y719260D01*
X603478Y718901D01*
X604004Y718481D01*
X604481Y718004D01*
X604901Y717478D01*
X605260Y716907D01*
X605552Y716300D01*
X605775Y715664D01*
X605925Y715007D01*
X606000Y714337D01*
X606000Y713663D01*
X605925Y712993D01*
X605775Y712336D01*
X605552Y711700D01*
X605260Y711093D01*
X604901Y710523D01*
X604481Y709996D01*
X604004Y709519D01*
X603478Y709099D01*
X602907Y708740D01*
X602300Y708448D01*
X601664Y708225D01*
X601007Y708075D01*
X600337Y708000D01*
X599663Y708000D01*
X499663Y778000D02*
X498993Y778075D01*
X498336Y778225D01*
X497700Y778448D01*
X497093Y778740D01*
X496523Y779099D01*
X495996Y779519D01*
X495519Y779996D01*
X495099Y780523D01*
X494740Y781093D01*
X494448Y781700D01*
X494225Y782336D01*
X494075Y782993D01*
X494000Y783663D01*
X494000Y784337D01*
X494075Y785007D01*
X494225Y785664D01*
X494448Y786300D01*
X494740Y786907D01*
X495099Y787478D01*
X495519Y788004D01*
X495996Y788481D01*
X496523Y788901D01*
X497093Y789260D01*
X497700Y789552D01*
X498336Y789775D01*
X498993Y789925D01*
X499663Y790000D01*
X500337Y790000D01*
X501007Y789925D01*
X501664Y789775D01*
X502300Y789552D01*
X502907Y789260D01*
X503478Y788901D01*
X504004Y788481D01*
X504481Y788004D01*
X504901Y787478D01*
X505260Y786907D01*
X505552Y786300D01*
X505775Y785664D01*
X505925Y785007D01*
X506000Y784337D01*
X506000Y783663D01*
X505925Y782993D01*
X505775Y782336D01*
X505552Y781700D01*
X505260Y781093D01*
X504901Y780523D01*
X504481Y779996D01*
X504004Y779519D01*
X503478Y779099D01*
X502907Y778740D01*
X502300Y778448D01*
X501664Y778225D01*
X501007Y778075D01*
X500337Y778000D01*
X499663Y778000D01*
X499663Y708000D02*
X498993Y708075D01*
X498336Y708225D01*
X497700Y708448D01*
X497093Y708740D01*
X496523Y709099D01*
X495996Y709519D01*
X495519Y709996D01*
X495099Y710523D01*
X494740Y711093D01*
X494448Y711700D01*
X494225Y712336D01*
X494075Y712993D01*
X494000Y713663D01*
X494000Y714337D01*
X494075Y715007D01*
X494225Y715664D01*
X494448Y716300D01*
X494740Y716907D01*
X495099Y717478D01*
X495519Y718004D01*
X495996Y718481D01*
X496523Y718901D01*
X497093Y719260D01*
X497700Y719552D01*
X498336Y719775D01*
X498993Y719925D01*
X499663Y720000D01*
X500337Y720000D01*
X501007Y719925D01*
X501664Y719775D01*
X502300Y719552D01*
X502907Y719260D01*
X503478Y718901D01*
X504004Y718481D01*
X504481Y718004D01*
X504901Y717478D01*
X505260Y716907D01*
X505552Y716300D01*
X505775Y715664D01*
X505925Y715007D01*
X506000Y714337D01*
X506000Y713663D01*
X505925Y712993D01*
X505775Y712336D01*
X505552Y711700D01*
X505260Y711093D01*
X504901Y710523D01*
X504481Y709996D01*
X504004Y709519D01*
X503478Y709099D01*
X502907Y708740D01*
X502300Y708448D01*
X501664Y708225D01*
X501007Y708075D01*
X500337Y708000D01*
X499663Y708000D01*
X399663Y778000D02*
X398993Y778075D01*
X398336Y778225D01*
X397700Y778448D01*
X397093Y778740D01*
X396523Y779099D01*
X395996Y779519D01*
X395519Y779996D01*
X395099Y780523D01*
X394740Y781093D01*
X394448Y781700D01*
X394225Y782336D01*
X394075Y782993D01*
X394000Y783663D01*
X394000Y784337D01*
X394075Y785007D01*
X394225Y785664D01*
X394448Y786300D01*
X394740Y786907D01*
X395099Y787478D01*
X395519Y788004D01*
X395996Y788481D01*
X396523Y788901D01*
X397093Y789260D01*
X397700Y789552D01*
X398336Y789775D01*
X398993Y789925D01*
X399663Y790000D01*
X400337Y790000D01*
X401007Y789925D01*
X401664Y789775D01*
X402300Y789552D01*
X402907Y789260D01*
X403478Y788901D01*
X404004Y788481D01*
X404481Y788004D01*
X404901Y787478D01*
X405260Y786907D01*
X405552Y786300D01*
X405775Y785664D01*
X405925Y785007D01*
X406000Y784337D01*
X406000Y783663D01*
X405925Y782993D01*
X405775Y782336D01*
X405552Y781700D01*
X405260Y781093D01*
X404901Y780523D01*
X404481Y779996D01*
X404004Y779519D01*
X403478Y779099D01*
X402907Y778740D01*
X402300Y778448D01*
X401664Y778225D01*
X401007Y778075D01*
X400337Y778000D01*
X399663Y778000D01*
X399663Y708000D02*
X398993Y708075D01*
X398336Y708225D01*
X397700Y708448D01*
X397093Y708740D01*
X396523Y709099D01*
X395996Y709519D01*
X395519Y709996D01*
X395099Y710523D01*
X394740Y711093D01*
X394448Y711700D01*
X394225Y712336D01*
X394075Y712993D01*
X394000Y713663D01*
X394000Y714337D01*
X394075Y715007D01*
X394225Y715664D01*
X394448Y716300D01*
X394740Y716907D01*
X395099Y717478D01*
X395519Y718004D01*
X395996Y718481D01*
X396523Y718901D01*
X397093Y719260D01*
X397700Y719552D01*
X398336Y719775D01*
X398993Y719925D01*
X399663Y720000D01*
X400337Y720000D01*
X401007Y719925D01*
X401664Y719775D01*
X402300Y719552D01*
X402907Y719260D01*
X403478Y718901D01*
X404004Y718481D01*
X404481Y718004D01*
X404901Y717478D01*
X405260Y716907D01*
X405552Y716300D01*
X405775Y715664D01*
X405925Y715007D01*
X406000Y714337D01*
X406000Y713663D01*
X405925Y712993D01*
X405775Y712336D01*
X405552Y711700D01*
X405260Y711093D01*
X404901Y710523D01*
X404481Y709996D01*
X404004Y709519D01*
X403478Y709099D01*
X402907Y708740D01*
X402300Y708448D01*
X401664Y708225D01*
X401007Y708075D01*
X400337Y708000D01*
X399663Y708000D01*
M02*
