G04 EAGLE Gerber RS-274X export*
G75*
%MOMM*%
%FSLAX34Y34*%
%LPD*%
%IN*%
%IPPOS*%
%AMOC8*
5,1,8,0,0,1.08239X$1,22.5*%
G01*
%ADD10C,0.254000*%


D10*
X0Y50000D02*
X190Y45642D01*
X760Y41318D01*
X1704Y37059D01*
X3015Y32899D01*
X4685Y28869D01*
X6699Y25000D01*
X9042Y21321D01*
X11698Y17861D01*
X14645Y14645D01*
X17861Y11698D01*
X21321Y9042D01*
X25000Y6699D01*
X28869Y4685D01*
X32899Y3015D01*
X37059Y1704D01*
X41318Y760D01*
X45642Y190D01*
X50000Y0D01*
X810000Y0D01*
X814358Y190D01*
X818682Y760D01*
X822941Y1704D01*
X827101Y3015D01*
X831131Y4685D01*
X835000Y6699D01*
X838679Y9042D01*
X842139Y11698D01*
X845355Y14645D01*
X848302Y17861D01*
X850958Y21321D01*
X853301Y25000D01*
X855315Y28869D01*
X856985Y32899D01*
X858296Y37059D01*
X859240Y41318D01*
X859810Y45642D01*
X860000Y50000D01*
X860000Y750000D01*
X859848Y753486D01*
X859392Y756946D01*
X858637Y760353D01*
X857588Y763681D01*
X856252Y766905D01*
X854641Y770000D01*
X852766Y772943D01*
X850642Y775712D01*
X848284Y778284D01*
X845712Y780642D01*
X842943Y782766D01*
X840000Y784641D01*
X836905Y786252D01*
X833681Y787588D01*
X830353Y788637D01*
X826946Y789392D01*
X823486Y789848D01*
X820000Y790000D01*
X50000Y790000D01*
X45642Y789810D01*
X41318Y789240D01*
X37059Y788296D01*
X32899Y786985D01*
X28869Y785315D01*
X25000Y783301D01*
X21321Y780958D01*
X17861Y778302D01*
X14645Y775355D01*
X11698Y772139D01*
X9042Y768679D01*
X6699Y765000D01*
X4685Y761131D01*
X3015Y757101D01*
X1704Y752941D01*
X760Y748682D01*
X190Y744358D01*
X0Y740000D01*
X0Y50000D01*
X687500Y759295D02*
X687423Y759880D01*
X687270Y760450D01*
X687045Y760995D01*
X686750Y761505D01*
X686391Y761973D01*
X685973Y762391D01*
X685505Y762750D01*
X684995Y763045D01*
X684450Y763270D01*
X683880Y763423D01*
X683295Y763500D01*
X682705Y763500D01*
X682120Y763423D01*
X681550Y763270D01*
X681005Y763045D01*
X680495Y762750D01*
X680027Y762391D01*
X679609Y761973D01*
X679250Y761505D01*
X678955Y760995D01*
X678730Y760450D01*
X678577Y759880D01*
X678500Y759295D01*
X678500Y758705D01*
X678577Y758120D01*
X678730Y757550D01*
X678955Y757005D01*
X679250Y756495D01*
X679609Y756027D01*
X680027Y755609D01*
X680495Y755250D01*
X681005Y754955D01*
X681550Y754730D01*
X682120Y754577D01*
X682705Y754500D01*
X683295Y754500D01*
X683880Y754577D01*
X684450Y754730D01*
X684995Y754955D01*
X685505Y755250D01*
X685973Y755609D01*
X686391Y756027D01*
X686750Y756495D01*
X687045Y757005D01*
X687270Y757550D01*
X687423Y758120D01*
X687500Y758705D01*
X687500Y759295D01*
X717500Y759295D02*
X717423Y759880D01*
X717270Y760450D01*
X717045Y760995D01*
X716750Y761505D01*
X716391Y761973D01*
X715973Y762391D01*
X715505Y762750D01*
X714995Y763045D01*
X714450Y763270D01*
X713880Y763423D01*
X713295Y763500D01*
X712705Y763500D01*
X712120Y763423D01*
X711550Y763270D01*
X711005Y763045D01*
X710495Y762750D01*
X710027Y762391D01*
X709609Y761973D01*
X709250Y761505D01*
X708955Y760995D01*
X708730Y760450D01*
X708577Y759880D01*
X708500Y759295D01*
X708500Y758705D01*
X708577Y758120D01*
X708730Y757550D01*
X708955Y757005D01*
X709250Y756495D01*
X709609Y756027D01*
X710027Y755609D01*
X710495Y755250D01*
X711005Y754955D01*
X711550Y754730D01*
X712120Y754577D01*
X712705Y754500D01*
X713295Y754500D01*
X713880Y754577D01*
X714450Y754730D01*
X714995Y754955D01*
X715505Y755250D01*
X715973Y755609D01*
X716391Y756027D01*
X716750Y756495D01*
X717045Y757005D01*
X717270Y757550D01*
X717423Y758120D01*
X717500Y758705D01*
X717500Y759295D01*
X142000Y259663D02*
X141925Y258993D01*
X141775Y258336D01*
X141552Y257700D01*
X141260Y257093D01*
X140901Y256523D01*
X140481Y255996D01*
X140004Y255519D01*
X139478Y255099D01*
X138907Y254740D01*
X138300Y254448D01*
X137664Y254225D01*
X137007Y254075D01*
X136337Y254000D01*
X135663Y254000D01*
X134993Y254075D01*
X134336Y254225D01*
X133700Y254448D01*
X133093Y254740D01*
X132523Y255099D01*
X131996Y255519D01*
X131519Y255996D01*
X131099Y256523D01*
X130740Y257093D01*
X130448Y257700D01*
X130225Y258336D01*
X130075Y258993D01*
X130000Y259663D01*
X130000Y260337D01*
X130075Y261007D01*
X130225Y261664D01*
X130448Y262300D01*
X130740Y262907D01*
X131099Y263478D01*
X131519Y264004D01*
X131996Y264481D01*
X132523Y264901D01*
X133093Y265260D01*
X133700Y265552D01*
X134336Y265775D01*
X134993Y265925D01*
X135663Y266000D01*
X136337Y266000D01*
X137007Y265925D01*
X137664Y265775D01*
X138300Y265552D01*
X138907Y265260D01*
X139478Y264901D01*
X140004Y264481D01*
X140481Y264004D01*
X140901Y263478D01*
X141260Y262907D01*
X141552Y262300D01*
X141775Y261664D01*
X141925Y261007D01*
X142000Y260337D01*
X142000Y259663D01*
X212000Y259663D02*
X211925Y258993D01*
X211775Y258336D01*
X211552Y257700D01*
X211260Y257093D01*
X210901Y256523D01*
X210481Y255996D01*
X210004Y255519D01*
X209478Y255099D01*
X208907Y254740D01*
X208300Y254448D01*
X207664Y254225D01*
X207007Y254075D01*
X206337Y254000D01*
X205663Y254000D01*
X204993Y254075D01*
X204336Y254225D01*
X203700Y254448D01*
X203093Y254740D01*
X202523Y255099D01*
X201996Y255519D01*
X201519Y255996D01*
X201099Y256523D01*
X200740Y257093D01*
X200448Y257700D01*
X200225Y258336D01*
X200075Y258993D01*
X200000Y259663D01*
X200000Y260337D01*
X200075Y261007D01*
X200225Y261664D01*
X200448Y262300D01*
X200740Y262907D01*
X201099Y263478D01*
X201519Y264004D01*
X201996Y264481D01*
X202523Y264901D01*
X203093Y265260D01*
X203700Y265552D01*
X204336Y265775D01*
X204993Y265925D01*
X205663Y266000D01*
X206337Y266000D01*
X207007Y265925D01*
X207664Y265775D01*
X208300Y265552D01*
X208907Y265260D01*
X209478Y264901D01*
X210004Y264481D01*
X210481Y264004D01*
X210901Y263478D01*
X211260Y262907D01*
X211552Y262300D01*
X211775Y261664D01*
X211925Y261007D01*
X212000Y260337D01*
X212000Y259663D01*
X262000Y349663D02*
X261925Y348993D01*
X261775Y348336D01*
X261552Y347700D01*
X261260Y347093D01*
X260901Y346523D01*
X260481Y345996D01*
X260004Y345519D01*
X259478Y345099D01*
X258907Y344740D01*
X258300Y344448D01*
X257664Y344225D01*
X257007Y344075D01*
X256337Y344000D01*
X255663Y344000D01*
X254993Y344075D01*
X254336Y344225D01*
X253700Y344448D01*
X253093Y344740D01*
X252523Y345099D01*
X251996Y345519D01*
X251519Y345996D01*
X251099Y346523D01*
X250740Y347093D01*
X250448Y347700D01*
X250225Y348336D01*
X250075Y348993D01*
X250000Y349663D01*
X250000Y350337D01*
X250075Y351007D01*
X250225Y351664D01*
X250448Y352300D01*
X250740Y352907D01*
X251099Y353478D01*
X251519Y354004D01*
X251996Y354481D01*
X252523Y354901D01*
X253093Y355260D01*
X253700Y355552D01*
X254336Y355775D01*
X254993Y355925D01*
X255663Y356000D01*
X256337Y356000D01*
X257007Y355925D01*
X257664Y355775D01*
X258300Y355552D01*
X258907Y355260D01*
X259478Y354901D01*
X260004Y354481D01*
X260481Y354004D01*
X260901Y353478D01*
X261260Y352907D01*
X261552Y352300D01*
X261775Y351664D01*
X261925Y351007D01*
X262000Y350337D01*
X262000Y349663D01*
X332000Y349663D02*
X331925Y348993D01*
X331775Y348336D01*
X331552Y347700D01*
X331260Y347093D01*
X330901Y346523D01*
X330481Y345996D01*
X330004Y345519D01*
X329478Y345099D01*
X328907Y344740D01*
X328300Y344448D01*
X327664Y344225D01*
X327007Y344075D01*
X326337Y344000D01*
X325663Y344000D01*
X324993Y344075D01*
X324336Y344225D01*
X323700Y344448D01*
X323093Y344740D01*
X322523Y345099D01*
X321996Y345519D01*
X321519Y345996D01*
X321099Y346523D01*
X320740Y347093D01*
X320448Y347700D01*
X320225Y348336D01*
X320075Y348993D01*
X320000Y349663D01*
X320000Y350337D01*
X320075Y351007D01*
X320225Y351664D01*
X320448Y352300D01*
X320740Y352907D01*
X321099Y353478D01*
X321519Y354004D01*
X321996Y354481D01*
X322523Y354901D01*
X323093Y355260D01*
X323700Y355552D01*
X324336Y355775D01*
X324993Y355925D01*
X325663Y356000D01*
X326337Y356000D01*
X327007Y355925D01*
X327664Y355775D01*
X328300Y355552D01*
X328907Y355260D01*
X329478Y354901D01*
X330004Y354481D01*
X330481Y354004D01*
X330901Y353478D01*
X331260Y352907D01*
X331552Y352300D01*
X331775Y351664D01*
X331925Y351007D01*
X332000Y350337D01*
X332000Y349663D01*
X142000Y449663D02*
X141925Y448993D01*
X141775Y448336D01*
X141552Y447700D01*
X141260Y447093D01*
X140901Y446523D01*
X140481Y445996D01*
X140004Y445519D01*
X139478Y445099D01*
X138907Y444740D01*
X138300Y444448D01*
X137664Y444225D01*
X137007Y444075D01*
X136337Y444000D01*
X135663Y444000D01*
X134993Y444075D01*
X134336Y444225D01*
X133700Y444448D01*
X133093Y444740D01*
X132523Y445099D01*
X131996Y445519D01*
X131519Y445996D01*
X131099Y446523D01*
X130740Y447093D01*
X130448Y447700D01*
X130225Y448336D01*
X130075Y448993D01*
X130000Y449663D01*
X130000Y450337D01*
X130075Y451007D01*
X130225Y451664D01*
X130448Y452300D01*
X130740Y452907D01*
X131099Y453478D01*
X131519Y454004D01*
X131996Y454481D01*
X132523Y454901D01*
X133093Y455260D01*
X133700Y455552D01*
X134336Y455775D01*
X134993Y455925D01*
X135663Y456000D01*
X136337Y456000D01*
X137007Y455925D01*
X137664Y455775D01*
X138300Y455552D01*
X138907Y455260D01*
X139478Y454901D01*
X140004Y454481D01*
X140481Y454004D01*
X140901Y453478D01*
X141260Y452907D01*
X141552Y452300D01*
X141775Y451664D01*
X141925Y451007D01*
X142000Y450337D01*
X142000Y449663D01*
X212000Y449663D02*
X211925Y448993D01*
X211775Y448336D01*
X211552Y447700D01*
X211260Y447093D01*
X210901Y446523D01*
X210481Y445996D01*
X210004Y445519D01*
X209478Y445099D01*
X208907Y444740D01*
X208300Y444448D01*
X207664Y444225D01*
X207007Y444075D01*
X206337Y444000D01*
X205663Y444000D01*
X204993Y444075D01*
X204336Y444225D01*
X203700Y444448D01*
X203093Y444740D01*
X202523Y445099D01*
X201996Y445519D01*
X201519Y445996D01*
X201099Y446523D01*
X200740Y447093D01*
X200448Y447700D01*
X200225Y448336D01*
X200075Y448993D01*
X200000Y449663D01*
X200000Y450337D01*
X200075Y451007D01*
X200225Y451664D01*
X200448Y452300D01*
X200740Y452907D01*
X201099Y453478D01*
X201519Y454004D01*
X201996Y454481D01*
X202523Y454901D01*
X203093Y455260D01*
X203700Y455552D01*
X204336Y455775D01*
X204993Y455925D01*
X205663Y456000D01*
X206337Y456000D01*
X207007Y455925D01*
X207664Y455775D01*
X208300Y455552D01*
X208907Y455260D01*
X209478Y454901D01*
X210004Y454481D01*
X210481Y454004D01*
X210901Y453478D01*
X211260Y452907D01*
X211552Y452300D01*
X211775Y451664D01*
X211925Y451007D01*
X212000Y450337D01*
X212000Y449663D01*
X262000Y539663D02*
X261925Y538993D01*
X261775Y538336D01*
X261552Y537700D01*
X261260Y537093D01*
X260901Y536523D01*
X260481Y535996D01*
X260004Y535519D01*
X259478Y535099D01*
X258907Y534740D01*
X258300Y534448D01*
X257664Y534225D01*
X257007Y534075D01*
X256337Y534000D01*
X255663Y534000D01*
X254993Y534075D01*
X254336Y534225D01*
X253700Y534448D01*
X253093Y534740D01*
X252523Y535099D01*
X251996Y535519D01*
X251519Y535996D01*
X251099Y536523D01*
X250740Y537093D01*
X250448Y537700D01*
X250225Y538336D01*
X250075Y538993D01*
X250000Y539663D01*
X250000Y540337D01*
X250075Y541007D01*
X250225Y541664D01*
X250448Y542300D01*
X250740Y542907D01*
X251099Y543478D01*
X251519Y544004D01*
X251996Y544481D01*
X252523Y544901D01*
X253093Y545260D01*
X253700Y545552D01*
X254336Y545775D01*
X254993Y545925D01*
X255663Y546000D01*
X256337Y546000D01*
X257007Y545925D01*
X257664Y545775D01*
X258300Y545552D01*
X258907Y545260D01*
X259478Y544901D01*
X260004Y544481D01*
X260481Y544004D01*
X260901Y543478D01*
X261260Y542907D01*
X261552Y542300D01*
X261775Y541664D01*
X261925Y541007D01*
X262000Y540337D01*
X262000Y539663D01*
X332000Y539663D02*
X331925Y538993D01*
X331775Y538336D01*
X331552Y537700D01*
X331260Y537093D01*
X330901Y536523D01*
X330481Y535996D01*
X330004Y535519D01*
X329478Y535099D01*
X328907Y534740D01*
X328300Y534448D01*
X327664Y534225D01*
X327007Y534075D01*
X326337Y534000D01*
X325663Y534000D01*
X324993Y534075D01*
X324336Y534225D01*
X323700Y534448D01*
X323093Y534740D01*
X322523Y535099D01*
X321996Y535519D01*
X321519Y535996D01*
X321099Y536523D01*
X320740Y537093D01*
X320448Y537700D01*
X320225Y538336D01*
X320075Y538993D01*
X320000Y539663D01*
X320000Y540337D01*
X320075Y541007D01*
X320225Y541664D01*
X320448Y542300D01*
X320740Y542907D01*
X321099Y543478D01*
X321519Y544004D01*
X321996Y544481D01*
X322523Y544901D01*
X323093Y545260D01*
X323700Y545552D01*
X324336Y545775D01*
X324993Y545925D01*
X325663Y546000D01*
X326337Y546000D01*
X327007Y545925D01*
X327664Y545775D01*
X328300Y545552D01*
X328907Y545260D01*
X329478Y544901D01*
X330004Y544481D01*
X330481Y544004D01*
X330901Y543478D01*
X331260Y542907D01*
X331552Y542300D01*
X331775Y541664D01*
X331925Y541007D01*
X332000Y540337D01*
X332000Y539663D01*
M02*
