G04 EAGLE Gerber RS-274X export*
G75*
%MOMM*%
%FSLAX34Y34*%
%LPD*%
%INSolderpaste Bottom*%
%IPPOS*%
%AMOC8*
5,1,8,0,0,1.08239X$1,22.5*%
G01*
%ADD10R,1.200000X1.200000*%
%ADD11R,2.235200X1.219200*%
%ADD12R,2.200000X3.600000*%
%ADD13R,1.803000X1.600000*%
%ADD14R,1.600000X1.803000*%
%ADD15R,6.200000X5.400000*%
%ADD16R,1.600000X1.000000*%
%ADD17R,1.550000X1.780000*%
%ADD18R,1.000000X1.400000*%
%ADD19R,1.400000X1.400000*%
%ADD20R,1.000000X1.500000*%
%ADD21R,1.500000X1.000000*%
%ADD22R,4.500000X4.500000*%
%ADD23R,1.000000X0.800000*%
%ADD24R,0.700000X1.500000*%
%ADD25R,1.600200X1.168400*%
%ADD26R,2.550000X2.700000*%


D10*
X570500Y707000D03*
X570500Y733000D03*
X509500Y733000D03*
X509500Y707000D03*
D11*
X589012Y206886D03*
X589012Y230000D03*
X589012Y253114D03*
D12*
X650990Y230000D03*
D13*
X510000Y335780D03*
X510000Y364220D03*
X210000Y515780D03*
X210000Y544220D03*
X540000Y225780D03*
X540000Y254220D03*
X180000Y515780D03*
X180000Y544220D03*
D14*
X708220Y672000D03*
X679780Y672000D03*
D15*
X625000Y340000D03*
D16*
X552000Y317200D03*
X552000Y362800D03*
D14*
X708220Y701000D03*
X679780Y701000D03*
D15*
X625000Y460000D03*
D16*
X552000Y437200D03*
X552000Y482800D03*
D17*
X247700Y702700D03*
X247700Y677300D03*
X152300Y677300D03*
X152300Y702700D03*
D18*
X180000Y629000D03*
X189500Y651000D03*
X170500Y651000D03*
D19*
X211000Y650000D03*
X249000Y650000D03*
D13*
X180000Y764220D03*
X180000Y735780D03*
D17*
X417700Y702700D03*
X417700Y677300D03*
X322300Y677300D03*
X322300Y702700D03*
D18*
X350000Y629000D03*
X359500Y651000D03*
X340500Y651000D03*
D19*
X381000Y650000D03*
X419000Y650000D03*
D13*
X350000Y764220D03*
X350000Y735780D03*
D17*
X152300Y87300D03*
X152300Y112700D03*
X247700Y112700D03*
X247700Y87300D03*
D18*
X230000Y171000D03*
X220500Y149000D03*
X239500Y149000D03*
D19*
X199000Y150000D03*
X161000Y150000D03*
D13*
X220000Y25780D03*
X220000Y54220D03*
D17*
X322300Y87300D03*
X322300Y112700D03*
X417700Y112700D03*
X417700Y87300D03*
D18*
X400000Y171000D03*
X390500Y149000D03*
X409500Y149000D03*
D19*
X369000Y150000D03*
X331000Y150000D03*
D13*
X390000Y25780D03*
X390000Y54220D03*
X220000Y764220D03*
X220000Y735780D03*
X390000Y764220D03*
X390000Y735780D03*
X180000Y54220D03*
X180000Y25780D03*
X350000Y54220D03*
X350000Y25780D03*
D20*
X271100Y498500D03*
X283800Y498500D03*
X296500Y498500D03*
X309200Y498500D03*
X321900Y498500D03*
X334600Y498500D03*
X347300Y498500D03*
X360000Y498500D03*
D21*
X415500Y348700D03*
D20*
X398100Y313500D03*
X385400Y313500D03*
X372700Y313500D03*
X360000Y313500D03*
X347300Y313500D03*
X334600Y313500D03*
X321900Y313500D03*
D21*
X415500Y437600D03*
D20*
X372700Y498500D03*
X385400Y498500D03*
X398100Y498500D03*
D21*
X415500Y463000D03*
X415500Y450300D03*
D20*
X258400Y498500D03*
X245700Y498500D03*
X233000Y498500D03*
D21*
X415500Y424900D03*
X415500Y412200D03*
X415500Y399500D03*
X415500Y361400D03*
X415500Y374100D03*
X415500Y386800D03*
D20*
X309200Y313500D03*
X296500Y313500D03*
X283800Y313500D03*
X271100Y313500D03*
X258400Y313500D03*
X245700Y313500D03*
X233000Y313500D03*
D22*
X306300Y399200D03*
D14*
X708220Y638000D03*
X679780Y638000D03*
D23*
X656500Y748000D03*
X656500Y770000D03*
X739500Y770000D03*
X739500Y748000D03*
D24*
X675500Y736500D03*
X705500Y736500D03*
X720500Y736500D03*
D13*
X710000Y570780D03*
X710000Y599220D03*
X710000Y450780D03*
X710000Y479220D03*
X710000Y330780D03*
X710000Y359220D03*
X710000Y210780D03*
X710000Y239220D03*
D15*
X620000Y580000D03*
D16*
X547000Y557200D03*
X547000Y602800D03*
D25*
X471000Y569760D03*
X471000Y585000D03*
X471000Y600240D03*
D26*
X571750Y660000D03*
X508250Y660000D03*
D14*
X639220Y665000D03*
X610780Y665000D03*
D13*
X505000Y599220D03*
X505000Y570780D03*
X505000Y450780D03*
X505000Y479220D03*
M02*
