G04 EAGLE Gerber RS-274X export*
G75*
%MOMM*%
%FSLAX34Y34*%
%LPD*%
%INSoldermask Bottom*%
%IPPOS*%
%AMOC8*
5,1,8,0,0,1.08239X$1,22.5*%
G01*
%ADD10P,1.852186X8X22.500000*%
%ADD11R,1.403200X1.403200*%
%ADD12R,2.438400X1.422400*%
%ADD13R,2.403200X3.803200*%
%ADD14R,1.803200X2.006200*%
%ADD15R,2.006200X1.803200*%
%ADD16R,2.803200X2.603200*%
%ADD17R,6.403200X5.603200*%
%ADD18R,1.803200X1.203200*%
%ADD19R,1.603200X1.603200*%
%ADD20C,1.611200*%
%ADD21R,1.983200X1.753200*%
%ADD22C,1.711200*%
%ADD23R,1.603200X1.203200*%
%ADD24C,1.727200*%
%ADD25R,1.003200X1.203200*%
%ADD26R,1.703200X0.903200*%
%ADD27C,1.103200*%
%ADD28C,6.045200*%
%ADD29C,1.403200*%


D10*
X80000Y453000D03*
X280000Y453000D03*
X280000Y653000D03*
X230000Y653000D03*
X130000Y653000D03*
X80000Y653000D03*
X180000Y653000D03*
X130000Y453000D03*
X180000Y453000D03*
X230000Y453000D03*
D11*
X87000Y559500D03*
X113000Y559500D03*
X113000Y620500D03*
X87000Y620500D03*
D12*
X400988Y533114D03*
X400988Y510000D03*
X400988Y486886D03*
D13*
X339010Y510000D03*
D14*
X384220Y620000D03*
X355780Y620000D03*
D15*
X820000Y624220D03*
X820000Y595780D03*
D16*
X130000Y505000D03*
X66000Y505000D03*
D14*
X384220Y570000D03*
X355780Y570000D03*
D15*
X780000Y624220D03*
X780000Y595780D03*
X770000Y725780D03*
X770000Y754220D03*
D17*
X265000Y510000D03*
D18*
X192000Y487200D03*
X192000Y532800D03*
D19*
X160000Y609000D03*
X160000Y571000D03*
D14*
X864220Y710000D03*
X835780Y710000D03*
D17*
X265000Y590000D03*
D18*
X192000Y567200D03*
X192000Y612800D03*
D20*
X246100Y118800D03*
X126100Y238800D03*
X106100Y178800D03*
X246100Y238800D03*
X126100Y118800D03*
X456100Y118800D03*
X336100Y238800D03*
X316100Y178800D03*
X456100Y238800D03*
X336100Y118800D03*
X666100Y118800D03*
X546100Y238800D03*
X526100Y178800D03*
X666100Y238800D03*
X546100Y118800D03*
X876100Y118800D03*
X756100Y238800D03*
X736100Y178800D03*
X876100Y238800D03*
X756100Y118800D03*
D21*
X117300Y367700D03*
X142700Y367700D03*
X142700Y272300D03*
X117300Y272300D03*
D22*
X187300Y67540D02*
X187300Y52460D01*
X212700Y52460D02*
X212700Y67540D01*
X387300Y67540D02*
X387300Y52460D01*
X412700Y52460D02*
X412700Y67540D01*
X587300Y67540D02*
X587300Y52460D01*
X612700Y52460D02*
X612700Y67540D01*
X787300Y67540D02*
X787300Y52460D01*
X812700Y52460D02*
X812700Y67540D01*
D23*
X251000Y350000D03*
X229000Y359500D03*
X229000Y340500D03*
D19*
X200000Y331000D03*
X200000Y369000D03*
D15*
X200000Y275780D03*
X200000Y304220D03*
D21*
X327300Y367700D03*
X352700Y367700D03*
X352700Y272300D03*
X327300Y272300D03*
D23*
X461000Y350000D03*
X439000Y359500D03*
X439000Y340500D03*
D19*
X410000Y331000D03*
X410000Y369000D03*
D15*
X410000Y275780D03*
X410000Y304220D03*
D21*
X537300Y367700D03*
X562700Y367700D03*
X562700Y272300D03*
X537300Y272300D03*
D23*
X671000Y350000D03*
X649000Y359500D03*
X649000Y340500D03*
D19*
X620000Y331000D03*
X620000Y369000D03*
D15*
X620000Y275780D03*
X620000Y304220D03*
D21*
X747300Y367700D03*
X772700Y367700D03*
X772700Y272300D03*
X747300Y272300D03*
D23*
X881000Y350000D03*
X859000Y359500D03*
X859000Y340500D03*
D19*
X830000Y331000D03*
X830000Y369000D03*
D15*
X830000Y275780D03*
X830000Y304220D03*
X240000Y275780D03*
X240000Y304220D03*
X450000Y275780D03*
X450000Y304220D03*
X660000Y275780D03*
X660000Y304220D03*
X870000Y275780D03*
X870000Y304220D03*
D24*
X971000Y483900D03*
X971000Y509300D03*
X971000Y534700D03*
X971000Y560100D03*
D14*
X665780Y490000D03*
X694220Y490000D03*
D25*
X958000Y693500D03*
X980000Y693500D03*
X980000Y610500D03*
X958000Y610500D03*
D26*
X946500Y674500D03*
X946500Y644500D03*
X946500Y629500D03*
D27*
X969000Y667000D03*
X969000Y637000D03*
D28*
X50000Y50000D03*
X950000Y53000D03*
X50000Y746000D03*
X950000Y749000D03*
D22*
X307540Y732300D02*
X292460Y732300D01*
X292460Y757700D02*
X307540Y757700D01*
D29*
X700000Y784000D03*
X700000Y714000D03*
X600000Y784000D03*
X600000Y714000D03*
X500000Y784000D03*
X500000Y714000D03*
X400000Y784000D03*
X400000Y714000D03*
D14*
X144220Y60000D03*
X115780Y60000D03*
X344220Y60000D03*
X315780Y60000D03*
X544220Y60000D03*
X515780Y60000D03*
X744220Y60000D03*
X715780Y60000D03*
M02*
