G04 EAGLE Gerber RS-274X export*
G75*
%MOMM*%
%FSLAX34Y34*%
%LPD*%
%INSoldermask Bottom*%
%IPPOS*%
%AMOC8*
5,1,8,0,0,1.08239X$1,22.5*%
G01*
%ADD10R,1.403200X1.403200*%
%ADD11R,2.438400X1.422400*%
%ADD12R,2.403200X3.803200*%
%ADD13R,2.006200X1.803200*%
%ADD14R,1.803200X2.006200*%
%ADD15R,6.403200X5.603200*%
%ADD16R,1.803200X1.203200*%
%ADD17C,1.611200*%
%ADD18R,1.753200X1.983200*%
%ADD19R,1.203200X1.603200*%
%ADD20R,1.603200X1.603200*%
%ADD21R,1.203200X1.703200*%
%ADD22R,1.703200X1.203200*%
%ADD23R,4.703200X4.703200*%
%ADD24C,1.727200*%
%ADD25R,1.203200X1.003200*%
%ADD26R,0.903200X1.703200*%
%ADD27C,1.103200*%
%ADD28C,6.045200*%
%ADD29C,1.403200*%
%ADD30C,1.993900*%
%ADD31R,1.803400X1.371600*%
%ADD32R,2.753200X2.903200*%


D10*
X570500Y707000D03*
X570500Y733000D03*
X509500Y733000D03*
X509500Y707000D03*
D11*
X589012Y206886D03*
X589012Y230000D03*
X589012Y253114D03*
D12*
X650990Y230000D03*
D13*
X510000Y335780D03*
X510000Y364220D03*
X210000Y515780D03*
X210000Y544220D03*
X540000Y225780D03*
X540000Y254220D03*
X180000Y515780D03*
X180000Y544220D03*
D14*
X708220Y672000D03*
X679780Y672000D03*
D15*
X625000Y340000D03*
D16*
X552000Y317200D03*
X552000Y362800D03*
D14*
X708220Y701000D03*
X679780Y701000D03*
D15*
X625000Y460000D03*
D16*
X552000Y437200D03*
X552000Y482800D03*
D17*
X261200Y746100D03*
X141200Y626100D03*
X201200Y606100D03*
X141200Y746100D03*
X261200Y626100D03*
X431200Y746100D03*
X311200Y626100D03*
X371200Y606100D03*
X311200Y746100D03*
X431200Y626100D03*
X138800Y43900D03*
X258800Y163900D03*
X198800Y183900D03*
X258800Y43900D03*
X138800Y163900D03*
X308800Y43900D03*
X428800Y163900D03*
X368800Y183900D03*
X428800Y43900D03*
X308800Y163900D03*
D18*
X247700Y702700D03*
X247700Y677300D03*
X152300Y677300D03*
X152300Y702700D03*
D19*
X180000Y629000D03*
X189500Y651000D03*
X170500Y651000D03*
D20*
X211000Y650000D03*
X249000Y650000D03*
D13*
X180000Y764220D03*
X180000Y735780D03*
D18*
X417700Y702700D03*
X417700Y677300D03*
X322300Y677300D03*
X322300Y702700D03*
D19*
X350000Y629000D03*
X359500Y651000D03*
X340500Y651000D03*
D20*
X381000Y650000D03*
X419000Y650000D03*
D13*
X350000Y764220D03*
X350000Y735780D03*
D18*
X152300Y87300D03*
X152300Y112700D03*
X247700Y112700D03*
X247700Y87300D03*
D19*
X230000Y171000D03*
X220500Y149000D03*
X239500Y149000D03*
D20*
X199000Y150000D03*
X161000Y150000D03*
D13*
X220000Y25780D03*
X220000Y54220D03*
D18*
X322300Y87300D03*
X322300Y112700D03*
X417700Y112700D03*
X417700Y87300D03*
D19*
X400000Y171000D03*
X390500Y149000D03*
X409500Y149000D03*
D20*
X369000Y150000D03*
X331000Y150000D03*
D13*
X390000Y25780D03*
X390000Y54220D03*
X220000Y764220D03*
X220000Y735780D03*
X390000Y764220D03*
X390000Y735780D03*
X180000Y54220D03*
X180000Y25780D03*
X350000Y54220D03*
X350000Y25780D03*
D21*
X271100Y498500D03*
X283800Y498500D03*
X296500Y498500D03*
X309200Y498500D03*
X321900Y498500D03*
X334600Y498500D03*
X347300Y498500D03*
X360000Y498500D03*
D22*
X415500Y348700D03*
D21*
X398100Y313500D03*
X385400Y313500D03*
X372700Y313500D03*
X360000Y313500D03*
X347300Y313500D03*
X334600Y313500D03*
X321900Y313500D03*
D22*
X415500Y437600D03*
D21*
X372700Y498500D03*
X385400Y498500D03*
X398100Y498500D03*
D22*
X415500Y463000D03*
X415500Y450300D03*
D21*
X258400Y498500D03*
X245700Y498500D03*
X233000Y498500D03*
D22*
X415500Y424900D03*
X415500Y412200D03*
X415500Y399500D03*
X415500Y361400D03*
X415500Y374100D03*
X415500Y386800D03*
D21*
X309200Y313500D03*
X296500Y313500D03*
X283800Y313500D03*
X271100Y313500D03*
X258400Y313500D03*
X245700Y313500D03*
X233000Y313500D03*
D23*
X306300Y399200D03*
D24*
X36000Y115900D03*
X36000Y141300D03*
X36000Y166700D03*
X36000Y192100D03*
D14*
X708220Y638000D03*
X679780Y638000D03*
D25*
X656500Y748000D03*
X656500Y770000D03*
X739500Y770000D03*
X739500Y748000D03*
D26*
X675500Y736500D03*
X705500Y736500D03*
X720500Y736500D03*
D27*
X683000Y759000D03*
X713000Y759000D03*
D28*
X50000Y50000D03*
X810000Y53000D03*
X50000Y736000D03*
X810000Y736000D03*
D29*
X136000Y260000D03*
X206000Y260000D03*
X256000Y350000D03*
X326000Y350000D03*
X136000Y450000D03*
X206000Y450000D03*
X256000Y540000D03*
X326000Y540000D03*
D13*
X710000Y570780D03*
X710000Y599220D03*
X710000Y450780D03*
X710000Y479220D03*
X710000Y330780D03*
X710000Y359220D03*
X710000Y210780D03*
X710000Y239220D03*
D30*
X26352Y630504D02*
X26352Y648411D01*
X76352Y648411D02*
X76352Y630504D01*
X771364Y555272D02*
X789271Y555272D01*
X789271Y605272D02*
X771364Y605272D01*
X771364Y434222D02*
X789271Y434222D01*
X789271Y484222D02*
X771364Y484222D01*
X771364Y314494D02*
X789271Y314494D01*
X789271Y364494D02*
X771364Y364494D01*
X771364Y194767D02*
X789271Y194767D01*
X789271Y244767D02*
X771364Y244767D01*
D15*
X620000Y580000D03*
D16*
X547000Y557200D03*
X547000Y602800D03*
D31*
X471000Y569760D03*
X471000Y585000D03*
X471000Y600240D03*
D32*
X571750Y660000D03*
X508250Y660000D03*
D14*
X639220Y665000D03*
X610780Y665000D03*
D13*
X505000Y599220D03*
X505000Y570780D03*
X505000Y450780D03*
X505000Y479220D03*
D24*
X485400Y46900D03*
X485400Y72300D03*
X485400Y97700D03*
X520800Y46900D03*
X520800Y72300D03*
X520800Y97700D03*
X556200Y46900D03*
X556200Y72300D03*
X556200Y97700D03*
X591600Y46900D03*
X591600Y72300D03*
X591600Y97700D03*
X583100Y770000D03*
X557700Y770000D03*
X532300Y770000D03*
X506900Y770000D03*
M02*
