G04 EAGLE Gerber RS-274X export*
G75*
%MOMM*%
%FSLAX34Y34*%
%LPD*%
%INSoldermask Top*%
%IPPOS*%
%AMOC8*
5,1,8,0,0,1.08239X$1,22.5*%
G01*
%ADD10R,1.803200X2.006200*%
%ADD11R,1.753200X1.503200*%
%ADD12C,1.611200*%
%ADD13C,1.727200*%
%ADD14C,1.103200*%
%ADD15C,6.045200*%
%ADD16R,1.403200X2.703200*%
%ADD17C,1.403200*%
%ADD18R,1.333200X2.643200*%
%ADD19R,2.006200X1.803200*%
%ADD20C,1.993900*%
%ADD21C,0.457200*%
%ADD22C,2.203200*%

G36*
X430496Y415182D02*
X430496Y415182D01*
X430571Y415189D01*
X430605Y415204D01*
X430641Y415212D01*
X430705Y415253D01*
X430774Y415285D01*
X430799Y415312D01*
X430831Y415332D01*
X430895Y415411D01*
X430930Y415447D01*
X430936Y415462D01*
X430949Y415477D01*
X437749Y426977D01*
X437779Y427059D01*
X437816Y427139D01*
X437818Y427164D01*
X437827Y427187D01*
X437827Y427275D01*
X437834Y427363D01*
X437827Y427387D01*
X437827Y427412D01*
X437797Y427494D01*
X437773Y427579D01*
X437758Y427599D01*
X437749Y427622D01*
X437692Y427689D01*
X437640Y427760D01*
X437617Y427776D01*
X437603Y427792D01*
X437559Y427817D01*
X437487Y427867D01*
X436287Y428467D01*
X436275Y428471D01*
X436262Y428479D01*
X433362Y429779D01*
X433333Y429786D01*
X433297Y429804D01*
X430497Y430704D01*
X430471Y430707D01*
X430440Y430719D01*
X426840Y431519D01*
X426802Y431521D01*
X426752Y431532D01*
X422852Y431832D01*
X422806Y431828D01*
X422736Y431831D01*
X418936Y431431D01*
X418910Y431423D01*
X418873Y431421D01*
X414573Y430521D01*
X414536Y430506D01*
X414482Y430495D01*
X410982Y429195D01*
X410953Y429177D01*
X410909Y429162D01*
X408609Y427962D01*
X408543Y427911D01*
X408472Y427865D01*
X408454Y427842D01*
X408432Y427825D01*
X408387Y427753D01*
X408337Y427686D01*
X408329Y427659D01*
X408314Y427634D01*
X408297Y427552D01*
X408273Y427471D01*
X408274Y427443D01*
X408269Y427415D01*
X408282Y427331D01*
X408287Y427247D01*
X408300Y427217D01*
X408303Y427193D01*
X408328Y427150D01*
X408359Y427074D01*
X415259Y415574D01*
X415271Y415560D01*
X415278Y415544D01*
X415344Y415476D01*
X415407Y415405D01*
X415422Y415396D01*
X415435Y415384D01*
X415521Y415343D01*
X415604Y415298D01*
X415621Y415295D01*
X415637Y415288D01*
X415732Y415280D01*
X415826Y415266D01*
X415843Y415270D01*
X415861Y415268D01*
X416043Y415313D01*
X418224Y416205D01*
X419653Y416682D01*
X421469Y416968D01*
X423277Y417064D01*
X426177Y416677D01*
X428282Y416103D01*
X430131Y415227D01*
X430167Y415217D01*
X430199Y415199D01*
X430275Y415188D01*
X430348Y415168D01*
X430385Y415171D01*
X430421Y415166D01*
X430496Y415182D01*
G37*
G36*
X438116Y377867D02*
X438116Y377867D01*
X438124Y377866D01*
X438226Y377888D01*
X438328Y377907D01*
X438336Y377912D01*
X438344Y377913D01*
X438378Y377935D01*
X438491Y377998D01*
X441591Y380398D01*
X441603Y380411D01*
X441621Y380423D01*
X443221Y381823D01*
X443236Y381843D01*
X443262Y381863D01*
X445262Y383963D01*
X445274Y383981D01*
X445295Y384000D01*
X446595Y385600D01*
X446603Y385614D01*
X446617Y385629D01*
X447917Y387429D01*
X447932Y387459D01*
X447959Y387494D01*
X449059Y389494D01*
X449069Y389524D01*
X449090Y389560D01*
X449990Y391760D01*
X449993Y391774D01*
X450002Y391790D01*
X450702Y393790D01*
X450702Y393795D01*
X450705Y393799D01*
X451405Y395899D01*
X451411Y395944D01*
X451431Y396010D01*
X451729Y398101D01*
X452128Y400391D01*
X452127Y400436D01*
X452137Y400500D01*
X452137Y402000D01*
X452125Y402065D01*
X452124Y402131D01*
X452106Y402174D01*
X452097Y402221D01*
X452064Y402278D01*
X452039Y402338D01*
X452007Y402373D01*
X451983Y402414D01*
X451932Y402456D01*
X451888Y402504D01*
X451846Y402526D01*
X451809Y402555D01*
X451747Y402576D01*
X451688Y402607D01*
X451634Y402615D01*
X451597Y402627D01*
X451557Y402626D01*
X451503Y402634D01*
X437903Y402634D01*
X437868Y402628D01*
X437833Y402630D01*
X437758Y402608D01*
X437682Y402595D01*
X437652Y402577D01*
X437618Y402567D01*
X437556Y402520D01*
X437489Y402480D01*
X437467Y402453D01*
X437438Y402432D01*
X437396Y402366D01*
X437347Y402306D01*
X437336Y402273D01*
X437317Y402243D01*
X437291Y402140D01*
X437276Y402094D01*
X437276Y402079D01*
X437272Y402061D01*
X436978Y399028D01*
X436319Y396956D01*
X434779Y394262D01*
X432954Y392053D01*
X430904Y390393D01*
X430890Y390377D01*
X430873Y390366D01*
X430817Y390293D01*
X430757Y390223D01*
X430750Y390204D01*
X430737Y390187D01*
X430711Y390099D01*
X430679Y390013D01*
X430679Y389992D01*
X430673Y389972D01*
X430679Y389881D01*
X430678Y389789D01*
X430686Y389769D01*
X430687Y389749D01*
X430751Y389592D01*
X430756Y389578D01*
X430757Y389577D01*
X430758Y389575D01*
X437558Y378175D01*
X437626Y378097D01*
X437692Y378017D01*
X437700Y378012D01*
X437705Y378006D01*
X437797Y377956D01*
X437886Y377904D01*
X437895Y377903D01*
X437902Y377898D01*
X438005Y377883D01*
X438107Y377866D01*
X438116Y377867D01*
G37*
G36*
X407950Y377873D02*
X407950Y377873D01*
X407986Y377871D01*
X408060Y377895D01*
X408135Y377910D01*
X408166Y377929D01*
X408200Y377940D01*
X408260Y377987D01*
X408326Y378027D01*
X408352Y378059D01*
X408377Y378078D01*
X408401Y378118D01*
X408445Y378172D01*
X415345Y389572D01*
X415360Y389609D01*
X415382Y389642D01*
X415400Y389713D01*
X415426Y389781D01*
X415426Y389821D01*
X415436Y389860D01*
X415428Y389933D01*
X415428Y390005D01*
X415415Y390043D01*
X415410Y390083D01*
X415377Y390148D01*
X415352Y390217D01*
X415327Y390247D01*
X415308Y390283D01*
X415240Y390349D01*
X415208Y390388D01*
X415191Y390398D01*
X415174Y390414D01*
X413415Y391685D01*
X412087Y393012D01*
X410838Y394742D01*
X409980Y396268D01*
X409399Y397818D01*
X408916Y399170D01*
X408633Y400585D01*
X408535Y401945D01*
X408525Y401985D01*
X408524Y402026D01*
X408498Y402093D01*
X408480Y402163D01*
X408457Y402196D01*
X408442Y402234D01*
X408393Y402288D01*
X408353Y402347D01*
X408319Y402371D01*
X408292Y402401D01*
X408228Y402435D01*
X408169Y402476D01*
X408129Y402486D01*
X408093Y402505D01*
X408001Y402520D01*
X407952Y402532D01*
X407932Y402530D01*
X407908Y402534D01*
X394508Y402634D01*
X394427Y402620D01*
X394345Y402614D01*
X394317Y402601D01*
X394286Y402596D01*
X394216Y402555D01*
X394141Y402521D01*
X394119Y402499D01*
X394092Y402484D01*
X394040Y402421D01*
X393983Y402363D01*
X393970Y402334D01*
X393950Y402310D01*
X393923Y402233D01*
X393889Y402159D01*
X393885Y402124D01*
X393876Y402098D01*
X393877Y402061D01*
X393877Y402050D01*
X393869Y401972D01*
X393969Y399672D01*
X393977Y399637D01*
X393978Y399589D01*
X394478Y396789D01*
X394484Y396775D01*
X394484Y396763D01*
X394488Y396754D01*
X394489Y396741D01*
X395189Y394041D01*
X395198Y394020D01*
X395204Y393992D01*
X396004Y391692D01*
X396019Y391665D01*
X396031Y391626D01*
X397131Y389326D01*
X397140Y389314D01*
X397146Y389296D01*
X398346Y387096D01*
X398365Y387072D01*
X398381Y387041D01*
X398383Y387036D01*
X399783Y385036D01*
X399798Y385022D01*
X399811Y385000D01*
X401111Y383400D01*
X401132Y383381D01*
X401154Y383352D01*
X403154Y381352D01*
X403162Y381347D01*
X403168Y381338D01*
X404868Y379738D01*
X404906Y379714D01*
X404956Y379669D01*
X407556Y377969D01*
X407626Y377939D01*
X407693Y377901D01*
X407729Y377896D01*
X407762Y377882D01*
X407839Y377878D01*
X407915Y377866D01*
X407950Y377873D01*
G37*
D10*
X683780Y663000D03*
X712220Y663000D03*
D11*
X737750Y764500D03*
X658250Y764500D03*
X737750Y719500D03*
X658250Y719500D03*
D12*
X261200Y746100D03*
X141200Y626100D03*
X201200Y606100D03*
X141200Y746100D03*
X261200Y626100D03*
X431200Y746100D03*
X311200Y626100D03*
X371200Y606100D03*
X311200Y746100D03*
X431200Y626100D03*
X138800Y43900D03*
X258800Y163900D03*
X198800Y183900D03*
X258800Y43900D03*
X138800Y163900D03*
X308800Y43900D03*
X428800Y163900D03*
X368800Y183900D03*
X428800Y43900D03*
X308800Y163900D03*
D13*
X36000Y115900D03*
X36000Y141300D03*
X36000Y166700D03*
X36000Y192100D03*
D14*
X683000Y759000D03*
X713000Y759000D03*
D15*
X50000Y50000D03*
X810000Y53000D03*
X50000Y736000D03*
X810000Y736000D03*
D16*
X222000Y292500D03*
X233000Y227500D03*
X182000Y292500D03*
X152000Y292500D03*
D17*
X136000Y260000D03*
X206000Y260000D03*
D16*
X342000Y382500D03*
X353000Y317500D03*
X302000Y382500D03*
X272000Y382500D03*
D17*
X256000Y350000D03*
X326000Y350000D03*
D16*
X222000Y482500D03*
X233000Y417500D03*
X182000Y482500D03*
X152000Y482500D03*
D17*
X136000Y450000D03*
X206000Y450000D03*
D16*
X342000Y572500D03*
X353000Y507500D03*
X302000Y572500D03*
X272000Y572500D03*
D17*
X256000Y540000D03*
X326000Y540000D03*
D18*
X643500Y623000D03*
X618100Y623000D03*
X592700Y623000D03*
X567300Y623000D03*
X541900Y623000D03*
X516500Y623000D03*
X516500Y537000D03*
X541900Y537000D03*
X567300Y537000D03*
X592700Y537000D03*
X618100Y537000D03*
X643500Y537000D03*
X643500Y503000D03*
X618100Y503000D03*
X592700Y503000D03*
X567300Y503000D03*
X541900Y503000D03*
X516500Y503000D03*
X516500Y417000D03*
X541900Y417000D03*
X567300Y417000D03*
X592700Y417000D03*
X618100Y417000D03*
X643500Y417000D03*
X643500Y383000D03*
X618100Y383000D03*
X592700Y383000D03*
X567300Y383000D03*
X541900Y383000D03*
X516500Y383000D03*
X516500Y297000D03*
X541900Y297000D03*
X567300Y297000D03*
X592700Y297000D03*
X618100Y297000D03*
X643500Y297000D03*
X643500Y263000D03*
X618100Y263000D03*
X592700Y263000D03*
X567300Y263000D03*
X541900Y263000D03*
X516500Y263000D03*
X516500Y177000D03*
X541900Y177000D03*
X567300Y177000D03*
X592700Y177000D03*
X618100Y177000D03*
X643500Y177000D03*
D19*
X710000Y570780D03*
X710000Y599220D03*
X710000Y450780D03*
X710000Y479220D03*
X710000Y330780D03*
X710000Y359220D03*
X710000Y210780D03*
X710000Y239220D03*
D20*
X26352Y630504D02*
X26352Y648411D01*
X76352Y648411D02*
X76352Y630504D01*
X771364Y555272D02*
X789271Y555272D01*
X789271Y605272D02*
X771364Y605272D01*
X771364Y434222D02*
X789271Y434222D01*
X789271Y484222D02*
X771364Y484222D01*
X771364Y314494D02*
X789271Y314494D01*
X789271Y364494D02*
X771364Y364494D01*
X771364Y194767D02*
X789271Y194767D01*
X789271Y244767D02*
X771364Y244767D01*
D21*
X423003Y428000D03*
X445000Y389900D03*
X401006Y389900D03*
D22*
X423003Y402600D03*
D13*
X485400Y46900D03*
X485400Y72300D03*
X485400Y97700D03*
X520800Y46900D03*
X520800Y72300D03*
X520800Y97700D03*
X556200Y46900D03*
X556200Y72300D03*
X556200Y97700D03*
X591600Y46900D03*
X591600Y72300D03*
X591600Y97700D03*
X583100Y770000D03*
X557700Y770000D03*
X532300Y770000D03*
X506900Y770000D03*
M02*
