G04 EAGLE Gerber RS-274X export*
G75*
%MOMM*%
%FSLAX34Y34*%
%LPD*%
%IN*%
%IPPOS*%
%AMOC8*
5,1,8,0,0,1.08239X$1,22.5*%
G01*
%ADD10C,0.254000*%


D10*
X0Y50000D02*
X190Y45642D01*
X760Y41318D01*
X1704Y37059D01*
X3015Y32899D01*
X4685Y28869D01*
X6699Y25000D01*
X9042Y21321D01*
X11698Y17861D01*
X14645Y14645D01*
X17861Y11698D01*
X21321Y9042D01*
X25000Y6699D01*
X28869Y4685D01*
X32899Y3015D01*
X37059Y1704D01*
X41318Y760D01*
X45642Y190D01*
X50000Y0D01*
X750000Y0D01*
X754358Y190D01*
X758682Y760D01*
X762941Y1704D01*
X767101Y3015D01*
X771131Y4685D01*
X775000Y6699D01*
X778679Y9042D01*
X782139Y11698D01*
X785355Y14645D01*
X788302Y17861D01*
X790958Y21321D01*
X793301Y25000D01*
X795315Y28869D01*
X796985Y32899D01*
X798296Y37059D01*
X799240Y41318D01*
X799810Y45642D01*
X800000Y50000D01*
X800000Y750000D01*
X799810Y754358D01*
X799240Y758682D01*
X798296Y762941D01*
X796985Y767101D01*
X795315Y771131D01*
X793301Y775000D01*
X790958Y778679D01*
X788302Y782139D01*
X785355Y785355D01*
X782139Y788302D01*
X778679Y790958D01*
X775000Y793301D01*
X771131Y795315D01*
X767101Y796985D01*
X762941Y798296D01*
X758682Y799240D01*
X754358Y799810D01*
X750000Y800000D01*
X50000Y800000D01*
X45642Y799810D01*
X41318Y799240D01*
X37059Y798296D01*
X32899Y796985D01*
X28869Y795315D01*
X25000Y793301D01*
X21321Y790958D01*
X17861Y788302D01*
X14645Y785355D01*
X11698Y782139D01*
X9042Y778679D01*
X6699Y775000D01*
X4685Y771131D01*
X3015Y767101D01*
X1704Y762941D01*
X760Y758682D01*
X190Y754358D01*
X0Y750000D01*
X0Y50000D01*
X774295Y634500D02*
X774880Y634423D01*
X775450Y634270D01*
X775995Y634045D01*
X776505Y633750D01*
X776973Y633391D01*
X777391Y632973D01*
X777750Y632505D01*
X778045Y631995D01*
X778270Y631450D01*
X778423Y630880D01*
X778500Y630295D01*
X778500Y629705D01*
X778423Y629120D01*
X778270Y628550D01*
X778045Y628005D01*
X777750Y627495D01*
X777391Y627027D01*
X776973Y626609D01*
X776505Y626250D01*
X775995Y625955D01*
X775450Y625730D01*
X774880Y625577D01*
X774295Y625500D01*
X773705Y625500D01*
X773120Y625577D01*
X772550Y625730D01*
X772005Y625955D01*
X771495Y626250D01*
X771027Y626609D01*
X770609Y627027D01*
X770250Y627495D01*
X769955Y628005D01*
X769730Y628550D01*
X769577Y629120D01*
X769500Y629705D01*
X769500Y630295D01*
X769577Y630880D01*
X769730Y631450D01*
X769955Y631995D01*
X770250Y632505D01*
X770609Y632973D01*
X771027Y633391D01*
X771495Y633750D01*
X772005Y634045D01*
X772550Y634270D01*
X773120Y634423D01*
X773705Y634500D01*
X774295Y634500D01*
X774295Y664500D02*
X774880Y664423D01*
X775450Y664270D01*
X775995Y664045D01*
X776505Y663750D01*
X776973Y663391D01*
X777391Y662973D01*
X777750Y662505D01*
X778045Y661995D01*
X778270Y661450D01*
X778423Y660880D01*
X778500Y660295D01*
X778500Y659705D01*
X778423Y659120D01*
X778270Y658550D01*
X778045Y658005D01*
X777750Y657495D01*
X777391Y657027D01*
X776973Y656609D01*
X776505Y656250D01*
X775995Y655955D01*
X775450Y655730D01*
X774880Y655577D01*
X774295Y655500D01*
X773705Y655500D01*
X773120Y655577D01*
X772550Y655730D01*
X772005Y655955D01*
X771495Y656250D01*
X771027Y656609D01*
X770609Y657027D01*
X770250Y657495D01*
X769955Y658005D01*
X769730Y658550D01*
X769577Y659120D01*
X769500Y659705D01*
X769500Y660295D01*
X769577Y660880D01*
X769730Y661450D01*
X769955Y661995D01*
X770250Y662505D01*
X770609Y662973D01*
X771027Y663391D01*
X771495Y663750D01*
X772005Y664045D01*
X772550Y664270D01*
X773120Y664423D01*
X773705Y664500D01*
X774295Y664500D01*
M02*
