M48
;GenerationSoftware,Autodesk,EAGLE,9.5.1*%
;CreationDate,2020-10-04T16:23:50Z*%
FMAT,2
ICI,OFF
METRIC,TZ,000.000
T12C0.200
T11C0.305
T10C0.350
T9C0.400
T8C0.900
T7C1.016
T6C1.200
T5C2.800
T4C3.200
T3C4.000
T2C5.000
T1C5.700
%
G90
M71
T1
X18500Y85500
X40500Y44500
T2
X18300Y6300
X50700Y6200
T3
X50800Y33800
X17800Y43700
X41200Y86300
T4
X28398Y51614
T5
X25498Y46814
X22148Y51614
X27500Y8500
X41250Y8500
T6
X50900Y26395
X43900Y26395
X50900Y16750
X43900Y16750
T7
X42290Y82632
X39750Y82632
X24270Y58250
X37210Y82632
X38250Y28940
X38250Y31480
X38250Y34020
X38250Y36560
X31270Y87500
X28730Y87500
X34230Y87500
X36770Y87500
X25770Y87500
X23230Y87500
X42132Y53750
X27874Y42618
X30414Y42618
X32954Y42618
X35494Y42618
X42132Y51210
X42132Y56290
X19190Y58250
X21730Y58250
X26810Y58250
X30310Y83000
X27770Y83000
X25230Y83000
X22690Y83000
T8
X41700Y68400
X41700Y65400
T9
X30000Y40250
X30750Y40250
X31500Y40250
X38500Y40250
X39250Y40250
X40000Y40250
X19750Y32750
X18250Y32750
X19000Y32750
X14250Y3500
X14250Y4250
X14250Y80000
X14250Y80750
X14250Y79250
X14250Y5000
T10
X19769Y47105
X25100Y62900
X26600Y62800
X39400Y60200
X36000Y59800
X36018Y65200
X19498Y50175
X28300Y58400
X37718Y63832
X33502Y48181
X37261Y47263
X35277Y46997
X22235Y39994
X23192Y41626
X20163Y54845
X34267Y57300
X19400Y22800
X17750Y24150
X32458Y77621
X31000Y75800
X33700Y76000
X33700Y77682
X37195Y75440
X26517Y76646
X40816Y16816
X44250Y23408
X18250Y11250
X20250Y11250
X16250Y11250
X24500Y11750
X17250Y12500
X18600Y25100
X19050Y21450
X37300Y69300
X28834Y65613
X32550Y65950
X25545Y71644
X32550Y71650
X19950Y72250
X27750Y59850
X25450Y59550
X26950Y55050
X31287Y58250
X38182Y58218
X41068Y50385
X34032Y62668
X20650Y2450
X22250Y20550
X8350Y47450
X3250Y47850
X36688Y51332
X42403Y80293
X36603Y78399
X23069Y26964
X29343Y28740
X36209Y24833
X42838Y22939
X39250Y56500
X23787Y39882
X25529Y42792
X35500Y49500
X38300Y59500
X35500Y82200
X35550Y78350
X17875Y34394
X23600Y59700
X23307Y62600
X22611Y65927
X35750Y55250
X31000Y76813
X34100Y58250
X16500Y34750
X21545Y77539
X20200Y71300
X23600Y71500
X25182Y78400
X23984Y43098
X17420Y59506
X39202Y78882
X20006Y77894
X17647Y81200
X21268Y81986
X18467Y79750
X21750Y34500
X28100Y75030
X23298Y68529
X22263Y62800
X19863Y63090
X37637Y66100
X20100Y65800
X17799Y60400
X21500Y59600
X19649Y40012
T11
X2500Y27500
X12000Y58000
T12
X4000Y26000
X5000Y26000
X6000Y26000
X7000Y26000
X8000Y26000
X9000Y26000
X10000Y26000
X11000Y26000
X2000Y26000
X3000Y26000
M30