G04 EAGLE Gerber RS-274X export*
G75*
%MOMM*%
%FSLAX34Y34*%
%LPD*%
%IN*%
%IPPOS*%
%AMOC8*
5,1,8,0,0,1.08239X$1,22.5*%
G01*
%ADD10C,0.254000*%


D10*
X0Y20000D02*
X76Y18257D01*
X304Y16527D01*
X681Y14824D01*
X1206Y13160D01*
X1874Y11548D01*
X2680Y10000D01*
X3617Y8528D01*
X4679Y7144D01*
X5858Y5858D01*
X7144Y4679D01*
X8528Y3617D01*
X10000Y2680D01*
X11548Y1874D01*
X13160Y1206D01*
X14824Y681D01*
X16527Y304D01*
X18257Y76D01*
X20000Y0D01*
X117500Y0D01*
X119336Y-51D01*
X121169Y59D01*
X122986Y327D01*
X124773Y753D01*
X126516Y1334D01*
X128201Y2063D01*
X129816Y2937D01*
X131349Y3949D01*
X132789Y5090D01*
X134123Y6352D01*
X135342Y7726D01*
X136437Y9201D01*
X137399Y10766D01*
X138221Y12408D01*
X138896Y14116D01*
X139421Y15876D01*
X139789Y17675D01*
X140000Y19500D01*
X140000Y30000D01*
X145000Y30000D01*
X144887Y27594D01*
X144984Y25187D01*
X145290Y22797D01*
X145803Y20444D01*
X146520Y18144D01*
X147434Y15915D01*
X148539Y13775D01*
X149827Y11738D01*
X151287Y9822D01*
X152908Y8041D01*
X154679Y6407D01*
X156585Y4934D01*
X158612Y3633D01*
X160745Y2514D01*
X162968Y1584D01*
X165263Y852D01*
X167613Y323D01*
X170000Y0D01*
X515000Y0D01*
X517823Y342D01*
X520606Y928D01*
X523326Y1754D01*
X525965Y2815D01*
X528501Y4102D01*
X530915Y5604D01*
X533189Y7312D01*
X535306Y9211D01*
X537249Y11287D01*
X539003Y13525D01*
X540556Y15907D01*
X541896Y18415D01*
X543012Y21031D01*
X543895Y23734D01*
X544540Y26503D01*
X544940Y29318D01*
X545094Y32158D01*
X545000Y35000D01*
X545000Y370000D01*
X544658Y372823D01*
X544072Y375606D01*
X543246Y378326D01*
X542185Y380965D01*
X540898Y383501D01*
X539396Y385915D01*
X537689Y388189D01*
X535789Y390306D01*
X533713Y392249D01*
X531476Y394003D01*
X529093Y395556D01*
X526585Y396896D01*
X523969Y398012D01*
X521266Y398895D01*
X518497Y399540D01*
X515682Y399940D01*
X512842Y400094D01*
X510000Y400000D01*
X405000Y400000D01*
X405000Y405000D01*
X415000Y405000D01*
X417615Y405114D01*
X420209Y405456D01*
X422765Y406022D01*
X425261Y406809D01*
X427679Y407811D01*
X430000Y409019D01*
X432207Y410425D01*
X434284Y412019D01*
X436213Y413787D01*
X437981Y415716D01*
X439575Y417793D01*
X440981Y420000D01*
X442189Y422321D01*
X443191Y424739D01*
X443978Y427235D01*
X444544Y429791D01*
X444886Y432385D01*
X445000Y435000D01*
X445000Y875000D01*
X444833Y876826D01*
X444507Y878631D01*
X444026Y880401D01*
X443392Y882122D01*
X442610Y883781D01*
X441687Y885366D01*
X440629Y886864D01*
X439444Y888265D01*
X438142Y889556D01*
X436733Y890730D01*
X435226Y891776D01*
X433634Y892687D01*
X431969Y893455D01*
X430243Y894076D01*
X428469Y894543D01*
X426662Y894855D01*
X424834Y895007D01*
X423000Y895000D01*
X185000Y895000D01*
X181722Y895075D01*
X178450Y894864D01*
X175209Y894369D01*
X172023Y893594D01*
X168918Y892543D01*
X165915Y891226D01*
X163039Y889652D01*
X160311Y887834D01*
X157751Y885784D01*
X155380Y883520D01*
X153216Y881057D01*
X151274Y878415D01*
X149570Y875614D01*
X148117Y872675D01*
X146925Y869621D01*
X146004Y866474D01*
X145361Y863259D01*
X145000Y860000D01*
X145000Y812500D01*
X140000Y812500D01*
X140000Y858000D01*
X139857Y861268D01*
X139430Y864512D01*
X138722Y867706D01*
X137738Y870826D01*
X136487Y873848D01*
X134976Y876750D01*
X133218Y879509D01*
X131227Y882105D01*
X129017Y884517D01*
X126605Y886727D01*
X124009Y888718D01*
X121250Y890476D01*
X118348Y891987D01*
X115326Y893238D01*
X112206Y894222D01*
X109012Y894930D01*
X105768Y895357D01*
X102500Y895500D01*
X42500Y895500D01*
X38952Y895509D01*
X35417Y895208D01*
X31922Y894601D01*
X28492Y893691D01*
X25155Y892486D01*
X21936Y890995D01*
X18859Y889229D01*
X15948Y887201D01*
X13225Y884927D01*
X10710Y882425D01*
X8422Y879712D01*
X6380Y876811D01*
X4599Y873743D01*
X3091Y870532D01*
X1870Y867201D01*
X943Y863776D01*
X318Y860284D01*
X0Y856750D01*
X0Y20000D01*
X140000Y55000D02*
X145000Y55000D01*
X145000Y167000D01*
X225000Y167000D01*
X225000Y187000D01*
X145000Y187000D01*
X145000Y295000D01*
X145114Y297615D01*
X145456Y300209D01*
X146022Y302765D01*
X146809Y305261D01*
X147811Y307679D01*
X149019Y310000D01*
X150425Y312207D01*
X152019Y314284D01*
X153787Y316213D01*
X155716Y317981D01*
X157793Y319575D01*
X160000Y320981D01*
X162321Y322189D01*
X164739Y323191D01*
X167235Y323978D01*
X169791Y324544D01*
X172385Y324886D01*
X175000Y325000D01*
X177500Y325000D01*
X177500Y330000D01*
X175000Y330000D01*
X172385Y330114D01*
X169791Y330456D01*
X167235Y331022D01*
X164739Y331809D01*
X162321Y332811D01*
X160000Y334019D01*
X157793Y335425D01*
X155716Y337019D01*
X153787Y338787D01*
X152019Y340716D01*
X150425Y342793D01*
X149019Y345000D01*
X147811Y347321D01*
X146809Y349739D01*
X146022Y352235D01*
X145456Y354791D01*
X145114Y357385D01*
X145000Y360000D01*
X145000Y787500D01*
X140000Y787500D01*
X140000Y55000D01*
X307300Y189100D02*
X307357Y187793D01*
X307528Y186495D01*
X307811Y185218D01*
X308205Y183970D01*
X308705Y182761D01*
X309310Y181600D01*
X310013Y180496D01*
X310809Y179458D01*
X311693Y178493D01*
X312658Y177609D01*
X313696Y176813D01*
X314800Y176110D01*
X315961Y175505D01*
X317170Y175005D01*
X318418Y174611D01*
X319695Y174328D01*
X320993Y174157D01*
X322300Y174100D01*
X323566Y174112D01*
X324826Y174233D01*
X326070Y174465D01*
X327289Y174803D01*
X328475Y175247D01*
X329617Y175793D01*
X330707Y176436D01*
X331737Y177171D01*
X332700Y177993D01*
X333586Y178897D01*
X334391Y179874D01*
X335107Y180917D01*
X335730Y182019D01*
X336255Y183171D01*
X336677Y184364D01*
X336993Y185590D01*
X337201Y186838D01*
X337300Y188100D01*
X337300Y265500D01*
X337243Y266807D01*
X337072Y268105D01*
X336789Y269382D01*
X336395Y270630D01*
X335895Y271839D01*
X335290Y273000D01*
X334587Y274104D01*
X333791Y275142D01*
X332907Y276107D01*
X331942Y276991D01*
X330904Y277787D01*
X329800Y278490D01*
X328639Y279095D01*
X327430Y279595D01*
X326182Y279989D01*
X324905Y280272D01*
X323607Y280443D01*
X322300Y280500D01*
X320993Y280443D01*
X319695Y280272D01*
X318418Y279989D01*
X317170Y279595D01*
X315961Y279095D01*
X314800Y278490D01*
X313696Y277787D01*
X312658Y276991D01*
X311693Y276107D01*
X310809Y275142D01*
X310013Y274104D01*
X309310Y273000D01*
X308705Y271839D01*
X308205Y270630D01*
X307811Y269382D01*
X307528Y268105D01*
X307357Y266807D01*
X307300Y265500D01*
X307300Y189100D01*
X247300Y189100D02*
X247357Y187793D01*
X247528Y186495D01*
X247811Y185218D01*
X248205Y183970D01*
X248705Y182761D01*
X249310Y181600D01*
X250013Y180496D01*
X250809Y179458D01*
X251693Y178493D01*
X252658Y177609D01*
X253696Y176813D01*
X254800Y176110D01*
X255961Y175505D01*
X257170Y175005D01*
X258418Y174611D01*
X259695Y174328D01*
X260993Y174157D01*
X262300Y174100D01*
X263566Y174112D01*
X264826Y174233D01*
X266070Y174465D01*
X267289Y174803D01*
X268475Y175247D01*
X269617Y175793D01*
X270707Y176436D01*
X271737Y177171D01*
X272700Y177993D01*
X273586Y178897D01*
X274391Y179874D01*
X275107Y180917D01*
X275730Y182019D01*
X276255Y183171D01*
X276677Y184364D01*
X276993Y185590D01*
X277201Y186838D01*
X277300Y188100D01*
X277300Y265500D01*
X277243Y266807D01*
X277072Y268105D01*
X276789Y269382D01*
X276395Y270630D01*
X275895Y271839D01*
X275290Y273000D01*
X274587Y274104D01*
X273791Y275142D01*
X272907Y276107D01*
X271942Y276991D01*
X270904Y277787D01*
X269800Y278490D01*
X268639Y279095D01*
X267430Y279595D01*
X266182Y279989D01*
X264905Y280272D01*
X263607Y280443D01*
X262300Y280500D01*
X260993Y280443D01*
X259695Y280272D01*
X258418Y279989D01*
X257170Y279595D01*
X255961Y279095D01*
X254800Y278490D01*
X253696Y277787D01*
X252658Y276991D01*
X251693Y276107D01*
X250809Y275142D01*
X250013Y274104D01*
X249310Y273000D01*
X248705Y271839D01*
X248205Y270630D01*
X247811Y269382D01*
X247528Y268105D01*
X247357Y266807D01*
X247300Y265500D01*
X247300Y189100D01*
X202500Y325000D02*
X245000Y325000D01*
X247406Y324887D01*
X249813Y324984D01*
X252203Y325290D01*
X254556Y325803D01*
X256856Y326520D01*
X259085Y327434D01*
X261225Y328539D01*
X263262Y329827D01*
X265178Y331287D01*
X266959Y332908D01*
X268593Y334679D01*
X270066Y336585D01*
X271367Y338612D01*
X272487Y340745D01*
X273416Y342968D01*
X274148Y345263D01*
X274677Y347613D01*
X275000Y350000D01*
X275000Y395000D01*
X275019Y395436D01*
X275076Y395868D01*
X275170Y396294D01*
X275302Y396710D01*
X275468Y397113D01*
X275670Y397500D01*
X275904Y397868D01*
X276170Y398214D01*
X276464Y398536D01*
X276786Y398830D01*
X277132Y399096D01*
X277500Y399330D01*
X277887Y399532D01*
X278290Y399698D01*
X278706Y399830D01*
X279132Y399924D01*
X279564Y399981D01*
X280000Y400000D01*
X295000Y400000D01*
X295000Y405000D01*
X265000Y405000D01*
X265000Y350000D01*
X264924Y348257D01*
X264696Y346527D01*
X264319Y344824D01*
X263794Y343160D01*
X263126Y341548D01*
X262321Y340000D01*
X261383Y338528D01*
X260321Y337144D01*
X259142Y335858D01*
X257856Y334679D01*
X256472Y333617D01*
X255000Y332680D01*
X253452Y331874D01*
X251840Y331206D01*
X250176Y330681D01*
X248473Y330304D01*
X246743Y330076D01*
X245000Y330000D01*
X202500Y330000D01*
X202500Y325000D01*
X85200Y774500D02*
X85257Y773193D01*
X85428Y771895D01*
X85711Y770618D01*
X86105Y769370D01*
X86605Y768161D01*
X87210Y767000D01*
X87913Y765896D01*
X88709Y764858D01*
X89593Y763893D01*
X90558Y763009D01*
X91596Y762213D01*
X92700Y761510D01*
X93861Y760905D01*
X95070Y760405D01*
X96318Y760011D01*
X97595Y759728D01*
X98893Y759557D01*
X100200Y759500D01*
X101507Y759557D01*
X102805Y759728D01*
X104082Y760011D01*
X105330Y760405D01*
X106539Y760905D01*
X107700Y761510D01*
X108804Y762213D01*
X109842Y763009D01*
X110807Y763893D01*
X111691Y764858D01*
X112487Y765896D01*
X113190Y767000D01*
X113795Y768161D01*
X114295Y769370D01*
X114689Y770618D01*
X114972Y771895D01*
X115143Y773193D01*
X115200Y774500D01*
X115200Y850900D01*
X115143Y852207D01*
X114972Y853505D01*
X114689Y854782D01*
X114295Y856030D01*
X113795Y857239D01*
X113190Y858400D01*
X112487Y859504D01*
X111691Y860542D01*
X110807Y861507D01*
X109842Y862391D01*
X108804Y863187D01*
X107700Y863890D01*
X106539Y864495D01*
X105330Y864995D01*
X104082Y865389D01*
X102805Y865672D01*
X101507Y865843D01*
X100200Y865900D01*
X98934Y865888D01*
X97675Y865767D01*
X96430Y865535D01*
X95211Y865197D01*
X94025Y864753D01*
X92883Y864207D01*
X91793Y863565D01*
X90763Y862829D01*
X89801Y862007D01*
X88914Y861103D01*
X88109Y860126D01*
X87393Y859083D01*
X86770Y857981D01*
X86245Y856829D01*
X85824Y855636D01*
X85507Y854410D01*
X85299Y853162D01*
X85200Y851900D01*
X85200Y774500D01*
X24800Y774100D02*
X24857Y772793D01*
X25028Y771495D01*
X25311Y770218D01*
X25705Y768970D01*
X26205Y767761D01*
X26810Y766600D01*
X27513Y765496D01*
X28309Y764458D01*
X29193Y763493D01*
X30158Y762609D01*
X31196Y761813D01*
X32300Y761110D01*
X33461Y760505D01*
X34670Y760005D01*
X35918Y759611D01*
X37195Y759328D01*
X38493Y759157D01*
X39800Y759100D01*
X41066Y759112D01*
X42326Y759233D01*
X43570Y759465D01*
X44789Y759803D01*
X45975Y760247D01*
X47117Y760793D01*
X48207Y761436D01*
X49237Y762171D01*
X50200Y762993D01*
X51086Y763897D01*
X51891Y764874D01*
X52607Y765917D01*
X53230Y767019D01*
X53755Y768171D01*
X54177Y769364D01*
X54493Y770590D01*
X54701Y771838D01*
X54800Y773100D01*
X54800Y850500D01*
X54743Y851807D01*
X54572Y853105D01*
X54289Y854382D01*
X53895Y855630D01*
X53395Y856839D01*
X52790Y858000D01*
X52087Y859104D01*
X51291Y860142D01*
X50407Y861107D01*
X49442Y861991D01*
X48404Y862787D01*
X47300Y863490D01*
X46139Y864095D01*
X44930Y864595D01*
X43682Y864989D01*
X42405Y865272D01*
X41107Y865443D01*
X39800Y865500D01*
X38493Y865443D01*
X37195Y865272D01*
X35918Y864989D01*
X34670Y864595D01*
X33461Y864095D01*
X32300Y863490D01*
X31196Y862787D01*
X30158Y861991D01*
X29193Y861107D01*
X28309Y860142D01*
X27513Y859104D01*
X26810Y858000D01*
X26205Y856839D01*
X25705Y855630D01*
X25311Y854382D01*
X25028Y853105D01*
X24857Y851807D01*
X24800Y850500D01*
X24800Y774100D01*
X320000Y400000D02*
X380000Y400000D01*
X380000Y405000D01*
X320000Y405000D01*
X320000Y400000D01*
X302000Y402303D02*
X301923Y401917D01*
X301772Y401553D01*
X301554Y401225D01*
X301275Y400947D01*
X300947Y400728D01*
X300583Y400577D01*
X300197Y400500D01*
X299803Y400500D01*
X299417Y400577D01*
X299053Y400728D01*
X298725Y400947D01*
X298447Y401225D01*
X298228Y401553D01*
X298077Y401917D01*
X298000Y402303D01*
X298000Y402697D01*
X298077Y403083D01*
X298228Y403447D01*
X298447Y403775D01*
X298725Y404054D01*
X299053Y404272D01*
X299417Y404423D01*
X299803Y404500D01*
X300197Y404500D01*
X300583Y404423D01*
X300947Y404272D01*
X301275Y404054D01*
X301554Y403775D01*
X301772Y403447D01*
X301923Y403083D01*
X302000Y402697D01*
X302000Y402303D01*
X309500Y402303D02*
X309423Y401917D01*
X309272Y401553D01*
X309054Y401225D01*
X308775Y400947D01*
X308447Y400728D01*
X308083Y400577D01*
X307697Y400500D01*
X307303Y400500D01*
X306917Y400577D01*
X306553Y400728D01*
X306225Y400947D01*
X305947Y401225D01*
X305728Y401553D01*
X305577Y401917D01*
X305500Y402303D01*
X305500Y402697D01*
X305577Y403083D01*
X305728Y403447D01*
X305947Y403775D01*
X306225Y404054D01*
X306553Y404272D01*
X306917Y404423D01*
X307303Y404500D01*
X307697Y404500D01*
X308083Y404423D01*
X308447Y404272D01*
X308775Y404054D01*
X309054Y403775D01*
X309272Y403447D01*
X309423Y403083D01*
X309500Y402697D01*
X309500Y402303D01*
X317000Y402303D02*
X316923Y401917D01*
X316772Y401553D01*
X316554Y401225D01*
X316275Y400947D01*
X315947Y400728D01*
X315583Y400577D01*
X315197Y400500D01*
X314803Y400500D01*
X314417Y400577D01*
X314053Y400728D01*
X313725Y400947D01*
X313447Y401225D01*
X313228Y401553D01*
X313077Y401917D01*
X313000Y402303D01*
X313000Y402697D01*
X313077Y403083D01*
X313228Y403447D01*
X313447Y403775D01*
X313725Y404054D01*
X314053Y404272D01*
X314417Y404423D01*
X314803Y404500D01*
X315197Y404500D01*
X315583Y404423D01*
X315947Y404272D01*
X316275Y404054D01*
X316554Y403775D01*
X316772Y403447D01*
X316923Y403083D01*
X317000Y402697D01*
X317000Y402303D01*
X387000Y402303D02*
X386923Y401917D01*
X386772Y401553D01*
X386554Y401225D01*
X386275Y400947D01*
X385947Y400728D01*
X385583Y400577D01*
X385197Y400500D01*
X384803Y400500D01*
X384417Y400577D01*
X384053Y400728D01*
X383725Y400947D01*
X383447Y401225D01*
X383228Y401553D01*
X383077Y401917D01*
X383000Y402303D01*
X383000Y402697D01*
X383077Y403083D01*
X383228Y403447D01*
X383447Y403775D01*
X383725Y404054D01*
X384053Y404272D01*
X384417Y404423D01*
X384803Y404500D01*
X385197Y404500D01*
X385583Y404423D01*
X385947Y404272D01*
X386275Y404054D01*
X386554Y403775D01*
X386772Y403447D01*
X386923Y403083D01*
X387000Y402697D01*
X387000Y402303D01*
X394500Y402303D02*
X394423Y401917D01*
X394272Y401553D01*
X394054Y401225D01*
X393775Y400947D01*
X393447Y400728D01*
X393083Y400577D01*
X392697Y400500D01*
X392303Y400500D01*
X391917Y400577D01*
X391553Y400728D01*
X391225Y400947D01*
X390947Y401225D01*
X390728Y401553D01*
X390577Y401917D01*
X390500Y402303D01*
X390500Y402697D01*
X390577Y403083D01*
X390728Y403447D01*
X390947Y403775D01*
X391225Y404054D01*
X391553Y404272D01*
X391917Y404423D01*
X392303Y404500D01*
X392697Y404500D01*
X393083Y404423D01*
X393447Y404272D01*
X393775Y404054D01*
X394054Y403775D01*
X394272Y403447D01*
X394423Y403083D01*
X394500Y402697D01*
X394500Y402303D01*
X402000Y402303D02*
X401923Y401917D01*
X401772Y401553D01*
X401554Y401225D01*
X401275Y400947D01*
X400947Y400728D01*
X400583Y400577D01*
X400197Y400500D01*
X399803Y400500D01*
X399417Y400577D01*
X399053Y400728D01*
X398725Y400947D01*
X398447Y401225D01*
X398228Y401553D01*
X398077Y401917D01*
X398000Y402303D01*
X398000Y402697D01*
X398077Y403083D01*
X398228Y403447D01*
X398447Y403775D01*
X398725Y404054D01*
X399053Y404272D01*
X399417Y404423D01*
X399803Y404500D01*
X400197Y404500D01*
X400583Y404423D01*
X400947Y404272D01*
X401275Y404054D01*
X401554Y403775D01*
X401772Y403447D01*
X401923Y403083D01*
X402000Y402697D01*
X402000Y402303D01*
X199500Y327303D02*
X199423Y326917D01*
X199272Y326553D01*
X199054Y326225D01*
X198775Y325947D01*
X198447Y325728D01*
X198083Y325577D01*
X197697Y325500D01*
X197303Y325500D01*
X196917Y325577D01*
X196553Y325728D01*
X196225Y325947D01*
X195947Y326225D01*
X195728Y326553D01*
X195577Y326917D01*
X195500Y327303D01*
X195500Y327697D01*
X195577Y328083D01*
X195728Y328447D01*
X195947Y328775D01*
X196225Y329054D01*
X196553Y329272D01*
X196917Y329423D01*
X197303Y329500D01*
X197697Y329500D01*
X198083Y329423D01*
X198447Y329272D01*
X198775Y329054D01*
X199054Y328775D01*
X199272Y328447D01*
X199423Y328083D01*
X199500Y327697D01*
X199500Y327303D01*
X184500Y327303D02*
X184423Y326917D01*
X184272Y326553D01*
X184054Y326225D01*
X183775Y325947D01*
X183447Y325728D01*
X183083Y325577D01*
X182697Y325500D01*
X182303Y325500D01*
X181917Y325577D01*
X181553Y325728D01*
X181225Y325947D01*
X180947Y326225D01*
X180728Y326553D01*
X180577Y326917D01*
X180500Y327303D01*
X180500Y327697D01*
X180577Y328083D01*
X180728Y328447D01*
X180947Y328775D01*
X181225Y329054D01*
X181553Y329272D01*
X181917Y329423D01*
X182303Y329500D01*
X182697Y329500D01*
X183083Y329423D01*
X183447Y329272D01*
X183775Y329054D01*
X184054Y328775D01*
X184272Y328447D01*
X184423Y328083D01*
X184500Y327697D01*
X184500Y327303D01*
X192000Y327303D02*
X191923Y326917D01*
X191772Y326553D01*
X191554Y326225D01*
X191275Y325947D01*
X190947Y325728D01*
X190583Y325577D01*
X190197Y325500D01*
X189803Y325500D01*
X189417Y325577D01*
X189053Y325728D01*
X188725Y325947D01*
X188447Y326225D01*
X188228Y326553D01*
X188077Y326917D01*
X188000Y327303D01*
X188000Y327697D01*
X188077Y328083D01*
X188228Y328447D01*
X188447Y328775D01*
X188725Y329054D01*
X189053Y329272D01*
X189417Y329423D01*
X189803Y329500D01*
X190197Y329500D01*
X190583Y329423D01*
X190947Y329272D01*
X191275Y329054D01*
X191554Y328775D01*
X191772Y328447D01*
X191923Y328083D01*
X192000Y327697D01*
X192000Y327303D01*
X213500Y854254D02*
X213422Y852763D01*
X213266Y851279D01*
X213032Y849805D01*
X212722Y848345D01*
X212336Y846903D01*
X211875Y845483D01*
X211340Y844090D01*
X210733Y842726D01*
X210055Y841396D01*
X209309Y840104D01*
X208496Y838852D01*
X207618Y837644D01*
X206679Y836484D01*
X205680Y835375D01*
X204625Y834320D01*
X203516Y833321D01*
X202356Y832382D01*
X201148Y831504D01*
X199896Y830691D01*
X198604Y829945D01*
X197274Y829268D01*
X195910Y828660D01*
X194517Y828126D01*
X193097Y827664D01*
X191655Y827278D01*
X190196Y826968D01*
X188721Y826734D01*
X187237Y826578D01*
X185746Y826500D01*
X184254Y826500D01*
X182763Y826578D01*
X181279Y826734D01*
X179805Y826968D01*
X178345Y827278D01*
X176903Y827664D01*
X175483Y828126D01*
X174090Y828660D01*
X172726Y829268D01*
X171396Y829945D01*
X170104Y830691D01*
X168852Y831504D01*
X167644Y832382D01*
X166484Y833321D01*
X165375Y834320D01*
X164320Y835375D01*
X163321Y836484D01*
X162382Y837644D01*
X161504Y838852D01*
X160691Y840104D01*
X159945Y841396D01*
X159268Y842726D01*
X158660Y844090D01*
X158126Y845483D01*
X157664Y846903D01*
X157278Y848345D01*
X156968Y849805D01*
X156734Y851279D01*
X156578Y852763D01*
X156500Y854254D01*
X156500Y855746D01*
X156578Y857237D01*
X156734Y858721D01*
X156968Y860196D01*
X157278Y861655D01*
X157664Y863097D01*
X158126Y864517D01*
X158660Y865910D01*
X159268Y867274D01*
X159945Y868604D01*
X160691Y869896D01*
X161504Y871148D01*
X162382Y872356D01*
X163321Y873516D01*
X164320Y874625D01*
X165375Y875680D01*
X166484Y876679D01*
X167644Y877618D01*
X168852Y878496D01*
X170104Y879309D01*
X171396Y880055D01*
X172726Y880733D01*
X174090Y881340D01*
X175483Y881875D01*
X176903Y882336D01*
X178345Y882722D01*
X179805Y883032D01*
X181279Y883266D01*
X182763Y883422D01*
X184254Y883500D01*
X185746Y883500D01*
X187237Y883422D01*
X188721Y883266D01*
X190196Y883032D01*
X191655Y882722D01*
X193097Y882336D01*
X194517Y881875D01*
X195910Y881340D01*
X197274Y880733D01*
X198604Y880055D01*
X199896Y879309D01*
X201148Y878496D01*
X202356Y877618D01*
X203516Y876679D01*
X204625Y875680D01*
X205680Y874625D01*
X206679Y873516D01*
X207618Y872356D01*
X208496Y871148D01*
X209309Y869896D01*
X210055Y868604D01*
X210733Y867274D01*
X211340Y865910D01*
X211875Y864517D01*
X212336Y863097D01*
X212722Y861655D01*
X213032Y860196D01*
X213266Y858721D01*
X213422Y857237D01*
X213500Y855746D01*
X213500Y854254D01*
X433500Y444254D02*
X433422Y442763D01*
X433266Y441279D01*
X433032Y439805D01*
X432722Y438345D01*
X432336Y436903D01*
X431875Y435483D01*
X431340Y434090D01*
X430733Y432726D01*
X430055Y431396D01*
X429309Y430104D01*
X428496Y428852D01*
X427618Y427644D01*
X426679Y426484D01*
X425680Y425375D01*
X424625Y424320D01*
X423516Y423321D01*
X422356Y422382D01*
X421148Y421504D01*
X419896Y420691D01*
X418604Y419945D01*
X417274Y419268D01*
X415910Y418660D01*
X414517Y418126D01*
X413097Y417664D01*
X411655Y417278D01*
X410196Y416968D01*
X408721Y416734D01*
X407237Y416578D01*
X405746Y416500D01*
X404254Y416500D01*
X402763Y416578D01*
X401279Y416734D01*
X399805Y416968D01*
X398345Y417278D01*
X396903Y417664D01*
X395483Y418126D01*
X394090Y418660D01*
X392726Y419268D01*
X391396Y419945D01*
X390104Y420691D01*
X388852Y421504D01*
X387644Y422382D01*
X386484Y423321D01*
X385375Y424320D01*
X384320Y425375D01*
X383321Y426484D01*
X382382Y427644D01*
X381504Y428852D01*
X380691Y430104D01*
X379945Y431396D01*
X379268Y432726D01*
X378660Y434090D01*
X378126Y435483D01*
X377664Y436903D01*
X377278Y438345D01*
X376968Y439805D01*
X376734Y441279D01*
X376578Y442763D01*
X376500Y444254D01*
X376500Y445746D01*
X376578Y447237D01*
X376734Y448721D01*
X376968Y450196D01*
X377278Y451655D01*
X377664Y453097D01*
X378126Y454517D01*
X378660Y455910D01*
X379268Y457274D01*
X379945Y458604D01*
X380691Y459896D01*
X381504Y461148D01*
X382382Y462356D01*
X383321Y463516D01*
X384320Y464625D01*
X385375Y465680D01*
X386484Y466679D01*
X387644Y467618D01*
X388852Y468496D01*
X390104Y469309D01*
X391396Y470055D01*
X392726Y470733D01*
X394090Y471340D01*
X395483Y471875D01*
X396903Y472336D01*
X398345Y472722D01*
X399805Y473032D01*
X401279Y473266D01*
X402763Y473422D01*
X404254Y473500D01*
X405746Y473500D01*
X407237Y473422D01*
X408721Y473266D01*
X410196Y473032D01*
X411655Y472722D01*
X413097Y472336D01*
X414517Y471875D01*
X415910Y471340D01*
X417274Y470733D01*
X418604Y470055D01*
X419896Y469309D01*
X421148Y468496D01*
X422356Y467618D01*
X423516Y466679D01*
X424625Y465680D01*
X425680Y464625D01*
X426679Y463516D01*
X427618Y462356D01*
X428496Y461148D01*
X429309Y459896D01*
X430055Y458604D01*
X430733Y457274D01*
X431340Y455910D01*
X431875Y454517D01*
X432336Y453097D01*
X432722Y451655D01*
X433032Y450196D01*
X433266Y448721D01*
X433422Y447237D01*
X433500Y445746D01*
X433500Y444254D01*
X144500Y34803D02*
X144423Y34417D01*
X144272Y34053D01*
X144054Y33725D01*
X143775Y33447D01*
X143447Y33228D01*
X143083Y33077D01*
X142697Y33000D01*
X142303Y33000D01*
X141917Y33077D01*
X141553Y33228D01*
X141225Y33447D01*
X140947Y33725D01*
X140728Y34053D01*
X140577Y34417D01*
X140500Y34803D01*
X140500Y35197D01*
X140577Y35583D01*
X140728Y35947D01*
X140947Y36275D01*
X141225Y36554D01*
X141553Y36772D01*
X141917Y36923D01*
X142303Y37000D01*
X142697Y37000D01*
X143083Y36923D01*
X143447Y36772D01*
X143775Y36554D01*
X144054Y36275D01*
X144272Y35947D01*
X144423Y35583D01*
X144500Y35197D01*
X144500Y34803D01*
X144500Y42303D02*
X144423Y41917D01*
X144272Y41553D01*
X144054Y41225D01*
X143775Y40947D01*
X143447Y40728D01*
X143083Y40577D01*
X142697Y40500D01*
X142303Y40500D01*
X141917Y40577D01*
X141553Y40728D01*
X141225Y40947D01*
X140947Y41225D01*
X140728Y41553D01*
X140577Y41917D01*
X140500Y42303D01*
X140500Y42697D01*
X140577Y43083D01*
X140728Y43447D01*
X140947Y43775D01*
X141225Y44054D01*
X141553Y44272D01*
X141917Y44423D01*
X142303Y44500D01*
X142697Y44500D01*
X143083Y44423D01*
X143447Y44272D01*
X143775Y44054D01*
X144054Y43775D01*
X144272Y43447D01*
X144423Y43083D01*
X144500Y42697D01*
X144500Y42303D01*
X144500Y49803D02*
X144423Y49417D01*
X144272Y49053D01*
X144054Y48725D01*
X143775Y48447D01*
X143447Y48228D01*
X143083Y48077D01*
X142697Y48000D01*
X142303Y48000D01*
X141917Y48077D01*
X141553Y48228D01*
X141225Y48447D01*
X140947Y48725D01*
X140728Y49053D01*
X140577Y49417D01*
X140500Y49803D01*
X140500Y50197D01*
X140577Y50583D01*
X140728Y50947D01*
X140947Y51275D01*
X141225Y51554D01*
X141553Y51772D01*
X141917Y51923D01*
X142303Y52000D01*
X142697Y52000D01*
X143083Y51923D01*
X143447Y51772D01*
X143775Y51554D01*
X144054Y51275D01*
X144272Y50947D01*
X144423Y50583D01*
X144500Y50197D01*
X144500Y49803D01*
X144500Y792303D02*
X144423Y791917D01*
X144272Y791553D01*
X144054Y791225D01*
X143775Y790947D01*
X143447Y790728D01*
X143083Y790577D01*
X142697Y790500D01*
X142303Y790500D01*
X141917Y790577D01*
X141553Y790728D01*
X141225Y790947D01*
X140947Y791225D01*
X140728Y791553D01*
X140577Y791917D01*
X140500Y792303D01*
X140500Y792697D01*
X140577Y793083D01*
X140728Y793447D01*
X140947Y793775D01*
X141225Y794054D01*
X141553Y794272D01*
X141917Y794423D01*
X142303Y794500D01*
X142697Y794500D01*
X143083Y794423D01*
X143447Y794272D01*
X143775Y794054D01*
X144054Y793775D01*
X144272Y793447D01*
X144423Y793083D01*
X144500Y792697D01*
X144500Y792303D01*
X144500Y799803D02*
X144423Y799417D01*
X144272Y799053D01*
X144054Y798725D01*
X143775Y798447D01*
X143447Y798228D01*
X143083Y798077D01*
X142697Y798000D01*
X142303Y798000D01*
X141917Y798077D01*
X141553Y798228D01*
X141225Y798447D01*
X140947Y798725D01*
X140728Y799053D01*
X140577Y799417D01*
X140500Y799803D01*
X140500Y800197D01*
X140577Y800583D01*
X140728Y800947D01*
X140947Y801275D01*
X141225Y801554D01*
X141553Y801772D01*
X141917Y801923D01*
X142303Y802000D01*
X142697Y802000D01*
X143083Y801923D01*
X143447Y801772D01*
X143775Y801554D01*
X144054Y801275D01*
X144272Y800947D01*
X144423Y800583D01*
X144500Y800197D01*
X144500Y799803D01*
X144500Y807303D02*
X144423Y806917D01*
X144272Y806553D01*
X144054Y806225D01*
X143775Y805947D01*
X143447Y805728D01*
X143083Y805577D01*
X142697Y805500D01*
X142303Y805500D01*
X141917Y805577D01*
X141553Y805728D01*
X141225Y805947D01*
X140947Y806225D01*
X140728Y806553D01*
X140577Y806917D01*
X140500Y807303D01*
X140500Y807697D01*
X140577Y808083D01*
X140728Y808447D01*
X140947Y808775D01*
X141225Y809054D01*
X141553Y809272D01*
X141917Y809423D01*
X142303Y809500D01*
X142697Y809500D01*
X143083Y809423D01*
X143447Y809272D01*
X143775Y809054D01*
X144054Y808775D01*
X144272Y808447D01*
X144423Y808083D01*
X144500Y807697D01*
X144500Y807303D01*
X208000Y62299D02*
X207921Y60898D01*
X207764Y59504D01*
X207529Y58121D01*
X207217Y56753D01*
X206829Y55405D01*
X206365Y54081D01*
X205829Y52785D01*
X205220Y51521D01*
X204541Y50293D01*
X203795Y49105D01*
X202983Y47961D01*
X202108Y46864D01*
X201174Y45818D01*
X200182Y44826D01*
X199136Y43892D01*
X198039Y43017D01*
X196895Y42205D01*
X195707Y41459D01*
X194479Y40780D01*
X193215Y40171D01*
X191919Y39635D01*
X190595Y39171D01*
X189247Y38783D01*
X187879Y38471D01*
X186496Y38236D01*
X185102Y38079D01*
X183701Y38000D01*
X182299Y38000D01*
X180898Y38079D01*
X179504Y38236D01*
X178121Y38471D01*
X176753Y38783D01*
X175405Y39171D01*
X174081Y39635D01*
X172785Y40171D01*
X171521Y40780D01*
X170293Y41459D01*
X169105Y42205D01*
X167961Y43017D01*
X166864Y43892D01*
X165818Y44826D01*
X164826Y45818D01*
X163892Y46864D01*
X163017Y47961D01*
X162205Y49105D01*
X161459Y50293D01*
X160780Y51521D01*
X160171Y52785D01*
X159635Y54081D01*
X159171Y55405D01*
X158783Y56753D01*
X158471Y58121D01*
X158236Y59504D01*
X158079Y60898D01*
X158000Y62299D01*
X158000Y63701D01*
X158079Y65102D01*
X158236Y66496D01*
X158471Y67879D01*
X158783Y69247D01*
X159171Y70595D01*
X159635Y71919D01*
X160171Y73215D01*
X160780Y74479D01*
X161459Y75707D01*
X162205Y76895D01*
X163017Y78039D01*
X163892Y79136D01*
X164826Y80182D01*
X165818Y81174D01*
X166864Y82108D01*
X167961Y82983D01*
X169105Y83795D01*
X170293Y84541D01*
X171521Y85220D01*
X172785Y85829D01*
X174081Y86365D01*
X175405Y86829D01*
X176753Y87217D01*
X178121Y87529D01*
X179504Y87764D01*
X180898Y87921D01*
X182299Y88000D01*
X183701Y88000D01*
X185102Y87921D01*
X186496Y87764D01*
X187879Y87529D01*
X189247Y87217D01*
X190595Y86829D01*
X191919Y86365D01*
X193215Y85829D01*
X194479Y85220D01*
X195707Y84541D01*
X196895Y83795D01*
X198039Y82983D01*
X199136Y82108D01*
X200182Y81174D01*
X201174Y80182D01*
X202108Y79136D01*
X202983Y78039D01*
X203795Y76895D01*
X204541Y75707D01*
X205220Y74479D01*
X205829Y73215D01*
X206365Y71919D01*
X206829Y70595D01*
X207217Y69247D01*
X207529Y67879D01*
X207764Y66496D01*
X207921Y65102D01*
X208000Y63701D01*
X208000Y62299D01*
X532000Y61299D02*
X531921Y59898D01*
X531764Y58504D01*
X531529Y57121D01*
X531217Y55753D01*
X530829Y54405D01*
X530365Y53081D01*
X529829Y51785D01*
X529220Y50521D01*
X528541Y49293D01*
X527795Y48105D01*
X526983Y46961D01*
X526108Y45864D01*
X525174Y44818D01*
X524182Y43826D01*
X523136Y42892D01*
X522039Y42017D01*
X520895Y41205D01*
X519707Y40459D01*
X518479Y39780D01*
X517215Y39171D01*
X515919Y38635D01*
X514595Y38171D01*
X513247Y37783D01*
X511879Y37471D01*
X510496Y37236D01*
X509102Y37079D01*
X507701Y37000D01*
X506299Y37000D01*
X504898Y37079D01*
X503504Y37236D01*
X502121Y37471D01*
X500753Y37783D01*
X499405Y38171D01*
X498081Y38635D01*
X496785Y39171D01*
X495521Y39780D01*
X494293Y40459D01*
X493105Y41205D01*
X491961Y42017D01*
X490864Y42892D01*
X489818Y43826D01*
X488826Y44818D01*
X487892Y45864D01*
X487017Y46961D01*
X486205Y48105D01*
X485459Y49293D01*
X484780Y50521D01*
X484171Y51785D01*
X483635Y53081D01*
X483171Y54405D01*
X482783Y55753D01*
X482471Y57121D01*
X482236Y58504D01*
X482079Y59898D01*
X482000Y61299D01*
X482000Y62701D01*
X482079Y64102D01*
X482236Y65496D01*
X482471Y66879D01*
X482783Y68247D01*
X483171Y69595D01*
X483635Y70919D01*
X484171Y72215D01*
X484780Y73479D01*
X485459Y74707D01*
X486205Y75895D01*
X487017Y77039D01*
X487892Y78136D01*
X488826Y79182D01*
X489818Y80174D01*
X490864Y81108D01*
X491961Y81983D01*
X493105Y82795D01*
X494293Y83541D01*
X495521Y84220D01*
X496785Y84829D01*
X498081Y85365D01*
X499405Y85829D01*
X500753Y86217D01*
X502121Y86529D01*
X503504Y86764D01*
X504898Y86921D01*
X506299Y87000D01*
X507701Y87000D01*
X509102Y86921D01*
X510496Y86764D01*
X511879Y86529D01*
X513247Y86217D01*
X514595Y85829D01*
X515919Y85365D01*
X517215Y84829D01*
X518479Y84220D01*
X519707Y83541D01*
X520895Y82795D01*
X522039Y81983D01*
X523136Y81108D01*
X524182Y80174D01*
X525174Y79182D01*
X526108Y78136D01*
X526983Y77039D01*
X527795Y75895D01*
X528541Y74707D01*
X529220Y73479D01*
X529829Y72215D01*
X530365Y70919D01*
X530829Y69595D01*
X531217Y68247D01*
X531529Y66879D01*
X531764Y65496D01*
X531921Y64102D01*
X532000Y62701D01*
X532000Y61299D01*
X528000Y337396D02*
X527927Y336189D01*
X527781Y334989D01*
X527563Y333800D01*
X527274Y332627D01*
X526915Y331473D01*
X526486Y330343D01*
X525990Y329241D01*
X525428Y328170D01*
X524803Y327136D01*
X524116Y326141D01*
X523371Y325190D01*
X522569Y324285D01*
X521715Y323431D01*
X520810Y322629D01*
X519859Y321884D01*
X518864Y321197D01*
X517830Y320572D01*
X516759Y320010D01*
X515657Y319514D01*
X514527Y319085D01*
X513373Y318726D01*
X512200Y318437D01*
X511011Y318219D01*
X509811Y318073D01*
X508604Y318000D01*
X507396Y318000D01*
X506189Y318073D01*
X504989Y318219D01*
X503800Y318437D01*
X502627Y318726D01*
X501473Y319085D01*
X500343Y319514D01*
X499241Y320010D01*
X498170Y320572D01*
X497136Y321197D01*
X496141Y321884D01*
X495190Y322629D01*
X494285Y323431D01*
X493431Y324285D01*
X492629Y325190D01*
X491884Y326141D01*
X491197Y327136D01*
X490572Y328170D01*
X490010Y329241D01*
X489514Y330343D01*
X489085Y331473D01*
X488726Y332627D01*
X488437Y333800D01*
X488219Y334989D01*
X488073Y336189D01*
X488000Y337396D01*
X488000Y338604D01*
X488073Y339811D01*
X488219Y341011D01*
X488437Y342200D01*
X488726Y343373D01*
X489085Y344527D01*
X489514Y345657D01*
X490010Y346759D01*
X490572Y347830D01*
X491197Y348864D01*
X491884Y349859D01*
X492629Y350810D01*
X493431Y351715D01*
X494285Y352569D01*
X495190Y353371D01*
X496141Y354116D01*
X497136Y354803D01*
X498170Y355428D01*
X499241Y355990D01*
X500343Y356486D01*
X501473Y356915D01*
X502627Y357274D01*
X503800Y357563D01*
X504989Y357781D01*
X506189Y357927D01*
X507396Y358000D01*
X508604Y358000D01*
X509811Y357927D01*
X511011Y357781D01*
X512200Y357563D01*
X513373Y357274D01*
X514527Y356915D01*
X515657Y356486D01*
X516759Y355990D01*
X517830Y355428D01*
X518864Y354803D01*
X519859Y354116D01*
X520810Y353371D01*
X521715Y352569D01*
X522569Y351715D01*
X523371Y350810D01*
X524116Y349859D01*
X524803Y348864D01*
X525428Y347830D01*
X525990Y346759D01*
X526486Y345657D01*
X526915Y344527D01*
X527274Y343373D01*
X527563Y342200D01*
X527781Y341011D01*
X527927Y339811D01*
X528000Y338604D01*
X528000Y337396D01*
X198000Y436396D02*
X197927Y435189D01*
X197781Y433989D01*
X197563Y432800D01*
X197274Y431627D01*
X196915Y430473D01*
X196486Y429343D01*
X195990Y428241D01*
X195428Y427170D01*
X194803Y426136D01*
X194116Y425141D01*
X193371Y424190D01*
X192569Y423285D01*
X191715Y422431D01*
X190810Y421629D01*
X189859Y420884D01*
X188864Y420197D01*
X187830Y419572D01*
X186759Y419010D01*
X185657Y418514D01*
X184527Y418085D01*
X183373Y417726D01*
X182200Y417437D01*
X181011Y417219D01*
X179811Y417073D01*
X178604Y417000D01*
X177396Y417000D01*
X176189Y417073D01*
X174989Y417219D01*
X173800Y417437D01*
X172627Y417726D01*
X171473Y418085D01*
X170343Y418514D01*
X169241Y419010D01*
X168170Y419572D01*
X167136Y420197D01*
X166141Y420884D01*
X165190Y421629D01*
X164285Y422431D01*
X163431Y423285D01*
X162629Y424190D01*
X161884Y425141D01*
X161197Y426136D01*
X160572Y427170D01*
X160010Y428241D01*
X159514Y429343D01*
X159085Y430473D01*
X158726Y431627D01*
X158437Y432800D01*
X158219Y433989D01*
X158073Y435189D01*
X158000Y436396D01*
X158000Y437604D01*
X158073Y438811D01*
X158219Y440011D01*
X158437Y441200D01*
X158726Y442373D01*
X159085Y443527D01*
X159514Y444657D01*
X160010Y445759D01*
X160572Y446830D01*
X161197Y447864D01*
X161884Y448859D01*
X162629Y449810D01*
X163431Y450715D01*
X164285Y451569D01*
X165190Y452371D01*
X166141Y453116D01*
X167136Y453803D01*
X168170Y454428D01*
X169241Y454990D01*
X170343Y455486D01*
X171473Y455915D01*
X172627Y456274D01*
X173800Y456563D01*
X174989Y456781D01*
X176189Y456927D01*
X177396Y457000D01*
X178604Y457000D01*
X179811Y456927D01*
X181011Y456781D01*
X182200Y456563D01*
X183373Y456274D01*
X184527Y455915D01*
X185657Y455486D01*
X186759Y454990D01*
X187830Y454428D01*
X188864Y453803D01*
X189859Y453116D01*
X190810Y452371D01*
X191715Y451569D01*
X192569Y450715D01*
X193371Y449810D01*
X194116Y448859D01*
X194803Y447864D01*
X195428Y446830D01*
X195990Y445759D01*
X196486Y444657D01*
X196915Y443527D01*
X197274Y442373D01*
X197563Y441200D01*
X197781Y440011D01*
X197927Y438811D01*
X198000Y437604D01*
X198000Y436396D01*
X432000Y862396D02*
X431927Y861189D01*
X431781Y859989D01*
X431563Y858800D01*
X431274Y857627D01*
X430915Y856473D01*
X430486Y855343D01*
X429990Y854241D01*
X429428Y853170D01*
X428803Y852136D01*
X428116Y851141D01*
X427371Y850190D01*
X426569Y849285D01*
X425715Y848431D01*
X424810Y847629D01*
X423859Y846884D01*
X422864Y846197D01*
X421830Y845572D01*
X420759Y845010D01*
X419657Y844514D01*
X418527Y844085D01*
X417373Y843726D01*
X416200Y843437D01*
X415011Y843219D01*
X413811Y843073D01*
X412604Y843000D01*
X411396Y843000D01*
X410189Y843073D01*
X408989Y843219D01*
X407800Y843437D01*
X406627Y843726D01*
X405473Y844085D01*
X404343Y844514D01*
X403241Y845010D01*
X402170Y845572D01*
X401136Y846197D01*
X400141Y846884D01*
X399190Y847629D01*
X398285Y848431D01*
X397431Y849285D01*
X396629Y850190D01*
X395884Y851141D01*
X395197Y852136D01*
X394572Y853170D01*
X394010Y854241D01*
X393514Y855343D01*
X393085Y856473D01*
X392726Y857627D01*
X392437Y858800D01*
X392219Y859989D01*
X392073Y861189D01*
X392000Y862396D01*
X392000Y863604D01*
X392073Y864811D01*
X392219Y866011D01*
X392437Y867200D01*
X392726Y868373D01*
X393085Y869527D01*
X393514Y870657D01*
X394010Y871759D01*
X394572Y872830D01*
X395197Y873864D01*
X395884Y874859D01*
X396629Y875810D01*
X397431Y876715D01*
X398285Y877569D01*
X399190Y878371D01*
X400141Y879116D01*
X401136Y879803D01*
X402170Y880428D01*
X403241Y880990D01*
X404343Y881486D01*
X405473Y881915D01*
X406627Y882274D01*
X407800Y882563D01*
X408989Y882781D01*
X410189Y882927D01*
X411396Y883000D01*
X412604Y883000D01*
X413811Y882927D01*
X415011Y882781D01*
X416200Y882563D01*
X417373Y882274D01*
X418527Y881915D01*
X419657Y881486D01*
X420759Y880990D01*
X421830Y880428D01*
X422864Y879803D01*
X423859Y879116D01*
X424810Y878371D01*
X425715Y877569D01*
X426569Y876715D01*
X427371Y875810D01*
X428116Y874859D01*
X428803Y873864D01*
X429428Y872830D01*
X429990Y871759D01*
X430486Y870657D01*
X430915Y869527D01*
X431274Y868373D01*
X431563Y867200D01*
X431781Y866011D01*
X431927Y864811D01*
X432000Y863604D01*
X432000Y862396D01*
X503000Y263612D02*
X503075Y262942D01*
X503225Y262285D01*
X503448Y261649D01*
X503740Y261042D01*
X504099Y260471D01*
X504519Y259944D01*
X504996Y259468D01*
X505523Y259048D01*
X506093Y258689D01*
X506700Y258397D01*
X507336Y258174D01*
X507993Y258024D01*
X508663Y257949D01*
X509337Y257949D01*
X510007Y258024D01*
X510664Y258174D01*
X511300Y258397D01*
X511907Y258689D01*
X512478Y259048D01*
X513004Y259468D01*
X513481Y259944D01*
X513901Y260471D01*
X514260Y261042D01*
X514552Y261649D01*
X514775Y262285D01*
X514925Y262942D01*
X515000Y263612D01*
X515000Y264286D01*
X514925Y264955D01*
X514775Y265612D01*
X514552Y266248D01*
X514260Y266855D01*
X513901Y267426D01*
X513481Y267953D01*
X513004Y268430D01*
X512478Y268850D01*
X511907Y269208D01*
X511300Y269501D01*
X510664Y269723D01*
X510007Y269873D01*
X509337Y269949D01*
X508663Y269949D01*
X507993Y269873D01*
X507336Y269723D01*
X506700Y269501D01*
X506093Y269208D01*
X505523Y268850D01*
X504996Y268430D01*
X504519Y267953D01*
X504099Y267426D01*
X503740Y266855D01*
X503448Y266248D01*
X503225Y265612D01*
X503075Y264955D01*
X503000Y264286D01*
X503000Y263612D01*
X433000Y263612D02*
X433075Y262942D01*
X433225Y262285D01*
X433448Y261649D01*
X433740Y261042D01*
X434099Y260471D01*
X434519Y259944D01*
X434996Y259468D01*
X435523Y259048D01*
X436093Y258689D01*
X436700Y258397D01*
X437336Y258174D01*
X437993Y258024D01*
X438663Y257949D01*
X439337Y257949D01*
X440007Y258024D01*
X440664Y258174D01*
X441300Y258397D01*
X441907Y258689D01*
X442478Y259048D01*
X443004Y259468D01*
X443481Y259944D01*
X443901Y260471D01*
X444260Y261042D01*
X444552Y261649D01*
X444775Y262285D01*
X444925Y262942D01*
X445000Y263612D01*
X445000Y264286D01*
X444925Y264955D01*
X444775Y265612D01*
X444552Y266248D01*
X444260Y266855D01*
X443901Y267426D01*
X443481Y267953D01*
X443004Y268430D01*
X442478Y268850D01*
X441907Y269208D01*
X441300Y269501D01*
X440664Y269723D01*
X440007Y269873D01*
X439337Y269949D01*
X438663Y269949D01*
X437993Y269873D01*
X437336Y269723D01*
X436700Y269501D01*
X436093Y269208D01*
X435523Y268850D01*
X434996Y268430D01*
X434519Y267953D01*
X434099Y267426D01*
X433740Y266855D01*
X433448Y266248D01*
X433225Y265612D01*
X433075Y264955D01*
X433000Y264286D01*
X433000Y263612D01*
X503000Y167163D02*
X503075Y166493D01*
X503225Y165836D01*
X503448Y165200D01*
X503740Y164593D01*
X504099Y164023D01*
X504519Y163496D01*
X504996Y163019D01*
X505523Y162599D01*
X506093Y162240D01*
X506700Y161948D01*
X507336Y161725D01*
X507993Y161575D01*
X508663Y161500D01*
X509337Y161500D01*
X510007Y161575D01*
X510664Y161725D01*
X511300Y161948D01*
X511907Y162240D01*
X512478Y162599D01*
X513004Y163019D01*
X513481Y163496D01*
X513901Y164023D01*
X514260Y164593D01*
X514552Y165200D01*
X514775Y165836D01*
X514925Y166493D01*
X515000Y167163D01*
X515000Y167837D01*
X514925Y168507D01*
X514775Y169164D01*
X514552Y169800D01*
X514260Y170407D01*
X513901Y170978D01*
X513481Y171504D01*
X513004Y171981D01*
X512478Y172401D01*
X511907Y172760D01*
X511300Y173052D01*
X510664Y173275D01*
X510007Y173425D01*
X509337Y173500D01*
X508663Y173500D01*
X507993Y173425D01*
X507336Y173275D01*
X506700Y173052D01*
X506093Y172760D01*
X505523Y172401D01*
X504996Y171981D01*
X504519Y171504D01*
X504099Y170978D01*
X503740Y170407D01*
X503448Y169800D01*
X503225Y169164D01*
X503075Y168507D01*
X503000Y167837D01*
X503000Y167163D01*
X433000Y167163D02*
X433075Y166493D01*
X433225Y165836D01*
X433448Y165200D01*
X433740Y164593D01*
X434099Y164023D01*
X434519Y163496D01*
X434996Y163019D01*
X435523Y162599D01*
X436093Y162240D01*
X436700Y161948D01*
X437336Y161725D01*
X437993Y161575D01*
X438663Y161500D01*
X439337Y161500D01*
X440007Y161575D01*
X440664Y161725D01*
X441300Y161948D01*
X441907Y162240D01*
X442478Y162599D01*
X443004Y163019D01*
X443481Y163496D01*
X443901Y164023D01*
X444260Y164593D01*
X444552Y165200D01*
X444775Y165836D01*
X444925Y166493D01*
X445000Y167163D01*
X445000Y167837D01*
X444925Y168507D01*
X444775Y169164D01*
X444552Y169800D01*
X444260Y170407D01*
X443901Y170978D01*
X443481Y171504D01*
X443004Y171981D01*
X442478Y172401D01*
X441907Y172760D01*
X441300Y173052D01*
X440664Y173275D01*
X440007Y173425D01*
X439337Y173500D01*
X438663Y173500D01*
X437993Y173425D01*
X437336Y173275D01*
X436700Y173052D01*
X436093Y172760D01*
X435523Y172401D01*
X434996Y171981D01*
X434519Y171504D01*
X434099Y170978D01*
X433740Y170407D01*
X433448Y169800D01*
X433225Y169164D01*
X433075Y168507D01*
X433000Y167837D01*
X433000Y167163D01*
X417295Y679500D02*
X417880Y679577D01*
X418450Y679730D01*
X418995Y679955D01*
X419505Y680250D01*
X419973Y680609D01*
X420391Y681027D01*
X420750Y681495D01*
X421045Y682005D01*
X421270Y682550D01*
X421423Y683120D01*
X421500Y683705D01*
X421500Y684295D01*
X421423Y684880D01*
X421270Y685450D01*
X421045Y685995D01*
X420750Y686505D01*
X420391Y686973D01*
X419973Y687391D01*
X419505Y687750D01*
X418995Y688045D01*
X418450Y688270D01*
X417880Y688423D01*
X417295Y688500D01*
X416705Y688500D01*
X416120Y688423D01*
X415550Y688270D01*
X415005Y688045D01*
X414495Y687750D01*
X414027Y687391D01*
X413609Y686973D01*
X413250Y686505D01*
X412955Y685995D01*
X412730Y685450D01*
X412577Y684880D01*
X412500Y684295D01*
X412500Y683705D01*
X412577Y683120D01*
X412730Y682550D01*
X412955Y682005D01*
X413250Y681495D01*
X413609Y681027D01*
X414027Y680609D01*
X414495Y680250D01*
X415005Y679955D01*
X415550Y679730D01*
X416120Y679577D01*
X416705Y679500D01*
X417295Y679500D01*
X417295Y649500D02*
X417880Y649577D01*
X418450Y649730D01*
X418995Y649955D01*
X419505Y650250D01*
X419973Y650609D01*
X420391Y651027D01*
X420750Y651495D01*
X421045Y652005D01*
X421270Y652550D01*
X421423Y653120D01*
X421500Y653705D01*
X421500Y654295D01*
X421423Y654880D01*
X421270Y655450D01*
X421045Y655995D01*
X420750Y656505D01*
X420391Y656973D01*
X419973Y657391D01*
X419505Y657750D01*
X418995Y658045D01*
X418450Y658270D01*
X417880Y658423D01*
X417295Y658500D01*
X416705Y658500D01*
X416120Y658423D01*
X415550Y658270D01*
X415005Y658045D01*
X414495Y657750D01*
X414027Y657391D01*
X413609Y656973D01*
X413250Y656505D01*
X412955Y655995D01*
X412730Y655450D01*
X412577Y654880D01*
X412500Y654295D01*
X412500Y653705D01*
X412577Y653120D01*
X412730Y652550D01*
X412955Y652005D01*
X413250Y651495D01*
X413609Y651027D01*
X414027Y650609D01*
X414495Y650250D01*
X415005Y649955D01*
X415550Y649730D01*
X416120Y649577D01*
X416705Y649500D01*
X417295Y649500D01*
X254475Y454137D02*
X253478Y454208D01*
X252488Y454350D01*
X251511Y454563D01*
X250551Y454845D01*
X249614Y455194D01*
X248704Y455610D01*
X247827Y456089D01*
X246985Y456630D01*
X246185Y457229D01*
X245429Y457884D01*
X244722Y458591D01*
X244067Y459347D01*
X243468Y460147D01*
X242927Y460988D01*
X242448Y461866D01*
X242032Y462776D01*
X241683Y463713D01*
X241401Y464672D01*
X241189Y465649D01*
X241046Y466639D01*
X240975Y467637D01*
X240975Y468637D01*
X241046Y469634D01*
X241189Y470624D01*
X241401Y471601D01*
X241683Y472561D01*
X242032Y473498D01*
X242448Y474407D01*
X242927Y475285D01*
X243468Y476126D01*
X244067Y476927D01*
X244722Y477683D01*
X245429Y478390D01*
X246185Y479045D01*
X246985Y479644D01*
X247827Y480185D01*
X248704Y480664D01*
X249614Y481079D01*
X250551Y481429D01*
X251511Y481711D01*
X252488Y481923D01*
X253478Y482065D01*
X254475Y482137D01*
X255475Y482137D01*
X256473Y482065D01*
X257462Y481923D01*
X258440Y481711D01*
X259399Y481429D01*
X260336Y481079D01*
X261246Y480664D01*
X262123Y480185D01*
X262965Y479644D01*
X263765Y479045D01*
X264521Y478390D01*
X265228Y477683D01*
X265883Y476927D01*
X266482Y476126D01*
X267023Y475285D01*
X267502Y474407D01*
X267918Y473498D01*
X268267Y472561D01*
X268549Y471601D01*
X268761Y470624D01*
X268904Y469634D01*
X268975Y468637D01*
X268975Y467637D01*
X268904Y466639D01*
X268761Y465649D01*
X268549Y464672D01*
X268267Y463713D01*
X267918Y462776D01*
X267502Y461866D01*
X267023Y460988D01*
X266482Y460147D01*
X265883Y459347D01*
X265228Y458591D01*
X264521Y457884D01*
X263765Y457229D01*
X262965Y456630D01*
X262123Y456089D01*
X261246Y455610D01*
X260336Y455194D01*
X259399Y454845D01*
X258440Y454563D01*
X257462Y454350D01*
X256473Y454208D01*
X255475Y454137D01*
X254475Y454137D01*
M02*
