G04 EAGLE Gerber RS-274X export*
G75*
%MOMM*%
%FSLAX34Y34*%
%LPD*%
%INSilkscreen Top*%
%IPPOS*%
%AMOC8*
5,1,8,0,0,1.08239X$1,22.5*%
G01*
%ADD10C,1.016000*%
%ADD11C,0.508000*%
%ADD12C,0.200000*%
%ADD13R,0.236700X0.118381*%
%ADD14R,0.828700X0.118381*%
%ADD15R,0.236800X0.118381*%
%ADD16R,1.065400X0.118381*%
%ADD17R,0.828600X0.118381*%
%ADD18R,1.065500X0.118381*%
%ADD19R,0.591900X0.118381*%
%ADD20R,0.118400X0.118381*%
%ADD21R,0.236700X0.118375*%
%ADD22R,0.236800X0.118375*%
%ADD23R,0.947000X0.118381*%
%ADD24R,0.118300X0.118381*%
%ADD25R,0.473600X0.118381*%
%ADD26R,0.710200X0.118381*%
%ADD27R,0.710300X0.118381*%
%ADD28R,0.355200X0.118375*%
%ADD29R,0.118400X0.118375*%
%ADD30R,0.947100X0.118375*%
%ADD31R,0.355100X0.118375*%
%ADD32R,0.947000X0.118375*%
%ADD33R,0.118300X0.118375*%
%ADD34R,1.183800X0.118375*%
%ADD35R,0.592000X0.118375*%
%ADD36R,0.828600X0.118375*%
%ADD37R,0.355100X0.118381*%
%ADD38R,0.355200X0.118381*%
%ADD39R,1.183800X0.118381*%
%ADD40R,0.591800X0.118381*%
%ADD41R,0.828700X0.118375*%
%ADD42R,0.473500X0.118375*%
%ADD43R,0.591900X0.118375*%
%ADD44R,0.710300X0.118375*%
%ADD45R,0.591800X0.118375*%
%ADD46R,1.065400X0.118375*%
%ADD47R,0.473600X0.118375*%
%ADD48R,1.302200X0.118375*%
%ADD49R,1.420600X0.118381*%
%ADD50R,0.473500X0.118381*%
%ADD51R,1.302200X0.118381*%
%ADD52R,1.657300X0.118381*%
%ADD53R,1.538900X0.118381*%
%ADD54R,2.367700X0.118381*%
%ADD55R,1.420500X0.118381*%
%ADD56R,2.367700X0.118375*%
%ADD57R,0.947100X0.118381*%
%ADD58R,2.604300X0.118375*%
%ADD59R,2.604300X0.118381*%
%ADD60R,1.657300X0.118375*%
%ADD61R,1.538900X0.118375*%
%ADD62R,0.710200X0.118375*%
%ADD63R,1.065500X0.118375*%
%ADD64R,9.944000X0.118375*%
%ADD65R,10.299100X0.118381*%
%ADD66R,10.654200X0.118381*%
%ADD67R,1.183900X0.118375*%
%ADD68R,1.183900X0.118381*%
%ADD69R,0.592000X0.118381*%
%ADD70R,1.775700X0.118381*%
%ADD71R,1.183700X0.118381*%
%ADD72R,10.535800X0.118375*%
%ADD73R,9.707200X0.118375*%
%ADD74R,1.302100X0.118381*%
%ADD75R,1.657400X0.118375*%
%ADD76R,1.775700X0.118375*%
%ADD77R,1.894100X0.118381*%
%ADD78R,1.302100X0.118375*%
%ADD79R,1.539000X0.118375*%
%ADD80R,3.314600X0.118375*%
%ADD81R,3.314600X0.118381*%
%ADD82R,3.196200X0.118381*%
%ADD83R,2.959500X0.118375*%
%ADD84R,2.722700X0.118381*%
%ADD85R,1.775800X0.118375*%
%ADD86R,2.841100X0.118375*%
%ADD87R,3.077800X0.118381*%
%ADD88R,1.657400X0.118381*%
%ADD89R,3.433000X0.118375*%
%ADD90R,3.077800X0.118375*%
%ADD91R,1.894100X0.118375*%
%ADD92R,2.012400X0.118375*%
%ADD93R,2.012500X0.118381*%
%ADD94R,2.130900X0.118381*%
%ADD95R,2.130800X0.118381*%
%ADD96R,2.130900X0.118375*%
%ADD97R,2.130800X0.118375*%
%ADD98R,2.249200X0.118375*%
%ADD99R,2.249200X0.118381*%
%ADD100R,2.012500X0.118375*%
%ADD101R,2.012400X0.118381*%
%ADD102R,2.722800X0.118381*%
%ADD103R,2.959500X0.118381*%
%ADD104R,1.420600X0.118375*%
%ADD105C,0.127000*%
%ADD106C,0.177800*%
%ADD107C,0.203200*%
%ADD108R,1.854200X3.200400*%
%ADD109R,1.854200X0.863600*%
%ADD110C,0.076200*%
%ADD111C,0.152400*%
%ADD112R,0.736600X1.752600*%
%ADD113C,0.101600*%
%ADD114R,1.752600X0.736600*%
%ADD115C,0.304800*%
%ADD116C,0.050800*%
%ADD117C,0.228600*%
%ADD118C,0.457200*%
%ADD119R,0.508000X0.508000*%
%ADD120R,1.016000X1.524000*%

G36*
X171064Y375377D02*
X171064Y375377D01*
X171129Y375379D01*
X171173Y375397D01*
X171221Y375405D01*
X171277Y375438D01*
X171337Y375463D01*
X171373Y375495D01*
X171414Y375520D01*
X171455Y375570D01*
X171503Y375614D01*
X171525Y375656D01*
X171555Y375694D01*
X171576Y375755D01*
X171606Y375813D01*
X171612Y375861D01*
X171627Y375906D01*
X171625Y375971D01*
X171633Y376036D01*
X171622Y376083D01*
X171621Y376131D01*
X171596Y376191D01*
X171581Y376254D01*
X171551Y376302D01*
X171536Y376338D01*
X171510Y376367D01*
X171482Y376413D01*
X165482Y383413D01*
X165480Y383414D01*
X165479Y383415D01*
X165424Y383460D01*
X165405Y383481D01*
X165387Y383490D01*
X165308Y383555D01*
X165306Y383555D01*
X165305Y383556D01*
X165197Y383592D01*
X165095Y383627D01*
X165094Y383627D01*
X165092Y383628D01*
X164981Y383624D01*
X164871Y383621D01*
X164870Y383620D01*
X164868Y383620D01*
X164766Y383579D01*
X164663Y383537D01*
X164662Y383536D01*
X164660Y383536D01*
X164578Y383464D01*
X164566Y383457D01*
X164557Y383446D01*
X164518Y383413D01*
X158518Y376413D01*
X158486Y376357D01*
X158445Y376306D01*
X158429Y376261D01*
X158405Y376219D01*
X158394Y376155D01*
X158373Y376094D01*
X158374Y376046D01*
X158366Y375998D01*
X158377Y375934D01*
X158379Y375869D01*
X158397Y375825D01*
X158406Y375778D01*
X158439Y375722D01*
X158464Y375662D01*
X158496Y375626D01*
X158521Y375585D01*
X158571Y375544D01*
X158615Y375496D01*
X158658Y375474D01*
X158695Y375444D01*
X158757Y375423D01*
X158815Y375393D01*
X158870Y375385D01*
X158908Y375372D01*
X158947Y375374D01*
X159000Y375366D01*
X171000Y375366D01*
X171064Y375377D01*
G37*
D10*
X150000Y176000D02*
X220000Y176000D01*
D11*
X270000Y85000D02*
X270023Y86841D01*
X270090Y88680D01*
X270203Y90517D01*
X270361Y92351D01*
X270564Y94181D01*
X270812Y96005D01*
X271104Y97822D01*
X271441Y99632D01*
X271822Y101433D01*
X272248Y103224D01*
X272717Y105003D01*
X273229Y106771D01*
X273785Y108526D01*
X274384Y110267D01*
X275026Y111992D01*
X275709Y113701D01*
X276434Y115393D01*
X277201Y117067D01*
X278008Y118721D01*
X278856Y120355D01*
X279743Y121967D01*
X280670Y123558D01*
X281636Y125125D01*
X282640Y126668D01*
X283681Y128186D01*
X284759Y129677D01*
X285874Y131142D01*
X287024Y132579D01*
X288209Y133988D01*
X289429Y135367D01*
X290681Y136716D01*
X291967Y138033D01*
X293284Y139319D01*
X294633Y140571D01*
X296012Y141791D01*
X297421Y142976D01*
X298858Y144126D01*
X300323Y145241D01*
X301814Y146319D01*
X303332Y147360D01*
X304875Y148364D01*
X306442Y149330D01*
X308033Y150257D01*
X309645Y151144D01*
X311279Y151992D01*
X312933Y152799D01*
X314607Y153566D01*
X316299Y154291D01*
X318008Y154974D01*
X319733Y155616D01*
X321474Y156215D01*
X323229Y156771D01*
X324997Y157283D01*
X326776Y157752D01*
X328567Y158178D01*
X330368Y158559D01*
X332178Y158896D01*
X333995Y159188D01*
X335819Y159436D01*
X337649Y159639D01*
X339483Y159797D01*
X341320Y159910D01*
X343159Y159977D01*
X345000Y160000D01*
X346841Y159977D01*
X348680Y159910D01*
X350517Y159797D01*
X352351Y159639D01*
X354181Y159436D01*
X356005Y159188D01*
X357822Y158896D01*
X359632Y158559D01*
X361433Y158178D01*
X363224Y157752D01*
X365003Y157283D01*
X366771Y156771D01*
X368526Y156215D01*
X370267Y155616D01*
X371992Y154974D01*
X373701Y154291D01*
X375393Y153566D01*
X377067Y152799D01*
X378721Y151992D01*
X380355Y151144D01*
X381967Y150257D01*
X383558Y149330D01*
X385125Y148364D01*
X386668Y147360D01*
X388186Y146319D01*
X389677Y145241D01*
X391142Y144126D01*
X392579Y142976D01*
X393988Y141791D01*
X395367Y140571D01*
X396716Y139319D01*
X398033Y138033D01*
X399319Y136716D01*
X400571Y135367D01*
X401791Y133988D01*
X402976Y132579D01*
X404126Y131142D01*
X405241Y129677D01*
X406319Y128186D01*
X407360Y126668D01*
X408364Y125125D01*
X409330Y123558D01*
X410257Y121967D01*
X411144Y120355D01*
X411992Y118721D01*
X412799Y117067D01*
X413566Y115393D01*
X414291Y113701D01*
X414974Y111992D01*
X415616Y110267D01*
X416215Y108526D01*
X416771Y106771D01*
X417283Y105003D01*
X417752Y103224D01*
X418178Y101433D01*
X418559Y99632D01*
X418896Y97822D01*
X419188Y96005D01*
X419436Y94181D01*
X419639Y92351D01*
X419797Y90517D01*
X419910Y88680D01*
X419977Y86841D01*
X420000Y85000D01*
X419977Y83159D01*
X419910Y81320D01*
X419797Y79483D01*
X419639Y77649D01*
X419436Y75819D01*
X419188Y73995D01*
X418896Y72178D01*
X418559Y70368D01*
X418178Y68567D01*
X417752Y66776D01*
X417283Y64997D01*
X416771Y63229D01*
X416215Y61474D01*
X415616Y59733D01*
X414974Y58008D01*
X414291Y56299D01*
X413566Y54607D01*
X412799Y52933D01*
X411992Y51279D01*
X411144Y49645D01*
X410257Y48033D01*
X409330Y46442D01*
X408364Y44875D01*
X407360Y43332D01*
X406319Y41814D01*
X405241Y40323D01*
X404126Y38858D01*
X402976Y37421D01*
X401791Y36012D01*
X400571Y34633D01*
X399319Y33284D01*
X398033Y31967D01*
X396716Y30681D01*
X395367Y29429D01*
X393988Y28209D01*
X392579Y27024D01*
X391142Y25874D01*
X389677Y24759D01*
X388186Y23681D01*
X386668Y22640D01*
X385125Y21636D01*
X383558Y20670D01*
X381967Y19743D01*
X380355Y18856D01*
X378721Y18008D01*
X377067Y17201D01*
X375393Y16434D01*
X373701Y15709D01*
X371992Y15026D01*
X370267Y14384D01*
X368526Y13785D01*
X366771Y13229D01*
X365003Y12717D01*
X363224Y12248D01*
X361433Y11822D01*
X359632Y11441D01*
X357822Y11104D01*
X356005Y10812D01*
X354181Y10564D01*
X352351Y10361D01*
X350517Y10203D01*
X348680Y10090D01*
X346841Y10023D01*
X345000Y10000D01*
X343159Y10023D01*
X341320Y10090D01*
X339483Y10203D01*
X337649Y10361D01*
X335819Y10564D01*
X333995Y10812D01*
X332178Y11104D01*
X330368Y11441D01*
X328567Y11822D01*
X326776Y12248D01*
X324997Y12717D01*
X323229Y13229D01*
X321474Y13785D01*
X319733Y14384D01*
X318008Y15026D01*
X316299Y15709D01*
X314607Y16434D01*
X312933Y17201D01*
X311279Y18008D01*
X309645Y18856D01*
X308033Y19743D01*
X306442Y20670D01*
X304875Y21636D01*
X303332Y22640D01*
X301814Y23681D01*
X300323Y24759D01*
X298858Y25874D01*
X297421Y27024D01*
X296012Y28209D01*
X294633Y29429D01*
X293284Y30681D01*
X291967Y31967D01*
X290681Y33284D01*
X289429Y34633D01*
X288209Y36012D01*
X287024Y37421D01*
X285874Y38858D01*
X284759Y40323D01*
X283681Y41814D01*
X282640Y43332D01*
X281636Y44875D01*
X280670Y46442D01*
X279743Y48033D01*
X278856Y49645D01*
X278008Y51279D01*
X277201Y52933D01*
X276434Y54607D01*
X275709Y56299D01*
X275026Y58008D01*
X274384Y59733D01*
X273785Y61474D01*
X273229Y63229D01*
X272717Y64997D01*
X272248Y66776D01*
X271822Y68567D01*
X271441Y70368D01*
X271104Y72178D01*
X270812Y73995D01*
X270564Y75819D01*
X270361Y77649D01*
X270203Y79483D01*
X270090Y81320D01*
X270023Y83159D01*
X270000Y85000D01*
X140000Y40000D02*
X117500Y40000D01*
D12*
X117500Y0D02*
X140000Y0D01*
X140000Y10000D02*
X117500Y10000D01*
X117500Y20000D02*
X140000Y20000D01*
X140000Y30000D02*
X117500Y30000D01*
X117500Y50000D02*
X140000Y50000D01*
X140000Y60000D02*
X117500Y60000D01*
X117500Y70000D02*
X140000Y70000D01*
X140000Y80000D02*
X117500Y80000D01*
D11*
X117500Y90000D02*
X140000Y90000D01*
D12*
X140000Y100000D02*
X117500Y100000D01*
X117500Y110000D02*
X140000Y110000D01*
X140000Y120000D02*
X117500Y120000D01*
X117500Y130000D02*
X140000Y130000D01*
D11*
X140000Y140000D02*
X117500Y140000D01*
D12*
X117500Y150000D02*
X140000Y150000D01*
X140000Y160000D02*
X117500Y160000D01*
X117500Y170000D02*
X140000Y170000D01*
X140000Y180000D02*
X117500Y180000D01*
D11*
X117500Y190000D02*
X140000Y190000D01*
X140000Y240000D02*
X117500Y240000D01*
D12*
X117500Y200000D02*
X140000Y200000D01*
X140000Y210000D02*
X117500Y210000D01*
X117500Y220000D02*
X140000Y220000D01*
X140000Y230000D02*
X117500Y230000D01*
D13*
X176978Y9470D03*
D14*
X187040Y9470D03*
D15*
X197103Y9470D03*
D16*
X211900Y9470D03*
D17*
X226106Y9470D03*
D18*
X240311Y9470D03*
D14*
X254517Y9470D03*
D19*
X477071Y9470D03*
D13*
X176978Y10654D03*
D18*
X187040Y10654D03*
D20*
X197695Y10654D03*
D16*
X211900Y10654D03*
X226106Y10654D03*
D18*
X240311Y10654D03*
D16*
X254517Y10654D03*
D19*
X478255Y10654D03*
D21*
X176978Y11838D03*
X181713Y11838D03*
D22*
X192368Y11838D03*
D21*
X198286Y11838D03*
D22*
X207757Y11838D03*
X220779Y11838D03*
X231433Y11838D03*
X236168Y11838D03*
X249190Y11838D03*
D21*
X259844Y11838D03*
D22*
X480031Y11838D03*
D13*
X176978Y13022D03*
D19*
X183489Y13022D03*
D15*
X192368Y13022D03*
D13*
X199470Y13022D03*
D20*
X207165Y13022D03*
D19*
X222554Y13022D03*
D15*
X231433Y13022D03*
D20*
X235576Y13022D03*
D19*
X250965Y13022D03*
D13*
X259844Y13022D03*
D23*
X427944Y13022D03*
D24*
X436822Y13022D03*
D16*
X446293Y13022D03*
D24*
X454579Y13022D03*
D13*
X458722Y13022D03*
D15*
X468193Y13022D03*
D25*
X475296Y13022D03*
D15*
X480031Y13022D03*
D14*
X488909Y13022D03*
D26*
X498972Y13022D03*
D27*
X510809Y13022D03*
D26*
X522648Y13022D03*
D21*
X176978Y14206D03*
X181713Y14206D03*
D28*
X185857Y14206D03*
D22*
X192368Y14206D03*
D29*
X200062Y14206D03*
D30*
X211308Y14206D03*
D29*
X220187Y14206D03*
D31*
X224922Y14206D03*
D22*
X231433Y14206D03*
D30*
X239719Y14206D03*
D29*
X248598Y14206D03*
D31*
X253333Y14206D03*
D21*
X259844Y14206D03*
D32*
X429128Y14206D03*
D33*
X436822Y14206D03*
D34*
X445701Y14206D03*
D33*
X454579Y14206D03*
D21*
X458722Y14206D03*
D22*
X468193Y14206D03*
D35*
X474704Y14206D03*
D22*
X480031Y14206D03*
D30*
X488317Y14206D03*
D36*
X499564Y14206D03*
D32*
X510810Y14206D03*
X522648Y14206D03*
D13*
X176978Y15389D03*
X181713Y15389D03*
D37*
X188224Y15389D03*
D15*
X192368Y15389D03*
X200654Y15389D03*
D14*
X211900Y15389D03*
D15*
X220779Y15389D03*
D37*
X227289Y15389D03*
D15*
X231433Y15389D03*
D14*
X240311Y15389D03*
D15*
X249190Y15389D03*
D38*
X255701Y15389D03*
D13*
X259844Y15389D03*
D20*
X433271Y15389D03*
D15*
X440966Y15389D03*
X450436Y15389D03*
D39*
X463458Y15389D03*
D15*
X472928Y15389D03*
X480031Y15389D03*
X484766Y15389D03*
X491869Y15389D03*
D13*
X495420Y15389D03*
D15*
X503707Y15389D03*
D13*
X507258Y15389D03*
X514361Y15389D03*
D20*
X518505Y15389D03*
D15*
X526199Y15389D03*
D13*
X176978Y16573D03*
X181713Y16573D03*
D19*
X190592Y16573D03*
D15*
X201838Y16573D03*
D13*
X216043Y16573D03*
D15*
X220779Y16573D03*
D19*
X229657Y16573D03*
D15*
X244455Y16573D03*
X249190Y16573D03*
D19*
X258068Y16573D03*
D20*
X433271Y16573D03*
D15*
X440966Y16573D03*
X450436Y16573D03*
D39*
X463458Y16573D03*
D15*
X472928Y16573D03*
X480031Y16573D03*
X484766Y16573D03*
X491869Y16573D03*
D40*
X498380Y16573D03*
D20*
X503115Y16573D03*
D13*
X507258Y16573D03*
X514361Y16573D03*
D20*
X518505Y16573D03*
D15*
X526199Y16573D03*
D21*
X176978Y17757D03*
X181713Y17757D03*
D28*
X191776Y17757D03*
D22*
X201838Y17757D03*
D21*
X216043Y17757D03*
D22*
X220779Y17757D03*
D28*
X230841Y17757D03*
D22*
X244455Y17757D03*
X249190Y17757D03*
D31*
X259252Y17757D03*
D29*
X433271Y17757D03*
D22*
X440966Y17757D03*
D41*
X447476Y17757D03*
D21*
X458722Y17757D03*
D22*
X468193Y17757D03*
D29*
X472336Y17757D03*
D22*
X480031Y17757D03*
D29*
X484174Y17757D03*
D22*
X491869Y17757D03*
D42*
X498971Y17757D03*
D29*
X503115Y17757D03*
D21*
X507258Y17757D03*
X514361Y17757D03*
X519096Y17757D03*
D22*
X526199Y17757D03*
D37*
X176386Y18941D03*
D18*
X187040Y18941D03*
D15*
X203022Y18941D03*
D14*
X211900Y18941D03*
D16*
X226106Y18941D03*
D14*
X240311Y18941D03*
D16*
X254517Y18941D03*
D20*
X433271Y18941D03*
D15*
X440966Y18941D03*
D27*
X446884Y18941D03*
D13*
X458722Y18941D03*
D15*
X468193Y18941D03*
X472928Y18941D03*
X480031Y18941D03*
X484766Y18941D03*
X491869Y18941D03*
X503707Y18941D03*
D13*
X507258Y18941D03*
X514361Y18941D03*
X519096Y18941D03*
D15*
X526199Y18941D03*
D31*
X176386Y20125D03*
D43*
X187040Y20125D03*
D29*
X203614Y20125D03*
D44*
X211308Y20125D03*
D45*
X226106Y20125D03*
D44*
X239719Y20125D03*
D43*
X254517Y20125D03*
D29*
X433271Y20125D03*
D22*
X440966Y20125D03*
D21*
X458722Y20125D03*
D22*
X468193Y20125D03*
D41*
X475887Y20125D03*
D22*
X484766Y20125D03*
X491869Y20125D03*
D44*
X500155Y20125D03*
D32*
X510810Y20125D03*
D36*
X522056Y20125D03*
D20*
X433271Y21308D03*
D15*
X440966Y21308D03*
D13*
X459906Y21308D03*
D15*
X468193Y21308D03*
D13*
X514361Y21308D03*
D20*
X433271Y22492D03*
D39*
X445701Y22492D03*
D16*
X464050Y22492D03*
D13*
X514361Y22492D03*
D29*
X433271Y23676D03*
D46*
X446293Y23676D03*
D44*
X464641Y23676D03*
D21*
X514361Y23676D03*
D20*
X514953Y24860D03*
D43*
X441557Y29595D03*
D19*
X442741Y30779D03*
D22*
X444517Y31963D03*
D27*
X429127Y33146D03*
D14*
X441557Y33146D03*
D23*
X429128Y34330D03*
D19*
X439190Y34330D03*
D15*
X444517Y34330D03*
D21*
X425576Y35514D03*
D22*
X432679Y35514D03*
D21*
X437414Y35514D03*
D22*
X444517Y35514D03*
D24*
X424984Y36698D03*
D15*
X432679Y36698D03*
D13*
X437414Y36698D03*
D15*
X444517Y36698D03*
D33*
X424984Y37882D03*
D22*
X432679Y37882D03*
D33*
X436822Y37882D03*
D22*
X444517Y37882D03*
D13*
X425576Y39065D03*
D15*
X432679Y39065D03*
D24*
X436822Y39065D03*
D15*
X444517Y39065D03*
D23*
X429128Y40249D03*
D13*
X437414Y40249D03*
D15*
X444517Y40249D03*
D21*
X425576Y41433D03*
D24*
X424984Y42617D03*
D21*
X425576Y43801D03*
D24*
X424984Y44984D03*
D28*
X368162Y174019D03*
D44*
X385327Y174019D03*
X394797Y174019D03*
D25*
X367570Y175202D03*
D27*
X385327Y175202D03*
X394797Y175202D03*
D25*
X367570Y176386D03*
D27*
X385327Y176386D03*
X394797Y176386D03*
D47*
X367570Y177570D03*
D44*
X385327Y177570D03*
X394797Y177570D03*
D48*
X416698Y177570D03*
D31*
X429719Y177570D03*
D21*
X437414Y177570D03*
X443333Y177570D03*
D30*
X453987Y177570D03*
D31*
X464049Y177570D03*
D21*
X478847Y177570D03*
D31*
X488909Y177570D03*
D41*
X511401Y177570D03*
D21*
X525015Y177570D03*
D25*
X367570Y178754D03*
D27*
X385327Y178754D03*
X394797Y178754D03*
D49*
X417290Y178754D03*
D13*
X429127Y178754D03*
X437414Y178754D03*
D37*
X443925Y178754D03*
D39*
X453987Y178754D03*
D15*
X463458Y178754D03*
D13*
X478847Y178754D03*
D37*
X488909Y178754D03*
D16*
X511402Y178754D03*
D13*
X525015Y178754D03*
D47*
X367570Y179938D03*
D44*
X385327Y179938D03*
X394797Y179938D03*
D31*
X423800Y179938D03*
X429719Y179938D03*
D21*
X437414Y179938D03*
X443333Y179938D03*
D22*
X449252Y179938D03*
D21*
X458722Y179938D03*
D31*
X464049Y179938D03*
D21*
X478847Y179938D03*
D31*
X488909Y179938D03*
X506666Y179938D03*
D28*
X516137Y179938D03*
D21*
X525015Y179938D03*
D25*
X367570Y181121D03*
D27*
X385327Y181121D03*
X394797Y181121D03*
D13*
X424392Y181121D03*
D37*
X429719Y181121D03*
D13*
X437414Y181121D03*
X443333Y181121D03*
D15*
X449252Y181121D03*
D13*
X458722Y181121D03*
D15*
X463458Y181121D03*
D13*
X478847Y181121D03*
D37*
X488909Y181121D03*
D27*
X495420Y181121D03*
D13*
X506074Y181121D03*
D15*
X516729Y181121D03*
D13*
X525015Y181121D03*
D25*
X367570Y182305D03*
D20*
X375265Y182305D03*
D27*
X385327Y182305D03*
X394797Y182305D03*
D13*
X424392Y182305D03*
X429127Y182305D03*
X437414Y182305D03*
D37*
X443925Y182305D03*
D14*
X452211Y182305D03*
D37*
X459314Y182305D03*
D15*
X463458Y182305D03*
D13*
X478847Y182305D03*
D37*
X488909Y182305D03*
D23*
X496604Y182305D03*
D13*
X506074Y182305D03*
D15*
X516729Y182305D03*
D13*
X525015Y182305D03*
D47*
X367570Y183489D03*
D31*
X375264Y183489D03*
D44*
X385327Y183489D03*
X394797Y183489D03*
D34*
X419657Y183489D03*
D31*
X429719Y183489D03*
D21*
X437414Y183489D03*
X443333Y183489D03*
D41*
X452211Y183489D03*
D21*
X458722Y183489D03*
D31*
X464049Y183489D03*
D21*
X478847Y183489D03*
D31*
X488909Y183489D03*
D46*
X497196Y183489D03*
D21*
X506074Y183489D03*
D22*
X516729Y183489D03*
D21*
X525015Y183489D03*
D25*
X367570Y184673D03*
D50*
X375856Y184673D03*
D27*
X385327Y184673D03*
X394797Y184673D03*
D51*
X417882Y184673D03*
D37*
X429719Y184673D03*
D13*
X437414Y184673D03*
D37*
X443925Y184673D03*
D19*
X453395Y184673D03*
D37*
X459314Y184673D03*
X464049Y184673D03*
D13*
X478847Y184673D03*
D37*
X488909Y184673D03*
X501931Y184673D03*
D13*
X506074Y184673D03*
D15*
X516729Y184673D03*
D13*
X525015Y184673D03*
D47*
X367570Y185857D03*
D43*
X375264Y185857D03*
D44*
X385327Y185857D03*
D34*
X397165Y185857D03*
D48*
X416698Y185857D03*
D31*
X429719Y185857D03*
X436822Y185857D03*
X443925Y185857D03*
D21*
X458722Y185857D03*
D31*
X464049Y185857D03*
D21*
X478847Y185857D03*
D31*
X488909Y185857D03*
X501931Y185857D03*
X506666Y185857D03*
D28*
X516137Y185857D03*
D21*
X525015Y185857D03*
D25*
X367570Y187040D03*
D27*
X375856Y187040D03*
X385327Y187040D03*
D39*
X397165Y187040D03*
D13*
X411370Y187040D03*
D52*
X436230Y187040D03*
D23*
X455171Y187040D03*
X468193Y187040D03*
D16*
X479439Y187040D03*
D37*
X488909Y187040D03*
X501931Y187040D03*
D16*
X511402Y187040D03*
D18*
X525607Y187040D03*
D25*
X367570Y188224D03*
D17*
X375265Y188224D03*
D27*
X385327Y188224D03*
D39*
X397165Y188224D03*
D13*
X411370Y188224D03*
D53*
X435638Y188224D03*
D14*
X454579Y188224D03*
D17*
X468785Y188224D03*
D16*
X479439Y188224D03*
D37*
X488909Y188224D03*
X501931Y188224D03*
D14*
X511401Y188224D03*
D18*
X525607Y188224D03*
D47*
X367570Y189408D03*
D32*
X375857Y189408D03*
D44*
X385327Y189408D03*
D41*
X395389Y189408D03*
D31*
X411962Y189408D03*
D21*
X478847Y189408D03*
D31*
X488909Y189408D03*
D21*
X501339Y189408D03*
X525015Y189408D03*
D54*
X377040Y190592D03*
D27*
X394797Y190592D03*
D51*
X417882Y190592D03*
D13*
X478847Y190592D03*
D55*
X495420Y190592D03*
D13*
X525015Y190592D03*
D56*
X377040Y191776D03*
D44*
X394797Y191776D03*
D48*
X417882Y191776D03*
D21*
X478847Y191776D03*
D34*
X495420Y191776D03*
D21*
X525015Y191776D03*
D39*
X371121Y192959D03*
D18*
X383551Y192959D03*
D14*
X395389Y192959D03*
D18*
X370529Y194143D03*
D57*
X384143Y194143D03*
D39*
X397165Y194143D03*
D30*
X369937Y195327D03*
D44*
X384143Y195327D03*
D46*
X397757Y195327D03*
D57*
X369937Y196511D03*
D27*
X384143Y196511D03*
D23*
X398349Y196511D03*
D41*
X369345Y197695D03*
D29*
X377632Y197695D03*
D42*
X384143Y197695D03*
D29*
X390654Y197695D03*
D32*
X398349Y197695D03*
D14*
X369345Y198878D03*
D37*
X377632Y198878D03*
X383551Y198878D03*
X390654Y198878D03*
D14*
X398940Y198878D03*
D19*
X369345Y200062D03*
D37*
X377632Y200062D03*
D15*
X384143Y200062D03*
D50*
X390062Y200062D03*
D14*
X398940Y200062D03*
D43*
X377632Y201246D03*
X390654Y201246D03*
D27*
X378224Y202430D03*
X390062Y202430D03*
D41*
X377632Y203614D03*
D36*
X390654Y203614D03*
D16*
X377632Y204797D03*
D23*
X390062Y204797D03*
D37*
X411962Y204797D03*
D13*
X424392Y204797D03*
D37*
X430903Y204797D03*
D15*
X438598Y204797D03*
D38*
X445109Y204797D03*
D23*
X456355Y204797D03*
D37*
X466417Y204797D03*
D27*
X476479Y204797D03*
D15*
X485950Y204797D03*
D13*
X496604Y204797D03*
D15*
X504891Y204797D03*
D16*
X377632Y205981D03*
D39*
X390062Y205981D03*
D37*
X411962Y205981D03*
X424984Y205981D03*
X430903Y205981D03*
D15*
X438598Y205981D03*
D38*
X445109Y205981D03*
D39*
X456355Y205981D03*
D13*
X465825Y205981D03*
D14*
X475887Y205981D03*
D38*
X486542Y205981D03*
D13*
X496604Y205981D03*
D15*
X504891Y205981D03*
D58*
X384143Y207165D03*
D31*
X411962Y207165D03*
D21*
X424392Y207165D03*
D31*
X430903Y207165D03*
D22*
X438598Y207165D03*
X444517Y207165D03*
D28*
X451028Y207165D03*
D31*
X460498Y207165D03*
X466417Y207165D03*
X472336Y207165D03*
D22*
X485950Y207165D03*
D21*
X496604Y207165D03*
D22*
X504891Y207165D03*
D59*
X384143Y208349D03*
D52*
X418473Y208349D03*
D13*
X430311Y208349D03*
D15*
X438598Y208349D03*
D38*
X445109Y208349D03*
D15*
X450436Y208349D03*
X461090Y208349D03*
D13*
X465825Y208349D03*
X471744Y208349D03*
D50*
X477663Y208349D03*
D38*
X486542Y208349D03*
D13*
X496604Y208349D03*
D15*
X504891Y208349D03*
D32*
X374673Y209533D03*
D46*
X385919Y209533D03*
D42*
X395981Y209533D03*
D60*
X418473Y209533D03*
D31*
X430903Y209533D03*
D22*
X438598Y209533D03*
X444517Y209533D03*
X450436Y209533D03*
X461090Y209533D03*
D31*
X466417Y209533D03*
D21*
X471744Y209533D03*
D41*
X478255Y209533D03*
D28*
X486542Y209533D03*
D21*
X496604Y209533D03*
D22*
X504891Y209533D03*
D17*
X374081Y210716D03*
X385919Y210716D03*
D50*
X395981Y210716D03*
D52*
X418473Y210716D03*
D13*
X430311Y210716D03*
D15*
X438598Y210716D03*
D38*
X445109Y210716D03*
D15*
X450436Y210716D03*
X461090Y210716D03*
D37*
X466417Y210716D03*
D13*
X471744Y210716D03*
D17*
X479439Y210716D03*
D15*
X485950Y210716D03*
D13*
X496604Y210716D03*
D15*
X504891Y210716D03*
D23*
X373489Y211900D03*
D17*
X385919Y211900D03*
D25*
X397165Y211900D03*
D37*
X411962Y211900D03*
X424984Y211900D03*
D13*
X430311Y211900D03*
D15*
X438598Y211900D03*
X444517Y211900D03*
D38*
X451028Y211900D03*
D15*
X461090Y211900D03*
D37*
X466417Y211900D03*
D13*
X471744Y211900D03*
X482398Y211900D03*
D15*
X485950Y211900D03*
D13*
X496604Y211900D03*
D15*
X504891Y211900D03*
D36*
X372897Y213084D03*
D35*
X385919Y213084D03*
D47*
X397165Y213084D03*
D31*
X411962Y213084D03*
X424984Y213084D03*
X430903Y213084D03*
X438006Y213084D03*
D22*
X444517Y213084D03*
D28*
X451028Y213084D03*
D31*
X460498Y213084D03*
D21*
X465825Y213084D03*
D31*
X472336Y213084D03*
X481806Y213084D03*
D28*
X486542Y213084D03*
D31*
X496012Y213084D03*
D22*
X504891Y213084D03*
D14*
X371713Y214268D03*
D38*
X385919Y214268D03*
D50*
X398348Y214268D03*
D37*
X411962Y214268D03*
X424984Y214268D03*
D52*
X437414Y214268D03*
D15*
X450436Y214268D03*
D17*
X458131Y214268D03*
D37*
X466417Y214268D03*
D39*
X477663Y214268D03*
X490685Y214268D03*
D16*
X505483Y214268D03*
D30*
X371121Y215452D03*
D28*
X385919Y215452D03*
D42*
X399532Y215452D03*
D21*
X412554Y215452D03*
D31*
X424984Y215452D03*
D61*
X436822Y215452D03*
D22*
X450436Y215452D03*
D62*
X457539Y215452D03*
D21*
X465825Y215452D03*
D30*
X476479Y215452D03*
D63*
X490093Y215452D03*
D46*
X505483Y215452D03*
D14*
X370529Y216635D03*
D20*
X385919Y216635D03*
D50*
X399532Y216635D03*
X413738Y216635D03*
D13*
X424392Y216635D03*
D38*
X451028Y216635D03*
D15*
X504891Y216635D03*
D57*
X369937Y217819D03*
D50*
X400716Y217819D03*
D49*
X419657Y217819D03*
D15*
X450436Y217819D03*
X504891Y217819D03*
D41*
X369345Y219003D03*
D42*
X400716Y219003D03*
D46*
X420249Y219003D03*
D28*
X451028Y219003D03*
D21*
X465825Y219003D03*
D22*
X504891Y219003D03*
D23*
X368754Y220187D03*
D50*
X401900Y220187D03*
D15*
X450436Y220187D03*
D37*
X466417Y220187D03*
D64*
X426760Y227290D03*
D65*
X426168Y228473D03*
D66*
X426760Y229657D03*
D42*
X374672Y230841D03*
X477663Y230841D03*
D50*
X373489Y232025D03*
X478847Y232025D03*
D31*
X372897Y233209D03*
D42*
X480031Y233209D03*
D50*
X372305Y234392D03*
D38*
X480623Y234392D03*
D37*
X371713Y235576D03*
D38*
X480623Y235576D03*
D31*
X371713Y236760D03*
D28*
X480623Y236760D03*
D37*
X371713Y237944D03*
D38*
X480623Y237944D03*
D31*
X371713Y239128D03*
D28*
X480623Y239128D03*
D37*
X371713Y240311D03*
D38*
X480623Y240311D03*
D37*
X371713Y241495D03*
D38*
X480623Y241495D03*
D31*
X371713Y242679D03*
D28*
X480623Y242679D03*
D37*
X371713Y243863D03*
D38*
X480623Y243863D03*
D31*
X371713Y245047D03*
D28*
X480623Y245047D03*
D37*
X371713Y246230D03*
D38*
X480623Y246230D03*
D37*
X371713Y247414D03*
D38*
X480623Y247414D03*
D31*
X371713Y248598D03*
D34*
X385327Y248598D03*
D21*
X394797Y248598D03*
D29*
X401308Y248598D03*
D33*
X407227Y248598D03*
D46*
X416698Y248598D03*
D34*
X435047Y248598D03*
D41*
X447476Y248598D03*
D32*
X462274Y248598D03*
D28*
X480623Y248598D03*
D37*
X371713Y249782D03*
D39*
X386511Y249782D03*
D15*
X395981Y249782D03*
D37*
X401308Y249782D03*
D13*
X407819Y249782D03*
D16*
X416698Y249782D03*
D39*
X435047Y249782D03*
D18*
X448660Y249782D03*
D16*
X462866Y249782D03*
D38*
X480623Y249782D03*
D31*
X371713Y250966D03*
D21*
X381775Y250966D03*
D22*
X392430Y250966D03*
X395981Y250966D03*
D42*
X401900Y250966D03*
D21*
X407819Y250966D03*
X412554Y250966D03*
D22*
X431495Y250966D03*
X444517Y250966D03*
X452804Y250966D03*
D31*
X458130Y250966D03*
D22*
X468193Y250966D03*
D28*
X480623Y250966D03*
D37*
X371713Y252149D03*
D13*
X381775Y252149D03*
D15*
X392430Y252149D03*
X395981Y252149D03*
D13*
X400716Y252149D03*
D15*
X404268Y252149D03*
X409003Y252149D03*
D13*
X412554Y252149D03*
D15*
X431495Y252149D03*
X444517Y252149D03*
D13*
X453987Y252149D03*
D15*
X457539Y252149D03*
X461090Y252149D03*
X469377Y252149D03*
D38*
X480623Y252149D03*
D37*
X371713Y253333D03*
D39*
X387695Y253333D03*
D15*
X397165Y253333D03*
D13*
X400716Y253333D03*
D15*
X405452Y253333D03*
X409003Y253333D03*
D57*
X417289Y253333D03*
D14*
X435638Y253333D03*
D16*
X449844Y253333D03*
D15*
X457539Y253333D03*
D38*
X462866Y253333D03*
D13*
X470560Y253333D03*
D38*
X480623Y253333D03*
D31*
X371713Y254517D03*
D21*
X382959Y254517D03*
D44*
X388878Y254517D03*
D43*
X398940Y254517D03*
D42*
X407819Y254517D03*
D22*
X413738Y254517D03*
D44*
X419657Y254517D03*
D30*
X437414Y254517D03*
D41*
X449844Y254517D03*
D21*
X458722Y254517D03*
D31*
X465233Y254517D03*
D21*
X470560Y254517D03*
D28*
X480623Y254517D03*
D37*
X371713Y255701D03*
D13*
X382959Y255701D03*
D38*
X391838Y255701D03*
D50*
X398348Y255701D03*
D37*
X408411Y255701D03*
D15*
X413738Y255701D03*
D13*
X442149Y255701D03*
X446884Y255701D03*
X453987Y255701D03*
X458722Y255701D03*
D37*
X466417Y255701D03*
D13*
X470560Y255701D03*
D38*
X480623Y255701D03*
D31*
X371713Y256885D03*
D22*
X384143Y256885D03*
X392430Y256885D03*
D31*
X398940Y256885D03*
D28*
X409595Y256885D03*
D22*
X414922Y256885D03*
D21*
X442149Y256885D03*
X446884Y256885D03*
X453987Y256885D03*
X459906Y256885D03*
D42*
X469376Y256885D03*
D28*
X480623Y256885D03*
D37*
X371713Y258068D03*
D15*
X384143Y258068D03*
D37*
X393021Y258068D03*
X398940Y258068D03*
D15*
X410187Y258068D03*
X414922Y258068D03*
D13*
X442149Y258068D03*
X448068Y258068D03*
X453987Y258068D03*
D15*
X461090Y258068D03*
D37*
X469968Y258068D03*
D38*
X480623Y258068D03*
D37*
X371713Y259252D03*
D39*
X388878Y259252D03*
D37*
X398940Y259252D03*
X410778Y259252D03*
D39*
X419657Y259252D03*
D23*
X438598Y259252D03*
D17*
X451028Y259252D03*
D16*
X466417Y259252D03*
D38*
X480623Y259252D03*
D31*
X371713Y260436D03*
D44*
X388878Y260436D03*
D29*
X398941Y260436D03*
D32*
X420841Y260436D03*
D43*
X438006Y260436D03*
D22*
X451620Y260436D03*
D31*
X466417Y260436D03*
D28*
X480623Y260436D03*
D37*
X371713Y261620D03*
D38*
X480623Y261620D03*
D31*
X371713Y262804D03*
D28*
X480623Y262804D03*
D37*
X371713Y263987D03*
D38*
X480623Y263987D03*
D37*
X371713Y265171D03*
D38*
X480623Y265171D03*
D31*
X371713Y266355D03*
D28*
X480623Y266355D03*
D37*
X371713Y267539D03*
D38*
X480623Y267539D03*
D31*
X371713Y268723D03*
D28*
X480623Y268723D03*
D37*
X371713Y269906D03*
D38*
X480623Y269906D03*
D37*
X371713Y271090D03*
D38*
X480623Y271090D03*
D31*
X371713Y272274D03*
D28*
X480623Y272274D03*
D37*
X371713Y273458D03*
D38*
X480623Y273458D03*
D31*
X371713Y274642D03*
D28*
X480623Y274642D03*
D37*
X371713Y275825D03*
D38*
X480623Y275825D03*
D37*
X371713Y277009D03*
D38*
X480623Y277009D03*
D31*
X371713Y278193D03*
D28*
X480623Y278193D03*
D37*
X371713Y279377D03*
D38*
X480623Y279377D03*
D31*
X371713Y280561D03*
D28*
X480623Y280561D03*
D37*
X371713Y281744D03*
D38*
X480623Y281744D03*
D37*
X371713Y282928D03*
D16*
X403676Y282928D03*
D18*
X417881Y282928D03*
D13*
X429127Y282928D03*
D15*
X439782Y282928D03*
D38*
X480623Y282928D03*
D31*
X371713Y284112D03*
D48*
X404860Y284112D03*
D67*
X418473Y284112D03*
D21*
X429127Y284112D03*
D22*
X439782Y284112D03*
D28*
X480623Y284112D03*
D37*
X371713Y285296D03*
D15*
X410187Y285296D03*
X413738Y285296D03*
D37*
X423800Y285296D03*
D13*
X429127Y285296D03*
D15*
X439782Y285296D03*
D38*
X480623Y285296D03*
D31*
X371713Y286480D03*
D22*
X410187Y286480D03*
X413738Y286480D03*
D21*
X424392Y286480D03*
D48*
X434455Y286480D03*
D28*
X480623Y286480D03*
D37*
X371713Y287663D03*
D38*
X409595Y287663D03*
D15*
X413738Y287663D03*
D13*
X424392Y287663D03*
D51*
X434455Y287663D03*
D38*
X480623Y287663D03*
D37*
X371713Y288847D03*
D16*
X404860Y288847D03*
D15*
X413738Y288847D03*
D13*
X424392Y288847D03*
X429127Y288847D03*
D15*
X439782Y288847D03*
D38*
X480623Y288847D03*
D31*
X371713Y290031D03*
D32*
X403084Y290031D03*
D22*
X413738Y290031D03*
D21*
X424392Y290031D03*
X429127Y290031D03*
D22*
X439782Y290031D03*
D28*
X480623Y290031D03*
D37*
X371713Y291215D03*
D13*
X399532Y291215D03*
D15*
X413738Y291215D03*
D13*
X424392Y291215D03*
X429127Y291215D03*
D15*
X439782Y291215D03*
D38*
X480623Y291215D03*
D31*
X371713Y292399D03*
D21*
X399532Y292399D03*
D22*
X413738Y292399D03*
D21*
X424392Y292399D03*
X430311Y292399D03*
D22*
X439782Y292399D03*
D28*
X480623Y292399D03*
D37*
X371713Y293582D03*
D39*
X404268Y293582D03*
D68*
X418473Y293582D03*
D18*
X435638Y293582D03*
D38*
X480623Y293582D03*
D37*
X371713Y294766D03*
D16*
X404860Y294766D03*
D18*
X417881Y294766D03*
D57*
X436230Y294766D03*
D38*
X480623Y294766D03*
D31*
X371713Y295950D03*
D28*
X480623Y295950D03*
D37*
X371713Y297134D03*
D38*
X480623Y297134D03*
D31*
X371713Y298318D03*
D28*
X480623Y298318D03*
D69*
X60374Y299501D03*
D37*
X371713Y299501D03*
D38*
X480623Y299501D03*
D19*
X61557Y300685D03*
D37*
X371713Y300685D03*
D38*
X480623Y300685D03*
D21*
X63333Y301869D03*
D31*
X371713Y301869D03*
D28*
X480623Y301869D03*
D23*
X11246Y303053D03*
D20*
X20125Y303053D03*
D16*
X29595Y303053D03*
D20*
X37882Y303053D03*
D15*
X42025Y303053D03*
D13*
X51495Y303053D03*
D50*
X58598Y303053D03*
D13*
X63333Y303053D03*
D17*
X72212Y303053D03*
D27*
X82274Y303053D03*
X94112Y303053D03*
X105950Y303053D03*
D37*
X371713Y303053D03*
D38*
X480623Y303053D03*
D32*
X12430Y304237D03*
D29*
X20125Y304237D03*
D34*
X29003Y304237D03*
D29*
X37882Y304237D03*
D22*
X42025Y304237D03*
D21*
X51495Y304237D03*
D43*
X58006Y304237D03*
D21*
X63333Y304237D03*
D32*
X71620Y304237D03*
D41*
X82866Y304237D03*
D32*
X94112Y304237D03*
X105950Y304237D03*
D31*
X371713Y304237D03*
D28*
X480623Y304237D03*
D20*
X16573Y305420D03*
D15*
X24268Y305420D03*
D13*
X33738Y305420D03*
D39*
X46760Y305420D03*
D13*
X56230Y305420D03*
X63333Y305420D03*
X68068Y305420D03*
X75171Y305420D03*
D15*
X78723Y305420D03*
D13*
X87009Y305420D03*
D15*
X90561Y305420D03*
D13*
X97663Y305420D03*
D15*
X102399Y305420D03*
D13*
X109501Y305420D03*
D37*
X371713Y305420D03*
D38*
X480623Y305420D03*
D20*
X16573Y306604D03*
D15*
X24268Y306604D03*
D13*
X33738Y306604D03*
D39*
X46760Y306604D03*
D20*
X55639Y306604D03*
D13*
X63333Y306604D03*
X68068Y306604D03*
X75171Y306604D03*
D19*
X81682Y306604D03*
D20*
X86418Y306604D03*
X89969Y306604D03*
D13*
X97663Y306604D03*
D15*
X102399Y306604D03*
D13*
X109501Y306604D03*
D37*
X371713Y306604D03*
D38*
X480623Y306604D03*
D29*
X16573Y307788D03*
D22*
X24268Y307788D03*
D36*
X30779Y307788D03*
D22*
X42025Y307788D03*
D21*
X51495Y307788D03*
X56230Y307788D03*
X63333Y307788D03*
D29*
X67477Y307788D03*
D21*
X75171Y307788D03*
D42*
X82274Y307788D03*
D29*
X86418Y307788D03*
D22*
X90561Y307788D03*
D21*
X97663Y307788D03*
D29*
X101807Y307788D03*
D21*
X109501Y307788D03*
D31*
X371713Y307788D03*
D46*
X403676Y307788D03*
D63*
X419065Y307788D03*
D48*
X433271Y307788D03*
D28*
X480623Y307788D03*
D20*
X16573Y308972D03*
D15*
X24268Y308972D03*
D26*
X30187Y308972D03*
D15*
X42025Y308972D03*
D13*
X51495Y308972D03*
X56230Y308972D03*
X63333Y308972D03*
D20*
X67477Y308972D03*
D13*
X75171Y308972D03*
D20*
X86418Y308972D03*
D15*
X90561Y308972D03*
D13*
X97663Y308972D03*
D15*
X102399Y308972D03*
D13*
X109501Y308972D03*
D37*
X371713Y308972D03*
D39*
X404268Y308972D03*
D68*
X418473Y308972D03*
D51*
X433271Y308972D03*
D38*
X480623Y308972D03*
D29*
X16573Y310156D03*
D22*
X24268Y310156D03*
X42025Y310156D03*
D21*
X51495Y310156D03*
D41*
X59190Y310156D03*
D21*
X68068Y310156D03*
X75171Y310156D03*
D44*
X83458Y310156D03*
D32*
X94112Y310156D03*
D41*
X105358Y310156D03*
D31*
X371713Y310156D03*
D22*
X410187Y310156D03*
X413738Y310156D03*
X427944Y310156D03*
D28*
X480623Y310156D03*
D20*
X16573Y311339D03*
D15*
X24268Y311339D03*
X43209Y311339D03*
D13*
X51495Y311339D03*
X97663Y311339D03*
D37*
X371713Y311339D03*
D15*
X410187Y311339D03*
X413738Y311339D03*
X427944Y311339D03*
D38*
X480623Y311339D03*
D20*
X16573Y312523D03*
D39*
X29003Y312523D03*
D16*
X47352Y312523D03*
D13*
X97663Y312523D03*
D37*
X371713Y312523D03*
D38*
X409595Y312523D03*
D15*
X413738Y312523D03*
X427944Y312523D03*
D38*
X480623Y312523D03*
D29*
X16573Y313707D03*
D46*
X29595Y313707D03*
D62*
X47944Y313707D03*
D21*
X97663Y313707D03*
D31*
X371713Y313707D03*
D46*
X404860Y313707D03*
D22*
X413738Y313707D03*
X427944Y313707D03*
D28*
X480623Y313707D03*
D24*
X98255Y314891D03*
D37*
X371713Y314891D03*
D23*
X403084Y314891D03*
D15*
X413738Y314891D03*
X427944Y314891D03*
D38*
X480623Y314891D03*
D31*
X371713Y316075D03*
D21*
X399532Y316075D03*
D22*
X413738Y316075D03*
X427944Y316075D03*
D28*
X480623Y316075D03*
D37*
X371713Y317258D03*
D13*
X399532Y317258D03*
D15*
X413738Y317258D03*
X427944Y317258D03*
D38*
X480623Y317258D03*
D37*
X371713Y318442D03*
D39*
X404268Y318442D03*
D68*
X418473Y318442D03*
D15*
X427944Y318442D03*
D38*
X480623Y318442D03*
D45*
X24860Y319626D03*
D31*
X371713Y319626D03*
D46*
X404860Y319626D03*
D63*
X419065Y319626D03*
D22*
X427944Y319626D03*
D28*
X480623Y319626D03*
D19*
X26043Y320810D03*
D37*
X371713Y320810D03*
D38*
X480623Y320810D03*
D21*
X27819Y321994D03*
D31*
X371713Y321994D03*
D28*
X480623Y321994D03*
D26*
X12430Y323177D03*
D17*
X24860Y323177D03*
D37*
X371713Y323177D03*
D38*
X480623Y323177D03*
D23*
X12430Y324361D03*
D19*
X22492Y324361D03*
D13*
X27819Y324361D03*
D37*
X371713Y324361D03*
D38*
X480623Y324361D03*
D21*
X8878Y325545D03*
X15981Y325545D03*
D29*
X20125Y325545D03*
D21*
X27819Y325545D03*
D31*
X371713Y325545D03*
D28*
X480623Y325545D03*
D20*
X8287Y326729D03*
D13*
X15981Y326729D03*
D20*
X20125Y326729D03*
D13*
X27819Y326729D03*
D37*
X371713Y326729D03*
D38*
X480623Y326729D03*
D21*
X8878Y327913D03*
X15981Y327913D03*
D29*
X20125Y327913D03*
D21*
X27819Y327913D03*
D31*
X371713Y327913D03*
D28*
X480623Y327913D03*
D13*
X8878Y329096D03*
X15981Y329096D03*
D15*
X20717Y329096D03*
D13*
X27819Y329096D03*
D37*
X371713Y329096D03*
D38*
X480623Y329096D03*
D20*
X8287Y330280D03*
D27*
X13613Y330280D03*
D20*
X20125Y330280D03*
D13*
X27819Y330280D03*
D37*
X371713Y330280D03*
D38*
X480623Y330280D03*
D29*
X8287Y331464D03*
D31*
X371713Y331464D03*
D28*
X480623Y331464D03*
D13*
X8878Y332648D03*
D37*
X371713Y332648D03*
D38*
X480623Y332648D03*
D29*
X8287Y333832D03*
D31*
X371713Y333832D03*
D34*
X405452Y333832D03*
D22*
X414922Y333832D03*
D21*
X425576Y333832D03*
D63*
X435638Y333832D03*
D28*
X480623Y333832D03*
D20*
X8287Y335015D03*
D37*
X371713Y335015D03*
D51*
X404860Y335015D03*
D15*
X414922Y335015D03*
D37*
X424984Y335015D03*
D68*
X436230Y335015D03*
D38*
X480623Y335015D03*
D37*
X371713Y336199D03*
D13*
X399532Y336199D03*
D15*
X410187Y336199D03*
X414922Y336199D03*
D50*
X424392Y336199D03*
D15*
X431495Y336199D03*
D37*
X441557Y336199D03*
D38*
X480623Y336199D03*
D31*
X371713Y337383D03*
D21*
X399532Y337383D03*
D22*
X410187Y337383D03*
X414922Y337383D03*
D42*
X424392Y337383D03*
D22*
X431495Y337383D03*
D21*
X442149Y337383D03*
D28*
X480623Y337383D03*
D37*
X371713Y338567D03*
D13*
X399532Y338567D03*
D15*
X410187Y338567D03*
X414922Y338567D03*
X422025Y338567D03*
D13*
X425576Y338567D03*
D15*
X431495Y338567D03*
D13*
X442149Y338567D03*
D38*
X480623Y338567D03*
D31*
X371713Y339751D03*
D21*
X399532Y339751D03*
D41*
X407227Y339751D03*
D22*
X414922Y339751D03*
X420841Y339751D03*
D21*
X425576Y339751D03*
D22*
X431495Y339751D03*
D21*
X442149Y339751D03*
D28*
X480623Y339751D03*
D37*
X371713Y340934D03*
D13*
X399532Y340934D03*
D27*
X406635Y340934D03*
D15*
X414922Y340934D03*
D13*
X419657Y340934D03*
X425576Y340934D03*
D15*
X431495Y340934D03*
D13*
X442149Y340934D03*
D38*
X480623Y340934D03*
D37*
X371713Y342118D03*
D13*
X399532Y342118D03*
D15*
X414922Y342118D03*
D13*
X418473Y342118D03*
X425576Y342118D03*
D15*
X431495Y342118D03*
D13*
X442149Y342118D03*
D38*
X480623Y342118D03*
D31*
X371713Y343302D03*
D21*
X399532Y343302D03*
D47*
X416106Y343302D03*
D21*
X425576Y343302D03*
D22*
X431495Y343302D03*
D21*
X442149Y343302D03*
D28*
X480623Y343302D03*
D20*
X185857Y344486D03*
D37*
X371713Y344486D03*
D51*
X404860Y344486D03*
D25*
X416106Y344486D03*
D13*
X425576Y344486D03*
D68*
X436230Y344486D03*
D38*
X480623Y344486D03*
D22*
X185265Y345670D03*
D31*
X371713Y345670D03*
D34*
X405452Y345670D03*
D22*
X414922Y345670D03*
D21*
X425576Y345670D03*
D63*
X435638Y345670D03*
D28*
X480623Y345670D03*
D15*
X185265Y346853D03*
D37*
X371713Y346853D03*
D38*
X480623Y346853D03*
D20*
X185857Y348037D03*
D37*
X371713Y348037D03*
D38*
X480623Y348037D03*
D22*
X185265Y349221D03*
D31*
X371713Y349221D03*
D28*
X480623Y349221D03*
D57*
X181713Y350405D03*
D37*
X371713Y350405D03*
D38*
X480623Y350405D03*
D41*
X181121Y351589D03*
D31*
X371713Y351589D03*
D28*
X480623Y351589D03*
D37*
X371713Y352772D03*
D38*
X480623Y352772D03*
X183489Y353956D03*
D37*
X371713Y353956D03*
D38*
X480623Y353956D03*
D43*
X183489Y355140D03*
D31*
X371713Y355140D03*
D28*
X480623Y355140D03*
D13*
X181713Y356324D03*
D20*
X185857Y356324D03*
D37*
X371713Y356324D03*
D38*
X480623Y356324D03*
D22*
X178162Y357508D03*
D21*
X181713Y357508D03*
D29*
X185857Y357508D03*
D31*
X371713Y357508D03*
D28*
X480623Y357508D03*
D13*
X56230Y358691D03*
D15*
X178162Y358691D03*
D13*
X181713Y358691D03*
D20*
X185857Y358691D03*
D37*
X371713Y358691D03*
D38*
X480623Y358691D03*
D37*
X55638Y359875D03*
D15*
X178162Y359875D03*
D13*
X181713Y359875D03*
D15*
X185265Y359875D03*
D37*
X371713Y359875D03*
D38*
X480623Y359875D03*
D31*
X55638Y361059D03*
D22*
X178162Y361059D03*
D29*
X185857Y361059D03*
D31*
X371713Y361059D03*
D22*
X404268Y361059D03*
D63*
X419065Y361059D03*
D46*
X433271Y361059D03*
D28*
X480623Y361059D03*
D37*
X55638Y362243D03*
D57*
X181713Y362243D03*
D37*
X371713Y362243D03*
D38*
X404860Y362243D03*
D68*
X418473Y362243D03*
D39*
X432679Y362243D03*
D38*
X480623Y362243D03*
D60*
X52679Y363427D03*
D44*
X181713Y363427D03*
D31*
X371713Y363427D03*
D47*
X404268Y363427D03*
D22*
X413738Y363427D03*
X427944Y363427D03*
D28*
X480623Y363427D03*
D70*
X53271Y364610D03*
D37*
X371713Y364610D03*
D19*
X404859Y364610D03*
D15*
X413738Y364610D03*
X427944Y364610D03*
D38*
X480623Y364610D03*
D70*
X53271Y365794D03*
D37*
X371713Y365794D03*
D38*
X402492Y365794D03*
D13*
X406635Y365794D03*
D15*
X413738Y365794D03*
X427944Y365794D03*
D38*
X480623Y365794D03*
D31*
X55638Y366978D03*
D22*
X185265Y366978D03*
D31*
X371713Y366978D03*
D22*
X401900Y366978D03*
D31*
X407227Y366978D03*
D22*
X413738Y366978D03*
X427944Y366978D03*
D28*
X480623Y366978D03*
D13*
X56230Y368162D03*
D25*
X184081Y368162D03*
D37*
X371713Y368162D03*
X401308Y368162D03*
D13*
X407819Y368162D03*
D15*
X413738Y368162D03*
X427944Y368162D03*
D38*
X480623Y368162D03*
D21*
X56230Y369346D03*
D31*
X182305Y369346D03*
X371713Y369346D03*
D21*
X400716Y369346D03*
D31*
X408411Y369346D03*
D22*
X413738Y369346D03*
X427944Y369346D03*
D28*
X480623Y369346D03*
D37*
X181121Y370529D03*
X371713Y370529D03*
X400124Y370529D03*
D15*
X409003Y370529D03*
X413738Y370529D03*
X427944Y370529D03*
D38*
X480623Y370529D03*
D15*
X179346Y371713D03*
D37*
X371713Y371713D03*
D13*
X399532Y371713D03*
D15*
X409003Y371713D03*
D68*
X418473Y371713D03*
D39*
X432679Y371713D03*
D38*
X480623Y371713D03*
D46*
X50904Y372897D03*
D30*
X181713Y372897D03*
D31*
X371713Y372897D03*
X398940Y372897D03*
D22*
X410187Y372897D03*
D63*
X419065Y372897D03*
D46*
X433271Y372897D03*
D28*
X480623Y372897D03*
D71*
X51495Y374081D03*
D57*
X181713Y374081D03*
D37*
X372897Y374081D03*
D50*
X480031Y374081D03*
D31*
X46168Y375265D03*
X55638Y375265D03*
D28*
X183489Y375265D03*
D31*
X372897Y375265D03*
X479439Y375265D03*
D37*
X46168Y376448D03*
D13*
X56230Y376448D03*
D15*
X182897Y376448D03*
D50*
X373489Y376448D03*
X478847Y376448D03*
D37*
X46168Y377632D03*
X55638Y377632D03*
X181121Y377632D03*
D27*
X375856Y377632D03*
D19*
X477071Y377632D03*
D31*
X46168Y378816D03*
X55638Y378816D03*
X179937Y378816D03*
D72*
X426168Y378816D03*
D37*
X46168Y380000D03*
D13*
X56230Y380000D03*
D37*
X86417Y380000D03*
D57*
X181713Y380000D03*
D65*
X426168Y380000D03*
D31*
X46168Y381184D03*
X55638Y381184D03*
D21*
X87009Y381184D03*
D30*
X181713Y381184D03*
D73*
X426760Y381184D03*
D37*
X46168Y382367D03*
X55638Y382367D03*
X86417Y382367D03*
D74*
X50903Y383551D03*
D37*
X86417Y383551D03*
D46*
X50904Y384735D03*
D75*
X83458Y384735D03*
D44*
X181713Y384735D03*
D14*
X50903Y385919D03*
D70*
X84049Y385919D03*
D57*
X181713Y385919D03*
D76*
X84049Y387103D03*
D22*
X178162Y387103D03*
X185265Y387103D03*
D37*
X86417Y388286D03*
D15*
X178162Y388286D03*
D20*
X185857Y388286D03*
D27*
X55046Y389470D03*
D13*
X87009Y389470D03*
D15*
X178162Y389470D03*
X185265Y389470D03*
D46*
X55639Y390654D03*
D21*
X87009Y390654D03*
D22*
X178162Y390654D03*
D29*
X185857Y390654D03*
D50*
X51495Y391838D03*
X58598Y391838D03*
D15*
X178162Y391838D03*
X185265Y391838D03*
D31*
X50903Y393022D03*
D22*
X59782Y393022D03*
D30*
X181713Y393022D03*
D13*
X50311Y394205D03*
D38*
X60374Y394205D03*
D14*
X79314Y394205D03*
D27*
X181713Y394205D03*
D13*
X50311Y395389D03*
D38*
X60374Y395389D03*
D18*
X80498Y395389D03*
D21*
X50311Y396573D03*
D28*
X60374Y396573D03*
D67*
X81090Y396573D03*
D13*
X50311Y397757D03*
D38*
X60374Y397757D03*
D50*
X85825Y397757D03*
D27*
X185264Y397757D03*
D21*
X50311Y398941D03*
D28*
X60374Y398941D03*
D31*
X86417Y398941D03*
D32*
X185265Y398941D03*
D13*
X50311Y400124D03*
D38*
X60374Y400124D03*
D13*
X87009Y400124D03*
X181713Y400124D03*
X188816Y400124D03*
X50311Y401308D03*
D38*
X60374Y401308D03*
D37*
X86417Y401308D03*
D13*
X181713Y401308D03*
X188816Y401308D03*
D28*
X60374Y402492D03*
D31*
X86417Y402492D03*
D21*
X181713Y402492D03*
X188816Y402492D03*
D52*
X52679Y403676D03*
D13*
X87009Y403676D03*
X181713Y403676D03*
X188816Y403676D03*
D61*
X52087Y404860D03*
D31*
X86417Y404860D03*
D21*
X181713Y404860D03*
X188816Y404860D03*
D51*
X81682Y406043D03*
D13*
X181713Y406043D03*
X188816Y406043D03*
D51*
X81682Y407227D03*
D13*
X188816Y407227D03*
D67*
X81090Y408411D03*
D48*
X183489Y408411D03*
D37*
X55638Y409595D03*
D39*
X182897Y409595D03*
D21*
X56230Y410779D03*
D37*
X55638Y411962D03*
D19*
X84050Y411962D03*
D37*
X55638Y413146D03*
D27*
X83458Y413146D03*
D15*
X239720Y413146D03*
D20*
X247414Y413146D03*
D60*
X52679Y414330D03*
D31*
X81682Y414330D03*
X86417Y414330D03*
X240311Y414330D03*
D21*
X246822Y414330D03*
D70*
X53271Y415514D03*
D13*
X81090Y415514D03*
D37*
X86417Y415514D03*
X241495Y415514D03*
X246230Y415514D03*
D76*
X53271Y416698D03*
D22*
X76355Y416698D03*
D21*
X81090Y416698D03*
X87009Y416698D03*
D45*
X243863Y416698D03*
D13*
X56230Y417881D03*
D15*
X76355Y417881D03*
D13*
X81090Y417881D03*
D37*
X86417Y417881D03*
D38*
X243863Y417881D03*
D37*
X55638Y419065D03*
D15*
X76355Y419065D03*
D13*
X81090Y419065D03*
X87009Y419065D03*
D40*
X243863Y419065D03*
D31*
X55638Y420249D03*
D22*
X76355Y420249D03*
D21*
X81090Y420249D03*
X87009Y420249D03*
D31*
X241495Y420249D03*
X246230Y420249D03*
D15*
X76355Y421433D03*
D37*
X86417Y421433D03*
X240311Y421433D03*
D13*
X246822Y421433D03*
D21*
X56230Y422617D03*
D48*
X81682Y422617D03*
D29*
X239128Y422617D03*
X247414Y422617D03*
D37*
X55638Y423800D03*
D18*
X81682Y423800D03*
D13*
X56230Y424984D03*
D14*
X81682Y424984D03*
D21*
X56230Y426168D03*
D29*
X239128Y426168D03*
D44*
X248006Y426168D03*
D13*
X56230Y427352D03*
D15*
X239720Y427352D03*
D14*
X247414Y427352D03*
D31*
X55638Y428536D03*
D48*
X81682Y428536D03*
D31*
X92336Y428536D03*
X240311Y428536D03*
D22*
X244455Y428536D03*
X250374Y428536D03*
D37*
X55638Y429719D03*
D51*
X81682Y429719D03*
D37*
X92336Y429719D03*
D19*
X242679Y429719D03*
D15*
X250374Y429719D03*
D74*
X50903Y430903D03*
D51*
X81682Y430903D03*
D37*
X92336Y430903D03*
D50*
X243271Y430903D03*
D15*
X250374Y430903D03*
D34*
X50312Y432087D03*
D28*
X243863Y432087D03*
D22*
X250374Y432087D03*
D16*
X49720Y433271D03*
D15*
X244455Y433271D03*
X250374Y433271D03*
D63*
X81682Y434455D03*
D22*
X244455Y434455D03*
X250374Y434455D03*
D51*
X81682Y435638D03*
D15*
X250374Y435638D03*
D19*
X50903Y436822D03*
D38*
X76947Y436822D03*
D37*
X86417Y436822D03*
D51*
X245047Y436822D03*
D46*
X50904Y438006D03*
D28*
X76947Y438006D03*
D31*
X86417Y438006D03*
D48*
X245047Y438006D03*
D74*
X50903Y439190D03*
D38*
X76947Y439190D03*
D13*
X87009Y439190D03*
D31*
X46168Y440374D03*
X55638Y440374D03*
D28*
X76947Y440374D03*
D31*
X86417Y440374D03*
D13*
X45576Y441557D03*
X51495Y441557D03*
D37*
X55638Y441557D03*
D38*
X76947Y441557D03*
D13*
X87009Y441557D03*
X45576Y442741D03*
X51495Y442741D03*
X56230Y442741D03*
D38*
X76947Y442741D03*
D13*
X87009Y442741D03*
D21*
X45576Y443925D03*
X51495Y443925D03*
D31*
X55638Y443925D03*
D28*
X76947Y443925D03*
D22*
X284704Y443925D03*
D29*
X292399Y443925D03*
D41*
X316074Y443925D03*
D13*
X45576Y445109D03*
X51495Y445109D03*
D37*
X55638Y445109D03*
D77*
X84641Y445109D03*
D38*
X285296Y445109D03*
D15*
X291807Y445109D03*
D16*
X316075Y445109D03*
D13*
X347445Y445109D03*
D21*
X45576Y446293D03*
X51495Y446293D03*
D31*
X55638Y446293D03*
D76*
X85233Y446293D03*
D28*
X286480Y446293D03*
X291215Y446293D03*
D31*
X311339Y446293D03*
D22*
X321402Y446293D03*
D42*
X346261Y446293D03*
D37*
X46168Y447476D03*
D13*
X51495Y447476D03*
X56230Y447476D03*
D53*
X85233Y447476D03*
D19*
X288847Y447476D03*
D13*
X310747Y447476D03*
D15*
X321402Y447476D03*
D40*
X344486Y447476D03*
D17*
X48536Y448660D03*
D37*
X288847Y448660D03*
D13*
X310747Y448660D03*
D15*
X321402Y448660D03*
D19*
X342118Y448660D03*
D45*
X48536Y449844D03*
D43*
X288847Y449844D03*
D21*
X310747Y449844D03*
D22*
X321402Y449844D03*
D43*
X339750Y449844D03*
D18*
X80498Y451028D03*
D38*
X286480Y451028D03*
X291215Y451028D03*
D13*
X310747Y451028D03*
D15*
X321402Y451028D03*
D50*
X337975Y451028D03*
D67*
X81090Y452212D03*
D28*
X285296Y452212D03*
D22*
X291807Y452212D03*
D21*
X310747Y452212D03*
D22*
X321402Y452212D03*
D42*
X337975Y452212D03*
D16*
X49720Y453395D03*
D51*
X81682Y453395D03*
D20*
X284112Y453395D03*
X292399Y453395D03*
D13*
X310747Y453395D03*
D15*
X321402Y453395D03*
D50*
X340342Y453395D03*
D39*
X50312Y454579D03*
D37*
X86417Y454579D03*
D51*
X316075Y454579D03*
D50*
X342710Y454579D03*
D78*
X50903Y455763D03*
D21*
X87009Y455763D03*
D22*
X295358Y455763D03*
D48*
X316075Y455763D03*
D43*
X345669Y455763D03*
D13*
X56230Y456947D03*
D37*
X86417Y456947D03*
D15*
X295358Y456947D03*
D37*
X346853Y456947D03*
D31*
X55638Y458131D03*
D48*
X81682Y458131D03*
D22*
X295358Y458131D03*
D29*
X348037Y458131D03*
D13*
X56230Y459314D03*
D68*
X81090Y459314D03*
D15*
X295358Y459314D03*
D74*
X50903Y460498D03*
D51*
X81682Y460498D03*
X290031Y460498D03*
X316075Y460498D03*
D19*
X339750Y460498D03*
D34*
X50312Y461682D03*
D31*
X86417Y461682D03*
D48*
X290031Y461682D03*
X316075Y461682D03*
D62*
X339159Y461682D03*
D21*
X347445Y461682D03*
D74*
X50903Y462866D03*
D37*
X86417Y462866D03*
D15*
X295358Y462866D03*
D37*
X312523Y462866D03*
D13*
X336791Y462866D03*
D37*
X342118Y462866D03*
D13*
X347445Y462866D03*
D31*
X55638Y464050D03*
D21*
X87009Y464050D03*
D22*
X295358Y464050D03*
D28*
X313707Y464050D03*
D21*
X336791Y464050D03*
X342710Y464050D03*
X347445Y464050D03*
D37*
X55638Y465233D03*
X86417Y465233D03*
D15*
X295358Y465233D03*
X315483Y465233D03*
D13*
X336791Y465233D03*
D37*
X342118Y465233D03*
D13*
X347445Y465233D03*
X56230Y466417D03*
D51*
X81682Y466417D03*
D15*
X295358Y466417D03*
D13*
X316666Y466417D03*
X336791Y466417D03*
X342710Y466417D03*
X347445Y466417D03*
D21*
X56230Y467601D03*
D48*
X81682Y467601D03*
D29*
X295950Y467601D03*
D21*
X317850Y467601D03*
X336791Y467601D03*
X342710Y467601D03*
X347445Y467601D03*
D74*
X50903Y468785D03*
D68*
X81090Y468785D03*
D15*
X319034Y468785D03*
D13*
X336791Y468785D03*
X342710Y468785D03*
X347445Y468785D03*
D78*
X50903Y469969D03*
D28*
X319626Y469969D03*
D21*
X336791Y469969D03*
D62*
X345078Y469969D03*
D39*
X50312Y471152D03*
D51*
X316075Y471152D03*
D13*
X336791Y471152D03*
D19*
X345669Y471152D03*
D51*
X316075Y472336D03*
D22*
X49128Y473520D03*
D75*
X83458Y473520D03*
D26*
X49128Y474704D03*
D70*
X84049Y474704D03*
D32*
X49128Y475888D03*
D28*
X60374Y475888D03*
D76*
X84049Y475888D03*
D36*
X313707Y475888D03*
D22*
X321402Y475888D03*
D37*
X46168Y477071D03*
D15*
X52679Y477071D03*
D38*
X60374Y477071D03*
D13*
X81090Y477071D03*
D37*
X91152Y477071D03*
D17*
X313707Y477071D03*
D15*
X321402Y477071D03*
D37*
X46168Y478255D03*
D38*
X53271Y478255D03*
X60374Y478255D03*
D13*
X81090Y478255D03*
D37*
X91152Y478255D03*
D13*
X310747Y478255D03*
D37*
X316074Y478255D03*
D15*
X321402Y478255D03*
D31*
X46168Y479439D03*
D28*
X53271Y479439D03*
X60374Y479439D03*
D21*
X81090Y479439D03*
D31*
X91152Y479439D03*
D21*
X310747Y479439D03*
D31*
X316074Y479439D03*
D22*
X321402Y479439D03*
D37*
X46168Y480623D03*
D38*
X53271Y480623D03*
X60374Y480623D03*
D13*
X81090Y480623D03*
D37*
X91152Y480623D03*
D13*
X310747Y480623D03*
D37*
X316074Y480623D03*
D15*
X321402Y480623D03*
D31*
X46168Y481807D03*
D28*
X53271Y481807D03*
X60374Y481807D03*
D21*
X81090Y481807D03*
D31*
X91152Y481807D03*
D21*
X310747Y481807D03*
X316666Y481807D03*
D22*
X321402Y481807D03*
X397165Y481807D03*
D31*
X407227Y481807D03*
D67*
X418473Y481807D03*
D34*
X432679Y481807D03*
D37*
X46168Y482990D03*
D38*
X53271Y482990D03*
X60374Y482990D03*
D13*
X81090Y482990D03*
D37*
X91152Y482990D03*
D13*
X310747Y482990D03*
D37*
X316074Y482990D03*
D15*
X321402Y482990D03*
X397165Y482990D03*
D37*
X406043Y482990D03*
D51*
X417882Y482990D03*
X433271Y482990D03*
D37*
X46168Y484174D03*
D38*
X53271Y484174D03*
X60374Y484174D03*
D13*
X81090Y484174D03*
D38*
X89969Y484174D03*
D13*
X310747Y484174D03*
D15*
X321402Y484174D03*
X397165Y484174D03*
D38*
X404860Y484174D03*
D13*
X412554Y484174D03*
D15*
X423209Y484174D03*
X427944Y484174D03*
X438598Y484174D03*
D31*
X46168Y485358D03*
D28*
X53271Y485358D03*
X60374Y485358D03*
D21*
X81090Y485358D03*
D28*
X89969Y485358D03*
D21*
X310747Y485358D03*
D22*
X321402Y485358D03*
X397165Y485358D03*
D28*
X403676Y485358D03*
D21*
X412554Y485358D03*
D22*
X423209Y485358D03*
X427944Y485358D03*
X438598Y485358D03*
D37*
X46168Y486542D03*
D38*
X53271Y486542D03*
X60374Y486542D03*
D13*
X81090Y486542D03*
D37*
X88785Y486542D03*
D51*
X316075Y486542D03*
D15*
X397165Y486542D03*
D17*
X403676Y486542D03*
D13*
X412554Y486542D03*
D15*
X423209Y486542D03*
X427944Y486542D03*
D37*
X438006Y486542D03*
D31*
X46168Y487726D03*
D30*
X56230Y487726D03*
D79*
X82866Y487726D03*
D46*
X316075Y487726D03*
D22*
X397165Y487726D03*
D32*
X404268Y487726D03*
D21*
X412554Y487726D03*
D41*
X420249Y487726D03*
D22*
X427944Y487726D03*
D41*
X434454Y487726D03*
D37*
X46168Y488909D03*
D14*
X56822Y488909D03*
D49*
X82274Y488909D03*
D15*
X397165Y488909D03*
D13*
X407819Y488909D03*
X412554Y488909D03*
D27*
X419657Y488909D03*
D15*
X427944Y488909D03*
D14*
X434454Y488909D03*
D37*
X46168Y490093D03*
D50*
X56230Y490093D03*
D18*
X80498Y490093D03*
D15*
X397165Y490093D03*
D13*
X407819Y490093D03*
X412554Y490093D03*
D15*
X427944Y490093D03*
D13*
X437414Y490093D03*
D22*
X397165Y491277D03*
D21*
X407819Y491277D03*
X412554Y491277D03*
D22*
X427944Y491277D03*
D31*
X438006Y491277D03*
D51*
X402492Y492461D03*
X417882Y492461D03*
D39*
X432679Y492461D03*
D48*
X402492Y493645D03*
D67*
X418473Y493645D03*
D34*
X432679Y493645D03*
D33*
X63925Y503115D03*
D22*
X95296Y503115D03*
D50*
X55046Y504299D03*
D23*
X66885Y504299D03*
D50*
X94112Y504299D03*
D42*
X55046Y505483D03*
D32*
X66885Y505483D03*
D43*
X93520Y505483D03*
D50*
X55046Y506666D03*
D23*
X66885Y506666D03*
D14*
X92336Y506666D03*
D50*
X55046Y507850D03*
D23*
X66885Y507850D03*
D16*
X91153Y507850D03*
D80*
X55047Y509034D03*
D32*
X89377Y509034D03*
D81*
X55047Y510218D03*
D57*
X87009Y510218D03*
D80*
X55047Y511402D03*
D46*
X85234Y511402D03*
D81*
X55047Y512585D03*
D16*
X82866Y512585D03*
D82*
X54455Y513769D03*
D57*
X81090Y513769D03*
D83*
X53271Y514953D03*
D46*
X79315Y514953D03*
D84*
X52087Y516137D03*
D16*
X76947Y516137D03*
D58*
X51495Y517321D03*
D67*
X75171Y517321D03*
D53*
X75763Y518504D03*
D70*
X76947Y519688D03*
D85*
X78131Y520872D03*
D59*
X51495Y522056D03*
D70*
X80498Y522056D03*
D86*
X52679Y523240D03*
D60*
X82274Y523240D03*
D87*
X53863Y524423D03*
D88*
X83458Y524423D03*
D82*
X54455Y525607D03*
D51*
X84050Y525607D03*
D89*
X55639Y526791D03*
D46*
X84050Y526791D03*
D81*
X55047Y527975D03*
D57*
X82274Y527975D03*
D90*
X53863Y529159D03*
D30*
X81090Y529159D03*
D57*
X63333Y530342D03*
D23*
X78723Y530342D03*
D27*
X62149Y531526D03*
D16*
X76947Y531526D03*
D44*
X59782Y532710D03*
D34*
X76355Y532710D03*
D14*
X58006Y533894D03*
D53*
X75763Y533894D03*
D30*
X56230Y535078D03*
D91*
X76355Y535078D03*
D49*
X56231Y536261D03*
D77*
X78722Y536261D03*
D52*
X56230Y537445D03*
D77*
X81090Y537445D03*
D76*
X58006Y538629D03*
D92*
X82866Y538629D03*
D70*
X60373Y539813D03*
D93*
X85233Y539813D03*
D76*
X62741Y540997D03*
D91*
X87009Y540997D03*
D53*
X63925Y542180D03*
D52*
X88193Y542180D03*
D51*
X65109Y543364D03*
D49*
X89377Y543364D03*
D80*
X55047Y544548D03*
D48*
X89969Y544548D03*
D81*
X55047Y545732D03*
D16*
X91153Y545732D03*
D80*
X55047Y546916D03*
D41*
X92336Y546916D03*
D81*
X55047Y548099D03*
D19*
X93520Y548099D03*
D81*
X55047Y549283D03*
D38*
X94704Y549283D03*
D22*
X95296Y550467D03*
D27*
X190000Y559937D03*
D37*
X197694Y559937D03*
D19*
X217819Y559937D03*
D20*
X267539Y559937D03*
D27*
X190000Y561121D03*
D15*
X197103Y561121D03*
D27*
X216043Y561121D03*
D15*
X266947Y561121D03*
D29*
X192960Y562305D03*
X196511Y562305D03*
D22*
X213676Y562305D03*
D44*
X242087Y562305D03*
X266947Y562305D03*
D19*
X190592Y563489D03*
D20*
X196511Y563489D03*
D19*
X216635Y563489D03*
D27*
X242087Y563489D03*
X266947Y563489D03*
D44*
X188816Y564673D03*
D29*
X196511Y564673D03*
D44*
X217227Y564673D03*
D22*
X266947Y564673D03*
D15*
X186449Y565856D03*
D20*
X196511Y565856D03*
X220187Y565856D03*
D15*
X266947Y565856D03*
X186449Y567040D03*
D20*
X196511Y567040D03*
X220187Y567040D03*
D22*
X160405Y568224D03*
D28*
X166916Y568224D03*
D44*
X190000Y568224D03*
D29*
X196511Y568224D03*
D41*
X216635Y568224D03*
D15*
X160405Y569408D03*
D69*
X166916Y569408D03*
D22*
X160405Y570592D03*
D29*
X164548Y570592D03*
X169284Y570592D03*
D15*
X160405Y571775D03*
D20*
X164548Y571775D03*
X169284Y571775D03*
D15*
X160405Y572959D03*
D20*
X164548Y572959D03*
D15*
X168692Y572959D03*
D22*
X160405Y574143D03*
D29*
X164548Y574143D03*
X169284Y574143D03*
D15*
X160405Y575327D03*
D13*
X163956Y575327D03*
D15*
X168692Y575327D03*
D43*
X162180Y576511D03*
D29*
X169284Y576511D03*
D15*
X38474Y578878D03*
D19*
X50903Y578878D03*
D15*
X59782Y578878D03*
X71620Y578878D03*
X78723Y578878D03*
D14*
X87601Y578878D03*
D27*
X97663Y578878D03*
D15*
X107134Y578878D03*
D28*
X37882Y580062D03*
D44*
X50311Y580062D03*
D22*
X59782Y580062D03*
X71620Y580062D03*
X78723Y580062D03*
D30*
X87009Y580062D03*
X97663Y580062D03*
D31*
X106542Y580062D03*
D50*
X38473Y581246D03*
D15*
X47944Y581246D03*
X59782Y581246D03*
X71620Y581246D03*
X78723Y581246D03*
X83458Y581246D03*
D13*
X92928Y581246D03*
D15*
X101215Y581246D03*
D13*
X105950Y581246D03*
D43*
X37881Y582430D03*
D30*
X51495Y582430D03*
D22*
X59782Y582430D03*
X71620Y582430D03*
X78723Y582430D03*
X83458Y582430D03*
D43*
X95887Y582430D03*
D22*
X101215Y582430D03*
D21*
X105950Y582430D03*
D15*
X36106Y583613D03*
D13*
X40841Y583613D03*
D20*
X47352Y583613D03*
D15*
X55047Y583613D03*
X59782Y583613D03*
X71620Y583613D03*
X78723Y583613D03*
X83458Y583613D03*
D57*
X97663Y583613D03*
D13*
X105950Y583613D03*
D15*
X34922Y584797D03*
D13*
X40841Y584797D03*
D15*
X47944Y584797D03*
D20*
X55639Y584797D03*
D15*
X59782Y584797D03*
X71620Y584797D03*
X78723Y584797D03*
X83458Y584797D03*
X101215Y584797D03*
D13*
X105950Y584797D03*
D22*
X34922Y585981D03*
X42025Y585981D03*
D30*
X51495Y585981D03*
D76*
X67476Y585981D03*
D22*
X78723Y585981D03*
D41*
X86417Y585981D03*
X98255Y585981D03*
D21*
X105950Y585981D03*
D31*
X164548Y585981D03*
D15*
X34922Y587165D03*
X42025Y587165D03*
D27*
X51495Y587165D03*
D52*
X68068Y587165D03*
D15*
X78723Y587165D03*
D14*
X87601Y587165D03*
D27*
X97663Y587165D03*
D13*
X105950Y587165D03*
X162772Y587165D03*
D15*
X166324Y587165D03*
D21*
X33738Y588349D03*
D22*
X43209Y588349D03*
X71620Y588349D03*
D21*
X105950Y588349D03*
D29*
X159813Y588349D03*
D21*
X162772Y588349D03*
D22*
X166324Y588349D03*
D13*
X33738Y589532D03*
D15*
X43209Y589532D03*
X71620Y589532D03*
D13*
X105950Y589532D03*
D20*
X159813Y589532D03*
D13*
X162772Y589532D03*
D15*
X166324Y589532D03*
D13*
X32554Y590716D03*
D20*
X43801Y590716D03*
X71028Y590716D03*
D15*
X78723Y590716D03*
D13*
X105950Y590716D03*
D20*
X159813Y590716D03*
D13*
X162772Y590716D03*
D15*
X166324Y590716D03*
D22*
X160405Y591900D03*
X166324Y591900D03*
D19*
X163364Y593084D03*
D27*
X162772Y596635D03*
D91*
X45576Y597819D03*
X115420Y597819D03*
D22*
X160405Y597819D03*
X166324Y597819D03*
D94*
X45576Y599003D03*
D95*
X115421Y599003D03*
D15*
X160405Y599003D03*
X166324Y599003D03*
D96*
X45576Y600187D03*
D97*
X115421Y600187D03*
D22*
X160405Y600187D03*
X166324Y600187D03*
D94*
X45576Y601370D03*
D95*
X115421Y601370D03*
D15*
X160405Y601370D03*
X166324Y601370D03*
D25*
X37290Y602554D03*
X53863Y602554D03*
D50*
X107134Y602554D03*
X123707Y602554D03*
D15*
X160405Y602554D03*
D47*
X37290Y603738D03*
X53863Y603738D03*
D42*
X107134Y603738D03*
X123707Y603738D03*
D46*
X165732Y603738D03*
D25*
X37290Y604922D03*
X53863Y604922D03*
D50*
X107134Y604922D03*
X123707Y604922D03*
D19*
X163364Y607289D03*
D15*
X160405Y608473D03*
X166324Y608473D03*
D22*
X160405Y609657D03*
X166324Y609657D03*
D15*
X160405Y610841D03*
X166324Y610841D03*
D22*
X160405Y612025D03*
X166324Y612025D03*
D15*
X160405Y613208D03*
X166324Y613208D03*
D27*
X162772Y614392D03*
D15*
X166324Y616760D03*
D22*
X166324Y617944D03*
D15*
X166324Y619127D03*
X166324Y620311D03*
D22*
X166324Y621495D03*
D27*
X162772Y622679D03*
D25*
X166324Y625046D03*
D27*
X166324Y626230D03*
D42*
X17165Y627414D03*
X34922Y627414D03*
X87009Y627414D03*
X104766Y627414D03*
D21*
X162772Y627414D03*
D22*
X168692Y627414D03*
D50*
X17165Y628598D03*
X34922Y628598D03*
X87009Y628598D03*
X104766Y628598D03*
D13*
X162772Y628598D03*
D20*
X169284Y628598D03*
D98*
X26044Y629782D03*
D42*
X87009Y629782D03*
X104766Y629782D03*
D21*
X162772Y629782D03*
D22*
X168692Y629782D03*
D99*
X26044Y630965D03*
X95888Y630965D03*
D13*
X162772Y630965D03*
D15*
X168692Y630965D03*
D94*
X26635Y632149D03*
D99*
X95888Y632149D03*
D13*
X162772Y632149D03*
D15*
X168692Y632149D03*
D100*
X26043Y633333D03*
D97*
X96480Y633333D03*
D63*
X164548Y633333D03*
D101*
X95888Y634517D03*
D57*
X163956Y634517D03*
D13*
X23084Y642803D03*
X33738Y642803D03*
D27*
X42025Y642803D03*
D13*
X50311Y642803D03*
D15*
X59782Y642803D03*
D17*
X67477Y642803D03*
D27*
X78722Y642803D03*
D13*
X87009Y642803D03*
D15*
X95296Y642803D03*
X101215Y642803D03*
D27*
X111869Y642803D03*
D15*
X121340Y642803D03*
D13*
X23084Y643987D03*
X33738Y643987D03*
D23*
X42025Y643987D03*
D13*
X50311Y643987D03*
D15*
X59782Y643987D03*
D17*
X67477Y643987D03*
D23*
X78723Y643987D03*
D13*
X87009Y643987D03*
D15*
X95296Y643987D03*
X101215Y643987D03*
D23*
X111869Y643987D03*
D38*
X120748Y643987D03*
D21*
X23084Y645171D03*
X33738Y645171D03*
D22*
X38474Y645171D03*
D21*
X46760Y645171D03*
X50311Y645171D03*
D22*
X59782Y645171D03*
X65701Y645171D03*
D21*
X75171Y645171D03*
D22*
X83458Y645171D03*
D21*
X87009Y645171D03*
D22*
X95296Y645171D03*
X101215Y645171D03*
X107134Y645171D03*
D21*
X115420Y645171D03*
D22*
X120156Y645171D03*
D13*
X23084Y646355D03*
X33738Y646355D03*
D15*
X38474Y646355D03*
D24*
X46168Y646355D03*
D13*
X50311Y646355D03*
D15*
X59782Y646355D03*
X66885Y646355D03*
D13*
X75171Y646355D03*
D20*
X82866Y646355D03*
D13*
X87009Y646355D03*
D15*
X95296Y646355D03*
X101215Y646355D03*
D19*
X110093Y646355D03*
D13*
X115420Y646355D03*
D15*
X120156Y646355D03*
D78*
X28411Y647539D03*
D22*
X38474Y647539D03*
D21*
X46760Y647539D03*
X50311Y647539D03*
D22*
X59782Y647539D03*
D21*
X68068Y647539D03*
X75171Y647539D03*
D29*
X82866Y647539D03*
D21*
X87009Y647539D03*
D22*
X95296Y647539D03*
X101215Y647539D03*
D32*
X111869Y647539D03*
D22*
X120156Y647539D03*
D74*
X28411Y648722D03*
D15*
X38474Y648722D03*
D24*
X46168Y648722D03*
D13*
X50311Y648722D03*
D15*
X59782Y648722D03*
D13*
X69252Y648722D03*
X75171Y648722D03*
D15*
X83458Y648722D03*
D13*
X87009Y648722D03*
D38*
X94704Y648722D03*
D15*
X101215Y648722D03*
D13*
X115420Y648722D03*
D15*
X120156Y648722D03*
D13*
X23084Y649906D03*
X33738Y649906D03*
D23*
X42025Y649906D03*
D17*
X53271Y649906D03*
D15*
X59782Y649906D03*
D17*
X67477Y649906D03*
D23*
X78723Y649906D03*
X90561Y649906D03*
X101215Y649906D03*
D17*
X112461Y649906D03*
D15*
X120156Y649906D03*
D21*
X23084Y651090D03*
X33738Y651090D03*
D44*
X42025Y651090D03*
D62*
X53863Y651090D03*
D22*
X59782Y651090D03*
D36*
X67477Y651090D03*
D44*
X78722Y651090D03*
D36*
X89969Y651090D03*
D32*
X101215Y651090D03*
D44*
X111869Y651090D03*
D22*
X120156Y651090D03*
D13*
X23084Y652274D03*
X33738Y652274D03*
D15*
X101215Y652274D03*
X120156Y652274D03*
D21*
X23084Y653458D03*
X33738Y653458D03*
D22*
X101215Y653458D03*
X120156Y653458D03*
D20*
X23676Y654641D03*
D24*
X33146Y654641D03*
D15*
X59782Y654641D03*
D20*
X100623Y654641D03*
D15*
X120156Y654641D03*
D22*
X409003Y657009D03*
D19*
X408411Y658193D03*
D41*
X407227Y659377D03*
D20*
X397757Y660560D03*
D15*
X404268Y660560D03*
X410187Y660560D03*
X397165Y661744D03*
X404268Y661744D03*
X410187Y661744D03*
D22*
X397165Y662928D03*
D28*
X403676Y662928D03*
D22*
X410187Y662928D03*
D15*
X397165Y664112D03*
X404268Y664112D03*
X410187Y664112D03*
D22*
X397165Y665296D03*
X404268Y665296D03*
X410187Y665296D03*
D15*
X397165Y666479D03*
X404268Y666479D03*
X410187Y666479D03*
X397165Y667663D03*
D38*
X403676Y667663D03*
D15*
X410187Y667663D03*
D22*
X397165Y668847D03*
X404268Y668847D03*
X410187Y668847D03*
D15*
X397165Y670031D03*
D38*
X403676Y670031D03*
D22*
X397165Y671215D03*
D42*
X401900Y671215D03*
D27*
X399532Y672398D03*
D50*
X398348Y673582D03*
D29*
X396573Y674766D03*
D31*
X408411Y674766D03*
D14*
X407227Y675950D03*
D63*
X406043Y677134D03*
D27*
X401900Y678317D03*
D15*
X410187Y678317D03*
D37*
X398940Y679501D03*
D38*
X403676Y679501D03*
D15*
X410187Y679501D03*
D28*
X397757Y680685D03*
D22*
X404268Y680685D03*
X410187Y680685D03*
D15*
X397165Y681869D03*
D38*
X403676Y681869D03*
D15*
X410187Y681869D03*
D22*
X397165Y683053D03*
D28*
X403676Y683053D03*
D22*
X410187Y683053D03*
D15*
X397165Y684236D03*
X404268Y684236D03*
X410187Y684236D03*
X397165Y685420D03*
D38*
X403676Y685420D03*
D15*
X410187Y685420D03*
D22*
X397165Y686604D03*
X404268Y686604D03*
D29*
X409595Y686604D03*
D15*
X397165Y687788D03*
D38*
X403676Y687788D03*
D22*
X397165Y688972D03*
D15*
X44393Y690155D03*
D26*
X53863Y690155D03*
D50*
X64517Y690155D03*
D27*
X83458Y690155D03*
D38*
X95888Y690155D03*
D15*
X397165Y690155D03*
D38*
X43801Y691339D03*
D17*
X53271Y691339D03*
D26*
X65701Y691339D03*
D14*
X82866Y691339D03*
D25*
X95296Y691339D03*
D20*
X396573Y691339D03*
D28*
X42617Y692523D03*
D31*
X49719Y692523D03*
D32*
X66885Y692523D03*
D28*
X79315Y692523D03*
D31*
X93520Y692523D03*
D38*
X42617Y693707D03*
D15*
X49128Y693707D03*
D50*
X55046Y693707D03*
D37*
X63925Y693707D03*
D50*
X70436Y693707D03*
D15*
X78723Y693707D03*
D25*
X84642Y693707D03*
D37*
X93520Y693707D03*
D22*
X42025Y694891D03*
X49128Y694891D03*
D41*
X55638Y694891D03*
D21*
X63333Y694891D03*
D28*
X72212Y694891D03*
D22*
X78723Y694891D03*
D36*
X85234Y694891D03*
D31*
X93520Y694891D03*
D38*
X42617Y696074D03*
D15*
X49128Y696074D03*
D14*
X56822Y696074D03*
D37*
X63925Y696074D03*
D38*
X72212Y696074D03*
D15*
X78723Y696074D03*
D14*
X86417Y696074D03*
D37*
X93520Y696074D03*
D38*
X42617Y697258D03*
D15*
X49128Y697258D03*
X59782Y697258D03*
D37*
X63925Y697258D03*
X73395Y697258D03*
D15*
X78723Y697258D03*
X89377Y697258D03*
D37*
X93520Y697258D03*
X408411Y697258D03*
D28*
X42617Y698442D03*
D31*
X49719Y698442D03*
D28*
X59190Y698442D03*
D21*
X63333Y698442D03*
X73987Y698442D03*
D28*
X79315Y698442D03*
D31*
X88785Y698442D03*
X93520Y698442D03*
D41*
X407227Y698442D03*
D38*
X42617Y699626D03*
D39*
X55047Y699626D03*
D37*
X63925Y699626D03*
X74579Y699626D03*
D39*
X84642Y699626D03*
D37*
X93520Y699626D03*
D57*
X406635Y699626D03*
D28*
X42617Y700810D03*
D32*
X53863Y700810D03*
D31*
X63925Y700810D03*
X74579Y700810D03*
D32*
X83458Y700810D03*
D31*
X93520Y700810D03*
D28*
X402492Y700810D03*
D22*
X410187Y700810D03*
D38*
X42617Y701993D03*
D37*
X93520Y701993D03*
D15*
X401900Y701993D03*
X410187Y701993D03*
D38*
X42617Y703177D03*
D37*
X93520Y703177D03*
X401308Y703177D03*
D15*
X410187Y703177D03*
D28*
X42617Y704361D03*
D31*
X93520Y704361D03*
X401308Y704361D03*
D22*
X410187Y704361D03*
D38*
X42617Y705545D03*
D37*
X93520Y705545D03*
X401308Y705545D03*
D15*
X410187Y705545D03*
D31*
X401308Y706729D03*
D22*
X410187Y706729D03*
D37*
X401308Y707912D03*
D15*
X410187Y707912D03*
D37*
X401308Y709096D03*
D38*
X409595Y709096D03*
D21*
X400716Y710280D03*
D42*
X407819Y710280D03*
D27*
X405451Y711464D03*
D41*
X402492Y712648D03*
D27*
X399532Y713831D03*
D38*
X397757Y715015D03*
D22*
X410187Y716199D03*
D15*
X36106Y717383D03*
X49128Y717383D03*
D23*
X60966Y717383D03*
D13*
X73987Y717383D03*
D27*
X88193Y717383D03*
D13*
X97663Y717383D03*
D15*
X401900Y717383D03*
X410187Y717383D03*
D28*
X36698Y718567D03*
X48536Y718567D03*
D34*
X60966Y718567D03*
D21*
X73987Y718567D03*
D41*
X87601Y718567D03*
D31*
X98255Y718567D03*
D43*
X401308Y718567D03*
D22*
X410187Y718567D03*
D38*
X36698Y719750D03*
D50*
X49127Y719750D03*
D13*
X56230Y719750D03*
D15*
X65701Y719750D03*
D13*
X73987Y719750D03*
D38*
X84050Y719750D03*
D37*
X98255Y719750D03*
D14*
X401308Y719750D03*
D15*
X410187Y719750D03*
D25*
X37290Y720934D03*
D40*
X48536Y720934D03*
D13*
X56230Y720934D03*
D15*
X65701Y720934D03*
D13*
X73987Y720934D03*
D15*
X83458Y720934D03*
D50*
X89377Y720934D03*
D13*
X97663Y720934D03*
D38*
X397757Y720934D03*
X403676Y720934D03*
D15*
X410187Y720934D03*
D44*
X37289Y722118D03*
D45*
X48536Y722118D03*
D41*
X59190Y722118D03*
D28*
X66293Y722118D03*
D21*
X73987Y722118D03*
D22*
X83458Y722118D03*
D36*
X89969Y722118D03*
D21*
X97663Y722118D03*
D22*
X397165Y722118D03*
D28*
X403676Y722118D03*
D22*
X410187Y722118D03*
D27*
X37289Y723302D03*
D37*
X46168Y723302D03*
D13*
X50311Y723302D03*
D14*
X59190Y723302D03*
D15*
X65701Y723302D03*
D13*
X73987Y723302D03*
D15*
X83458Y723302D03*
D17*
X91153Y723302D03*
D37*
X98255Y723302D03*
D15*
X397165Y723302D03*
D38*
X403676Y723302D03*
D15*
X410187Y723302D03*
D22*
X34922Y724486D03*
D31*
X40249Y724486D03*
X44984Y724486D03*
D21*
X50311Y724486D03*
D35*
X60374Y724486D03*
D22*
X65701Y724486D03*
D21*
X73987Y724486D03*
D22*
X83458Y724486D03*
X94112Y724486D03*
D21*
X97663Y724486D03*
D22*
X397165Y724486D03*
X404268Y724486D03*
X410187Y724486D03*
D15*
X34922Y725669D03*
D26*
X43209Y725669D03*
D13*
X50311Y725669D03*
D15*
X65701Y725669D03*
D13*
X73987Y725669D03*
D38*
X84050Y725669D03*
D37*
X93520Y725669D03*
X98255Y725669D03*
D15*
X397165Y725669D03*
X404268Y725669D03*
X410187Y725669D03*
X34922Y726853D03*
D19*
X42617Y726853D03*
D37*
X50903Y726853D03*
D57*
X62149Y726853D03*
D18*
X74579Y726853D03*
D39*
X89377Y726853D03*
D23*
X102399Y726853D03*
D15*
X397165Y726853D03*
D38*
X403676Y726853D03*
D15*
X410187Y726853D03*
D31*
X34330Y728037D03*
D28*
X42617Y728037D03*
D31*
X50903Y728037D03*
D41*
X61557Y728037D03*
D63*
X74579Y728037D03*
D32*
X88193Y728037D03*
D41*
X102990Y728037D03*
D22*
X397165Y728037D03*
D28*
X403676Y728037D03*
D22*
X409003Y728037D03*
D37*
X34330Y729221D03*
D15*
X43209Y729221D03*
D13*
X51495Y729221D03*
X73987Y729221D03*
D15*
X397165Y729221D03*
D27*
X406635Y729221D03*
D21*
X33738Y730405D03*
X51495Y730405D03*
X73987Y730405D03*
D22*
X397165Y730405D03*
D42*
X405451Y730405D03*
D13*
X33738Y731588D03*
X51495Y731588D03*
X73987Y731588D03*
D15*
X397165Y731588D03*
D20*
X410779Y731588D03*
D15*
X397165Y732772D03*
X410187Y732772D03*
D29*
X396573Y733956D03*
D22*
X410187Y733956D03*
D20*
X404860Y735140D03*
D15*
X410187Y735140D03*
D22*
X397165Y736324D03*
X404268Y736324D03*
X410187Y736324D03*
D15*
X397165Y737507D03*
D38*
X403676Y737507D03*
D15*
X410187Y737507D03*
X397165Y738691D03*
X404268Y738691D03*
X410187Y738691D03*
D22*
X397165Y739875D03*
X404268Y739875D03*
X410187Y739875D03*
D15*
X397165Y741059D03*
X404268Y741059D03*
X410187Y741059D03*
D22*
X397165Y742243D03*
D28*
X403676Y742243D03*
D22*
X410187Y742243D03*
D15*
X397165Y743426D03*
D38*
X403676Y743426D03*
D15*
X410187Y743426D03*
X397165Y744610D03*
D19*
X408411Y744610D03*
D22*
X397165Y745794D03*
D41*
X406043Y745794D03*
D18*
X401308Y746978D03*
D44*
X399532Y748162D03*
D15*
X398349Y749345D03*
D39*
X162773Y758816D03*
D34*
X162773Y760000D03*
D15*
X167508Y761183D03*
D20*
X166916Y762367D03*
D13*
X163956Y768286D03*
D42*
X163956Y769470D03*
D20*
X162181Y770654D03*
X165732Y770654D03*
D42*
X160405Y771838D03*
D29*
X165732Y771838D03*
D50*
X160405Y773021D03*
D20*
X165732Y773021D03*
D13*
X159221Y774205D03*
D20*
X162181Y774205D03*
X165732Y774205D03*
D21*
X159221Y775389D03*
D22*
X165140Y775389D03*
D27*
X162772Y776573D03*
D19*
X162180Y780124D03*
D36*
X162181Y781308D03*
D13*
X159221Y782492D03*
D20*
X165732Y782492D03*
D21*
X159221Y783676D03*
D29*
X165732Y783676D03*
D13*
X159221Y784859D03*
D20*
X165732Y784859D03*
D13*
X159221Y786043D03*
D20*
X165732Y786043D03*
D34*
X163957Y787227D03*
D18*
X164548Y788411D03*
D19*
X162180Y791962D03*
D36*
X162181Y793146D03*
D13*
X159221Y794330D03*
D20*
X165732Y794330D03*
D21*
X159221Y795514D03*
D29*
X165732Y795514D03*
D13*
X159221Y796697D03*
D20*
X165732Y796697D03*
D13*
X159221Y797881D03*
D20*
X165732Y797881D03*
D21*
X159221Y799065D03*
D22*
X165140Y799065D03*
D27*
X162772Y800249D03*
D20*
X165732Y803800D03*
D29*
X165732Y804984D03*
D20*
X165732Y806168D03*
D17*
X372897Y806168D03*
D20*
X380000Y806168D03*
D24*
X419065Y806168D03*
D13*
X429127Y806168D03*
D29*
X165732Y807352D03*
D33*
X277009Y807352D03*
D41*
X284112Y807352D03*
D33*
X299501Y807352D03*
D44*
X306012Y807352D03*
D29*
X369346Y807352D03*
D22*
X380592Y807352D03*
D33*
X419065Y807352D03*
D21*
X429127Y807352D03*
D17*
X162181Y808535D03*
D24*
X277009Y808535D03*
D20*
X280561Y808535D03*
D24*
X299501Y808535D03*
D15*
X308380Y808535D03*
D20*
X369346Y808535D03*
X381184Y808535D03*
D24*
X419065Y808535D03*
D13*
X429127Y808535D03*
D26*
X161589Y809719D03*
D13*
X229065Y809719D03*
D24*
X277009Y809719D03*
D20*
X280561Y809719D03*
D24*
X299501Y809719D03*
D20*
X308972Y809719D03*
D27*
X372305Y809719D03*
D13*
X381775Y809719D03*
D24*
X419065Y809719D03*
D17*
X426168Y809719D03*
D21*
X229065Y810903D03*
D33*
X277009Y810903D03*
D44*
X283520Y810903D03*
D33*
X299501Y810903D03*
D44*
X306012Y810903D03*
D43*
X372897Y810903D03*
D21*
X382959Y810903D03*
D44*
X398348Y810903D03*
D33*
X419065Y810903D03*
D36*
X426168Y810903D03*
D50*
X165140Y812087D03*
D27*
X229065Y812087D03*
X253925Y812087D03*
D24*
X277009Y812087D03*
D27*
X284704Y812087D03*
D24*
X299501Y812087D03*
D27*
X306012Y812087D03*
D13*
X375856Y812087D03*
X382959Y812087D03*
D14*
X398940Y812087D03*
D24*
X419065Y812087D03*
D20*
X422617Y812087D03*
D13*
X429127Y812087D03*
D44*
X165140Y813271D03*
D29*
X195327Y813271D03*
D44*
X229065Y813271D03*
X253925Y813271D03*
D33*
X277009Y813271D03*
D22*
X287072Y813271D03*
D33*
X299501Y813271D03*
D29*
X308972Y813271D03*
D62*
X373489Y813271D03*
D44*
X381775Y813271D03*
D21*
X418473Y813271D03*
D29*
X422617Y813271D03*
D21*
X429127Y813271D03*
D20*
X162181Y814454D03*
D15*
X168692Y814454D03*
D38*
X196511Y814454D03*
D13*
X229065Y814454D03*
X276417Y814454D03*
D27*
X284704Y814454D03*
D13*
X298909Y814454D03*
D27*
X306012Y814454D03*
D19*
X371713Y814454D03*
D14*
X381183Y814454D03*
D37*
X417881Y814454D03*
D20*
X422617Y814454D03*
D13*
X429127Y814454D03*
D15*
X161589Y815638D03*
X168692Y815638D03*
D19*
X197694Y815638D03*
D13*
X229065Y815638D03*
D37*
X275825Y815638D03*
D19*
X282928Y815638D03*
D37*
X298317Y815638D03*
D19*
X305420Y815638D03*
D22*
X161589Y816822D03*
X168692Y816822D03*
D41*
X198878Y816822D03*
D15*
X161589Y818006D03*
X168692Y818006D03*
D102*
X191776Y818006D03*
D22*
X161589Y819190D03*
X168692Y819190D03*
D83*
X192959Y819190D03*
D15*
X168692Y820373D03*
D103*
X192959Y820373D03*
D39*
X163957Y821557D03*
D102*
X191776Y821557D03*
D46*
X163365Y822741D03*
D41*
X198878Y822741D03*
D19*
X197694Y823925D03*
D28*
X196511Y825109D03*
D20*
X195327Y826292D03*
D13*
X324953Y844049D03*
X324953Y845233D03*
D15*
X362835Y845233D03*
D21*
X324953Y846417D03*
D22*
X362835Y846417D03*
D51*
X232025Y847601D03*
D16*
X246231Y847601D03*
X259252Y847601D03*
D20*
X272274Y847601D03*
D15*
X279969Y847601D03*
D14*
X300685Y847601D03*
D15*
X308380Y847601D03*
X315483Y847601D03*
X320218Y847601D03*
D13*
X324953Y847601D03*
D19*
X330280Y847601D03*
D14*
X340934Y847601D03*
D38*
X357508Y847601D03*
D15*
X362835Y847601D03*
D39*
X372305Y847601D03*
D34*
X231433Y848785D03*
D46*
X246231Y848785D03*
D34*
X259844Y848785D03*
D42*
X271682Y848785D03*
D22*
X279969Y848785D03*
D30*
X300093Y848785D03*
D22*
X308380Y848785D03*
X315483Y848785D03*
X320218Y848785D03*
D21*
X324953Y848785D03*
D44*
X330872Y848785D03*
D30*
X341526Y848785D03*
D28*
X357508Y848785D03*
D22*
X362835Y848785D03*
D34*
X372305Y848785D03*
D15*
X226698Y849968D03*
D13*
X240903Y849968D03*
D15*
X255109Y849968D03*
D37*
X265171Y849968D03*
D50*
X271682Y849968D03*
D15*
X279969Y849968D03*
X295358Y849968D03*
X303645Y849968D03*
X308380Y849968D03*
X315483Y849968D03*
X320218Y849968D03*
D13*
X324953Y849968D03*
D15*
X333240Y849968D03*
X345078Y849968D03*
D38*
X357508Y849968D03*
D15*
X362835Y849968D03*
X367570Y849968D03*
X226698Y851152D03*
D13*
X240903Y851152D03*
D15*
X255109Y851152D03*
X265763Y851152D03*
D50*
X271682Y851152D03*
D15*
X279969Y851152D03*
D14*
X286479Y851152D03*
D15*
X295358Y851152D03*
X303645Y851152D03*
X308380Y851152D03*
D20*
X314891Y851152D03*
D15*
X320218Y851152D03*
D13*
X324953Y851152D03*
D15*
X333240Y851152D03*
X345078Y851152D03*
D38*
X357508Y851152D03*
D15*
X362835Y851152D03*
X367570Y851152D03*
D22*
X226698Y852336D03*
D21*
X240903Y852336D03*
D22*
X255109Y852336D03*
X265763Y852336D03*
D42*
X271682Y852336D03*
D22*
X279969Y852336D03*
D30*
X287071Y852336D03*
D22*
X295358Y852336D03*
X303645Y852336D03*
X308380Y852336D03*
X315483Y852336D03*
X320218Y852336D03*
D21*
X324953Y852336D03*
D22*
X333240Y852336D03*
D30*
X341526Y852336D03*
D28*
X357508Y852336D03*
D22*
X362835Y852336D03*
X367570Y852336D03*
D15*
X226698Y853520D03*
D13*
X240903Y853520D03*
D27*
X246822Y853520D03*
D15*
X255109Y853520D03*
X265763Y853520D03*
D50*
X271682Y853520D03*
D15*
X279969Y853520D03*
X290623Y853520D03*
X295358Y853520D03*
X303645Y853520D03*
X308380Y853520D03*
D20*
X314891Y853520D03*
D15*
X320218Y853520D03*
D13*
X324953Y853520D03*
D15*
X333240Y853520D03*
D27*
X340342Y853520D03*
D38*
X357508Y853520D03*
D15*
X362835Y853520D03*
D16*
X371713Y853520D03*
D22*
X226698Y854704D03*
D21*
X240903Y854704D03*
D44*
X246822Y854704D03*
D22*
X255109Y854704D03*
X265763Y854704D03*
D42*
X271682Y854704D03*
D22*
X279969Y854704D03*
X290623Y854704D03*
X295358Y854704D03*
X303645Y854704D03*
D104*
X314299Y854704D03*
D46*
X329097Y854704D03*
D41*
X340934Y854704D03*
D28*
X357508Y854704D03*
D22*
X362835Y854704D03*
D32*
X373489Y854704D03*
D15*
X226698Y855887D03*
D13*
X240903Y855887D03*
D15*
X255109Y855887D03*
X265763Y855887D03*
D50*
X271682Y855887D03*
D15*
X279969Y855887D03*
X290623Y855887D03*
X295358Y855887D03*
X303645Y855887D03*
D51*
X313707Y855887D03*
D57*
X329688Y855887D03*
D14*
X340934Y855887D03*
D38*
X357508Y855887D03*
D15*
X362835Y855887D03*
D13*
X377040Y855887D03*
D15*
X226698Y857071D03*
D13*
X240903Y857071D03*
D15*
X255109Y857071D03*
X265763Y857071D03*
D50*
X271682Y857071D03*
D15*
X279969Y857071D03*
X290623Y857071D03*
D38*
X357508Y857071D03*
D15*
X362835Y857071D03*
D13*
X377040Y857071D03*
D22*
X226698Y858255D03*
D34*
X245639Y858255D03*
X259844Y858255D03*
D42*
X271682Y858255D03*
D48*
X285296Y858255D03*
D47*
X356916Y858255D03*
D22*
X362835Y858255D03*
D46*
X372897Y858255D03*
D15*
X226698Y859439D03*
D39*
X245639Y859439D03*
D16*
X259252Y859439D03*
D50*
X271682Y859439D03*
D16*
X285296Y859439D03*
D38*
X356324Y859439D03*
D15*
X362835Y859439D03*
D23*
X372305Y859439D03*
D42*
X271682Y860623D03*
X326137Y860623D03*
D22*
X362835Y860623D03*
D50*
X271682Y861806D03*
X326137Y861806D03*
D15*
X362835Y861806D03*
D50*
X271682Y862990D03*
X326137Y862990D03*
D42*
X271682Y864174D03*
X326137Y864174D03*
D50*
X271682Y865358D03*
X326137Y865358D03*
D42*
X271682Y866542D03*
X326137Y866542D03*
D50*
X271682Y867725D03*
X326137Y867725D03*
X271682Y868909D03*
X326137Y868909D03*
D42*
X271682Y870093D03*
X326137Y870093D03*
D50*
X271682Y871277D03*
X326137Y871277D03*
D42*
X271682Y872461D03*
X326137Y872461D03*
D50*
X271682Y873644D03*
X326137Y873644D03*
X271682Y874828D03*
X326137Y874828D03*
D42*
X271682Y876012D03*
X326137Y876012D03*
D50*
X271682Y877196D03*
X326137Y877196D03*
D42*
X271682Y878380D03*
X326137Y878380D03*
D50*
X271682Y879563D03*
X326137Y879563D03*
X271682Y880747D03*
X326137Y880747D03*
D42*
X271682Y881931D03*
X326137Y881931D03*
D50*
X271682Y883115D03*
X326137Y883115D03*
D42*
X271682Y884299D03*
X326137Y884299D03*
D50*
X271682Y885482D03*
X326137Y885482D03*
X271682Y886666D03*
X326137Y886666D03*
D42*
X271682Y887850D03*
X326137Y887850D03*
D50*
X271682Y889034D03*
X326137Y889034D03*
D42*
X271682Y890218D03*
X326137Y890218D03*
D50*
X271682Y891401D03*
X326137Y891401D03*
X271682Y892585D03*
X326137Y892585D03*
D105*
X442500Y795000D02*
X442500Y615000D01*
X187500Y615000D01*
X187500Y795000D01*
X442500Y795000D01*
D106*
X344647Y694889D02*
X334266Y694889D01*
X344647Y694889D02*
X346723Y696965D01*
X346723Y701117D01*
X344647Y703193D01*
X334266Y703193D01*
X338419Y707986D02*
X334266Y712138D01*
X346723Y712138D01*
X346723Y707986D02*
X346723Y716291D01*
D107*
X345990Y492234D02*
X379010Y492234D01*
X345990Y492234D02*
X345990Y557766D01*
X379010Y557766D01*
X379010Y492234D01*
D108*
X389805Y525000D03*
D109*
X335195Y525000D03*
X335195Y548114D03*
X335195Y501886D03*
D108*
X389805Y525000D03*
D109*
X335195Y525000D03*
X335195Y548114D03*
X335195Y501886D03*
D110*
X367864Y512189D02*
X367864Y515324D01*
X367864Y513756D02*
X358458Y513756D01*
X358458Y512189D02*
X358458Y515324D01*
X358458Y523129D02*
X360026Y524696D01*
X358458Y523129D02*
X358458Y519993D01*
X360026Y518426D01*
X366296Y518426D01*
X367864Y519993D01*
X367864Y523129D01*
X366296Y524696D01*
X361593Y527781D02*
X358458Y530916D01*
X367864Y530916D01*
X367864Y527781D02*
X367864Y534051D01*
D111*
X322152Y590628D02*
X302975Y590628D01*
X302975Y574372D02*
X322152Y574372D01*
D112*
X325708Y582500D03*
X299292Y582500D03*
D113*
X307161Y570852D02*
X309110Y568903D01*
X307161Y570852D02*
X303263Y570852D01*
X301314Y568903D01*
X301314Y561107D01*
X303263Y559158D01*
X307161Y559158D01*
X309110Y561107D01*
X318855Y559158D02*
X318855Y570852D01*
X313008Y565005D01*
X320804Y565005D01*
D111*
X372975Y590628D02*
X392152Y590628D01*
X392152Y574372D02*
X372975Y574372D01*
D112*
X395708Y582500D03*
X369292Y582500D03*
D113*
X377161Y570852D02*
X379110Y568903D01*
X377161Y570852D02*
X373263Y570852D01*
X371314Y568903D01*
X371314Y561107D01*
X373263Y559158D01*
X377161Y559158D01*
X379110Y561107D01*
X383008Y570852D02*
X390804Y570852D01*
X383008Y570852D02*
X383008Y565005D01*
X386906Y566954D01*
X388855Y566954D01*
X390804Y565005D01*
X390804Y561107D01*
X388855Y559158D01*
X384957Y559158D01*
X383008Y561107D01*
D111*
X173128Y389525D02*
X173128Y370348D01*
X156872Y370348D02*
X156872Y389525D01*
D114*
X165000Y366792D03*
X165000Y393208D03*
D105*
X159000Y384000D02*
X171000Y384000D01*
D115*
X155586Y407000D02*
X155588Y407075D01*
X155594Y407149D01*
X155604Y407223D01*
X155617Y407296D01*
X155635Y407369D01*
X155656Y407440D01*
X155681Y407511D01*
X155710Y407580D01*
X155743Y407647D01*
X155779Y407712D01*
X155818Y407776D01*
X155860Y407837D01*
X155906Y407896D01*
X155955Y407953D01*
X156007Y408006D01*
X156061Y408057D01*
X156118Y408106D01*
X156178Y408150D01*
X156240Y408192D01*
X156304Y408231D01*
X156370Y408266D01*
X156437Y408297D01*
X156507Y408325D01*
X156577Y408349D01*
X156649Y408370D01*
X156722Y408386D01*
X156795Y408399D01*
X156870Y408408D01*
X156944Y408413D01*
X157019Y408414D01*
X157093Y408411D01*
X157168Y408404D01*
X157241Y408393D01*
X157315Y408379D01*
X157387Y408360D01*
X157458Y408338D01*
X157528Y408312D01*
X157597Y408282D01*
X157663Y408249D01*
X157728Y408212D01*
X157791Y408172D01*
X157852Y408128D01*
X157910Y408082D01*
X157966Y408032D01*
X158019Y407980D01*
X158070Y407925D01*
X158117Y407867D01*
X158161Y407807D01*
X158202Y407744D01*
X158240Y407680D01*
X158274Y407614D01*
X158305Y407545D01*
X158332Y407476D01*
X158355Y407405D01*
X158374Y407333D01*
X158390Y407260D01*
X158402Y407186D01*
X158410Y407112D01*
X158414Y407037D01*
X158414Y406963D01*
X158410Y406888D01*
X158402Y406814D01*
X158390Y406740D01*
X158374Y406667D01*
X158355Y406595D01*
X158332Y406524D01*
X158305Y406455D01*
X158274Y406386D01*
X158240Y406320D01*
X158202Y406256D01*
X158161Y406193D01*
X158117Y406133D01*
X158070Y406075D01*
X158019Y406020D01*
X157966Y405968D01*
X157910Y405918D01*
X157852Y405872D01*
X157791Y405828D01*
X157728Y405788D01*
X157663Y405751D01*
X157597Y405718D01*
X157528Y405688D01*
X157458Y405662D01*
X157387Y405640D01*
X157315Y405621D01*
X157241Y405607D01*
X157168Y405596D01*
X157093Y405589D01*
X157019Y405586D01*
X156944Y405587D01*
X156870Y405592D01*
X156795Y405601D01*
X156722Y405614D01*
X156649Y405630D01*
X156577Y405651D01*
X156507Y405675D01*
X156437Y405703D01*
X156370Y405734D01*
X156304Y405769D01*
X156240Y405808D01*
X156178Y405850D01*
X156118Y405894D01*
X156061Y405943D01*
X156007Y405994D01*
X155955Y406047D01*
X155906Y406104D01*
X155860Y406163D01*
X155818Y406224D01*
X155779Y406288D01*
X155743Y406353D01*
X155710Y406420D01*
X155681Y406489D01*
X155656Y406560D01*
X155635Y406631D01*
X155617Y406704D01*
X155604Y406777D01*
X155594Y406851D01*
X155588Y406925D01*
X155586Y407000D01*
D116*
X412500Y58330D02*
X412500Y55790D01*
X412500Y111670D02*
X412500Y114210D01*
D117*
X440543Y86142D02*
X419905Y86138D01*
X419906Y86139D02*
X419876Y86318D01*
X419842Y86498D01*
X419803Y86676D01*
X419760Y86853D01*
X419713Y87029D01*
X419661Y87204D01*
X419606Y87378D01*
X419546Y87550D01*
X419482Y87721D01*
X419413Y87890D01*
X419341Y88057D01*
X419264Y88223D01*
X419184Y88387D01*
X419100Y88548D01*
X419011Y88708D01*
X418919Y88865D01*
X418823Y89020D01*
X418723Y89173D01*
X418620Y89323D01*
X418513Y89471D01*
X418402Y89616D01*
X418288Y89758D01*
X418171Y89898D01*
X418050Y90034D01*
X417926Y90168D01*
X417798Y90298D01*
X417668Y90426D01*
X417534Y90550D01*
X417398Y90671D01*
X417258Y90788D01*
X417116Y90902D01*
X416971Y91013D01*
X416823Y91120D01*
X416673Y91223D01*
X416520Y91323D01*
X416365Y91419D01*
X416208Y91511D01*
X416048Y91600D01*
X415887Y91684D01*
X415723Y91764D01*
X415557Y91841D01*
X415390Y91913D01*
X415221Y91982D01*
X415050Y92046D01*
X414878Y92106D01*
X414704Y92161D01*
X414529Y92213D01*
X414353Y92260D01*
X414176Y92303D01*
X413998Y92342D01*
X413818Y92376D01*
X413639Y92406D01*
X413642Y113043D01*
X413643Y113044D01*
X414327Y113007D01*
X415010Y112955D01*
X415692Y112885D01*
X416372Y112799D01*
X417049Y112696D01*
X417724Y112577D01*
X418396Y112441D01*
X419064Y112289D01*
X419728Y112120D01*
X420388Y111936D01*
X421043Y111735D01*
X421693Y111519D01*
X422338Y111286D01*
X422977Y111038D01*
X423609Y110775D01*
X424235Y110496D01*
X424854Y110202D01*
X425466Y109893D01*
X426070Y109569D01*
X426665Y109230D01*
X427253Y108877D01*
X427831Y108510D01*
X428401Y108128D01*
X428961Y107733D01*
X429511Y107325D01*
X430051Y106903D01*
X430580Y106468D01*
X431099Y106020D01*
X431606Y105560D01*
X432103Y105087D01*
X432587Y104603D01*
X433060Y104106D01*
X433520Y103599D01*
X433968Y103080D01*
X434403Y102551D01*
X434825Y102011D01*
X435233Y101461D01*
X435628Y100901D01*
X436010Y100331D01*
X436377Y99753D01*
X436730Y99165D01*
X437069Y98570D01*
X437393Y97966D01*
X437702Y97354D01*
X437996Y96735D01*
X438275Y96109D01*
X438538Y95477D01*
X438786Y94838D01*
X439019Y94193D01*
X439235Y93543D01*
X439436Y92888D01*
X439620Y92228D01*
X439789Y91564D01*
X439941Y90896D01*
X440077Y90224D01*
X440196Y89549D01*
X440299Y88872D01*
X440385Y88192D01*
X440455Y87510D01*
X440507Y86827D01*
X440544Y86143D01*
X438371Y86143D01*
X438335Y86771D01*
X438285Y87398D01*
X438219Y88024D01*
X438138Y88648D01*
X438041Y89270D01*
X437930Y89890D01*
X437804Y90506D01*
X437663Y91119D01*
X437506Y91729D01*
X437336Y92335D01*
X437150Y92936D01*
X436950Y93533D01*
X436735Y94125D01*
X436506Y94711D01*
X436263Y95291D01*
X436006Y95866D01*
X435735Y96434D01*
X435450Y96995D01*
X435152Y97549D01*
X434840Y98096D01*
X434516Y98635D01*
X434178Y99166D01*
X433827Y99689D01*
X433464Y100203D01*
X433088Y100708D01*
X432700Y101203D01*
X432301Y101689D01*
X431889Y102166D01*
X431466Y102632D01*
X431032Y103087D01*
X430587Y103532D01*
X430132Y103966D01*
X429666Y104389D01*
X429189Y104801D01*
X428703Y105200D01*
X428208Y105588D01*
X427703Y105964D01*
X427189Y106327D01*
X426666Y106678D01*
X426135Y107016D01*
X425596Y107340D01*
X425049Y107652D01*
X424495Y107950D01*
X423934Y108235D01*
X423366Y108506D01*
X422791Y108763D01*
X422211Y109006D01*
X421625Y109235D01*
X421033Y109450D01*
X420436Y109650D01*
X419835Y109836D01*
X419229Y110006D01*
X418619Y110163D01*
X418006Y110304D01*
X417390Y110430D01*
X416770Y110541D01*
X416148Y110638D01*
X415524Y110719D01*
X414898Y110785D01*
X414271Y110835D01*
X413643Y110871D01*
X413643Y108697D01*
X414215Y108663D01*
X414786Y108615D01*
X415356Y108552D01*
X415925Y108477D01*
X416491Y108387D01*
X417055Y108284D01*
X417617Y108167D01*
X418175Y108036D01*
X418730Y107892D01*
X419282Y107735D01*
X419829Y107565D01*
X420372Y107381D01*
X420911Y107184D01*
X421445Y106974D01*
X421973Y106752D01*
X422496Y106516D01*
X423013Y106268D01*
X423524Y106008D01*
X424029Y105736D01*
X424527Y105451D01*
X425017Y105154D01*
X425501Y104846D01*
X425977Y104526D01*
X426445Y104194D01*
X426904Y103852D01*
X427356Y103498D01*
X427799Y103134D01*
X428232Y102759D01*
X428657Y102373D01*
X429072Y101978D01*
X429478Y101572D01*
X429873Y101157D01*
X430259Y100732D01*
X430634Y100299D01*
X430998Y99856D01*
X431352Y99404D01*
X431694Y98945D01*
X432026Y98477D01*
X432346Y98001D01*
X432654Y97517D01*
X432951Y97027D01*
X433236Y96529D01*
X433508Y96024D01*
X433768Y95513D01*
X434016Y94996D01*
X434252Y94473D01*
X434474Y93945D01*
X434684Y93411D01*
X434881Y92872D01*
X435065Y92329D01*
X435235Y91782D01*
X435392Y91230D01*
X435536Y90675D01*
X435667Y90117D01*
X435784Y89555D01*
X435887Y88991D01*
X435977Y88425D01*
X436052Y87856D01*
X436115Y87286D01*
X436163Y86715D01*
X436197Y86143D01*
X434024Y86142D01*
X433989Y86668D01*
X433942Y87192D01*
X433882Y87714D01*
X433810Y88235D01*
X433724Y88755D01*
X433626Y89272D01*
X433516Y89786D01*
X433393Y90298D01*
X433257Y90806D01*
X433109Y91311D01*
X432949Y91812D01*
X432777Y92309D01*
X432592Y92802D01*
X432396Y93290D01*
X432188Y93773D01*
X431968Y94251D01*
X431736Y94724D01*
X431493Y95190D01*
X431238Y95651D01*
X430973Y96105D01*
X430696Y96553D01*
X430409Y96994D01*
X430111Y97427D01*
X429802Y97853D01*
X429483Y98272D01*
X429154Y98682D01*
X428815Y99085D01*
X428467Y99479D01*
X428108Y99864D01*
X427741Y100241D01*
X427364Y100608D01*
X426979Y100967D01*
X426585Y101315D01*
X426182Y101654D01*
X425772Y101983D01*
X425353Y102302D01*
X424927Y102611D01*
X424494Y102909D01*
X424053Y103196D01*
X423605Y103473D01*
X423151Y103738D01*
X422690Y103993D01*
X422224Y104236D01*
X421751Y104468D01*
X421273Y104688D01*
X420790Y104896D01*
X420302Y105092D01*
X419809Y105277D01*
X419312Y105449D01*
X418811Y105609D01*
X418306Y105757D01*
X417798Y105893D01*
X417286Y106016D01*
X416772Y106126D01*
X416255Y106224D01*
X415735Y106310D01*
X415214Y106382D01*
X414692Y106442D01*
X414168Y106489D01*
X413642Y106524D01*
X413642Y104349D01*
X414110Y104316D01*
X414578Y104271D01*
X415044Y104215D01*
X415508Y104148D01*
X415971Y104070D01*
X416432Y103980D01*
X416890Y103879D01*
X417346Y103767D01*
X417799Y103645D01*
X418249Y103511D01*
X418695Y103366D01*
X419138Y103211D01*
X419577Y103045D01*
X420012Y102868D01*
X420442Y102681D01*
X420868Y102484D01*
X421289Y102276D01*
X421705Y102058D01*
X422115Y101830D01*
X422520Y101592D01*
X422918Y101345D01*
X423311Y101088D01*
X423697Y100821D01*
X424077Y100546D01*
X424450Y100261D01*
X424816Y99967D01*
X425175Y99664D01*
X425526Y99353D01*
X425870Y99034D01*
X426206Y98706D01*
X426534Y98370D01*
X426853Y98026D01*
X427164Y97675D01*
X427467Y97316D01*
X427761Y96950D01*
X428046Y96577D01*
X428321Y96197D01*
X428588Y95811D01*
X428845Y95418D01*
X429092Y95020D01*
X429330Y94615D01*
X429558Y94205D01*
X429776Y93789D01*
X429984Y93368D01*
X430181Y92942D01*
X430368Y92512D01*
X430545Y92077D01*
X430711Y91638D01*
X430866Y91195D01*
X431011Y90749D01*
X431145Y90299D01*
X431267Y89846D01*
X431379Y89390D01*
X431480Y88932D01*
X431570Y88471D01*
X431648Y88008D01*
X431715Y87544D01*
X431771Y87078D01*
X431816Y86610D01*
X431849Y86142D01*
X429674Y86142D01*
X429641Y86560D01*
X429598Y86978D01*
X429545Y87394D01*
X429481Y87808D01*
X429408Y88221D01*
X429324Y88632D01*
X429231Y89041D01*
X429127Y89448D01*
X429014Y89852D01*
X428891Y90253D01*
X428758Y90651D01*
X428615Y91045D01*
X428463Y91436D01*
X428302Y91823D01*
X428131Y92206D01*
X427951Y92585D01*
X427761Y92959D01*
X427563Y93329D01*
X427355Y93694D01*
X427139Y94053D01*
X426914Y94407D01*
X426680Y94756D01*
X426438Y95098D01*
X426188Y95435D01*
X425930Y95765D01*
X425663Y96090D01*
X425389Y96407D01*
X425107Y96718D01*
X424818Y97022D01*
X424522Y97318D01*
X424218Y97607D01*
X423907Y97889D01*
X423590Y98163D01*
X423265Y98430D01*
X422935Y98688D01*
X422598Y98938D01*
X422256Y99180D01*
X421907Y99414D01*
X421553Y99639D01*
X421194Y99855D01*
X420829Y100063D01*
X420459Y100261D01*
X420085Y100451D01*
X419706Y100631D01*
X419323Y100802D01*
X418936Y100963D01*
X418545Y101115D01*
X418151Y101258D01*
X417753Y101391D01*
X417352Y101514D01*
X416948Y101627D01*
X416541Y101731D01*
X416132Y101824D01*
X415721Y101908D01*
X415308Y101981D01*
X414894Y102045D01*
X414478Y102098D01*
X414060Y102141D01*
X413642Y102174D01*
X413642Y99998D01*
X414008Y99965D01*
X414374Y99924D01*
X414738Y99873D01*
X415102Y99814D01*
X415463Y99746D01*
X415823Y99669D01*
X416181Y99584D01*
X416536Y99489D01*
X416890Y99386D01*
X417240Y99275D01*
X417588Y99154D01*
X417933Y99026D01*
X418274Y98889D01*
X418612Y98743D01*
X418946Y98590D01*
X419277Y98428D01*
X419603Y98258D01*
X419925Y98080D01*
X420243Y97895D01*
X420556Y97702D01*
X420864Y97501D01*
X421168Y97292D01*
X421466Y97077D01*
X421759Y96854D01*
X422046Y96624D01*
X422327Y96387D01*
X422603Y96143D01*
X422872Y95893D01*
X423136Y95636D01*
X423393Y95372D01*
X423643Y95103D01*
X423887Y94827D01*
X424124Y94546D01*
X424354Y94259D01*
X424577Y93966D01*
X424792Y93668D01*
X425001Y93364D01*
X425202Y93056D01*
X425395Y92743D01*
X425580Y92425D01*
X425758Y92103D01*
X425928Y91777D01*
X426090Y91446D01*
X426243Y91112D01*
X426389Y90774D01*
X426526Y90433D01*
X426654Y90088D01*
X426775Y89740D01*
X426886Y89390D01*
X426989Y89036D01*
X427084Y88681D01*
X427169Y88323D01*
X427246Y87963D01*
X427314Y87602D01*
X427373Y87238D01*
X427424Y86874D01*
X427465Y86508D01*
X427498Y86142D01*
X425319Y86141D01*
X425288Y86454D01*
X425248Y86767D01*
X425201Y87078D01*
X425147Y87387D01*
X425085Y87696D01*
X425015Y88002D01*
X424938Y88307D01*
X424853Y88610D01*
X424761Y88911D01*
X424662Y89210D01*
X424556Y89506D01*
X424442Y89799D01*
X424321Y90089D01*
X424193Y90377D01*
X424058Y90661D01*
X423916Y90942D01*
X423768Y91219D01*
X423612Y91492D01*
X423450Y91762D01*
X423282Y92028D01*
X423107Y92289D01*
X422926Y92546D01*
X422738Y92799D01*
X422544Y93047D01*
X422345Y93290D01*
X422139Y93528D01*
X421928Y93761D01*
X421711Y93989D01*
X421489Y94211D01*
X421261Y94428D01*
X421028Y94639D01*
X420790Y94845D01*
X420547Y95044D01*
X420299Y95238D01*
X420046Y95426D01*
X419789Y95607D01*
X419528Y95782D01*
X419262Y95950D01*
X418992Y96112D01*
X418719Y96268D01*
X418442Y96416D01*
X418161Y96558D01*
X417877Y96693D01*
X417589Y96821D01*
X417299Y96942D01*
X417006Y97056D01*
X416710Y97162D01*
X416411Y97261D01*
X416110Y97353D01*
X415807Y97438D01*
X415502Y97515D01*
X415196Y97585D01*
X414887Y97647D01*
X414578Y97701D01*
X414267Y97748D01*
X413954Y97788D01*
X413641Y97819D01*
X413641Y95638D01*
X413898Y95607D01*
X414155Y95570D01*
X414411Y95527D01*
X414665Y95478D01*
X414918Y95422D01*
X415170Y95360D01*
X415420Y95293D01*
X415669Y95219D01*
X415916Y95139D01*
X416160Y95053D01*
X416403Y94962D01*
X416643Y94864D01*
X416881Y94761D01*
X417116Y94652D01*
X417349Y94537D01*
X417578Y94417D01*
X417805Y94291D01*
X418029Y94160D01*
X418249Y94023D01*
X418466Y93881D01*
X418679Y93734D01*
X418889Y93582D01*
X419095Y93424D01*
X419298Y93262D01*
X419496Y93095D01*
X419690Y92923D01*
X419880Y92746D01*
X420065Y92565D01*
X420246Y92380D01*
X420423Y92190D01*
X420595Y91996D01*
X420762Y91798D01*
X420924Y91595D01*
X421082Y91389D01*
X421234Y91179D01*
X421381Y90966D01*
X421523Y90749D01*
X421660Y90529D01*
X421791Y90305D01*
X421917Y90078D01*
X422037Y89849D01*
X422152Y89616D01*
X422261Y89381D01*
X422364Y89143D01*
X422462Y88903D01*
X422553Y88660D01*
X422639Y88416D01*
X422719Y88169D01*
X422793Y87920D01*
X422860Y87670D01*
X422922Y87418D01*
X422978Y87165D01*
X423027Y86911D01*
X423070Y86655D01*
X423107Y86398D01*
X423138Y86141D01*
X420952Y86140D01*
X420922Y86343D01*
X420887Y86546D01*
X420847Y86748D01*
X420802Y86949D01*
X420753Y87148D01*
X420699Y87347D01*
X420640Y87544D01*
X420576Y87739D01*
X420508Y87933D01*
X420435Y88126D01*
X420357Y88316D01*
X420275Y88505D01*
X420188Y88691D01*
X420096Y88876D01*
X420001Y89058D01*
X419901Y89238D01*
X419796Y89415D01*
X419688Y89590D01*
X419575Y89762D01*
X419458Y89931D01*
X419337Y90097D01*
X419212Y90261D01*
X419083Y90421D01*
X418950Y90578D01*
X418814Y90732D01*
X418674Y90883D01*
X418530Y91030D01*
X418383Y91174D01*
X418232Y91314D01*
X418078Y91450D01*
X417921Y91583D01*
X417761Y91712D01*
X417597Y91837D01*
X417431Y91958D01*
X417262Y92075D01*
X417090Y92188D01*
X416915Y92296D01*
X416738Y92401D01*
X416558Y92501D01*
X416376Y92596D01*
X416191Y92688D01*
X416005Y92775D01*
X415816Y92857D01*
X415626Y92935D01*
X415433Y93008D01*
X415239Y93076D01*
X415044Y93140D01*
X414847Y93199D01*
X414648Y93253D01*
X414449Y93302D01*
X414248Y93347D01*
X414046Y93387D01*
X413843Y93422D01*
X413640Y93452D01*
X384457Y83858D02*
X405095Y83862D01*
X405094Y83861D02*
X405124Y83682D01*
X405158Y83502D01*
X405197Y83324D01*
X405240Y83147D01*
X405287Y82971D01*
X405339Y82796D01*
X405394Y82622D01*
X405454Y82450D01*
X405518Y82279D01*
X405587Y82110D01*
X405659Y81943D01*
X405736Y81777D01*
X405816Y81613D01*
X405900Y81452D01*
X405989Y81292D01*
X406081Y81135D01*
X406177Y80980D01*
X406277Y80827D01*
X406380Y80677D01*
X406487Y80529D01*
X406598Y80384D01*
X406712Y80242D01*
X406829Y80102D01*
X406950Y79966D01*
X407074Y79832D01*
X407202Y79702D01*
X407332Y79574D01*
X407466Y79450D01*
X407602Y79329D01*
X407742Y79212D01*
X407884Y79098D01*
X408029Y78987D01*
X408177Y78880D01*
X408327Y78777D01*
X408480Y78677D01*
X408635Y78581D01*
X408792Y78489D01*
X408952Y78400D01*
X409113Y78316D01*
X409277Y78236D01*
X409443Y78159D01*
X409610Y78087D01*
X409779Y78018D01*
X409950Y77954D01*
X410122Y77894D01*
X410296Y77839D01*
X410471Y77787D01*
X410647Y77740D01*
X410824Y77697D01*
X411002Y77658D01*
X411182Y77624D01*
X411361Y77594D01*
X411358Y56957D01*
X411357Y56956D01*
X410673Y56993D01*
X409990Y57045D01*
X409308Y57115D01*
X408628Y57201D01*
X407951Y57304D01*
X407276Y57423D01*
X406604Y57559D01*
X405936Y57711D01*
X405272Y57880D01*
X404612Y58064D01*
X403957Y58265D01*
X403307Y58481D01*
X402662Y58714D01*
X402023Y58962D01*
X401391Y59225D01*
X400765Y59504D01*
X400146Y59798D01*
X399534Y60107D01*
X398930Y60431D01*
X398335Y60770D01*
X397747Y61123D01*
X397169Y61490D01*
X396599Y61872D01*
X396039Y62267D01*
X395489Y62675D01*
X394949Y63097D01*
X394420Y63532D01*
X393901Y63980D01*
X393394Y64440D01*
X392897Y64913D01*
X392413Y65397D01*
X391940Y65894D01*
X391480Y66401D01*
X391032Y66920D01*
X390597Y67449D01*
X390175Y67989D01*
X389767Y68539D01*
X389372Y69099D01*
X388990Y69669D01*
X388623Y70247D01*
X388270Y70835D01*
X387931Y71430D01*
X387607Y72034D01*
X387298Y72646D01*
X387004Y73265D01*
X386725Y73891D01*
X386462Y74523D01*
X386214Y75162D01*
X385981Y75807D01*
X385765Y76457D01*
X385564Y77112D01*
X385380Y77772D01*
X385211Y78436D01*
X385059Y79104D01*
X384923Y79776D01*
X384804Y80451D01*
X384701Y81128D01*
X384615Y81808D01*
X384545Y82490D01*
X384493Y83173D01*
X384456Y83857D01*
X386629Y83857D01*
X386665Y83229D01*
X386715Y82602D01*
X386781Y81976D01*
X386862Y81352D01*
X386959Y80730D01*
X387070Y80110D01*
X387196Y79494D01*
X387337Y78881D01*
X387494Y78271D01*
X387664Y77665D01*
X387850Y77064D01*
X388050Y76467D01*
X388265Y75875D01*
X388494Y75289D01*
X388737Y74709D01*
X388994Y74134D01*
X389265Y73566D01*
X389550Y73005D01*
X389848Y72451D01*
X390160Y71904D01*
X390484Y71365D01*
X390822Y70834D01*
X391173Y70311D01*
X391536Y69797D01*
X391912Y69292D01*
X392300Y68797D01*
X392699Y68311D01*
X393111Y67834D01*
X393534Y67368D01*
X393968Y66913D01*
X394413Y66468D01*
X394868Y66034D01*
X395334Y65611D01*
X395811Y65199D01*
X396297Y64800D01*
X396792Y64412D01*
X397297Y64036D01*
X397811Y63673D01*
X398334Y63322D01*
X398865Y62984D01*
X399404Y62660D01*
X399951Y62348D01*
X400505Y62050D01*
X401066Y61765D01*
X401634Y61494D01*
X402209Y61237D01*
X402789Y60994D01*
X403375Y60765D01*
X403967Y60550D01*
X404564Y60350D01*
X405165Y60164D01*
X405771Y59994D01*
X406381Y59837D01*
X406994Y59696D01*
X407610Y59570D01*
X408230Y59459D01*
X408852Y59362D01*
X409476Y59281D01*
X410102Y59215D01*
X410729Y59165D01*
X411357Y59129D01*
X411357Y61303D01*
X410785Y61337D01*
X410214Y61385D01*
X409644Y61448D01*
X409075Y61523D01*
X408509Y61613D01*
X407945Y61716D01*
X407383Y61833D01*
X406825Y61964D01*
X406270Y62108D01*
X405718Y62265D01*
X405171Y62435D01*
X404628Y62619D01*
X404089Y62816D01*
X403555Y63026D01*
X403027Y63248D01*
X402504Y63484D01*
X401987Y63732D01*
X401476Y63992D01*
X400971Y64264D01*
X400473Y64549D01*
X399983Y64846D01*
X399499Y65154D01*
X399023Y65474D01*
X398555Y65806D01*
X398096Y66148D01*
X397644Y66502D01*
X397201Y66866D01*
X396768Y67241D01*
X396343Y67627D01*
X395928Y68022D01*
X395522Y68428D01*
X395127Y68843D01*
X394741Y69268D01*
X394366Y69701D01*
X394002Y70144D01*
X393648Y70596D01*
X393306Y71055D01*
X392974Y71523D01*
X392654Y71999D01*
X392346Y72483D01*
X392049Y72973D01*
X391764Y73471D01*
X391492Y73976D01*
X391232Y74487D01*
X390984Y75004D01*
X390748Y75527D01*
X390526Y76055D01*
X390316Y76589D01*
X390119Y77128D01*
X389935Y77671D01*
X389765Y78218D01*
X389608Y78770D01*
X389464Y79325D01*
X389333Y79883D01*
X389216Y80445D01*
X389113Y81009D01*
X389023Y81575D01*
X388948Y82144D01*
X388885Y82714D01*
X388837Y83285D01*
X388803Y83857D01*
X390976Y83858D01*
X391011Y83332D01*
X391058Y82808D01*
X391118Y82286D01*
X391190Y81765D01*
X391276Y81245D01*
X391374Y80728D01*
X391484Y80214D01*
X391607Y79702D01*
X391743Y79194D01*
X391891Y78689D01*
X392051Y78188D01*
X392223Y77691D01*
X392408Y77198D01*
X392604Y76710D01*
X392812Y76227D01*
X393032Y75749D01*
X393264Y75276D01*
X393507Y74810D01*
X393762Y74349D01*
X394027Y73895D01*
X394304Y73447D01*
X394591Y73006D01*
X394889Y72573D01*
X395198Y72147D01*
X395517Y71728D01*
X395846Y71318D01*
X396185Y70915D01*
X396533Y70521D01*
X396892Y70136D01*
X397259Y69759D01*
X397636Y69392D01*
X398021Y69033D01*
X398415Y68685D01*
X398818Y68346D01*
X399228Y68017D01*
X399647Y67698D01*
X400073Y67389D01*
X400506Y67091D01*
X400947Y66804D01*
X401395Y66527D01*
X401849Y66262D01*
X402310Y66007D01*
X402776Y65764D01*
X403249Y65532D01*
X403727Y65312D01*
X404210Y65104D01*
X404698Y64908D01*
X405191Y64723D01*
X405688Y64551D01*
X406189Y64391D01*
X406694Y64243D01*
X407202Y64107D01*
X407714Y63984D01*
X408228Y63874D01*
X408745Y63776D01*
X409265Y63690D01*
X409786Y63618D01*
X410308Y63558D01*
X410832Y63511D01*
X411358Y63476D01*
X411358Y65651D01*
X410890Y65684D01*
X410422Y65729D01*
X409956Y65785D01*
X409492Y65852D01*
X409029Y65930D01*
X408568Y66020D01*
X408110Y66121D01*
X407654Y66233D01*
X407201Y66355D01*
X406751Y66489D01*
X406305Y66634D01*
X405862Y66789D01*
X405423Y66955D01*
X404988Y67132D01*
X404558Y67319D01*
X404132Y67516D01*
X403711Y67724D01*
X403295Y67942D01*
X402885Y68170D01*
X402480Y68408D01*
X402082Y68655D01*
X401689Y68912D01*
X401303Y69179D01*
X400923Y69454D01*
X400550Y69739D01*
X400184Y70033D01*
X399825Y70336D01*
X399474Y70647D01*
X399130Y70966D01*
X398794Y71294D01*
X398466Y71630D01*
X398147Y71974D01*
X397836Y72325D01*
X397533Y72684D01*
X397239Y73050D01*
X396954Y73423D01*
X396679Y73803D01*
X396412Y74189D01*
X396155Y74582D01*
X395908Y74980D01*
X395670Y75385D01*
X395442Y75795D01*
X395224Y76211D01*
X395016Y76632D01*
X394819Y77058D01*
X394632Y77488D01*
X394455Y77923D01*
X394289Y78362D01*
X394134Y78805D01*
X393989Y79251D01*
X393855Y79701D01*
X393733Y80154D01*
X393621Y80610D01*
X393520Y81068D01*
X393430Y81529D01*
X393352Y81992D01*
X393285Y82456D01*
X393229Y82922D01*
X393184Y83390D01*
X393151Y83858D01*
X395326Y83858D01*
X395359Y83440D01*
X395402Y83022D01*
X395455Y82606D01*
X395519Y82192D01*
X395592Y81779D01*
X395676Y81368D01*
X395769Y80959D01*
X395873Y80552D01*
X395986Y80148D01*
X396109Y79747D01*
X396242Y79349D01*
X396385Y78955D01*
X396537Y78564D01*
X396698Y78177D01*
X396869Y77794D01*
X397049Y77415D01*
X397239Y77041D01*
X397437Y76671D01*
X397645Y76306D01*
X397861Y75947D01*
X398086Y75593D01*
X398320Y75244D01*
X398562Y74902D01*
X398812Y74565D01*
X399070Y74235D01*
X399337Y73910D01*
X399611Y73593D01*
X399893Y73282D01*
X400182Y72978D01*
X400478Y72682D01*
X400782Y72393D01*
X401093Y72111D01*
X401410Y71837D01*
X401735Y71570D01*
X402065Y71312D01*
X402402Y71062D01*
X402744Y70820D01*
X403093Y70586D01*
X403447Y70361D01*
X403806Y70145D01*
X404171Y69937D01*
X404541Y69739D01*
X404915Y69549D01*
X405294Y69369D01*
X405677Y69198D01*
X406064Y69037D01*
X406455Y68885D01*
X406849Y68742D01*
X407247Y68609D01*
X407648Y68486D01*
X408052Y68373D01*
X408459Y68269D01*
X408868Y68176D01*
X409279Y68092D01*
X409692Y68019D01*
X410106Y67955D01*
X410522Y67902D01*
X410940Y67859D01*
X411358Y67826D01*
X411358Y70002D01*
X410992Y70035D01*
X410626Y70076D01*
X410262Y70127D01*
X409898Y70186D01*
X409537Y70254D01*
X409177Y70331D01*
X408819Y70416D01*
X408464Y70511D01*
X408110Y70614D01*
X407760Y70725D01*
X407412Y70846D01*
X407067Y70974D01*
X406726Y71111D01*
X406388Y71257D01*
X406054Y71410D01*
X405723Y71572D01*
X405397Y71742D01*
X405075Y71920D01*
X404757Y72105D01*
X404444Y72298D01*
X404136Y72499D01*
X403832Y72708D01*
X403534Y72923D01*
X403241Y73146D01*
X402954Y73376D01*
X402673Y73613D01*
X402397Y73857D01*
X402128Y74107D01*
X401864Y74364D01*
X401607Y74628D01*
X401357Y74897D01*
X401113Y75173D01*
X400876Y75454D01*
X400646Y75741D01*
X400423Y76034D01*
X400208Y76332D01*
X399999Y76636D01*
X399798Y76944D01*
X399605Y77257D01*
X399420Y77575D01*
X399242Y77897D01*
X399072Y78223D01*
X398910Y78554D01*
X398757Y78888D01*
X398611Y79226D01*
X398474Y79567D01*
X398346Y79912D01*
X398225Y80260D01*
X398114Y80610D01*
X398011Y80964D01*
X397916Y81319D01*
X397831Y81677D01*
X397754Y82037D01*
X397686Y82398D01*
X397627Y82762D01*
X397576Y83126D01*
X397535Y83492D01*
X397502Y83858D01*
X399681Y83859D01*
X399712Y83546D01*
X399752Y83233D01*
X399799Y82922D01*
X399853Y82613D01*
X399915Y82304D01*
X399985Y81998D01*
X400062Y81693D01*
X400147Y81390D01*
X400239Y81089D01*
X400338Y80790D01*
X400444Y80494D01*
X400558Y80201D01*
X400679Y79911D01*
X400807Y79623D01*
X400942Y79339D01*
X401084Y79058D01*
X401232Y78781D01*
X401388Y78508D01*
X401550Y78238D01*
X401718Y77972D01*
X401893Y77711D01*
X402074Y77454D01*
X402262Y77201D01*
X402456Y76953D01*
X402655Y76710D01*
X402861Y76472D01*
X403072Y76239D01*
X403289Y76011D01*
X403511Y75789D01*
X403739Y75572D01*
X403972Y75361D01*
X404210Y75155D01*
X404453Y74956D01*
X404701Y74762D01*
X404954Y74574D01*
X405211Y74393D01*
X405472Y74218D01*
X405738Y74050D01*
X406008Y73888D01*
X406281Y73732D01*
X406558Y73584D01*
X406839Y73442D01*
X407123Y73307D01*
X407411Y73179D01*
X407701Y73058D01*
X407994Y72944D01*
X408290Y72838D01*
X408589Y72739D01*
X408890Y72647D01*
X409193Y72562D01*
X409498Y72485D01*
X409804Y72415D01*
X410113Y72353D01*
X410422Y72299D01*
X410733Y72252D01*
X411046Y72212D01*
X411359Y72181D01*
X411359Y74362D01*
X411102Y74393D01*
X410845Y74430D01*
X410589Y74473D01*
X410335Y74522D01*
X410082Y74578D01*
X409830Y74640D01*
X409580Y74707D01*
X409331Y74781D01*
X409084Y74861D01*
X408840Y74947D01*
X408597Y75038D01*
X408357Y75136D01*
X408119Y75239D01*
X407884Y75348D01*
X407651Y75463D01*
X407422Y75583D01*
X407195Y75709D01*
X406971Y75840D01*
X406751Y75977D01*
X406534Y76119D01*
X406321Y76266D01*
X406111Y76418D01*
X405905Y76576D01*
X405702Y76738D01*
X405504Y76905D01*
X405310Y77077D01*
X405120Y77254D01*
X404935Y77435D01*
X404754Y77620D01*
X404577Y77810D01*
X404405Y78004D01*
X404238Y78202D01*
X404076Y78405D01*
X403918Y78611D01*
X403766Y78821D01*
X403619Y79034D01*
X403477Y79251D01*
X403340Y79471D01*
X403209Y79695D01*
X403083Y79922D01*
X402963Y80151D01*
X402848Y80384D01*
X402739Y80619D01*
X402636Y80857D01*
X402538Y81097D01*
X402447Y81340D01*
X402361Y81584D01*
X402281Y81831D01*
X402207Y82080D01*
X402140Y82330D01*
X402078Y82582D01*
X402022Y82835D01*
X401973Y83089D01*
X401930Y83345D01*
X401893Y83602D01*
X401862Y83859D01*
X404048Y83860D01*
X404078Y83657D01*
X404113Y83454D01*
X404153Y83252D01*
X404198Y83051D01*
X404247Y82852D01*
X404301Y82653D01*
X404360Y82456D01*
X404424Y82261D01*
X404492Y82067D01*
X404565Y81874D01*
X404643Y81684D01*
X404725Y81495D01*
X404812Y81309D01*
X404904Y81124D01*
X404999Y80942D01*
X405099Y80762D01*
X405204Y80585D01*
X405312Y80410D01*
X405425Y80238D01*
X405542Y80069D01*
X405663Y79903D01*
X405788Y79739D01*
X405917Y79579D01*
X406050Y79422D01*
X406186Y79268D01*
X406326Y79117D01*
X406470Y78970D01*
X406617Y78826D01*
X406768Y78686D01*
X406922Y78550D01*
X407079Y78417D01*
X407239Y78288D01*
X407403Y78163D01*
X407569Y78042D01*
X407738Y77925D01*
X407910Y77812D01*
X408085Y77704D01*
X408262Y77599D01*
X408442Y77499D01*
X408624Y77404D01*
X408809Y77312D01*
X408995Y77225D01*
X409184Y77143D01*
X409374Y77065D01*
X409567Y76992D01*
X409761Y76924D01*
X409956Y76860D01*
X410153Y76801D01*
X410352Y76747D01*
X410551Y76698D01*
X410752Y76653D01*
X410954Y76613D01*
X411157Y76578D01*
X411360Y76548D01*
D118*
X406150Y85000D02*
X406152Y85159D01*
X406158Y85318D01*
X406168Y85476D01*
X406182Y85635D01*
X406200Y85793D01*
X406221Y85950D01*
X406247Y86107D01*
X406277Y86263D01*
X406310Y86419D01*
X406348Y86573D01*
X406389Y86727D01*
X406434Y86879D01*
X406483Y87030D01*
X406536Y87180D01*
X406592Y87329D01*
X406653Y87476D01*
X406716Y87621D01*
X406784Y87765D01*
X406855Y87908D01*
X406929Y88048D01*
X407007Y88186D01*
X407089Y88323D01*
X407174Y88457D01*
X407262Y88590D01*
X407353Y88720D01*
X407448Y88847D01*
X407546Y88972D01*
X407647Y89095D01*
X407751Y89215D01*
X407858Y89333D01*
X407968Y89448D01*
X408081Y89560D01*
X408196Y89669D01*
X408314Y89775D01*
X408435Y89879D01*
X408559Y89979D01*
X408684Y90076D01*
X408813Y90170D01*
X408943Y90260D01*
X409076Y90348D01*
X409211Y90432D01*
X409348Y90512D01*
X409487Y90590D01*
X409628Y90663D01*
X409770Y90733D01*
X409915Y90800D01*
X410061Y90863D01*
X410208Y90922D01*
X410357Y90978D01*
X410508Y91029D01*
X410659Y91077D01*
X410812Y91121D01*
X410966Y91162D01*
X411120Y91198D01*
X411276Y91231D01*
X411432Y91260D01*
X411589Y91284D01*
X411747Y91305D01*
X411905Y91322D01*
X412063Y91335D01*
X412222Y91344D01*
X412381Y91349D01*
X412540Y91350D01*
X412699Y91347D01*
X412857Y91340D01*
X413016Y91329D01*
X413174Y91314D01*
X413332Y91295D01*
X413489Y91272D01*
X413646Y91246D01*
X413802Y91215D01*
X413957Y91181D01*
X414111Y91142D01*
X414265Y91100D01*
X414417Y91054D01*
X414568Y91004D01*
X414717Y90950D01*
X414866Y90893D01*
X415012Y90832D01*
X415158Y90767D01*
X415301Y90699D01*
X415443Y90627D01*
X415583Y90551D01*
X415721Y90473D01*
X415857Y90390D01*
X415991Y90305D01*
X416122Y90216D01*
X416252Y90123D01*
X416379Y90028D01*
X416503Y89929D01*
X416626Y89827D01*
X416745Y89723D01*
X416862Y89615D01*
X416976Y89504D01*
X417087Y89391D01*
X417196Y89275D01*
X417301Y89156D01*
X417404Y89034D01*
X417503Y88910D01*
X417600Y88784D01*
X417693Y88655D01*
X417783Y88524D01*
X417869Y88390D01*
X417952Y88255D01*
X418032Y88117D01*
X418108Y87978D01*
X418181Y87837D01*
X418250Y87694D01*
X418316Y87549D01*
X418378Y87402D01*
X418436Y87255D01*
X418491Y87105D01*
X418542Y86955D01*
X418589Y86803D01*
X418632Y86650D01*
X418671Y86496D01*
X418707Y86341D01*
X418738Y86185D01*
X418766Y86029D01*
X418790Y85872D01*
X418810Y85714D01*
X418826Y85556D01*
X418838Y85397D01*
X418846Y85238D01*
X418850Y85079D01*
X418850Y84921D01*
X418846Y84762D01*
X418838Y84603D01*
X418826Y84444D01*
X418810Y84286D01*
X418790Y84128D01*
X418766Y83971D01*
X418738Y83815D01*
X418707Y83659D01*
X418671Y83504D01*
X418632Y83350D01*
X418589Y83197D01*
X418542Y83045D01*
X418491Y82895D01*
X418436Y82745D01*
X418378Y82598D01*
X418316Y82451D01*
X418250Y82306D01*
X418181Y82163D01*
X418108Y82022D01*
X418032Y81883D01*
X417952Y81745D01*
X417869Y81610D01*
X417783Y81476D01*
X417693Y81345D01*
X417600Y81216D01*
X417503Y81090D01*
X417404Y80966D01*
X417301Y80844D01*
X417196Y80725D01*
X417087Y80609D01*
X416976Y80496D01*
X416862Y80385D01*
X416745Y80277D01*
X416626Y80173D01*
X416503Y80071D01*
X416379Y79972D01*
X416252Y79877D01*
X416122Y79784D01*
X415991Y79695D01*
X415857Y79610D01*
X415721Y79527D01*
X415583Y79449D01*
X415443Y79373D01*
X415301Y79301D01*
X415158Y79233D01*
X415012Y79168D01*
X414866Y79107D01*
X414717Y79050D01*
X414568Y78996D01*
X414417Y78946D01*
X414265Y78900D01*
X414111Y78858D01*
X413957Y78819D01*
X413802Y78785D01*
X413646Y78754D01*
X413489Y78728D01*
X413332Y78705D01*
X413174Y78686D01*
X413016Y78671D01*
X412857Y78660D01*
X412699Y78653D01*
X412540Y78650D01*
X412381Y78651D01*
X412222Y78656D01*
X412063Y78665D01*
X411905Y78678D01*
X411747Y78695D01*
X411589Y78716D01*
X411432Y78740D01*
X411276Y78769D01*
X411120Y78802D01*
X410966Y78838D01*
X410812Y78879D01*
X410659Y78923D01*
X410508Y78971D01*
X410357Y79022D01*
X410208Y79078D01*
X410061Y79137D01*
X409915Y79200D01*
X409770Y79267D01*
X409628Y79337D01*
X409487Y79410D01*
X409348Y79488D01*
X409211Y79568D01*
X409076Y79652D01*
X408943Y79740D01*
X408813Y79830D01*
X408684Y79924D01*
X408559Y80021D01*
X408435Y80121D01*
X408314Y80225D01*
X408196Y80331D01*
X408081Y80440D01*
X407968Y80552D01*
X407858Y80667D01*
X407751Y80785D01*
X407647Y80905D01*
X407546Y81028D01*
X407448Y81153D01*
X407353Y81280D01*
X407262Y81410D01*
X407174Y81543D01*
X407089Y81677D01*
X407007Y81814D01*
X406929Y81952D01*
X406855Y82092D01*
X406784Y82235D01*
X406716Y82379D01*
X406653Y82524D01*
X406592Y82671D01*
X406536Y82820D01*
X406483Y82970D01*
X406434Y83121D01*
X406389Y83273D01*
X406348Y83427D01*
X406310Y83581D01*
X406277Y83737D01*
X406247Y83893D01*
X406221Y84050D01*
X406200Y84207D01*
X406182Y84365D01*
X406168Y84524D01*
X406158Y84682D01*
X406152Y84841D01*
X406150Y85000D01*
D111*
X383290Y85000D02*
X383299Y85717D01*
X383325Y86433D01*
X383369Y87149D01*
X383431Y87863D01*
X383510Y88576D01*
X383606Y89286D01*
X383720Y89994D01*
X383851Y90699D01*
X384000Y91400D01*
X384165Y92097D01*
X384348Y92791D01*
X384548Y93479D01*
X384764Y94163D01*
X384997Y94841D01*
X385247Y95513D01*
X385513Y96178D01*
X385796Y96837D01*
X386094Y97489D01*
X386409Y98133D01*
X386739Y98769D01*
X387085Y99398D01*
X387446Y100017D01*
X387822Y100627D01*
X388213Y101228D01*
X388618Y101819D01*
X389038Y102400D01*
X389472Y102971D01*
X389920Y103531D01*
X390382Y104079D01*
X390857Y104616D01*
X391345Y105141D01*
X391845Y105655D01*
X392359Y106155D01*
X392884Y106643D01*
X393421Y107118D01*
X393969Y107580D01*
X394529Y108028D01*
X395100Y108462D01*
X395681Y108882D01*
X396272Y109287D01*
X396873Y109678D01*
X397483Y110054D01*
X398102Y110415D01*
X398731Y110761D01*
X399367Y111091D01*
X400011Y111406D01*
X400663Y111704D01*
X401322Y111987D01*
X401987Y112253D01*
X402659Y112503D01*
X403337Y112736D01*
X404021Y112952D01*
X404709Y113152D01*
X405403Y113335D01*
X406100Y113500D01*
X406801Y113649D01*
X407506Y113780D01*
X408214Y113894D01*
X408924Y113990D01*
X409637Y114069D01*
X410351Y114131D01*
X411067Y114175D01*
X411783Y114201D01*
X412500Y114210D01*
X413217Y114201D01*
X413933Y114175D01*
X414649Y114131D01*
X415363Y114069D01*
X416076Y113990D01*
X416786Y113894D01*
X417494Y113780D01*
X418199Y113649D01*
X418900Y113500D01*
X419597Y113335D01*
X420291Y113152D01*
X420979Y112952D01*
X421663Y112736D01*
X422341Y112503D01*
X423013Y112253D01*
X423678Y111987D01*
X424337Y111704D01*
X424989Y111406D01*
X425633Y111091D01*
X426269Y110761D01*
X426898Y110415D01*
X427517Y110054D01*
X428127Y109678D01*
X428728Y109287D01*
X429319Y108882D01*
X429900Y108462D01*
X430471Y108028D01*
X431031Y107580D01*
X431579Y107118D01*
X432116Y106643D01*
X432641Y106155D01*
X433155Y105655D01*
X433655Y105141D01*
X434143Y104616D01*
X434618Y104079D01*
X435080Y103531D01*
X435528Y102971D01*
X435962Y102400D01*
X436382Y101819D01*
X436787Y101228D01*
X437178Y100627D01*
X437554Y100017D01*
X437915Y99398D01*
X438261Y98769D01*
X438591Y98133D01*
X438906Y97489D01*
X439204Y96837D01*
X439487Y96178D01*
X439753Y95513D01*
X440003Y94841D01*
X440236Y94163D01*
X440452Y93479D01*
X440652Y92791D01*
X440835Y92097D01*
X441000Y91400D01*
X441149Y90699D01*
X441280Y89994D01*
X441394Y89286D01*
X441490Y88576D01*
X441569Y87863D01*
X441631Y87149D01*
X441675Y86433D01*
X441701Y85717D01*
X441710Y85000D01*
X441701Y84283D01*
X441675Y83567D01*
X441631Y82851D01*
X441569Y82137D01*
X441490Y81424D01*
X441394Y80714D01*
X441280Y80006D01*
X441149Y79301D01*
X441000Y78600D01*
X440835Y77903D01*
X440652Y77209D01*
X440452Y76521D01*
X440236Y75837D01*
X440003Y75159D01*
X439753Y74487D01*
X439487Y73822D01*
X439204Y73163D01*
X438906Y72511D01*
X438591Y71867D01*
X438261Y71231D01*
X437915Y70602D01*
X437554Y69983D01*
X437178Y69373D01*
X436787Y68772D01*
X436382Y68181D01*
X435962Y67600D01*
X435528Y67029D01*
X435080Y66469D01*
X434618Y65921D01*
X434143Y65384D01*
X433655Y64859D01*
X433155Y64345D01*
X432641Y63845D01*
X432116Y63357D01*
X431579Y62882D01*
X431031Y62420D01*
X430471Y61972D01*
X429900Y61538D01*
X429319Y61118D01*
X428728Y60713D01*
X428127Y60322D01*
X427517Y59946D01*
X426898Y59585D01*
X426269Y59239D01*
X425633Y58909D01*
X424989Y58594D01*
X424337Y58296D01*
X423678Y58013D01*
X423013Y57747D01*
X422341Y57497D01*
X421663Y57264D01*
X420979Y57048D01*
X420291Y56848D01*
X419597Y56665D01*
X418900Y56500D01*
X418199Y56351D01*
X417494Y56220D01*
X416786Y56106D01*
X416076Y56010D01*
X415363Y55931D01*
X414649Y55869D01*
X413933Y55825D01*
X413217Y55799D01*
X412500Y55790D01*
X411783Y55799D01*
X411067Y55825D01*
X410351Y55869D01*
X409637Y55931D01*
X408924Y56010D01*
X408214Y56106D01*
X407506Y56220D01*
X406801Y56351D01*
X406100Y56500D01*
X405403Y56665D01*
X404709Y56848D01*
X404021Y57048D01*
X403337Y57264D01*
X402659Y57497D01*
X401987Y57747D01*
X401322Y58013D01*
X400663Y58296D01*
X400011Y58594D01*
X399367Y58909D01*
X398731Y59239D01*
X398102Y59585D01*
X397483Y59946D01*
X396873Y60322D01*
X396272Y60713D01*
X395681Y61118D01*
X395100Y61538D01*
X394529Y61972D01*
X393969Y62420D01*
X393421Y62882D01*
X392884Y63357D01*
X392359Y63845D01*
X391845Y64345D01*
X391345Y64859D01*
X390857Y65384D01*
X390382Y65921D01*
X389920Y66469D01*
X389472Y67029D01*
X389038Y67600D01*
X388618Y68181D01*
X388213Y68772D01*
X387822Y69373D01*
X387446Y69983D01*
X387085Y70602D01*
X386739Y71231D01*
X386409Y71867D01*
X386094Y72511D01*
X385796Y73163D01*
X385513Y73822D01*
X385247Y74487D01*
X384997Y75159D01*
X384764Y75837D01*
X384548Y76521D01*
X384348Y77209D01*
X384165Y77903D01*
X384000Y78600D01*
X383851Y79301D01*
X383720Y80006D01*
X383606Y80714D01*
X383510Y81424D01*
X383431Y82137D01*
X383369Y82851D01*
X383325Y83567D01*
X383299Y84283D01*
X383290Y85000D01*
D107*
X397500Y85000D02*
X397505Y85368D01*
X397518Y85736D01*
X397541Y86103D01*
X397572Y86470D01*
X397613Y86836D01*
X397662Y87201D01*
X397721Y87564D01*
X397788Y87926D01*
X397864Y88287D01*
X397950Y88645D01*
X398043Y89001D01*
X398146Y89354D01*
X398257Y89705D01*
X398377Y90053D01*
X398505Y90398D01*
X398642Y90740D01*
X398787Y91079D01*
X398940Y91413D01*
X399102Y91744D01*
X399271Y92071D01*
X399449Y92393D01*
X399634Y92712D01*
X399827Y93025D01*
X400028Y93334D01*
X400236Y93637D01*
X400452Y93935D01*
X400675Y94228D01*
X400905Y94516D01*
X401142Y94798D01*
X401386Y95073D01*
X401636Y95343D01*
X401893Y95607D01*
X402157Y95864D01*
X402427Y96114D01*
X402702Y96358D01*
X402984Y96595D01*
X403272Y96825D01*
X403565Y97048D01*
X403863Y97264D01*
X404166Y97472D01*
X404475Y97673D01*
X404788Y97866D01*
X405107Y98051D01*
X405429Y98229D01*
X405756Y98398D01*
X406087Y98560D01*
X406421Y98713D01*
X406760Y98858D01*
X407102Y98995D01*
X407447Y99123D01*
X407795Y99243D01*
X408146Y99354D01*
X408499Y99457D01*
X408855Y99550D01*
X409213Y99636D01*
X409574Y99712D01*
X409936Y99779D01*
X410299Y99838D01*
X410664Y99887D01*
X411030Y99928D01*
X411397Y99959D01*
X411764Y99982D01*
X412132Y99995D01*
X412500Y100000D01*
X412868Y99995D01*
X413236Y99982D01*
X413603Y99959D01*
X413970Y99928D01*
X414336Y99887D01*
X414701Y99838D01*
X415064Y99779D01*
X415426Y99712D01*
X415787Y99636D01*
X416145Y99550D01*
X416501Y99457D01*
X416854Y99354D01*
X417205Y99243D01*
X417553Y99123D01*
X417898Y98995D01*
X418240Y98858D01*
X418579Y98713D01*
X418913Y98560D01*
X419244Y98398D01*
X419571Y98229D01*
X419893Y98051D01*
X420212Y97866D01*
X420525Y97673D01*
X420834Y97472D01*
X421137Y97264D01*
X421435Y97048D01*
X421728Y96825D01*
X422016Y96595D01*
X422298Y96358D01*
X422573Y96114D01*
X422843Y95864D01*
X423107Y95607D01*
X423364Y95343D01*
X423614Y95073D01*
X423858Y94798D01*
X424095Y94516D01*
X424325Y94228D01*
X424548Y93935D01*
X424764Y93637D01*
X424972Y93334D01*
X425173Y93025D01*
X425366Y92712D01*
X425551Y92393D01*
X425729Y92071D01*
X425898Y91744D01*
X426060Y91413D01*
X426213Y91079D01*
X426358Y90740D01*
X426495Y90398D01*
X426623Y90053D01*
X426743Y89705D01*
X426854Y89354D01*
X426957Y89001D01*
X427050Y88645D01*
X427136Y88287D01*
X427212Y87926D01*
X427279Y87564D01*
X427338Y87201D01*
X427387Y86836D01*
X427428Y86470D01*
X427459Y86103D01*
X427482Y85736D01*
X427495Y85368D01*
X427500Y85000D01*
X427495Y84632D01*
X427482Y84264D01*
X427459Y83897D01*
X427428Y83530D01*
X427387Y83164D01*
X427338Y82799D01*
X427279Y82436D01*
X427212Y82074D01*
X427136Y81713D01*
X427050Y81355D01*
X426957Y80999D01*
X426854Y80646D01*
X426743Y80295D01*
X426623Y79947D01*
X426495Y79602D01*
X426358Y79260D01*
X426213Y78921D01*
X426060Y78587D01*
X425898Y78256D01*
X425729Y77929D01*
X425551Y77607D01*
X425366Y77288D01*
X425173Y76975D01*
X424972Y76666D01*
X424764Y76363D01*
X424548Y76065D01*
X424325Y75772D01*
X424095Y75484D01*
X423858Y75202D01*
X423614Y74927D01*
X423364Y74657D01*
X423107Y74393D01*
X422843Y74136D01*
X422573Y73886D01*
X422298Y73642D01*
X422016Y73405D01*
X421728Y73175D01*
X421435Y72952D01*
X421137Y72736D01*
X420834Y72528D01*
X420525Y72327D01*
X420212Y72134D01*
X419893Y71949D01*
X419571Y71771D01*
X419244Y71602D01*
X418913Y71440D01*
X418579Y71287D01*
X418240Y71142D01*
X417898Y71005D01*
X417553Y70877D01*
X417205Y70757D01*
X416854Y70646D01*
X416501Y70543D01*
X416145Y70450D01*
X415787Y70364D01*
X415426Y70288D01*
X415064Y70221D01*
X414701Y70162D01*
X414336Y70113D01*
X413970Y70072D01*
X413603Y70041D01*
X413236Y70018D01*
X412868Y70005D01*
X412500Y70000D01*
X412132Y70005D01*
X411764Y70018D01*
X411397Y70041D01*
X411030Y70072D01*
X410664Y70113D01*
X410299Y70162D01*
X409936Y70221D01*
X409574Y70288D01*
X409213Y70364D01*
X408855Y70450D01*
X408499Y70543D01*
X408146Y70646D01*
X407795Y70757D01*
X407447Y70877D01*
X407102Y71005D01*
X406760Y71142D01*
X406421Y71287D01*
X406087Y71440D01*
X405756Y71602D01*
X405429Y71771D01*
X405107Y71949D01*
X404788Y72134D01*
X404475Y72327D01*
X404166Y72528D01*
X403863Y72736D01*
X403565Y72952D01*
X403272Y73175D01*
X402984Y73405D01*
X402702Y73642D01*
X402427Y73886D01*
X402157Y74136D01*
X401893Y74393D01*
X401636Y74657D01*
X401386Y74927D01*
X401142Y75202D01*
X400905Y75484D01*
X400675Y75772D01*
X400452Y76065D01*
X400236Y76363D01*
X400028Y76666D01*
X399827Y76975D01*
X399634Y77288D01*
X399449Y77607D01*
X399271Y77929D01*
X399102Y78256D01*
X398940Y78587D01*
X398787Y78921D01*
X398642Y79260D01*
X398505Y79602D01*
X398377Y79947D01*
X398257Y80295D01*
X398146Y80646D01*
X398043Y80999D01*
X397950Y81355D01*
X397864Y81713D01*
X397788Y82074D01*
X397721Y82436D01*
X397662Y82799D01*
X397613Y83164D01*
X397572Y83530D01*
X397541Y83897D01*
X397518Y84264D01*
X397505Y84632D01*
X397500Y85000D01*
D111*
X316838Y432534D02*
X323188Y438884D01*
X335888Y438884D01*
X342238Y432534D01*
X342238Y419834D01*
X335888Y413484D01*
X323188Y413484D01*
X316838Y419834D01*
X285088Y438884D02*
X272388Y438884D01*
X285088Y438884D02*
X291438Y432534D01*
X291438Y419834D01*
X285088Y413484D01*
X291438Y432534D02*
X297788Y438884D01*
X310488Y438884D01*
X316838Y432534D01*
X316838Y419834D01*
X310488Y413484D01*
X297788Y413484D01*
X291438Y419834D01*
X266038Y419834D02*
X266038Y432534D01*
X272388Y438884D01*
X266038Y419834D02*
X272388Y413484D01*
X285088Y413484D01*
X348588Y438884D02*
X361288Y438884D01*
X367638Y432534D01*
X367638Y419834D01*
X361288Y413484D01*
X342238Y432534D02*
X348588Y438884D01*
X342238Y419834D02*
X348588Y413484D01*
X361288Y413484D01*
D119*
X329538Y426184D03*
X304138Y426184D03*
X278738Y426184D03*
X354938Y426184D03*
D111*
X408616Y505750D02*
X408616Y518450D01*
X414966Y524800D01*
X427666Y524800D01*
X434016Y518450D01*
X414966Y524800D02*
X408616Y531150D01*
X408616Y543850D01*
X414966Y550200D01*
X427666Y550200D01*
X434016Y543850D01*
X434016Y531150D01*
X427666Y524800D01*
X427666Y499400D02*
X414966Y499400D01*
X408616Y505750D01*
X427666Y499400D02*
X434016Y505750D01*
X434016Y518450D01*
X414966Y550200D02*
X408616Y556550D01*
X408616Y569250D01*
X414966Y575600D01*
X427666Y575600D01*
X434016Y569250D01*
X434016Y556550D01*
X427666Y550200D01*
D119*
X421316Y537500D03*
X421316Y512100D03*
X421316Y562900D03*
D111*
X236350Y595200D02*
X230000Y588850D01*
X236350Y595200D02*
X249050Y595200D01*
X255400Y588850D01*
X255400Y576150D01*
X249050Y569800D01*
X236350Y569800D01*
X230000Y576150D01*
X198250Y595200D02*
X185550Y595200D01*
X198250Y595200D02*
X204600Y588850D01*
X204600Y576150D01*
X198250Y569800D01*
X204600Y588850D02*
X210950Y595200D01*
X223650Y595200D01*
X230000Y588850D01*
X230000Y576150D01*
X223650Y569800D01*
X210950Y569800D01*
X204600Y576150D01*
X179200Y576150D02*
X179200Y588850D01*
X185550Y595200D01*
X179200Y576150D02*
X185550Y569800D01*
X198250Y569800D01*
X261750Y595200D02*
X274450Y595200D01*
X280800Y588850D01*
X280800Y576150D01*
X274450Y569800D01*
X255400Y588850D02*
X261750Y595200D01*
X255400Y576150D02*
X261750Y569800D01*
X274450Y569800D01*
D119*
X242700Y582500D03*
X217300Y582500D03*
X191900Y582500D03*
X268100Y582500D03*
D111*
X258650Y817300D02*
X265000Y823650D01*
X258650Y817300D02*
X245950Y817300D01*
X239600Y823650D01*
X239600Y836350D01*
X245950Y842700D01*
X258650Y842700D01*
X265000Y836350D01*
X296750Y817300D02*
X309450Y817300D01*
X296750Y817300D02*
X290400Y823650D01*
X290400Y836350D01*
X296750Y842700D01*
X290400Y823650D02*
X284050Y817300D01*
X271350Y817300D01*
X265000Y823650D01*
X265000Y836350D01*
X271350Y842700D01*
X284050Y842700D01*
X290400Y836350D01*
X315800Y836350D02*
X315800Y823650D01*
X309450Y817300D01*
X315800Y836350D02*
X309450Y842700D01*
X296750Y842700D01*
X233250Y817300D02*
X220550Y817300D01*
X214200Y823650D01*
X214200Y836350D01*
X220550Y842700D01*
X239600Y823650D02*
X233250Y817300D01*
X239600Y836350D02*
X233250Y842700D01*
X220550Y842700D01*
D119*
X252300Y830000D03*
X277700Y830000D03*
X303100Y830000D03*
X226900Y830000D03*
D111*
X416550Y813616D02*
X429250Y813616D01*
X416550Y813616D02*
X410200Y819966D01*
X410200Y832666D01*
X416550Y839016D01*
X410200Y819966D02*
X403850Y813616D01*
X391150Y813616D01*
X384800Y819966D01*
X384800Y832666D01*
X391150Y839016D01*
X403850Y839016D01*
X410200Y832666D01*
X435600Y832666D02*
X435600Y819966D01*
X429250Y813616D01*
X435600Y832666D02*
X429250Y839016D01*
X416550Y839016D01*
X384800Y819966D02*
X378450Y813616D01*
X365750Y813616D01*
X359400Y819966D01*
X359400Y832666D01*
X365750Y839016D01*
X378450Y839016D01*
X384800Y832666D01*
D119*
X397500Y826316D03*
X422900Y826316D03*
X372100Y826316D03*
D111*
X369800Y333850D02*
X376150Y327500D01*
X369800Y333850D02*
X369800Y346550D01*
X376150Y352900D01*
X388850Y352900D01*
X395200Y346550D01*
X395200Y333850D01*
X388850Y327500D01*
X369800Y295750D02*
X369800Y283050D01*
X369800Y295750D02*
X376150Y302100D01*
X388850Y302100D01*
X395200Y295750D01*
X376150Y302100D02*
X369800Y308450D01*
X369800Y321150D01*
X376150Y327500D01*
X388850Y327500D01*
X395200Y321150D01*
X395200Y308450D01*
X388850Y302100D01*
X388850Y276700D02*
X376150Y276700D01*
X369800Y283050D01*
X388850Y276700D02*
X395200Y283050D01*
X395200Y295750D01*
X369800Y359250D02*
X369800Y371950D01*
X376150Y378300D01*
X388850Y378300D01*
X395200Y371950D01*
X376150Y352900D02*
X369800Y359250D01*
X388850Y352900D02*
X395200Y359250D01*
X395200Y371950D01*
D119*
X382500Y340200D03*
X382500Y314800D03*
X382500Y289400D03*
X382500Y365600D03*
D111*
X319050Y862300D02*
X306350Y862300D01*
X300000Y868650D01*
X300000Y881350D01*
X306350Y887700D01*
X325400Y881350D02*
X325400Y868650D01*
X319050Y862300D01*
X325400Y881350D02*
X319050Y887700D01*
X306350Y887700D01*
X300000Y868650D02*
X293650Y862300D01*
X280950Y862300D01*
X274600Y868650D01*
X274600Y881350D01*
X280950Y887700D01*
X293650Y887700D01*
X300000Y881350D01*
D119*
X312700Y875000D03*
X287300Y875000D03*
D111*
X335950Y887700D02*
X348650Y887700D01*
X355000Y881350D01*
X355000Y868650D01*
X348650Y862300D01*
X329600Y868650D02*
X329600Y881350D01*
X335950Y887700D01*
X329600Y868650D02*
X335950Y862300D01*
X348650Y862300D01*
X355000Y881350D02*
X361350Y887700D01*
X374050Y887700D01*
X380400Y881350D01*
X380400Y868650D01*
X374050Y862300D01*
X361350Y862300D01*
X355000Y868650D01*
D119*
X342300Y875000D03*
X367700Y875000D03*
D111*
X264050Y862300D02*
X251350Y862300D01*
X245000Y868650D01*
X245000Y881350D01*
X251350Y887700D01*
X270400Y881350D02*
X270400Y868650D01*
X264050Y862300D01*
X270400Y881350D02*
X264050Y887700D01*
X251350Y887700D01*
X245000Y868650D02*
X238650Y862300D01*
X225950Y862300D01*
X219600Y868650D01*
X219600Y881350D01*
X225950Y887700D01*
X238650Y887700D01*
X245000Y881350D01*
D119*
X257700Y875000D03*
X232300Y875000D03*
D111*
X126590Y604840D02*
X83410Y604840D01*
X126590Y625160D02*
X126690Y625158D01*
X126789Y625152D01*
X126889Y625142D01*
X126987Y625129D01*
X127086Y625111D01*
X127183Y625090D01*
X127279Y625065D01*
X127375Y625036D01*
X127469Y625003D01*
X127562Y624967D01*
X127653Y624927D01*
X127743Y624883D01*
X127831Y624836D01*
X127917Y624786D01*
X128001Y624732D01*
X128083Y624675D01*
X128162Y624615D01*
X128240Y624551D01*
X128314Y624485D01*
X128386Y624416D01*
X128455Y624344D01*
X128521Y624270D01*
X128585Y624192D01*
X128645Y624113D01*
X128702Y624031D01*
X128756Y623947D01*
X128806Y623861D01*
X128853Y623773D01*
X128897Y623683D01*
X128937Y623592D01*
X128973Y623499D01*
X129006Y623405D01*
X129035Y623309D01*
X129060Y623213D01*
X129081Y623116D01*
X129099Y623017D01*
X129112Y622919D01*
X129122Y622819D01*
X129128Y622720D01*
X129130Y622620D01*
X83410Y625160D02*
X83310Y625158D01*
X83211Y625152D01*
X83111Y625142D01*
X83013Y625129D01*
X82914Y625111D01*
X82817Y625090D01*
X82721Y625065D01*
X82625Y625036D01*
X82531Y625003D01*
X82438Y624967D01*
X82347Y624927D01*
X82257Y624883D01*
X82169Y624836D01*
X82083Y624786D01*
X81999Y624732D01*
X81917Y624675D01*
X81838Y624615D01*
X81760Y624551D01*
X81686Y624485D01*
X81614Y624416D01*
X81545Y624344D01*
X81479Y624270D01*
X81415Y624192D01*
X81355Y624113D01*
X81298Y624031D01*
X81244Y623947D01*
X81194Y623861D01*
X81147Y623773D01*
X81103Y623683D01*
X81063Y623592D01*
X81027Y623499D01*
X80994Y623405D01*
X80965Y623309D01*
X80940Y623213D01*
X80919Y623116D01*
X80901Y623017D01*
X80888Y622919D01*
X80878Y622819D01*
X80872Y622720D01*
X80870Y622620D01*
X80870Y607380D02*
X80872Y607280D01*
X80878Y607181D01*
X80888Y607081D01*
X80901Y606983D01*
X80919Y606884D01*
X80940Y606787D01*
X80965Y606691D01*
X80994Y606595D01*
X81027Y606501D01*
X81063Y606408D01*
X81103Y606317D01*
X81147Y606227D01*
X81194Y606139D01*
X81244Y606053D01*
X81298Y605969D01*
X81355Y605887D01*
X81415Y605808D01*
X81479Y605730D01*
X81545Y605656D01*
X81614Y605584D01*
X81686Y605515D01*
X81760Y605449D01*
X81838Y605385D01*
X81917Y605325D01*
X81999Y605268D01*
X82083Y605214D01*
X82169Y605164D01*
X82257Y605117D01*
X82347Y605073D01*
X82438Y605033D01*
X82531Y604997D01*
X82625Y604964D01*
X82721Y604935D01*
X82817Y604910D01*
X82914Y604889D01*
X83013Y604871D01*
X83111Y604858D01*
X83211Y604848D01*
X83310Y604842D01*
X83410Y604840D01*
X126590Y604840D02*
X126690Y604842D01*
X126789Y604848D01*
X126889Y604858D01*
X126987Y604871D01*
X127086Y604889D01*
X127183Y604910D01*
X127279Y604935D01*
X127375Y604964D01*
X127469Y604997D01*
X127562Y605033D01*
X127653Y605073D01*
X127743Y605117D01*
X127831Y605164D01*
X127917Y605214D01*
X128001Y605268D01*
X128083Y605325D01*
X128162Y605385D01*
X128240Y605449D01*
X128314Y605515D01*
X128386Y605584D01*
X128455Y605656D01*
X128521Y605730D01*
X128585Y605808D01*
X128645Y605887D01*
X128702Y605969D01*
X128756Y606053D01*
X128806Y606139D01*
X128853Y606227D01*
X128897Y606317D01*
X128937Y606408D01*
X128973Y606501D01*
X129006Y606595D01*
X129035Y606691D01*
X129060Y606787D01*
X129081Y606884D01*
X129099Y606983D01*
X129112Y607081D01*
X129122Y607181D01*
X129128Y607280D01*
X129130Y607380D01*
X129130Y622620D01*
X80870Y622620D02*
X80870Y607380D01*
X83410Y625160D02*
X126590Y625160D01*
X127860Y615000D02*
X122780Y615000D01*
X87220Y615000D02*
X82140Y615000D01*
X105000Y622620D02*
X105000Y625160D01*
X105000Y607380D02*
X105000Y604840D01*
D105*
X115794Y608044D02*
X115161Y615000D01*
X115161Y615000D01*
X115794Y621956D01*
X115964Y621939D01*
X116134Y621917D01*
X116302Y621891D01*
X116471Y621861D01*
X116638Y621827D01*
X116805Y621789D01*
X116970Y621746D01*
X117135Y621700D01*
X117298Y621650D01*
X117460Y621596D01*
X117621Y621537D01*
X117780Y621475D01*
X117937Y621409D01*
X118093Y621339D01*
X118247Y621266D01*
X118400Y621188D01*
X118550Y621107D01*
X118698Y621022D01*
X118845Y620934D01*
X118989Y620842D01*
X119130Y620747D01*
X119270Y620648D01*
X119407Y620546D01*
X119541Y620440D01*
X119673Y620331D01*
X119802Y620219D01*
X119928Y620104D01*
X120052Y619986D01*
X120172Y619865D01*
X120290Y619741D01*
X120404Y619614D01*
X120515Y619485D01*
X120623Y619352D01*
X120728Y619217D01*
X120830Y619080D01*
X120928Y618940D01*
X121022Y618798D01*
X121114Y618653D01*
X121201Y618506D01*
X121285Y618358D01*
X121365Y618207D01*
X121442Y618054D01*
X121515Y617900D01*
X121584Y617743D01*
X121649Y617585D01*
X121710Y617426D01*
X121768Y617265D01*
X121821Y617103D01*
X121870Y616939D01*
X121916Y616774D01*
X121957Y616609D01*
X121995Y616442D01*
X122028Y616274D01*
X122057Y616106D01*
X122082Y615937D01*
X122103Y615767D01*
X122119Y615597D01*
X122132Y615427D01*
X122140Y615256D01*
X122144Y615085D01*
X122144Y614915D01*
X122140Y614744D01*
X122132Y614573D01*
X122119Y614403D01*
X122103Y614233D01*
X122082Y614063D01*
X122057Y613894D01*
X122028Y613726D01*
X121995Y613558D01*
X121957Y613391D01*
X121916Y613226D01*
X121870Y613061D01*
X121821Y612897D01*
X121768Y612735D01*
X121710Y612574D01*
X121649Y612415D01*
X121584Y612257D01*
X121515Y612100D01*
X121442Y611946D01*
X121365Y611793D01*
X121285Y611642D01*
X121201Y611494D01*
X121114Y611347D01*
X121022Y611202D01*
X120928Y611060D01*
X120830Y610920D01*
X120728Y610783D01*
X120623Y610648D01*
X120515Y610515D01*
X120404Y610386D01*
X120290Y610259D01*
X120172Y610135D01*
X120052Y610014D01*
X119928Y609896D01*
X119802Y609781D01*
X119673Y609669D01*
X119541Y609560D01*
X119407Y609454D01*
X119270Y609352D01*
X119130Y609253D01*
X118989Y609158D01*
X118845Y609066D01*
X118698Y608978D01*
X118550Y608893D01*
X118400Y608812D01*
X118247Y608734D01*
X118093Y608661D01*
X117937Y608591D01*
X117780Y608525D01*
X117621Y608463D01*
X117460Y608404D01*
X117298Y608350D01*
X117135Y608300D01*
X116970Y608254D01*
X116805Y608211D01*
X116638Y608173D01*
X116471Y608139D01*
X116302Y608109D01*
X116134Y608083D01*
X115964Y608061D01*
X115794Y608044D01*
X115794Y609256D01*
X115943Y609274D01*
X116092Y609297D01*
X116241Y609323D01*
X116389Y609353D01*
X116535Y609387D01*
X116681Y609425D01*
X116826Y609466D01*
X116970Y609512D01*
X117113Y609561D01*
X117254Y609614D01*
X117394Y609670D01*
X117532Y609730D01*
X117669Y609794D01*
X117804Y609861D01*
X117937Y609932D01*
X118068Y610006D01*
X118197Y610083D01*
X118324Y610164D01*
X118449Y610249D01*
X118572Y610336D01*
X118693Y610427D01*
X118811Y610520D01*
X118927Y610617D01*
X119040Y610717D01*
X119150Y610819D01*
X119258Y610925D01*
X119363Y611033D01*
X119465Y611144D01*
X119564Y611258D01*
X119660Y611374D01*
X119753Y611493D01*
X119843Y611614D01*
X119930Y611737D01*
X120013Y611862D01*
X120093Y611990D01*
X120170Y612120D01*
X120244Y612251D01*
X120313Y612385D01*
X120380Y612520D01*
X120443Y612657D01*
X120502Y612796D01*
X120558Y612936D01*
X120610Y613077D01*
X120658Y613220D01*
X120703Y613364D01*
X120743Y613509D01*
X120780Y613656D01*
X120814Y613803D01*
X120843Y613951D01*
X120868Y614099D01*
X120890Y614248D01*
X120908Y614398D01*
X120921Y614548D01*
X120931Y614699D01*
X120937Y614849D01*
X120939Y615000D01*
X120937Y615151D01*
X120931Y615301D01*
X120921Y615452D01*
X120908Y615602D01*
X120890Y615752D01*
X120868Y615901D01*
X120843Y616049D01*
X120814Y616197D01*
X120780Y616344D01*
X120743Y616491D01*
X120703Y616636D01*
X120658Y616780D01*
X120610Y616923D01*
X120558Y617064D01*
X120502Y617204D01*
X120443Y617343D01*
X120380Y617480D01*
X120313Y617615D01*
X120244Y617749D01*
X120170Y617880D01*
X120093Y618010D01*
X120013Y618138D01*
X119930Y618263D01*
X119843Y618386D01*
X119753Y618507D01*
X119660Y618626D01*
X119564Y618742D01*
X119465Y618856D01*
X119363Y618967D01*
X119258Y619075D01*
X119150Y619181D01*
X119040Y619283D01*
X118927Y619383D01*
X118811Y619480D01*
X118693Y619573D01*
X118572Y619664D01*
X118449Y619751D01*
X118324Y619836D01*
X118197Y619917D01*
X118068Y619994D01*
X117937Y620068D01*
X117804Y620139D01*
X117669Y620206D01*
X117532Y620270D01*
X117394Y620330D01*
X117254Y620386D01*
X117113Y620439D01*
X116970Y620488D01*
X116826Y620534D01*
X116681Y620575D01*
X116535Y620613D01*
X116389Y620647D01*
X116241Y620677D01*
X116092Y620703D01*
X115943Y620726D01*
X115794Y620744D01*
X115793Y619529D01*
X115925Y619509D01*
X116056Y619484D01*
X116187Y619456D01*
X116317Y619424D01*
X116446Y619389D01*
X116573Y619349D01*
X116700Y619306D01*
X116825Y619259D01*
X116949Y619209D01*
X117071Y619155D01*
X117191Y619097D01*
X117310Y619036D01*
X117427Y618971D01*
X117542Y618903D01*
X117655Y618832D01*
X117766Y618758D01*
X117875Y618680D01*
X117981Y618599D01*
X118085Y618515D01*
X118187Y618428D01*
X118286Y618338D01*
X118382Y618245D01*
X118475Y618150D01*
X118566Y618052D01*
X118654Y617951D01*
X118738Y617847D01*
X118820Y617742D01*
X118899Y617634D01*
X118974Y617523D01*
X119046Y617411D01*
X119115Y617296D01*
X119180Y617180D01*
X119242Y617061D01*
X119301Y616941D01*
X119356Y616819D01*
X119407Y616696D01*
X119455Y616571D01*
X119499Y616445D01*
X119539Y616317D01*
X119576Y616189D01*
X119609Y616059D01*
X119638Y615929D01*
X119663Y615798D01*
X119684Y615666D01*
X119702Y615533D01*
X119715Y615400D01*
X119725Y615267D01*
X119731Y615134D01*
X119733Y615000D01*
X119731Y614866D01*
X119725Y614733D01*
X119715Y614600D01*
X119702Y614467D01*
X119684Y614334D01*
X119663Y614202D01*
X119638Y614071D01*
X119609Y613941D01*
X119576Y613811D01*
X119539Y613683D01*
X119499Y613555D01*
X119455Y613429D01*
X119407Y613304D01*
X119356Y613181D01*
X119301Y613059D01*
X119242Y612939D01*
X119180Y612820D01*
X119115Y612704D01*
X119046Y612589D01*
X118974Y612477D01*
X118899Y612366D01*
X118820Y612258D01*
X118738Y612153D01*
X118654Y612049D01*
X118566Y611948D01*
X118475Y611850D01*
X118382Y611755D01*
X118286Y611662D01*
X118187Y611572D01*
X118085Y611485D01*
X117981Y611401D01*
X117875Y611320D01*
X117766Y611242D01*
X117655Y611168D01*
X117542Y611097D01*
X117427Y611029D01*
X117310Y610964D01*
X117191Y610903D01*
X117071Y610845D01*
X116949Y610791D01*
X116825Y610741D01*
X116700Y610694D01*
X116573Y610651D01*
X116446Y610611D01*
X116317Y610576D01*
X116187Y610544D01*
X116056Y610516D01*
X115925Y610491D01*
X115793Y610471D01*
X115791Y611693D01*
X115904Y611716D01*
X116015Y611743D01*
X116126Y611775D01*
X116235Y611809D01*
X116344Y611848D01*
X116451Y611890D01*
X116556Y611936D01*
X116660Y611985D01*
X116762Y612038D01*
X116862Y612095D01*
X116960Y612154D01*
X117056Y612218D01*
X117150Y612284D01*
X117241Y612353D01*
X117330Y612426D01*
X117417Y612501D01*
X117501Y612580D01*
X117582Y612661D01*
X117661Y612745D01*
X117736Y612832D01*
X117809Y612921D01*
X117878Y613013D01*
X117944Y613107D01*
X118007Y613203D01*
X118067Y613301D01*
X118123Y613401D01*
X118176Y613503D01*
X118225Y613607D01*
X118271Y613712D01*
X118313Y613819D01*
X118352Y613927D01*
X118386Y614037D01*
X118417Y614148D01*
X118444Y614259D01*
X118468Y614372D01*
X118487Y614485D01*
X118503Y614599D01*
X118515Y614713D01*
X118523Y614828D01*
X118527Y614943D01*
X118527Y615057D01*
X118523Y615172D01*
X118515Y615287D01*
X118503Y615401D01*
X118487Y615515D01*
X118468Y615628D01*
X118444Y615741D01*
X118417Y615852D01*
X118386Y615963D01*
X118352Y616073D01*
X118313Y616181D01*
X118271Y616288D01*
X118225Y616393D01*
X118176Y616497D01*
X118123Y616599D01*
X118067Y616699D01*
X118007Y616797D01*
X117944Y616893D01*
X117878Y616987D01*
X117809Y617079D01*
X117736Y617168D01*
X117661Y617255D01*
X117582Y617339D01*
X117501Y617420D01*
X117417Y617499D01*
X117330Y617574D01*
X117241Y617647D01*
X117150Y617716D01*
X117056Y617782D01*
X116960Y617846D01*
X116862Y617905D01*
X116762Y617962D01*
X116660Y618015D01*
X116556Y618064D01*
X116451Y618110D01*
X116344Y618152D01*
X116235Y618191D01*
X116126Y618225D01*
X116015Y618257D01*
X115904Y618284D01*
X115791Y618307D01*
X115786Y617068D01*
X115873Y617040D01*
X115960Y617008D01*
X116044Y616972D01*
X116127Y616932D01*
X116209Y616890D01*
X116288Y616843D01*
X116366Y616793D01*
X116441Y616741D01*
X116514Y616684D01*
X116584Y616625D01*
X116652Y616563D01*
X116717Y616498D01*
X116780Y616431D01*
X116839Y616361D01*
X116895Y616288D01*
X116949Y616213D01*
X116999Y616136D01*
X117045Y616056D01*
X117088Y615975D01*
X117128Y615892D01*
X117164Y615808D01*
X117197Y615722D01*
X117226Y615634D01*
X117251Y615546D01*
X117272Y615456D01*
X117290Y615366D01*
X117303Y615275D01*
X117313Y615184D01*
X117319Y615092D01*
X117321Y615000D01*
X117319Y614908D01*
X117313Y614816D01*
X117303Y614725D01*
X117290Y614634D01*
X117272Y614544D01*
X117251Y614454D01*
X117226Y614366D01*
X117197Y614278D01*
X117164Y614192D01*
X117128Y614108D01*
X117088Y614025D01*
X117045Y613944D01*
X116999Y613864D01*
X116949Y613787D01*
X116895Y613712D01*
X116839Y613639D01*
X116780Y613569D01*
X116717Y613502D01*
X116652Y613437D01*
X116584Y613375D01*
X116514Y613316D01*
X116441Y613259D01*
X116366Y613207D01*
X116288Y613157D01*
X116209Y613110D01*
X116127Y613068D01*
X116044Y613028D01*
X115960Y612992D01*
X115873Y612960D01*
X115786Y612932D01*
X115749Y614248D01*
X115795Y614287D01*
X115838Y614328D01*
X115879Y614371D01*
X115917Y614418D01*
X115952Y614466D01*
X115983Y614516D01*
X116012Y614569D01*
X116037Y614623D01*
X116059Y614678D01*
X116078Y614735D01*
X116092Y614793D01*
X116103Y614851D01*
X116111Y614911D01*
X116115Y614970D01*
X116115Y615030D01*
X116111Y615089D01*
X116103Y615149D01*
X116092Y615207D01*
X116078Y615265D01*
X116059Y615322D01*
X116037Y615377D01*
X116012Y615431D01*
X115983Y615484D01*
X115952Y615534D01*
X115917Y615582D01*
X115879Y615629D01*
X115838Y615672D01*
X115795Y615713D01*
X115749Y615752D01*
X94206Y621956D02*
X94839Y615000D01*
X94839Y615000D01*
X94206Y608044D01*
X94036Y608061D01*
X93866Y608083D01*
X93698Y608109D01*
X93529Y608139D01*
X93362Y608173D01*
X93195Y608211D01*
X93030Y608254D01*
X92865Y608300D01*
X92702Y608350D01*
X92540Y608404D01*
X92379Y608463D01*
X92220Y608525D01*
X92063Y608591D01*
X91907Y608661D01*
X91753Y608734D01*
X91600Y608812D01*
X91450Y608893D01*
X91302Y608978D01*
X91155Y609066D01*
X91011Y609158D01*
X90870Y609253D01*
X90730Y609352D01*
X90593Y609454D01*
X90459Y609560D01*
X90327Y609669D01*
X90198Y609781D01*
X90072Y609896D01*
X89948Y610014D01*
X89828Y610135D01*
X89710Y610259D01*
X89596Y610386D01*
X89485Y610515D01*
X89377Y610648D01*
X89272Y610783D01*
X89170Y610920D01*
X89072Y611060D01*
X88978Y611202D01*
X88886Y611347D01*
X88799Y611494D01*
X88715Y611642D01*
X88635Y611793D01*
X88558Y611946D01*
X88485Y612100D01*
X88416Y612257D01*
X88351Y612415D01*
X88290Y612574D01*
X88232Y612735D01*
X88179Y612897D01*
X88130Y613061D01*
X88084Y613226D01*
X88043Y613391D01*
X88005Y613558D01*
X87972Y613726D01*
X87943Y613894D01*
X87918Y614063D01*
X87897Y614233D01*
X87881Y614403D01*
X87868Y614573D01*
X87860Y614744D01*
X87856Y614915D01*
X87856Y615085D01*
X87860Y615256D01*
X87868Y615427D01*
X87881Y615597D01*
X87897Y615767D01*
X87918Y615937D01*
X87943Y616106D01*
X87972Y616274D01*
X88005Y616442D01*
X88043Y616609D01*
X88084Y616774D01*
X88130Y616939D01*
X88179Y617103D01*
X88232Y617265D01*
X88290Y617426D01*
X88351Y617585D01*
X88416Y617743D01*
X88485Y617900D01*
X88558Y618054D01*
X88635Y618207D01*
X88715Y618358D01*
X88799Y618506D01*
X88886Y618653D01*
X88978Y618798D01*
X89072Y618940D01*
X89170Y619080D01*
X89272Y619217D01*
X89377Y619352D01*
X89485Y619485D01*
X89596Y619614D01*
X89710Y619741D01*
X89828Y619865D01*
X89948Y619986D01*
X90072Y620104D01*
X90198Y620219D01*
X90327Y620331D01*
X90459Y620440D01*
X90593Y620546D01*
X90730Y620648D01*
X90870Y620747D01*
X91011Y620842D01*
X91155Y620934D01*
X91302Y621022D01*
X91450Y621107D01*
X91600Y621188D01*
X91753Y621266D01*
X91907Y621339D01*
X92063Y621409D01*
X92220Y621475D01*
X92379Y621537D01*
X92540Y621596D01*
X92702Y621650D01*
X92865Y621700D01*
X93030Y621746D01*
X93195Y621789D01*
X93362Y621827D01*
X93529Y621861D01*
X93698Y621891D01*
X93866Y621917D01*
X94036Y621939D01*
X94206Y621956D01*
X94206Y620744D01*
X94057Y620726D01*
X93908Y620703D01*
X93759Y620677D01*
X93611Y620647D01*
X93465Y620613D01*
X93319Y620575D01*
X93174Y620534D01*
X93030Y620488D01*
X92887Y620439D01*
X92746Y620386D01*
X92606Y620330D01*
X92468Y620270D01*
X92331Y620206D01*
X92196Y620139D01*
X92063Y620068D01*
X91932Y619994D01*
X91803Y619917D01*
X91676Y619836D01*
X91551Y619751D01*
X91428Y619664D01*
X91307Y619573D01*
X91189Y619480D01*
X91073Y619383D01*
X90960Y619283D01*
X90850Y619181D01*
X90742Y619075D01*
X90637Y618967D01*
X90535Y618856D01*
X90436Y618742D01*
X90340Y618626D01*
X90247Y618507D01*
X90157Y618386D01*
X90070Y618263D01*
X89987Y618138D01*
X89907Y618010D01*
X89830Y617880D01*
X89756Y617749D01*
X89687Y617615D01*
X89620Y617480D01*
X89557Y617343D01*
X89498Y617204D01*
X89442Y617064D01*
X89390Y616923D01*
X89342Y616780D01*
X89297Y616636D01*
X89257Y616491D01*
X89220Y616344D01*
X89186Y616197D01*
X89157Y616049D01*
X89132Y615901D01*
X89110Y615752D01*
X89092Y615602D01*
X89079Y615452D01*
X89069Y615301D01*
X89063Y615151D01*
X89061Y615000D01*
X89063Y614849D01*
X89069Y614699D01*
X89079Y614548D01*
X89092Y614398D01*
X89110Y614248D01*
X89132Y614099D01*
X89157Y613951D01*
X89186Y613803D01*
X89220Y613656D01*
X89257Y613509D01*
X89297Y613364D01*
X89342Y613220D01*
X89390Y613077D01*
X89442Y612936D01*
X89498Y612796D01*
X89557Y612657D01*
X89620Y612520D01*
X89687Y612385D01*
X89756Y612251D01*
X89830Y612120D01*
X89907Y611990D01*
X89987Y611862D01*
X90070Y611737D01*
X90157Y611614D01*
X90247Y611493D01*
X90340Y611374D01*
X90436Y611258D01*
X90535Y611144D01*
X90637Y611033D01*
X90742Y610925D01*
X90850Y610819D01*
X90960Y610717D01*
X91073Y610617D01*
X91189Y610520D01*
X91307Y610427D01*
X91428Y610336D01*
X91551Y610249D01*
X91676Y610164D01*
X91803Y610083D01*
X91932Y610006D01*
X92063Y609932D01*
X92196Y609861D01*
X92331Y609794D01*
X92468Y609730D01*
X92606Y609670D01*
X92746Y609614D01*
X92887Y609561D01*
X93030Y609512D01*
X93174Y609466D01*
X93319Y609425D01*
X93465Y609387D01*
X93611Y609353D01*
X93759Y609323D01*
X93908Y609297D01*
X94057Y609274D01*
X94206Y609256D01*
X94207Y610471D01*
X94075Y610491D01*
X93944Y610516D01*
X93813Y610544D01*
X93683Y610576D01*
X93554Y610611D01*
X93427Y610651D01*
X93300Y610694D01*
X93175Y610741D01*
X93051Y610791D01*
X92929Y610845D01*
X92809Y610903D01*
X92690Y610964D01*
X92573Y611029D01*
X92458Y611097D01*
X92345Y611168D01*
X92234Y611242D01*
X92125Y611320D01*
X92019Y611401D01*
X91915Y611485D01*
X91813Y611572D01*
X91714Y611662D01*
X91618Y611755D01*
X91525Y611850D01*
X91434Y611948D01*
X91346Y612049D01*
X91262Y612153D01*
X91180Y612258D01*
X91101Y612366D01*
X91026Y612477D01*
X90954Y612589D01*
X90885Y612704D01*
X90820Y612820D01*
X90758Y612939D01*
X90699Y613059D01*
X90644Y613181D01*
X90593Y613304D01*
X90545Y613429D01*
X90501Y613555D01*
X90461Y613683D01*
X90424Y613811D01*
X90391Y613941D01*
X90362Y614071D01*
X90337Y614202D01*
X90316Y614334D01*
X90298Y614467D01*
X90285Y614600D01*
X90275Y614733D01*
X90269Y614866D01*
X90267Y615000D01*
X90269Y615134D01*
X90275Y615267D01*
X90285Y615400D01*
X90298Y615533D01*
X90316Y615666D01*
X90337Y615798D01*
X90362Y615929D01*
X90391Y616059D01*
X90424Y616189D01*
X90461Y616317D01*
X90501Y616445D01*
X90545Y616571D01*
X90593Y616696D01*
X90644Y616819D01*
X90699Y616941D01*
X90758Y617061D01*
X90820Y617180D01*
X90885Y617296D01*
X90954Y617411D01*
X91026Y617523D01*
X91101Y617634D01*
X91180Y617742D01*
X91262Y617847D01*
X91346Y617951D01*
X91434Y618052D01*
X91525Y618150D01*
X91618Y618245D01*
X91714Y618338D01*
X91813Y618428D01*
X91915Y618515D01*
X92019Y618599D01*
X92125Y618680D01*
X92234Y618758D01*
X92345Y618832D01*
X92458Y618903D01*
X92573Y618971D01*
X92690Y619036D01*
X92809Y619097D01*
X92929Y619155D01*
X93051Y619209D01*
X93175Y619259D01*
X93300Y619306D01*
X93427Y619349D01*
X93554Y619389D01*
X93683Y619424D01*
X93813Y619456D01*
X93944Y619484D01*
X94075Y619509D01*
X94207Y619529D01*
X94209Y618307D01*
X94096Y618284D01*
X93985Y618257D01*
X93874Y618225D01*
X93765Y618191D01*
X93656Y618152D01*
X93549Y618110D01*
X93444Y618064D01*
X93340Y618015D01*
X93238Y617962D01*
X93138Y617905D01*
X93040Y617846D01*
X92944Y617782D01*
X92850Y617716D01*
X92759Y617647D01*
X92670Y617574D01*
X92583Y617499D01*
X92499Y617420D01*
X92418Y617339D01*
X92339Y617255D01*
X92264Y617168D01*
X92191Y617079D01*
X92122Y616987D01*
X92056Y616893D01*
X91993Y616797D01*
X91933Y616699D01*
X91877Y616599D01*
X91824Y616497D01*
X91775Y616393D01*
X91729Y616288D01*
X91687Y616181D01*
X91648Y616073D01*
X91614Y615963D01*
X91583Y615852D01*
X91556Y615741D01*
X91532Y615628D01*
X91513Y615515D01*
X91497Y615401D01*
X91485Y615287D01*
X91477Y615172D01*
X91473Y615057D01*
X91473Y614943D01*
X91477Y614828D01*
X91485Y614713D01*
X91497Y614599D01*
X91513Y614485D01*
X91532Y614372D01*
X91556Y614259D01*
X91583Y614148D01*
X91614Y614037D01*
X91648Y613927D01*
X91687Y613819D01*
X91729Y613712D01*
X91775Y613607D01*
X91824Y613503D01*
X91877Y613401D01*
X91933Y613301D01*
X91993Y613203D01*
X92056Y613107D01*
X92122Y613013D01*
X92191Y612921D01*
X92264Y612832D01*
X92339Y612745D01*
X92418Y612661D01*
X92499Y612580D01*
X92583Y612501D01*
X92670Y612426D01*
X92759Y612353D01*
X92850Y612284D01*
X92944Y612218D01*
X93040Y612154D01*
X93138Y612095D01*
X93238Y612038D01*
X93340Y611985D01*
X93444Y611936D01*
X93549Y611890D01*
X93656Y611848D01*
X93765Y611809D01*
X93874Y611775D01*
X93985Y611743D01*
X94096Y611716D01*
X94209Y611693D01*
X94214Y612932D01*
X94127Y612960D01*
X94040Y612992D01*
X93956Y613028D01*
X93873Y613068D01*
X93791Y613110D01*
X93712Y613157D01*
X93634Y613207D01*
X93559Y613259D01*
X93486Y613316D01*
X93416Y613375D01*
X93348Y613437D01*
X93283Y613502D01*
X93220Y613569D01*
X93161Y613639D01*
X93105Y613712D01*
X93051Y613787D01*
X93001Y613864D01*
X92955Y613944D01*
X92912Y614025D01*
X92872Y614108D01*
X92836Y614192D01*
X92803Y614278D01*
X92774Y614366D01*
X92749Y614454D01*
X92728Y614544D01*
X92710Y614634D01*
X92697Y614725D01*
X92687Y614816D01*
X92681Y614908D01*
X92679Y615000D01*
X92681Y615092D01*
X92687Y615184D01*
X92697Y615275D01*
X92710Y615366D01*
X92728Y615456D01*
X92749Y615546D01*
X92774Y615634D01*
X92803Y615722D01*
X92836Y615808D01*
X92872Y615892D01*
X92912Y615975D01*
X92955Y616056D01*
X93001Y616136D01*
X93051Y616213D01*
X93105Y616288D01*
X93161Y616361D01*
X93220Y616431D01*
X93283Y616498D01*
X93348Y616563D01*
X93416Y616625D01*
X93486Y616684D01*
X93559Y616741D01*
X93634Y616793D01*
X93712Y616843D01*
X93791Y616890D01*
X93873Y616932D01*
X93956Y616972D01*
X94040Y617008D01*
X94127Y617040D01*
X94214Y617068D01*
X94251Y615752D01*
X94205Y615713D01*
X94162Y615672D01*
X94121Y615629D01*
X94083Y615582D01*
X94048Y615534D01*
X94017Y615484D01*
X93988Y615431D01*
X93963Y615377D01*
X93941Y615322D01*
X93922Y615265D01*
X93908Y615207D01*
X93897Y615149D01*
X93889Y615089D01*
X93885Y615030D01*
X93885Y614970D01*
X93889Y614911D01*
X93897Y614851D01*
X93908Y614793D01*
X93922Y614735D01*
X93941Y614678D01*
X93963Y614623D01*
X93988Y614569D01*
X94017Y614516D01*
X94048Y614466D01*
X94083Y614418D01*
X94121Y614371D01*
X94162Y614328D01*
X94205Y614287D01*
X94251Y614248D01*
D120*
X105000Y615000D03*
D111*
X56590Y604840D02*
X13410Y604840D01*
X56590Y625160D02*
X56690Y625158D01*
X56789Y625152D01*
X56889Y625142D01*
X56987Y625129D01*
X57086Y625111D01*
X57183Y625090D01*
X57279Y625065D01*
X57375Y625036D01*
X57469Y625003D01*
X57562Y624967D01*
X57653Y624927D01*
X57743Y624883D01*
X57831Y624836D01*
X57917Y624786D01*
X58001Y624732D01*
X58083Y624675D01*
X58162Y624615D01*
X58240Y624551D01*
X58314Y624485D01*
X58386Y624416D01*
X58455Y624344D01*
X58521Y624270D01*
X58585Y624192D01*
X58645Y624113D01*
X58702Y624031D01*
X58756Y623947D01*
X58806Y623861D01*
X58853Y623773D01*
X58897Y623683D01*
X58937Y623592D01*
X58973Y623499D01*
X59006Y623405D01*
X59035Y623309D01*
X59060Y623213D01*
X59081Y623116D01*
X59099Y623017D01*
X59112Y622919D01*
X59122Y622819D01*
X59128Y622720D01*
X59130Y622620D01*
X13410Y625160D02*
X13310Y625158D01*
X13211Y625152D01*
X13111Y625142D01*
X13013Y625129D01*
X12914Y625111D01*
X12817Y625090D01*
X12721Y625065D01*
X12625Y625036D01*
X12531Y625003D01*
X12438Y624967D01*
X12347Y624927D01*
X12257Y624883D01*
X12169Y624836D01*
X12083Y624786D01*
X11999Y624732D01*
X11917Y624675D01*
X11838Y624615D01*
X11760Y624551D01*
X11686Y624485D01*
X11614Y624416D01*
X11545Y624344D01*
X11479Y624270D01*
X11415Y624192D01*
X11355Y624113D01*
X11298Y624031D01*
X11244Y623947D01*
X11194Y623861D01*
X11147Y623773D01*
X11103Y623683D01*
X11063Y623592D01*
X11027Y623499D01*
X10994Y623405D01*
X10965Y623309D01*
X10940Y623213D01*
X10919Y623116D01*
X10901Y623017D01*
X10888Y622919D01*
X10878Y622819D01*
X10872Y622720D01*
X10870Y622620D01*
X10870Y607380D02*
X10872Y607280D01*
X10878Y607181D01*
X10888Y607081D01*
X10901Y606983D01*
X10919Y606884D01*
X10940Y606787D01*
X10965Y606691D01*
X10994Y606595D01*
X11027Y606501D01*
X11063Y606408D01*
X11103Y606317D01*
X11147Y606227D01*
X11194Y606139D01*
X11244Y606053D01*
X11298Y605969D01*
X11355Y605887D01*
X11415Y605808D01*
X11479Y605730D01*
X11545Y605656D01*
X11614Y605584D01*
X11686Y605515D01*
X11760Y605449D01*
X11838Y605385D01*
X11917Y605325D01*
X11999Y605268D01*
X12083Y605214D01*
X12169Y605164D01*
X12257Y605117D01*
X12347Y605073D01*
X12438Y605033D01*
X12531Y604997D01*
X12625Y604964D01*
X12721Y604935D01*
X12817Y604910D01*
X12914Y604889D01*
X13013Y604871D01*
X13111Y604858D01*
X13211Y604848D01*
X13310Y604842D01*
X13410Y604840D01*
X56590Y604840D02*
X56690Y604842D01*
X56789Y604848D01*
X56889Y604858D01*
X56987Y604871D01*
X57086Y604889D01*
X57183Y604910D01*
X57279Y604935D01*
X57375Y604964D01*
X57469Y604997D01*
X57562Y605033D01*
X57653Y605073D01*
X57743Y605117D01*
X57831Y605164D01*
X57917Y605214D01*
X58001Y605268D01*
X58083Y605325D01*
X58162Y605385D01*
X58240Y605449D01*
X58314Y605515D01*
X58386Y605584D01*
X58455Y605656D01*
X58521Y605730D01*
X58585Y605808D01*
X58645Y605887D01*
X58702Y605969D01*
X58756Y606053D01*
X58806Y606139D01*
X58853Y606227D01*
X58897Y606317D01*
X58937Y606408D01*
X58973Y606501D01*
X59006Y606595D01*
X59035Y606691D01*
X59060Y606787D01*
X59081Y606884D01*
X59099Y606983D01*
X59112Y607081D01*
X59122Y607181D01*
X59128Y607280D01*
X59130Y607380D01*
X59130Y622620D01*
X10870Y622620D02*
X10870Y607380D01*
X13410Y625160D02*
X56590Y625160D01*
X57860Y615000D02*
X52780Y615000D01*
X17220Y615000D02*
X12140Y615000D01*
X35000Y622620D02*
X35000Y625160D01*
X35000Y607380D02*
X35000Y604840D01*
D105*
X45794Y608044D02*
X45161Y615000D01*
X45161Y615000D01*
X45794Y621956D01*
X45964Y621939D01*
X46134Y621917D01*
X46302Y621891D01*
X46471Y621861D01*
X46638Y621827D01*
X46805Y621789D01*
X46970Y621746D01*
X47135Y621700D01*
X47298Y621650D01*
X47460Y621596D01*
X47621Y621537D01*
X47780Y621475D01*
X47937Y621409D01*
X48093Y621339D01*
X48247Y621266D01*
X48400Y621188D01*
X48550Y621107D01*
X48698Y621022D01*
X48845Y620934D01*
X48989Y620842D01*
X49130Y620747D01*
X49270Y620648D01*
X49407Y620546D01*
X49541Y620440D01*
X49673Y620331D01*
X49802Y620219D01*
X49928Y620104D01*
X50052Y619986D01*
X50172Y619865D01*
X50290Y619741D01*
X50404Y619614D01*
X50515Y619485D01*
X50623Y619352D01*
X50728Y619217D01*
X50830Y619080D01*
X50928Y618940D01*
X51022Y618798D01*
X51114Y618653D01*
X51201Y618506D01*
X51285Y618358D01*
X51365Y618207D01*
X51442Y618054D01*
X51515Y617900D01*
X51584Y617743D01*
X51649Y617585D01*
X51710Y617426D01*
X51768Y617265D01*
X51821Y617103D01*
X51870Y616939D01*
X51916Y616774D01*
X51957Y616609D01*
X51995Y616442D01*
X52028Y616274D01*
X52057Y616106D01*
X52082Y615937D01*
X52103Y615767D01*
X52119Y615597D01*
X52132Y615427D01*
X52140Y615256D01*
X52144Y615085D01*
X52144Y614915D01*
X52140Y614744D01*
X52132Y614573D01*
X52119Y614403D01*
X52103Y614233D01*
X52082Y614063D01*
X52057Y613894D01*
X52028Y613726D01*
X51995Y613558D01*
X51957Y613391D01*
X51916Y613226D01*
X51870Y613061D01*
X51821Y612897D01*
X51768Y612735D01*
X51710Y612574D01*
X51649Y612415D01*
X51584Y612257D01*
X51515Y612100D01*
X51442Y611946D01*
X51365Y611793D01*
X51285Y611642D01*
X51201Y611494D01*
X51114Y611347D01*
X51022Y611202D01*
X50928Y611060D01*
X50830Y610920D01*
X50728Y610783D01*
X50623Y610648D01*
X50515Y610515D01*
X50404Y610386D01*
X50290Y610259D01*
X50172Y610135D01*
X50052Y610014D01*
X49928Y609896D01*
X49802Y609781D01*
X49673Y609669D01*
X49541Y609560D01*
X49407Y609454D01*
X49270Y609352D01*
X49130Y609253D01*
X48989Y609158D01*
X48845Y609066D01*
X48698Y608978D01*
X48550Y608893D01*
X48400Y608812D01*
X48247Y608734D01*
X48093Y608661D01*
X47937Y608591D01*
X47780Y608525D01*
X47621Y608463D01*
X47460Y608404D01*
X47298Y608350D01*
X47135Y608300D01*
X46970Y608254D01*
X46805Y608211D01*
X46638Y608173D01*
X46471Y608139D01*
X46302Y608109D01*
X46134Y608083D01*
X45964Y608061D01*
X45794Y608044D01*
X45794Y609256D01*
X45943Y609274D01*
X46092Y609297D01*
X46241Y609323D01*
X46389Y609353D01*
X46535Y609387D01*
X46681Y609425D01*
X46826Y609466D01*
X46970Y609512D01*
X47113Y609561D01*
X47254Y609614D01*
X47394Y609670D01*
X47532Y609730D01*
X47669Y609794D01*
X47804Y609861D01*
X47937Y609932D01*
X48068Y610006D01*
X48197Y610083D01*
X48324Y610164D01*
X48449Y610249D01*
X48572Y610336D01*
X48693Y610427D01*
X48811Y610520D01*
X48927Y610617D01*
X49040Y610717D01*
X49150Y610819D01*
X49258Y610925D01*
X49363Y611033D01*
X49465Y611144D01*
X49564Y611258D01*
X49660Y611374D01*
X49753Y611493D01*
X49843Y611614D01*
X49930Y611737D01*
X50013Y611862D01*
X50093Y611990D01*
X50170Y612120D01*
X50244Y612251D01*
X50313Y612385D01*
X50380Y612520D01*
X50443Y612657D01*
X50502Y612796D01*
X50558Y612936D01*
X50610Y613077D01*
X50658Y613220D01*
X50703Y613364D01*
X50743Y613509D01*
X50780Y613656D01*
X50814Y613803D01*
X50843Y613951D01*
X50868Y614099D01*
X50890Y614248D01*
X50908Y614398D01*
X50921Y614548D01*
X50931Y614699D01*
X50937Y614849D01*
X50939Y615000D01*
X50937Y615151D01*
X50931Y615301D01*
X50921Y615452D01*
X50908Y615602D01*
X50890Y615752D01*
X50868Y615901D01*
X50843Y616049D01*
X50814Y616197D01*
X50780Y616344D01*
X50743Y616491D01*
X50703Y616636D01*
X50658Y616780D01*
X50610Y616923D01*
X50558Y617064D01*
X50502Y617204D01*
X50443Y617343D01*
X50380Y617480D01*
X50313Y617615D01*
X50244Y617749D01*
X50170Y617880D01*
X50093Y618010D01*
X50013Y618138D01*
X49930Y618263D01*
X49843Y618386D01*
X49753Y618507D01*
X49660Y618626D01*
X49564Y618742D01*
X49465Y618856D01*
X49363Y618967D01*
X49258Y619075D01*
X49150Y619181D01*
X49040Y619283D01*
X48927Y619383D01*
X48811Y619480D01*
X48693Y619573D01*
X48572Y619664D01*
X48449Y619751D01*
X48324Y619836D01*
X48197Y619917D01*
X48068Y619994D01*
X47937Y620068D01*
X47804Y620139D01*
X47669Y620206D01*
X47532Y620270D01*
X47394Y620330D01*
X47254Y620386D01*
X47113Y620439D01*
X46970Y620488D01*
X46826Y620534D01*
X46681Y620575D01*
X46535Y620613D01*
X46389Y620647D01*
X46241Y620677D01*
X46092Y620703D01*
X45943Y620726D01*
X45794Y620744D01*
X45793Y619529D01*
X45925Y619509D01*
X46056Y619484D01*
X46187Y619456D01*
X46317Y619424D01*
X46446Y619389D01*
X46573Y619349D01*
X46700Y619306D01*
X46825Y619259D01*
X46949Y619209D01*
X47071Y619155D01*
X47191Y619097D01*
X47310Y619036D01*
X47427Y618971D01*
X47542Y618903D01*
X47655Y618832D01*
X47766Y618758D01*
X47875Y618680D01*
X47981Y618599D01*
X48085Y618515D01*
X48187Y618428D01*
X48286Y618338D01*
X48382Y618245D01*
X48475Y618150D01*
X48566Y618052D01*
X48654Y617951D01*
X48738Y617847D01*
X48820Y617742D01*
X48899Y617634D01*
X48974Y617523D01*
X49046Y617411D01*
X49115Y617296D01*
X49180Y617180D01*
X49242Y617061D01*
X49301Y616941D01*
X49356Y616819D01*
X49407Y616696D01*
X49455Y616571D01*
X49499Y616445D01*
X49539Y616317D01*
X49576Y616189D01*
X49609Y616059D01*
X49638Y615929D01*
X49663Y615798D01*
X49684Y615666D01*
X49702Y615533D01*
X49715Y615400D01*
X49725Y615267D01*
X49731Y615134D01*
X49733Y615000D01*
X49731Y614866D01*
X49725Y614733D01*
X49715Y614600D01*
X49702Y614467D01*
X49684Y614334D01*
X49663Y614202D01*
X49638Y614071D01*
X49609Y613941D01*
X49576Y613811D01*
X49539Y613683D01*
X49499Y613555D01*
X49455Y613429D01*
X49407Y613304D01*
X49356Y613181D01*
X49301Y613059D01*
X49242Y612939D01*
X49180Y612820D01*
X49115Y612704D01*
X49046Y612589D01*
X48974Y612477D01*
X48899Y612366D01*
X48820Y612258D01*
X48738Y612153D01*
X48654Y612049D01*
X48566Y611948D01*
X48475Y611850D01*
X48382Y611755D01*
X48286Y611662D01*
X48187Y611572D01*
X48085Y611485D01*
X47981Y611401D01*
X47875Y611320D01*
X47766Y611242D01*
X47655Y611168D01*
X47542Y611097D01*
X47427Y611029D01*
X47310Y610964D01*
X47191Y610903D01*
X47071Y610845D01*
X46949Y610791D01*
X46825Y610741D01*
X46700Y610694D01*
X46573Y610651D01*
X46446Y610611D01*
X46317Y610576D01*
X46187Y610544D01*
X46056Y610516D01*
X45925Y610491D01*
X45793Y610471D01*
X45791Y611693D01*
X45904Y611716D01*
X46015Y611743D01*
X46126Y611775D01*
X46235Y611809D01*
X46344Y611848D01*
X46451Y611890D01*
X46556Y611936D01*
X46660Y611985D01*
X46762Y612038D01*
X46862Y612095D01*
X46960Y612154D01*
X47056Y612218D01*
X47150Y612284D01*
X47241Y612353D01*
X47330Y612426D01*
X47417Y612501D01*
X47501Y612580D01*
X47582Y612661D01*
X47661Y612745D01*
X47736Y612832D01*
X47809Y612921D01*
X47878Y613013D01*
X47944Y613107D01*
X48007Y613203D01*
X48067Y613301D01*
X48123Y613401D01*
X48176Y613503D01*
X48225Y613607D01*
X48271Y613712D01*
X48313Y613819D01*
X48352Y613927D01*
X48386Y614037D01*
X48417Y614148D01*
X48444Y614259D01*
X48468Y614372D01*
X48487Y614485D01*
X48503Y614599D01*
X48515Y614713D01*
X48523Y614828D01*
X48527Y614943D01*
X48527Y615057D01*
X48523Y615172D01*
X48515Y615287D01*
X48503Y615401D01*
X48487Y615515D01*
X48468Y615628D01*
X48444Y615741D01*
X48417Y615852D01*
X48386Y615963D01*
X48352Y616073D01*
X48313Y616181D01*
X48271Y616288D01*
X48225Y616393D01*
X48176Y616497D01*
X48123Y616599D01*
X48067Y616699D01*
X48007Y616797D01*
X47944Y616893D01*
X47878Y616987D01*
X47809Y617079D01*
X47736Y617168D01*
X47661Y617255D01*
X47582Y617339D01*
X47501Y617420D01*
X47417Y617499D01*
X47330Y617574D01*
X47241Y617647D01*
X47150Y617716D01*
X47056Y617782D01*
X46960Y617846D01*
X46862Y617905D01*
X46762Y617962D01*
X46660Y618015D01*
X46556Y618064D01*
X46451Y618110D01*
X46344Y618152D01*
X46235Y618191D01*
X46126Y618225D01*
X46015Y618257D01*
X45904Y618284D01*
X45791Y618307D01*
X45786Y617068D01*
X45873Y617040D01*
X45960Y617008D01*
X46044Y616972D01*
X46127Y616932D01*
X46209Y616890D01*
X46288Y616843D01*
X46366Y616793D01*
X46441Y616741D01*
X46514Y616684D01*
X46584Y616625D01*
X46652Y616563D01*
X46717Y616498D01*
X46780Y616431D01*
X46839Y616361D01*
X46895Y616288D01*
X46949Y616213D01*
X46999Y616136D01*
X47045Y616056D01*
X47088Y615975D01*
X47128Y615892D01*
X47164Y615808D01*
X47197Y615722D01*
X47226Y615634D01*
X47251Y615546D01*
X47272Y615456D01*
X47290Y615366D01*
X47303Y615275D01*
X47313Y615184D01*
X47319Y615092D01*
X47321Y615000D01*
X47319Y614908D01*
X47313Y614816D01*
X47303Y614725D01*
X47290Y614634D01*
X47272Y614544D01*
X47251Y614454D01*
X47226Y614366D01*
X47197Y614278D01*
X47164Y614192D01*
X47128Y614108D01*
X47088Y614025D01*
X47045Y613944D01*
X46999Y613864D01*
X46949Y613787D01*
X46895Y613712D01*
X46839Y613639D01*
X46780Y613569D01*
X46717Y613502D01*
X46652Y613437D01*
X46584Y613375D01*
X46514Y613316D01*
X46441Y613259D01*
X46366Y613207D01*
X46288Y613157D01*
X46209Y613110D01*
X46127Y613068D01*
X46044Y613028D01*
X45960Y612992D01*
X45873Y612960D01*
X45786Y612932D01*
X45749Y614248D01*
X45795Y614287D01*
X45838Y614328D01*
X45879Y614371D01*
X45917Y614418D01*
X45952Y614466D01*
X45983Y614516D01*
X46012Y614569D01*
X46037Y614623D01*
X46059Y614678D01*
X46078Y614735D01*
X46092Y614793D01*
X46103Y614851D01*
X46111Y614911D01*
X46115Y614970D01*
X46115Y615030D01*
X46111Y615089D01*
X46103Y615149D01*
X46092Y615207D01*
X46078Y615265D01*
X46059Y615322D01*
X46037Y615377D01*
X46012Y615431D01*
X45983Y615484D01*
X45952Y615534D01*
X45917Y615582D01*
X45879Y615629D01*
X45838Y615672D01*
X45795Y615713D01*
X45749Y615752D01*
X24206Y621956D02*
X24839Y615000D01*
X24839Y615000D01*
X24206Y608044D01*
X24036Y608061D01*
X23866Y608083D01*
X23698Y608109D01*
X23529Y608139D01*
X23362Y608173D01*
X23195Y608211D01*
X23030Y608254D01*
X22865Y608300D01*
X22702Y608350D01*
X22540Y608404D01*
X22379Y608463D01*
X22220Y608525D01*
X22063Y608591D01*
X21907Y608661D01*
X21753Y608734D01*
X21600Y608812D01*
X21450Y608893D01*
X21302Y608978D01*
X21155Y609066D01*
X21011Y609158D01*
X20870Y609253D01*
X20730Y609352D01*
X20593Y609454D01*
X20459Y609560D01*
X20327Y609669D01*
X20198Y609781D01*
X20072Y609896D01*
X19948Y610014D01*
X19828Y610135D01*
X19710Y610259D01*
X19596Y610386D01*
X19485Y610515D01*
X19377Y610648D01*
X19272Y610783D01*
X19170Y610920D01*
X19072Y611060D01*
X18978Y611202D01*
X18886Y611347D01*
X18799Y611494D01*
X18715Y611642D01*
X18635Y611793D01*
X18558Y611946D01*
X18485Y612100D01*
X18416Y612257D01*
X18351Y612415D01*
X18290Y612574D01*
X18232Y612735D01*
X18179Y612897D01*
X18130Y613061D01*
X18084Y613226D01*
X18043Y613391D01*
X18005Y613558D01*
X17972Y613726D01*
X17943Y613894D01*
X17918Y614063D01*
X17897Y614233D01*
X17881Y614403D01*
X17868Y614573D01*
X17860Y614744D01*
X17856Y614915D01*
X17856Y615085D01*
X17860Y615256D01*
X17868Y615427D01*
X17881Y615597D01*
X17897Y615767D01*
X17918Y615937D01*
X17943Y616106D01*
X17972Y616274D01*
X18005Y616442D01*
X18043Y616609D01*
X18084Y616774D01*
X18130Y616939D01*
X18179Y617103D01*
X18232Y617265D01*
X18290Y617426D01*
X18351Y617585D01*
X18416Y617743D01*
X18485Y617900D01*
X18558Y618054D01*
X18635Y618207D01*
X18715Y618358D01*
X18799Y618506D01*
X18886Y618653D01*
X18978Y618798D01*
X19072Y618940D01*
X19170Y619080D01*
X19272Y619217D01*
X19377Y619352D01*
X19485Y619485D01*
X19596Y619614D01*
X19710Y619741D01*
X19828Y619865D01*
X19948Y619986D01*
X20072Y620104D01*
X20198Y620219D01*
X20327Y620331D01*
X20459Y620440D01*
X20593Y620546D01*
X20730Y620648D01*
X20870Y620747D01*
X21011Y620842D01*
X21155Y620934D01*
X21302Y621022D01*
X21450Y621107D01*
X21600Y621188D01*
X21753Y621266D01*
X21907Y621339D01*
X22063Y621409D01*
X22220Y621475D01*
X22379Y621537D01*
X22540Y621596D01*
X22702Y621650D01*
X22865Y621700D01*
X23030Y621746D01*
X23195Y621789D01*
X23362Y621827D01*
X23529Y621861D01*
X23698Y621891D01*
X23866Y621917D01*
X24036Y621939D01*
X24206Y621956D01*
X24206Y620744D01*
X24057Y620726D01*
X23908Y620703D01*
X23759Y620677D01*
X23611Y620647D01*
X23465Y620613D01*
X23319Y620575D01*
X23174Y620534D01*
X23030Y620488D01*
X22887Y620439D01*
X22746Y620386D01*
X22606Y620330D01*
X22468Y620270D01*
X22331Y620206D01*
X22196Y620139D01*
X22063Y620068D01*
X21932Y619994D01*
X21803Y619917D01*
X21676Y619836D01*
X21551Y619751D01*
X21428Y619664D01*
X21307Y619573D01*
X21189Y619480D01*
X21073Y619383D01*
X20960Y619283D01*
X20850Y619181D01*
X20742Y619075D01*
X20637Y618967D01*
X20535Y618856D01*
X20436Y618742D01*
X20340Y618626D01*
X20247Y618507D01*
X20157Y618386D01*
X20070Y618263D01*
X19987Y618138D01*
X19907Y618010D01*
X19830Y617880D01*
X19756Y617749D01*
X19687Y617615D01*
X19620Y617480D01*
X19557Y617343D01*
X19498Y617204D01*
X19442Y617064D01*
X19390Y616923D01*
X19342Y616780D01*
X19297Y616636D01*
X19257Y616491D01*
X19220Y616344D01*
X19186Y616197D01*
X19157Y616049D01*
X19132Y615901D01*
X19110Y615752D01*
X19092Y615602D01*
X19079Y615452D01*
X19069Y615301D01*
X19063Y615151D01*
X19061Y615000D01*
X19063Y614849D01*
X19069Y614699D01*
X19079Y614548D01*
X19092Y614398D01*
X19110Y614248D01*
X19132Y614099D01*
X19157Y613951D01*
X19186Y613803D01*
X19220Y613656D01*
X19257Y613509D01*
X19297Y613364D01*
X19342Y613220D01*
X19390Y613077D01*
X19442Y612936D01*
X19498Y612796D01*
X19557Y612657D01*
X19620Y612520D01*
X19687Y612385D01*
X19756Y612251D01*
X19830Y612120D01*
X19907Y611990D01*
X19987Y611862D01*
X20070Y611737D01*
X20157Y611614D01*
X20247Y611493D01*
X20340Y611374D01*
X20436Y611258D01*
X20535Y611144D01*
X20637Y611033D01*
X20742Y610925D01*
X20850Y610819D01*
X20960Y610717D01*
X21073Y610617D01*
X21189Y610520D01*
X21307Y610427D01*
X21428Y610336D01*
X21551Y610249D01*
X21676Y610164D01*
X21803Y610083D01*
X21932Y610006D01*
X22063Y609932D01*
X22196Y609861D01*
X22331Y609794D01*
X22468Y609730D01*
X22606Y609670D01*
X22746Y609614D01*
X22887Y609561D01*
X23030Y609512D01*
X23174Y609466D01*
X23319Y609425D01*
X23465Y609387D01*
X23611Y609353D01*
X23759Y609323D01*
X23908Y609297D01*
X24057Y609274D01*
X24206Y609256D01*
X24207Y610471D01*
X24075Y610491D01*
X23944Y610516D01*
X23813Y610544D01*
X23683Y610576D01*
X23554Y610611D01*
X23427Y610651D01*
X23300Y610694D01*
X23175Y610741D01*
X23051Y610791D01*
X22929Y610845D01*
X22809Y610903D01*
X22690Y610964D01*
X22573Y611029D01*
X22458Y611097D01*
X22345Y611168D01*
X22234Y611242D01*
X22125Y611320D01*
X22019Y611401D01*
X21915Y611485D01*
X21813Y611572D01*
X21714Y611662D01*
X21618Y611755D01*
X21525Y611850D01*
X21434Y611948D01*
X21346Y612049D01*
X21262Y612153D01*
X21180Y612258D01*
X21101Y612366D01*
X21026Y612477D01*
X20954Y612589D01*
X20885Y612704D01*
X20820Y612820D01*
X20758Y612939D01*
X20699Y613059D01*
X20644Y613181D01*
X20593Y613304D01*
X20545Y613429D01*
X20501Y613555D01*
X20461Y613683D01*
X20424Y613811D01*
X20391Y613941D01*
X20362Y614071D01*
X20337Y614202D01*
X20316Y614334D01*
X20298Y614467D01*
X20285Y614600D01*
X20275Y614733D01*
X20269Y614866D01*
X20267Y615000D01*
X20269Y615134D01*
X20275Y615267D01*
X20285Y615400D01*
X20298Y615533D01*
X20316Y615666D01*
X20337Y615798D01*
X20362Y615929D01*
X20391Y616059D01*
X20424Y616189D01*
X20461Y616317D01*
X20501Y616445D01*
X20545Y616571D01*
X20593Y616696D01*
X20644Y616819D01*
X20699Y616941D01*
X20758Y617061D01*
X20820Y617180D01*
X20885Y617296D01*
X20954Y617411D01*
X21026Y617523D01*
X21101Y617634D01*
X21180Y617742D01*
X21262Y617847D01*
X21346Y617951D01*
X21434Y618052D01*
X21525Y618150D01*
X21618Y618245D01*
X21714Y618338D01*
X21813Y618428D01*
X21915Y618515D01*
X22019Y618599D01*
X22125Y618680D01*
X22234Y618758D01*
X22345Y618832D01*
X22458Y618903D01*
X22573Y618971D01*
X22690Y619036D01*
X22809Y619097D01*
X22929Y619155D01*
X23051Y619209D01*
X23175Y619259D01*
X23300Y619306D01*
X23427Y619349D01*
X23554Y619389D01*
X23683Y619424D01*
X23813Y619456D01*
X23944Y619484D01*
X24075Y619509D01*
X24207Y619529D01*
X24209Y618307D01*
X24096Y618284D01*
X23985Y618257D01*
X23874Y618225D01*
X23765Y618191D01*
X23656Y618152D01*
X23549Y618110D01*
X23444Y618064D01*
X23340Y618015D01*
X23238Y617962D01*
X23138Y617905D01*
X23040Y617846D01*
X22944Y617782D01*
X22850Y617716D01*
X22759Y617647D01*
X22670Y617574D01*
X22583Y617499D01*
X22499Y617420D01*
X22418Y617339D01*
X22339Y617255D01*
X22264Y617168D01*
X22191Y617079D01*
X22122Y616987D01*
X22056Y616893D01*
X21993Y616797D01*
X21933Y616699D01*
X21877Y616599D01*
X21824Y616497D01*
X21775Y616393D01*
X21729Y616288D01*
X21687Y616181D01*
X21648Y616073D01*
X21614Y615963D01*
X21583Y615852D01*
X21556Y615741D01*
X21532Y615628D01*
X21513Y615515D01*
X21497Y615401D01*
X21485Y615287D01*
X21477Y615172D01*
X21473Y615057D01*
X21473Y614943D01*
X21477Y614828D01*
X21485Y614713D01*
X21497Y614599D01*
X21513Y614485D01*
X21532Y614372D01*
X21556Y614259D01*
X21583Y614148D01*
X21614Y614037D01*
X21648Y613927D01*
X21687Y613819D01*
X21729Y613712D01*
X21775Y613607D01*
X21824Y613503D01*
X21877Y613401D01*
X21933Y613301D01*
X21993Y613203D01*
X22056Y613107D01*
X22122Y613013D01*
X22191Y612921D01*
X22264Y612832D01*
X22339Y612745D01*
X22418Y612661D01*
X22499Y612580D01*
X22583Y612501D01*
X22670Y612426D01*
X22759Y612353D01*
X22850Y612284D01*
X22944Y612218D01*
X23040Y612154D01*
X23138Y612095D01*
X23238Y612038D01*
X23340Y611985D01*
X23444Y611936D01*
X23549Y611890D01*
X23656Y611848D01*
X23765Y611809D01*
X23874Y611775D01*
X23985Y611743D01*
X24096Y611716D01*
X24209Y611693D01*
X24214Y612932D01*
X24127Y612960D01*
X24040Y612992D01*
X23956Y613028D01*
X23873Y613068D01*
X23791Y613110D01*
X23712Y613157D01*
X23634Y613207D01*
X23559Y613259D01*
X23486Y613316D01*
X23416Y613375D01*
X23348Y613437D01*
X23283Y613502D01*
X23220Y613569D01*
X23161Y613639D01*
X23105Y613712D01*
X23051Y613787D01*
X23001Y613864D01*
X22955Y613944D01*
X22912Y614025D01*
X22872Y614108D01*
X22836Y614192D01*
X22803Y614278D01*
X22774Y614366D01*
X22749Y614454D01*
X22728Y614544D01*
X22710Y614634D01*
X22697Y614725D01*
X22687Y614816D01*
X22681Y614908D01*
X22679Y615000D01*
X22681Y615092D01*
X22687Y615184D01*
X22697Y615275D01*
X22710Y615366D01*
X22728Y615456D01*
X22749Y615546D01*
X22774Y615634D01*
X22803Y615722D01*
X22836Y615808D01*
X22872Y615892D01*
X22912Y615975D01*
X22955Y616056D01*
X23001Y616136D01*
X23051Y616213D01*
X23105Y616288D01*
X23161Y616361D01*
X23220Y616431D01*
X23283Y616498D01*
X23348Y616563D01*
X23416Y616625D01*
X23486Y616684D01*
X23559Y616741D01*
X23634Y616793D01*
X23712Y616843D01*
X23791Y616890D01*
X23873Y616932D01*
X23956Y616972D01*
X24040Y617008D01*
X24127Y617040D01*
X24214Y617068D01*
X24251Y615752D01*
X24205Y615713D01*
X24162Y615672D01*
X24121Y615629D01*
X24083Y615582D01*
X24048Y615534D01*
X24017Y615484D01*
X23988Y615431D01*
X23963Y615377D01*
X23941Y615322D01*
X23922Y615265D01*
X23908Y615207D01*
X23897Y615149D01*
X23889Y615089D01*
X23885Y615030D01*
X23885Y614970D01*
X23889Y614911D01*
X23897Y614851D01*
X23908Y614793D01*
X23922Y614735D01*
X23941Y614678D01*
X23963Y614623D01*
X23988Y614569D01*
X24017Y614516D01*
X24048Y614466D01*
X24083Y614418D01*
X24121Y614371D01*
X24162Y614328D01*
X24205Y614287D01*
X24251Y614248D01*
D120*
X35000Y615000D03*
D111*
X229128Y247525D02*
X229128Y228348D01*
X212872Y228348D02*
X212872Y247525D01*
D114*
X221000Y224792D03*
X221000Y251208D03*
D113*
X209342Y226814D02*
X197648Y226814D01*
X197648Y232661D01*
X199597Y234610D01*
X203495Y234610D01*
X205444Y232661D01*
X205444Y226814D01*
X205444Y230712D02*
X209342Y234610D01*
X199597Y238508D02*
X197648Y240457D01*
X197648Y244355D01*
X199597Y246304D01*
X201546Y246304D01*
X203495Y244355D01*
X203495Y242406D01*
X203495Y244355D02*
X205444Y246304D01*
X207393Y246304D01*
X209342Y244355D01*
X209342Y240457D01*
X207393Y238508D01*
D107*
X289975Y471137D02*
X289975Y492137D01*
X180975Y561137D02*
X147975Y561137D01*
X147975Y471137D02*
X180975Y471137D01*
X147975Y471137D02*
X147975Y561137D01*
X180975Y471137D02*
X231975Y471137D01*
X278975Y471137D02*
X289975Y471137D01*
X289975Y561137D02*
X180975Y561137D01*
X289975Y561137D02*
X289975Y542137D01*
X180975Y561137D02*
X180975Y471137D01*
X180975Y561137D01*
X272475Y561137D01*
X289975Y561137D01*
X231475Y471137D02*
X180975Y471137D01*
X231475Y471137D02*
X231975Y471137D01*
X289975Y489637D02*
X289975Y561137D01*
X289975Y489637D02*
X289975Y471137D01*
X289975Y489637D02*
X289975Y492137D01*
X289975Y471137D02*
X231475Y471137D01*
X272475Y472137D02*
X272475Y561137D01*
M02*
