G04 EAGLE Gerber RS-274X export*
G75*
%MOMM*%
%FSLAX34Y34*%
%LPD*%
%INSoldermask Top*%
%IPPOS*%
%AMOC8*
5,1,8,0,0,1.08239X$1,22.5*%
G01*
%ADD10C,0.603200*%
%ADD11C,5.903200*%
%ADD12C,5.203200*%
%ADD13C,4.203200*%
%ADD14R,1.203200X1.703200*%
%ADD15R,1.703200X1.203200*%
%ADD16R,4.703200X4.703200*%
%ADD17R,2.438400X1.422400*%
%ADD18R,2.403200X3.803200*%
%ADD19R,1.803200X2.006200*%
%ADD20R,2.006200X1.803200*%
%ADD21C,5.537200*%
%ADD22C,1.727200*%
%ADD23R,1.703200X1.703200*%
%ADD24C,1.403200*%
%ADD25R,1.371600X1.803400*%
%ADD26R,1.203200X1.203200*%
%ADD27C,1.103200*%
%ADD28C,4.419200*%
%ADD29C,4.019200*%
%ADD30C,3.003200*%

G36*
X107500Y2495D02*
X107500Y2495D01*
X107501Y2495D01*
X108613Y2620D01*
X108614Y2621D01*
X109671Y2990D01*
X109671Y2991D01*
X109672Y2991D01*
X110620Y3587D01*
X110621Y3587D01*
X111413Y4379D01*
X111413Y4380D01*
X112009Y5328D01*
X112009Y5329D01*
X112010Y5329D01*
X112379Y6386D01*
X112380Y6387D01*
X112380Y6390D01*
X112380Y6395D01*
X112381Y6395D01*
X112380Y6395D01*
X112383Y6420D01*
X112384Y6425D01*
X112384Y6430D01*
X112385Y6435D01*
X112386Y6440D01*
X112386Y6445D01*
X112387Y6449D01*
X112387Y6450D01*
X112387Y6454D01*
X112387Y6455D01*
X112390Y6479D01*
X112391Y6484D01*
X112391Y6489D01*
X112392Y6494D01*
X112392Y6499D01*
X112393Y6504D01*
X112393Y6509D01*
X112394Y6514D01*
X112394Y6519D01*
X112395Y6519D01*
X112394Y6519D01*
X112397Y6539D01*
X112397Y6544D01*
X112398Y6549D01*
X112398Y6554D01*
X112399Y6559D01*
X112400Y6564D01*
X112400Y6569D01*
X112401Y6574D01*
X112401Y6579D01*
X112403Y6599D01*
X112404Y6604D01*
X112405Y6608D01*
X112405Y6609D01*
X112405Y6613D01*
X112405Y6614D01*
X112406Y6618D01*
X112406Y6623D01*
X112407Y6628D01*
X112407Y6633D01*
X112408Y6638D01*
X112410Y6658D01*
X112411Y6663D01*
X112411Y6668D01*
X112412Y6673D01*
X112412Y6678D01*
X112413Y6683D01*
X112414Y6688D01*
X112414Y6693D01*
X112415Y6698D01*
X112417Y6718D01*
X112417Y6723D01*
X112418Y6728D01*
X112419Y6733D01*
X112419Y6738D01*
X112420Y6743D01*
X112420Y6748D01*
X112421Y6753D01*
X112421Y6758D01*
X112424Y6777D01*
X112424Y6782D01*
X112425Y6787D01*
X112425Y6792D01*
X112426Y6797D01*
X112426Y6802D01*
X112427Y6807D01*
X112428Y6812D01*
X112428Y6817D01*
X112430Y6837D01*
X112431Y6842D01*
X112431Y6847D01*
X112432Y6852D01*
X112433Y6857D01*
X112433Y6862D01*
X112434Y6867D01*
X112434Y6872D01*
X112435Y6877D01*
X112437Y6897D01*
X112438Y6902D01*
X112438Y6907D01*
X112439Y6912D01*
X112439Y6917D01*
X112440Y6922D01*
X112440Y6926D01*
X112440Y6927D01*
X112441Y6931D01*
X112441Y6932D01*
X112442Y6936D01*
X112444Y6956D01*
X112444Y6961D01*
X112445Y6966D01*
X112445Y6971D01*
X112446Y6976D01*
X112447Y6981D01*
X112447Y6986D01*
X112448Y6991D01*
X112448Y6996D01*
X112451Y7021D01*
X112452Y7026D01*
X112452Y7031D01*
X112453Y7036D01*
X112453Y7041D01*
X112454Y7046D01*
X112454Y7051D01*
X112455Y7056D01*
X112458Y7081D01*
X112458Y7085D01*
X112458Y7086D01*
X112459Y7090D01*
X112459Y7091D01*
X112459Y7095D01*
X112460Y7100D01*
X112461Y7105D01*
X112461Y7110D01*
X112462Y7115D01*
X112464Y7140D01*
X112465Y7145D01*
X112466Y7150D01*
X112466Y7155D01*
X112467Y7160D01*
X112467Y7165D01*
X112468Y7170D01*
X112468Y7175D01*
X112471Y7200D01*
X112472Y7205D01*
X112472Y7210D01*
X112473Y7215D01*
X112473Y7220D01*
X112474Y7225D01*
X112475Y7230D01*
X112475Y7235D01*
X112476Y7240D01*
X112478Y7259D01*
X112478Y7264D01*
X112479Y7269D01*
X112480Y7274D01*
X112480Y7279D01*
X112481Y7284D01*
X112481Y7289D01*
X112482Y7294D01*
X112482Y7299D01*
X112485Y7319D01*
X112485Y7324D01*
X112486Y7329D01*
X112486Y7334D01*
X112487Y7339D01*
X112487Y7344D01*
X112488Y7349D01*
X112489Y7354D01*
X112489Y7359D01*
X112491Y7379D01*
X112492Y7384D01*
X112492Y7389D01*
X112493Y7394D01*
X112494Y7399D01*
X112494Y7403D01*
X112494Y7404D01*
X112495Y7408D01*
X112495Y7409D01*
X112495Y7413D01*
X112496Y7418D01*
X112498Y7438D01*
X112499Y7443D01*
X112499Y7448D01*
X112500Y7453D01*
X112500Y7458D01*
X112501Y7463D01*
X112501Y7468D01*
X112502Y7473D01*
X112503Y7478D01*
X112505Y7498D01*
X112505Y7499D01*
X112505Y7500D01*
X112505Y245000D01*
X112505Y245001D01*
X112361Y246464D01*
X112360Y246464D01*
X112361Y246465D01*
X111934Y247872D01*
X111933Y247872D01*
X111934Y247872D01*
X111240Y249169D01*
X111240Y249170D01*
X110307Y250306D01*
X110307Y250307D01*
X110306Y250307D01*
X109170Y251240D01*
X109169Y251240D01*
X107872Y251934D01*
X107872Y251933D01*
X107872Y251934D01*
X106465Y252361D01*
X106464Y252360D01*
X106464Y252361D01*
X105001Y252505D01*
X105000Y252505D01*
X25000Y252505D01*
X23536Y252361D01*
X23536Y252360D01*
X23535Y252361D01*
X22128Y251934D01*
X22128Y251933D01*
X22128Y251934D01*
X20831Y251240D01*
X20830Y251240D01*
X19694Y250307D01*
X19693Y250307D01*
X19693Y250306D01*
X18760Y249170D01*
X18760Y249169D01*
X18067Y247872D01*
X18066Y247872D01*
X17639Y246465D01*
X17640Y246464D01*
X17639Y246464D01*
X17495Y245001D01*
X17495Y245000D01*
X17495Y7500D01*
X17495Y7499D01*
X17620Y6387D01*
X17621Y6386D01*
X17990Y5329D01*
X17991Y5329D01*
X17991Y5328D01*
X18587Y4380D01*
X18587Y4379D01*
X19379Y3587D01*
X19380Y3587D01*
X20328Y2991D01*
X20329Y2991D01*
X20329Y2990D01*
X21386Y2621D01*
X21387Y2620D01*
X22499Y2495D01*
X22500Y2495D01*
X107500Y2495D01*
X107500Y2495D01*
G37*
G36*
X43558Y750050D02*
X43558Y750050D01*
X43559Y750050D01*
X47044Y750808D01*
X47045Y750808D01*
X50387Y752055D01*
X50388Y752055D01*
X53518Y753764D01*
X53519Y753765D01*
X56375Y755902D01*
X56375Y755903D01*
X58897Y758425D01*
X58898Y758425D01*
X61035Y761281D01*
X61035Y761282D01*
X61036Y761282D01*
X62745Y764412D01*
X62745Y764413D01*
X63992Y767755D01*
X63992Y767756D01*
X64750Y771241D01*
X64750Y771242D01*
X64751Y771242D01*
X64753Y771274D01*
X64754Y771289D01*
X64756Y771314D01*
X64757Y771329D01*
X64760Y771369D01*
X64762Y771408D01*
X64765Y771448D01*
X64768Y771488D01*
X64771Y771528D01*
X64772Y771543D01*
X64775Y771582D01*
X64778Y771622D01*
X64781Y771662D01*
X64783Y771702D01*
X64786Y771741D01*
X64787Y771756D01*
X64790Y771796D01*
X64793Y771836D01*
X64796Y771875D01*
X64796Y771876D01*
X64799Y771915D01*
X64802Y771955D01*
X64803Y771970D01*
X64805Y772010D01*
X64808Y772049D01*
X64811Y772089D01*
X64814Y772129D01*
X64817Y772169D01*
X64818Y772184D01*
X64821Y772223D01*
X64824Y772263D01*
X64826Y772303D01*
X64829Y772343D01*
X64832Y772382D01*
X64833Y772397D01*
X64836Y772437D01*
X64839Y772477D01*
X64842Y772516D01*
X64842Y772517D01*
X64845Y772556D01*
X64847Y772596D01*
X64848Y772611D01*
X64851Y772651D01*
X64854Y772690D01*
X64857Y772730D01*
X64860Y772770D01*
X64863Y772810D01*
X64864Y772825D01*
X64867Y772864D01*
X64869Y772904D01*
X64872Y772944D01*
X64875Y772984D01*
X64878Y773023D01*
X64879Y773038D01*
X64882Y773078D01*
X64885Y773118D01*
X64888Y773157D01*
X64890Y773197D01*
X64893Y773237D01*
X64894Y773252D01*
X64897Y773292D01*
X64900Y773331D01*
X64903Y773371D01*
X64906Y773411D01*
X64908Y773451D01*
X64909Y773451D01*
X64908Y773451D01*
X64910Y773466D01*
X64912Y773505D01*
X64915Y773545D01*
X64918Y773585D01*
X64921Y773624D01*
X64921Y773625D01*
X64924Y773664D01*
X64925Y773679D01*
X64928Y773719D01*
X64931Y773759D01*
X64933Y773798D01*
X64936Y773838D01*
X64939Y773878D01*
X64940Y773893D01*
X64943Y773933D01*
X64946Y773972D01*
X64949Y774012D01*
X64951Y774052D01*
X64952Y774052D01*
X64951Y774052D01*
X64954Y774092D01*
X64955Y774106D01*
X64955Y774107D01*
X64958Y774146D01*
X64961Y774186D01*
X64964Y774226D01*
X64967Y774265D01*
X64967Y774266D01*
X64970Y774305D01*
X64971Y774320D01*
X64974Y774360D01*
X64976Y774400D01*
X64979Y774439D01*
X64982Y774479D01*
X64985Y774519D01*
X64986Y774534D01*
X64989Y774574D01*
X64992Y774613D01*
X64994Y774653D01*
X64995Y774653D01*
X64994Y774653D01*
X64997Y774693D01*
X65000Y774733D01*
X65001Y774747D01*
X65004Y774787D01*
X65005Y774800D01*
X65005Y850200D01*
X64751Y853758D01*
X64750Y853759D01*
X63992Y857244D01*
X63992Y857245D01*
X62745Y860587D01*
X62745Y860588D01*
X61036Y863718D01*
X61035Y863719D01*
X58898Y866575D01*
X58897Y866575D01*
X56375Y869097D01*
X56375Y869098D01*
X53519Y871235D01*
X53518Y871236D01*
X50388Y872945D01*
X50387Y872945D01*
X47045Y874192D01*
X47044Y874192D01*
X43559Y874950D01*
X43558Y874950D01*
X43558Y874951D01*
X43525Y874953D01*
X43456Y874958D01*
X43386Y874963D01*
X43317Y874968D01*
X43247Y874973D01*
X43178Y874978D01*
X43108Y874983D01*
X43039Y874988D01*
X42969Y874993D01*
X42900Y874998D01*
X42830Y875003D01*
X42761Y875008D01*
X42691Y875013D01*
X42622Y875017D01*
X42553Y875022D01*
X42552Y875022D01*
X42483Y875027D01*
X42414Y875032D01*
X42413Y875032D01*
X42344Y875037D01*
X42275Y875042D01*
X42205Y875047D01*
X42136Y875052D01*
X42066Y875057D01*
X41997Y875062D01*
X41927Y875067D01*
X41858Y875072D01*
X41788Y875077D01*
X41719Y875082D01*
X41649Y875087D01*
X41580Y875092D01*
X41510Y875097D01*
X41441Y875102D01*
X41372Y875107D01*
X41371Y875107D01*
X41302Y875112D01*
X41233Y875117D01*
X41232Y875117D01*
X41163Y875122D01*
X41094Y875127D01*
X41024Y875132D01*
X40955Y875137D01*
X40885Y875142D01*
X40816Y875147D01*
X40746Y875152D01*
X40677Y875157D01*
X40607Y875162D01*
X40538Y875167D01*
X40468Y875172D01*
X40399Y875176D01*
X40329Y875181D01*
X40260Y875186D01*
X40190Y875191D01*
X40121Y875196D01*
X40052Y875201D01*
X40051Y875201D01*
X40000Y875205D01*
X39949Y875201D01*
X39948Y875201D01*
X39879Y875196D01*
X39810Y875191D01*
X39740Y875186D01*
X39671Y875181D01*
X39601Y875176D01*
X39532Y875172D01*
X39462Y875167D01*
X39393Y875162D01*
X39323Y875157D01*
X39254Y875152D01*
X39184Y875147D01*
X39115Y875142D01*
X39045Y875137D01*
X38976Y875132D01*
X38906Y875127D01*
X38837Y875122D01*
X38768Y875117D01*
X38767Y875117D01*
X38698Y875112D01*
X38629Y875107D01*
X38628Y875107D01*
X38559Y875102D01*
X38490Y875097D01*
X38420Y875092D01*
X38351Y875087D01*
X38281Y875082D01*
X38212Y875077D01*
X38142Y875072D01*
X38073Y875067D01*
X38003Y875062D01*
X37934Y875057D01*
X37864Y875052D01*
X37795Y875047D01*
X37725Y875042D01*
X37656Y875037D01*
X37587Y875032D01*
X37586Y875032D01*
X37517Y875027D01*
X37448Y875022D01*
X37447Y875022D01*
X37378Y875017D01*
X37309Y875013D01*
X37239Y875008D01*
X37170Y875003D01*
X37100Y874998D01*
X37031Y874993D01*
X36961Y874988D01*
X36892Y874983D01*
X36822Y874978D01*
X36753Y874973D01*
X36683Y874968D01*
X36614Y874963D01*
X36544Y874958D01*
X36475Y874953D01*
X36442Y874951D01*
X36441Y874950D01*
X32956Y874192D01*
X32955Y874192D01*
X29613Y872945D01*
X29612Y872945D01*
X26482Y871236D01*
X26481Y871235D01*
X23625Y869098D01*
X23625Y869097D01*
X21103Y866575D01*
X21102Y866575D01*
X18965Y863719D01*
X18964Y863718D01*
X17255Y860588D01*
X17255Y860587D01*
X16008Y857245D01*
X16008Y857244D01*
X15250Y853759D01*
X15250Y853758D01*
X15248Y853742D01*
X15246Y853702D01*
X15245Y853702D01*
X15246Y853702D01*
X15244Y853687D01*
X15243Y853662D01*
X15242Y853647D01*
X15239Y853608D01*
X15236Y853568D01*
X15233Y853528D01*
X15230Y853489D01*
X15230Y853488D01*
X15227Y853449D01*
X15226Y853434D01*
X15223Y853394D01*
X15221Y853354D01*
X15218Y853315D01*
X15215Y853275D01*
X15212Y853235D01*
X15211Y853220D01*
X15208Y853180D01*
X15205Y853141D01*
X15203Y853101D01*
X15202Y853101D01*
X15203Y853101D01*
X15200Y853061D01*
X15197Y853021D01*
X15196Y853007D01*
X15196Y853006D01*
X15193Y852967D01*
X15190Y852927D01*
X15187Y852887D01*
X15184Y852848D01*
X15184Y852847D01*
X15182Y852808D01*
X15180Y852793D01*
X15178Y852753D01*
X15175Y852713D01*
X15172Y852674D01*
X15169Y852634D01*
X15166Y852594D01*
X15165Y852579D01*
X15162Y852539D01*
X15160Y852500D01*
X15159Y852500D01*
X15160Y852500D01*
X15157Y852460D01*
X15154Y852420D01*
X15151Y852380D01*
X15150Y852366D01*
X15147Y852326D01*
X15144Y852286D01*
X15141Y852246D01*
X15139Y852207D01*
X15136Y852167D01*
X15135Y852152D01*
X15132Y852112D01*
X15129Y852072D01*
X15126Y852033D01*
X15123Y851993D01*
X15120Y851953D01*
X15119Y851938D01*
X15117Y851899D01*
X15116Y851898D01*
X15117Y851898D01*
X15114Y851859D01*
X15111Y851819D01*
X15108Y851779D01*
X15105Y851740D01*
X15105Y851739D01*
X15104Y851725D01*
X15101Y851685D01*
X15098Y851645D01*
X15096Y851605D01*
X15093Y851566D01*
X15090Y851526D01*
X15089Y851511D01*
X15086Y851471D01*
X15083Y851431D01*
X15080Y851392D01*
X15077Y851352D01*
X15075Y851312D01*
X15074Y851297D01*
X15073Y851297D01*
X15071Y851258D01*
X15071Y851257D01*
X15068Y851218D01*
X15065Y851178D01*
X15062Y851138D01*
X15059Y851099D01*
X15059Y851098D01*
X15058Y851084D01*
X15055Y851044D01*
X15053Y851004D01*
X15050Y850964D01*
X15047Y850925D01*
X15044Y850885D01*
X15043Y850870D01*
X15040Y850830D01*
X15037Y850790D01*
X15034Y850751D01*
X15032Y850711D01*
X15029Y850671D01*
X15028Y850656D01*
X15025Y850617D01*
X15022Y850577D01*
X15019Y850537D01*
X15016Y850497D01*
X15013Y850458D01*
X15012Y850443D01*
X15010Y850403D01*
X15007Y850363D01*
X15004Y850323D01*
X15001Y850284D01*
X14998Y850244D01*
X14997Y850229D01*
X14995Y850200D01*
X14995Y774800D01*
X15250Y771242D01*
X15250Y771241D01*
X16008Y767756D01*
X16008Y767755D01*
X17255Y764413D01*
X17255Y764412D01*
X18964Y761282D01*
X18965Y761281D01*
X21102Y758425D01*
X21103Y758425D01*
X23625Y755903D01*
X23625Y755902D01*
X26481Y753765D01*
X26482Y753765D01*
X26482Y753764D01*
X29612Y752055D01*
X29613Y752055D01*
X32955Y750808D01*
X32956Y750808D01*
X36441Y750050D01*
X36442Y750050D01*
X40000Y749795D01*
X43558Y750050D01*
G37*
G36*
X103558Y750050D02*
X103558Y750050D01*
X103559Y750050D01*
X107044Y750808D01*
X107045Y750808D01*
X110387Y752055D01*
X110388Y752055D01*
X113518Y753764D01*
X113519Y753765D01*
X116375Y755902D01*
X116375Y755903D01*
X118897Y758425D01*
X118898Y758425D01*
X121035Y761281D01*
X121035Y761282D01*
X121036Y761282D01*
X122745Y764412D01*
X122745Y764413D01*
X123992Y767755D01*
X123992Y767756D01*
X124750Y771241D01*
X124750Y771242D01*
X124751Y771242D01*
X124753Y771274D01*
X124754Y771289D01*
X124756Y771314D01*
X124757Y771329D01*
X124760Y771369D01*
X124762Y771408D01*
X124765Y771448D01*
X124768Y771488D01*
X124771Y771528D01*
X124772Y771543D01*
X124775Y771582D01*
X124778Y771622D01*
X124781Y771662D01*
X124783Y771702D01*
X124786Y771741D01*
X124787Y771756D01*
X124790Y771796D01*
X124793Y771836D01*
X124796Y771875D01*
X124796Y771876D01*
X124799Y771915D01*
X124802Y771955D01*
X124803Y771970D01*
X124805Y772010D01*
X124808Y772049D01*
X124811Y772089D01*
X124814Y772129D01*
X124817Y772169D01*
X124818Y772184D01*
X124821Y772223D01*
X124824Y772263D01*
X124826Y772303D01*
X124829Y772343D01*
X124832Y772382D01*
X124833Y772397D01*
X124836Y772437D01*
X124839Y772477D01*
X124842Y772516D01*
X124842Y772517D01*
X124845Y772556D01*
X124847Y772596D01*
X124848Y772611D01*
X124851Y772651D01*
X124854Y772690D01*
X124857Y772730D01*
X124860Y772770D01*
X124863Y772810D01*
X124864Y772825D01*
X124867Y772864D01*
X124869Y772904D01*
X124872Y772944D01*
X124875Y772984D01*
X124878Y773023D01*
X124879Y773038D01*
X124882Y773078D01*
X124885Y773118D01*
X124888Y773157D01*
X124890Y773197D01*
X124893Y773237D01*
X124894Y773252D01*
X124897Y773292D01*
X124900Y773331D01*
X124903Y773371D01*
X124906Y773411D01*
X124908Y773451D01*
X124909Y773451D01*
X124908Y773451D01*
X124910Y773466D01*
X124912Y773505D01*
X124915Y773545D01*
X124918Y773585D01*
X124921Y773624D01*
X124921Y773625D01*
X124924Y773664D01*
X124925Y773679D01*
X124928Y773719D01*
X124931Y773759D01*
X124933Y773798D01*
X124936Y773838D01*
X124939Y773878D01*
X124940Y773893D01*
X124943Y773933D01*
X124946Y773972D01*
X124949Y774012D01*
X124951Y774052D01*
X124952Y774052D01*
X124951Y774052D01*
X124954Y774092D01*
X124955Y774106D01*
X124955Y774107D01*
X124958Y774146D01*
X124961Y774186D01*
X124964Y774226D01*
X124967Y774265D01*
X124967Y774266D01*
X124970Y774305D01*
X124971Y774320D01*
X124974Y774360D01*
X124976Y774400D01*
X124979Y774439D01*
X124982Y774479D01*
X124985Y774519D01*
X124986Y774534D01*
X124989Y774574D01*
X124992Y774613D01*
X124994Y774653D01*
X124995Y774653D01*
X124994Y774653D01*
X124997Y774693D01*
X125000Y774733D01*
X125001Y774747D01*
X125004Y774787D01*
X125005Y774800D01*
X125005Y850200D01*
X124751Y853758D01*
X124750Y853759D01*
X123992Y857244D01*
X123992Y857245D01*
X122745Y860587D01*
X122745Y860588D01*
X121036Y863718D01*
X121035Y863719D01*
X118898Y866575D01*
X118897Y866575D01*
X116375Y869097D01*
X116375Y869098D01*
X113519Y871235D01*
X113518Y871236D01*
X110388Y872945D01*
X110387Y872945D01*
X107045Y874192D01*
X107044Y874192D01*
X103559Y874950D01*
X103558Y874950D01*
X103558Y874951D01*
X103525Y874953D01*
X103456Y874958D01*
X103386Y874963D01*
X103317Y874968D01*
X103247Y874973D01*
X103178Y874978D01*
X103108Y874983D01*
X103039Y874988D01*
X102969Y874993D01*
X102900Y874998D01*
X102830Y875003D01*
X102761Y875008D01*
X102691Y875013D01*
X102622Y875017D01*
X102553Y875022D01*
X102552Y875022D01*
X102483Y875027D01*
X102414Y875032D01*
X102413Y875032D01*
X102344Y875037D01*
X102275Y875042D01*
X102205Y875047D01*
X102136Y875052D01*
X102066Y875057D01*
X101997Y875062D01*
X101927Y875067D01*
X101858Y875072D01*
X101788Y875077D01*
X101719Y875082D01*
X101649Y875087D01*
X101580Y875092D01*
X101510Y875097D01*
X101441Y875102D01*
X101372Y875107D01*
X101371Y875107D01*
X101302Y875112D01*
X101233Y875117D01*
X101232Y875117D01*
X101163Y875122D01*
X101094Y875127D01*
X101024Y875132D01*
X100955Y875137D01*
X100885Y875142D01*
X100816Y875147D01*
X100746Y875152D01*
X100677Y875157D01*
X100607Y875162D01*
X100538Y875167D01*
X100468Y875172D01*
X100399Y875176D01*
X100329Y875181D01*
X100260Y875186D01*
X100190Y875191D01*
X100121Y875196D01*
X100052Y875201D01*
X100051Y875201D01*
X100000Y875205D01*
X99949Y875201D01*
X99948Y875201D01*
X99879Y875196D01*
X99810Y875191D01*
X99740Y875186D01*
X99671Y875181D01*
X99601Y875176D01*
X99532Y875172D01*
X99462Y875167D01*
X99393Y875162D01*
X99323Y875157D01*
X99254Y875152D01*
X99184Y875147D01*
X99115Y875142D01*
X99045Y875137D01*
X98976Y875132D01*
X98906Y875127D01*
X98837Y875122D01*
X98768Y875117D01*
X98767Y875117D01*
X98698Y875112D01*
X98629Y875107D01*
X98628Y875107D01*
X98559Y875102D01*
X98490Y875097D01*
X98420Y875092D01*
X98351Y875087D01*
X98281Y875082D01*
X98212Y875077D01*
X98142Y875072D01*
X98073Y875067D01*
X98003Y875062D01*
X97934Y875057D01*
X97864Y875052D01*
X97795Y875047D01*
X97725Y875042D01*
X97656Y875037D01*
X97587Y875032D01*
X97586Y875032D01*
X97517Y875027D01*
X97448Y875022D01*
X97447Y875022D01*
X97378Y875017D01*
X97309Y875013D01*
X97239Y875008D01*
X97170Y875003D01*
X97100Y874998D01*
X97031Y874993D01*
X96961Y874988D01*
X96892Y874983D01*
X96822Y874978D01*
X96753Y874973D01*
X96683Y874968D01*
X96614Y874963D01*
X96544Y874958D01*
X96475Y874953D01*
X96442Y874951D01*
X96441Y874950D01*
X92956Y874192D01*
X92955Y874192D01*
X89613Y872945D01*
X89612Y872945D01*
X86482Y871236D01*
X86481Y871235D01*
X83625Y869098D01*
X83625Y869097D01*
X81103Y866575D01*
X81102Y866575D01*
X78965Y863719D01*
X78964Y863718D01*
X77255Y860588D01*
X77255Y860587D01*
X76008Y857245D01*
X76008Y857244D01*
X75250Y853759D01*
X75250Y853758D01*
X75248Y853742D01*
X75246Y853702D01*
X75245Y853702D01*
X75246Y853702D01*
X75244Y853687D01*
X75243Y853662D01*
X75242Y853647D01*
X75239Y853608D01*
X75236Y853568D01*
X75233Y853528D01*
X75230Y853489D01*
X75230Y853488D01*
X75227Y853449D01*
X75226Y853434D01*
X75223Y853394D01*
X75221Y853354D01*
X75218Y853315D01*
X75215Y853275D01*
X75212Y853235D01*
X75211Y853220D01*
X75208Y853180D01*
X75205Y853141D01*
X75203Y853101D01*
X75202Y853101D01*
X75203Y853101D01*
X75200Y853061D01*
X75197Y853021D01*
X75196Y853007D01*
X75196Y853006D01*
X75193Y852967D01*
X75190Y852927D01*
X75187Y852887D01*
X75184Y852848D01*
X75184Y852847D01*
X75182Y852808D01*
X75180Y852793D01*
X75178Y852753D01*
X75175Y852713D01*
X75172Y852674D01*
X75169Y852634D01*
X75166Y852594D01*
X75165Y852579D01*
X75162Y852539D01*
X75160Y852500D01*
X75159Y852500D01*
X75160Y852500D01*
X75157Y852460D01*
X75154Y852420D01*
X75151Y852380D01*
X75150Y852366D01*
X75147Y852326D01*
X75144Y852286D01*
X75141Y852246D01*
X75139Y852207D01*
X75136Y852167D01*
X75135Y852152D01*
X75132Y852112D01*
X75129Y852072D01*
X75126Y852033D01*
X75123Y851993D01*
X75120Y851953D01*
X75119Y851938D01*
X75117Y851899D01*
X75116Y851898D01*
X75117Y851898D01*
X75114Y851859D01*
X75111Y851819D01*
X75108Y851779D01*
X75105Y851740D01*
X75105Y851739D01*
X75104Y851725D01*
X75101Y851685D01*
X75098Y851645D01*
X75096Y851605D01*
X75093Y851566D01*
X75090Y851526D01*
X75089Y851511D01*
X75086Y851471D01*
X75083Y851431D01*
X75080Y851392D01*
X75077Y851352D01*
X75075Y851312D01*
X75074Y851297D01*
X75073Y851297D01*
X75071Y851258D01*
X75071Y851257D01*
X75068Y851218D01*
X75065Y851178D01*
X75062Y851138D01*
X75059Y851099D01*
X75059Y851098D01*
X75058Y851084D01*
X75055Y851044D01*
X75053Y851004D01*
X75050Y850964D01*
X75047Y850925D01*
X75044Y850885D01*
X75043Y850870D01*
X75040Y850830D01*
X75037Y850790D01*
X75034Y850751D01*
X75032Y850711D01*
X75029Y850671D01*
X75028Y850656D01*
X75025Y850617D01*
X75022Y850577D01*
X75019Y850537D01*
X75016Y850497D01*
X75013Y850458D01*
X75012Y850443D01*
X75010Y850403D01*
X75007Y850363D01*
X75004Y850323D01*
X75001Y850284D01*
X74998Y850244D01*
X74997Y850229D01*
X74995Y850200D01*
X74995Y774800D01*
X75250Y771242D01*
X75250Y771241D01*
X76008Y767756D01*
X76008Y767755D01*
X77255Y764413D01*
X77255Y764412D01*
X78964Y761282D01*
X78965Y761281D01*
X81102Y758425D01*
X81103Y758425D01*
X83625Y755903D01*
X83625Y755902D01*
X86481Y753765D01*
X86482Y753765D01*
X86482Y753764D01*
X89612Y752055D01*
X89613Y752055D01*
X92955Y750808D01*
X92956Y750808D01*
X96441Y750050D01*
X96442Y750050D01*
X100000Y749795D01*
X103558Y750050D01*
G37*
G36*
X326058Y165050D02*
X326058Y165050D01*
X326059Y165050D01*
X329544Y165808D01*
X329545Y165808D01*
X332887Y167055D01*
X332888Y167055D01*
X336018Y168764D01*
X336019Y168765D01*
X338875Y170902D01*
X338875Y170903D01*
X341397Y173425D01*
X341398Y173425D01*
X343535Y176281D01*
X343535Y176282D01*
X343536Y176282D01*
X345245Y179412D01*
X345245Y179413D01*
X346492Y182755D01*
X346492Y182756D01*
X347250Y186241D01*
X347250Y186242D01*
X347251Y186242D01*
X347253Y186274D01*
X347254Y186289D01*
X347256Y186314D01*
X347257Y186329D01*
X347260Y186369D01*
X347262Y186408D01*
X347265Y186448D01*
X347268Y186488D01*
X347271Y186528D01*
X347272Y186543D01*
X347275Y186582D01*
X347278Y186622D01*
X347281Y186662D01*
X347283Y186702D01*
X347286Y186741D01*
X347287Y186756D01*
X347290Y186796D01*
X347293Y186836D01*
X347296Y186875D01*
X347296Y186876D01*
X347299Y186915D01*
X347302Y186955D01*
X347303Y186970D01*
X347305Y187010D01*
X347308Y187049D01*
X347311Y187089D01*
X347314Y187129D01*
X347317Y187169D01*
X347318Y187184D01*
X347321Y187223D01*
X347324Y187263D01*
X347326Y187303D01*
X347329Y187343D01*
X347332Y187382D01*
X347333Y187397D01*
X347336Y187437D01*
X347339Y187477D01*
X347342Y187516D01*
X347342Y187517D01*
X347345Y187556D01*
X347347Y187596D01*
X347348Y187611D01*
X347351Y187651D01*
X347354Y187690D01*
X347357Y187730D01*
X347360Y187770D01*
X347363Y187810D01*
X347364Y187825D01*
X347367Y187864D01*
X347369Y187904D01*
X347372Y187944D01*
X347375Y187984D01*
X347378Y188023D01*
X347379Y188038D01*
X347382Y188078D01*
X347385Y188118D01*
X347388Y188157D01*
X347390Y188197D01*
X347393Y188237D01*
X347394Y188252D01*
X347397Y188292D01*
X347400Y188331D01*
X347403Y188371D01*
X347406Y188411D01*
X347408Y188451D01*
X347409Y188451D01*
X347408Y188451D01*
X347410Y188466D01*
X347412Y188505D01*
X347415Y188545D01*
X347418Y188585D01*
X347421Y188624D01*
X347421Y188625D01*
X347424Y188664D01*
X347425Y188679D01*
X347428Y188719D01*
X347431Y188759D01*
X347433Y188798D01*
X347436Y188838D01*
X347439Y188878D01*
X347440Y188893D01*
X347443Y188933D01*
X347446Y188972D01*
X347449Y189012D01*
X347451Y189052D01*
X347452Y189052D01*
X347451Y189052D01*
X347454Y189092D01*
X347455Y189106D01*
X347455Y189107D01*
X347458Y189146D01*
X347461Y189186D01*
X347464Y189226D01*
X347467Y189265D01*
X347467Y189266D01*
X347470Y189305D01*
X347471Y189320D01*
X347474Y189360D01*
X347476Y189400D01*
X347479Y189439D01*
X347482Y189479D01*
X347485Y189519D01*
X347486Y189534D01*
X347489Y189574D01*
X347492Y189613D01*
X347494Y189653D01*
X347495Y189653D01*
X347494Y189653D01*
X347497Y189693D01*
X347500Y189733D01*
X347501Y189747D01*
X347504Y189787D01*
X347505Y189800D01*
X347505Y265200D01*
X347251Y268758D01*
X347250Y268759D01*
X346492Y272244D01*
X346492Y272245D01*
X345245Y275587D01*
X345245Y275588D01*
X343536Y278718D01*
X343535Y278719D01*
X341398Y281575D01*
X341397Y281575D01*
X338875Y284097D01*
X338875Y284098D01*
X336019Y286235D01*
X336018Y286236D01*
X332888Y287945D01*
X332887Y287945D01*
X329545Y289192D01*
X329544Y289192D01*
X326059Y289950D01*
X326058Y289950D01*
X326058Y289951D01*
X326025Y289953D01*
X325956Y289958D01*
X325886Y289963D01*
X325817Y289968D01*
X325747Y289973D01*
X325678Y289978D01*
X325608Y289983D01*
X325539Y289988D01*
X325469Y289993D01*
X325400Y289998D01*
X325330Y290003D01*
X325261Y290008D01*
X325191Y290013D01*
X325122Y290017D01*
X325053Y290022D01*
X325052Y290022D01*
X324983Y290027D01*
X324914Y290032D01*
X324913Y290032D01*
X324844Y290037D01*
X324775Y290042D01*
X324705Y290047D01*
X324636Y290052D01*
X324566Y290057D01*
X324497Y290062D01*
X324427Y290067D01*
X324358Y290072D01*
X324288Y290077D01*
X324219Y290082D01*
X324149Y290087D01*
X324080Y290092D01*
X324010Y290097D01*
X323941Y290102D01*
X323872Y290107D01*
X323871Y290107D01*
X323802Y290112D01*
X323733Y290117D01*
X323732Y290117D01*
X323663Y290122D01*
X323594Y290127D01*
X323524Y290132D01*
X323455Y290137D01*
X323385Y290142D01*
X323316Y290147D01*
X323246Y290152D01*
X323177Y290157D01*
X323107Y290162D01*
X323038Y290167D01*
X322968Y290172D01*
X322899Y290176D01*
X322829Y290181D01*
X322760Y290186D01*
X322690Y290191D01*
X322621Y290196D01*
X322552Y290201D01*
X322551Y290201D01*
X322500Y290205D01*
X322449Y290201D01*
X322448Y290201D01*
X322379Y290196D01*
X322310Y290191D01*
X322240Y290186D01*
X322171Y290181D01*
X322101Y290176D01*
X322032Y290172D01*
X321962Y290167D01*
X321893Y290162D01*
X321823Y290157D01*
X321754Y290152D01*
X321684Y290147D01*
X321615Y290142D01*
X321545Y290137D01*
X321476Y290132D01*
X321406Y290127D01*
X321337Y290122D01*
X321268Y290117D01*
X321267Y290117D01*
X321198Y290112D01*
X321129Y290107D01*
X321128Y290107D01*
X321059Y290102D01*
X320990Y290097D01*
X320920Y290092D01*
X320851Y290087D01*
X320781Y290082D01*
X320712Y290077D01*
X320642Y290072D01*
X320573Y290067D01*
X320503Y290062D01*
X320434Y290057D01*
X320364Y290052D01*
X320295Y290047D01*
X320225Y290042D01*
X320156Y290037D01*
X320087Y290032D01*
X320086Y290032D01*
X320017Y290027D01*
X319948Y290022D01*
X319947Y290022D01*
X319878Y290017D01*
X319809Y290013D01*
X319739Y290008D01*
X319670Y290003D01*
X319600Y289998D01*
X319531Y289993D01*
X319461Y289988D01*
X319392Y289983D01*
X319322Y289978D01*
X319253Y289973D01*
X319183Y289968D01*
X319114Y289963D01*
X319044Y289958D01*
X318975Y289953D01*
X318942Y289951D01*
X318941Y289950D01*
X315456Y289192D01*
X315455Y289192D01*
X312113Y287945D01*
X312112Y287945D01*
X308982Y286236D01*
X308981Y286235D01*
X306125Y284098D01*
X306125Y284097D01*
X303603Y281575D01*
X303602Y281575D01*
X301465Y278719D01*
X301464Y278718D01*
X299755Y275588D01*
X299755Y275587D01*
X298508Y272245D01*
X298508Y272244D01*
X297750Y268759D01*
X297750Y268758D01*
X297748Y268742D01*
X297746Y268702D01*
X297745Y268702D01*
X297746Y268702D01*
X297744Y268687D01*
X297743Y268662D01*
X297742Y268647D01*
X297739Y268608D01*
X297736Y268568D01*
X297733Y268528D01*
X297730Y268489D01*
X297730Y268488D01*
X297727Y268449D01*
X297726Y268434D01*
X297723Y268394D01*
X297721Y268354D01*
X297718Y268315D01*
X297715Y268275D01*
X297712Y268235D01*
X297711Y268220D01*
X297708Y268180D01*
X297705Y268141D01*
X297703Y268101D01*
X297702Y268101D01*
X297703Y268101D01*
X297700Y268061D01*
X297697Y268021D01*
X297696Y268007D01*
X297696Y268006D01*
X297693Y267967D01*
X297690Y267927D01*
X297687Y267887D01*
X297684Y267848D01*
X297684Y267847D01*
X297682Y267808D01*
X297680Y267793D01*
X297678Y267753D01*
X297675Y267713D01*
X297672Y267674D01*
X297669Y267634D01*
X297666Y267594D01*
X297665Y267579D01*
X297662Y267539D01*
X297660Y267500D01*
X297659Y267500D01*
X297660Y267500D01*
X297657Y267460D01*
X297654Y267420D01*
X297651Y267380D01*
X297650Y267366D01*
X297647Y267326D01*
X297644Y267286D01*
X297641Y267246D01*
X297639Y267207D01*
X297636Y267167D01*
X297635Y267152D01*
X297632Y267112D01*
X297629Y267072D01*
X297626Y267033D01*
X297623Y266993D01*
X297620Y266953D01*
X297619Y266938D01*
X297617Y266899D01*
X297616Y266898D01*
X297617Y266898D01*
X297614Y266859D01*
X297611Y266819D01*
X297608Y266779D01*
X297605Y266740D01*
X297605Y266739D01*
X297604Y266725D01*
X297601Y266685D01*
X297598Y266645D01*
X297596Y266605D01*
X297593Y266566D01*
X297590Y266526D01*
X297589Y266511D01*
X297586Y266471D01*
X297583Y266431D01*
X297580Y266392D01*
X297577Y266352D01*
X297575Y266312D01*
X297574Y266297D01*
X297573Y266297D01*
X297571Y266258D01*
X297571Y266257D01*
X297568Y266218D01*
X297565Y266178D01*
X297562Y266138D01*
X297559Y266099D01*
X297559Y266098D01*
X297558Y266084D01*
X297555Y266044D01*
X297553Y266004D01*
X297550Y265964D01*
X297547Y265925D01*
X297544Y265885D01*
X297543Y265870D01*
X297540Y265830D01*
X297537Y265790D01*
X297534Y265751D01*
X297532Y265711D01*
X297529Y265671D01*
X297528Y265656D01*
X297525Y265617D01*
X297522Y265577D01*
X297519Y265537D01*
X297516Y265497D01*
X297513Y265458D01*
X297512Y265443D01*
X297510Y265403D01*
X297507Y265363D01*
X297504Y265323D01*
X297501Y265284D01*
X297498Y265244D01*
X297497Y265229D01*
X297495Y265200D01*
X297495Y189800D01*
X297750Y186242D01*
X297750Y186241D01*
X298508Y182756D01*
X298508Y182755D01*
X299755Y179413D01*
X299755Y179412D01*
X301464Y176282D01*
X301465Y176281D01*
X303602Y173425D01*
X303603Y173425D01*
X306125Y170903D01*
X306125Y170902D01*
X308981Y168765D01*
X308982Y168765D01*
X308982Y168764D01*
X312112Y167055D01*
X312113Y167055D01*
X315455Y165808D01*
X315456Y165808D01*
X318941Y165050D01*
X318942Y165050D01*
X322500Y164795D01*
X326058Y165050D01*
G37*
G36*
X266058Y165050D02*
X266058Y165050D01*
X266059Y165050D01*
X269544Y165808D01*
X269545Y165808D01*
X272887Y167055D01*
X272888Y167055D01*
X276018Y168764D01*
X276019Y168765D01*
X278875Y170902D01*
X278875Y170903D01*
X281397Y173425D01*
X281398Y173425D01*
X283535Y176281D01*
X283535Y176282D01*
X283536Y176282D01*
X285245Y179412D01*
X285245Y179413D01*
X286492Y182755D01*
X286492Y182756D01*
X287250Y186241D01*
X287250Y186242D01*
X287251Y186242D01*
X287253Y186274D01*
X287254Y186289D01*
X287256Y186314D01*
X287257Y186329D01*
X287260Y186369D01*
X287262Y186408D01*
X287265Y186448D01*
X287268Y186488D01*
X287271Y186528D01*
X287272Y186543D01*
X287275Y186582D01*
X287278Y186622D01*
X287281Y186662D01*
X287283Y186702D01*
X287286Y186741D01*
X287287Y186756D01*
X287290Y186796D01*
X287293Y186836D01*
X287296Y186875D01*
X287296Y186876D01*
X287299Y186915D01*
X287302Y186955D01*
X287303Y186970D01*
X287305Y187010D01*
X287308Y187049D01*
X287311Y187089D01*
X287314Y187129D01*
X287317Y187169D01*
X287318Y187184D01*
X287321Y187223D01*
X287324Y187263D01*
X287326Y187303D01*
X287329Y187343D01*
X287332Y187382D01*
X287333Y187397D01*
X287336Y187437D01*
X287339Y187477D01*
X287342Y187516D01*
X287342Y187517D01*
X287345Y187556D01*
X287347Y187596D01*
X287348Y187611D01*
X287351Y187651D01*
X287354Y187690D01*
X287357Y187730D01*
X287360Y187770D01*
X287363Y187810D01*
X287364Y187825D01*
X287367Y187864D01*
X287369Y187904D01*
X287372Y187944D01*
X287375Y187984D01*
X287378Y188023D01*
X287379Y188038D01*
X287382Y188078D01*
X287385Y188118D01*
X287388Y188157D01*
X287390Y188197D01*
X287393Y188237D01*
X287394Y188252D01*
X287397Y188292D01*
X287400Y188331D01*
X287403Y188371D01*
X287406Y188411D01*
X287408Y188451D01*
X287409Y188451D01*
X287408Y188451D01*
X287410Y188466D01*
X287412Y188505D01*
X287415Y188545D01*
X287418Y188585D01*
X287421Y188624D01*
X287421Y188625D01*
X287424Y188664D01*
X287425Y188679D01*
X287428Y188719D01*
X287431Y188759D01*
X287433Y188798D01*
X287436Y188838D01*
X287439Y188878D01*
X287440Y188893D01*
X287443Y188933D01*
X287446Y188972D01*
X287449Y189012D01*
X287451Y189052D01*
X287452Y189052D01*
X287451Y189052D01*
X287454Y189092D01*
X287455Y189106D01*
X287455Y189107D01*
X287458Y189146D01*
X287461Y189186D01*
X287464Y189226D01*
X287467Y189265D01*
X287467Y189266D01*
X287470Y189305D01*
X287471Y189320D01*
X287474Y189360D01*
X287476Y189400D01*
X287479Y189439D01*
X287482Y189479D01*
X287485Y189519D01*
X287486Y189534D01*
X287489Y189574D01*
X287492Y189613D01*
X287494Y189653D01*
X287495Y189653D01*
X287494Y189653D01*
X287497Y189693D01*
X287500Y189733D01*
X287501Y189747D01*
X287504Y189787D01*
X287505Y189800D01*
X287505Y265200D01*
X287251Y268758D01*
X287250Y268759D01*
X286492Y272244D01*
X286492Y272245D01*
X285245Y275587D01*
X285245Y275588D01*
X283536Y278718D01*
X283535Y278719D01*
X281398Y281575D01*
X281397Y281575D01*
X278875Y284097D01*
X278875Y284098D01*
X276019Y286235D01*
X276018Y286236D01*
X272888Y287945D01*
X272887Y287945D01*
X269545Y289192D01*
X269544Y289192D01*
X266059Y289950D01*
X266058Y289950D01*
X266058Y289951D01*
X266025Y289953D01*
X265956Y289958D01*
X265886Y289963D01*
X265817Y289968D01*
X265747Y289973D01*
X265678Y289978D01*
X265608Y289983D01*
X265539Y289988D01*
X265469Y289993D01*
X265400Y289998D01*
X265330Y290003D01*
X265261Y290008D01*
X265191Y290013D01*
X265122Y290017D01*
X265053Y290022D01*
X265052Y290022D01*
X264983Y290027D01*
X264914Y290032D01*
X264913Y290032D01*
X264844Y290037D01*
X264775Y290042D01*
X264705Y290047D01*
X264636Y290052D01*
X264566Y290057D01*
X264497Y290062D01*
X264427Y290067D01*
X264358Y290072D01*
X264288Y290077D01*
X264219Y290082D01*
X264149Y290087D01*
X264080Y290092D01*
X264010Y290097D01*
X263941Y290102D01*
X263872Y290107D01*
X263871Y290107D01*
X263802Y290112D01*
X263733Y290117D01*
X263732Y290117D01*
X263663Y290122D01*
X263594Y290127D01*
X263524Y290132D01*
X263455Y290137D01*
X263385Y290142D01*
X263316Y290147D01*
X263246Y290152D01*
X263177Y290157D01*
X263107Y290162D01*
X263038Y290167D01*
X262968Y290172D01*
X262899Y290176D01*
X262829Y290181D01*
X262760Y290186D01*
X262690Y290191D01*
X262621Y290196D01*
X262552Y290201D01*
X262551Y290201D01*
X262500Y290205D01*
X262449Y290201D01*
X262448Y290201D01*
X262379Y290196D01*
X262310Y290191D01*
X262240Y290186D01*
X262171Y290181D01*
X262101Y290176D01*
X262032Y290172D01*
X261962Y290167D01*
X261893Y290162D01*
X261823Y290157D01*
X261754Y290152D01*
X261684Y290147D01*
X261615Y290142D01*
X261545Y290137D01*
X261476Y290132D01*
X261406Y290127D01*
X261337Y290122D01*
X261268Y290117D01*
X261267Y290117D01*
X261198Y290112D01*
X261129Y290107D01*
X261128Y290107D01*
X261059Y290102D01*
X260990Y290097D01*
X260920Y290092D01*
X260851Y290087D01*
X260781Y290082D01*
X260712Y290077D01*
X260642Y290072D01*
X260573Y290067D01*
X260503Y290062D01*
X260434Y290057D01*
X260364Y290052D01*
X260295Y290047D01*
X260225Y290042D01*
X260156Y290037D01*
X260087Y290032D01*
X260086Y290032D01*
X260017Y290027D01*
X259948Y290022D01*
X259947Y290022D01*
X259878Y290017D01*
X259809Y290013D01*
X259739Y290008D01*
X259670Y290003D01*
X259600Y289998D01*
X259531Y289993D01*
X259461Y289988D01*
X259392Y289983D01*
X259322Y289978D01*
X259253Y289973D01*
X259183Y289968D01*
X259114Y289963D01*
X259044Y289958D01*
X258975Y289953D01*
X258942Y289951D01*
X258941Y289950D01*
X255456Y289192D01*
X255455Y289192D01*
X252113Y287945D01*
X252112Y287945D01*
X248982Y286236D01*
X248981Y286235D01*
X246125Y284098D01*
X246125Y284097D01*
X243603Y281575D01*
X243602Y281575D01*
X241465Y278719D01*
X241464Y278718D01*
X239755Y275588D01*
X239755Y275587D01*
X238508Y272245D01*
X238508Y272244D01*
X237750Y268759D01*
X237750Y268758D01*
X237748Y268742D01*
X237746Y268702D01*
X237745Y268702D01*
X237746Y268702D01*
X237744Y268687D01*
X237743Y268662D01*
X237742Y268647D01*
X237739Y268608D01*
X237736Y268568D01*
X237733Y268528D01*
X237730Y268489D01*
X237730Y268488D01*
X237727Y268449D01*
X237726Y268434D01*
X237723Y268394D01*
X237721Y268354D01*
X237718Y268315D01*
X237715Y268275D01*
X237712Y268235D01*
X237711Y268220D01*
X237708Y268180D01*
X237705Y268141D01*
X237703Y268101D01*
X237702Y268101D01*
X237703Y268101D01*
X237700Y268061D01*
X237697Y268021D01*
X237696Y268007D01*
X237696Y268006D01*
X237693Y267967D01*
X237690Y267927D01*
X237687Y267887D01*
X237684Y267848D01*
X237684Y267847D01*
X237682Y267808D01*
X237680Y267793D01*
X237678Y267753D01*
X237675Y267713D01*
X237672Y267674D01*
X237669Y267634D01*
X237666Y267594D01*
X237665Y267579D01*
X237662Y267539D01*
X237660Y267500D01*
X237659Y267500D01*
X237660Y267500D01*
X237657Y267460D01*
X237654Y267420D01*
X237651Y267380D01*
X237650Y267366D01*
X237647Y267326D01*
X237644Y267286D01*
X237641Y267246D01*
X237639Y267207D01*
X237636Y267167D01*
X237635Y267152D01*
X237632Y267112D01*
X237629Y267072D01*
X237626Y267033D01*
X237623Y266993D01*
X237620Y266953D01*
X237619Y266938D01*
X237617Y266899D01*
X237616Y266898D01*
X237617Y266898D01*
X237614Y266859D01*
X237611Y266819D01*
X237608Y266779D01*
X237605Y266740D01*
X237605Y266739D01*
X237604Y266725D01*
X237601Y266685D01*
X237598Y266645D01*
X237596Y266605D01*
X237593Y266566D01*
X237590Y266526D01*
X237589Y266511D01*
X237586Y266471D01*
X237583Y266431D01*
X237580Y266392D01*
X237577Y266352D01*
X237575Y266312D01*
X237574Y266297D01*
X237573Y266297D01*
X237571Y266258D01*
X237571Y266257D01*
X237568Y266218D01*
X237565Y266178D01*
X237562Y266138D01*
X237559Y266099D01*
X237559Y266098D01*
X237558Y266084D01*
X237555Y266044D01*
X237553Y266004D01*
X237550Y265964D01*
X237547Y265925D01*
X237544Y265885D01*
X237543Y265870D01*
X237540Y265830D01*
X237537Y265790D01*
X237534Y265751D01*
X237532Y265711D01*
X237529Y265671D01*
X237528Y265656D01*
X237525Y265617D01*
X237522Y265577D01*
X237519Y265537D01*
X237516Y265497D01*
X237513Y265458D01*
X237512Y265443D01*
X237510Y265403D01*
X237507Y265363D01*
X237504Y265323D01*
X237501Y265284D01*
X237498Y265244D01*
X237497Y265229D01*
X237495Y265200D01*
X237495Y189800D01*
X237750Y186242D01*
X237750Y186241D01*
X238508Y182756D01*
X238508Y182755D01*
X239755Y179413D01*
X239755Y179412D01*
X241464Y176282D01*
X241465Y176281D01*
X243602Y173425D01*
X243603Y173425D01*
X246125Y170903D01*
X246125Y170902D01*
X248981Y168765D01*
X248982Y168765D01*
X248982Y168764D01*
X252112Y167055D01*
X252113Y167055D01*
X255455Y165808D01*
X255456Y165808D01*
X258941Y165050D01*
X258942Y165050D01*
X262500Y164795D01*
X266058Y165050D01*
G37*
D10*
X300000Y402500D03*
X307500Y402500D03*
X315000Y402500D03*
X385000Y402500D03*
X392500Y402500D03*
X400000Y402500D03*
X197500Y327500D03*
X182500Y327500D03*
X190000Y327500D03*
D11*
X185000Y855000D03*
X405000Y445000D03*
D10*
X142500Y35000D03*
X142500Y42500D03*
X142500Y50000D03*
X142500Y792500D03*
X142500Y800000D03*
X142500Y807500D03*
D12*
X183000Y63000D03*
X507000Y62000D03*
D13*
X508000Y338000D03*
X178000Y437000D03*
X412000Y863000D03*
D14*
X329400Y797500D03*
X316700Y797500D03*
X304000Y797500D03*
X291300Y797500D03*
X278600Y797500D03*
X265900Y797500D03*
X253200Y797500D03*
X240500Y797500D03*
D15*
X185000Y647700D03*
D14*
X202400Y612500D03*
X215100Y612500D03*
X227800Y612500D03*
X240500Y612500D03*
X253200Y612500D03*
X265900Y612500D03*
X278600Y612500D03*
D15*
X185000Y736600D03*
D14*
X227800Y797500D03*
X215100Y797500D03*
X202400Y797500D03*
D15*
X185000Y762000D03*
X185000Y749300D03*
D14*
X342100Y797500D03*
X354800Y797500D03*
X367500Y797500D03*
D15*
X185000Y723900D03*
X185000Y711200D03*
X185000Y698500D03*
X185000Y660400D03*
X185000Y673100D03*
X185000Y685800D03*
D14*
X291300Y612500D03*
X304000Y612500D03*
X316700Y612500D03*
X329400Y612500D03*
X342100Y612500D03*
X354800Y612500D03*
X367500Y612500D03*
D16*
X294200Y698200D03*
D17*
X331512Y548114D03*
X331512Y525000D03*
X331512Y501886D03*
D18*
X393490Y525000D03*
D19*
X298280Y582500D03*
X326720Y582500D03*
X368280Y582500D03*
X396720Y582500D03*
D20*
X165000Y394220D03*
X165000Y365780D03*
D21*
X275000Y85000D03*
X412500Y85000D03*
D22*
X278738Y426184D03*
X304138Y426184D03*
X329538Y426184D03*
X354938Y426184D03*
X421316Y512100D03*
X421316Y537500D03*
X421316Y562900D03*
X191900Y582500D03*
X217300Y582500D03*
X242700Y582500D03*
X268100Y582500D03*
X303100Y830000D03*
X277700Y830000D03*
X252300Y830000D03*
X226900Y830000D03*
X422900Y826316D03*
X397500Y826316D03*
X372100Y826316D03*
D23*
X162500Y195000D03*
D22*
X382500Y289400D03*
X382500Y314800D03*
X382500Y340200D03*
X382500Y365600D03*
D23*
X200000Y346000D03*
X200000Y365000D03*
X235000Y365000D03*
X235000Y385000D03*
X202500Y195000D03*
X182500Y195000D03*
D22*
X312700Y875000D03*
X287300Y875000D03*
X342300Y875000D03*
X367700Y875000D03*
X257700Y875000D03*
X232300Y875000D03*
D23*
X200000Y385000D03*
D24*
X509000Y263949D03*
X439000Y263949D03*
X509000Y167500D03*
X439000Y167500D03*
D23*
X182500Y159500D03*
X202500Y159500D03*
X162500Y159500D03*
D25*
X89760Y615000D03*
X105000Y615000D03*
X120240Y615000D03*
X19760Y615000D03*
X35000Y615000D03*
X50240Y615000D03*
D26*
X302500Y227500D03*
X242500Y227500D03*
X20000Y812500D03*
X120000Y812500D03*
D27*
X417000Y684000D03*
X417000Y654000D03*
D20*
X221000Y252220D03*
X221000Y223780D03*
D28*
X283975Y516137D03*
D29*
X221475Y516137D03*
D30*
X254975Y468137D03*
M02*
