G04 EAGLE Gerber RS-274X export*
G75*
%MOMM*%
%FSLAX34Y34*%
%LPD*%
%INBottom Copper*%
%IPPOS*%
%AMOC8*
5,1,8,0,0,1.08239X$1,22.5*%
G01*
%ADD10C,5.334000*%
%ADD11C,1.524000*%
%ADD12R,1.500000X1.500000*%
%ADD13R,1.200000X2.500000*%
%ADD14C,0.756400*%
%ADD15C,0.406400*%

G36*
X534822Y2549D02*
X534822Y2549D01*
X535031Y2561D01*
X538566Y3067D01*
X538598Y3075D01*
X538632Y3078D01*
X538953Y3162D01*
X538957Y3164D01*
X545853Y5592D01*
X545944Y5634D01*
X546038Y5667D01*
X546145Y5729D01*
X546218Y5763D01*
X546262Y5795D01*
X546326Y5832D01*
X552362Y9965D01*
X552439Y10029D01*
X552521Y10086D01*
X552609Y10173D01*
X552670Y10224D01*
X552705Y10267D01*
X552757Y10319D01*
X557518Y15874D01*
X557575Y15955D01*
X557640Y16031D01*
X557703Y16138D01*
X557749Y16204D01*
X557771Y16254D01*
X557808Y16318D01*
X560969Y22915D01*
X561003Y23009D01*
X561046Y23099D01*
X561079Y23219D01*
X561106Y23294D01*
X561114Y23348D01*
X561134Y23419D01*
X562480Y30610D01*
X562480Y30611D01*
X562480Y30613D01*
X562483Y30644D01*
X562491Y30676D01*
X562514Y31007D01*
X562490Y33098D01*
X562489Y33114D01*
X562490Y33129D01*
X562467Y33313D01*
X562459Y33379D01*
X562459Y34824D01*
X562453Y34889D01*
X562453Y34980D01*
X562367Y36096D01*
X562393Y36215D01*
X562432Y36361D01*
X562437Y36419D01*
X562446Y36462D01*
X562447Y36547D01*
X562459Y36691D01*
X562459Y369735D01*
X562454Y369785D01*
X562435Y370050D01*
X561768Y374308D01*
X561750Y374379D01*
X561740Y374452D01*
X561689Y374613D01*
X561667Y374698D01*
X561652Y374728D01*
X561639Y374768D01*
X558298Y382874D01*
X558226Y383009D01*
X558161Y383147D01*
X558129Y383192D01*
X558109Y383229D01*
X558054Y383296D01*
X557967Y383417D01*
X552285Y390094D01*
X552175Y390200D01*
X552070Y390311D01*
X552025Y390344D01*
X551995Y390373D01*
X551922Y390419D01*
X551802Y390507D01*
X544334Y395102D01*
X544197Y395169D01*
X544063Y395242D01*
X544010Y395259D01*
X543972Y395278D01*
X543889Y395299D01*
X543748Y395346D01*
X535226Y397408D01*
X535153Y397418D01*
X535082Y397437D01*
X534913Y397451D01*
X534827Y397463D01*
X534794Y397461D01*
X534752Y397465D01*
X531908Y397470D01*
X531880Y397467D01*
X531851Y397469D01*
X531772Y397459D01*
X530176Y397459D01*
X530111Y397453D01*
X530020Y397453D01*
X528904Y397367D01*
X528785Y397393D01*
X528639Y397432D01*
X528581Y397437D01*
X528538Y397446D01*
X528453Y397447D01*
X528309Y397459D01*
X310000Y397459D01*
X309914Y397451D01*
X309735Y397442D01*
X309624Y397427D01*
X309594Y397420D01*
X309563Y397418D01*
X309398Y397374D01*
X309232Y397335D01*
X309204Y397322D01*
X309174Y397314D01*
X308874Y397173D01*
X308682Y397062D01*
X308549Y396966D01*
X308412Y396876D01*
X308385Y396849D01*
X308355Y396827D01*
X308243Y396707D01*
X308127Y396591D01*
X308103Y396556D01*
X308080Y396532D01*
X308035Y396458D01*
X307938Y396318D01*
X307827Y396126D01*
X307815Y396098D01*
X307797Y396072D01*
X307732Y395914D01*
X307662Y395759D01*
X307655Y395729D01*
X307643Y395700D01*
X307573Y395376D01*
X307558Y395265D01*
X307555Y395179D01*
X307541Y395000D01*
X307541Y351655D01*
X307554Y351520D01*
X307559Y351383D01*
X307574Y351320D01*
X307581Y351255D01*
X307621Y351124D01*
X307644Y351025D01*
X307549Y349977D01*
X307550Y349902D01*
X307541Y349793D01*
X307541Y348740D01*
X307523Y348707D01*
X307485Y348576D01*
X307437Y348448D01*
X307424Y348374D01*
X307409Y348321D01*
X307401Y348242D01*
X307380Y348121D01*
X307098Y345014D01*
X303336Y336234D01*
X297045Y329046D01*
X288841Y324154D01*
X279526Y322037D01*
X274976Y322451D01*
X274902Y322450D01*
X274793Y322459D01*
X195000Y322459D01*
X194934Y322453D01*
X194841Y322453D01*
X190863Y322140D01*
X190791Y322127D01*
X190717Y322123D01*
X190552Y322084D01*
X190467Y322069D01*
X190436Y322057D01*
X190395Y322047D01*
X182828Y319588D01*
X182688Y319527D01*
X182545Y319472D01*
X182498Y319444D01*
X182460Y319427D01*
X182389Y319377D01*
X182262Y319300D01*
X175826Y314624D01*
X175712Y314522D01*
X175593Y314426D01*
X175557Y314384D01*
X175525Y314356D01*
X175473Y314287D01*
X175376Y314174D01*
X170700Y307738D01*
X170623Y307606D01*
X170540Y307478D01*
X170518Y307427D01*
X170497Y307390D01*
X170469Y307309D01*
X170412Y307172D01*
X167953Y299605D01*
X167938Y299534D01*
X167913Y299465D01*
X167886Y299297D01*
X167867Y299212D01*
X167867Y299179D01*
X167860Y299137D01*
X167547Y295159D01*
X167548Y295093D01*
X167541Y295000D01*
X167541Y191572D01*
X167543Y191554D01*
X167541Y191536D01*
X167562Y191354D01*
X167581Y191171D01*
X167586Y191154D01*
X167588Y191137D01*
X167645Y190962D01*
X167699Y190786D01*
X167707Y190771D01*
X167713Y190754D01*
X167803Y190594D01*
X167891Y190432D01*
X167902Y190419D01*
X167911Y190403D01*
X168031Y190264D01*
X168148Y190123D01*
X168162Y190112D01*
X168174Y190098D01*
X168319Y189986D01*
X168462Y189871D01*
X168478Y189863D01*
X168492Y189852D01*
X168657Y189770D01*
X168819Y189685D01*
X168836Y189680D01*
X168852Y189672D01*
X169031Y189625D01*
X169206Y189574D01*
X169224Y189572D01*
X169241Y189568D01*
X169572Y189541D01*
X170918Y189541D01*
X170936Y189543D01*
X170954Y189541D01*
X171136Y189562D01*
X171319Y189581D01*
X171336Y189586D01*
X171353Y189588D01*
X171528Y189645D01*
X171704Y189699D01*
X171719Y189707D01*
X171736Y189713D01*
X171896Y189803D01*
X172058Y189891D01*
X172071Y189902D01*
X172087Y189911D01*
X172226Y190031D01*
X172367Y190148D01*
X172378Y190162D01*
X172392Y190174D01*
X172504Y190319D01*
X172619Y190462D01*
X172627Y190478D01*
X172638Y190492D01*
X172720Y190657D01*
X172805Y190819D01*
X172810Y190836D01*
X172818Y190852D01*
X172865Y191031D01*
X172916Y191206D01*
X172918Y191224D01*
X172922Y191241D01*
X172949Y191572D01*
X172949Y203349D01*
X174151Y204551D01*
X176386Y204551D01*
X176404Y204553D01*
X176422Y204551D01*
X176604Y204572D01*
X176787Y204591D01*
X176804Y204596D01*
X176821Y204598D01*
X176996Y204655D01*
X177172Y204709D01*
X177187Y204717D01*
X177204Y204723D01*
X177364Y204813D01*
X177526Y204901D01*
X177539Y204912D01*
X177555Y204921D01*
X177694Y205041D01*
X177835Y205158D01*
X177846Y205172D01*
X177860Y205184D01*
X177972Y205329D01*
X178087Y205472D01*
X178095Y205488D01*
X178106Y205502D01*
X178188Y205667D01*
X178273Y205829D01*
X178278Y205846D01*
X178286Y205862D01*
X178333Y206041D01*
X178384Y206216D01*
X178386Y206234D01*
X178390Y206251D01*
X178417Y206582D01*
X178417Y227312D01*
X179039Y228813D01*
X180473Y230247D01*
X191072Y240846D01*
X191089Y240867D01*
X191110Y240884D01*
X191217Y241022D01*
X191327Y241158D01*
X191340Y241181D01*
X191356Y241202D01*
X191434Y241359D01*
X191516Y241513D01*
X191524Y241539D01*
X191536Y241563D01*
X191581Y241732D01*
X191631Y241899D01*
X191633Y241926D01*
X191640Y241952D01*
X191667Y242283D01*
X191667Y242660D01*
X192555Y244804D01*
X194196Y246445D01*
X196340Y247333D01*
X198166Y247333D01*
X198179Y247334D01*
X198193Y247333D01*
X198379Y247354D01*
X198566Y247373D01*
X198580Y247377D01*
X198593Y247378D01*
X198771Y247435D01*
X198951Y247491D01*
X198963Y247497D01*
X198976Y247502D01*
X199140Y247593D01*
X199305Y247683D01*
X199316Y247691D01*
X199328Y247698D01*
X199471Y247820D01*
X199615Y247940D01*
X199623Y247951D01*
X199634Y247960D01*
X199749Y248108D01*
X199867Y248254D01*
X199873Y248266D01*
X199882Y248277D01*
X199966Y248446D01*
X200052Y248611D01*
X200056Y248624D01*
X200062Y248637D01*
X200112Y248819D01*
X200164Y248998D01*
X200165Y249012D01*
X200169Y249025D01*
X200181Y249213D01*
X200197Y249400D01*
X200195Y249413D01*
X200196Y249427D01*
X200172Y249613D01*
X200167Y249650D01*
X200167Y252160D01*
X201055Y254304D01*
X201322Y254571D01*
X201339Y254592D01*
X201360Y254609D01*
X201467Y254747D01*
X201577Y254883D01*
X201590Y254906D01*
X201606Y254927D01*
X201684Y255084D01*
X201766Y255238D01*
X201774Y255264D01*
X201786Y255288D01*
X201831Y255457D01*
X201881Y255624D01*
X201883Y255651D01*
X201890Y255677D01*
X201917Y256007D01*
X201917Y262812D01*
X202539Y264313D01*
X203973Y265747D01*
X251150Y312924D01*
X252585Y314358D01*
X254085Y314980D01*
X301732Y314980D01*
X301759Y314983D01*
X301786Y314981D01*
X301960Y315003D01*
X302133Y315020D01*
X302158Y315028D01*
X302185Y315031D01*
X302351Y315087D01*
X302518Y315138D01*
X302541Y315151D01*
X302567Y315159D01*
X302718Y315247D01*
X302872Y315330D01*
X302892Y315347D01*
X302916Y315360D01*
X303169Y315575D01*
X355221Y367627D01*
X356655Y369061D01*
X358155Y369683D01*
X392366Y369683D01*
X392389Y369685D01*
X392411Y369683D01*
X392589Y369705D01*
X392767Y369723D01*
X392788Y369729D01*
X392811Y369732D01*
X392981Y369788D01*
X393152Y369841D01*
X393172Y369851D01*
X393193Y369858D01*
X393349Y369947D01*
X393506Y370033D01*
X393523Y370047D01*
X393543Y370058D01*
X393678Y370176D01*
X393815Y370290D01*
X393829Y370308D01*
X393846Y370322D01*
X393955Y370464D01*
X394068Y370604D01*
X394078Y370624D01*
X394091Y370642D01*
X394243Y370937D01*
X394302Y371078D01*
X397022Y373798D01*
X400576Y375271D01*
X404424Y375271D01*
X407978Y373798D01*
X410698Y371078D01*
X410757Y370937D01*
X410767Y370917D01*
X410774Y370896D01*
X410863Y370740D01*
X410947Y370582D01*
X410961Y370565D01*
X410972Y370545D01*
X411089Y370410D01*
X411204Y370271D01*
X411221Y370257D01*
X411235Y370240D01*
X411377Y370131D01*
X411516Y370018D01*
X411536Y370007D01*
X411554Y369994D01*
X411714Y369914D01*
X411873Y369831D01*
X411894Y369824D01*
X411914Y369814D01*
X412087Y369768D01*
X412259Y369718D01*
X412281Y369716D01*
X412303Y369710D01*
X412634Y369683D01*
X437712Y369683D01*
X439213Y369061D01*
X486461Y321813D01*
X487083Y320312D01*
X487083Y313031D01*
X487085Y313013D01*
X487083Y312995D01*
X487104Y312813D01*
X487123Y312630D01*
X487128Y312613D01*
X487130Y312595D01*
X487187Y312421D01*
X487241Y312245D01*
X487249Y312229D01*
X487255Y312212D01*
X487345Y312052D01*
X487433Y311891D01*
X487444Y311877D01*
X487453Y311862D01*
X487573Y311723D01*
X487690Y311582D01*
X487704Y311571D01*
X487716Y311557D01*
X487861Y311445D01*
X488004Y311329D01*
X488020Y311321D01*
X488034Y311310D01*
X488199Y311228D01*
X488361Y311144D01*
X488378Y311139D01*
X488394Y311131D01*
X488573Y311083D01*
X488748Y311033D01*
X488766Y311031D01*
X488783Y311026D01*
X489114Y310999D01*
X489849Y310999D01*
X491051Y309798D01*
X491051Y283099D01*
X489849Y281898D01*
X489114Y281898D01*
X489096Y281896D01*
X489078Y281898D01*
X488896Y281876D01*
X488713Y281858D01*
X488696Y281853D01*
X488679Y281851D01*
X488504Y281794D01*
X488328Y281740D01*
X488313Y281731D01*
X488296Y281726D01*
X488136Y281635D01*
X487974Y281548D01*
X487961Y281537D01*
X487945Y281528D01*
X487806Y281408D01*
X487665Y281290D01*
X487654Y281276D01*
X487640Y281265D01*
X487528Y281120D01*
X487413Y280977D01*
X487405Y280961D01*
X487394Y280947D01*
X487312Y280782D01*
X487227Y280619D01*
X487222Y280602D01*
X487214Y280586D01*
X487166Y280408D01*
X487116Y280232D01*
X487114Y280215D01*
X487110Y280197D01*
X487083Y279867D01*
X487083Y216582D01*
X487085Y216564D01*
X487083Y216546D01*
X487104Y216364D01*
X487123Y216181D01*
X487128Y216164D01*
X487130Y216147D01*
X487187Y215972D01*
X487241Y215796D01*
X487249Y215781D01*
X487255Y215764D01*
X487345Y215604D01*
X487433Y215442D01*
X487444Y215429D01*
X487453Y215413D01*
X487573Y215274D01*
X487690Y215133D01*
X487704Y215122D01*
X487716Y215108D01*
X487861Y214996D01*
X488004Y214881D01*
X488020Y214873D01*
X488034Y214862D01*
X488199Y214780D01*
X488361Y214695D01*
X488378Y214690D01*
X488394Y214682D01*
X488573Y214635D01*
X488748Y214584D01*
X488766Y214582D01*
X488783Y214578D01*
X489114Y214551D01*
X489849Y214551D01*
X491051Y213349D01*
X491051Y188728D01*
X491052Y188720D01*
X491051Y188711D01*
X491072Y188517D01*
X491091Y188328D01*
X491093Y188319D01*
X491094Y188310D01*
X491153Y188125D01*
X491209Y187943D01*
X491213Y187935D01*
X491216Y187927D01*
X491309Y187758D01*
X491401Y187589D01*
X491406Y187582D01*
X491411Y187574D01*
X491535Y187427D01*
X491658Y187280D01*
X491665Y187274D01*
X491671Y187267D01*
X491823Y187147D01*
X491972Y187027D01*
X491980Y187023D01*
X491987Y187018D01*
X492160Y186930D01*
X492329Y186842D01*
X492338Y186839D01*
X492346Y186835D01*
X492532Y186783D01*
X492716Y186730D01*
X492725Y186730D01*
X492734Y186727D01*
X492927Y186713D01*
X493118Y186698D01*
X493126Y186699D01*
X493135Y186698D01*
X493328Y186722D01*
X493517Y186744D01*
X493526Y186747D01*
X493535Y186748D01*
X493717Y186810D01*
X493900Y186869D01*
X493908Y186874D01*
X493916Y186877D01*
X494083Y186973D01*
X494251Y187067D01*
X494258Y187073D01*
X494265Y187077D01*
X494518Y187292D01*
X504354Y197128D01*
X504371Y197149D01*
X504392Y197166D01*
X504499Y197304D01*
X504609Y197440D01*
X504622Y197463D01*
X504638Y197484D01*
X504716Y197641D01*
X504798Y197795D01*
X504806Y197821D01*
X504818Y197845D01*
X504863Y198014D01*
X504913Y198181D01*
X504915Y198208D01*
X504922Y198234D01*
X504949Y198564D01*
X504949Y213349D01*
X506151Y214551D01*
X519849Y214551D01*
X521051Y213349D01*
X521051Y186651D01*
X519849Y185449D01*
X505866Y185449D01*
X505745Y185483D01*
X505570Y185535D01*
X505552Y185537D01*
X505535Y185542D01*
X505352Y185555D01*
X505169Y185572D01*
X505151Y185570D01*
X505134Y185571D01*
X504951Y185548D01*
X504769Y185528D01*
X504752Y185523D01*
X504734Y185521D01*
X504560Y185462D01*
X504385Y185407D01*
X504369Y185398D01*
X504352Y185392D01*
X504193Y185300D01*
X504033Y185212D01*
X504019Y185200D01*
X504004Y185191D01*
X503751Y184977D01*
X482178Y163404D01*
X482161Y163383D01*
X482140Y163366D01*
X482033Y163228D01*
X481923Y163092D01*
X481910Y163069D01*
X481894Y163048D01*
X481816Y162891D01*
X481734Y162737D01*
X481726Y162711D01*
X481714Y162687D01*
X481669Y162518D01*
X481619Y162351D01*
X481617Y162324D01*
X481610Y162298D01*
X481583Y161967D01*
X481583Y98857D01*
X481584Y98848D01*
X481583Y98839D01*
X481604Y98648D01*
X481623Y98456D01*
X481625Y98448D01*
X481626Y98439D01*
X481685Y98255D01*
X481741Y98071D01*
X481745Y98064D01*
X481748Y98055D01*
X481841Y97886D01*
X481933Y97717D01*
X481938Y97711D01*
X481943Y97703D01*
X482068Y97555D01*
X482190Y97408D01*
X482197Y97403D01*
X482203Y97396D01*
X482355Y97276D01*
X482504Y97156D01*
X482512Y97152D01*
X482519Y97146D01*
X482692Y97058D01*
X482861Y96970D01*
X482870Y96968D01*
X482878Y96964D01*
X483064Y96912D01*
X483248Y96859D01*
X483257Y96858D01*
X483266Y96856D01*
X483458Y96842D01*
X483650Y96826D01*
X483658Y96827D01*
X483667Y96826D01*
X483859Y96851D01*
X484049Y96873D01*
X484058Y96876D01*
X484067Y96877D01*
X484248Y96938D01*
X484432Y96998D01*
X484440Y97002D01*
X484448Y97005D01*
X484614Y97101D01*
X484783Y97196D01*
X484790Y97202D01*
X484797Y97206D01*
X485050Y97421D01*
X485473Y97843D01*
X547947Y160317D01*
X547964Y160338D01*
X547984Y160356D01*
X548091Y160493D01*
X548202Y160629D01*
X548215Y160653D01*
X548231Y160674D01*
X548309Y160831D01*
X548391Y160985D01*
X548398Y161010D01*
X548410Y161034D01*
X548456Y161204D01*
X548505Y161370D01*
X548508Y161397D01*
X548515Y161423D01*
X548542Y161754D01*
X548542Y210373D01*
X548539Y210399D01*
X548541Y210426D01*
X548519Y210600D01*
X548502Y210773D01*
X548494Y210799D01*
X548491Y210825D01*
X548435Y210991D01*
X548384Y211158D01*
X548371Y211182D01*
X548363Y211207D01*
X548275Y211359D01*
X548192Y211512D01*
X548175Y211533D01*
X548162Y211556D01*
X547947Y211809D01*
X506712Y253044D01*
X505278Y254478D01*
X504656Y255978D01*
X504656Y288265D01*
X504795Y288598D01*
X504804Y288628D01*
X504818Y288656D01*
X504862Y288821D01*
X504911Y288984D01*
X504914Y289015D01*
X504922Y289045D01*
X504949Y289376D01*
X504949Y309798D01*
X506151Y310999D01*
X519849Y310999D01*
X521051Y309798D01*
X521051Y283099D01*
X519849Y281898D01*
X514853Y281898D01*
X514835Y281896D01*
X514818Y281898D01*
X514635Y281876D01*
X514452Y281858D01*
X514435Y281853D01*
X514418Y281851D01*
X514243Y281794D01*
X514068Y281740D01*
X514052Y281731D01*
X514035Y281726D01*
X513875Y281635D01*
X513714Y281548D01*
X513700Y281537D01*
X513684Y281528D01*
X513545Y281408D01*
X513404Y281290D01*
X513393Y281276D01*
X513380Y281265D01*
X513267Y281120D01*
X513152Y280977D01*
X513144Y280961D01*
X513133Y280947D01*
X513051Y280782D01*
X512966Y280619D01*
X512962Y280602D01*
X512954Y280586D01*
X512906Y280408D01*
X512855Y280232D01*
X512854Y280215D01*
X512849Y280197D01*
X512822Y279867D01*
X512822Y259323D01*
X512825Y259296D01*
X512823Y259270D01*
X512844Y259096D01*
X512862Y258922D01*
X512870Y258897D01*
X512873Y258870D01*
X512929Y258705D01*
X512980Y258538D01*
X512993Y258514D01*
X513001Y258489D01*
X513089Y258337D01*
X513172Y258183D01*
X513189Y258163D01*
X513202Y258140D01*
X513417Y257887D01*
X556086Y215218D01*
X556707Y213717D01*
X556707Y158409D01*
X556086Y156909D01*
X554652Y155474D01*
X492178Y93000D01*
X492161Y92980D01*
X492140Y92962D01*
X492033Y92824D01*
X491923Y92689D01*
X491910Y92665D01*
X491894Y92644D01*
X491816Y92487D01*
X491734Y92333D01*
X491726Y92308D01*
X491714Y92284D01*
X491669Y92114D01*
X491619Y91947D01*
X491617Y91921D01*
X491610Y91895D01*
X491583Y91564D01*
X491583Y59188D01*
X490961Y57687D01*
X462313Y29039D01*
X461710Y28789D01*
X461709Y28789D01*
X460812Y28417D01*
X259188Y28417D01*
X257687Y29039D01*
X237590Y49136D01*
X236969Y50636D01*
X236969Y83916D01*
X236966Y83943D01*
X236968Y83969D01*
X236946Y84143D01*
X236929Y84317D01*
X236921Y84342D01*
X236918Y84369D01*
X236862Y84534D01*
X236811Y84702D01*
X236798Y84725D01*
X236789Y84751D01*
X236702Y84902D01*
X236619Y85056D01*
X236602Y85076D01*
X236588Y85099D01*
X236374Y85352D01*
X226404Y95322D01*
X226383Y95339D01*
X226366Y95360D01*
X226228Y95467D01*
X226092Y95577D01*
X226069Y95590D01*
X226048Y95606D01*
X225891Y95684D01*
X225737Y95766D01*
X225711Y95774D01*
X225687Y95786D01*
X225518Y95831D01*
X225351Y95881D01*
X225324Y95883D01*
X225298Y95890D01*
X224967Y95917D01*
X214188Y95917D01*
X212687Y96539D01*
X203154Y106072D01*
X203133Y106089D01*
X203116Y106110D01*
X202978Y106216D01*
X202842Y106327D01*
X202819Y106340D01*
X202798Y106356D01*
X202641Y106434D01*
X202487Y106516D01*
X202461Y106524D01*
X202437Y106536D01*
X202268Y106581D01*
X202101Y106631D01*
X202074Y106633D01*
X202048Y106640D01*
X201717Y106667D01*
X201340Y106667D01*
X199196Y107555D01*
X197555Y109196D01*
X196667Y111340D01*
X196667Y113660D01*
X196929Y114292D01*
X196933Y114305D01*
X196939Y114317D01*
X196991Y114497D01*
X197046Y114678D01*
X197047Y114691D01*
X197051Y114704D01*
X197066Y114893D01*
X197084Y115079D01*
X197082Y115092D01*
X197083Y115105D01*
X197062Y115292D01*
X197042Y115479D01*
X197038Y115492D01*
X197037Y115505D01*
X196979Y115683D01*
X196922Y115863D01*
X196916Y115875D01*
X196912Y115888D01*
X196819Y116052D01*
X196729Y116217D01*
X196720Y116227D01*
X196714Y116239D01*
X196591Y116381D01*
X196470Y116525D01*
X196459Y116533D01*
X196451Y116543D01*
X196303Y116658D01*
X196155Y116776D01*
X196143Y116782D01*
X196133Y116790D01*
X195964Y116874D01*
X195797Y116960D01*
X195784Y116963D01*
X195772Y116969D01*
X195590Y117018D01*
X195410Y117069D01*
X195396Y117070D01*
X195383Y117074D01*
X195053Y117101D01*
X193004Y117101D01*
X191504Y117723D01*
X190473Y118753D01*
X190050Y119176D01*
X190043Y119182D01*
X190038Y119188D01*
X189888Y119308D01*
X189739Y119431D01*
X189731Y119435D01*
X189724Y119441D01*
X189555Y119528D01*
X189383Y119620D01*
X189374Y119622D01*
X189367Y119626D01*
X189183Y119679D01*
X188997Y119734D01*
X188988Y119735D01*
X188980Y119738D01*
X188788Y119753D01*
X188596Y119771D01*
X188587Y119770D01*
X188578Y119770D01*
X188388Y119748D01*
X188196Y119727D01*
X188187Y119725D01*
X188179Y119724D01*
X187995Y119664D01*
X187812Y119606D01*
X187804Y119602D01*
X187796Y119599D01*
X187627Y119504D01*
X187460Y119411D01*
X187453Y119405D01*
X187445Y119401D01*
X187300Y119275D01*
X187153Y119151D01*
X187147Y119143D01*
X187140Y119138D01*
X187023Y118987D01*
X186903Y118835D01*
X186899Y118827D01*
X186894Y118820D01*
X186808Y118647D01*
X186721Y118476D01*
X186718Y118467D01*
X186714Y118459D01*
X186664Y118272D01*
X186613Y118088D01*
X186612Y118079D01*
X186610Y118070D01*
X186583Y117740D01*
X186583Y117507D01*
X186585Y117481D01*
X186583Y117454D01*
X186605Y117280D01*
X186623Y117107D01*
X186630Y117081D01*
X186634Y117055D01*
X186689Y116889D01*
X186741Y116722D01*
X186754Y116698D01*
X186762Y116673D01*
X186849Y116521D01*
X186933Y116368D01*
X186950Y116347D01*
X186963Y116324D01*
X187178Y116071D01*
X187445Y115804D01*
X188333Y113660D01*
X188333Y111340D01*
X187445Y109196D01*
X185804Y107555D01*
X183660Y106667D01*
X181340Y106667D01*
X179196Y107555D01*
X177555Y109196D01*
X176667Y111340D01*
X176667Y113660D01*
X177555Y115804D01*
X177822Y116071D01*
X177839Y116092D01*
X177860Y116109D01*
X177967Y116247D01*
X178077Y116383D01*
X178090Y116406D01*
X178106Y116427D01*
X178184Y116584D01*
X178266Y116738D01*
X178274Y116764D01*
X178286Y116788D01*
X178331Y116957D01*
X178381Y117124D01*
X178383Y117151D01*
X178390Y117177D01*
X178417Y117507D01*
X178417Y147918D01*
X178415Y147936D01*
X178417Y147954D01*
X178396Y148136D01*
X178377Y148319D01*
X178372Y148336D01*
X178370Y148353D01*
X178313Y148528D01*
X178259Y148704D01*
X178251Y148719D01*
X178245Y148736D01*
X178155Y148896D01*
X178067Y149058D01*
X178056Y149071D01*
X178047Y149087D01*
X177927Y149226D01*
X177810Y149367D01*
X177796Y149378D01*
X177784Y149392D01*
X177639Y149504D01*
X177496Y149619D01*
X177480Y149627D01*
X177466Y149638D01*
X177301Y149720D01*
X177139Y149805D01*
X177122Y149810D01*
X177106Y149818D01*
X176927Y149865D01*
X176752Y149916D01*
X176734Y149918D01*
X176717Y149922D01*
X176386Y149949D01*
X174151Y149949D01*
X172949Y151151D01*
X172949Y162428D01*
X172947Y162446D01*
X172949Y162464D01*
X172928Y162646D01*
X172909Y162829D01*
X172904Y162846D01*
X172902Y162863D01*
X172845Y163038D01*
X172791Y163214D01*
X172783Y163229D01*
X172777Y163246D01*
X172687Y163406D01*
X172599Y163568D01*
X172588Y163581D01*
X172579Y163597D01*
X172459Y163736D01*
X172342Y163877D01*
X172328Y163888D01*
X172316Y163902D01*
X172171Y164014D01*
X172028Y164129D01*
X172012Y164137D01*
X171998Y164148D01*
X171833Y164230D01*
X171671Y164315D01*
X171654Y164320D01*
X171638Y164328D01*
X171459Y164375D01*
X171284Y164426D01*
X171266Y164428D01*
X171249Y164432D01*
X170918Y164459D01*
X169572Y164459D01*
X169554Y164457D01*
X169536Y164459D01*
X169354Y164438D01*
X169171Y164419D01*
X169154Y164414D01*
X169137Y164412D01*
X168962Y164355D01*
X168786Y164301D01*
X168771Y164293D01*
X168754Y164287D01*
X168594Y164197D01*
X168432Y164109D01*
X168419Y164098D01*
X168403Y164089D01*
X168264Y163969D01*
X168123Y163852D01*
X168112Y163838D01*
X168098Y163826D01*
X167986Y163681D01*
X167871Y163538D01*
X167863Y163522D01*
X167852Y163508D01*
X167770Y163343D01*
X167685Y163181D01*
X167680Y163164D01*
X167672Y163148D01*
X167624Y162969D01*
X167574Y162794D01*
X167572Y162776D01*
X167568Y162759D01*
X167541Y162428D01*
X167541Y31655D01*
X167554Y31520D01*
X167559Y31384D01*
X167574Y31320D01*
X167581Y31255D01*
X167621Y31124D01*
X167644Y31024D01*
X167549Y29977D01*
X167550Y29902D01*
X167541Y29793D01*
X167541Y28455D01*
X167540Y28453D01*
X167539Y28438D01*
X167535Y28424D01*
X167504Y28094D01*
X167478Y25995D01*
X167485Y25922D01*
X167482Y25849D01*
X167506Y25681D01*
X167513Y25594D01*
X167523Y25562D01*
X167529Y25521D01*
X169126Y18491D01*
X169175Y18346D01*
X169216Y18199D01*
X169241Y18149D01*
X169254Y18109D01*
X169297Y18034D01*
X169363Y17901D01*
X173054Y11709D01*
X173145Y11586D01*
X173230Y11459D01*
X173269Y11419D01*
X173294Y11385D01*
X173358Y11328D01*
X173461Y11221D01*
X178886Y6473D01*
X179010Y6384D01*
X179130Y6289D01*
X179179Y6264D01*
X179214Y6239D01*
X179292Y6204D01*
X179424Y6134D01*
X186050Y3295D01*
X186120Y3273D01*
X186186Y3242D01*
X186351Y3200D01*
X186434Y3174D01*
X186467Y3170D01*
X186508Y3160D01*
X189962Y2570D01*
X189968Y2569D01*
X189973Y2568D01*
X190304Y2541D01*
X534743Y2541D01*
X534822Y2549D01*
G37*
G36*
X414165Y46585D02*
X414165Y46585D01*
X414189Y46583D01*
X414366Y46605D01*
X414542Y46623D01*
X414565Y46630D01*
X414588Y46632D01*
X414757Y46689D01*
X414927Y46741D01*
X414948Y46752D01*
X414970Y46759D01*
X415125Y46848D01*
X415281Y46933D01*
X415299Y46948D01*
X415320Y46959D01*
X415454Y47077D01*
X415591Y47190D01*
X415605Y47209D01*
X415623Y47224D01*
X415731Y47365D01*
X415843Y47504D01*
X415854Y47525D01*
X415868Y47544D01*
X415947Y47704D01*
X416029Y47861D01*
X416035Y47884D01*
X416045Y47905D01*
X416091Y48078D01*
X416140Y48248D01*
X416142Y48272D01*
X416148Y48295D01*
X416158Y48472D01*
X416173Y48650D01*
X416170Y48673D01*
X416171Y48696D01*
X416147Y48872D01*
X416126Y49049D01*
X416119Y49072D01*
X416115Y49095D01*
X416056Y49263D01*
X416001Y49432D01*
X415989Y49453D01*
X415982Y49475D01*
X415891Y49628D01*
X415803Y49783D01*
X415788Y49801D01*
X415776Y49821D01*
X415656Y49953D01*
X415540Y50087D01*
X415521Y50102D01*
X415506Y50119D01*
X415362Y50225D01*
X415222Y50334D01*
X415201Y50345D01*
X415182Y50359D01*
X414884Y50505D01*
X414703Y50576D01*
X405708Y57749D01*
X399227Y67254D01*
X395836Y78248D01*
X395836Y89752D01*
X399227Y100746D01*
X405708Y110251D01*
X414703Y117424D01*
X422170Y120355D01*
X422207Y120374D01*
X422246Y120386D01*
X422386Y120465D01*
X422528Y120538D01*
X422561Y120564D01*
X422597Y120584D01*
X422718Y120689D01*
X422844Y120789D01*
X422870Y120821D01*
X422902Y120848D01*
X423000Y120974D01*
X423103Y121097D01*
X423123Y121133D01*
X423148Y121166D01*
X423220Y121309D01*
X423297Y121450D01*
X423309Y121489D01*
X423328Y121526D01*
X423369Y121681D01*
X423417Y121834D01*
X423421Y121875D01*
X423432Y121915D01*
X423455Y122196D01*
X423459Y122234D01*
X423459Y122239D01*
X423459Y122246D01*
X423459Y132001D01*
X431032Y132001D01*
X431050Y132002D01*
X431067Y132001D01*
X431250Y132022D01*
X431432Y132041D01*
X431449Y132046D01*
X431467Y132048D01*
X431642Y132105D01*
X431817Y132159D01*
X431833Y132167D01*
X431850Y132173D01*
X431999Y132257D01*
X432053Y132230D01*
X432216Y132145D01*
X432233Y132140D01*
X432249Y132132D01*
X432427Y132084D01*
X432602Y132034D01*
X432620Y132032D01*
X432637Y132028D01*
X432968Y132001D01*
X440541Y132001D01*
X440541Y123272D01*
X440560Y123081D01*
X440577Y122888D01*
X440580Y122880D01*
X440581Y122871D01*
X440637Y122687D01*
X440692Y122502D01*
X440696Y122495D01*
X440699Y122487D01*
X440791Y122317D01*
X440881Y122147D01*
X440886Y122140D01*
X440891Y122133D01*
X441014Y121985D01*
X441136Y121835D01*
X441143Y121830D01*
X441148Y121823D01*
X441298Y121703D01*
X441448Y121580D01*
X441455Y121576D01*
X441462Y121571D01*
X441633Y121482D01*
X441804Y121392D01*
X441813Y121389D01*
X441819Y121385D01*
X441868Y121371D01*
X442120Y121292D01*
X448100Y119927D01*
X458064Y114175D01*
X465888Y105741D01*
X469556Y98126D01*
X469634Y97999D01*
X469705Y97867D01*
X469738Y97827D01*
X469766Y97782D01*
X469867Y97673D01*
X469962Y97558D01*
X470003Y97525D01*
X470039Y97486D01*
X470160Y97399D01*
X470276Y97306D01*
X470323Y97282D01*
X470365Y97251D01*
X470501Y97189D01*
X470633Y97120D01*
X470684Y97106D01*
X470732Y97084D01*
X470877Y97050D01*
X471020Y97009D01*
X471073Y97005D01*
X471124Y96993D01*
X471273Y96988D01*
X471422Y96976D01*
X471474Y96982D01*
X471527Y96981D01*
X471673Y97006D01*
X471821Y97023D01*
X471871Y97039D01*
X471923Y97048D01*
X472062Y97102D01*
X472204Y97148D01*
X472250Y97174D01*
X472299Y97193D01*
X472425Y97272D01*
X472555Y97346D01*
X472595Y97380D01*
X472639Y97408D01*
X472747Y97511D01*
X472860Y97609D01*
X472892Y97650D01*
X472930Y97687D01*
X473015Y97809D01*
X473106Y97927D01*
X473130Y97974D01*
X473160Y98017D01*
X473219Y98154D01*
X473286Y98287D01*
X473299Y98338D01*
X473320Y98387D01*
X473351Y98532D01*
X473390Y98676D01*
X473395Y98736D01*
X473405Y98780D01*
X473406Y98865D01*
X473417Y99007D01*
X473417Y165312D01*
X474039Y166813D01*
X475473Y168247D01*
X489208Y181982D01*
X489214Y181989D01*
X489220Y181994D01*
X489341Y182144D01*
X489463Y182293D01*
X489467Y182301D01*
X489473Y182308D01*
X489561Y182478D01*
X489652Y182649D01*
X489654Y182658D01*
X489658Y182665D01*
X489711Y182850D01*
X489766Y183035D01*
X489767Y183044D01*
X489770Y183052D01*
X489785Y183244D01*
X489803Y183436D01*
X489802Y183445D01*
X489802Y183454D01*
X489780Y183643D01*
X489759Y183836D01*
X489757Y183845D01*
X489756Y183853D01*
X489696Y184035D01*
X489638Y184220D01*
X489634Y184228D01*
X489631Y184236D01*
X489536Y184405D01*
X489443Y184572D01*
X489437Y184579D01*
X489433Y184587D01*
X489307Y184733D01*
X489183Y184879D01*
X489175Y184885D01*
X489170Y184892D01*
X489018Y185009D01*
X488867Y185129D01*
X488859Y185133D01*
X488852Y185138D01*
X488679Y185224D01*
X488508Y185311D01*
X488499Y185314D01*
X488491Y185318D01*
X488305Y185368D01*
X488120Y185419D01*
X488111Y185420D01*
X488102Y185422D01*
X487772Y185449D01*
X476151Y185449D01*
X474949Y186651D01*
X474949Y213349D01*
X476151Y214551D01*
X476886Y214551D01*
X476904Y214553D01*
X476922Y214551D01*
X477104Y214572D01*
X477287Y214591D01*
X477304Y214596D01*
X477321Y214598D01*
X477496Y214655D01*
X477672Y214709D01*
X477687Y214717D01*
X477704Y214723D01*
X477864Y214813D01*
X478026Y214901D01*
X478039Y214912D01*
X478055Y214921D01*
X478194Y215041D01*
X478335Y215158D01*
X478346Y215172D01*
X478360Y215184D01*
X478472Y215329D01*
X478587Y215472D01*
X478595Y215488D01*
X478606Y215502D01*
X478688Y215667D01*
X478773Y215829D01*
X478778Y215846D01*
X478786Y215862D01*
X478833Y216039D01*
X478884Y216216D01*
X478886Y216234D01*
X478890Y216251D01*
X478917Y216582D01*
X478917Y279867D01*
X478915Y279884D01*
X478917Y279902D01*
X478896Y280085D01*
X478877Y280267D01*
X478872Y280284D01*
X478870Y280302D01*
X478813Y280477D01*
X478759Y280652D01*
X478751Y280668D01*
X478745Y280685D01*
X478655Y280845D01*
X478567Y281006D01*
X478556Y281020D01*
X478547Y281035D01*
X478427Y281175D01*
X478310Y281315D01*
X478296Y281327D01*
X478284Y281340D01*
X478139Y281453D01*
X477996Y281568D01*
X477980Y281576D01*
X477966Y281587D01*
X477801Y281669D01*
X477639Y281753D01*
X477622Y281758D01*
X477606Y281766D01*
X477427Y281814D01*
X477252Y281865D01*
X477234Y281866D01*
X477217Y281871D01*
X476886Y281898D01*
X476151Y281898D01*
X474949Y283099D01*
X474949Y309798D01*
X476151Y310999D01*
X476886Y310999D01*
X476904Y311001D01*
X476922Y311000D01*
X477104Y311021D01*
X477287Y311039D01*
X477304Y311044D01*
X477321Y311047D01*
X477496Y311103D01*
X477672Y311157D01*
X477687Y311166D01*
X477704Y311171D01*
X477864Y311262D01*
X478026Y311349D01*
X478039Y311361D01*
X478055Y311369D01*
X478194Y311490D01*
X478335Y311607D01*
X478346Y311621D01*
X478360Y311632D01*
X478472Y311777D01*
X478587Y311921D01*
X478595Y311936D01*
X478606Y311951D01*
X478688Y312115D01*
X478773Y312278D01*
X478778Y312295D01*
X478786Y312311D01*
X478833Y312489D01*
X478884Y312665D01*
X478886Y312683D01*
X478890Y312700D01*
X478917Y313031D01*
X478917Y316967D01*
X478915Y316994D01*
X478917Y317021D01*
X478895Y317195D01*
X478877Y317368D01*
X478870Y317394D01*
X478866Y317420D01*
X478811Y317586D01*
X478759Y317753D01*
X478746Y317777D01*
X478738Y317802D01*
X478651Y317954D01*
X478567Y318107D01*
X478550Y318128D01*
X478537Y318151D01*
X478322Y318404D01*
X435804Y360922D01*
X435783Y360939D01*
X435766Y360960D01*
X435628Y361067D01*
X435492Y361177D01*
X435469Y361190D01*
X435448Y361206D01*
X435291Y361284D01*
X435137Y361366D01*
X435111Y361374D01*
X435087Y361386D01*
X434918Y361431D01*
X434751Y361481D01*
X434724Y361483D01*
X434698Y361490D01*
X434367Y361517D01*
X412634Y361517D01*
X412611Y361515D01*
X412589Y361517D01*
X412411Y361495D01*
X412233Y361477D01*
X412212Y361471D01*
X412189Y361468D01*
X412019Y361412D01*
X411848Y361359D01*
X411828Y361349D01*
X411807Y361342D01*
X411651Y361253D01*
X411494Y361167D01*
X411477Y361153D01*
X411457Y361142D01*
X411322Y361024D01*
X411185Y360910D01*
X411171Y360892D01*
X411154Y360878D01*
X411045Y360736D01*
X410932Y360596D01*
X410922Y360576D01*
X410909Y360558D01*
X410757Y360263D01*
X410698Y360122D01*
X407978Y357402D01*
X404424Y355929D01*
X400576Y355929D01*
X397022Y357402D01*
X394302Y360122D01*
X394243Y360263D01*
X394233Y360283D01*
X394226Y360304D01*
X394137Y360460D01*
X394053Y360618D01*
X394039Y360635D01*
X394028Y360655D01*
X393911Y360790D01*
X393796Y360929D01*
X393779Y360943D01*
X393765Y360960D01*
X393623Y361069D01*
X393484Y361182D01*
X393464Y361193D01*
X393446Y361206D01*
X393286Y361286D01*
X393127Y361369D01*
X393106Y361376D01*
X393086Y361386D01*
X392913Y361432D01*
X392741Y361482D01*
X392719Y361484D01*
X392697Y361490D01*
X392366Y361517D01*
X361500Y361517D01*
X361474Y361515D01*
X361447Y361517D01*
X361273Y361495D01*
X361099Y361477D01*
X361074Y361470D01*
X361047Y361466D01*
X360882Y361411D01*
X360715Y361359D01*
X360691Y361346D01*
X360666Y361338D01*
X360514Y361251D01*
X360361Y361167D01*
X360340Y361150D01*
X360317Y361137D01*
X360064Y360922D01*
X310757Y311615D01*
X310751Y311608D01*
X310744Y311602D01*
X310624Y311453D01*
X310502Y311304D01*
X310497Y311296D01*
X310492Y311289D01*
X310403Y311118D01*
X310313Y310948D01*
X310310Y310939D01*
X310306Y310931D01*
X310253Y310746D01*
X310198Y310562D01*
X310197Y310553D01*
X310195Y310545D01*
X310179Y310353D01*
X310162Y310161D01*
X310163Y310152D01*
X310162Y310143D01*
X310184Y309954D01*
X310205Y309761D01*
X310208Y309752D01*
X310209Y309743D01*
X310268Y309561D01*
X310327Y309377D01*
X310331Y309369D01*
X310334Y309361D01*
X310429Y309192D01*
X310521Y309025D01*
X310527Y309018D01*
X310532Y309010D01*
X310658Y308864D01*
X310782Y308718D01*
X310789Y308712D01*
X310795Y308705D01*
X310946Y308588D01*
X311098Y308468D01*
X311106Y308464D01*
X311113Y308458D01*
X311285Y308373D01*
X311457Y308286D01*
X311465Y308283D01*
X311473Y308279D01*
X311660Y308229D01*
X311845Y308178D01*
X311854Y308177D01*
X311862Y308175D01*
X312193Y308148D01*
X389232Y308148D01*
X389259Y308150D01*
X389286Y308148D01*
X389460Y308170D01*
X389633Y308187D01*
X389658Y308195D01*
X389685Y308199D01*
X389851Y308254D01*
X390018Y308306D01*
X390041Y308318D01*
X390067Y308327D01*
X390218Y308414D01*
X390372Y308497D01*
X390392Y308514D01*
X390416Y308528D01*
X390669Y308742D01*
X392448Y310521D01*
X392462Y310539D01*
X392479Y310553D01*
X392589Y310694D01*
X392703Y310833D01*
X392713Y310853D01*
X392727Y310870D01*
X392807Y311030D01*
X392891Y311189D01*
X392898Y311210D01*
X392908Y311230D01*
X392955Y311403D01*
X393006Y311574D01*
X393008Y311597D01*
X393014Y311618D01*
X393026Y311796D01*
X393042Y311975D01*
X393040Y311998D01*
X393041Y312020D01*
X393018Y312196D01*
X392999Y312376D01*
X392992Y312397D01*
X392989Y312419D01*
X392888Y312735D01*
X392829Y312876D01*
X392829Y316724D01*
X394302Y320278D01*
X397022Y322998D01*
X400576Y324471D01*
X404424Y324471D01*
X407978Y322998D01*
X410698Y320278D01*
X412171Y316724D01*
X412171Y312876D01*
X410698Y309322D01*
X407978Y306602D01*
X404424Y305129D01*
X400576Y305129D01*
X400435Y305188D01*
X400414Y305194D01*
X400394Y305204D01*
X400221Y305253D01*
X400050Y305304D01*
X400028Y305306D01*
X400006Y305312D01*
X399826Y305326D01*
X399649Y305342D01*
X399627Y305340D01*
X399604Y305342D01*
X399426Y305319D01*
X399248Y305301D01*
X399227Y305294D01*
X399205Y305291D01*
X399035Y305234D01*
X398864Y305181D01*
X398844Y305170D01*
X398823Y305163D01*
X398668Y305074D01*
X398511Y304988D01*
X398494Y304973D01*
X398474Y304962D01*
X398221Y304748D01*
X395512Y302038D01*
X394077Y300604D01*
X392577Y299982D01*
X385696Y299982D01*
X385687Y299981D01*
X385678Y299982D01*
X385486Y299961D01*
X385295Y299942D01*
X385286Y299940D01*
X385278Y299939D01*
X385095Y299881D01*
X384910Y299824D01*
X384902Y299820D01*
X384894Y299817D01*
X384725Y299724D01*
X384556Y299632D01*
X384549Y299627D01*
X384541Y299622D01*
X384394Y299497D01*
X384247Y299375D01*
X384241Y299368D01*
X384234Y299362D01*
X384114Y299210D01*
X383994Y299061D01*
X383990Y299053D01*
X383985Y299046D01*
X383897Y298873D01*
X383809Y298703D01*
X383807Y298695D01*
X383802Y298687D01*
X383751Y298500D01*
X383698Y298317D01*
X383697Y298308D01*
X383694Y298299D01*
X383680Y298106D01*
X383665Y297915D01*
X383666Y297906D01*
X383665Y297897D01*
X383689Y297705D01*
X383712Y297515D01*
X383714Y297507D01*
X383715Y297498D01*
X383777Y297315D01*
X383836Y297133D01*
X383841Y297125D01*
X383844Y297116D01*
X383939Y296951D01*
X384034Y296782D01*
X384040Y296775D01*
X384045Y296768D01*
X384259Y296515D01*
X386696Y294078D01*
X386717Y294061D01*
X386734Y294040D01*
X386872Y293934D01*
X387008Y293823D01*
X387031Y293810D01*
X387052Y293794D01*
X387209Y293716D01*
X387363Y293634D01*
X387389Y293626D01*
X387413Y293614D01*
X387582Y293569D01*
X387749Y293519D01*
X387776Y293517D01*
X387802Y293510D01*
X388133Y293483D01*
X392366Y293483D01*
X392389Y293485D01*
X392411Y293483D01*
X392589Y293505D01*
X392767Y293523D01*
X392788Y293529D01*
X392810Y293532D01*
X392981Y293588D01*
X393152Y293641D01*
X393172Y293651D01*
X393193Y293658D01*
X393348Y293747D01*
X393506Y293833D01*
X393523Y293847D01*
X393542Y293858D01*
X393678Y293976D01*
X393815Y294090D01*
X393829Y294108D01*
X393846Y294122D01*
X393955Y294265D01*
X394068Y294404D01*
X394078Y294424D01*
X394091Y294441D01*
X394243Y294737D01*
X394302Y294878D01*
X397022Y297598D01*
X400576Y299071D01*
X404424Y299071D01*
X407978Y297598D01*
X410698Y294878D01*
X412171Y291324D01*
X412171Y287476D01*
X410698Y283922D01*
X407978Y281202D01*
X404424Y279729D01*
X400576Y279729D01*
X397022Y281202D01*
X394302Y283922D01*
X394243Y284063D01*
X394232Y284083D01*
X394226Y284104D01*
X394137Y284260D01*
X394053Y284418D01*
X394039Y284435D01*
X394028Y284455D01*
X393911Y284590D01*
X393796Y284729D01*
X393779Y284743D01*
X393764Y284760D01*
X393623Y284869D01*
X393484Y284982D01*
X393464Y284993D01*
X393446Y285006D01*
X393286Y285086D01*
X393127Y285169D01*
X393106Y285176D01*
X393086Y285186D01*
X392912Y285232D01*
X392741Y285282D01*
X392719Y285284D01*
X392697Y285290D01*
X392366Y285317D01*
X384788Y285317D01*
X383287Y285939D01*
X376271Y292955D01*
X376251Y292972D01*
X376233Y292992D01*
X376095Y293099D01*
X375960Y293210D01*
X375936Y293222D01*
X375915Y293239D01*
X375758Y293317D01*
X375604Y293398D01*
X375579Y293406D01*
X375555Y293418D01*
X375385Y293464D01*
X375218Y293513D01*
X375192Y293516D01*
X375166Y293523D01*
X374835Y293550D01*
X354974Y293550D01*
X354934Y293546D01*
X354893Y293548D01*
X354733Y293526D01*
X354574Y293510D01*
X354535Y293498D01*
X354494Y293492D01*
X354342Y293439D01*
X354189Y293392D01*
X354153Y293372D01*
X354114Y293359D01*
X353976Y293276D01*
X353835Y293200D01*
X353803Y293174D01*
X353768Y293153D01*
X353649Y293045D01*
X353525Y292942D01*
X353500Y292910D01*
X353469Y292883D01*
X353374Y292754D01*
X353273Y292628D01*
X353254Y292592D01*
X353230Y292559D01*
X353161Y292413D01*
X353088Y292271D01*
X353076Y292232D01*
X353059Y292195D01*
X353020Y292038D01*
X352976Y291884D01*
X352973Y291843D01*
X352963Y291804D01*
X352956Y291643D01*
X352943Y291483D01*
X352948Y291442D01*
X352946Y291401D01*
X352971Y291243D01*
X352990Y291083D01*
X353003Y291044D01*
X353009Y291004D01*
X353065Y290853D01*
X353115Y290700D01*
X353135Y290665D01*
X353149Y290626D01*
X353234Y290490D01*
X353313Y290350D01*
X353340Y290319D01*
X353361Y290284D01*
X353471Y290166D01*
X353576Y290045D01*
X353608Y290020D01*
X353636Y289990D01*
X353767Y289896D01*
X353894Y289798D01*
X353931Y289780D01*
X353964Y289756D01*
X354222Y289635D01*
X354255Y289619D01*
X354259Y289618D01*
X354264Y289615D01*
X354526Y289518D01*
X354578Y289468D01*
X354656Y289380D01*
X354723Y289330D01*
X354783Y289272D01*
X354909Y289189D01*
X354978Y289137D01*
X355015Y289119D01*
X355061Y289090D01*
X355806Y288682D01*
X355883Y288650D01*
X355956Y288609D01*
X356068Y288572D01*
X356177Y288525D01*
X356259Y288509D01*
X356338Y288483D01*
X356449Y288469D01*
X357011Y288048D01*
X357078Y288007D01*
X357255Y287891D01*
X357865Y287559D01*
X357909Y287502D01*
X357974Y287403D01*
X358033Y287344D01*
X358084Y287279D01*
X358197Y287179D01*
X358258Y287118D01*
X358292Y287095D01*
X358333Y287059D01*
X359013Y286550D01*
X359084Y286506D01*
X359150Y286455D01*
X359256Y286403D01*
X359357Y286341D01*
X359436Y286313D01*
X359511Y286276D01*
X359618Y286247D01*
X360115Y285750D01*
X360176Y285700D01*
X360334Y285560D01*
X360890Y285144D01*
X360926Y285082D01*
X360976Y284976D01*
X361026Y284909D01*
X361068Y284836D01*
X361165Y284721D01*
X361216Y284652D01*
X361247Y284624D01*
X361282Y284583D01*
X361883Y283982D01*
X361948Y283929D01*
X362006Y283870D01*
X362103Y283802D01*
X362195Y283727D01*
X362268Y283688D01*
X362337Y283641D01*
X362439Y283597D01*
X362860Y283034D01*
X362913Y282977D01*
X363050Y282815D01*
X363541Y282324D01*
X363568Y282258D01*
X363603Y282145D01*
X363642Y282071D01*
X363673Y281994D01*
X363753Y281866D01*
X363794Y281791D01*
X363821Y281759D01*
X363850Y281713D01*
X364359Y281033D01*
X364415Y280971D01*
X364464Y280904D01*
X364551Y280823D01*
X364631Y280736D01*
X364698Y280687D01*
X364759Y280630D01*
X364855Y280572D01*
X365191Y279955D01*
X365236Y279890D01*
X365348Y279711D01*
X365764Y279155D01*
X365781Y279086D01*
X365799Y278969D01*
X365828Y278891D01*
X365848Y278810D01*
X365909Y278672D01*
X365939Y278591D01*
X365960Y278556D01*
X365982Y278506D01*
X366390Y277761D01*
X366437Y277692D01*
X366475Y277618D01*
X366550Y277526D01*
X366617Y277428D01*
X366676Y277370D01*
X366729Y277305D01*
X366815Y277234D01*
X367060Y276575D01*
X367095Y276505D01*
X367181Y276312D01*
X367513Y275703D01*
X367520Y275632D01*
X367522Y275513D01*
X367539Y275431D01*
X367547Y275348D01*
X367588Y275203D01*
X367606Y275119D01*
X367622Y275081D01*
X367637Y275029D01*
X367934Y274233D01*
X367971Y274158D01*
X367999Y274079D01*
X368059Y273978D01*
X368111Y273872D01*
X368162Y273805D01*
X368205Y273734D01*
X368280Y273651D01*
X368429Y272964D01*
X368454Y272889D01*
X368511Y272686D01*
X368753Y272036D01*
X368750Y271964D01*
X368735Y271847D01*
X368740Y271764D01*
X368736Y271681D01*
X368756Y271531D01*
X368762Y271446D01*
X368773Y271405D01*
X368780Y271352D01*
X368961Y270521D01*
X368986Y270442D01*
X369003Y270360D01*
X369048Y270251D01*
X369085Y270138D01*
X369126Y270065D01*
X369158Y269989D01*
X369220Y269896D01*
X369270Y269195D01*
X369283Y269118D01*
X369311Y268909D01*
X369459Y268230D01*
X369445Y268160D01*
X369414Y268046D01*
X369407Y267963D01*
X369391Y267881D01*
X369390Y267731D01*
X369383Y267644D01*
X369389Y267603D01*
X369388Y267549D01*
X369437Y266865D01*
X369463Y266711D01*
X369483Y266557D01*
X369497Y266513D01*
X369505Y266468D01*
X369551Y266351D01*
X369551Y265346D01*
X369557Y265285D01*
X369556Y265201D01*
X369627Y264200D01*
X369618Y264159D01*
X369578Y264008D01*
X369574Y263957D01*
X369565Y263918D01*
X369563Y263831D01*
X369551Y263678D01*
X369551Y191322D01*
X369566Y191167D01*
X369575Y191012D01*
X369586Y190968D01*
X369591Y190922D01*
X369628Y190801D01*
X369556Y189799D01*
X369558Y189738D01*
X369551Y189654D01*
X369551Y188651D01*
X369539Y188610D01*
X369488Y188463D01*
X369480Y188412D01*
X369468Y188374D01*
X369460Y188287D01*
X369437Y188135D01*
X369388Y187451D01*
X369390Y187368D01*
X369389Y187356D01*
X369383Y187284D01*
X369396Y187167D01*
X369399Y187049D01*
X369418Y186967D01*
X369427Y186884D01*
X369461Y186778D01*
X369311Y186091D01*
X369302Y186013D01*
X369270Y185805D01*
X369221Y185112D01*
X369188Y185049D01*
X369125Y184948D01*
X369096Y184870D01*
X369057Y184796D01*
X369014Y184652D01*
X368983Y184572D01*
X368976Y184531D01*
X368961Y184479D01*
X368780Y183648D01*
X368770Y183565D01*
X368751Y183484D01*
X368747Y183366D01*
X368734Y183248D01*
X368741Y183165D01*
X368738Y183082D01*
X368756Y182972D01*
X368511Y182314D01*
X368491Y182238D01*
X368429Y182036D01*
X368282Y181357D01*
X368240Y181299D01*
X368164Y181208D01*
X368123Y181135D01*
X368075Y181067D01*
X368011Y180931D01*
X367969Y180856D01*
X367957Y180816D01*
X367934Y180767D01*
X367637Y179971D01*
X367616Y179890D01*
X367585Y179813D01*
X367567Y179710D01*
X367543Y179625D01*
X367541Y179607D01*
X367534Y179582D01*
X367529Y179498D01*
X367515Y179416D01*
X367517Y179315D01*
X367516Y179303D01*
X367181Y178688D01*
X367150Y178616D01*
X367060Y178425D01*
X366818Y177774D01*
X366768Y177722D01*
X366680Y177644D01*
X366630Y177577D01*
X366572Y177517D01*
X366489Y177391D01*
X366437Y177322D01*
X366419Y177285D01*
X366390Y177239D01*
X365982Y176494D01*
X365950Y176417D01*
X365909Y176344D01*
X365872Y176232D01*
X365825Y176123D01*
X365809Y176041D01*
X365783Y175962D01*
X365769Y175851D01*
X365348Y175289D01*
X365307Y175222D01*
X365191Y175045D01*
X364859Y174435D01*
X364802Y174391D01*
X364703Y174326D01*
X364644Y174267D01*
X364579Y174216D01*
X364479Y174103D01*
X364418Y174042D01*
X364395Y174008D01*
X364359Y173967D01*
X363850Y173287D01*
X363806Y173216D01*
X363755Y173150D01*
X363703Y173044D01*
X363641Y172943D01*
X363613Y172864D01*
X363576Y172789D01*
X363547Y172682D01*
X363050Y172185D01*
X363000Y172124D01*
X362860Y171966D01*
X362444Y171410D01*
X362383Y171374D01*
X362275Y171324D01*
X362208Y171274D01*
X362136Y171232D01*
X362021Y171135D01*
X361952Y171084D01*
X361924Y171053D01*
X361883Y171018D01*
X361282Y170417D01*
X361229Y170352D01*
X361170Y170294D01*
X361102Y170197D01*
X361027Y170105D01*
X360988Y170032D01*
X360941Y169963D01*
X360897Y169861D01*
X360334Y169440D01*
X360277Y169387D01*
X360115Y169250D01*
X359624Y168759D01*
X359558Y168732D01*
X359445Y168697D01*
X359371Y168658D01*
X359294Y168627D01*
X359166Y168547D01*
X359091Y168506D01*
X359059Y168479D01*
X359013Y168450D01*
X358333Y167941D01*
X358271Y167885D01*
X358204Y167836D01*
X358123Y167749D01*
X358036Y167669D01*
X357987Y167602D01*
X357930Y167541D01*
X357872Y167445D01*
X357255Y167109D01*
X357190Y167064D01*
X357011Y166952D01*
X356455Y166536D01*
X356386Y166519D01*
X356269Y166501D01*
X356191Y166472D01*
X356110Y166452D01*
X355972Y166391D01*
X355891Y166361D01*
X355856Y166340D01*
X355806Y166318D01*
X355061Y165910D01*
X354992Y165863D01*
X354918Y165825D01*
X354826Y165750D01*
X354728Y165683D01*
X354670Y165624D01*
X354605Y165571D01*
X354534Y165485D01*
X353875Y165240D01*
X353805Y165205D01*
X353612Y165119D01*
X353003Y164787D01*
X352932Y164780D01*
X352813Y164778D01*
X352731Y164761D01*
X352648Y164753D01*
X352503Y164712D01*
X352419Y164694D01*
X352381Y164678D01*
X352329Y164663D01*
X351533Y164366D01*
X351458Y164329D01*
X351379Y164301D01*
X351278Y164241D01*
X351172Y164189D01*
X351105Y164138D01*
X351034Y164095D01*
X350951Y164020D01*
X350264Y163871D01*
X350189Y163846D01*
X349986Y163789D01*
X349336Y163547D01*
X349264Y163550D01*
X349147Y163565D01*
X349064Y163560D01*
X348981Y163564D01*
X348831Y163544D01*
X348746Y163538D01*
X348705Y163527D01*
X348652Y163520D01*
X347821Y163339D01*
X347742Y163314D01*
X347660Y163297D01*
X347551Y163252D01*
X347438Y163215D01*
X347365Y163174D01*
X347289Y163142D01*
X347196Y163080D01*
X346495Y163030D01*
X346418Y163017D01*
X346209Y162989D01*
X345530Y162841D01*
X345460Y162855D01*
X345346Y162886D01*
X345263Y162893D01*
X345181Y162909D01*
X345031Y162910D01*
X344944Y162917D01*
X344903Y162911D01*
X344849Y162912D01*
X344001Y162851D01*
X343919Y162837D01*
X343836Y162833D01*
X343721Y162803D01*
X343605Y162783D01*
X343527Y162753D01*
X343446Y162732D01*
X343346Y162684D01*
X342645Y162734D01*
X342566Y162731D01*
X342355Y162734D01*
X341662Y162684D01*
X341595Y162708D01*
X341487Y162755D01*
X341405Y162773D01*
X341326Y162801D01*
X341178Y162824D01*
X341094Y162842D01*
X341052Y162843D01*
X340999Y162851D01*
X340151Y162912D01*
X340068Y162910D01*
X339984Y162917D01*
X339867Y162904D01*
X339749Y162901D01*
X339667Y162882D01*
X339584Y162873D01*
X339478Y162839D01*
X338791Y162989D01*
X338713Y162998D01*
X338505Y163030D01*
X337812Y163079D01*
X337749Y163112D01*
X337648Y163175D01*
X337570Y163204D01*
X337496Y163243D01*
X337352Y163287D01*
X337271Y163317D01*
X337230Y163324D01*
X337179Y163339D01*
X336348Y163520D01*
X336265Y163530D01*
X336184Y163549D01*
X336066Y163553D01*
X335948Y163566D01*
X335865Y163559D01*
X335782Y163562D01*
X335672Y163544D01*
X335014Y163789D01*
X334938Y163809D01*
X334736Y163871D01*
X334057Y164018D01*
X333999Y164060D01*
X333908Y164136D01*
X333835Y164177D01*
X333767Y164225D01*
X333631Y164289D01*
X333556Y164331D01*
X333516Y164343D01*
X333467Y164366D01*
X332671Y164663D01*
X332590Y164684D01*
X332513Y164715D01*
X332396Y164735D01*
X332282Y164766D01*
X332198Y164771D01*
X332116Y164785D01*
X332005Y164783D01*
X331388Y165119D01*
X331316Y165150D01*
X331125Y165240D01*
X330474Y165482D01*
X330422Y165532D01*
X330344Y165620D01*
X330277Y165670D01*
X330217Y165728D01*
X330091Y165811D01*
X330022Y165863D01*
X329985Y165881D01*
X329939Y165910D01*
X329194Y166318D01*
X329117Y166350D01*
X329044Y166391D01*
X328932Y166428D01*
X328823Y166475D01*
X328741Y166491D01*
X328662Y166517D01*
X328551Y166531D01*
X327989Y166952D01*
X327922Y166993D01*
X327745Y167109D01*
X327135Y167441D01*
X327091Y167498D01*
X327026Y167597D01*
X326967Y167656D01*
X326916Y167721D01*
X326803Y167821D01*
X326742Y167882D01*
X326708Y167905D01*
X326667Y167941D01*
X325987Y168450D01*
X325916Y168494D01*
X325850Y168545D01*
X325744Y168597D01*
X325643Y168659D01*
X325564Y168687D01*
X325489Y168724D01*
X325382Y168753D01*
X324885Y169250D01*
X324824Y169300D01*
X324666Y169440D01*
X324110Y169856D01*
X324074Y169917D01*
X324024Y170025D01*
X323974Y170092D01*
X323932Y170164D01*
X323835Y170279D01*
X323784Y170348D01*
X323753Y170376D01*
X323718Y170417D01*
X323117Y171018D01*
X323052Y171071D01*
X322994Y171130D01*
X322897Y171198D01*
X322805Y171273D01*
X322732Y171312D01*
X322663Y171359D01*
X322561Y171403D01*
X322140Y171966D01*
X322087Y172023D01*
X321950Y172185D01*
X321459Y172676D01*
X321432Y172742D01*
X321397Y172855D01*
X321358Y172929D01*
X321327Y173006D01*
X321247Y173134D01*
X321206Y173209D01*
X321179Y173241D01*
X321150Y173287D01*
X320641Y173967D01*
X320585Y174029D01*
X320536Y174096D01*
X320449Y174177D01*
X320369Y174264D01*
X320302Y174313D01*
X320241Y174370D01*
X320145Y174428D01*
X319809Y175045D01*
X319764Y175110D01*
X319652Y175289D01*
X319236Y175845D01*
X319219Y175914D01*
X319201Y176031D01*
X319172Y176109D01*
X319152Y176190D01*
X319091Y176328D01*
X319061Y176409D01*
X319040Y176444D01*
X319018Y176494D01*
X318610Y177239D01*
X318563Y177308D01*
X318525Y177382D01*
X318450Y177474D01*
X318383Y177572D01*
X318324Y177630D01*
X318271Y177695D01*
X318185Y177766D01*
X317940Y178425D01*
X317905Y178495D01*
X317819Y178688D01*
X317490Y179291D01*
X317490Y179295D01*
X317480Y179385D01*
X317478Y179487D01*
X317461Y179569D01*
X317453Y179652D01*
X317445Y179680D01*
X317443Y179695D01*
X317425Y179751D01*
X317412Y179797D01*
X317394Y179881D01*
X317378Y179919D01*
X317363Y179971D01*
X317066Y180767D01*
X317029Y180842D01*
X317001Y180921D01*
X316941Y181022D01*
X316889Y181128D01*
X316838Y181195D01*
X316795Y181266D01*
X316720Y181349D01*
X316571Y182035D01*
X316547Y182110D01*
X316489Y182314D01*
X316247Y182964D01*
X316250Y183036D01*
X316265Y183153D01*
X316260Y183236D01*
X316264Y183319D01*
X316244Y183469D01*
X316238Y183555D01*
X316227Y183595D01*
X316220Y183648D01*
X316039Y184479D01*
X316014Y184558D01*
X315997Y184640D01*
X315952Y184749D01*
X315915Y184862D01*
X315874Y184935D01*
X315842Y185011D01*
X315780Y185104D01*
X315730Y185805D01*
X315717Y185882D01*
X315689Y186091D01*
X315541Y186770D01*
X315555Y186840D01*
X315586Y186954D01*
X315593Y187037D01*
X315609Y187119D01*
X315610Y187269D01*
X315617Y187356D01*
X315611Y187397D01*
X315612Y187451D01*
X315563Y188135D01*
X315537Y188288D01*
X315517Y188443D01*
X315503Y188487D01*
X315495Y188532D01*
X315449Y188649D01*
X315449Y189654D01*
X315443Y189715D01*
X315444Y189799D01*
X315373Y190800D01*
X315382Y190841D01*
X315422Y190992D01*
X315426Y191043D01*
X315435Y191082D01*
X315437Y191169D01*
X315449Y191322D01*
X315449Y263678D01*
X315434Y263833D01*
X315425Y263988D01*
X315414Y264032D01*
X315409Y264078D01*
X315372Y264199D01*
X315444Y265201D01*
X315442Y265262D01*
X315449Y265346D01*
X315449Y266349D01*
X315461Y266390D01*
X315512Y266537D01*
X315520Y266588D01*
X315532Y266626D01*
X315540Y266713D01*
X315563Y266865D01*
X315612Y267549D01*
X315610Y267632D01*
X315617Y267716D01*
X315604Y267833D01*
X315601Y267951D01*
X315582Y268033D01*
X315573Y268116D01*
X315539Y268222D01*
X315689Y268909D01*
X315698Y268987D01*
X315730Y269195D01*
X315779Y269888D01*
X315812Y269951D01*
X315875Y270052D01*
X315904Y270130D01*
X315943Y270204D01*
X315987Y270348D01*
X316017Y270429D01*
X316024Y270470D01*
X316039Y270521D01*
X316220Y271352D01*
X316230Y271435D01*
X316249Y271516D01*
X316253Y271634D01*
X316266Y271752D01*
X316259Y271835D01*
X316262Y271918D01*
X316244Y272028D01*
X316489Y272686D01*
X316509Y272762D01*
X316571Y272964D01*
X316718Y273643D01*
X316760Y273701D01*
X316836Y273792D01*
X316877Y273865D01*
X316925Y273933D01*
X316989Y274069D01*
X317031Y274144D01*
X317043Y274184D01*
X317066Y274233D01*
X317363Y275029D01*
X317384Y275110D01*
X317415Y275187D01*
X317435Y275304D01*
X317466Y275418D01*
X317471Y275502D01*
X317485Y275584D01*
X317483Y275695D01*
X317819Y276312D01*
X317850Y276384D01*
X317940Y276575D01*
X318182Y277226D01*
X318232Y277278D01*
X318320Y277356D01*
X318370Y277423D01*
X318428Y277483D01*
X318511Y277609D01*
X318563Y277678D01*
X318581Y277715D01*
X318610Y277761D01*
X319018Y278506D01*
X319050Y278583D01*
X319091Y278656D01*
X319128Y278768D01*
X319175Y278877D01*
X319191Y278959D01*
X319217Y279038D01*
X319231Y279149D01*
X319652Y279711D01*
X319693Y279778D01*
X319809Y279955D01*
X320141Y280565D01*
X320198Y280609D01*
X320297Y280674D01*
X320356Y280733D01*
X320421Y280784D01*
X320521Y280897D01*
X320582Y280958D01*
X320605Y280992D01*
X320641Y281033D01*
X321150Y281713D01*
X321194Y281784D01*
X321245Y281850D01*
X321297Y281956D01*
X321359Y282057D01*
X321387Y282136D01*
X321424Y282211D01*
X321453Y282318D01*
X321950Y282815D01*
X322000Y282876D01*
X322140Y283034D01*
X322556Y283590D01*
X322617Y283626D01*
X322725Y283676D01*
X322792Y283726D01*
X322864Y283768D01*
X322979Y283865D01*
X323048Y283916D01*
X323076Y283947D01*
X323117Y283982D01*
X323718Y284583D01*
X323771Y284648D01*
X323830Y284706D01*
X323898Y284803D01*
X323973Y284895D01*
X324012Y284968D01*
X324059Y285037D01*
X324103Y285139D01*
X324666Y285560D01*
X324723Y285613D01*
X324885Y285750D01*
X325376Y286241D01*
X325442Y286268D01*
X325555Y286303D01*
X325629Y286342D01*
X325706Y286373D01*
X325834Y286453D01*
X325909Y286494D01*
X325941Y286521D01*
X325987Y286550D01*
X326667Y287059D01*
X326729Y287115D01*
X326797Y287164D01*
X326877Y287251D01*
X326964Y287331D01*
X327014Y287398D01*
X327070Y287460D01*
X327128Y287555D01*
X327745Y287891D01*
X327810Y287936D01*
X327989Y288048D01*
X328545Y288464D01*
X328614Y288481D01*
X328731Y288499D01*
X328809Y288528D01*
X328890Y288548D01*
X329028Y288609D01*
X329109Y288639D01*
X329144Y288660D01*
X329194Y288682D01*
X329939Y289090D01*
X330008Y289137D01*
X330082Y289175D01*
X330174Y289250D01*
X330272Y289317D01*
X330330Y289376D01*
X330395Y289429D01*
X330466Y289515D01*
X330736Y289615D01*
X330772Y289633D01*
X330811Y289645D01*
X330953Y289722D01*
X331097Y289793D01*
X331129Y289817D01*
X331165Y289837D01*
X331289Y289940D01*
X331416Y290038D01*
X331443Y290069D01*
X331475Y290095D01*
X331575Y290220D01*
X331681Y290341D01*
X331701Y290377D01*
X331727Y290408D01*
X331801Y290551D01*
X331881Y290691D01*
X331894Y290730D01*
X331912Y290766D01*
X331957Y290920D01*
X332008Y291073D01*
X332013Y291113D01*
X332024Y291153D01*
X332037Y291313D01*
X332057Y291472D01*
X332053Y291513D01*
X332057Y291554D01*
X332038Y291714D01*
X332026Y291874D01*
X332015Y291913D01*
X332010Y291954D01*
X331960Y292107D01*
X331916Y292261D01*
X331898Y292298D01*
X331885Y292337D01*
X331806Y292477D01*
X331733Y292620D01*
X331707Y292652D01*
X331687Y292687D01*
X331582Y292809D01*
X331482Y292935D01*
X331451Y292961D01*
X331424Y292992D01*
X331297Y293090D01*
X331174Y293194D01*
X331138Y293214D01*
X331106Y293239D01*
X330962Y293310D01*
X330821Y293388D01*
X330782Y293400D01*
X330745Y293418D01*
X330590Y293460D01*
X330437Y293508D01*
X330396Y293512D01*
X330357Y293523D01*
X330072Y293546D01*
X330036Y293550D01*
X330032Y293549D01*
X330026Y293550D01*
X294974Y293550D01*
X294934Y293546D01*
X294893Y293548D01*
X294733Y293526D01*
X294574Y293510D01*
X294535Y293498D01*
X294494Y293492D01*
X294342Y293439D01*
X294189Y293392D01*
X294153Y293372D01*
X294114Y293359D01*
X293976Y293276D01*
X293835Y293200D01*
X293803Y293174D01*
X293768Y293153D01*
X293649Y293045D01*
X293525Y292942D01*
X293500Y292910D01*
X293469Y292883D01*
X293374Y292754D01*
X293273Y292628D01*
X293254Y292592D01*
X293230Y292559D01*
X293161Y292413D01*
X293088Y292271D01*
X293076Y292232D01*
X293059Y292195D01*
X293020Y292038D01*
X292976Y291884D01*
X292973Y291843D01*
X292963Y291804D01*
X292956Y291643D01*
X292943Y291483D01*
X292948Y291442D01*
X292946Y291401D01*
X292971Y291243D01*
X292990Y291083D01*
X293003Y291044D01*
X293009Y291004D01*
X293065Y290853D01*
X293115Y290700D01*
X293135Y290665D01*
X293149Y290626D01*
X293234Y290490D01*
X293313Y290350D01*
X293340Y290319D01*
X293361Y290284D01*
X293471Y290166D01*
X293576Y290045D01*
X293608Y290020D01*
X293636Y289990D01*
X293767Y289896D01*
X293894Y289798D01*
X293931Y289780D01*
X293964Y289756D01*
X294222Y289635D01*
X294255Y289619D01*
X294259Y289618D01*
X294264Y289615D01*
X294526Y289518D01*
X294578Y289468D01*
X294656Y289380D01*
X294723Y289330D01*
X294783Y289272D01*
X294909Y289189D01*
X294978Y289137D01*
X295015Y289119D01*
X295061Y289090D01*
X295806Y288682D01*
X295883Y288650D01*
X295956Y288609D01*
X296068Y288572D01*
X296177Y288525D01*
X296259Y288509D01*
X296338Y288483D01*
X296449Y288469D01*
X297011Y288048D01*
X297078Y288007D01*
X297255Y287891D01*
X297865Y287559D01*
X297909Y287502D01*
X297974Y287403D01*
X298033Y287344D01*
X298084Y287279D01*
X298197Y287179D01*
X298258Y287118D01*
X298292Y287095D01*
X298333Y287059D01*
X299013Y286550D01*
X299084Y286506D01*
X299150Y286455D01*
X299256Y286403D01*
X299357Y286341D01*
X299436Y286313D01*
X299511Y286276D01*
X299618Y286247D01*
X300115Y285750D01*
X300176Y285700D01*
X300334Y285560D01*
X300890Y285144D01*
X300926Y285083D01*
X300976Y284975D01*
X301026Y284908D01*
X301068Y284836D01*
X301165Y284721D01*
X301216Y284652D01*
X301247Y284624D01*
X301282Y284583D01*
X301883Y283982D01*
X301948Y283929D01*
X302006Y283870D01*
X302103Y283802D01*
X302195Y283727D01*
X302268Y283688D01*
X302337Y283641D01*
X302439Y283597D01*
X302860Y283034D01*
X302913Y282977D01*
X303050Y282815D01*
X303541Y282324D01*
X303568Y282258D01*
X303603Y282145D01*
X303642Y282071D01*
X303673Y281994D01*
X303753Y281866D01*
X303794Y281791D01*
X303821Y281759D01*
X303850Y281713D01*
X304359Y281033D01*
X304415Y280971D01*
X304464Y280904D01*
X304551Y280823D01*
X304631Y280736D01*
X304698Y280687D01*
X304759Y280630D01*
X304855Y280572D01*
X305191Y279955D01*
X305236Y279890D01*
X305348Y279711D01*
X305764Y279155D01*
X305781Y279086D01*
X305799Y278969D01*
X305828Y278891D01*
X305848Y278810D01*
X305909Y278672D01*
X305939Y278591D01*
X305960Y278556D01*
X305982Y278506D01*
X306390Y277761D01*
X306437Y277692D01*
X306475Y277618D01*
X306550Y277526D01*
X306617Y277428D01*
X306676Y277370D01*
X306729Y277305D01*
X306815Y277234D01*
X307060Y276575D01*
X307095Y276505D01*
X307181Y276312D01*
X307513Y275703D01*
X307520Y275632D01*
X307522Y275513D01*
X307539Y275431D01*
X307547Y275348D01*
X307588Y275203D01*
X307606Y275119D01*
X307622Y275081D01*
X307637Y275029D01*
X307934Y274233D01*
X307971Y274158D01*
X307999Y274079D01*
X308059Y273978D01*
X308111Y273872D01*
X308162Y273805D01*
X308205Y273734D01*
X308280Y273651D01*
X308429Y272964D01*
X308454Y272889D01*
X308511Y272686D01*
X308753Y272036D01*
X308750Y271964D01*
X308735Y271847D01*
X308740Y271764D01*
X308736Y271681D01*
X308756Y271531D01*
X308762Y271446D01*
X308773Y271405D01*
X308780Y271352D01*
X308961Y270521D01*
X308986Y270442D01*
X309003Y270360D01*
X309048Y270251D01*
X309085Y270138D01*
X309126Y270065D01*
X309158Y269989D01*
X309220Y269896D01*
X309270Y269195D01*
X309283Y269118D01*
X309311Y268909D01*
X309459Y268230D01*
X309445Y268160D01*
X309414Y268046D01*
X309407Y267963D01*
X309391Y267881D01*
X309390Y267731D01*
X309383Y267644D01*
X309389Y267603D01*
X309388Y267549D01*
X309437Y266865D01*
X309463Y266711D01*
X309483Y266557D01*
X309497Y266513D01*
X309505Y266468D01*
X309551Y266351D01*
X309551Y265346D01*
X309557Y265285D01*
X309556Y265201D01*
X309627Y264200D01*
X309618Y264159D01*
X309578Y264008D01*
X309574Y263957D01*
X309565Y263918D01*
X309563Y263831D01*
X309551Y263678D01*
X309551Y191322D01*
X309566Y191167D01*
X309575Y191012D01*
X309586Y190968D01*
X309591Y190922D01*
X309628Y190801D01*
X309556Y189799D01*
X309558Y189738D01*
X309551Y189654D01*
X309551Y188651D01*
X309539Y188610D01*
X309488Y188463D01*
X309480Y188412D01*
X309468Y188374D01*
X309460Y188287D01*
X309437Y188135D01*
X309388Y187451D01*
X309390Y187368D01*
X309389Y187356D01*
X309383Y187284D01*
X309396Y187167D01*
X309399Y187049D01*
X309418Y186967D01*
X309427Y186884D01*
X309461Y186778D01*
X309311Y186091D01*
X309302Y186013D01*
X309270Y185805D01*
X309221Y185112D01*
X309188Y185049D01*
X309125Y184948D01*
X309096Y184870D01*
X309057Y184796D01*
X309013Y184652D01*
X308983Y184571D01*
X308976Y184530D01*
X308961Y184479D01*
X308780Y183648D01*
X308770Y183565D01*
X308751Y183484D01*
X308747Y183366D01*
X308734Y183248D01*
X308741Y183165D01*
X308738Y183082D01*
X308756Y182972D01*
X308511Y182314D01*
X308491Y182238D01*
X308429Y182036D01*
X308282Y181357D01*
X308240Y181299D01*
X308164Y181208D01*
X308123Y181135D01*
X308075Y181067D01*
X308011Y180931D01*
X307969Y180856D01*
X307957Y180816D01*
X307934Y180767D01*
X307637Y179971D01*
X307616Y179890D01*
X307585Y179813D01*
X307567Y179710D01*
X307543Y179625D01*
X307541Y179607D01*
X307534Y179582D01*
X307529Y179498D01*
X307515Y179416D01*
X307517Y179315D01*
X307516Y179303D01*
X307181Y178688D01*
X307150Y178616D01*
X307060Y178425D01*
X306818Y177774D01*
X306768Y177722D01*
X306680Y177644D01*
X306630Y177577D01*
X306572Y177517D01*
X306489Y177391D01*
X306437Y177322D01*
X306419Y177285D01*
X306390Y177239D01*
X305982Y176494D01*
X305950Y176417D01*
X305909Y176344D01*
X305872Y176232D01*
X305825Y176123D01*
X305809Y176041D01*
X305783Y175962D01*
X305769Y175851D01*
X305348Y175289D01*
X305307Y175222D01*
X305191Y175045D01*
X304859Y174435D01*
X304802Y174391D01*
X304703Y174326D01*
X304644Y174267D01*
X304579Y174216D01*
X304479Y174103D01*
X304418Y174042D01*
X304395Y174008D01*
X304359Y173967D01*
X303850Y173287D01*
X303806Y173216D01*
X303755Y173150D01*
X303703Y173044D01*
X303641Y172943D01*
X303613Y172864D01*
X303576Y172789D01*
X303547Y172682D01*
X303050Y172185D01*
X303000Y172124D01*
X302860Y171966D01*
X302444Y171410D01*
X302383Y171374D01*
X302275Y171324D01*
X302208Y171274D01*
X302136Y171232D01*
X302021Y171135D01*
X301952Y171084D01*
X301924Y171053D01*
X301883Y171018D01*
X301282Y170417D01*
X301229Y170352D01*
X301170Y170294D01*
X301102Y170197D01*
X301027Y170105D01*
X300988Y170032D01*
X300941Y169963D01*
X300897Y169861D01*
X300334Y169440D01*
X300277Y169387D01*
X300115Y169250D01*
X299624Y168759D01*
X299558Y168732D01*
X299445Y168697D01*
X299371Y168658D01*
X299294Y168627D01*
X299166Y168547D01*
X299091Y168506D01*
X299059Y168479D01*
X299013Y168450D01*
X298333Y167941D01*
X298271Y167885D01*
X298204Y167836D01*
X298123Y167749D01*
X298036Y167669D01*
X297987Y167602D01*
X297930Y167541D01*
X297872Y167445D01*
X297255Y167109D01*
X297190Y167064D01*
X297011Y166952D01*
X296455Y166536D01*
X296386Y166519D01*
X296269Y166501D01*
X296191Y166472D01*
X296110Y166452D01*
X295972Y166391D01*
X295891Y166361D01*
X295856Y166340D01*
X295806Y166318D01*
X295061Y165910D01*
X294992Y165863D01*
X294918Y165825D01*
X294826Y165750D01*
X294728Y165683D01*
X294670Y165624D01*
X294605Y165571D01*
X294534Y165485D01*
X293875Y165240D01*
X293805Y165205D01*
X293612Y165119D01*
X293003Y164787D01*
X292932Y164780D01*
X292813Y164778D01*
X292731Y164761D01*
X292648Y164753D01*
X292503Y164712D01*
X292419Y164694D01*
X292381Y164678D01*
X292329Y164663D01*
X291533Y164366D01*
X291458Y164329D01*
X291379Y164301D01*
X291278Y164241D01*
X291172Y164189D01*
X291105Y164138D01*
X291034Y164095D01*
X290951Y164020D01*
X290264Y163871D01*
X290189Y163846D01*
X289986Y163789D01*
X289336Y163547D01*
X289264Y163550D01*
X289147Y163565D01*
X289064Y163560D01*
X288981Y163564D01*
X288831Y163544D01*
X288746Y163538D01*
X288705Y163527D01*
X288652Y163520D01*
X287821Y163339D01*
X287742Y163314D01*
X287660Y163297D01*
X287551Y163252D01*
X287438Y163215D01*
X287365Y163174D01*
X287289Y163142D01*
X287196Y163080D01*
X286495Y163030D01*
X286418Y163017D01*
X286209Y162989D01*
X285530Y162841D01*
X285460Y162855D01*
X285346Y162886D01*
X285263Y162893D01*
X285181Y162909D01*
X285031Y162910D01*
X284944Y162917D01*
X284903Y162911D01*
X284849Y162912D01*
X284001Y162851D01*
X283919Y162837D01*
X283836Y162833D01*
X283721Y162803D01*
X283605Y162783D01*
X283527Y162753D01*
X283446Y162732D01*
X283346Y162684D01*
X282645Y162734D01*
X282566Y162731D01*
X282355Y162734D01*
X281662Y162684D01*
X281595Y162708D01*
X281487Y162755D01*
X281405Y162773D01*
X281326Y162801D01*
X281178Y162824D01*
X281094Y162842D01*
X281052Y162843D01*
X280999Y162851D01*
X280151Y162912D01*
X280068Y162910D01*
X279984Y162917D01*
X279867Y162904D01*
X279749Y162901D01*
X279667Y162882D01*
X279584Y162873D01*
X279478Y162839D01*
X278791Y162989D01*
X278713Y162998D01*
X278505Y163030D01*
X277812Y163079D01*
X277749Y163112D01*
X277648Y163175D01*
X277570Y163204D01*
X277496Y163243D01*
X277352Y163287D01*
X277271Y163317D01*
X277230Y163324D01*
X277179Y163339D01*
X276348Y163520D01*
X276265Y163530D01*
X276184Y163549D01*
X276066Y163553D01*
X275948Y163566D01*
X275865Y163559D01*
X275782Y163562D01*
X275672Y163544D01*
X275014Y163789D01*
X274938Y163809D01*
X274736Y163871D01*
X274057Y164018D01*
X273999Y164060D01*
X273908Y164136D01*
X273835Y164177D01*
X273767Y164225D01*
X273631Y164289D01*
X273556Y164331D01*
X273516Y164343D01*
X273467Y164366D01*
X272671Y164663D01*
X272590Y164684D01*
X272513Y164715D01*
X272396Y164735D01*
X272282Y164766D01*
X272198Y164771D01*
X272116Y164785D01*
X272005Y164783D01*
X271388Y165119D01*
X271316Y165150D01*
X271125Y165240D01*
X270474Y165482D01*
X270422Y165532D01*
X270344Y165620D01*
X270277Y165670D01*
X270217Y165728D01*
X270091Y165811D01*
X270022Y165863D01*
X269985Y165881D01*
X269939Y165910D01*
X269194Y166318D01*
X269117Y166350D01*
X269044Y166391D01*
X268932Y166428D01*
X268823Y166475D01*
X268741Y166491D01*
X268662Y166517D01*
X268551Y166531D01*
X267989Y166952D01*
X267922Y166993D01*
X267745Y167109D01*
X267135Y167441D01*
X267091Y167498D01*
X267026Y167597D01*
X266967Y167656D01*
X266916Y167721D01*
X266803Y167821D01*
X266742Y167882D01*
X266708Y167905D01*
X266667Y167941D01*
X265987Y168450D01*
X265916Y168494D01*
X265850Y168545D01*
X265744Y168597D01*
X265642Y168659D01*
X265564Y168687D01*
X265489Y168724D01*
X265382Y168753D01*
X264885Y169250D01*
X264824Y169299D01*
X264666Y169440D01*
X264110Y169856D01*
X264074Y169918D01*
X264024Y170025D01*
X263974Y170091D01*
X263932Y170164D01*
X263835Y170279D01*
X263784Y170348D01*
X263753Y170376D01*
X263718Y170417D01*
X263117Y171018D01*
X263052Y171071D01*
X262994Y171131D01*
X262897Y171198D01*
X262805Y171273D01*
X262732Y171312D01*
X262663Y171359D01*
X262561Y171403D01*
X262140Y171966D01*
X262087Y172024D01*
X261950Y172185D01*
X261459Y172676D01*
X261432Y172742D01*
X261397Y172855D01*
X261358Y172929D01*
X261327Y173006D01*
X261247Y173134D01*
X261206Y173209D01*
X261179Y173241D01*
X261150Y173287D01*
X260641Y173967D01*
X260585Y174029D01*
X260536Y174097D01*
X260449Y174177D01*
X260369Y174264D01*
X260302Y174313D01*
X260240Y174370D01*
X260145Y174428D01*
X259809Y175045D01*
X259764Y175110D01*
X259652Y175289D01*
X259236Y175845D01*
X259219Y175914D01*
X259201Y176031D01*
X259172Y176109D01*
X259152Y176190D01*
X259091Y176328D01*
X259061Y176409D01*
X259040Y176444D01*
X259018Y176494D01*
X258610Y177239D01*
X258563Y177308D01*
X258525Y177382D01*
X258450Y177474D01*
X258383Y177572D01*
X258324Y177630D01*
X258271Y177695D01*
X258185Y177766D01*
X257940Y178424D01*
X257905Y178495D01*
X257819Y178688D01*
X257490Y179291D01*
X257490Y179295D01*
X257480Y179385D01*
X257478Y179487D01*
X257461Y179569D01*
X257453Y179652D01*
X257445Y179680D01*
X257443Y179695D01*
X257425Y179751D01*
X257412Y179797D01*
X257394Y179881D01*
X257378Y179919D01*
X257363Y179971D01*
X257066Y180767D01*
X257029Y180842D01*
X257001Y180921D01*
X256941Y181022D01*
X256889Y181128D01*
X256838Y181195D01*
X256795Y181266D01*
X256720Y181349D01*
X256571Y182036D01*
X256546Y182111D01*
X256489Y182314D01*
X256247Y182964D01*
X256250Y183036D01*
X256265Y183153D01*
X256260Y183236D01*
X256264Y183319D01*
X256244Y183469D01*
X256238Y183554D01*
X256227Y183594D01*
X256220Y183648D01*
X256039Y184479D01*
X256014Y184558D01*
X255997Y184640D01*
X255952Y184749D01*
X255915Y184862D01*
X255874Y184934D01*
X255842Y185011D01*
X255780Y185104D01*
X255730Y185805D01*
X255717Y185882D01*
X255689Y186091D01*
X255541Y186770D01*
X255555Y186840D01*
X255586Y186954D01*
X255593Y187037D01*
X255609Y187119D01*
X255610Y187269D01*
X255617Y187356D01*
X255611Y187397D01*
X255612Y187451D01*
X255563Y188135D01*
X255537Y188288D01*
X255517Y188443D01*
X255503Y188487D01*
X255495Y188532D01*
X255449Y188649D01*
X255449Y189654D01*
X255443Y189715D01*
X255444Y189799D01*
X255373Y190800D01*
X255382Y190841D01*
X255422Y190992D01*
X255426Y191043D01*
X255435Y191082D01*
X255437Y191169D01*
X255449Y191322D01*
X255449Y263678D01*
X255434Y263833D01*
X255425Y263988D01*
X255414Y264032D01*
X255409Y264078D01*
X255372Y264199D01*
X255444Y265201D01*
X255442Y265262D01*
X255449Y265346D01*
X255449Y266349D01*
X255461Y266390D01*
X255512Y266537D01*
X255520Y266588D01*
X255532Y266626D01*
X255540Y266713D01*
X255563Y266865D01*
X255612Y267549D01*
X255610Y267632D01*
X255617Y267716D01*
X255604Y267833D01*
X255601Y267951D01*
X255582Y268033D01*
X255573Y268116D01*
X255539Y268222D01*
X255689Y268909D01*
X255698Y268987D01*
X255730Y269195D01*
X255779Y269888D01*
X255812Y269951D01*
X255875Y270052D01*
X255904Y270130D01*
X255943Y270204D01*
X255987Y270348D01*
X256017Y270429D01*
X256024Y270470D01*
X256039Y270521D01*
X256220Y271352D01*
X256230Y271435D01*
X256249Y271516D01*
X256253Y271634D01*
X256266Y271752D01*
X256259Y271835D01*
X256262Y271918D01*
X256244Y272028D01*
X256489Y272686D01*
X256509Y272762D01*
X256571Y272964D01*
X256718Y273643D01*
X256760Y273701D01*
X256836Y273792D01*
X256877Y273865D01*
X256925Y273933D01*
X256989Y274069D01*
X257031Y274144D01*
X257043Y274184D01*
X257066Y274233D01*
X257363Y275029D01*
X257384Y275110D01*
X257415Y275187D01*
X257435Y275304D01*
X257466Y275418D01*
X257471Y275502D01*
X257485Y275584D01*
X257483Y275695D01*
X257819Y276312D01*
X257850Y276384D01*
X257940Y276575D01*
X258182Y277226D01*
X258232Y277278D01*
X258320Y277356D01*
X258370Y277423D01*
X258428Y277483D01*
X258511Y277609D01*
X258563Y277678D01*
X258581Y277715D01*
X258610Y277761D01*
X259018Y278506D01*
X259050Y278583D01*
X259091Y278656D01*
X259128Y278768D01*
X259175Y278877D01*
X259191Y278959D01*
X259217Y279038D01*
X259231Y279149D01*
X259652Y279711D01*
X259693Y279778D01*
X259809Y279955D01*
X260141Y280564D01*
X260198Y280609D01*
X260296Y280674D01*
X260356Y280733D01*
X260421Y280784D01*
X260521Y280897D01*
X260582Y280957D01*
X260605Y280992D01*
X260641Y281033D01*
X261150Y281713D01*
X261194Y281784D01*
X261245Y281850D01*
X261297Y281956D01*
X261359Y282058D01*
X261387Y282136D01*
X261424Y282211D01*
X261453Y282318D01*
X261950Y282815D01*
X262000Y282876D01*
X262140Y283034D01*
X262556Y283590D01*
X262617Y283626D01*
X262724Y283676D01*
X262791Y283726D01*
X262864Y283768D01*
X262979Y283865D01*
X263048Y283916D01*
X263076Y283947D01*
X263117Y283982D01*
X263718Y284583D01*
X263771Y284648D01*
X263831Y284706D01*
X263898Y284803D01*
X263973Y284895D01*
X264012Y284968D01*
X264059Y285037D01*
X264103Y285139D01*
X264666Y285560D01*
X264724Y285613D01*
X264885Y285750D01*
X265376Y286241D01*
X265442Y286268D01*
X265555Y286303D01*
X265629Y286342D01*
X265706Y286373D01*
X265834Y286453D01*
X265909Y286494D01*
X265941Y286521D01*
X265987Y286550D01*
X266667Y287059D01*
X266729Y287115D01*
X266797Y287164D01*
X266877Y287251D01*
X266964Y287331D01*
X267013Y287398D01*
X267070Y287460D01*
X267128Y287555D01*
X267745Y287891D01*
X267810Y287936D01*
X267989Y288048D01*
X268545Y288464D01*
X268614Y288481D01*
X268731Y288499D01*
X268809Y288528D01*
X268890Y288548D01*
X269028Y288609D01*
X269109Y288639D01*
X269144Y288660D01*
X269194Y288682D01*
X269939Y289090D01*
X270008Y289137D01*
X270082Y289175D01*
X270174Y289250D01*
X270272Y289317D01*
X270330Y289376D01*
X270395Y289429D01*
X270466Y289515D01*
X270736Y289615D01*
X270772Y289633D01*
X270811Y289645D01*
X270953Y289722D01*
X271097Y289793D01*
X271129Y289817D01*
X271165Y289837D01*
X271289Y289940D01*
X271416Y290038D01*
X271443Y290069D01*
X271475Y290095D01*
X271575Y290220D01*
X271681Y290341D01*
X271701Y290377D01*
X271727Y290408D01*
X271801Y290551D01*
X271881Y290691D01*
X271894Y290730D01*
X271912Y290766D01*
X271957Y290920D01*
X272008Y291073D01*
X272013Y291113D01*
X272024Y291153D01*
X272037Y291313D01*
X272057Y291472D01*
X272053Y291513D01*
X272057Y291554D01*
X272038Y291714D01*
X272026Y291874D01*
X272015Y291913D01*
X272010Y291954D01*
X271960Y292107D01*
X271916Y292261D01*
X271898Y292298D01*
X271885Y292337D01*
X271806Y292477D01*
X271733Y292620D01*
X271707Y292652D01*
X271687Y292687D01*
X271582Y292809D01*
X271482Y292935D01*
X271451Y292961D01*
X271424Y292992D01*
X271297Y293090D01*
X271174Y293194D01*
X271138Y293214D01*
X271106Y293239D01*
X270962Y293310D01*
X270821Y293388D01*
X270782Y293400D01*
X270745Y293418D01*
X270590Y293460D01*
X270437Y293508D01*
X270396Y293512D01*
X270357Y293523D01*
X270072Y293546D01*
X270036Y293550D01*
X270032Y293549D01*
X270026Y293550D01*
X265165Y293550D01*
X265138Y293547D01*
X265112Y293549D01*
X264938Y293527D01*
X264764Y293510D01*
X264739Y293502D01*
X264712Y293499D01*
X264546Y293443D01*
X264379Y293392D01*
X264356Y293379D01*
X264330Y293370D01*
X264179Y293283D01*
X264025Y293200D01*
X264005Y293183D01*
X263982Y293169D01*
X263729Y292955D01*
X236678Y265904D01*
X236661Y265883D01*
X236640Y265866D01*
X236533Y265728D01*
X236423Y265592D01*
X236410Y265569D01*
X236394Y265548D01*
X236316Y265391D01*
X236234Y265237D01*
X236226Y265211D01*
X236214Y265187D01*
X236169Y265018D01*
X236119Y264851D01*
X236117Y264824D01*
X236110Y264798D01*
X236083Y264467D01*
X236083Y247188D01*
X235461Y245687D01*
X220428Y230654D01*
X220411Y230633D01*
X220390Y230616D01*
X220283Y230478D01*
X220173Y230342D01*
X220160Y230319D01*
X220144Y230298D01*
X220066Y230141D01*
X219984Y229987D01*
X219976Y229961D01*
X219964Y229937D01*
X219919Y229768D01*
X219869Y229601D01*
X219867Y229574D01*
X219860Y229548D01*
X219833Y229217D01*
X219833Y226840D01*
X218945Y224696D01*
X217304Y223055D01*
X215160Y222167D01*
X212840Y222167D01*
X210696Y223055D01*
X210050Y223701D01*
X210043Y223707D01*
X210038Y223713D01*
X209889Y223833D01*
X209739Y223956D01*
X209731Y223960D01*
X209724Y223966D01*
X209554Y224054D01*
X209383Y224145D01*
X209374Y224147D01*
X209367Y224151D01*
X209182Y224204D01*
X208997Y224259D01*
X208988Y224260D01*
X208980Y224263D01*
X208789Y224278D01*
X208596Y224296D01*
X208587Y224295D01*
X208578Y224296D01*
X208389Y224273D01*
X208196Y224252D01*
X208187Y224250D01*
X208179Y224249D01*
X207996Y224189D01*
X207812Y224131D01*
X207804Y224127D01*
X207796Y224124D01*
X207627Y224029D01*
X207460Y223936D01*
X207453Y223930D01*
X207445Y223926D01*
X207299Y223799D01*
X207153Y223676D01*
X207147Y223669D01*
X207140Y223663D01*
X207022Y223510D01*
X206903Y223360D01*
X206899Y223352D01*
X206894Y223345D01*
X206808Y223173D01*
X206721Y223001D01*
X206718Y222992D01*
X206714Y222984D01*
X206665Y222799D01*
X206613Y222613D01*
X206612Y222604D01*
X206610Y222595D01*
X206583Y222265D01*
X206583Y206582D01*
X206585Y206564D01*
X206583Y206546D01*
X206604Y206364D01*
X206623Y206181D01*
X206628Y206164D01*
X206630Y206147D01*
X206687Y205972D01*
X206741Y205796D01*
X206749Y205781D01*
X206755Y205764D01*
X206845Y205604D01*
X206933Y205442D01*
X206944Y205429D01*
X206953Y205413D01*
X207073Y205274D01*
X207190Y205133D01*
X207204Y205122D01*
X207216Y205108D01*
X207361Y204996D01*
X207504Y204881D01*
X207520Y204873D01*
X207534Y204862D01*
X207699Y204780D01*
X207861Y204695D01*
X207878Y204690D01*
X207894Y204682D01*
X208073Y204635D01*
X208248Y204584D01*
X208266Y204582D01*
X208283Y204578D01*
X208614Y204551D01*
X210849Y204551D01*
X212051Y203349D01*
X212051Y191572D01*
X212053Y191554D01*
X212051Y191536D01*
X212072Y191354D01*
X212091Y191171D01*
X212096Y191154D01*
X212098Y191137D01*
X212155Y190962D01*
X212209Y190786D01*
X212217Y190771D01*
X212223Y190754D01*
X212313Y190594D01*
X212401Y190432D01*
X212412Y190419D01*
X212421Y190403D01*
X212541Y190264D01*
X212658Y190123D01*
X212672Y190112D01*
X212684Y190098D01*
X212829Y189986D01*
X212972Y189871D01*
X212988Y189863D01*
X213002Y189852D01*
X213167Y189770D01*
X213329Y189685D01*
X213346Y189680D01*
X213362Y189672D01*
X213541Y189625D01*
X213716Y189574D01*
X213734Y189572D01*
X213751Y189568D01*
X214082Y189541D01*
X246052Y189541D01*
X247541Y188052D01*
X247541Y165948D01*
X246052Y164459D01*
X234082Y164459D01*
X234064Y164457D01*
X234046Y164459D01*
X233864Y164438D01*
X233681Y164419D01*
X233664Y164414D01*
X233647Y164412D01*
X233472Y164355D01*
X233296Y164301D01*
X233281Y164293D01*
X233264Y164287D01*
X233104Y164197D01*
X232942Y164109D01*
X232929Y164098D01*
X232913Y164089D01*
X232774Y163969D01*
X232633Y163852D01*
X232622Y163838D01*
X232608Y163826D01*
X232496Y163681D01*
X232381Y163538D01*
X232373Y163522D01*
X232362Y163508D01*
X232280Y163343D01*
X232195Y163181D01*
X232190Y163164D01*
X232182Y163148D01*
X232134Y162969D01*
X232084Y162794D01*
X232082Y162776D01*
X232078Y162759D01*
X232051Y162428D01*
X232051Y151151D01*
X230849Y149949D01*
X228614Y149949D01*
X228596Y149947D01*
X228578Y149949D01*
X228396Y149928D01*
X228213Y149909D01*
X228196Y149904D01*
X228179Y149902D01*
X228004Y149845D01*
X227828Y149791D01*
X227813Y149783D01*
X227796Y149777D01*
X227636Y149687D01*
X227474Y149599D01*
X227461Y149588D01*
X227445Y149579D01*
X227306Y149459D01*
X227165Y149342D01*
X227154Y149328D01*
X227140Y149316D01*
X227028Y149171D01*
X226913Y149028D01*
X226905Y149012D01*
X226894Y148998D01*
X226812Y148833D01*
X226727Y148671D01*
X226722Y148654D01*
X226714Y148638D01*
X226667Y148459D01*
X226616Y148284D01*
X226614Y148266D01*
X226610Y148249D01*
X226583Y147918D01*
X226583Y147533D01*
X226585Y147506D01*
X226583Y147479D01*
X226605Y147305D01*
X226623Y147132D01*
X226630Y147106D01*
X226634Y147080D01*
X226689Y146914D01*
X226741Y146747D01*
X226754Y146723D01*
X226762Y146698D01*
X226849Y146546D01*
X226933Y146393D01*
X226950Y146372D01*
X226963Y146349D01*
X227178Y146096D01*
X231096Y142178D01*
X231117Y142161D01*
X231134Y142140D01*
X231272Y142033D01*
X231408Y141923D01*
X231431Y141910D01*
X231452Y141894D01*
X231609Y141816D01*
X231763Y141734D01*
X231789Y141726D01*
X231813Y141714D01*
X231982Y141669D01*
X232149Y141619D01*
X232176Y141617D01*
X232202Y141610D01*
X232533Y141583D01*
X377967Y141583D01*
X377994Y141585D01*
X378021Y141583D01*
X378195Y141605D01*
X378368Y141623D01*
X378394Y141630D01*
X378420Y141634D01*
X378586Y141689D01*
X378753Y141741D01*
X378777Y141754D01*
X378802Y141762D01*
X378954Y141849D01*
X379107Y141933D01*
X379128Y141950D01*
X379151Y141963D01*
X379404Y142178D01*
X434354Y197128D01*
X434371Y197149D01*
X434392Y197166D01*
X434499Y197304D01*
X434609Y197440D01*
X434622Y197463D01*
X434638Y197484D01*
X434716Y197641D01*
X434798Y197795D01*
X434806Y197821D01*
X434818Y197845D01*
X434863Y198014D01*
X434913Y198181D01*
X434915Y198208D01*
X434922Y198234D01*
X434949Y198564D01*
X434949Y213542D01*
X434984Y213607D01*
X434986Y213616D01*
X434990Y213624D01*
X435044Y213808D01*
X435099Y213993D01*
X435099Y214002D01*
X435102Y214011D01*
X435118Y214202D01*
X435135Y214394D01*
X435134Y214403D01*
X435135Y214412D01*
X435113Y214602D01*
X435092Y214794D01*
X435089Y214803D01*
X435088Y214812D01*
X435028Y214994D01*
X434999Y215086D01*
X434999Y228449D01*
X440541Y228449D01*
X440541Y218614D01*
X440368Y217968D01*
X440154Y217598D01*
X440094Y217464D01*
X440026Y217335D01*
X440011Y217281D01*
X439988Y217231D01*
X439955Y217088D01*
X439915Y216948D01*
X439910Y216892D01*
X439898Y216838D01*
X439894Y216692D01*
X439882Y216546D01*
X439888Y216491D01*
X439887Y216436D01*
X439912Y216292D01*
X439929Y216147D01*
X439946Y216094D01*
X439956Y216039D01*
X440008Y215903D01*
X440054Y215764D01*
X440081Y215715D01*
X440101Y215664D01*
X440180Y215541D01*
X440252Y215413D01*
X440288Y215371D01*
X440318Y215324D01*
X440419Y215219D01*
X440515Y215108D01*
X440559Y215075D01*
X440597Y215035D01*
X440717Y214951D01*
X440833Y214862D01*
X440882Y214837D01*
X440928Y214805D01*
X441062Y214748D01*
X441193Y214682D01*
X441247Y214668D01*
X441298Y214646D01*
X441441Y214616D01*
X441582Y214578D01*
X441645Y214573D01*
X441692Y214563D01*
X441776Y214562D01*
X441913Y214551D01*
X449849Y214551D01*
X451051Y213349D01*
X451051Y186651D01*
X449849Y185449D01*
X435866Y185449D01*
X435745Y185483D01*
X435570Y185535D01*
X435552Y185537D01*
X435535Y185542D01*
X435352Y185555D01*
X435169Y185572D01*
X435151Y185570D01*
X435134Y185571D01*
X434952Y185548D01*
X434769Y185528D01*
X434752Y185523D01*
X434734Y185521D01*
X434561Y185462D01*
X434385Y185407D01*
X434369Y185398D01*
X434352Y185392D01*
X434193Y185300D01*
X434033Y185212D01*
X434019Y185200D01*
X434004Y185191D01*
X433751Y184977D01*
X426236Y177462D01*
X426230Y177455D01*
X426224Y177450D01*
X426103Y177300D01*
X425981Y177151D01*
X425977Y177143D01*
X425971Y177136D01*
X425882Y176965D01*
X425792Y176795D01*
X425790Y176787D01*
X425786Y176779D01*
X425732Y176592D01*
X425678Y176409D01*
X425677Y176400D01*
X425674Y176392D01*
X425659Y176199D01*
X425641Y176008D01*
X425642Y175999D01*
X425642Y175990D01*
X425664Y175801D01*
X425685Y175608D01*
X425687Y175599D01*
X425688Y175591D01*
X425748Y175409D01*
X425806Y175224D01*
X425810Y175216D01*
X425813Y175208D01*
X425908Y175039D01*
X426001Y174872D01*
X426007Y174865D01*
X426011Y174857D01*
X426137Y174711D01*
X426261Y174565D01*
X426269Y174559D01*
X426274Y174552D01*
X426426Y174435D01*
X426577Y174315D01*
X426585Y174311D01*
X426592Y174306D01*
X426765Y174220D01*
X426936Y174133D01*
X426945Y174130D01*
X426953Y174126D01*
X427139Y174076D01*
X427324Y174025D01*
X427333Y174024D01*
X427342Y174022D01*
X427672Y173995D01*
X429322Y173995D01*
X431466Y173107D01*
X433107Y171466D01*
X433995Y169322D01*
X433995Y167002D01*
X433107Y164858D01*
X431466Y163217D01*
X429322Y162329D01*
X428945Y162329D01*
X428918Y162327D01*
X428891Y162329D01*
X428717Y162307D01*
X428544Y162289D01*
X428518Y162282D01*
X428492Y162278D01*
X428326Y162223D01*
X428159Y162171D01*
X428135Y162158D01*
X428110Y162150D01*
X427958Y162063D01*
X427805Y161979D01*
X427784Y161962D01*
X427761Y161949D01*
X427508Y161734D01*
X389813Y124039D01*
X388312Y123417D01*
X312367Y123417D01*
X312295Y123410D01*
X312221Y123412D01*
X312094Y123390D01*
X311967Y123377D01*
X311897Y123356D01*
X311825Y123343D01*
X311705Y123297D01*
X311582Y123259D01*
X311518Y123224D01*
X311449Y123198D01*
X311341Y123129D01*
X311228Y123067D01*
X311172Y123021D01*
X311110Y122981D01*
X311017Y122892D01*
X310919Y122810D01*
X310873Y122753D01*
X310820Y122702D01*
X310747Y122596D01*
X310666Y122496D01*
X310633Y122431D01*
X310591Y122371D01*
X310540Y122252D01*
X310481Y122139D01*
X310461Y122068D01*
X310431Y122001D01*
X310405Y121875D01*
X310369Y121752D01*
X310363Y121679D01*
X310348Y121607D01*
X310347Y121479D01*
X310336Y121350D01*
X310345Y121278D01*
X310344Y121204D01*
X310368Y121078D01*
X310383Y120951D01*
X310406Y120881D01*
X310420Y120809D01*
X310468Y120690D01*
X310508Y120568D01*
X310544Y120504D01*
X310572Y120436D01*
X310643Y120329D01*
X310706Y120217D01*
X310754Y120162D01*
X310795Y120101D01*
X310885Y120010D01*
X310969Y119913D01*
X311027Y119868D01*
X311079Y119816D01*
X311219Y119719D01*
X311287Y119666D01*
X311317Y119651D01*
X311352Y119627D01*
X319064Y115175D01*
X326888Y106741D01*
X331880Y96376D01*
X333595Y85000D01*
X331880Y73624D01*
X326888Y63259D01*
X319064Y54825D01*
X311352Y50373D01*
X311292Y50330D01*
X311228Y50295D01*
X311129Y50213D01*
X311025Y50138D01*
X310975Y50085D01*
X310919Y50038D01*
X310838Y49938D01*
X310750Y49843D01*
X310712Y49781D01*
X310666Y49724D01*
X310607Y49610D01*
X310540Y49500D01*
X310514Y49432D01*
X310481Y49367D01*
X310445Y49243D01*
X310401Y49123D01*
X310390Y49050D01*
X310369Y48980D01*
X310359Y48851D01*
X310339Y48725D01*
X310342Y48652D01*
X310336Y48578D01*
X310351Y48451D01*
X310357Y48322D01*
X310375Y48251D01*
X310383Y48179D01*
X310423Y48056D01*
X310454Y47932D01*
X310485Y47866D01*
X310508Y47796D01*
X310571Y47684D01*
X310626Y47568D01*
X310670Y47509D01*
X310706Y47445D01*
X310790Y47348D01*
X310867Y47245D01*
X310921Y47196D01*
X310969Y47140D01*
X311071Y47062D01*
X311166Y46976D01*
X311230Y46939D01*
X311287Y46894D01*
X311402Y46837D01*
X311513Y46771D01*
X311582Y46747D01*
X311648Y46714D01*
X311772Y46681D01*
X311893Y46639D01*
X311966Y46629D01*
X312037Y46610D01*
X312206Y46596D01*
X312292Y46584D01*
X312325Y46586D01*
X312367Y46583D01*
X414142Y46583D01*
X414165Y46585D01*
G37*
G36*
X286058Y165050D02*
X286058Y165050D01*
X286059Y165050D01*
X289544Y165808D01*
X289545Y165808D01*
X292887Y167055D01*
X292888Y167055D01*
X296018Y168764D01*
X296019Y168765D01*
X298875Y170902D01*
X298875Y170903D01*
X301397Y173425D01*
X301398Y173425D01*
X303535Y176281D01*
X303535Y176282D01*
X303536Y176282D01*
X305245Y179412D01*
X305245Y179413D01*
X306492Y182755D01*
X306492Y182756D01*
X307250Y186241D01*
X307250Y186242D01*
X307251Y186242D01*
X307253Y186274D01*
X307254Y186289D01*
X307256Y186314D01*
X307257Y186329D01*
X307260Y186369D01*
X307262Y186408D01*
X307265Y186448D01*
X307268Y186488D01*
X307271Y186528D01*
X307272Y186543D01*
X307275Y186582D01*
X307278Y186622D01*
X307281Y186662D01*
X307283Y186702D01*
X307286Y186741D01*
X307287Y186756D01*
X307290Y186796D01*
X307293Y186836D01*
X307296Y186875D01*
X307296Y186876D01*
X307299Y186915D01*
X307302Y186955D01*
X307303Y186970D01*
X307305Y187010D01*
X307308Y187049D01*
X307311Y187089D01*
X307314Y187129D01*
X307317Y187169D01*
X307318Y187184D01*
X307321Y187223D01*
X307324Y187263D01*
X307326Y187303D01*
X307329Y187343D01*
X307332Y187382D01*
X307333Y187397D01*
X307336Y187437D01*
X307339Y187477D01*
X307342Y187516D01*
X307342Y187517D01*
X307345Y187556D01*
X307347Y187596D01*
X307348Y187611D01*
X307351Y187651D01*
X307354Y187690D01*
X307357Y187730D01*
X307360Y187770D01*
X307363Y187810D01*
X307364Y187825D01*
X307367Y187864D01*
X307369Y187904D01*
X307372Y187944D01*
X307375Y187984D01*
X307378Y188023D01*
X307379Y188038D01*
X307382Y188078D01*
X307385Y188118D01*
X307388Y188157D01*
X307390Y188197D01*
X307393Y188237D01*
X307394Y188252D01*
X307397Y188292D01*
X307400Y188331D01*
X307403Y188371D01*
X307406Y188411D01*
X307408Y188451D01*
X307409Y188451D01*
X307408Y188451D01*
X307410Y188466D01*
X307412Y188505D01*
X307415Y188545D01*
X307418Y188585D01*
X307421Y188624D01*
X307421Y188625D01*
X307424Y188664D01*
X307425Y188679D01*
X307428Y188719D01*
X307431Y188759D01*
X307433Y188798D01*
X307436Y188838D01*
X307439Y188878D01*
X307440Y188893D01*
X307443Y188933D01*
X307446Y188972D01*
X307449Y189012D01*
X307451Y189052D01*
X307452Y189052D01*
X307451Y189052D01*
X307454Y189092D01*
X307455Y189106D01*
X307455Y189107D01*
X307458Y189146D01*
X307461Y189186D01*
X307464Y189226D01*
X307467Y189265D01*
X307467Y189266D01*
X307470Y189305D01*
X307471Y189320D01*
X307474Y189360D01*
X307476Y189400D01*
X307479Y189439D01*
X307482Y189479D01*
X307485Y189519D01*
X307486Y189534D01*
X307489Y189574D01*
X307492Y189613D01*
X307494Y189653D01*
X307495Y189653D01*
X307494Y189653D01*
X307497Y189693D01*
X307500Y189733D01*
X307501Y189747D01*
X307504Y189787D01*
X307505Y189800D01*
X307505Y265200D01*
X307251Y268758D01*
X307250Y268759D01*
X306492Y272244D01*
X306492Y272245D01*
X305245Y275587D01*
X305245Y275588D01*
X303536Y278718D01*
X303535Y278719D01*
X301398Y281575D01*
X301397Y281575D01*
X298875Y284097D01*
X298875Y284098D01*
X296019Y286235D01*
X296018Y286236D01*
X292888Y287945D01*
X292887Y287945D01*
X289545Y289192D01*
X289544Y289192D01*
X286059Y289950D01*
X286058Y289950D01*
X286058Y289951D01*
X286025Y289953D01*
X285956Y289958D01*
X285886Y289963D01*
X285817Y289968D01*
X285747Y289973D01*
X285678Y289978D01*
X285608Y289983D01*
X285539Y289988D01*
X285469Y289993D01*
X285400Y289998D01*
X285330Y290003D01*
X285261Y290008D01*
X285191Y290013D01*
X285122Y290017D01*
X285053Y290022D01*
X285052Y290022D01*
X284983Y290027D01*
X284914Y290032D01*
X284913Y290032D01*
X284844Y290037D01*
X284775Y290042D01*
X284705Y290047D01*
X284636Y290052D01*
X284566Y290057D01*
X284497Y290062D01*
X284427Y290067D01*
X284358Y290072D01*
X284288Y290077D01*
X284219Y290082D01*
X284149Y290087D01*
X284080Y290092D01*
X284010Y290097D01*
X283941Y290102D01*
X283872Y290107D01*
X283871Y290107D01*
X283802Y290112D01*
X283733Y290117D01*
X283732Y290117D01*
X283663Y290122D01*
X283594Y290127D01*
X283524Y290132D01*
X283455Y290137D01*
X283385Y290142D01*
X283316Y290147D01*
X283246Y290152D01*
X283177Y290157D01*
X283107Y290162D01*
X283038Y290167D01*
X282968Y290172D01*
X282899Y290176D01*
X282829Y290181D01*
X282760Y290186D01*
X282690Y290191D01*
X282621Y290196D01*
X282552Y290201D01*
X282551Y290201D01*
X282500Y290205D01*
X282449Y290201D01*
X282448Y290201D01*
X282379Y290196D01*
X282310Y290191D01*
X282240Y290186D01*
X282171Y290181D01*
X282101Y290176D01*
X282032Y290172D01*
X281962Y290167D01*
X281893Y290162D01*
X281823Y290157D01*
X281754Y290152D01*
X281684Y290147D01*
X281615Y290142D01*
X281545Y290137D01*
X281476Y290132D01*
X281406Y290127D01*
X281337Y290122D01*
X281268Y290117D01*
X281267Y290117D01*
X281198Y290112D01*
X281129Y290107D01*
X281128Y290107D01*
X281059Y290102D01*
X280990Y290097D01*
X280920Y290092D01*
X280851Y290087D01*
X280781Y290082D01*
X280712Y290077D01*
X280642Y290072D01*
X280573Y290067D01*
X280503Y290062D01*
X280434Y290057D01*
X280364Y290052D01*
X280295Y290047D01*
X280225Y290042D01*
X280156Y290037D01*
X280087Y290032D01*
X280086Y290032D01*
X280017Y290027D01*
X279948Y290022D01*
X279947Y290022D01*
X279878Y290017D01*
X279809Y290013D01*
X279739Y290008D01*
X279670Y290003D01*
X279600Y289998D01*
X279531Y289993D01*
X279461Y289988D01*
X279392Y289983D01*
X279322Y289978D01*
X279253Y289973D01*
X279183Y289968D01*
X279114Y289963D01*
X279044Y289958D01*
X278975Y289953D01*
X278942Y289951D01*
X278941Y289950D01*
X275456Y289192D01*
X275455Y289192D01*
X272113Y287945D01*
X272112Y287945D01*
X268982Y286236D01*
X268981Y286235D01*
X266125Y284098D01*
X266125Y284097D01*
X263603Y281575D01*
X263602Y281575D01*
X261465Y278719D01*
X261464Y278718D01*
X259755Y275588D01*
X259755Y275587D01*
X258508Y272245D01*
X258508Y272244D01*
X257750Y268759D01*
X257750Y268758D01*
X257748Y268742D01*
X257746Y268702D01*
X257745Y268702D01*
X257746Y268702D01*
X257744Y268687D01*
X257743Y268662D01*
X257742Y268647D01*
X257739Y268608D01*
X257736Y268568D01*
X257733Y268528D01*
X257730Y268489D01*
X257730Y268488D01*
X257727Y268449D01*
X257726Y268434D01*
X257723Y268394D01*
X257721Y268354D01*
X257718Y268315D01*
X257715Y268275D01*
X257712Y268235D01*
X257711Y268220D01*
X257708Y268180D01*
X257705Y268141D01*
X257703Y268101D01*
X257702Y268101D01*
X257703Y268101D01*
X257700Y268061D01*
X257697Y268021D01*
X257696Y268007D01*
X257696Y268006D01*
X257693Y267967D01*
X257690Y267927D01*
X257687Y267887D01*
X257684Y267848D01*
X257684Y267847D01*
X257682Y267808D01*
X257680Y267793D01*
X257678Y267753D01*
X257675Y267713D01*
X257672Y267674D01*
X257669Y267634D01*
X257666Y267594D01*
X257665Y267579D01*
X257662Y267539D01*
X257660Y267500D01*
X257659Y267500D01*
X257660Y267500D01*
X257657Y267460D01*
X257654Y267420D01*
X257651Y267380D01*
X257650Y267366D01*
X257647Y267326D01*
X257644Y267286D01*
X257641Y267246D01*
X257639Y267207D01*
X257636Y267167D01*
X257635Y267152D01*
X257632Y267112D01*
X257629Y267072D01*
X257626Y267033D01*
X257623Y266993D01*
X257620Y266953D01*
X257619Y266938D01*
X257617Y266899D01*
X257616Y266898D01*
X257617Y266898D01*
X257614Y266859D01*
X257611Y266819D01*
X257608Y266779D01*
X257605Y266740D01*
X257605Y266739D01*
X257604Y266725D01*
X257601Y266685D01*
X257598Y266645D01*
X257596Y266605D01*
X257593Y266566D01*
X257590Y266526D01*
X257589Y266511D01*
X257586Y266471D01*
X257583Y266431D01*
X257580Y266392D01*
X257577Y266352D01*
X257575Y266312D01*
X257574Y266297D01*
X257573Y266297D01*
X257571Y266258D01*
X257571Y266257D01*
X257568Y266218D01*
X257565Y266178D01*
X257562Y266138D01*
X257559Y266099D01*
X257559Y266098D01*
X257558Y266084D01*
X257555Y266044D01*
X257553Y266004D01*
X257550Y265964D01*
X257547Y265925D01*
X257544Y265885D01*
X257543Y265870D01*
X257540Y265830D01*
X257537Y265790D01*
X257534Y265751D01*
X257532Y265711D01*
X257529Y265671D01*
X257528Y265656D01*
X257525Y265617D01*
X257522Y265577D01*
X257519Y265537D01*
X257516Y265497D01*
X257513Y265458D01*
X257512Y265443D01*
X257510Y265403D01*
X257507Y265363D01*
X257504Y265323D01*
X257501Y265284D01*
X257498Y265244D01*
X257497Y265229D01*
X257495Y265200D01*
X257495Y189800D01*
X257750Y186242D01*
X257750Y186241D01*
X258508Y182756D01*
X258508Y182755D01*
X259755Y179413D01*
X259755Y179412D01*
X261464Y176282D01*
X261465Y176281D01*
X263602Y173425D01*
X263603Y173425D01*
X266125Y170903D01*
X266125Y170902D01*
X268981Y168765D01*
X268982Y168765D01*
X268982Y168764D01*
X272112Y167055D01*
X272113Y167055D01*
X275455Y165808D01*
X275456Y165808D01*
X278941Y165050D01*
X278942Y165050D01*
X282500Y164795D01*
X286058Y165050D01*
G37*
G36*
X346058Y165050D02*
X346058Y165050D01*
X346059Y165050D01*
X349544Y165808D01*
X349545Y165808D01*
X352887Y167055D01*
X352888Y167055D01*
X356018Y168764D01*
X356019Y168765D01*
X358875Y170902D01*
X358875Y170903D01*
X361397Y173425D01*
X361398Y173425D01*
X363535Y176281D01*
X363535Y176282D01*
X363536Y176282D01*
X365245Y179412D01*
X365245Y179413D01*
X366492Y182755D01*
X366492Y182756D01*
X367250Y186241D01*
X367250Y186242D01*
X367251Y186242D01*
X367253Y186274D01*
X367254Y186289D01*
X367256Y186314D01*
X367257Y186329D01*
X367260Y186369D01*
X367262Y186408D01*
X367265Y186448D01*
X367268Y186488D01*
X367271Y186528D01*
X367272Y186543D01*
X367275Y186582D01*
X367278Y186622D01*
X367281Y186662D01*
X367283Y186702D01*
X367286Y186741D01*
X367287Y186756D01*
X367290Y186796D01*
X367293Y186836D01*
X367296Y186875D01*
X367296Y186876D01*
X367299Y186915D01*
X367302Y186955D01*
X367303Y186970D01*
X367305Y187010D01*
X367308Y187049D01*
X367311Y187089D01*
X367314Y187129D01*
X367317Y187169D01*
X367318Y187184D01*
X367321Y187223D01*
X367324Y187263D01*
X367326Y187303D01*
X367329Y187343D01*
X367332Y187382D01*
X367333Y187397D01*
X367336Y187437D01*
X367339Y187477D01*
X367342Y187516D01*
X367342Y187517D01*
X367345Y187556D01*
X367347Y187596D01*
X367348Y187611D01*
X367351Y187651D01*
X367354Y187690D01*
X367357Y187730D01*
X367360Y187770D01*
X367363Y187810D01*
X367364Y187825D01*
X367367Y187864D01*
X367369Y187904D01*
X367372Y187944D01*
X367375Y187984D01*
X367378Y188023D01*
X367379Y188038D01*
X367382Y188078D01*
X367385Y188118D01*
X367388Y188157D01*
X367390Y188197D01*
X367393Y188237D01*
X367394Y188252D01*
X367397Y188292D01*
X367400Y188331D01*
X367403Y188371D01*
X367406Y188411D01*
X367408Y188451D01*
X367409Y188451D01*
X367408Y188451D01*
X367410Y188466D01*
X367412Y188505D01*
X367415Y188545D01*
X367418Y188585D01*
X367421Y188624D01*
X367421Y188625D01*
X367424Y188664D01*
X367425Y188679D01*
X367428Y188719D01*
X367431Y188759D01*
X367433Y188798D01*
X367436Y188838D01*
X367439Y188878D01*
X367440Y188893D01*
X367443Y188933D01*
X367446Y188972D01*
X367449Y189012D01*
X367451Y189052D01*
X367452Y189052D01*
X367451Y189052D01*
X367454Y189092D01*
X367455Y189106D01*
X367455Y189107D01*
X367458Y189146D01*
X367461Y189186D01*
X367464Y189226D01*
X367467Y189265D01*
X367467Y189266D01*
X367470Y189305D01*
X367471Y189320D01*
X367474Y189360D01*
X367476Y189400D01*
X367479Y189439D01*
X367482Y189479D01*
X367485Y189519D01*
X367486Y189534D01*
X367489Y189574D01*
X367492Y189613D01*
X367494Y189653D01*
X367495Y189653D01*
X367494Y189653D01*
X367497Y189693D01*
X367500Y189733D01*
X367501Y189747D01*
X367504Y189787D01*
X367505Y189800D01*
X367505Y265200D01*
X367251Y268758D01*
X367250Y268759D01*
X366492Y272244D01*
X366492Y272245D01*
X365245Y275587D01*
X365245Y275588D01*
X363536Y278718D01*
X363535Y278719D01*
X361398Y281575D01*
X361397Y281575D01*
X358875Y284097D01*
X358875Y284098D01*
X356019Y286235D01*
X356018Y286236D01*
X352888Y287945D01*
X352887Y287945D01*
X349545Y289192D01*
X349544Y289192D01*
X346059Y289950D01*
X346058Y289950D01*
X346058Y289951D01*
X346025Y289953D01*
X345956Y289958D01*
X345886Y289963D01*
X345817Y289968D01*
X345747Y289973D01*
X345678Y289978D01*
X345608Y289983D01*
X345539Y289988D01*
X345469Y289993D01*
X345400Y289998D01*
X345330Y290003D01*
X345261Y290008D01*
X345191Y290013D01*
X345122Y290017D01*
X345053Y290022D01*
X345052Y290022D01*
X344983Y290027D01*
X344914Y290032D01*
X344913Y290032D01*
X344844Y290037D01*
X344775Y290042D01*
X344705Y290047D01*
X344636Y290052D01*
X344566Y290057D01*
X344497Y290062D01*
X344427Y290067D01*
X344358Y290072D01*
X344288Y290077D01*
X344219Y290082D01*
X344149Y290087D01*
X344080Y290092D01*
X344010Y290097D01*
X343941Y290102D01*
X343872Y290107D01*
X343871Y290107D01*
X343802Y290112D01*
X343733Y290117D01*
X343732Y290117D01*
X343663Y290122D01*
X343594Y290127D01*
X343524Y290132D01*
X343455Y290137D01*
X343385Y290142D01*
X343316Y290147D01*
X343246Y290152D01*
X343177Y290157D01*
X343107Y290162D01*
X343038Y290167D01*
X342968Y290172D01*
X342899Y290176D01*
X342829Y290181D01*
X342760Y290186D01*
X342690Y290191D01*
X342621Y290196D01*
X342552Y290201D01*
X342551Y290201D01*
X342500Y290205D01*
X342449Y290201D01*
X342448Y290201D01*
X342379Y290196D01*
X342310Y290191D01*
X342240Y290186D01*
X342171Y290181D01*
X342101Y290176D01*
X342032Y290172D01*
X341962Y290167D01*
X341893Y290162D01*
X341823Y290157D01*
X341754Y290152D01*
X341684Y290147D01*
X341615Y290142D01*
X341545Y290137D01*
X341476Y290132D01*
X341406Y290127D01*
X341337Y290122D01*
X341268Y290117D01*
X341267Y290117D01*
X341198Y290112D01*
X341129Y290107D01*
X341128Y290107D01*
X341059Y290102D01*
X340990Y290097D01*
X340920Y290092D01*
X340851Y290087D01*
X340781Y290082D01*
X340712Y290077D01*
X340642Y290072D01*
X340573Y290067D01*
X340503Y290062D01*
X340434Y290057D01*
X340364Y290052D01*
X340295Y290047D01*
X340225Y290042D01*
X340156Y290037D01*
X340087Y290032D01*
X340086Y290032D01*
X340017Y290027D01*
X339948Y290022D01*
X339947Y290022D01*
X339878Y290017D01*
X339809Y290013D01*
X339739Y290008D01*
X339670Y290003D01*
X339600Y289998D01*
X339531Y289993D01*
X339461Y289988D01*
X339392Y289983D01*
X339322Y289978D01*
X339253Y289973D01*
X339183Y289968D01*
X339114Y289963D01*
X339044Y289958D01*
X338975Y289953D01*
X338942Y289951D01*
X338941Y289950D01*
X335456Y289192D01*
X335455Y289192D01*
X332113Y287945D01*
X332112Y287945D01*
X328982Y286236D01*
X328981Y286235D01*
X326125Y284098D01*
X326125Y284097D01*
X323603Y281575D01*
X323602Y281575D01*
X321465Y278719D01*
X321464Y278718D01*
X319755Y275588D01*
X319755Y275587D01*
X318508Y272245D01*
X318508Y272244D01*
X317750Y268759D01*
X317750Y268758D01*
X317748Y268742D01*
X317746Y268702D01*
X317745Y268702D01*
X317746Y268702D01*
X317744Y268687D01*
X317743Y268662D01*
X317742Y268647D01*
X317739Y268608D01*
X317736Y268568D01*
X317733Y268528D01*
X317730Y268489D01*
X317730Y268488D01*
X317727Y268449D01*
X317726Y268434D01*
X317723Y268394D01*
X317721Y268354D01*
X317718Y268315D01*
X317715Y268275D01*
X317712Y268235D01*
X317711Y268220D01*
X317708Y268180D01*
X317705Y268141D01*
X317703Y268101D01*
X317702Y268101D01*
X317703Y268101D01*
X317700Y268061D01*
X317697Y268021D01*
X317696Y268007D01*
X317696Y268006D01*
X317693Y267967D01*
X317690Y267927D01*
X317687Y267887D01*
X317684Y267848D01*
X317684Y267847D01*
X317682Y267808D01*
X317680Y267793D01*
X317678Y267753D01*
X317675Y267713D01*
X317672Y267674D01*
X317669Y267634D01*
X317666Y267594D01*
X317665Y267579D01*
X317662Y267539D01*
X317660Y267500D01*
X317659Y267500D01*
X317660Y267500D01*
X317657Y267460D01*
X317654Y267420D01*
X317651Y267380D01*
X317650Y267366D01*
X317647Y267326D01*
X317644Y267286D01*
X317641Y267246D01*
X317639Y267207D01*
X317636Y267167D01*
X317635Y267152D01*
X317632Y267112D01*
X317629Y267072D01*
X317626Y267033D01*
X317623Y266993D01*
X317620Y266953D01*
X317619Y266938D01*
X317617Y266899D01*
X317616Y266898D01*
X317617Y266898D01*
X317614Y266859D01*
X317611Y266819D01*
X317608Y266779D01*
X317605Y266740D01*
X317605Y266739D01*
X317604Y266725D01*
X317601Y266685D01*
X317598Y266645D01*
X317596Y266605D01*
X317593Y266566D01*
X317590Y266526D01*
X317589Y266511D01*
X317586Y266471D01*
X317583Y266431D01*
X317580Y266392D01*
X317577Y266352D01*
X317575Y266312D01*
X317574Y266297D01*
X317573Y266297D01*
X317571Y266258D01*
X317571Y266257D01*
X317568Y266218D01*
X317565Y266178D01*
X317562Y266138D01*
X317559Y266099D01*
X317559Y266098D01*
X317558Y266084D01*
X317555Y266044D01*
X317553Y266004D01*
X317550Y265964D01*
X317547Y265925D01*
X317544Y265885D01*
X317543Y265870D01*
X317540Y265830D01*
X317537Y265790D01*
X317534Y265751D01*
X317532Y265711D01*
X317529Y265671D01*
X317528Y265656D01*
X317525Y265617D01*
X317522Y265577D01*
X317519Y265537D01*
X317516Y265497D01*
X317513Y265458D01*
X317512Y265443D01*
X317510Y265403D01*
X317507Y265363D01*
X317504Y265323D01*
X317501Y265284D01*
X317498Y265244D01*
X317497Y265229D01*
X317495Y265200D01*
X317495Y189800D01*
X317750Y186242D01*
X317750Y186241D01*
X318508Y182756D01*
X318508Y182755D01*
X319755Y179413D01*
X319755Y179412D01*
X321464Y176282D01*
X321465Y176281D01*
X323602Y173425D01*
X323603Y173425D01*
X326125Y170903D01*
X326125Y170902D01*
X328981Y168765D01*
X328982Y168765D01*
X328982Y168764D01*
X332112Y167055D01*
X332113Y167055D01*
X335455Y165808D01*
X335456Y165808D01*
X338941Y165050D01*
X338942Y165050D01*
X342500Y164795D01*
X346058Y165050D01*
G37*
%LPC*%
G36*
X199374Y35459D02*
X199374Y35459D01*
X192370Y37336D01*
X186090Y40962D01*
X180962Y46090D01*
X177336Y52370D01*
X175459Y59374D01*
X175459Y66626D01*
X177336Y73630D01*
X180962Y79910D01*
X186090Y85038D01*
X192370Y88664D01*
X199374Y90541D01*
X206626Y90541D01*
X213630Y88664D01*
X219910Y85038D01*
X225038Y79910D01*
X228664Y73630D01*
X230541Y66626D01*
X230541Y59374D01*
X228664Y52370D01*
X225038Y46090D01*
X219910Y40962D01*
X213630Y37336D01*
X206626Y35459D01*
X199374Y35459D01*
G37*
%LPD*%
%LPC*%
G36*
X523374Y34459D02*
X523374Y34459D01*
X516370Y36336D01*
X510090Y39962D01*
X504962Y45090D01*
X501336Y51370D01*
X499459Y58374D01*
X499459Y65626D01*
X501336Y72630D01*
X504962Y78910D01*
X510090Y84038D01*
X516370Y87664D01*
X523374Y89541D01*
X530626Y89541D01*
X537630Y87664D01*
X543910Y84038D01*
X549038Y78910D01*
X552664Y72630D01*
X554541Y65626D01*
X554541Y58374D01*
X552664Y51370D01*
X549038Y45090D01*
X543910Y39962D01*
X537630Y36336D01*
X530626Y34459D01*
X523374Y34459D01*
G37*
%LPD*%
%LPC*%
G36*
X523516Y315459D02*
X523516Y315459D01*
X515232Y318891D01*
X508891Y325232D01*
X505459Y333516D01*
X505459Y342484D01*
X508891Y350768D01*
X515232Y357109D01*
X517787Y358167D01*
X517787Y358168D01*
X523516Y360541D01*
X532484Y360541D01*
X540768Y357109D01*
X547109Y350768D01*
X550541Y342484D01*
X550541Y333516D01*
X547109Y325232D01*
X540768Y318891D01*
X532484Y315459D01*
X523516Y315459D01*
G37*
%LPD*%
%LPC*%
G36*
X461340Y228248D02*
X461340Y228248D01*
X459196Y229136D01*
X457555Y230777D01*
X456667Y232921D01*
X456667Y233299D01*
X456665Y233325D01*
X456667Y233352D01*
X456645Y233526D01*
X456627Y233699D01*
X456620Y233725D01*
X456616Y233751D01*
X456561Y233917D01*
X456509Y234084D01*
X456496Y234108D01*
X456488Y234133D01*
X456401Y234285D01*
X456317Y234438D01*
X456300Y234459D01*
X456287Y234482D01*
X456072Y234735D01*
X443711Y247096D01*
X443654Y247143D01*
X443604Y247196D01*
X443499Y247270D01*
X443400Y247351D01*
X443335Y247386D01*
X443275Y247428D01*
X443157Y247480D01*
X443044Y247540D01*
X442974Y247561D01*
X442907Y247590D01*
X442781Y247618D01*
X442658Y247655D01*
X442585Y247661D01*
X442513Y247677D01*
X442385Y247679D01*
X442257Y247691D01*
X442184Y247683D01*
X442111Y247684D01*
X441985Y247662D01*
X441857Y247648D01*
X441787Y247625D01*
X441715Y247612D01*
X441630Y247579D01*
X441639Y247611D01*
X441682Y247732D01*
X441693Y247804D01*
X441712Y247875D01*
X441722Y248003D01*
X441740Y248130D01*
X441736Y248203D01*
X441742Y248277D01*
X441726Y248404D01*
X441719Y248532D01*
X441701Y248603D01*
X441691Y248676D01*
X441650Y248798D01*
X441618Y248922D01*
X441587Y248988D01*
X441563Y249058D01*
X441499Y249169D01*
X441443Y249285D01*
X441399Y249343D01*
X441362Y249407D01*
X441252Y249536D01*
X441200Y249606D01*
X441175Y249627D01*
X441148Y249660D01*
X434554Y256253D01*
X433120Y257687D01*
X432498Y259188D01*
X432498Y290423D01*
X433120Y291923D01*
X434354Y293158D01*
X434371Y293179D01*
X434392Y293196D01*
X434499Y293334D01*
X434609Y293469D01*
X434622Y293493D01*
X434638Y293514D01*
X434716Y293671D01*
X434798Y293825D01*
X434806Y293851D01*
X434818Y293875D01*
X434863Y294044D01*
X434913Y294211D01*
X434915Y294238D01*
X434922Y294263D01*
X434949Y294594D01*
X434949Y309798D01*
X436151Y310999D01*
X449849Y310999D01*
X451051Y309798D01*
X451051Y283099D01*
X449849Y281898D01*
X442695Y281898D01*
X442677Y281896D01*
X442659Y281898D01*
X442477Y281876D01*
X442294Y281858D01*
X442277Y281853D01*
X442260Y281851D01*
X442085Y281794D01*
X441909Y281740D01*
X441894Y281731D01*
X441877Y281726D01*
X441717Y281635D01*
X441555Y281548D01*
X441542Y281537D01*
X441526Y281528D01*
X441387Y281408D01*
X441246Y281290D01*
X441235Y281276D01*
X441221Y281265D01*
X441109Y281120D01*
X440994Y280977D01*
X440986Y280961D01*
X440975Y280947D01*
X440893Y280782D01*
X440808Y280619D01*
X440803Y280602D01*
X440795Y280586D01*
X440747Y280408D01*
X440697Y280232D01*
X440695Y280215D01*
X440691Y280197D01*
X440664Y279867D01*
X440664Y262533D01*
X440665Y262519D01*
X440664Y262505D01*
X440665Y262493D01*
X440664Y262479D01*
X440686Y262305D01*
X440704Y262132D01*
X440710Y262110D01*
X440711Y262105D01*
X440712Y262102D01*
X440715Y262080D01*
X440770Y261914D01*
X440822Y261747D01*
X440835Y261723D01*
X440843Y261698D01*
X440930Y261546D01*
X441014Y261393D01*
X441031Y261373D01*
X441044Y261349D01*
X441259Y261096D01*
X461846Y240509D01*
X461867Y240492D01*
X461884Y240472D01*
X462022Y240365D01*
X462158Y240254D01*
X462181Y240241D01*
X462202Y240225D01*
X462359Y240147D01*
X462513Y240065D01*
X462539Y240057D01*
X462563Y240045D01*
X462732Y240000D01*
X462899Y239950D01*
X462926Y239948D01*
X462952Y239941D01*
X463283Y239914D01*
X463660Y239914D01*
X465804Y239026D01*
X467445Y237385D01*
X468333Y235241D01*
X468333Y232921D01*
X467445Y230777D01*
X465804Y229136D01*
X463660Y228248D01*
X461340Y228248D01*
G37*
%LPD*%
%LPC*%
G36*
X457301Y255408D02*
X457301Y255408D01*
X454162Y256708D01*
X451760Y259111D01*
X450459Y262250D01*
X450459Y265647D01*
X451760Y268787D01*
X454162Y271189D01*
X457301Y272489D01*
X460699Y272489D01*
X463838Y271189D01*
X466240Y268787D01*
X467541Y265647D01*
X467541Y262250D01*
X466240Y259111D01*
X463838Y256708D01*
X460699Y255408D01*
X457301Y255408D01*
G37*
%LPD*%
%LPC*%
G36*
X527301Y255408D02*
X527301Y255408D01*
X524162Y256708D01*
X521760Y259111D01*
X520459Y262250D01*
X520459Y265647D01*
X521760Y268787D01*
X524162Y271189D01*
X527301Y272489D01*
X530699Y272489D01*
X533838Y271189D01*
X536240Y268787D01*
X537541Y265647D01*
X537541Y262250D01*
X536240Y259111D01*
X533838Y256708D01*
X530699Y255408D01*
X527301Y255408D01*
G37*
%LPD*%
%LPC*%
G36*
X457301Y158959D02*
X457301Y158959D01*
X454162Y160260D01*
X451760Y162662D01*
X450459Y165801D01*
X450459Y169199D01*
X451760Y172338D01*
X454162Y174740D01*
X457301Y176041D01*
X460699Y176041D01*
X463838Y174740D01*
X466240Y172338D01*
X467541Y169199D01*
X467541Y165801D01*
X466240Y162662D01*
X463838Y160260D01*
X460699Y158959D01*
X457301Y158959D01*
G37*
%LPD*%
%LPC*%
G36*
X527301Y158959D02*
X527301Y158959D01*
X524162Y160260D01*
X521760Y162662D01*
X520459Y165801D01*
X520459Y169199D01*
X521760Y172338D01*
X524162Y174740D01*
X527301Y176041D01*
X530699Y176041D01*
X533838Y174740D01*
X536240Y172338D01*
X537541Y169199D01*
X537541Y165801D01*
X536240Y162662D01*
X533838Y160260D01*
X530699Y158959D01*
X527301Y158959D01*
G37*
%LPD*%
%LPC*%
G36*
X434999Y234448D02*
X434999Y234448D01*
X434999Y246489D01*
X438335Y246489D01*
X439186Y246261D01*
X439258Y246249D01*
X439328Y246229D01*
X439456Y246217D01*
X439583Y246196D01*
X439656Y246199D01*
X439729Y246192D01*
X439857Y246206D01*
X439985Y246211D01*
X440056Y246228D01*
X440129Y246236D01*
X440252Y246274D01*
X440350Y246298D01*
X440333Y246258D01*
X440308Y246132D01*
X440274Y246008D01*
X440268Y245935D01*
X440254Y245863D01*
X440254Y245735D01*
X440244Y245607D01*
X440253Y245534D01*
X440253Y245461D01*
X440284Y245294D01*
X440295Y245207D01*
X440305Y245176D01*
X440313Y245134D01*
X440541Y244283D01*
X440541Y234448D01*
X434999Y234448D01*
G37*
%LPD*%
%LPC*%
G36*
X434999Y137999D02*
X434999Y137999D01*
X434999Y150041D01*
X438335Y150041D01*
X438981Y149868D01*
X439560Y149533D01*
X440033Y149060D01*
X440368Y148481D01*
X440541Y147835D01*
X440541Y137999D01*
X434999Y137999D01*
G37*
%LPD*%
%LPC*%
G36*
X423459Y234448D02*
X423459Y234448D01*
X423459Y244283D01*
X423632Y244929D01*
X423967Y245509D01*
X424440Y245982D01*
X425019Y246316D01*
X425665Y246489D01*
X429001Y246489D01*
X429001Y234448D01*
X423459Y234448D01*
G37*
%LPD*%
%LPC*%
G36*
X423459Y137999D02*
X423459Y137999D01*
X423459Y147835D01*
X423632Y148481D01*
X423967Y149060D01*
X424440Y149533D01*
X425019Y149868D01*
X425665Y150041D01*
X429001Y150041D01*
X429001Y137999D01*
X423459Y137999D01*
G37*
%LPD*%
%LPC*%
G36*
X425665Y216408D02*
X425665Y216408D01*
X425019Y216581D01*
X424440Y216916D01*
X423967Y217389D01*
X423632Y217968D01*
X423459Y218614D01*
X423459Y228449D01*
X429001Y228449D01*
X429001Y216408D01*
X425665Y216408D01*
G37*
%LPD*%
%LPC*%
G36*
X405039Y342739D02*
X405039Y342739D01*
X405039Y350059D01*
X406400Y349616D01*
X407825Y348890D01*
X409119Y347950D01*
X410250Y346819D01*
X411190Y345525D01*
X411916Y344100D01*
X412359Y342739D01*
X405039Y342739D01*
G37*
%LPD*%
%LPC*%
G36*
X392641Y342739D02*
X392641Y342739D01*
X393084Y344100D01*
X393810Y345525D01*
X394750Y346819D01*
X395881Y347950D01*
X397175Y348890D01*
X398600Y349616D01*
X399961Y350059D01*
X399961Y342739D01*
X392641Y342739D01*
G37*
%LPD*%
%LPC*%
G36*
X405039Y337661D02*
X405039Y337661D01*
X412359Y337661D01*
X411916Y336300D01*
X411190Y334875D01*
X410250Y333581D01*
X409119Y332450D01*
X407825Y331510D01*
X406400Y330784D01*
X405039Y330341D01*
X405039Y337661D01*
G37*
%LPD*%
%LPC*%
G36*
X398600Y330784D02*
X398600Y330784D01*
X397175Y331510D01*
X395881Y332450D01*
X394750Y333581D01*
X393810Y334875D01*
X393084Y336300D01*
X392641Y337661D01*
X399961Y337661D01*
X399961Y330341D01*
X398600Y330784D01*
G37*
%LPD*%
D10*
X295000Y85000D03*
X432500Y85000D03*
D11*
X402500Y289400D03*
X402500Y314800D03*
X402500Y340200D03*
X402500Y365600D03*
D12*
X202500Y195000D03*
X182500Y195000D03*
D13*
X443000Y296449D03*
X432000Y231449D03*
X483000Y296449D03*
X513000Y296449D03*
X443000Y200000D03*
X432000Y135000D03*
X483000Y200000D03*
X513000Y200000D03*
D12*
X202500Y159500D03*
X222500Y159500D03*
X182500Y159500D03*
D14*
X210500Y214500D03*
X226500Y24500D03*
X242500Y205500D03*
X250690Y269640D03*
X313431Y287397D03*
X382092Y248332D03*
X448385Y229391D03*
X464385Y143391D03*
D15*
X258065Y304065D02*
X223000Y269000D01*
X223000Y252000D01*
X202500Y231500D01*
X391765Y304065D02*
X402500Y314800D01*
X391765Y304065D02*
X258065Y304065D01*
X202500Y231500D02*
X202500Y195000D01*
X385600Y289400D02*
X402500Y289400D01*
X385600Y289400D02*
X377368Y297632D01*
X262632Y297632D01*
X232000Y267000D01*
D14*
X214000Y228000D03*
X197500Y241500D03*
D15*
X182500Y226500D01*
X232000Y248000D02*
X232000Y267000D01*
X232000Y248000D02*
X214000Y230000D01*
X214000Y228000D01*
X182500Y226500D02*
X182500Y195000D01*
X202500Y159500D02*
X202500Y147500D01*
X222500Y127500D01*
X387500Y127500D01*
X462500Y234081D02*
X436581Y260000D01*
X436581Y289611D01*
X443000Y296030D02*
X443000Y296449D01*
X443000Y296030D02*
X436581Y289611D01*
X428162Y168162D02*
X387500Y127500D01*
D14*
X428162Y168162D03*
X462500Y234081D03*
X202500Y112500D03*
D15*
X215000Y100000D01*
X227500Y100000D01*
X241051Y86449D01*
X241051Y51449D01*
X260000Y32500D01*
X460000Y32500D01*
X487500Y60000D01*
X487500Y94097D01*
X552625Y159221D01*
X552625Y212905D01*
X508739Y256791D01*
X508739Y287452D01*
X513000Y291713D02*
X513000Y296449D01*
X513000Y291713D02*
X508739Y287452D01*
X443000Y200000D02*
X380500Y137500D01*
X230000Y137500D01*
X222500Y145000D01*
X222500Y159500D01*
X477500Y164500D02*
X513000Y200000D01*
X477500Y164500D02*
X477500Y62500D01*
X457500Y42500D01*
X265000Y42500D01*
X250000Y57500D01*
X250000Y107500D01*
X245000Y112500D01*
X222500Y112500D01*
D14*
X222500Y112500D03*
X182500Y112500D03*
D15*
X182500Y159500D01*
D14*
X265000Y117500D03*
D15*
X262500Y117500D01*
X258816Y121184D01*
X193816Y121184D01*
X192500Y122500D01*
X192500Y125000D01*
D14*
X192500Y125000D03*
X206000Y251000D03*
D15*
X358968Y365600D02*
X402500Y365600D01*
X206000Y262000D02*
X206000Y251000D01*
X483000Y296449D02*
X483000Y200000D01*
X436900Y365600D02*
X402500Y365600D01*
X436900Y365600D02*
X483000Y319500D01*
X483000Y296449D01*
X304265Y310897D02*
X254897Y310897D01*
X304265Y310897D02*
X358968Y365600D01*
X254897Y310897D02*
X206000Y262000D01*
M02*
