G04 EAGLE Gerber RS-274X export*
G75*
%MOMM*%
%FSLAX34Y34*%
%LPD*%
%INTop Copper*%
%IPPOS*%
%AMOC8*
5,1,8,0,0,1.08239X$1,22.5*%
G01*
%ADD10C,5.334000*%
%ADD11R,1.500000X1.500000*%
%ADD12C,1.524000*%
%ADD13R,1.000000X1.000000*%
%ADD14R,1.803000X1.600000*%
%ADD15C,0.756400*%
%ADD16C,0.406400*%

G36*
X534822Y2549D02*
X534822Y2549D01*
X535031Y2561D01*
X538566Y3067D01*
X538598Y3075D01*
X538632Y3078D01*
X538953Y3162D01*
X538957Y3164D01*
X545853Y5592D01*
X545944Y5634D01*
X546038Y5667D01*
X546145Y5729D01*
X546218Y5763D01*
X546262Y5795D01*
X546326Y5832D01*
X552362Y9965D01*
X552439Y10029D01*
X552521Y10086D01*
X552609Y10173D01*
X552670Y10224D01*
X552705Y10267D01*
X552757Y10319D01*
X557518Y15874D01*
X557575Y15955D01*
X557640Y16031D01*
X557703Y16138D01*
X557749Y16204D01*
X557771Y16254D01*
X557808Y16318D01*
X560969Y22915D01*
X561003Y23009D01*
X561046Y23099D01*
X561079Y23219D01*
X561106Y23294D01*
X561114Y23348D01*
X561134Y23419D01*
X562480Y30610D01*
X562480Y30611D01*
X562480Y30613D01*
X562483Y30644D01*
X562491Y30676D01*
X562514Y31007D01*
X562490Y33098D01*
X562489Y33114D01*
X562490Y33129D01*
X562467Y33313D01*
X562459Y33379D01*
X562459Y34824D01*
X562453Y34889D01*
X562453Y34980D01*
X562367Y36096D01*
X562393Y36215D01*
X562432Y36361D01*
X562437Y36419D01*
X562446Y36462D01*
X562447Y36547D01*
X562459Y36691D01*
X562459Y369735D01*
X562454Y369785D01*
X562435Y370050D01*
X561768Y374308D01*
X561750Y374379D01*
X561740Y374452D01*
X561689Y374613D01*
X561667Y374698D01*
X561652Y374728D01*
X561639Y374768D01*
X558298Y382874D01*
X558226Y383009D01*
X558161Y383147D01*
X558129Y383192D01*
X558109Y383229D01*
X558054Y383296D01*
X557967Y383417D01*
X552285Y390094D01*
X552175Y390200D01*
X552070Y390311D01*
X552025Y390344D01*
X551995Y390373D01*
X551922Y390419D01*
X551802Y390507D01*
X544334Y395102D01*
X544197Y395169D01*
X544063Y395242D01*
X544010Y395259D01*
X543972Y395278D01*
X543889Y395299D01*
X543748Y395346D01*
X535226Y397408D01*
X535153Y397418D01*
X535082Y397437D01*
X534913Y397451D01*
X534827Y397463D01*
X534794Y397461D01*
X534752Y397465D01*
X531908Y397470D01*
X531880Y397467D01*
X531851Y397469D01*
X531772Y397459D01*
X530175Y397459D01*
X530111Y397453D01*
X530020Y397453D01*
X528904Y397367D01*
X528785Y397393D01*
X528639Y397432D01*
X528581Y397437D01*
X528538Y397446D01*
X528453Y397447D01*
X528309Y397459D01*
X310000Y397459D01*
X309914Y397451D01*
X309735Y397442D01*
X309624Y397427D01*
X309594Y397420D01*
X309563Y397418D01*
X309398Y397374D01*
X309232Y397335D01*
X309204Y397322D01*
X309174Y397314D01*
X308874Y397173D01*
X308682Y397062D01*
X308549Y396966D01*
X308412Y396876D01*
X308385Y396849D01*
X308355Y396827D01*
X308243Y396707D01*
X308127Y396591D01*
X308103Y396556D01*
X308080Y396532D01*
X308035Y396458D01*
X307938Y396318D01*
X307827Y396126D01*
X307815Y396098D01*
X307797Y396072D01*
X307732Y395914D01*
X307662Y395759D01*
X307655Y395729D01*
X307643Y395700D01*
X307573Y395376D01*
X307558Y395265D01*
X307555Y395179D01*
X307541Y395000D01*
X307541Y351655D01*
X307554Y351520D01*
X307559Y351383D01*
X307574Y351320D01*
X307581Y351255D01*
X307621Y351124D01*
X307644Y351025D01*
X307549Y349977D01*
X307550Y349902D01*
X307541Y349793D01*
X307541Y348740D01*
X307523Y348707D01*
X307485Y348576D01*
X307437Y348448D01*
X307424Y348374D01*
X307409Y348321D01*
X307401Y348242D01*
X307380Y348121D01*
X307098Y345014D01*
X303336Y336234D01*
X297045Y329046D01*
X288841Y324154D01*
X279526Y322037D01*
X274976Y322451D01*
X274902Y322450D01*
X274793Y322459D01*
X195000Y322459D01*
X194934Y322453D01*
X194841Y322453D01*
X190863Y322140D01*
X190791Y322127D01*
X190717Y322123D01*
X190552Y322084D01*
X190467Y322069D01*
X190436Y322057D01*
X190395Y322047D01*
X182828Y319588D01*
X182688Y319527D01*
X182545Y319472D01*
X182498Y319444D01*
X182460Y319427D01*
X182389Y319377D01*
X182262Y319300D01*
X175826Y314624D01*
X175712Y314522D01*
X175593Y314426D01*
X175557Y314384D01*
X175525Y314356D01*
X175473Y314287D01*
X175376Y314174D01*
X170700Y307738D01*
X170623Y307606D01*
X170540Y307478D01*
X170518Y307427D01*
X170497Y307390D01*
X170469Y307309D01*
X170412Y307172D01*
X167953Y299605D01*
X167938Y299534D01*
X167913Y299465D01*
X167886Y299297D01*
X167867Y299212D01*
X167867Y299179D01*
X167860Y299137D01*
X167547Y295159D01*
X167548Y295093D01*
X167541Y295000D01*
X167541Y191572D01*
X167543Y191554D01*
X167541Y191536D01*
X167562Y191354D01*
X167581Y191171D01*
X167586Y191154D01*
X167588Y191137D01*
X167645Y190962D01*
X167699Y190786D01*
X167707Y190771D01*
X167713Y190754D01*
X167803Y190594D01*
X167891Y190432D01*
X167902Y190419D01*
X167911Y190403D01*
X168031Y190264D01*
X168148Y190123D01*
X168162Y190112D01*
X168174Y190098D01*
X168319Y189986D01*
X168462Y189871D01*
X168478Y189863D01*
X168492Y189852D01*
X168657Y189770D01*
X168819Y189685D01*
X168836Y189680D01*
X168852Y189672D01*
X169031Y189625D01*
X169206Y189574D01*
X169224Y189572D01*
X169241Y189568D01*
X169572Y189541D01*
X170918Y189541D01*
X170936Y189543D01*
X170954Y189541D01*
X171136Y189562D01*
X171319Y189581D01*
X171336Y189586D01*
X171353Y189588D01*
X171528Y189645D01*
X171704Y189699D01*
X171719Y189707D01*
X171736Y189713D01*
X171896Y189803D01*
X172058Y189891D01*
X172071Y189902D01*
X172087Y189911D01*
X172226Y190031D01*
X172367Y190148D01*
X172378Y190162D01*
X172392Y190174D01*
X172504Y190319D01*
X172619Y190462D01*
X172627Y190478D01*
X172638Y190492D01*
X172720Y190657D01*
X172805Y190819D01*
X172810Y190836D01*
X172818Y190852D01*
X172865Y191031D01*
X172916Y191206D01*
X172918Y191224D01*
X172922Y191241D01*
X172949Y191572D01*
X172949Y203349D01*
X174151Y204551D01*
X174154Y204551D01*
X174336Y204572D01*
X174519Y204591D01*
X174536Y204596D01*
X174553Y204598D01*
X174728Y204655D01*
X174904Y204709D01*
X174919Y204717D01*
X174936Y204723D01*
X175096Y204813D01*
X175258Y204901D01*
X175271Y204912D01*
X175287Y204921D01*
X175426Y205041D01*
X175567Y205158D01*
X175578Y205172D01*
X175592Y205184D01*
X175704Y205329D01*
X175819Y205472D01*
X175827Y205488D01*
X175838Y205502D01*
X175920Y205667D01*
X176005Y205829D01*
X176010Y205846D01*
X176018Y205862D01*
X176065Y206041D01*
X176116Y206216D01*
X176118Y206234D01*
X176122Y206251D01*
X176149Y206582D01*
X176149Y248763D01*
X177116Y251097D01*
X234099Y308080D01*
X234111Y308096D01*
X234127Y308109D01*
X234208Y308211D01*
X235262Y309243D01*
X235268Y309251D01*
X235277Y309259D01*
X236163Y310144D01*
X237327Y310612D01*
X237336Y310616D01*
X237347Y310620D01*
X238505Y311100D01*
X239758Y311086D01*
X239768Y311087D01*
X239780Y311086D01*
X241233Y311086D01*
X241424Y311068D01*
X350250Y309903D01*
X350268Y309904D01*
X350290Y309903D01*
X351536Y309914D01*
X352682Y309425D01*
X352699Y309419D01*
X352719Y309410D01*
X353874Y308943D01*
X354746Y308053D01*
X354759Y308041D01*
X354774Y308024D01*
X420789Y243172D01*
X420807Y243157D01*
X420822Y243140D01*
X420906Y243075D01*
X421963Y242018D01*
X421969Y242013D01*
X421976Y242006D01*
X422873Y241125D01*
X423352Y239966D01*
X423356Y239959D01*
X423359Y239949D01*
X423851Y238793D01*
X423851Y237537D01*
X423852Y237529D01*
X423851Y237519D01*
X423864Y236034D01*
X423851Y235871D01*
X423851Y175729D01*
X423852Y175716D01*
X423851Y175703D01*
X423872Y175516D01*
X423891Y175329D01*
X423895Y175316D01*
X423896Y175303D01*
X423954Y175122D01*
X424009Y174944D01*
X424015Y174932D01*
X424019Y174919D01*
X424111Y174755D01*
X424201Y174590D01*
X424209Y174580D01*
X424216Y174568D01*
X424339Y174424D01*
X424458Y174281D01*
X424469Y174272D01*
X424477Y174262D01*
X424626Y174146D01*
X424772Y174028D01*
X424784Y174022D01*
X424795Y174014D01*
X424963Y173929D01*
X425129Y173843D01*
X425142Y173839D01*
X425154Y173833D01*
X425336Y173783D01*
X425516Y173731D01*
X425530Y173730D01*
X425543Y173727D01*
X425729Y173714D01*
X425918Y173699D01*
X425931Y173700D01*
X425944Y173699D01*
X426130Y173723D01*
X426317Y173745D01*
X426330Y173750D01*
X426343Y173751D01*
X426659Y173853D01*
X427002Y173995D01*
X427379Y173995D01*
X427406Y173997D01*
X427433Y173995D01*
X427607Y174017D01*
X427780Y174035D01*
X427806Y174042D01*
X427832Y174046D01*
X427998Y174101D01*
X428165Y174153D01*
X428189Y174166D01*
X428214Y174174D01*
X428366Y174261D01*
X428519Y174345D01*
X428540Y174362D01*
X428563Y174375D01*
X428816Y174590D01*
X457822Y203596D01*
X457839Y203617D01*
X457860Y203634D01*
X457967Y203772D01*
X458077Y203908D01*
X458090Y203931D01*
X458106Y203952D01*
X458184Y204109D01*
X458266Y204263D01*
X458274Y204289D01*
X458286Y204313D01*
X458331Y204482D01*
X458381Y204649D01*
X458383Y204676D01*
X458390Y204702D01*
X458417Y205033D01*
X458417Y229074D01*
X458415Y229100D01*
X458417Y229127D01*
X458395Y229301D01*
X458377Y229474D01*
X458370Y229500D01*
X458366Y229526D01*
X458311Y229692D01*
X458259Y229859D01*
X458246Y229883D01*
X458238Y229908D01*
X458151Y230060D01*
X458067Y230213D01*
X458050Y230234D01*
X458037Y230257D01*
X457822Y230510D01*
X457555Y230777D01*
X456667Y232921D01*
X456667Y235241D01*
X457555Y237385D01*
X459196Y239026D01*
X461340Y239914D01*
X463660Y239914D01*
X465804Y239026D01*
X467445Y237385D01*
X468333Y235241D01*
X468333Y232921D01*
X467445Y230777D01*
X467178Y230510D01*
X467161Y230489D01*
X467140Y230472D01*
X467033Y230334D01*
X466923Y230198D01*
X466910Y230175D01*
X466894Y230154D01*
X466816Y229997D01*
X466734Y229843D01*
X466726Y229817D01*
X466714Y229793D01*
X466669Y229624D01*
X466619Y229457D01*
X466617Y229430D01*
X466610Y229404D01*
X466583Y229074D01*
X466583Y201688D01*
X465961Y200187D01*
X434590Y168816D01*
X434573Y168795D01*
X434552Y168778D01*
X434445Y168640D01*
X434335Y168504D01*
X434322Y168481D01*
X434306Y168460D01*
X434228Y168303D01*
X434146Y168149D01*
X434138Y168123D01*
X434126Y168099D01*
X434081Y167930D01*
X434031Y167763D01*
X434029Y167736D01*
X434022Y167710D01*
X433995Y167379D01*
X433995Y167002D01*
X433107Y164858D01*
X431466Y163217D01*
X429322Y162329D01*
X427002Y162329D01*
X426659Y162471D01*
X426647Y162475D01*
X426635Y162481D01*
X426453Y162533D01*
X426274Y162588D01*
X426261Y162589D01*
X426248Y162593D01*
X426059Y162608D01*
X425873Y162626D01*
X425860Y162624D01*
X425846Y162625D01*
X425660Y162604D01*
X425473Y162584D01*
X425460Y162580D01*
X425447Y162579D01*
X425268Y162520D01*
X425088Y162464D01*
X425077Y162458D01*
X425064Y162454D01*
X424899Y162361D01*
X424735Y162271D01*
X424725Y162262D01*
X424713Y162256D01*
X424570Y162133D01*
X424427Y162012D01*
X424419Y162001D01*
X424408Y161993D01*
X424294Y161844D01*
X424176Y161697D01*
X424170Y161685D01*
X424162Y161675D01*
X424078Y161507D01*
X423992Y161339D01*
X423988Y161326D01*
X423982Y161314D01*
X423934Y161132D01*
X423882Y160952D01*
X423881Y160938D01*
X423878Y160925D01*
X423851Y160595D01*
X423851Y123774D01*
X423860Y123681D01*
X423859Y123587D01*
X423880Y123481D01*
X423891Y123374D01*
X423918Y123284D01*
X423936Y123192D01*
X423977Y123092D01*
X424009Y122989D01*
X424053Y122906D01*
X424089Y122819D01*
X424149Y122729D01*
X424201Y122635D01*
X424261Y122563D01*
X424313Y122485D01*
X424389Y122408D01*
X424458Y122325D01*
X424531Y122267D01*
X424598Y122200D01*
X424688Y122141D01*
X424772Y122073D01*
X424855Y122030D01*
X424934Y121978D01*
X425034Y121937D01*
X425129Y121888D01*
X425220Y121862D01*
X425306Y121826D01*
X425412Y121806D01*
X425516Y121776D01*
X425610Y121768D01*
X425702Y121751D01*
X425835Y121750D01*
X425918Y121743D01*
X425967Y121749D01*
X426034Y121749D01*
X435884Y122487D01*
X447100Y119927D01*
X457063Y114175D01*
X464888Y105741D01*
X469880Y95376D01*
X471595Y84000D01*
X469880Y72624D01*
X464888Y62259D01*
X457064Y53825D01*
X447100Y48073D01*
X435884Y45513D01*
X424412Y46373D01*
X413703Y50576D01*
X404708Y57749D01*
X398227Y67254D01*
X395154Y77217D01*
X395109Y77325D01*
X395073Y77436D01*
X395031Y77510D01*
X394998Y77588D01*
X394932Y77685D01*
X394875Y77787D01*
X394819Y77851D01*
X394772Y77921D01*
X394688Y78003D01*
X394611Y78092D01*
X394545Y78143D01*
X394484Y78203D01*
X394386Y78266D01*
X394293Y78338D01*
X394218Y78376D01*
X394147Y78422D01*
X394038Y78465D01*
X393933Y78518D01*
X393851Y78540D01*
X393773Y78571D01*
X393657Y78592D01*
X393544Y78622D01*
X393445Y78630D01*
X393376Y78643D01*
X393309Y78641D01*
X393213Y78649D01*
X334536Y78649D01*
X334469Y78643D01*
X334401Y78645D01*
X334269Y78623D01*
X334136Y78609D01*
X334071Y78590D01*
X334004Y78578D01*
X333879Y78531D01*
X333751Y78491D01*
X333691Y78459D01*
X333628Y78435D01*
X333515Y78363D01*
X333397Y78299D01*
X333345Y78256D01*
X333288Y78220D01*
X333190Y78127D01*
X333087Y78042D01*
X333045Y77989D01*
X332996Y77942D01*
X332919Y77832D01*
X332835Y77728D01*
X332804Y77668D01*
X332765Y77613D01*
X332711Y77490D01*
X332650Y77371D01*
X332631Y77306D01*
X332604Y77244D01*
X332562Y77067D01*
X332538Y76984D01*
X332536Y76956D01*
X332528Y76921D01*
X331880Y72624D01*
X326888Y62259D01*
X319063Y53825D01*
X309100Y48073D01*
X297884Y45513D01*
X286412Y46373D01*
X275703Y50576D01*
X266708Y57749D01*
X260227Y67254D01*
X256836Y78248D01*
X256836Y89752D01*
X260227Y100746D01*
X265509Y108492D01*
X265518Y108510D01*
X265531Y108526D01*
X265615Y108687D01*
X265701Y108845D01*
X265707Y108865D01*
X265717Y108883D01*
X265767Y109057D01*
X265820Y109230D01*
X265823Y109250D01*
X265828Y109270D01*
X265843Y109451D01*
X265862Y109630D01*
X265860Y109651D01*
X265861Y109672D01*
X265840Y109851D01*
X265823Y110031D01*
X265817Y110051D01*
X265814Y110071D01*
X265758Y110243D01*
X265706Y110416D01*
X265696Y110435D01*
X265689Y110454D01*
X265601Y110611D01*
X265515Y110771D01*
X265502Y110787D01*
X265492Y110805D01*
X265373Y110942D01*
X265258Y111081D01*
X265242Y111094D01*
X265228Y111110D01*
X265086Y111220D01*
X264945Y111334D01*
X264927Y111344D01*
X264910Y111356D01*
X264748Y111437D01*
X264588Y111521D01*
X264568Y111526D01*
X264550Y111536D01*
X264375Y111583D01*
X264202Y111633D01*
X264181Y111635D01*
X264161Y111640D01*
X263842Y111666D01*
X261696Y112555D01*
X260055Y114196D01*
X259074Y116565D01*
X259066Y116591D01*
X259009Y116775D01*
X259005Y116783D01*
X259002Y116791D01*
X258910Y116959D01*
X258817Y117129D01*
X258812Y117136D01*
X258807Y117144D01*
X258683Y117290D01*
X258560Y117438D01*
X258553Y117444D01*
X258547Y117451D01*
X258395Y117571D01*
X258246Y117691D01*
X258238Y117695D01*
X258231Y117700D01*
X258058Y117788D01*
X257889Y117876D01*
X257880Y117879D01*
X257872Y117883D01*
X257686Y117935D01*
X257502Y117988D01*
X257493Y117988D01*
X257484Y117991D01*
X257291Y118005D01*
X257100Y118020D01*
X257092Y118019D01*
X257083Y118020D01*
X256890Y117996D01*
X256701Y117974D01*
X256692Y117971D01*
X256683Y117970D01*
X256500Y117908D01*
X256318Y117849D01*
X256310Y117844D01*
X256302Y117841D01*
X256135Y117745D01*
X255967Y117651D01*
X255960Y117645D01*
X255953Y117641D01*
X255700Y117426D01*
X238747Y100473D01*
X237313Y99039D01*
X235812Y98417D01*
X191688Y98417D01*
X190187Y99039D01*
X183154Y106072D01*
X183133Y106089D01*
X183116Y106110D01*
X182978Y106217D01*
X182842Y106327D01*
X182819Y106340D01*
X182798Y106356D01*
X182641Y106434D01*
X182487Y106516D01*
X182461Y106524D01*
X182437Y106536D01*
X182268Y106581D01*
X182101Y106631D01*
X182074Y106633D01*
X182048Y106640D01*
X181717Y106667D01*
X181340Y106667D01*
X179196Y107555D01*
X177555Y109196D01*
X176667Y111340D01*
X176667Y113660D01*
X177555Y115804D01*
X179196Y117445D01*
X181340Y118333D01*
X183660Y118333D01*
X185804Y117445D01*
X187445Y115804D01*
X188333Y113660D01*
X188333Y113283D01*
X188335Y113256D01*
X188333Y113229D01*
X188355Y113055D01*
X188373Y112882D01*
X188380Y112856D01*
X188384Y112830D01*
X188439Y112664D01*
X188491Y112497D01*
X188504Y112473D01*
X188512Y112448D01*
X188599Y112296D01*
X188683Y112143D01*
X188700Y112122D01*
X188713Y112099D01*
X188928Y111846D01*
X193596Y107178D01*
X193617Y107161D01*
X193634Y107140D01*
X193772Y107033D01*
X193908Y106923D01*
X193931Y106910D01*
X193952Y106894D01*
X194109Y106816D01*
X194263Y106734D01*
X194289Y106726D01*
X194313Y106714D01*
X194482Y106669D01*
X194649Y106619D01*
X194676Y106617D01*
X194702Y106610D01*
X195033Y106583D01*
X195598Y106583D01*
X195611Y106584D01*
X195624Y106583D01*
X195811Y106604D01*
X195998Y106623D01*
X196011Y106627D01*
X196024Y106628D01*
X196204Y106686D01*
X196383Y106741D01*
X196395Y106747D01*
X196408Y106751D01*
X196573Y106843D01*
X196737Y106933D01*
X196748Y106941D01*
X196759Y106948D01*
X196902Y107070D01*
X197047Y107190D01*
X197055Y107201D01*
X197065Y107209D01*
X197181Y107358D01*
X197299Y107504D01*
X197305Y107516D01*
X197313Y107526D01*
X197398Y107696D01*
X197484Y107861D01*
X197488Y107874D01*
X197494Y107886D01*
X197544Y108067D01*
X197596Y108248D01*
X197597Y108262D01*
X197600Y108275D01*
X197613Y108463D01*
X197629Y108650D01*
X197627Y108663D01*
X197628Y108676D01*
X197604Y108864D01*
X197582Y109049D01*
X197578Y109062D01*
X197576Y109075D01*
X197474Y109391D01*
X196667Y111340D01*
X196667Y113660D01*
X197555Y115804D01*
X197822Y116071D01*
X197839Y116092D01*
X197860Y116109D01*
X197967Y116247D01*
X198077Y116383D01*
X198090Y116406D01*
X198106Y116427D01*
X198184Y116584D01*
X198266Y116738D01*
X198274Y116764D01*
X198286Y116788D01*
X198331Y116957D01*
X198381Y117124D01*
X198383Y117151D01*
X198390Y117177D01*
X198417Y117507D01*
X198417Y118098D01*
X198416Y118111D01*
X198417Y118124D01*
X198396Y118309D01*
X198377Y118498D01*
X198373Y118511D01*
X198372Y118524D01*
X198314Y118704D01*
X198259Y118883D01*
X198253Y118895D01*
X198249Y118908D01*
X198157Y119073D01*
X198067Y119237D01*
X198059Y119248D01*
X198052Y119259D01*
X197930Y119402D01*
X197810Y119547D01*
X197799Y119555D01*
X197791Y119565D01*
X197642Y119681D01*
X197496Y119799D01*
X197484Y119805D01*
X197474Y119813D01*
X197304Y119898D01*
X197139Y119984D01*
X197126Y119988D01*
X197114Y119994D01*
X196931Y120044D01*
X196752Y120096D01*
X196738Y120097D01*
X196725Y120100D01*
X196537Y120113D01*
X196350Y120129D01*
X196337Y120127D01*
X196324Y120128D01*
X196136Y120104D01*
X195951Y120082D01*
X195938Y120078D01*
X195925Y120076D01*
X195609Y119974D01*
X193660Y119167D01*
X191340Y119167D01*
X189196Y120055D01*
X187555Y121696D01*
X186667Y123840D01*
X186667Y124218D01*
X186665Y124244D01*
X186667Y124271D01*
X186645Y124445D01*
X186627Y124618D01*
X186620Y124644D01*
X186616Y124670D01*
X186561Y124836D01*
X186509Y125003D01*
X186496Y125027D01*
X186488Y125052D01*
X186401Y125204D01*
X186317Y125357D01*
X186300Y125378D01*
X186287Y125401D01*
X186072Y125654D01*
X180473Y131253D01*
X179039Y132687D01*
X178417Y134188D01*
X178417Y147918D01*
X178415Y147936D01*
X178417Y147954D01*
X178396Y148136D01*
X178377Y148319D01*
X178372Y148336D01*
X178370Y148353D01*
X178313Y148528D01*
X178259Y148704D01*
X178251Y148719D01*
X178245Y148736D01*
X178155Y148896D01*
X178067Y149058D01*
X178056Y149071D01*
X178047Y149087D01*
X177927Y149226D01*
X177810Y149367D01*
X177796Y149378D01*
X177784Y149392D01*
X177639Y149504D01*
X177496Y149619D01*
X177480Y149627D01*
X177466Y149638D01*
X177301Y149720D01*
X177139Y149805D01*
X177122Y149810D01*
X177106Y149818D01*
X176927Y149865D01*
X176752Y149916D01*
X176734Y149918D01*
X176717Y149922D01*
X176386Y149949D01*
X174151Y149949D01*
X172949Y151151D01*
X172949Y162428D01*
X172947Y162446D01*
X172949Y162464D01*
X172928Y162646D01*
X172909Y162829D01*
X172904Y162846D01*
X172902Y162863D01*
X172845Y163038D01*
X172791Y163214D01*
X172783Y163229D01*
X172777Y163246D01*
X172687Y163406D01*
X172599Y163568D01*
X172588Y163581D01*
X172579Y163597D01*
X172459Y163736D01*
X172342Y163877D01*
X172328Y163888D01*
X172316Y163902D01*
X172171Y164014D01*
X172028Y164129D01*
X172012Y164137D01*
X171998Y164148D01*
X171833Y164230D01*
X171671Y164315D01*
X171654Y164320D01*
X171638Y164328D01*
X171459Y164375D01*
X171284Y164426D01*
X171266Y164428D01*
X171249Y164432D01*
X170918Y164459D01*
X169572Y164459D01*
X169554Y164457D01*
X169536Y164459D01*
X169354Y164438D01*
X169171Y164419D01*
X169154Y164414D01*
X169137Y164412D01*
X168962Y164355D01*
X168786Y164301D01*
X168771Y164293D01*
X168754Y164287D01*
X168594Y164197D01*
X168432Y164109D01*
X168419Y164098D01*
X168403Y164089D01*
X168264Y163969D01*
X168123Y163852D01*
X168112Y163838D01*
X168098Y163826D01*
X167986Y163681D01*
X167871Y163538D01*
X167863Y163522D01*
X167852Y163508D01*
X167770Y163343D01*
X167685Y163181D01*
X167680Y163164D01*
X167672Y163148D01*
X167624Y162969D01*
X167574Y162794D01*
X167572Y162776D01*
X167568Y162759D01*
X167541Y162428D01*
X167541Y31655D01*
X167554Y31520D01*
X167559Y31384D01*
X167574Y31320D01*
X167581Y31255D01*
X167621Y31124D01*
X167644Y31025D01*
X167549Y29977D01*
X167550Y29902D01*
X167541Y29793D01*
X167541Y28455D01*
X167540Y28453D01*
X167539Y28438D01*
X167535Y28424D01*
X167504Y28094D01*
X167478Y25995D01*
X167485Y25922D01*
X167482Y25849D01*
X167506Y25681D01*
X167513Y25594D01*
X167523Y25562D01*
X167529Y25521D01*
X169126Y18491D01*
X169175Y18346D01*
X169216Y18199D01*
X169241Y18149D01*
X169254Y18109D01*
X169297Y18034D01*
X169363Y17901D01*
X173054Y11709D01*
X173145Y11586D01*
X173230Y11459D01*
X173269Y11419D01*
X173294Y11385D01*
X173358Y11328D01*
X173461Y11221D01*
X178886Y6473D01*
X179010Y6384D01*
X179130Y6289D01*
X179179Y6264D01*
X179214Y6239D01*
X179292Y6204D01*
X179424Y6134D01*
X186050Y3295D01*
X186120Y3273D01*
X186186Y3242D01*
X186351Y3200D01*
X186434Y3174D01*
X186467Y3170D01*
X186508Y3160D01*
X189962Y2570D01*
X189968Y2569D01*
X189973Y2568D01*
X190304Y2541D01*
X534743Y2541D01*
X534822Y2549D01*
G37*
G36*
X393947Y91362D02*
X393947Y91362D01*
X394064Y91364D01*
X394147Y91382D01*
X394231Y91391D01*
X394343Y91425D01*
X394457Y91450D01*
X394535Y91484D01*
X394616Y91509D01*
X394719Y91565D01*
X394826Y91612D01*
X394896Y91660D01*
X394970Y91701D01*
X395060Y91775D01*
X395156Y91843D01*
X395214Y91904D01*
X395279Y91958D01*
X395352Y92049D01*
X395433Y92135D01*
X395478Y92206D01*
X395531Y92272D01*
X395585Y92376D01*
X395648Y92475D01*
X395685Y92568D01*
X395717Y92629D01*
X395736Y92694D01*
X395771Y92783D01*
X398227Y100746D01*
X404708Y110251D01*
X410384Y114778D01*
X410485Y114876D01*
X410592Y114968D01*
X410629Y115016D01*
X410673Y115059D01*
X410752Y115175D01*
X410838Y115286D01*
X410866Y115341D01*
X410900Y115391D01*
X410955Y115521D01*
X411018Y115647D01*
X411033Y115706D01*
X411057Y115762D01*
X411086Y115900D01*
X411122Y116035D01*
X411128Y116105D01*
X411138Y116156D01*
X411139Y116238D01*
X411149Y116366D01*
X411149Y233984D01*
X411146Y234020D01*
X411148Y234056D01*
X411126Y234220D01*
X411109Y234385D01*
X411099Y234419D01*
X411094Y234455D01*
X411040Y234612D01*
X410991Y234770D01*
X410974Y234801D01*
X410962Y234835D01*
X410878Y234978D01*
X410799Y235124D01*
X410777Y235151D01*
X410758Y235182D01*
X410542Y235432D01*
X410542Y235433D01*
X372222Y273078D01*
X372210Y273088D01*
X372199Y273100D01*
X372052Y273215D01*
X371908Y273331D01*
X371894Y273338D01*
X371882Y273348D01*
X371715Y273431D01*
X371551Y273516D01*
X371536Y273521D01*
X371521Y273528D01*
X371342Y273576D01*
X371164Y273627D01*
X371148Y273629D01*
X371133Y273633D01*
X370948Y273645D01*
X370763Y273660D01*
X370747Y273658D01*
X370731Y273660D01*
X370547Y273635D01*
X370363Y273613D01*
X370348Y273608D01*
X370332Y273606D01*
X370156Y273546D01*
X369980Y273488D01*
X369966Y273481D01*
X369951Y273476D01*
X369791Y273382D01*
X369629Y273291D01*
X369617Y273280D01*
X369604Y273272D01*
X369465Y273149D01*
X369325Y273027D01*
X369315Y273015D01*
X369303Y273004D01*
X369192Y272856D01*
X369078Y272709D01*
X369071Y272695D01*
X369061Y272682D01*
X368982Y272515D01*
X368899Y272349D01*
X368895Y272333D01*
X368888Y272319D01*
X368842Y272140D01*
X368794Y271960D01*
X368793Y271944D01*
X368789Y271929D01*
X368780Y271743D01*
X368768Y271558D01*
X368770Y271542D01*
X368770Y271527D01*
X368813Y271198D01*
X368961Y270521D01*
X368986Y270442D01*
X369003Y270360D01*
X369048Y270251D01*
X369085Y270138D01*
X369126Y270065D01*
X369158Y269989D01*
X369220Y269896D01*
X369270Y269195D01*
X369283Y269118D01*
X369311Y268909D01*
X369459Y268230D01*
X369445Y268160D01*
X369414Y268046D01*
X369407Y267963D01*
X369391Y267881D01*
X369390Y267731D01*
X369383Y267644D01*
X369389Y267603D01*
X369388Y267549D01*
X369437Y266865D01*
X369463Y266711D01*
X369483Y266557D01*
X369497Y266513D01*
X369505Y266468D01*
X369551Y266351D01*
X369551Y265346D01*
X369557Y265285D01*
X369556Y265201D01*
X369627Y264200D01*
X369618Y264159D01*
X369578Y264008D01*
X369574Y263957D01*
X369565Y263918D01*
X369563Y263831D01*
X369551Y263678D01*
X369551Y191322D01*
X369566Y191167D01*
X369575Y191012D01*
X369586Y190968D01*
X369591Y190922D01*
X369628Y190801D01*
X369556Y189799D01*
X369558Y189738D01*
X369551Y189654D01*
X369551Y188651D01*
X369539Y188610D01*
X369488Y188463D01*
X369480Y188412D01*
X369468Y188374D01*
X369460Y188287D01*
X369437Y188135D01*
X369388Y187451D01*
X369390Y187368D01*
X369389Y187356D01*
X369383Y187284D01*
X369396Y187167D01*
X369399Y187049D01*
X369418Y186967D01*
X369427Y186884D01*
X369461Y186778D01*
X369311Y186091D01*
X369302Y186013D01*
X369270Y185805D01*
X369221Y185112D01*
X369188Y185049D01*
X369125Y184948D01*
X369096Y184870D01*
X369057Y184796D01*
X369014Y184652D01*
X368983Y184572D01*
X368976Y184531D01*
X368961Y184479D01*
X368780Y183648D01*
X368770Y183565D01*
X368751Y183484D01*
X368747Y183366D01*
X368734Y183248D01*
X368741Y183165D01*
X368738Y183082D01*
X368756Y182972D01*
X368511Y182314D01*
X368491Y182238D01*
X368429Y182036D01*
X368282Y181357D01*
X368240Y181299D01*
X368164Y181208D01*
X368123Y181135D01*
X368075Y181067D01*
X368011Y180931D01*
X367969Y180856D01*
X367957Y180816D01*
X367934Y180767D01*
X367637Y179971D01*
X367616Y179890D01*
X367585Y179813D01*
X367567Y179710D01*
X367543Y179625D01*
X367541Y179607D01*
X367534Y179582D01*
X367529Y179498D01*
X367515Y179416D01*
X367517Y179315D01*
X367516Y179303D01*
X367181Y178688D01*
X367150Y178616D01*
X367060Y178425D01*
X366818Y177774D01*
X366768Y177722D01*
X366680Y177644D01*
X366630Y177577D01*
X366572Y177517D01*
X366489Y177391D01*
X366437Y177322D01*
X366419Y177285D01*
X366390Y177239D01*
X365982Y176494D01*
X365950Y176417D01*
X365909Y176344D01*
X365872Y176232D01*
X365825Y176123D01*
X365809Y176041D01*
X365783Y175962D01*
X365769Y175851D01*
X365348Y175289D01*
X365307Y175222D01*
X365191Y175045D01*
X364859Y174435D01*
X364802Y174391D01*
X364703Y174326D01*
X364644Y174267D01*
X364579Y174216D01*
X364479Y174103D01*
X364418Y174042D01*
X364395Y174008D01*
X364359Y173967D01*
X363850Y173287D01*
X363806Y173216D01*
X363755Y173150D01*
X363703Y173044D01*
X363641Y172943D01*
X363613Y172864D01*
X363576Y172789D01*
X363547Y172682D01*
X363050Y172185D01*
X363000Y172124D01*
X362860Y171966D01*
X362444Y171410D01*
X362383Y171374D01*
X362275Y171324D01*
X362208Y171274D01*
X362136Y171232D01*
X362021Y171135D01*
X361952Y171084D01*
X361924Y171053D01*
X361883Y171018D01*
X361282Y170417D01*
X361229Y170352D01*
X361170Y170294D01*
X361102Y170197D01*
X361027Y170105D01*
X360988Y170032D01*
X360941Y169963D01*
X360897Y169861D01*
X360334Y169440D01*
X360277Y169387D01*
X360115Y169250D01*
X359624Y168759D01*
X359558Y168732D01*
X359445Y168697D01*
X359371Y168658D01*
X359294Y168627D01*
X359166Y168547D01*
X359091Y168506D01*
X359059Y168479D01*
X359013Y168450D01*
X358333Y167941D01*
X358271Y167885D01*
X358204Y167836D01*
X358123Y167749D01*
X358036Y167669D01*
X357987Y167602D01*
X357930Y167541D01*
X357872Y167445D01*
X357255Y167109D01*
X357190Y167064D01*
X357011Y166952D01*
X356455Y166536D01*
X356386Y166519D01*
X356269Y166501D01*
X356191Y166472D01*
X356110Y166452D01*
X355972Y166391D01*
X355891Y166361D01*
X355856Y166340D01*
X355806Y166318D01*
X355061Y165910D01*
X354992Y165863D01*
X354918Y165825D01*
X354826Y165750D01*
X354728Y165683D01*
X354670Y165624D01*
X354605Y165571D01*
X354534Y165485D01*
X353875Y165240D01*
X353805Y165205D01*
X353612Y165119D01*
X353003Y164787D01*
X352932Y164780D01*
X352813Y164778D01*
X352731Y164761D01*
X352648Y164753D01*
X352503Y164712D01*
X352419Y164694D01*
X352381Y164678D01*
X352329Y164663D01*
X351533Y164366D01*
X351458Y164329D01*
X351379Y164301D01*
X351278Y164241D01*
X351172Y164189D01*
X351105Y164138D01*
X351034Y164095D01*
X350951Y164020D01*
X350264Y163871D01*
X350189Y163846D01*
X349986Y163789D01*
X349336Y163547D01*
X349264Y163550D01*
X349147Y163565D01*
X349064Y163560D01*
X348981Y163564D01*
X348831Y163544D01*
X348746Y163538D01*
X348705Y163527D01*
X348652Y163520D01*
X347821Y163339D01*
X347742Y163314D01*
X347660Y163297D01*
X347551Y163252D01*
X347438Y163215D01*
X347365Y163174D01*
X347289Y163142D01*
X347196Y163080D01*
X346495Y163030D01*
X346418Y163017D01*
X346209Y162989D01*
X345530Y162841D01*
X345460Y162855D01*
X345346Y162886D01*
X345263Y162893D01*
X345181Y162909D01*
X345031Y162910D01*
X344944Y162917D01*
X344903Y162911D01*
X344849Y162912D01*
X344001Y162851D01*
X343919Y162837D01*
X343836Y162833D01*
X343721Y162803D01*
X343605Y162783D01*
X343527Y162753D01*
X343446Y162732D01*
X343346Y162684D01*
X342645Y162734D01*
X342566Y162731D01*
X342355Y162734D01*
X341662Y162684D01*
X341595Y162708D01*
X341487Y162755D01*
X341405Y162773D01*
X341326Y162801D01*
X341178Y162824D01*
X341094Y162842D01*
X341052Y162843D01*
X340999Y162851D01*
X340151Y162912D01*
X340068Y162910D01*
X339984Y162917D01*
X339867Y162904D01*
X339749Y162901D01*
X339667Y162882D01*
X339584Y162873D01*
X339478Y162839D01*
X338791Y162989D01*
X338713Y162998D01*
X338505Y163030D01*
X337812Y163079D01*
X337749Y163112D01*
X337648Y163175D01*
X337570Y163204D01*
X337496Y163243D01*
X337352Y163287D01*
X337271Y163317D01*
X337230Y163324D01*
X337179Y163339D01*
X336348Y163520D01*
X336265Y163530D01*
X336184Y163549D01*
X336066Y163553D01*
X335948Y163566D01*
X335865Y163559D01*
X335782Y163562D01*
X335672Y163544D01*
X335014Y163789D01*
X334938Y163809D01*
X334736Y163871D01*
X334057Y164018D01*
X333999Y164060D01*
X333908Y164136D01*
X333835Y164177D01*
X333767Y164225D01*
X333631Y164289D01*
X333556Y164331D01*
X333516Y164343D01*
X333467Y164366D01*
X332671Y164663D01*
X332590Y164684D01*
X332513Y164715D01*
X332396Y164735D01*
X332282Y164766D01*
X332198Y164771D01*
X332116Y164785D01*
X332005Y164783D01*
X331388Y165119D01*
X331316Y165150D01*
X331125Y165240D01*
X330474Y165482D01*
X330422Y165532D01*
X330344Y165620D01*
X330277Y165670D01*
X330217Y165728D01*
X330091Y165811D01*
X330022Y165863D01*
X329985Y165881D01*
X329939Y165910D01*
X329194Y166318D01*
X329117Y166350D01*
X329044Y166391D01*
X328932Y166428D01*
X328823Y166475D01*
X328741Y166491D01*
X328662Y166517D01*
X328551Y166531D01*
X327989Y166952D01*
X327922Y166993D01*
X327745Y167109D01*
X327135Y167441D01*
X327091Y167498D01*
X327026Y167597D01*
X326967Y167656D01*
X326916Y167721D01*
X326803Y167821D01*
X326742Y167882D01*
X326708Y167905D01*
X326667Y167941D01*
X325987Y168450D01*
X325916Y168494D01*
X325850Y168545D01*
X325744Y168597D01*
X325643Y168659D01*
X325564Y168687D01*
X325489Y168724D01*
X325382Y168753D01*
X325141Y168994D01*
X325127Y169005D01*
X325115Y169019D01*
X324971Y169133D01*
X324829Y169249D01*
X324813Y169258D01*
X324799Y169269D01*
X324636Y169352D01*
X324473Y169438D01*
X324456Y169443D01*
X324440Y169451D01*
X324264Y169500D01*
X324087Y169553D01*
X324070Y169554D01*
X324052Y169559D01*
X323870Y169572D01*
X323686Y169589D01*
X323669Y169587D01*
X323651Y169588D01*
X323469Y169565D01*
X323286Y169546D01*
X323269Y169540D01*
X323251Y169538D01*
X323077Y169479D01*
X322902Y169424D01*
X322887Y169415D01*
X322870Y169410D01*
X322710Y169318D01*
X322550Y169229D01*
X322536Y169218D01*
X322521Y169209D01*
X322268Y168994D01*
X274349Y121075D01*
X274230Y120930D01*
X274110Y120787D01*
X274103Y120775D01*
X274094Y120763D01*
X274006Y120599D01*
X273916Y120434D01*
X273912Y120420D01*
X273905Y120407D01*
X273852Y120230D01*
X273796Y120050D01*
X273794Y120036D01*
X273790Y120022D01*
X273773Y119835D01*
X273754Y119650D01*
X273755Y119635D01*
X273754Y119621D01*
X273774Y119434D01*
X273791Y119249D01*
X273796Y119235D01*
X273797Y119220D01*
X273854Y119042D01*
X273907Y118863D01*
X273914Y118850D01*
X273919Y118837D01*
X274009Y118674D01*
X274097Y118508D01*
X274106Y118497D01*
X274113Y118484D01*
X274233Y118343D01*
X274353Y118198D01*
X274365Y118188D01*
X274374Y118177D01*
X274520Y118062D01*
X274665Y117943D01*
X274678Y117937D01*
X274690Y117928D01*
X274856Y117843D01*
X275022Y117756D01*
X275036Y117752D01*
X275049Y117745D01*
X275229Y117695D01*
X275408Y117642D01*
X275423Y117641D01*
X275437Y117637D01*
X275624Y117624D01*
X275809Y117607D01*
X275824Y117609D01*
X275838Y117608D01*
X276024Y117631D01*
X276209Y117652D01*
X276225Y117657D01*
X276238Y117658D01*
X276302Y117680D01*
X276527Y117748D01*
X286412Y121627D01*
X297884Y122487D01*
X309100Y119927D01*
X319064Y114175D01*
X326888Y105741D01*
X331880Y95376D01*
X332226Y93079D01*
X332243Y93014D01*
X332251Y92947D01*
X332292Y92819D01*
X332325Y92689D01*
X332355Y92628D01*
X332376Y92564D01*
X332442Y92447D01*
X332500Y92326D01*
X332540Y92272D01*
X332574Y92213D01*
X332661Y92112D01*
X332742Y92005D01*
X332793Y91960D01*
X332837Y91908D01*
X332943Y91826D01*
X333043Y91737D01*
X333102Y91703D01*
X333155Y91662D01*
X333275Y91602D01*
X333391Y91534D01*
X333455Y91513D01*
X333515Y91482D01*
X333645Y91448D01*
X333772Y91404D01*
X333839Y91395D01*
X333904Y91378D01*
X334086Y91363D01*
X334171Y91352D01*
X334199Y91354D01*
X334235Y91351D01*
X393830Y91351D01*
X393947Y91362D01*
G37*
G36*
X286058Y165050D02*
X286058Y165050D01*
X286059Y165050D01*
X289544Y165808D01*
X289545Y165808D01*
X292887Y167055D01*
X292888Y167055D01*
X296018Y168764D01*
X296019Y168765D01*
X298875Y170902D01*
X298875Y170903D01*
X301397Y173425D01*
X301398Y173425D01*
X303535Y176281D01*
X303535Y176282D01*
X303536Y176282D01*
X305245Y179412D01*
X305245Y179413D01*
X306492Y182755D01*
X306492Y182756D01*
X307250Y186241D01*
X307250Y186242D01*
X307251Y186242D01*
X307253Y186274D01*
X307254Y186289D01*
X307256Y186314D01*
X307257Y186329D01*
X307260Y186369D01*
X307262Y186408D01*
X307265Y186448D01*
X307268Y186488D01*
X307271Y186528D01*
X307272Y186543D01*
X307275Y186582D01*
X307278Y186622D01*
X307281Y186662D01*
X307283Y186702D01*
X307286Y186741D01*
X307287Y186756D01*
X307290Y186796D01*
X307293Y186836D01*
X307296Y186875D01*
X307296Y186876D01*
X307299Y186915D01*
X307302Y186955D01*
X307303Y186970D01*
X307305Y187010D01*
X307308Y187049D01*
X307311Y187089D01*
X307314Y187129D01*
X307317Y187169D01*
X307318Y187184D01*
X307321Y187223D01*
X307324Y187263D01*
X307326Y187303D01*
X307329Y187343D01*
X307332Y187382D01*
X307333Y187397D01*
X307336Y187437D01*
X307339Y187477D01*
X307342Y187516D01*
X307342Y187517D01*
X307345Y187556D01*
X307347Y187596D01*
X307348Y187611D01*
X307351Y187651D01*
X307354Y187690D01*
X307357Y187730D01*
X307360Y187770D01*
X307363Y187810D01*
X307364Y187825D01*
X307367Y187864D01*
X307369Y187904D01*
X307372Y187944D01*
X307375Y187984D01*
X307378Y188023D01*
X307379Y188038D01*
X307382Y188078D01*
X307385Y188118D01*
X307388Y188157D01*
X307390Y188197D01*
X307393Y188237D01*
X307394Y188252D01*
X307397Y188292D01*
X307400Y188331D01*
X307403Y188371D01*
X307406Y188411D01*
X307408Y188451D01*
X307409Y188451D01*
X307408Y188451D01*
X307410Y188466D01*
X307412Y188505D01*
X307415Y188545D01*
X307418Y188585D01*
X307421Y188624D01*
X307421Y188625D01*
X307424Y188664D01*
X307425Y188679D01*
X307428Y188719D01*
X307431Y188759D01*
X307433Y188798D01*
X307436Y188838D01*
X307439Y188878D01*
X307440Y188893D01*
X307443Y188933D01*
X307446Y188972D01*
X307449Y189012D01*
X307451Y189052D01*
X307452Y189052D01*
X307451Y189052D01*
X307454Y189092D01*
X307455Y189106D01*
X307455Y189107D01*
X307458Y189146D01*
X307461Y189186D01*
X307464Y189226D01*
X307467Y189265D01*
X307467Y189266D01*
X307470Y189305D01*
X307471Y189320D01*
X307474Y189360D01*
X307476Y189400D01*
X307479Y189439D01*
X307482Y189479D01*
X307485Y189519D01*
X307486Y189534D01*
X307489Y189574D01*
X307492Y189613D01*
X307494Y189653D01*
X307495Y189653D01*
X307494Y189653D01*
X307497Y189693D01*
X307500Y189733D01*
X307501Y189747D01*
X307504Y189787D01*
X307505Y189800D01*
X307505Y265200D01*
X307251Y268758D01*
X307250Y268759D01*
X306492Y272244D01*
X306492Y272245D01*
X305245Y275587D01*
X305245Y275588D01*
X303536Y278718D01*
X303535Y278719D01*
X301398Y281575D01*
X301397Y281575D01*
X298875Y284097D01*
X298875Y284098D01*
X296019Y286235D01*
X296018Y286236D01*
X292888Y287945D01*
X292887Y287945D01*
X289545Y289192D01*
X289544Y289192D01*
X286059Y289950D01*
X286058Y289950D01*
X286058Y289951D01*
X286025Y289953D01*
X285956Y289958D01*
X285886Y289963D01*
X285817Y289968D01*
X285747Y289973D01*
X285678Y289978D01*
X285608Y289983D01*
X285539Y289988D01*
X285469Y289993D01*
X285400Y289998D01*
X285330Y290003D01*
X285261Y290008D01*
X285191Y290013D01*
X285122Y290017D01*
X285053Y290022D01*
X285052Y290022D01*
X284983Y290027D01*
X284914Y290032D01*
X284913Y290032D01*
X284844Y290037D01*
X284775Y290042D01*
X284705Y290047D01*
X284636Y290052D01*
X284566Y290057D01*
X284497Y290062D01*
X284427Y290067D01*
X284358Y290072D01*
X284288Y290077D01*
X284219Y290082D01*
X284149Y290087D01*
X284080Y290092D01*
X284010Y290097D01*
X283941Y290102D01*
X283872Y290107D01*
X283871Y290107D01*
X283802Y290112D01*
X283733Y290117D01*
X283732Y290117D01*
X283663Y290122D01*
X283594Y290127D01*
X283524Y290132D01*
X283455Y290137D01*
X283385Y290142D01*
X283316Y290147D01*
X283246Y290152D01*
X283177Y290157D01*
X283107Y290162D01*
X283038Y290167D01*
X282968Y290172D01*
X282899Y290176D01*
X282829Y290181D01*
X282760Y290186D01*
X282690Y290191D01*
X282621Y290196D01*
X282552Y290201D01*
X282551Y290201D01*
X282500Y290205D01*
X282449Y290201D01*
X282448Y290201D01*
X282379Y290196D01*
X282310Y290191D01*
X282240Y290186D01*
X282171Y290181D01*
X282101Y290176D01*
X282032Y290172D01*
X281962Y290167D01*
X281893Y290162D01*
X281823Y290157D01*
X281754Y290152D01*
X281684Y290147D01*
X281615Y290142D01*
X281545Y290137D01*
X281476Y290132D01*
X281406Y290127D01*
X281337Y290122D01*
X281268Y290117D01*
X281267Y290117D01*
X281198Y290112D01*
X281129Y290107D01*
X281128Y290107D01*
X281059Y290102D01*
X280990Y290097D01*
X280920Y290092D01*
X280851Y290087D01*
X280781Y290082D01*
X280712Y290077D01*
X280642Y290072D01*
X280573Y290067D01*
X280503Y290062D01*
X280434Y290057D01*
X280364Y290052D01*
X280295Y290047D01*
X280225Y290042D01*
X280156Y290037D01*
X280087Y290032D01*
X280086Y290032D01*
X280017Y290027D01*
X279948Y290022D01*
X279947Y290022D01*
X279878Y290017D01*
X279809Y290013D01*
X279739Y290008D01*
X279670Y290003D01*
X279600Y289998D01*
X279531Y289993D01*
X279461Y289988D01*
X279392Y289983D01*
X279322Y289978D01*
X279253Y289973D01*
X279183Y289968D01*
X279114Y289963D01*
X279044Y289958D01*
X278975Y289953D01*
X278942Y289951D01*
X278941Y289950D01*
X275456Y289192D01*
X275455Y289192D01*
X272113Y287945D01*
X272112Y287945D01*
X268982Y286236D01*
X268981Y286235D01*
X266125Y284098D01*
X266125Y284097D01*
X263603Y281575D01*
X263602Y281575D01*
X261465Y278719D01*
X261464Y278718D01*
X259755Y275588D01*
X259755Y275587D01*
X258508Y272245D01*
X258508Y272244D01*
X257750Y268759D01*
X257750Y268758D01*
X257748Y268742D01*
X257746Y268702D01*
X257745Y268702D01*
X257746Y268702D01*
X257744Y268687D01*
X257743Y268662D01*
X257742Y268647D01*
X257739Y268608D01*
X257736Y268568D01*
X257733Y268528D01*
X257730Y268489D01*
X257730Y268488D01*
X257727Y268449D01*
X257726Y268434D01*
X257723Y268394D01*
X257721Y268354D01*
X257718Y268315D01*
X257715Y268275D01*
X257712Y268235D01*
X257711Y268220D01*
X257708Y268180D01*
X257705Y268141D01*
X257703Y268101D01*
X257702Y268101D01*
X257703Y268101D01*
X257700Y268061D01*
X257697Y268021D01*
X257696Y268007D01*
X257696Y268006D01*
X257693Y267967D01*
X257690Y267927D01*
X257687Y267887D01*
X257684Y267848D01*
X257684Y267847D01*
X257682Y267808D01*
X257680Y267793D01*
X257678Y267753D01*
X257675Y267713D01*
X257672Y267674D01*
X257669Y267634D01*
X257666Y267594D01*
X257665Y267579D01*
X257662Y267539D01*
X257660Y267500D01*
X257659Y267500D01*
X257660Y267500D01*
X257657Y267460D01*
X257654Y267420D01*
X257651Y267380D01*
X257650Y267366D01*
X257647Y267326D01*
X257644Y267286D01*
X257641Y267246D01*
X257639Y267207D01*
X257636Y267167D01*
X257635Y267152D01*
X257632Y267112D01*
X257629Y267072D01*
X257626Y267033D01*
X257623Y266993D01*
X257620Y266953D01*
X257619Y266938D01*
X257617Y266899D01*
X257616Y266898D01*
X257617Y266898D01*
X257614Y266859D01*
X257611Y266819D01*
X257608Y266779D01*
X257605Y266740D01*
X257605Y266739D01*
X257604Y266725D01*
X257601Y266685D01*
X257598Y266645D01*
X257596Y266605D01*
X257593Y266566D01*
X257590Y266526D01*
X257589Y266511D01*
X257586Y266471D01*
X257583Y266431D01*
X257580Y266392D01*
X257577Y266352D01*
X257575Y266312D01*
X257574Y266297D01*
X257573Y266297D01*
X257571Y266258D01*
X257571Y266257D01*
X257568Y266218D01*
X257565Y266178D01*
X257562Y266138D01*
X257559Y266099D01*
X257559Y266098D01*
X257558Y266084D01*
X257555Y266044D01*
X257553Y266004D01*
X257550Y265964D01*
X257547Y265925D01*
X257544Y265885D01*
X257543Y265870D01*
X257540Y265830D01*
X257537Y265790D01*
X257534Y265751D01*
X257532Y265711D01*
X257529Y265671D01*
X257528Y265656D01*
X257525Y265617D01*
X257522Y265577D01*
X257519Y265537D01*
X257516Y265497D01*
X257513Y265458D01*
X257512Y265443D01*
X257510Y265403D01*
X257507Y265363D01*
X257504Y265323D01*
X257501Y265284D01*
X257498Y265244D01*
X257497Y265229D01*
X257495Y265200D01*
X257495Y189800D01*
X257750Y186242D01*
X257750Y186241D01*
X258508Y182756D01*
X258508Y182755D01*
X259755Y179413D01*
X259755Y179412D01*
X261464Y176282D01*
X261465Y176281D01*
X263602Y173425D01*
X263603Y173425D01*
X266125Y170903D01*
X266125Y170902D01*
X268981Y168765D01*
X268982Y168765D01*
X268982Y168764D01*
X272112Y167055D01*
X272113Y167055D01*
X275455Y165808D01*
X275456Y165808D01*
X278941Y165050D01*
X278942Y165050D01*
X282500Y164795D01*
X286058Y165050D01*
G37*
G36*
X346058Y165050D02*
X346058Y165050D01*
X346059Y165050D01*
X349544Y165808D01*
X349545Y165808D01*
X352887Y167055D01*
X352888Y167055D01*
X356018Y168764D01*
X356019Y168765D01*
X358875Y170902D01*
X358875Y170903D01*
X361397Y173425D01*
X361398Y173425D01*
X363535Y176281D01*
X363535Y176282D01*
X363536Y176282D01*
X365245Y179412D01*
X365245Y179413D01*
X366492Y182755D01*
X366492Y182756D01*
X367250Y186241D01*
X367250Y186242D01*
X367251Y186242D01*
X367253Y186274D01*
X367254Y186289D01*
X367256Y186314D01*
X367257Y186329D01*
X367260Y186369D01*
X367262Y186408D01*
X367265Y186448D01*
X367268Y186488D01*
X367271Y186528D01*
X367272Y186543D01*
X367275Y186582D01*
X367278Y186622D01*
X367281Y186662D01*
X367283Y186702D01*
X367286Y186741D01*
X367287Y186756D01*
X367290Y186796D01*
X367293Y186836D01*
X367296Y186875D01*
X367296Y186876D01*
X367299Y186915D01*
X367302Y186955D01*
X367303Y186970D01*
X367305Y187010D01*
X367308Y187049D01*
X367311Y187089D01*
X367314Y187129D01*
X367317Y187169D01*
X367318Y187184D01*
X367321Y187223D01*
X367324Y187263D01*
X367326Y187303D01*
X367329Y187343D01*
X367332Y187382D01*
X367333Y187397D01*
X367336Y187437D01*
X367339Y187477D01*
X367342Y187516D01*
X367342Y187517D01*
X367345Y187556D01*
X367347Y187596D01*
X367348Y187611D01*
X367351Y187651D01*
X367354Y187690D01*
X367357Y187730D01*
X367360Y187770D01*
X367363Y187810D01*
X367364Y187825D01*
X367367Y187864D01*
X367369Y187904D01*
X367372Y187944D01*
X367375Y187984D01*
X367378Y188023D01*
X367379Y188038D01*
X367382Y188078D01*
X367385Y188118D01*
X367388Y188157D01*
X367390Y188197D01*
X367393Y188237D01*
X367394Y188252D01*
X367397Y188292D01*
X367400Y188331D01*
X367403Y188371D01*
X367406Y188411D01*
X367408Y188451D01*
X367409Y188451D01*
X367408Y188451D01*
X367410Y188466D01*
X367412Y188505D01*
X367415Y188545D01*
X367418Y188585D01*
X367421Y188624D01*
X367421Y188625D01*
X367424Y188664D01*
X367425Y188679D01*
X367428Y188719D01*
X367431Y188759D01*
X367433Y188798D01*
X367436Y188838D01*
X367439Y188878D01*
X367440Y188893D01*
X367443Y188933D01*
X367446Y188972D01*
X367449Y189012D01*
X367451Y189052D01*
X367452Y189052D01*
X367451Y189052D01*
X367454Y189092D01*
X367455Y189106D01*
X367455Y189107D01*
X367458Y189146D01*
X367461Y189186D01*
X367464Y189226D01*
X367467Y189265D01*
X367467Y189266D01*
X367470Y189305D01*
X367471Y189320D01*
X367474Y189360D01*
X367476Y189400D01*
X367479Y189439D01*
X367482Y189479D01*
X367485Y189519D01*
X367486Y189534D01*
X367489Y189574D01*
X367492Y189613D01*
X367494Y189653D01*
X367495Y189653D01*
X367494Y189653D01*
X367497Y189693D01*
X367500Y189733D01*
X367501Y189747D01*
X367504Y189787D01*
X367505Y189800D01*
X367505Y265200D01*
X367251Y268758D01*
X367250Y268759D01*
X366492Y272244D01*
X366492Y272245D01*
X365245Y275587D01*
X365245Y275588D01*
X363536Y278718D01*
X363535Y278719D01*
X361398Y281575D01*
X361397Y281575D01*
X358875Y284097D01*
X358875Y284098D01*
X356019Y286235D01*
X356018Y286236D01*
X352888Y287945D01*
X352887Y287945D01*
X349545Y289192D01*
X349544Y289192D01*
X346059Y289950D01*
X346058Y289950D01*
X346058Y289951D01*
X346025Y289953D01*
X345956Y289958D01*
X345886Y289963D01*
X345817Y289968D01*
X345747Y289973D01*
X345678Y289978D01*
X345608Y289983D01*
X345539Y289988D01*
X345469Y289993D01*
X345400Y289998D01*
X345330Y290003D01*
X345261Y290008D01*
X345191Y290013D01*
X345122Y290017D01*
X345053Y290022D01*
X345052Y290022D01*
X344983Y290027D01*
X344914Y290032D01*
X344913Y290032D01*
X344844Y290037D01*
X344775Y290042D01*
X344705Y290047D01*
X344636Y290052D01*
X344566Y290057D01*
X344497Y290062D01*
X344427Y290067D01*
X344358Y290072D01*
X344288Y290077D01*
X344219Y290082D01*
X344149Y290087D01*
X344080Y290092D01*
X344010Y290097D01*
X343941Y290102D01*
X343872Y290107D01*
X343871Y290107D01*
X343802Y290112D01*
X343733Y290117D01*
X343732Y290117D01*
X343663Y290122D01*
X343594Y290127D01*
X343524Y290132D01*
X343455Y290137D01*
X343385Y290142D01*
X343316Y290147D01*
X343246Y290152D01*
X343177Y290157D01*
X343107Y290162D01*
X343038Y290167D01*
X342968Y290172D01*
X342899Y290176D01*
X342829Y290181D01*
X342760Y290186D01*
X342690Y290191D01*
X342621Y290196D01*
X342552Y290201D01*
X342551Y290201D01*
X342500Y290205D01*
X342449Y290201D01*
X342448Y290201D01*
X342379Y290196D01*
X342310Y290191D01*
X342240Y290186D01*
X342171Y290181D01*
X342101Y290176D01*
X342032Y290172D01*
X341962Y290167D01*
X341893Y290162D01*
X341823Y290157D01*
X341754Y290152D01*
X341684Y290147D01*
X341615Y290142D01*
X341545Y290137D01*
X341476Y290132D01*
X341406Y290127D01*
X341337Y290122D01*
X341268Y290117D01*
X341267Y290117D01*
X341198Y290112D01*
X341129Y290107D01*
X341128Y290107D01*
X341059Y290102D01*
X340990Y290097D01*
X340920Y290092D01*
X340851Y290087D01*
X340781Y290082D01*
X340712Y290077D01*
X340642Y290072D01*
X340573Y290067D01*
X340503Y290062D01*
X340434Y290057D01*
X340364Y290052D01*
X340295Y290047D01*
X340225Y290042D01*
X340156Y290037D01*
X340087Y290032D01*
X340086Y290032D01*
X340017Y290027D01*
X339948Y290022D01*
X339947Y290022D01*
X339878Y290017D01*
X339809Y290013D01*
X339739Y290008D01*
X339670Y290003D01*
X339600Y289998D01*
X339531Y289993D01*
X339461Y289988D01*
X339392Y289983D01*
X339322Y289978D01*
X339253Y289973D01*
X339183Y289968D01*
X339114Y289963D01*
X339044Y289958D01*
X338975Y289953D01*
X338942Y289951D01*
X338941Y289950D01*
X335456Y289192D01*
X335455Y289192D01*
X332113Y287945D01*
X332112Y287945D01*
X328982Y286236D01*
X328981Y286235D01*
X326125Y284098D01*
X326125Y284097D01*
X323603Y281575D01*
X323602Y281575D01*
X321465Y278719D01*
X321464Y278718D01*
X319755Y275588D01*
X319755Y275587D01*
X318508Y272245D01*
X318508Y272244D01*
X317750Y268759D01*
X317750Y268758D01*
X317748Y268742D01*
X317746Y268702D01*
X317745Y268702D01*
X317746Y268702D01*
X317744Y268687D01*
X317743Y268662D01*
X317742Y268647D01*
X317739Y268608D01*
X317736Y268568D01*
X317733Y268528D01*
X317730Y268489D01*
X317730Y268488D01*
X317727Y268449D01*
X317726Y268434D01*
X317723Y268394D01*
X317721Y268354D01*
X317718Y268315D01*
X317715Y268275D01*
X317712Y268235D01*
X317711Y268220D01*
X317708Y268180D01*
X317705Y268141D01*
X317703Y268101D01*
X317702Y268101D01*
X317703Y268101D01*
X317700Y268061D01*
X317697Y268021D01*
X317696Y268007D01*
X317696Y268006D01*
X317693Y267967D01*
X317690Y267927D01*
X317687Y267887D01*
X317684Y267848D01*
X317684Y267847D01*
X317682Y267808D01*
X317680Y267793D01*
X317678Y267753D01*
X317675Y267713D01*
X317672Y267674D01*
X317669Y267634D01*
X317666Y267594D01*
X317665Y267579D01*
X317662Y267539D01*
X317660Y267500D01*
X317659Y267500D01*
X317660Y267500D01*
X317657Y267460D01*
X317654Y267420D01*
X317651Y267380D01*
X317650Y267366D01*
X317647Y267326D01*
X317644Y267286D01*
X317641Y267246D01*
X317639Y267207D01*
X317636Y267167D01*
X317635Y267152D01*
X317632Y267112D01*
X317629Y267072D01*
X317626Y267033D01*
X317623Y266993D01*
X317620Y266953D01*
X317619Y266938D01*
X317617Y266899D01*
X317616Y266898D01*
X317617Y266898D01*
X317614Y266859D01*
X317611Y266819D01*
X317608Y266779D01*
X317605Y266740D01*
X317605Y266739D01*
X317604Y266725D01*
X317601Y266685D01*
X317598Y266645D01*
X317596Y266605D01*
X317593Y266566D01*
X317590Y266526D01*
X317589Y266511D01*
X317586Y266471D01*
X317583Y266431D01*
X317580Y266392D01*
X317577Y266352D01*
X317575Y266312D01*
X317574Y266297D01*
X317573Y266297D01*
X317571Y266258D01*
X317571Y266257D01*
X317568Y266218D01*
X317565Y266178D01*
X317562Y266138D01*
X317559Y266099D01*
X317559Y266098D01*
X317558Y266084D01*
X317555Y266044D01*
X317553Y266004D01*
X317550Y265964D01*
X317547Y265925D01*
X317544Y265885D01*
X317543Y265870D01*
X317540Y265830D01*
X317537Y265790D01*
X317534Y265751D01*
X317532Y265711D01*
X317529Y265671D01*
X317528Y265656D01*
X317525Y265617D01*
X317522Y265577D01*
X317519Y265537D01*
X317516Y265497D01*
X317513Y265458D01*
X317512Y265443D01*
X317510Y265403D01*
X317507Y265363D01*
X317504Y265323D01*
X317501Y265284D01*
X317498Y265244D01*
X317497Y265229D01*
X317495Y265200D01*
X317495Y189800D01*
X317750Y186242D01*
X317750Y186241D01*
X318508Y182756D01*
X318508Y182755D01*
X319755Y179413D01*
X319755Y179412D01*
X321464Y176282D01*
X321465Y176281D01*
X323602Y173425D01*
X323603Y173425D01*
X326125Y170903D01*
X326125Y170902D01*
X328981Y168765D01*
X328982Y168765D01*
X328982Y168764D01*
X332112Y167055D01*
X332113Y167055D01*
X335455Y165808D01*
X335456Y165808D01*
X338941Y165050D01*
X338942Y165050D01*
X342500Y164795D01*
X346058Y165050D01*
G37*
G36*
X268658Y127731D02*
X268658Y127731D01*
X268667Y127730D01*
X268860Y127754D01*
X269049Y127776D01*
X269058Y127779D01*
X269067Y127780D01*
X269249Y127842D01*
X269432Y127901D01*
X269440Y127906D01*
X269448Y127909D01*
X269615Y128005D01*
X269783Y128099D01*
X269790Y128105D01*
X269797Y128109D01*
X270050Y128324D01*
X317617Y175891D01*
X317736Y176036D01*
X317857Y176179D01*
X317863Y176192D01*
X317872Y176203D01*
X317960Y176367D01*
X318050Y176532D01*
X318054Y176546D01*
X318061Y176558D01*
X318114Y176737D01*
X318170Y176917D01*
X318172Y176931D01*
X318176Y176944D01*
X318193Y177131D01*
X318212Y177317D01*
X318211Y177331D01*
X318212Y177345D01*
X318192Y177533D01*
X318174Y177718D01*
X318170Y177733D01*
X318169Y177745D01*
X318148Y177810D01*
X318084Y178037D01*
X317940Y178425D01*
X317905Y178495D01*
X317819Y178688D01*
X317490Y179291D01*
X317490Y179295D01*
X317480Y179385D01*
X317478Y179487D01*
X317461Y179569D01*
X317453Y179652D01*
X317445Y179680D01*
X317443Y179695D01*
X317425Y179751D01*
X317412Y179797D01*
X317394Y179881D01*
X317378Y179919D01*
X317363Y179971D01*
X317066Y180767D01*
X317029Y180842D01*
X317001Y180921D01*
X316941Y181022D01*
X316889Y181128D01*
X316838Y181195D01*
X316795Y181266D01*
X316720Y181349D01*
X316571Y182036D01*
X316547Y182111D01*
X316489Y182314D01*
X316247Y182964D01*
X316250Y183036D01*
X316265Y183153D01*
X316260Y183236D01*
X316264Y183319D01*
X316244Y183469D01*
X316238Y183554D01*
X316227Y183594D01*
X316220Y183648D01*
X316039Y184479D01*
X316014Y184558D01*
X315997Y184640D01*
X315952Y184749D01*
X315915Y184862D01*
X315874Y184935D01*
X315842Y185011D01*
X315780Y185104D01*
X315730Y185805D01*
X315717Y185882D01*
X315689Y186091D01*
X315541Y186770D01*
X315555Y186840D01*
X315586Y186954D01*
X315593Y187037D01*
X315609Y187119D01*
X315610Y187269D01*
X315617Y187356D01*
X315611Y187397D01*
X315612Y187451D01*
X315563Y188135D01*
X315537Y188289D01*
X315517Y188443D01*
X315503Y188487D01*
X315495Y188532D01*
X315449Y188649D01*
X315449Y189654D01*
X315443Y189715D01*
X315444Y189799D01*
X315373Y190800D01*
X315382Y190841D01*
X315422Y190992D01*
X315426Y191043D01*
X315435Y191082D01*
X315437Y191169D01*
X315449Y191322D01*
X315449Y263678D01*
X315434Y263833D01*
X315425Y263988D01*
X315414Y264032D01*
X315409Y264078D01*
X315372Y264199D01*
X315444Y265201D01*
X315442Y265262D01*
X315449Y265346D01*
X315449Y266349D01*
X315461Y266390D01*
X315512Y266537D01*
X315520Y266588D01*
X315532Y266626D01*
X315540Y266713D01*
X315563Y266865D01*
X315612Y267549D01*
X315610Y267632D01*
X315617Y267716D01*
X315604Y267833D01*
X315601Y267951D01*
X315582Y268033D01*
X315573Y268116D01*
X315539Y268222D01*
X315689Y268909D01*
X315698Y268987D01*
X315730Y269195D01*
X315779Y269888D01*
X315812Y269951D01*
X315875Y270052D01*
X315904Y270130D01*
X315943Y270204D01*
X315987Y270348D01*
X316017Y270429D01*
X316024Y270470D01*
X316039Y270521D01*
X316220Y271352D01*
X316230Y271435D01*
X316249Y271516D01*
X316253Y271634D01*
X316266Y271752D01*
X316259Y271835D01*
X316262Y271918D01*
X316244Y272028D01*
X316489Y272686D01*
X316509Y272762D01*
X316571Y272964D01*
X316718Y273643D01*
X316760Y273701D01*
X316836Y273792D01*
X316877Y273865D01*
X316925Y273933D01*
X316989Y274069D01*
X317031Y274144D01*
X317043Y274184D01*
X317066Y274233D01*
X317363Y275029D01*
X317384Y275110D01*
X317415Y275187D01*
X317435Y275304D01*
X317466Y275418D01*
X317471Y275502D01*
X317485Y275584D01*
X317483Y275695D01*
X317819Y276312D01*
X317850Y276384D01*
X317940Y276575D01*
X318182Y277226D01*
X318232Y277278D01*
X318320Y277356D01*
X318370Y277423D01*
X318428Y277483D01*
X318511Y277609D01*
X318563Y277678D01*
X318581Y277715D01*
X318610Y277761D01*
X319018Y278506D01*
X319050Y278583D01*
X319091Y278656D01*
X319128Y278768D01*
X319175Y278877D01*
X319191Y278959D01*
X319217Y279038D01*
X319231Y279149D01*
X319652Y279711D01*
X319693Y279778D01*
X319809Y279955D01*
X320141Y280565D01*
X320198Y280609D01*
X320297Y280674D01*
X320356Y280733D01*
X320421Y280784D01*
X320521Y280897D01*
X320582Y280958D01*
X320605Y280992D01*
X320641Y281033D01*
X321150Y281713D01*
X321194Y281784D01*
X321245Y281850D01*
X321297Y281956D01*
X321359Y282057D01*
X321387Y282136D01*
X321424Y282211D01*
X321453Y282318D01*
X321950Y282815D01*
X322000Y282876D01*
X322140Y283034D01*
X322556Y283590D01*
X322617Y283626D01*
X322725Y283676D01*
X322792Y283726D01*
X322864Y283768D01*
X322979Y283865D01*
X323048Y283916D01*
X323076Y283947D01*
X323117Y283982D01*
X323718Y284583D01*
X323771Y284648D01*
X323830Y284706D01*
X323898Y284803D01*
X323973Y284895D01*
X324012Y284968D01*
X324059Y285037D01*
X324103Y285139D01*
X324666Y285560D01*
X324723Y285613D01*
X324885Y285750D01*
X325376Y286241D01*
X325442Y286268D01*
X325555Y286303D01*
X325629Y286342D01*
X325706Y286373D01*
X325834Y286453D01*
X325909Y286494D01*
X325941Y286521D01*
X325987Y286550D01*
X326667Y287059D01*
X326729Y287115D01*
X326796Y287164D01*
X326877Y287251D01*
X326964Y287331D01*
X327013Y287398D01*
X327070Y287459D01*
X327128Y287555D01*
X327745Y287891D01*
X327810Y287936D01*
X327989Y288048D01*
X328545Y288464D01*
X328614Y288481D01*
X328731Y288499D01*
X328809Y288528D01*
X328890Y288548D01*
X329028Y288609D01*
X329109Y288639D01*
X329144Y288660D01*
X329194Y288682D01*
X329939Y289090D01*
X330008Y289137D01*
X330082Y289175D01*
X330174Y289250D01*
X330272Y289317D01*
X330330Y289376D01*
X330395Y289429D01*
X330466Y289515D01*
X331125Y289760D01*
X331195Y289795D01*
X331388Y289881D01*
X331997Y290213D01*
X332068Y290220D01*
X332187Y290222D01*
X332269Y290239D01*
X332352Y290247D01*
X332497Y290288D01*
X332581Y290306D01*
X332619Y290322D01*
X332671Y290337D01*
X333467Y290634D01*
X333542Y290671D01*
X333621Y290699D01*
X333722Y290759D01*
X333828Y290811D01*
X333895Y290862D01*
X333966Y290905D01*
X334049Y290980D01*
X334736Y291129D01*
X334811Y291153D01*
X335014Y291211D01*
X335664Y291453D01*
X335736Y291450D01*
X335853Y291435D01*
X335936Y291440D01*
X336019Y291436D01*
X336169Y291456D01*
X336254Y291462D01*
X336295Y291473D01*
X336348Y291480D01*
X337179Y291661D01*
X337258Y291686D01*
X337340Y291703D01*
X337449Y291748D01*
X337562Y291785D01*
X337635Y291826D01*
X337711Y291858D01*
X337804Y291920D01*
X338505Y291970D01*
X338582Y291983D01*
X338791Y292011D01*
X339470Y292159D01*
X339540Y292145D01*
X339654Y292114D01*
X339737Y292107D01*
X339819Y292091D01*
X339969Y292090D01*
X340056Y292083D01*
X340097Y292089D01*
X340151Y292088D01*
X340999Y292149D01*
X341081Y292163D01*
X341164Y292167D01*
X341279Y292197D01*
X341395Y292217D01*
X341473Y292247D01*
X341554Y292268D01*
X341654Y292316D01*
X342355Y292266D01*
X342434Y292269D01*
X342645Y292266D01*
X343338Y292316D01*
X343405Y292292D01*
X343513Y292245D01*
X343595Y292227D01*
X343674Y292199D01*
X343822Y292176D01*
X343906Y292158D01*
X343948Y292157D01*
X344001Y292149D01*
X344849Y292088D01*
X344932Y292090D01*
X345016Y292083D01*
X345133Y292096D01*
X345251Y292099D01*
X345333Y292118D01*
X345416Y292127D01*
X345522Y292161D01*
X346209Y292011D01*
X346287Y292002D01*
X346495Y291970D01*
X347188Y291921D01*
X347251Y291888D01*
X347352Y291825D01*
X347430Y291796D01*
X347504Y291757D01*
X347648Y291714D01*
X347728Y291683D01*
X347770Y291676D01*
X347821Y291661D01*
X347994Y291623D01*
X348028Y291619D01*
X348061Y291610D01*
X348227Y291596D01*
X348394Y291577D01*
X348428Y291580D01*
X348462Y291577D01*
X348629Y291596D01*
X348796Y291610D01*
X348828Y291620D01*
X348862Y291624D01*
X349021Y291676D01*
X349182Y291723D01*
X349212Y291738D01*
X349244Y291749D01*
X349391Y291831D01*
X349539Y291909D01*
X349566Y291930D01*
X349595Y291947D01*
X349722Y292057D01*
X349852Y292162D01*
X349874Y292188D01*
X349900Y292210D01*
X350003Y292343D01*
X350110Y292471D01*
X350126Y292501D01*
X350146Y292528D01*
X350221Y292678D01*
X350301Y292826D01*
X350311Y292858D01*
X350326Y292889D01*
X350369Y293050D01*
X350418Y293211D01*
X350421Y293245D01*
X350430Y293277D01*
X350441Y293444D01*
X350457Y293612D01*
X350454Y293645D01*
X350456Y293679D01*
X350434Y293845D01*
X350417Y294012D01*
X350407Y294045D01*
X350402Y294078D01*
X350347Y294236D01*
X350298Y294397D01*
X350282Y294427D01*
X350270Y294459D01*
X350186Y294603D01*
X350105Y294751D01*
X350084Y294777D01*
X350066Y294806D01*
X349849Y295057D01*
X348223Y296655D01*
X348217Y296659D01*
X348213Y296665D01*
X348060Y296786D01*
X347909Y296907D01*
X347903Y296911D01*
X347897Y296915D01*
X347724Y297003D01*
X347551Y297093D01*
X347545Y297095D01*
X347539Y297098D01*
X347350Y297151D01*
X347165Y297204D01*
X347158Y297205D01*
X347151Y297207D01*
X346821Y297237D01*
X243192Y298347D01*
X243154Y298344D01*
X243117Y298347D01*
X242954Y298326D01*
X242791Y298312D01*
X242754Y298301D01*
X242717Y298296D01*
X242562Y298244D01*
X242404Y298198D01*
X242371Y298180D01*
X242335Y298168D01*
X242194Y298086D01*
X242048Y298010D01*
X242019Y297986D01*
X241987Y297967D01*
X241749Y297766D01*
X241736Y297755D01*
X241735Y297754D01*
X241734Y297752D01*
X204282Y260300D01*
X204276Y260293D01*
X204269Y260288D01*
X204149Y260138D01*
X204026Y259989D01*
X204022Y259981D01*
X204017Y259974D01*
X203928Y259803D01*
X203838Y259633D01*
X203835Y259625D01*
X203831Y259617D01*
X203778Y259431D01*
X203723Y259247D01*
X203722Y259238D01*
X203720Y259230D01*
X203704Y259038D01*
X203687Y258846D01*
X203688Y258837D01*
X203687Y258828D01*
X203709Y258636D01*
X203730Y258446D01*
X203733Y258437D01*
X203734Y258429D01*
X203793Y258247D01*
X203852Y258062D01*
X203856Y258054D01*
X203859Y258046D01*
X203954Y257877D01*
X204046Y257710D01*
X204052Y257703D01*
X204057Y257695D01*
X204183Y257549D01*
X204307Y257403D01*
X204314Y257397D01*
X204320Y257390D01*
X204471Y257273D01*
X204623Y257153D01*
X204631Y257149D01*
X204638Y257144D01*
X204810Y257058D01*
X204982Y256971D01*
X204990Y256968D01*
X204998Y256964D01*
X205185Y256914D01*
X205370Y256863D01*
X205379Y256862D01*
X205387Y256860D01*
X205718Y256833D01*
X207160Y256833D01*
X209304Y255945D01*
X210945Y254304D01*
X211833Y252160D01*
X211833Y251783D01*
X211835Y251756D01*
X211833Y251729D01*
X211855Y251555D01*
X211873Y251382D01*
X211880Y251356D01*
X211884Y251330D01*
X211939Y251164D01*
X211991Y250997D01*
X212004Y250973D01*
X212012Y250948D01*
X212099Y250796D01*
X212183Y250643D01*
X212200Y250622D01*
X212213Y250599D01*
X212428Y250346D01*
X225961Y236813D01*
X226583Y235312D01*
X226583Y234182D01*
X226584Y234173D01*
X226583Y234164D01*
X226604Y233972D01*
X226623Y233781D01*
X226625Y233773D01*
X226626Y233764D01*
X226684Y233581D01*
X226741Y233396D01*
X226745Y233388D01*
X226748Y233380D01*
X226841Y233211D01*
X226933Y233042D01*
X226938Y233035D01*
X226943Y233028D01*
X227068Y232880D01*
X227190Y232733D01*
X227197Y232727D01*
X227203Y232721D01*
X227355Y232601D01*
X227504Y232481D01*
X227512Y232477D01*
X227519Y232471D01*
X227691Y232384D01*
X227861Y232295D01*
X227870Y232293D01*
X227878Y232289D01*
X228064Y232237D01*
X228248Y232184D01*
X228257Y232183D01*
X228266Y232181D01*
X228458Y232166D01*
X228650Y232151D01*
X228658Y232152D01*
X228667Y232151D01*
X228860Y232176D01*
X229049Y232198D01*
X229058Y232200D01*
X229067Y232202D01*
X229250Y232263D01*
X229432Y232323D01*
X229440Y232327D01*
X229448Y232330D01*
X229614Y232425D01*
X229783Y232520D01*
X229790Y232526D01*
X229797Y232531D01*
X230050Y232745D01*
X231136Y233831D01*
X250864Y233831D01*
X251982Y232713D01*
X251989Y232708D01*
X251994Y232701D01*
X252144Y232581D01*
X252293Y232458D01*
X252301Y232454D01*
X252308Y232449D01*
X252478Y232360D01*
X252649Y232270D01*
X252658Y232267D01*
X252665Y232263D01*
X252850Y232210D01*
X253035Y232155D01*
X253044Y232154D01*
X253052Y232152D01*
X253243Y232136D01*
X253436Y232119D01*
X253445Y232120D01*
X253454Y232119D01*
X253643Y232141D01*
X253836Y232162D01*
X253845Y232165D01*
X253853Y232166D01*
X254035Y232225D01*
X254220Y232283D01*
X254228Y232288D01*
X254236Y232291D01*
X254403Y232385D01*
X254572Y232478D01*
X254579Y232484D01*
X254587Y232488D01*
X254732Y232614D01*
X254879Y232739D01*
X254885Y232746D01*
X254892Y232752D01*
X255008Y232902D01*
X255129Y233055D01*
X255133Y233063D01*
X255138Y233070D01*
X255224Y233241D01*
X255311Y233414D01*
X255314Y233422D01*
X255318Y233430D01*
X255368Y233616D01*
X255419Y233802D01*
X255420Y233810D01*
X255422Y233819D01*
X255449Y234150D01*
X255449Y241157D01*
X255448Y241166D01*
X255449Y241175D01*
X255429Y241365D01*
X255409Y241558D01*
X255407Y241566D01*
X255406Y241575D01*
X255348Y241759D01*
X255291Y241943D01*
X255287Y241951D01*
X255284Y241959D01*
X255191Y242128D01*
X255099Y242297D01*
X255094Y242304D01*
X255089Y242312D01*
X254965Y242458D01*
X254842Y242606D01*
X254835Y242612D01*
X254829Y242619D01*
X254678Y242738D01*
X254528Y242858D01*
X254520Y242863D01*
X254513Y242868D01*
X254340Y242956D01*
X254171Y243044D01*
X254162Y243046D01*
X254154Y243050D01*
X253967Y243102D01*
X253784Y243155D01*
X253775Y243156D01*
X253766Y243158D01*
X253574Y243173D01*
X253382Y243188D01*
X253374Y243187D01*
X253365Y243188D01*
X253173Y243164D01*
X252983Y243141D01*
X252974Y243139D01*
X252965Y243137D01*
X252783Y243076D01*
X252600Y243016D01*
X252592Y243012D01*
X252584Y243009D01*
X252416Y242913D01*
X252249Y242819D01*
X252242Y242813D01*
X252235Y242808D01*
X251982Y242594D01*
X251575Y242187D01*
X250996Y241852D01*
X250350Y241679D01*
X244999Y241679D01*
X244999Y250252D01*
X244997Y250270D01*
X244999Y250287D01*
X244978Y250470D01*
X244959Y250652D01*
X244954Y250669D01*
X244952Y250687D01*
X244895Y250862D01*
X244841Y251037D01*
X244833Y251053D01*
X244827Y251070D01*
X244737Y251230D01*
X244649Y251391D01*
X244638Y251405D01*
X244629Y251421D01*
X244509Y251560D01*
X244392Y251701D01*
X244378Y251712D01*
X244366Y251725D01*
X244221Y251838D01*
X244078Y251953D01*
X244062Y251961D01*
X244048Y251972D01*
X243883Y252054D01*
X243721Y252138D01*
X243704Y252143D01*
X243688Y252151D01*
X243509Y252199D01*
X243445Y252218D01*
X243578Y252261D01*
X243754Y252315D01*
X243769Y252323D01*
X243786Y252329D01*
X243946Y252419D01*
X244108Y252507D01*
X244121Y252518D01*
X244137Y252527D01*
X244276Y252647D01*
X244417Y252765D01*
X244428Y252778D01*
X244442Y252790D01*
X244554Y252935D01*
X244669Y253078D01*
X244677Y253094D01*
X244688Y253108D01*
X244770Y253273D01*
X244855Y253436D01*
X244860Y253453D01*
X244868Y253469D01*
X244915Y253647D01*
X244966Y253822D01*
X244968Y253840D01*
X244972Y253857D01*
X244999Y254188D01*
X244999Y262761D01*
X250350Y262761D01*
X250996Y262588D01*
X251575Y262253D01*
X251982Y261846D01*
X251989Y261841D01*
X251994Y261834D01*
X252144Y261713D01*
X252293Y261591D01*
X252301Y261587D01*
X252308Y261582D01*
X252478Y261493D01*
X252649Y261403D01*
X252658Y261400D01*
X252665Y261396D01*
X252849Y261343D01*
X253035Y261288D01*
X253044Y261287D01*
X253052Y261285D01*
X253243Y261269D01*
X253436Y261252D01*
X253445Y261253D01*
X253454Y261252D01*
X253643Y261274D01*
X253836Y261295D01*
X253845Y261298D01*
X253853Y261299D01*
X254036Y261358D01*
X254220Y261416D01*
X254228Y261421D01*
X254236Y261424D01*
X254405Y261519D01*
X254572Y261611D01*
X254579Y261617D01*
X254587Y261621D01*
X254732Y261747D01*
X254879Y261872D01*
X254885Y261879D01*
X254892Y261885D01*
X255009Y262036D01*
X255129Y262188D01*
X255133Y262196D01*
X255138Y262203D01*
X255224Y262376D01*
X255311Y262547D01*
X255314Y262555D01*
X255318Y262563D01*
X255368Y262752D01*
X255419Y262934D01*
X255420Y262943D01*
X255422Y262952D01*
X255449Y263283D01*
X255449Y263678D01*
X255434Y263833D01*
X255425Y263988D01*
X255414Y264032D01*
X255409Y264078D01*
X255372Y264199D01*
X255444Y265201D01*
X255442Y265262D01*
X255449Y265346D01*
X255449Y266349D01*
X255461Y266390D01*
X255512Y266537D01*
X255520Y266588D01*
X255532Y266626D01*
X255540Y266713D01*
X255563Y266865D01*
X255612Y267549D01*
X255610Y267632D01*
X255617Y267716D01*
X255604Y267833D01*
X255601Y267951D01*
X255582Y268033D01*
X255573Y268116D01*
X255539Y268222D01*
X255689Y268909D01*
X255698Y268987D01*
X255730Y269195D01*
X255779Y269888D01*
X255812Y269951D01*
X255875Y270052D01*
X255904Y270130D01*
X255943Y270204D01*
X255987Y270348D01*
X256017Y270429D01*
X256024Y270470D01*
X256039Y270521D01*
X256220Y271352D01*
X256230Y271435D01*
X256249Y271516D01*
X256253Y271634D01*
X256266Y271752D01*
X256259Y271835D01*
X256262Y271918D01*
X256244Y272028D01*
X256489Y272686D01*
X256509Y272762D01*
X256571Y272964D01*
X256718Y273643D01*
X256760Y273701D01*
X256836Y273792D01*
X256877Y273865D01*
X256925Y273933D01*
X256989Y274069D01*
X257031Y274144D01*
X257043Y274184D01*
X257066Y274233D01*
X257363Y275029D01*
X257384Y275110D01*
X257415Y275187D01*
X257435Y275304D01*
X257466Y275418D01*
X257471Y275502D01*
X257485Y275584D01*
X257483Y275695D01*
X257819Y276312D01*
X257850Y276384D01*
X257940Y276575D01*
X258182Y277226D01*
X258232Y277278D01*
X258320Y277356D01*
X258370Y277423D01*
X258428Y277483D01*
X258511Y277609D01*
X258563Y277678D01*
X258581Y277715D01*
X258610Y277761D01*
X259018Y278506D01*
X259050Y278583D01*
X259091Y278656D01*
X259128Y278768D01*
X259175Y278877D01*
X259191Y278959D01*
X259217Y279038D01*
X259231Y279149D01*
X259652Y279711D01*
X259693Y279778D01*
X259809Y279955D01*
X260141Y280565D01*
X260198Y280609D01*
X260297Y280674D01*
X260356Y280733D01*
X260421Y280784D01*
X260521Y280897D01*
X260582Y280958D01*
X260605Y280992D01*
X260641Y281033D01*
X261150Y281713D01*
X261194Y281784D01*
X261245Y281850D01*
X261297Y281956D01*
X261359Y282057D01*
X261387Y282136D01*
X261424Y282211D01*
X261453Y282318D01*
X261950Y282815D01*
X262000Y282876D01*
X262140Y283034D01*
X262556Y283590D01*
X262617Y283626D01*
X262725Y283676D01*
X262792Y283726D01*
X262864Y283768D01*
X262979Y283865D01*
X263048Y283916D01*
X263076Y283947D01*
X263117Y283982D01*
X263718Y284583D01*
X263771Y284648D01*
X263831Y284706D01*
X263898Y284803D01*
X263973Y284895D01*
X264012Y284968D01*
X264059Y285037D01*
X264103Y285139D01*
X264666Y285560D01*
X264724Y285614D01*
X264885Y285750D01*
X265376Y286241D01*
X265442Y286268D01*
X265555Y286303D01*
X265629Y286342D01*
X265706Y286373D01*
X265834Y286453D01*
X265909Y286494D01*
X265941Y286521D01*
X265987Y286550D01*
X266667Y287059D01*
X266729Y287115D01*
X266797Y287164D01*
X266877Y287251D01*
X266964Y287331D01*
X267013Y287398D01*
X267070Y287460D01*
X267128Y287555D01*
X267745Y287891D01*
X267810Y287936D01*
X267989Y288048D01*
X268545Y288464D01*
X268614Y288481D01*
X268731Y288499D01*
X268809Y288528D01*
X268890Y288548D01*
X269028Y288609D01*
X269109Y288639D01*
X269144Y288660D01*
X269194Y288682D01*
X269939Y289090D01*
X270008Y289137D01*
X270082Y289175D01*
X270174Y289250D01*
X270272Y289317D01*
X270330Y289376D01*
X270395Y289429D01*
X270466Y289515D01*
X271124Y289760D01*
X271195Y289795D01*
X271388Y289881D01*
X271998Y290213D01*
X272068Y290220D01*
X272187Y290222D01*
X272269Y290239D01*
X272352Y290247D01*
X272497Y290288D01*
X272581Y290306D01*
X272619Y290322D01*
X272671Y290337D01*
X273467Y290634D01*
X273542Y290671D01*
X273621Y290699D01*
X273722Y290759D01*
X273828Y290811D01*
X273895Y290862D01*
X273966Y290905D01*
X274049Y290980D01*
X274736Y291129D01*
X274811Y291154D01*
X275014Y291211D01*
X275664Y291453D01*
X275736Y291450D01*
X275853Y291435D01*
X275936Y291440D01*
X276019Y291436D01*
X276169Y291456D01*
X276254Y291462D01*
X276295Y291473D01*
X276348Y291480D01*
X277179Y291661D01*
X277258Y291686D01*
X277340Y291703D01*
X277449Y291748D01*
X277562Y291785D01*
X277634Y291826D01*
X277711Y291858D01*
X277804Y291920D01*
X278505Y291970D01*
X278582Y291983D01*
X278791Y292011D01*
X279470Y292159D01*
X279540Y292145D01*
X279654Y292114D01*
X279737Y292107D01*
X279819Y292091D01*
X279969Y292090D01*
X280056Y292083D01*
X280097Y292089D01*
X280151Y292088D01*
X280999Y292149D01*
X281081Y292163D01*
X281164Y292167D01*
X281279Y292197D01*
X281395Y292217D01*
X281473Y292247D01*
X281554Y292268D01*
X281654Y292316D01*
X282355Y292266D01*
X282434Y292269D01*
X282645Y292266D01*
X283338Y292316D01*
X283405Y292292D01*
X283513Y292245D01*
X283595Y292227D01*
X283674Y292199D01*
X283822Y292176D01*
X283906Y292158D01*
X283948Y292157D01*
X284001Y292149D01*
X284849Y292088D01*
X284932Y292090D01*
X285016Y292083D01*
X285133Y292096D01*
X285251Y292099D01*
X285333Y292118D01*
X285416Y292127D01*
X285522Y292161D01*
X286209Y292011D01*
X286287Y292002D01*
X286495Y291970D01*
X287188Y291921D01*
X287251Y291888D01*
X287352Y291825D01*
X287430Y291796D01*
X287504Y291757D01*
X287648Y291714D01*
X287728Y291683D01*
X287769Y291676D01*
X287821Y291661D01*
X288652Y291480D01*
X288735Y291470D01*
X288816Y291451D01*
X288934Y291447D01*
X289052Y291434D01*
X289135Y291441D01*
X289218Y291438D01*
X289328Y291456D01*
X289986Y291211D01*
X290062Y291191D01*
X290264Y291129D01*
X290943Y290982D01*
X291001Y290940D01*
X291092Y290864D01*
X291165Y290823D01*
X291233Y290775D01*
X291369Y290711D01*
X291444Y290669D01*
X291484Y290657D01*
X291533Y290634D01*
X292329Y290337D01*
X292410Y290316D01*
X292487Y290285D01*
X292604Y290265D01*
X292718Y290234D01*
X292802Y290229D01*
X292884Y290215D01*
X292995Y290217D01*
X293612Y289881D01*
X293684Y289850D01*
X293876Y289760D01*
X294526Y289518D01*
X294578Y289468D01*
X294656Y289380D01*
X294723Y289330D01*
X294783Y289272D01*
X294909Y289189D01*
X294978Y289137D01*
X295015Y289119D01*
X295061Y289090D01*
X295806Y288682D01*
X295883Y288650D01*
X295956Y288609D01*
X296068Y288572D01*
X296177Y288525D01*
X296259Y288509D01*
X296338Y288483D01*
X296449Y288469D01*
X297011Y288048D01*
X297078Y288007D01*
X297255Y287891D01*
X297865Y287559D01*
X297909Y287502D01*
X297974Y287403D01*
X298033Y287344D01*
X298084Y287279D01*
X298197Y287179D01*
X298258Y287118D01*
X298292Y287095D01*
X298333Y287059D01*
X299013Y286550D01*
X299084Y286506D01*
X299150Y286455D01*
X299256Y286403D01*
X299357Y286341D01*
X299436Y286313D01*
X299511Y286276D01*
X299618Y286247D01*
X300115Y285750D01*
X300176Y285700D01*
X300334Y285560D01*
X300890Y285144D01*
X300926Y285083D01*
X300976Y284975D01*
X301026Y284908D01*
X301068Y284836D01*
X301165Y284721D01*
X301216Y284652D01*
X301247Y284624D01*
X301282Y284583D01*
X301883Y283982D01*
X301948Y283929D01*
X302006Y283870D01*
X302103Y283802D01*
X302195Y283727D01*
X302268Y283688D01*
X302337Y283641D01*
X302439Y283597D01*
X302860Y283034D01*
X302913Y282977D01*
X303050Y282815D01*
X303541Y282324D01*
X303568Y282258D01*
X303603Y282145D01*
X303642Y282071D01*
X303673Y281994D01*
X303753Y281866D01*
X303794Y281791D01*
X303821Y281759D01*
X303850Y281713D01*
X304359Y281033D01*
X304415Y280971D01*
X304464Y280904D01*
X304551Y280823D01*
X304631Y280736D01*
X304698Y280687D01*
X304759Y280630D01*
X304855Y280572D01*
X305191Y279955D01*
X305236Y279890D01*
X305348Y279711D01*
X305764Y279155D01*
X305781Y279086D01*
X305799Y278969D01*
X305828Y278891D01*
X305848Y278810D01*
X305909Y278672D01*
X305939Y278591D01*
X305960Y278556D01*
X305982Y278506D01*
X306390Y277761D01*
X306437Y277692D01*
X306475Y277618D01*
X306550Y277526D01*
X306617Y277428D01*
X306676Y277370D01*
X306729Y277305D01*
X306815Y277234D01*
X307060Y276575D01*
X307095Y276505D01*
X307181Y276312D01*
X307513Y275703D01*
X307520Y275632D01*
X307522Y275513D01*
X307539Y275431D01*
X307547Y275348D01*
X307588Y275203D01*
X307606Y275119D01*
X307622Y275081D01*
X307637Y275029D01*
X307934Y274233D01*
X307971Y274158D01*
X307999Y274079D01*
X308059Y273978D01*
X308111Y273872D01*
X308162Y273805D01*
X308205Y273734D01*
X308280Y273651D01*
X308429Y272964D01*
X308454Y272889D01*
X308511Y272686D01*
X308753Y272036D01*
X308750Y271964D01*
X308735Y271847D01*
X308740Y271764D01*
X308736Y271681D01*
X308756Y271531D01*
X308762Y271446D01*
X308773Y271405D01*
X308780Y271352D01*
X308961Y270521D01*
X308986Y270442D01*
X309003Y270360D01*
X309048Y270251D01*
X309085Y270138D01*
X309126Y270065D01*
X309158Y269989D01*
X309220Y269896D01*
X309270Y269195D01*
X309283Y269118D01*
X309311Y268909D01*
X309459Y268230D01*
X309445Y268160D01*
X309414Y268046D01*
X309407Y267963D01*
X309391Y267881D01*
X309390Y267731D01*
X309383Y267644D01*
X309389Y267603D01*
X309388Y267549D01*
X309437Y266865D01*
X309463Y266711D01*
X309483Y266557D01*
X309497Y266513D01*
X309505Y266468D01*
X309551Y266351D01*
X309551Y265346D01*
X309557Y265285D01*
X309556Y265201D01*
X309627Y264200D01*
X309618Y264159D01*
X309578Y264008D01*
X309574Y263957D01*
X309565Y263918D01*
X309563Y263831D01*
X309551Y263678D01*
X309551Y191322D01*
X309566Y191167D01*
X309575Y191012D01*
X309586Y190968D01*
X309591Y190922D01*
X309628Y190801D01*
X309556Y189799D01*
X309558Y189738D01*
X309551Y189654D01*
X309551Y188651D01*
X309539Y188610D01*
X309488Y188463D01*
X309480Y188412D01*
X309468Y188374D01*
X309460Y188287D01*
X309437Y188135D01*
X309388Y187451D01*
X309390Y187368D01*
X309389Y187356D01*
X309383Y187284D01*
X309396Y187167D01*
X309399Y187049D01*
X309418Y186967D01*
X309427Y186884D01*
X309461Y186778D01*
X309311Y186091D01*
X309302Y186013D01*
X309270Y185805D01*
X309221Y185112D01*
X309188Y185049D01*
X309125Y184948D01*
X309096Y184870D01*
X309057Y184796D01*
X309014Y184652D01*
X308983Y184572D01*
X308976Y184531D01*
X308961Y184479D01*
X308780Y183648D01*
X308770Y183565D01*
X308751Y183484D01*
X308747Y183366D01*
X308734Y183248D01*
X308741Y183165D01*
X308738Y183082D01*
X308756Y182972D01*
X308511Y182314D01*
X308491Y182238D01*
X308429Y182036D01*
X308282Y181357D01*
X308240Y181299D01*
X308164Y181208D01*
X308123Y181135D01*
X308075Y181067D01*
X308011Y180931D01*
X307969Y180856D01*
X307957Y180816D01*
X307934Y180767D01*
X307637Y179971D01*
X307616Y179890D01*
X307585Y179813D01*
X307567Y179710D01*
X307543Y179625D01*
X307541Y179607D01*
X307534Y179582D01*
X307529Y179498D01*
X307515Y179416D01*
X307517Y179315D01*
X307516Y179303D01*
X307181Y178688D01*
X307150Y178616D01*
X307060Y178425D01*
X306818Y177774D01*
X306768Y177722D01*
X306680Y177644D01*
X306630Y177577D01*
X306572Y177517D01*
X306489Y177391D01*
X306437Y177322D01*
X306419Y177285D01*
X306390Y177239D01*
X305982Y176494D01*
X305950Y176417D01*
X305909Y176344D01*
X305872Y176232D01*
X305825Y176123D01*
X305809Y176041D01*
X305783Y175962D01*
X305769Y175851D01*
X305348Y175289D01*
X305307Y175222D01*
X305191Y175045D01*
X304859Y174435D01*
X304802Y174391D01*
X304703Y174326D01*
X304644Y174267D01*
X304579Y174216D01*
X304479Y174103D01*
X304418Y174042D01*
X304395Y174008D01*
X304359Y173967D01*
X303850Y173287D01*
X303806Y173216D01*
X303755Y173150D01*
X303703Y173044D01*
X303641Y172943D01*
X303613Y172864D01*
X303576Y172789D01*
X303547Y172682D01*
X303050Y172185D01*
X303000Y172124D01*
X302860Y171966D01*
X302444Y171410D01*
X302383Y171374D01*
X302275Y171324D01*
X302208Y171274D01*
X302136Y171232D01*
X302021Y171135D01*
X301952Y171084D01*
X301924Y171053D01*
X301883Y171018D01*
X301282Y170417D01*
X301229Y170352D01*
X301170Y170294D01*
X301102Y170197D01*
X301027Y170105D01*
X300988Y170032D01*
X300941Y169963D01*
X300897Y169861D01*
X300334Y169440D01*
X300277Y169387D01*
X300115Y169250D01*
X299624Y168759D01*
X299558Y168732D01*
X299445Y168697D01*
X299371Y168658D01*
X299294Y168627D01*
X299166Y168547D01*
X299091Y168506D01*
X299059Y168479D01*
X299013Y168450D01*
X298333Y167941D01*
X298271Y167885D01*
X298204Y167836D01*
X298123Y167749D01*
X298036Y167669D01*
X297987Y167602D01*
X297930Y167541D01*
X297872Y167445D01*
X297255Y167109D01*
X297190Y167064D01*
X297011Y166952D01*
X296455Y166536D01*
X296386Y166519D01*
X296269Y166501D01*
X296191Y166472D01*
X296110Y166452D01*
X295972Y166391D01*
X295891Y166361D01*
X295856Y166340D01*
X295806Y166318D01*
X295061Y165910D01*
X294992Y165863D01*
X294918Y165825D01*
X294826Y165750D01*
X294728Y165683D01*
X294670Y165624D01*
X294605Y165571D01*
X294534Y165485D01*
X293875Y165240D01*
X293805Y165205D01*
X293612Y165119D01*
X293003Y164787D01*
X292932Y164780D01*
X292813Y164778D01*
X292731Y164761D01*
X292648Y164753D01*
X292503Y164712D01*
X292419Y164694D01*
X292381Y164678D01*
X292329Y164663D01*
X291533Y164366D01*
X291458Y164329D01*
X291379Y164301D01*
X291278Y164241D01*
X291172Y164189D01*
X291105Y164138D01*
X291034Y164095D01*
X290951Y164020D01*
X290264Y163871D01*
X290189Y163846D01*
X289986Y163789D01*
X289336Y163547D01*
X289264Y163550D01*
X289147Y163565D01*
X289064Y163560D01*
X288981Y163564D01*
X288831Y163544D01*
X288746Y163538D01*
X288705Y163527D01*
X288652Y163520D01*
X287821Y163339D01*
X287742Y163314D01*
X287660Y163297D01*
X287551Y163252D01*
X287438Y163215D01*
X287365Y163174D01*
X287289Y163142D01*
X287196Y163080D01*
X286495Y163030D01*
X286418Y163017D01*
X286209Y162989D01*
X285530Y162841D01*
X285460Y162855D01*
X285346Y162886D01*
X285263Y162893D01*
X285181Y162909D01*
X285031Y162910D01*
X284944Y162917D01*
X284903Y162911D01*
X284849Y162912D01*
X284001Y162851D01*
X283919Y162837D01*
X283836Y162833D01*
X283721Y162803D01*
X283605Y162783D01*
X283527Y162753D01*
X283446Y162732D01*
X283346Y162684D01*
X282645Y162734D01*
X282566Y162731D01*
X282355Y162734D01*
X281662Y162684D01*
X281595Y162708D01*
X281487Y162755D01*
X281405Y162773D01*
X281326Y162801D01*
X281178Y162824D01*
X281094Y162842D01*
X281052Y162843D01*
X280999Y162851D01*
X280151Y162912D01*
X280068Y162910D01*
X279984Y162917D01*
X279867Y162904D01*
X279749Y162901D01*
X279667Y162882D01*
X279584Y162873D01*
X279478Y162839D01*
X278791Y162989D01*
X278713Y162998D01*
X278505Y163030D01*
X277812Y163079D01*
X277749Y163112D01*
X277648Y163175D01*
X277570Y163204D01*
X277496Y163243D01*
X277352Y163287D01*
X277271Y163317D01*
X277230Y163324D01*
X277179Y163339D01*
X276348Y163520D01*
X276265Y163530D01*
X276184Y163549D01*
X276066Y163553D01*
X275948Y163566D01*
X275865Y163559D01*
X275782Y163562D01*
X275672Y163544D01*
X275014Y163789D01*
X274938Y163809D01*
X274736Y163871D01*
X274057Y164018D01*
X273999Y164060D01*
X273908Y164136D01*
X273835Y164177D01*
X273767Y164225D01*
X273631Y164289D01*
X273556Y164331D01*
X273516Y164343D01*
X273467Y164366D01*
X272671Y164663D01*
X272590Y164684D01*
X272513Y164715D01*
X272396Y164735D01*
X272282Y164766D01*
X272198Y164771D01*
X272116Y164785D01*
X272005Y164783D01*
X271388Y165119D01*
X271316Y165150D01*
X271125Y165240D01*
X270474Y165482D01*
X270422Y165532D01*
X270344Y165620D01*
X270277Y165670D01*
X270217Y165728D01*
X270091Y165811D01*
X270022Y165863D01*
X269985Y165881D01*
X269939Y165910D01*
X269587Y166103D01*
X269475Y166150D01*
X269367Y166206D01*
X269290Y166228D01*
X269217Y166260D01*
X269097Y166284D01*
X268980Y166318D01*
X268900Y166324D01*
X268822Y166340D01*
X268700Y166341D01*
X268578Y166351D01*
X268499Y166341D01*
X268420Y166342D01*
X268300Y166318D01*
X268179Y166304D01*
X268103Y166279D01*
X268025Y166264D01*
X267912Y166217D01*
X267796Y166179D01*
X267726Y166140D01*
X267653Y166109D01*
X267552Y166041D01*
X267445Y165981D01*
X267385Y165929D01*
X267319Y165885D01*
X267233Y165798D01*
X267140Y165718D01*
X267092Y165655D01*
X267036Y165598D01*
X266968Y165496D01*
X266894Y165400D01*
X266858Y165329D01*
X266814Y165262D01*
X266769Y165149D01*
X266714Y165039D01*
X266694Y164962D01*
X266664Y164888D01*
X266642Y164769D01*
X266610Y164651D01*
X266602Y164557D01*
X266590Y164493D01*
X266591Y164422D01*
X266583Y164320D01*
X266583Y129760D01*
X266584Y129752D01*
X266583Y129743D01*
X266604Y129549D01*
X266623Y129360D01*
X266625Y129351D01*
X266626Y129342D01*
X266685Y129158D01*
X266741Y128975D01*
X266745Y128967D01*
X266748Y128959D01*
X266841Y128790D01*
X266933Y128621D01*
X266938Y128614D01*
X266943Y128606D01*
X267067Y128459D01*
X267190Y128312D01*
X267197Y128306D01*
X267203Y128299D01*
X267355Y128179D01*
X267504Y128059D01*
X267512Y128055D01*
X267519Y128050D01*
X267692Y127962D01*
X267861Y127874D01*
X267870Y127871D01*
X267878Y127867D01*
X268064Y127815D01*
X268248Y127762D01*
X268257Y127762D01*
X268266Y127759D01*
X268459Y127745D01*
X268650Y127730D01*
X268658Y127731D01*
G37*
%LPC*%
G36*
X199374Y35459D02*
X199374Y35459D01*
X192370Y37336D01*
X186090Y40962D01*
X180962Y46090D01*
X177336Y52370D01*
X175459Y59374D01*
X175459Y66626D01*
X177336Y73630D01*
X180962Y79910D01*
X186090Y85038D01*
X192370Y88664D01*
X199374Y90541D01*
X206626Y90541D01*
X213630Y88664D01*
X219910Y85038D01*
X225038Y79910D01*
X228664Y73630D01*
X230541Y66626D01*
X230541Y59374D01*
X228664Y52370D01*
X225038Y46090D01*
X219910Y40962D01*
X213630Y37336D01*
X206626Y35459D01*
X199374Y35459D01*
G37*
%LPD*%
%LPC*%
G36*
X523374Y34459D02*
X523374Y34459D01*
X516370Y36336D01*
X510090Y39962D01*
X504962Y45090D01*
X501336Y51370D01*
X499459Y58374D01*
X499459Y65626D01*
X501336Y72630D01*
X504962Y78910D01*
X510090Y84038D01*
X516370Y87664D01*
X523374Y89541D01*
X530626Y89541D01*
X537630Y87664D01*
X543910Y84038D01*
X549038Y78910D01*
X552664Y72630D01*
X554541Y65626D01*
X554541Y58374D01*
X552664Y51370D01*
X549038Y45090D01*
X543910Y39962D01*
X537630Y36336D01*
X530626Y34459D01*
X523374Y34459D01*
G37*
%LPD*%
G36*
X232494Y106585D02*
X232494Y106585D01*
X232521Y106583D01*
X232695Y106605D01*
X232868Y106623D01*
X232894Y106630D01*
X232920Y106634D01*
X233086Y106689D01*
X233253Y106741D01*
X233277Y106754D01*
X233302Y106762D01*
X233454Y106849D01*
X233607Y106933D01*
X233628Y106950D01*
X233651Y106963D01*
X233904Y107178D01*
X257822Y131096D01*
X257839Y131117D01*
X257860Y131134D01*
X257967Y131272D01*
X258077Y131408D01*
X258090Y131431D01*
X258106Y131452D01*
X258184Y131609D01*
X258266Y131763D01*
X258274Y131789D01*
X258286Y131813D01*
X258331Y131982D01*
X258381Y132149D01*
X258383Y132170D01*
X258384Y132175D01*
X258385Y132181D01*
X258390Y132202D01*
X258417Y132533D01*
X258417Y176778D01*
X258398Y176974D01*
X258379Y177168D01*
X258378Y177174D01*
X258377Y177178D01*
X258367Y177213D01*
X258289Y177488D01*
X257940Y178424D01*
X257905Y178495D01*
X257819Y178688D01*
X257490Y179291D01*
X257490Y179295D01*
X257480Y179385D01*
X257478Y179487D01*
X257461Y179569D01*
X257453Y179652D01*
X257445Y179680D01*
X257443Y179695D01*
X257425Y179751D01*
X257412Y179796D01*
X257394Y179881D01*
X257378Y179919D01*
X257363Y179971D01*
X257066Y180767D01*
X257029Y180842D01*
X257001Y180921D01*
X256941Y181022D01*
X256889Y181129D01*
X256838Y181195D01*
X256795Y181266D01*
X256720Y181349D01*
X256571Y182036D01*
X256547Y182110D01*
X256489Y182314D01*
X256247Y182964D01*
X256250Y183036D01*
X256265Y183153D01*
X256260Y183236D01*
X256264Y183319D01*
X256244Y183469D01*
X256238Y183554D01*
X256227Y183594D01*
X256220Y183648D01*
X256039Y184479D01*
X256014Y184558D01*
X255997Y184640D01*
X255952Y184749D01*
X255915Y184862D01*
X255874Y184934D01*
X255842Y185011D01*
X255780Y185104D01*
X255730Y185805D01*
X255717Y185882D01*
X255689Y186091D01*
X255541Y186770D01*
X255555Y186840D01*
X255586Y186954D01*
X255593Y187037D01*
X255609Y187119D01*
X255610Y187269D01*
X255617Y187356D01*
X255611Y187397D01*
X255612Y187451D01*
X255563Y188135D01*
X255537Y188288D01*
X255517Y188443D01*
X255503Y188487D01*
X255495Y188532D01*
X255449Y188649D01*
X255449Y189654D01*
X255443Y189715D01*
X255444Y189799D01*
X255373Y190800D01*
X255382Y190841D01*
X255422Y190992D01*
X255426Y191043D01*
X255435Y191082D01*
X255437Y191169D01*
X255449Y191322D01*
X255449Y213410D01*
X255448Y213419D01*
X255449Y213428D01*
X255428Y213620D01*
X255409Y213811D01*
X255407Y213819D01*
X255406Y213828D01*
X255348Y214011D01*
X255291Y214196D01*
X255287Y214204D01*
X255284Y214212D01*
X255191Y214381D01*
X255099Y214550D01*
X255094Y214557D01*
X255089Y214564D01*
X254964Y214712D01*
X254842Y214859D01*
X254835Y214865D01*
X254829Y214871D01*
X254677Y214991D01*
X254528Y215111D01*
X254520Y215115D01*
X254513Y215121D01*
X254341Y215208D01*
X254171Y215297D01*
X254162Y215299D01*
X254154Y215303D01*
X253968Y215355D01*
X253784Y215408D01*
X253775Y215409D01*
X253766Y215411D01*
X253574Y215426D01*
X253382Y215441D01*
X253374Y215440D01*
X253365Y215441D01*
X253172Y215416D01*
X252983Y215394D01*
X252974Y215392D01*
X252965Y215390D01*
X252782Y215329D01*
X252600Y215269D01*
X252592Y215265D01*
X252584Y215262D01*
X252418Y215167D01*
X252249Y215072D01*
X252242Y215066D01*
X252235Y215061D01*
X251982Y214847D01*
X250864Y213729D01*
X231136Y213729D01*
X230050Y214815D01*
X230043Y214820D01*
X230038Y214827D01*
X229888Y214947D01*
X229739Y215070D01*
X229731Y215074D01*
X229724Y215079D01*
X229554Y215168D01*
X229383Y215258D01*
X229374Y215261D01*
X229367Y215265D01*
X229182Y215318D01*
X228997Y215373D01*
X228988Y215374D01*
X228980Y215376D01*
X228789Y215392D01*
X228596Y215409D01*
X228587Y215408D01*
X228578Y215409D01*
X228389Y215387D01*
X228196Y215366D01*
X228187Y215363D01*
X228179Y215362D01*
X227997Y215303D01*
X227812Y215245D01*
X227804Y215240D01*
X227796Y215237D01*
X227629Y215143D01*
X227460Y215050D01*
X227453Y215044D01*
X227445Y215040D01*
X227300Y214914D01*
X227153Y214789D01*
X227147Y214782D01*
X227140Y214776D01*
X227024Y214626D01*
X226903Y214473D01*
X226899Y214465D01*
X226894Y214458D01*
X226808Y214287D01*
X226721Y214114D01*
X226718Y214106D01*
X226714Y214098D01*
X226664Y213912D01*
X226613Y213726D01*
X226612Y213718D01*
X226610Y213709D01*
X226583Y213378D01*
X226583Y206582D01*
X226585Y206564D01*
X226583Y206546D01*
X226604Y206364D01*
X226623Y206181D01*
X226628Y206164D01*
X226630Y206147D01*
X226687Y205972D01*
X226741Y205796D01*
X226749Y205781D01*
X226755Y205764D01*
X226845Y205604D01*
X226933Y205442D01*
X226944Y205429D01*
X226953Y205413D01*
X227073Y205274D01*
X227190Y205133D01*
X227204Y205122D01*
X227216Y205108D01*
X227361Y204996D01*
X227504Y204881D01*
X227520Y204873D01*
X227534Y204862D01*
X227699Y204780D01*
X227861Y204695D01*
X227878Y204690D01*
X227894Y204682D01*
X228073Y204635D01*
X228248Y204584D01*
X228266Y204582D01*
X228283Y204578D01*
X228614Y204551D01*
X230849Y204551D01*
X232051Y203349D01*
X232051Y191572D01*
X232053Y191554D01*
X232051Y191536D01*
X232072Y191354D01*
X232091Y191171D01*
X232096Y191154D01*
X232098Y191137D01*
X232155Y190962D01*
X232209Y190786D01*
X232217Y190771D01*
X232223Y190754D01*
X232313Y190594D01*
X232401Y190432D01*
X232412Y190419D01*
X232421Y190403D01*
X232541Y190264D01*
X232658Y190123D01*
X232672Y190112D01*
X232684Y190098D01*
X232829Y189986D01*
X232972Y189871D01*
X232988Y189863D01*
X233002Y189852D01*
X233167Y189770D01*
X233329Y189685D01*
X233346Y189680D01*
X233362Y189672D01*
X233541Y189625D01*
X233716Y189574D01*
X233734Y189572D01*
X233751Y189568D01*
X234082Y189541D01*
X246052Y189541D01*
X247541Y188052D01*
X247541Y165948D01*
X246052Y164459D01*
X234082Y164459D01*
X234064Y164457D01*
X234046Y164459D01*
X233864Y164438D01*
X233681Y164419D01*
X233664Y164414D01*
X233647Y164412D01*
X233472Y164355D01*
X233296Y164301D01*
X233281Y164293D01*
X233264Y164287D01*
X233104Y164197D01*
X232942Y164109D01*
X232929Y164098D01*
X232913Y164089D01*
X232774Y163969D01*
X232633Y163852D01*
X232622Y163838D01*
X232608Y163826D01*
X232496Y163681D01*
X232381Y163538D01*
X232373Y163522D01*
X232362Y163508D01*
X232280Y163343D01*
X232195Y163181D01*
X232190Y163164D01*
X232182Y163148D01*
X232134Y162969D01*
X232084Y162794D01*
X232082Y162776D01*
X232078Y162759D01*
X232051Y162428D01*
X232051Y151151D01*
X230849Y149949D01*
X228614Y149949D01*
X228596Y149947D01*
X228578Y149949D01*
X228396Y149928D01*
X228213Y149909D01*
X228196Y149904D01*
X228179Y149902D01*
X228004Y149845D01*
X227828Y149791D01*
X227813Y149783D01*
X227796Y149777D01*
X227636Y149687D01*
X227474Y149599D01*
X227461Y149588D01*
X227445Y149579D01*
X227306Y149459D01*
X227165Y149342D01*
X227154Y149328D01*
X227140Y149316D01*
X227028Y149171D01*
X226913Y149028D01*
X226905Y149012D01*
X226894Y148998D01*
X226812Y148833D01*
X226727Y148671D01*
X226722Y148654D01*
X226714Y148638D01*
X226667Y148459D01*
X226616Y148284D01*
X226614Y148266D01*
X226610Y148249D01*
X226583Y147918D01*
X226583Y117507D01*
X226585Y117481D01*
X226583Y117454D01*
X226605Y117280D01*
X226623Y117107D01*
X226630Y117081D01*
X226634Y117055D01*
X226689Y116889D01*
X226741Y116722D01*
X226754Y116698D01*
X226762Y116673D01*
X226849Y116521D01*
X226933Y116368D01*
X226950Y116347D01*
X226963Y116324D01*
X227178Y116071D01*
X227445Y115804D01*
X228333Y113660D01*
X228333Y111340D01*
X227526Y109391D01*
X227522Y109378D01*
X227516Y109367D01*
X227464Y109187D01*
X227409Y109006D01*
X227408Y108993D01*
X227404Y108980D01*
X227389Y108792D01*
X227371Y108605D01*
X227372Y108592D01*
X227371Y108578D01*
X227393Y108392D01*
X227413Y108205D01*
X227417Y108192D01*
X227418Y108179D01*
X227476Y108000D01*
X227533Y107820D01*
X227539Y107809D01*
X227543Y107796D01*
X227636Y107632D01*
X227726Y107467D01*
X227734Y107457D01*
X227741Y107445D01*
X227864Y107303D01*
X227985Y107159D01*
X227995Y107151D01*
X228004Y107140D01*
X228152Y107026D01*
X228300Y106908D01*
X228312Y106902D01*
X228322Y106894D01*
X228491Y106810D01*
X228658Y106724D01*
X228671Y106720D01*
X228683Y106714D01*
X228866Y106665D01*
X229045Y106614D01*
X229059Y106613D01*
X229072Y106610D01*
X229402Y106583D01*
X232467Y106583D01*
X232494Y106585D01*
G37*
%LPC*%
G36*
X523516Y315459D02*
X523516Y315459D01*
X515232Y318891D01*
X508891Y325232D01*
X505459Y333516D01*
X505459Y342484D01*
X508891Y350768D01*
X515232Y357109D01*
X517787Y358167D01*
X517787Y358168D01*
X523516Y360541D01*
X532484Y360541D01*
X540768Y357109D01*
X547109Y350768D01*
X550541Y342484D01*
X550541Y333516D01*
X547109Y325232D01*
X540768Y318891D01*
X532484Y315459D01*
X523516Y315459D01*
G37*
%LPD*%
G36*
X204236Y194689D02*
X204236Y194689D01*
X204254Y194687D01*
X204436Y194709D01*
X204619Y194727D01*
X204636Y194732D01*
X204653Y194734D01*
X204828Y194791D01*
X205004Y194845D01*
X205019Y194853D01*
X205036Y194859D01*
X205196Y194949D01*
X205358Y195037D01*
X205371Y195048D01*
X205387Y195057D01*
X205526Y195177D01*
X205667Y195295D01*
X205678Y195308D01*
X205692Y195320D01*
X205804Y195465D01*
X205919Y195608D01*
X205927Y195624D01*
X205938Y195638D01*
X206020Y195803D01*
X206105Y195966D01*
X206110Y195983D01*
X206118Y195999D01*
X206165Y196177D01*
X206216Y196352D01*
X206218Y196370D01*
X206222Y196387D01*
X206249Y196718D01*
X206249Y205041D01*
X210335Y205041D01*
X210981Y204868D01*
X211672Y204468D01*
X211721Y204428D01*
X211737Y204420D01*
X211752Y204408D01*
X211915Y204325D01*
X212077Y204240D01*
X212094Y204234D01*
X212110Y204226D01*
X212287Y204177D01*
X212462Y204125D01*
X212481Y204123D01*
X212498Y204118D01*
X212681Y204105D01*
X212863Y204088D01*
X212882Y204090D01*
X212900Y204089D01*
X213082Y204112D01*
X213264Y204131D01*
X213281Y204137D01*
X213299Y204139D01*
X213472Y204197D01*
X213648Y204253D01*
X213664Y204262D01*
X213681Y204267D01*
X213839Y204358D01*
X214000Y204447D01*
X214014Y204459D01*
X214030Y204468D01*
X214127Y204551D01*
X216386Y204551D01*
X216404Y204553D01*
X216422Y204551D01*
X216604Y204572D01*
X216787Y204591D01*
X216804Y204596D01*
X216821Y204598D01*
X216996Y204655D01*
X217172Y204709D01*
X217187Y204717D01*
X217204Y204723D01*
X217364Y204813D01*
X217526Y204901D01*
X217539Y204912D01*
X217555Y204921D01*
X217694Y205041D01*
X217835Y205158D01*
X217846Y205172D01*
X217860Y205184D01*
X217972Y205329D01*
X218087Y205472D01*
X218095Y205488D01*
X218106Y205502D01*
X218188Y205667D01*
X218273Y205829D01*
X218278Y205846D01*
X218286Y205862D01*
X218333Y206041D01*
X218384Y206216D01*
X218386Y206234D01*
X218390Y206251D01*
X218417Y206582D01*
X218417Y220476D01*
X218416Y220490D01*
X218417Y220503D01*
X218396Y220690D01*
X218377Y220877D01*
X218373Y220890D01*
X218372Y220903D01*
X218314Y221082D01*
X218259Y221262D01*
X218253Y221274D01*
X218249Y221287D01*
X218157Y221450D01*
X218067Y221616D01*
X218059Y221626D01*
X218052Y221638D01*
X217930Y221781D01*
X217810Y221925D01*
X217799Y221934D01*
X217791Y221944D01*
X217642Y222060D01*
X217496Y222178D01*
X217484Y222184D01*
X217474Y222192D01*
X217304Y222277D01*
X217139Y222363D01*
X217126Y222367D01*
X217114Y222373D01*
X216932Y222422D01*
X216752Y222474D01*
X216738Y222476D01*
X216725Y222479D01*
X216539Y222492D01*
X216350Y222507D01*
X216337Y222506D01*
X216324Y222507D01*
X216138Y222482D01*
X215951Y222460D01*
X215938Y222456D01*
X215925Y222455D01*
X215609Y222353D01*
X215160Y222167D01*
X212840Y222167D01*
X210696Y223055D01*
X209055Y224696D01*
X208874Y225133D01*
X208859Y225161D01*
X208849Y225191D01*
X208764Y225338D01*
X208684Y225488D01*
X208664Y225512D01*
X208648Y225539D01*
X208434Y225792D01*
X199154Y235072D01*
X199133Y235089D01*
X199116Y235110D01*
X198978Y235217D01*
X198842Y235327D01*
X198819Y235340D01*
X198798Y235356D01*
X198641Y235434D01*
X198487Y235516D01*
X198461Y235524D01*
X198437Y235536D01*
X198268Y235581D01*
X198101Y235631D01*
X198074Y235633D01*
X198048Y235640D01*
X197717Y235667D01*
X196340Y235667D01*
X194196Y236555D01*
X192318Y238433D01*
X192311Y238439D01*
X192306Y238445D01*
X192156Y238566D01*
X192007Y238688D01*
X191999Y238692D01*
X191992Y238698D01*
X191822Y238786D01*
X191651Y238877D01*
X191642Y238879D01*
X191635Y238883D01*
X191450Y238936D01*
X191265Y238991D01*
X191256Y238992D01*
X191248Y238995D01*
X191057Y239010D01*
X190864Y239028D01*
X190855Y239027D01*
X190846Y239028D01*
X190657Y239005D01*
X190464Y238984D01*
X190455Y238982D01*
X190447Y238981D01*
X190265Y238921D01*
X190080Y238863D01*
X190072Y238859D01*
X190064Y238856D01*
X189897Y238762D01*
X189728Y238668D01*
X189721Y238662D01*
X189713Y238658D01*
X189568Y238533D01*
X189421Y238408D01*
X189415Y238401D01*
X189408Y238395D01*
X189291Y238243D01*
X189171Y238092D01*
X189167Y238084D01*
X189162Y238077D01*
X189076Y237905D01*
X188989Y237733D01*
X188986Y237724D01*
X188982Y237716D01*
X188932Y237530D01*
X188881Y237345D01*
X188880Y237336D01*
X188878Y237327D01*
X188851Y236997D01*
X188851Y206582D01*
X188853Y206564D01*
X188851Y206546D01*
X188872Y206364D01*
X188891Y206181D01*
X188896Y206164D01*
X188898Y206147D01*
X188955Y205972D01*
X189009Y205796D01*
X189017Y205781D01*
X189023Y205764D01*
X189113Y205604D01*
X189201Y205442D01*
X189212Y205429D01*
X189221Y205413D01*
X189341Y205274D01*
X189458Y205133D01*
X189472Y205122D01*
X189484Y205108D01*
X189629Y204996D01*
X189772Y204881D01*
X189788Y204873D01*
X189802Y204862D01*
X189967Y204780D01*
X190129Y204695D01*
X190146Y204690D01*
X190162Y204682D01*
X190341Y204635D01*
X190516Y204584D01*
X190534Y204582D01*
X190551Y204578D01*
X190878Y204551D01*
X190887Y204544D01*
X191029Y204428D01*
X191045Y204419D01*
X191059Y204408D01*
X191222Y204325D01*
X191384Y204239D01*
X191402Y204234D01*
X191418Y204226D01*
X191595Y204177D01*
X191770Y204125D01*
X191788Y204123D01*
X191806Y204118D01*
X191989Y204105D01*
X192171Y204088D01*
X192189Y204090D01*
X192208Y204089D01*
X192389Y204112D01*
X192571Y204131D01*
X192589Y204137D01*
X192607Y204139D01*
X192782Y204198D01*
X192955Y204253D01*
X192971Y204262D01*
X192989Y204268D01*
X193148Y204360D01*
X193308Y204448D01*
X193322Y204460D01*
X193337Y204469D01*
X193357Y204485D01*
X194019Y204868D01*
X194665Y205041D01*
X198751Y205041D01*
X198751Y196718D01*
X198752Y196700D01*
X198751Y196683D01*
X198772Y196500D01*
X198791Y196318D01*
X198796Y196301D01*
X198798Y196283D01*
X198855Y196108D01*
X198909Y195933D01*
X198917Y195917D01*
X198923Y195900D01*
X199013Y195740D01*
X199100Y195579D01*
X199112Y195565D01*
X199121Y195549D01*
X199241Y195410D01*
X199358Y195269D01*
X199372Y195258D01*
X199384Y195245D01*
X199529Y195132D01*
X199672Y195017D01*
X199688Y195009D01*
X199702Y194998D01*
X199867Y194916D01*
X200029Y194832D01*
X200046Y194827D01*
X200062Y194819D01*
X200241Y194771D01*
X200416Y194720D01*
X200434Y194719D01*
X200451Y194714D01*
X200782Y194687D01*
X204218Y194687D01*
X204236Y194689D01*
G37*
%LPC*%
G36*
X400576Y355929D02*
X400576Y355929D01*
X397022Y357402D01*
X394302Y360122D01*
X392829Y363676D01*
X392829Y367524D01*
X394302Y371078D01*
X397022Y373798D01*
X400576Y375271D01*
X404424Y375271D01*
X407978Y373798D01*
X410698Y371078D01*
X412171Y367524D01*
X412171Y363676D01*
X410698Y360122D01*
X407978Y357402D01*
X404424Y355929D01*
X400576Y355929D01*
G37*
%LPD*%
%LPC*%
G36*
X400576Y305129D02*
X400576Y305129D01*
X397022Y306602D01*
X394302Y309322D01*
X392829Y312876D01*
X392829Y316724D01*
X394302Y320278D01*
X397022Y322998D01*
X400576Y324471D01*
X404424Y324471D01*
X407978Y322998D01*
X410698Y320278D01*
X412171Y316724D01*
X412171Y312876D01*
X410698Y309322D01*
X407978Y306602D01*
X404424Y305129D01*
X400576Y305129D01*
G37*
%LPD*%
%LPC*%
G36*
X400576Y279729D02*
X400576Y279729D01*
X397022Y281202D01*
X394302Y283922D01*
X392829Y287476D01*
X392829Y291324D01*
X394302Y294878D01*
X397022Y297598D01*
X400576Y299071D01*
X404424Y299071D01*
X407978Y297598D01*
X410698Y294878D01*
X412171Y291324D01*
X412171Y287476D01*
X410698Y283922D01*
X407978Y281202D01*
X404424Y279729D01*
X400576Y279729D01*
G37*
%LPD*%
%LPC*%
G36*
X527301Y255408D02*
X527301Y255408D01*
X524162Y256708D01*
X521760Y259111D01*
X520459Y262250D01*
X520459Y265647D01*
X521760Y268787D01*
X524162Y271189D01*
X527301Y272489D01*
X530699Y272489D01*
X533838Y271189D01*
X536240Y268787D01*
X537541Y265647D01*
X537541Y262250D01*
X536240Y259111D01*
X533838Y256708D01*
X530699Y255408D01*
X527301Y255408D01*
G37*
%LPD*%
%LPC*%
G36*
X457301Y255408D02*
X457301Y255408D01*
X454162Y256708D01*
X451760Y259111D01*
X450459Y262250D01*
X450459Y265647D01*
X451760Y268787D01*
X454162Y271189D01*
X457301Y272489D01*
X460699Y272489D01*
X463838Y271189D01*
X466240Y268787D01*
X467541Y265647D01*
X467541Y262250D01*
X466240Y259111D01*
X463838Y256708D01*
X460699Y255408D01*
X457301Y255408D01*
G37*
%LPD*%
%LPC*%
G36*
X457301Y158959D02*
X457301Y158959D01*
X454162Y160260D01*
X451760Y162662D01*
X450459Y165801D01*
X450459Y169199D01*
X451760Y172338D01*
X454162Y174740D01*
X457301Y176041D01*
X460699Y176041D01*
X463838Y174740D01*
X466240Y172338D01*
X467541Y169199D01*
X467541Y165801D01*
X466240Y162662D01*
X463838Y160260D01*
X460699Y158959D01*
X457301Y158959D01*
G37*
%LPD*%
%LPC*%
G36*
X527301Y158959D02*
X527301Y158959D01*
X524162Y160260D01*
X521760Y162662D01*
X520459Y165801D01*
X520459Y169199D01*
X521760Y172338D01*
X524162Y174740D01*
X527301Y176041D01*
X530699Y176041D01*
X533838Y174740D01*
X536240Y172338D01*
X537541Y169199D01*
X537541Y165801D01*
X536240Y162662D01*
X533838Y160260D01*
X530699Y158959D01*
X527301Y158959D01*
G37*
%LPD*%
%LPC*%
G36*
X229444Y256219D02*
X229444Y256219D01*
X229444Y260555D01*
X229617Y261201D01*
X229952Y261780D01*
X230425Y262253D01*
X231004Y262588D01*
X231650Y262761D01*
X237001Y262761D01*
X237001Y256219D01*
X229444Y256219D01*
G37*
%LPD*%
%LPC*%
G36*
X231650Y241679D02*
X231650Y241679D01*
X231004Y241852D01*
X230425Y242187D01*
X229952Y242660D01*
X229617Y243239D01*
X229444Y243885D01*
X229444Y248221D01*
X237001Y248221D01*
X237001Y241679D01*
X231650Y241679D01*
G37*
%LPD*%
%LPC*%
G36*
X405039Y342739D02*
X405039Y342739D01*
X405039Y350059D01*
X406400Y349616D01*
X407825Y348890D01*
X409119Y347950D01*
X410250Y346819D01*
X411190Y345525D01*
X411916Y344100D01*
X412359Y342739D01*
X405039Y342739D01*
G37*
%LPD*%
%LPC*%
G36*
X392641Y342739D02*
X392641Y342739D01*
X393084Y344100D01*
X393810Y345525D01*
X394750Y346819D01*
X395881Y347950D01*
X397175Y348890D01*
X398600Y349616D01*
X399961Y350059D01*
X399961Y342739D01*
X392641Y342739D01*
G37*
%LPD*%
%LPC*%
G36*
X405039Y337661D02*
X405039Y337661D01*
X412359Y337661D01*
X411916Y336300D01*
X411190Y334875D01*
X410250Y333581D01*
X409119Y332450D01*
X407825Y331510D01*
X406400Y330784D01*
X405039Y330341D01*
X405039Y337661D01*
G37*
%LPD*%
%LPC*%
G36*
X398600Y330784D02*
X398600Y330784D01*
X397175Y331510D01*
X395881Y332450D01*
X394750Y333581D01*
X393810Y334875D01*
X393084Y336300D01*
X392641Y337661D01*
X399961Y337661D01*
X399961Y330341D01*
X398600Y330784D01*
G37*
%LPD*%
D10*
X295000Y85000D03*
X432500Y85000D03*
D11*
X182500Y195000D03*
D12*
X402500Y289400D03*
X402500Y314800D03*
X402500Y340200D03*
X402500Y365600D03*
D11*
X222500Y195000D03*
X202500Y195000D03*
X202500Y159500D03*
X222500Y159500D03*
X182500Y159500D03*
D13*
X322500Y227500D03*
X262500Y227500D03*
D14*
X241000Y252220D03*
X241000Y223780D03*
D15*
X210500Y214500D03*
X226500Y24500D03*
X242500Y205500D03*
X250690Y269640D03*
X313431Y287397D03*
X382092Y248332D03*
X448385Y229391D03*
X464385Y143391D03*
D16*
X182500Y195000D02*
X182500Y247500D01*
X239551Y304551D01*
X350449Y304551D01*
X417500Y237500D01*
X417500Y100000D01*
X432500Y85000D01*
X295000Y85000D01*
D15*
X214000Y228000D03*
D16*
X212000Y228000D01*
X198000Y242000D01*
X197500Y241500D01*
D15*
X197500Y241500D03*
X428162Y168162D03*
D16*
X462500Y202500D01*
X462500Y234081D01*
D15*
X462500Y234081D03*
D16*
X202500Y159500D02*
X202500Y112500D01*
D15*
X202500Y112500D03*
X222500Y112500D03*
D16*
X222500Y159500D01*
X262500Y223000D02*
X262500Y227500D01*
X262500Y223000D02*
X262500Y130000D01*
X235000Y102500D01*
X192500Y102500D02*
X182500Y112500D01*
X192500Y102500D02*
X235000Y102500D01*
D15*
X182500Y112500D03*
D16*
X241000Y223780D02*
X261720Y223780D01*
X262500Y223000D01*
X322500Y227500D02*
X322500Y175000D01*
X265000Y117500D01*
D15*
X265000Y117500D03*
X192500Y125000D03*
D16*
X182500Y135000D01*
X182500Y159500D01*
X222500Y195000D02*
X222500Y234500D01*
X206000Y251000D01*
D15*
X206000Y251000D03*
M02*
