M48
;GenerationSoftware,Autodesk,EAGLE,9.5.1*%
;CreationDate,2020-11-05T20:05:11Z*%
FMAT,2
ICI,OFF
METRIC,TZ,000.000
T6C0.350
T5C1.016
T4C1.200
T3C2.800
T2C4.000
T1C5.000
%
G90
M71
T1
X20300Y6300
X52700Y6200
T2
X52800Y33800
T3
X29500Y8500
X43250Y8500
T4
X52900Y26395
X45900Y26395
X52900Y16750
X45900Y16750
T5
X40250Y28940
X40250Y31480
X40250Y34020
X40250Y36560
T6
X21050Y21450
X22650Y2450
X24250Y20550
X25069Y26964
X31343Y28740
X38209Y24833
X44838Y22939
X46438Y14339
X21400Y22800
X19750Y24150
X42816Y16816
X46250Y23408
X20250Y11250
X22250Y11250
X18250Y11250
X26500Y11750
X19250Y12500
X20600Y25100
M30