G04 EAGLE Gerber RS-274X export*
G75*
%MOMM*%
%FSLAX34Y34*%
%LPD*%
%INSilkscreen Bottom*%
%IPPOS*%
%AMOC8*
5,1,8,0,0,1.08239X$1,22.5*%
G01*
%ADD10C,0.050800*%
%ADD11C,0.228600*%
%ADD12C,0.457200*%
%ADD13C,0.152400*%
%ADD14C,0.203200*%
%ADD15C,0.254000*%


D10*
X295000Y55790D02*
X295000Y58330D01*
X295000Y111670D02*
X295000Y114210D01*
D11*
X293858Y113043D02*
X293862Y92405D01*
X293861Y92406D02*
X293682Y92376D01*
X293502Y92342D01*
X293324Y92303D01*
X293147Y92260D01*
X292971Y92213D01*
X292796Y92161D01*
X292622Y92106D01*
X292450Y92046D01*
X292279Y91982D01*
X292110Y91913D01*
X291943Y91841D01*
X291777Y91764D01*
X291613Y91684D01*
X291452Y91600D01*
X291292Y91511D01*
X291135Y91419D01*
X290980Y91323D01*
X290827Y91223D01*
X290677Y91120D01*
X290529Y91013D01*
X290384Y90902D01*
X290242Y90788D01*
X290102Y90671D01*
X289966Y90550D01*
X289832Y90426D01*
X289702Y90298D01*
X289574Y90168D01*
X289450Y90034D01*
X289329Y89898D01*
X289212Y89758D01*
X289098Y89616D01*
X288987Y89471D01*
X288880Y89323D01*
X288777Y89173D01*
X288677Y89020D01*
X288581Y88865D01*
X288489Y88708D01*
X288400Y88548D01*
X288316Y88387D01*
X288236Y88223D01*
X288159Y88057D01*
X288087Y87890D01*
X288018Y87721D01*
X287954Y87550D01*
X287894Y87378D01*
X287839Y87204D01*
X287787Y87029D01*
X287740Y86853D01*
X287697Y86676D01*
X287658Y86498D01*
X287624Y86318D01*
X287594Y86139D01*
X266957Y86142D01*
X266956Y86143D01*
X266993Y86827D01*
X267045Y87510D01*
X267115Y88192D01*
X267201Y88872D01*
X267304Y89549D01*
X267423Y90224D01*
X267559Y90896D01*
X267711Y91564D01*
X267880Y92228D01*
X268064Y92888D01*
X268265Y93543D01*
X268481Y94193D01*
X268714Y94838D01*
X268962Y95477D01*
X269225Y96109D01*
X269504Y96735D01*
X269798Y97354D01*
X270107Y97966D01*
X270431Y98570D01*
X270770Y99165D01*
X271123Y99753D01*
X271490Y100331D01*
X271872Y100901D01*
X272267Y101461D01*
X272675Y102011D01*
X273097Y102551D01*
X273532Y103080D01*
X273980Y103599D01*
X274440Y104106D01*
X274913Y104603D01*
X275397Y105087D01*
X275894Y105560D01*
X276401Y106020D01*
X276920Y106468D01*
X277449Y106903D01*
X277989Y107325D01*
X278539Y107733D01*
X279099Y108128D01*
X279669Y108510D01*
X280247Y108877D01*
X280835Y109230D01*
X281430Y109569D01*
X282034Y109893D01*
X282646Y110202D01*
X283265Y110496D01*
X283891Y110775D01*
X284523Y111038D01*
X285162Y111286D01*
X285807Y111519D01*
X286457Y111735D01*
X287112Y111936D01*
X287772Y112120D01*
X288436Y112289D01*
X289104Y112441D01*
X289776Y112577D01*
X290451Y112696D01*
X291128Y112799D01*
X291808Y112885D01*
X292490Y112955D01*
X293173Y113007D01*
X293857Y113044D01*
X293857Y110871D01*
X293229Y110835D01*
X292602Y110785D01*
X291976Y110719D01*
X291352Y110638D01*
X290730Y110541D01*
X290110Y110430D01*
X289494Y110304D01*
X288881Y110163D01*
X288271Y110006D01*
X287665Y109836D01*
X287064Y109650D01*
X286467Y109450D01*
X285875Y109235D01*
X285289Y109006D01*
X284709Y108763D01*
X284134Y108506D01*
X283566Y108235D01*
X283005Y107950D01*
X282451Y107652D01*
X281904Y107340D01*
X281365Y107016D01*
X280834Y106678D01*
X280311Y106327D01*
X279797Y105964D01*
X279292Y105588D01*
X278797Y105200D01*
X278311Y104801D01*
X277834Y104389D01*
X277368Y103966D01*
X276913Y103532D01*
X276468Y103087D01*
X276034Y102632D01*
X275611Y102166D01*
X275199Y101689D01*
X274800Y101203D01*
X274412Y100708D01*
X274036Y100203D01*
X273673Y99689D01*
X273322Y99166D01*
X272984Y98635D01*
X272660Y98096D01*
X272348Y97549D01*
X272050Y96995D01*
X271765Y96434D01*
X271494Y95866D01*
X271237Y95291D01*
X270994Y94711D01*
X270765Y94125D01*
X270550Y93533D01*
X270350Y92936D01*
X270164Y92335D01*
X269994Y91729D01*
X269837Y91119D01*
X269696Y90506D01*
X269570Y89890D01*
X269459Y89270D01*
X269362Y88648D01*
X269281Y88024D01*
X269215Y87398D01*
X269165Y86771D01*
X269129Y86143D01*
X271303Y86143D01*
X271337Y86715D01*
X271385Y87286D01*
X271448Y87856D01*
X271523Y88425D01*
X271613Y88991D01*
X271716Y89555D01*
X271833Y90117D01*
X271964Y90675D01*
X272108Y91230D01*
X272265Y91782D01*
X272435Y92329D01*
X272619Y92872D01*
X272816Y93411D01*
X273026Y93945D01*
X273248Y94473D01*
X273484Y94996D01*
X273732Y95513D01*
X273992Y96024D01*
X274264Y96529D01*
X274549Y97027D01*
X274846Y97517D01*
X275154Y98001D01*
X275474Y98477D01*
X275806Y98945D01*
X276148Y99404D01*
X276502Y99856D01*
X276866Y100299D01*
X277241Y100732D01*
X277627Y101157D01*
X278022Y101572D01*
X278428Y101978D01*
X278843Y102373D01*
X279268Y102759D01*
X279701Y103134D01*
X280144Y103498D01*
X280596Y103852D01*
X281055Y104194D01*
X281523Y104526D01*
X281999Y104846D01*
X282483Y105154D01*
X282973Y105451D01*
X283471Y105736D01*
X283976Y106008D01*
X284487Y106268D01*
X285004Y106516D01*
X285527Y106752D01*
X286055Y106974D01*
X286589Y107184D01*
X287128Y107381D01*
X287671Y107565D01*
X288218Y107735D01*
X288770Y107892D01*
X289325Y108036D01*
X289883Y108167D01*
X290445Y108284D01*
X291009Y108387D01*
X291575Y108477D01*
X292144Y108552D01*
X292714Y108615D01*
X293285Y108663D01*
X293857Y108697D01*
X293858Y106524D01*
X293332Y106489D01*
X292808Y106442D01*
X292286Y106382D01*
X291765Y106310D01*
X291245Y106224D01*
X290728Y106126D01*
X290214Y106016D01*
X289702Y105893D01*
X289194Y105757D01*
X288689Y105609D01*
X288188Y105449D01*
X287691Y105277D01*
X287198Y105092D01*
X286710Y104896D01*
X286227Y104688D01*
X285749Y104468D01*
X285276Y104236D01*
X284810Y103993D01*
X284349Y103738D01*
X283895Y103473D01*
X283447Y103196D01*
X283006Y102909D01*
X282573Y102611D01*
X282147Y102302D01*
X281728Y101983D01*
X281318Y101654D01*
X280915Y101315D01*
X280521Y100967D01*
X280136Y100608D01*
X279759Y100241D01*
X279392Y99864D01*
X279033Y99479D01*
X278685Y99085D01*
X278346Y98682D01*
X278017Y98272D01*
X277698Y97853D01*
X277389Y97427D01*
X277091Y96994D01*
X276804Y96553D01*
X276527Y96105D01*
X276262Y95651D01*
X276007Y95190D01*
X275764Y94724D01*
X275532Y94251D01*
X275312Y93773D01*
X275104Y93290D01*
X274908Y92802D01*
X274723Y92309D01*
X274551Y91812D01*
X274391Y91311D01*
X274243Y90806D01*
X274107Y90298D01*
X273984Y89786D01*
X273874Y89272D01*
X273776Y88755D01*
X273690Y88235D01*
X273618Y87714D01*
X273558Y87192D01*
X273511Y86668D01*
X273476Y86142D01*
X275651Y86142D01*
X275684Y86610D01*
X275729Y87078D01*
X275785Y87544D01*
X275852Y88008D01*
X275930Y88471D01*
X276020Y88932D01*
X276121Y89390D01*
X276233Y89846D01*
X276355Y90299D01*
X276489Y90749D01*
X276634Y91195D01*
X276789Y91638D01*
X276955Y92077D01*
X277132Y92512D01*
X277319Y92942D01*
X277516Y93368D01*
X277724Y93789D01*
X277942Y94205D01*
X278170Y94615D01*
X278408Y95020D01*
X278655Y95418D01*
X278912Y95811D01*
X279179Y96197D01*
X279454Y96577D01*
X279739Y96950D01*
X280033Y97316D01*
X280336Y97675D01*
X280647Y98026D01*
X280966Y98370D01*
X281294Y98706D01*
X281630Y99034D01*
X281974Y99353D01*
X282325Y99664D01*
X282684Y99967D01*
X283050Y100261D01*
X283423Y100546D01*
X283803Y100821D01*
X284189Y101088D01*
X284582Y101345D01*
X284980Y101592D01*
X285385Y101830D01*
X285795Y102058D01*
X286211Y102276D01*
X286632Y102484D01*
X287058Y102681D01*
X287488Y102868D01*
X287923Y103045D01*
X288362Y103211D01*
X288805Y103366D01*
X289251Y103511D01*
X289701Y103645D01*
X290154Y103767D01*
X290610Y103879D01*
X291068Y103980D01*
X291529Y104070D01*
X291992Y104148D01*
X292456Y104215D01*
X292922Y104271D01*
X293390Y104316D01*
X293858Y104349D01*
X293858Y102174D01*
X293440Y102141D01*
X293022Y102098D01*
X292606Y102045D01*
X292192Y101981D01*
X291779Y101908D01*
X291368Y101824D01*
X290959Y101731D01*
X290552Y101627D01*
X290148Y101514D01*
X289747Y101391D01*
X289349Y101258D01*
X288955Y101115D01*
X288564Y100963D01*
X288177Y100802D01*
X287794Y100631D01*
X287415Y100451D01*
X287041Y100261D01*
X286671Y100063D01*
X286306Y99855D01*
X285947Y99639D01*
X285593Y99414D01*
X285244Y99180D01*
X284902Y98938D01*
X284565Y98688D01*
X284235Y98430D01*
X283910Y98163D01*
X283593Y97889D01*
X283282Y97607D01*
X282978Y97318D01*
X282682Y97022D01*
X282393Y96718D01*
X282111Y96407D01*
X281837Y96090D01*
X281570Y95765D01*
X281312Y95435D01*
X281062Y95098D01*
X280820Y94756D01*
X280586Y94407D01*
X280361Y94053D01*
X280145Y93694D01*
X279937Y93329D01*
X279739Y92959D01*
X279549Y92585D01*
X279369Y92206D01*
X279198Y91823D01*
X279037Y91436D01*
X278885Y91045D01*
X278742Y90651D01*
X278609Y90253D01*
X278486Y89852D01*
X278373Y89448D01*
X278269Y89041D01*
X278176Y88632D01*
X278092Y88221D01*
X278019Y87808D01*
X277955Y87394D01*
X277902Y86978D01*
X277859Y86560D01*
X277826Y86142D01*
X280002Y86142D01*
X280035Y86508D01*
X280076Y86874D01*
X280127Y87238D01*
X280186Y87602D01*
X280254Y87963D01*
X280331Y88323D01*
X280416Y88681D01*
X280511Y89036D01*
X280614Y89390D01*
X280725Y89740D01*
X280846Y90088D01*
X280974Y90433D01*
X281111Y90774D01*
X281257Y91112D01*
X281410Y91446D01*
X281572Y91777D01*
X281742Y92103D01*
X281920Y92425D01*
X282105Y92743D01*
X282298Y93056D01*
X282499Y93364D01*
X282708Y93668D01*
X282923Y93966D01*
X283146Y94259D01*
X283376Y94546D01*
X283613Y94827D01*
X283857Y95103D01*
X284107Y95372D01*
X284364Y95636D01*
X284628Y95893D01*
X284897Y96143D01*
X285173Y96387D01*
X285454Y96624D01*
X285741Y96854D01*
X286034Y97077D01*
X286332Y97292D01*
X286636Y97501D01*
X286944Y97702D01*
X287257Y97895D01*
X287575Y98080D01*
X287897Y98258D01*
X288223Y98428D01*
X288554Y98590D01*
X288888Y98743D01*
X289226Y98889D01*
X289567Y99026D01*
X289912Y99154D01*
X290260Y99275D01*
X290610Y99386D01*
X290964Y99489D01*
X291319Y99584D01*
X291677Y99669D01*
X292037Y99746D01*
X292398Y99814D01*
X292762Y99873D01*
X293126Y99924D01*
X293492Y99965D01*
X293858Y99998D01*
X293859Y97819D01*
X293546Y97788D01*
X293233Y97748D01*
X292922Y97701D01*
X292613Y97647D01*
X292304Y97585D01*
X291998Y97515D01*
X291693Y97438D01*
X291390Y97353D01*
X291089Y97261D01*
X290790Y97162D01*
X290494Y97056D01*
X290201Y96942D01*
X289911Y96821D01*
X289623Y96693D01*
X289339Y96558D01*
X289058Y96416D01*
X288781Y96268D01*
X288508Y96112D01*
X288238Y95950D01*
X287972Y95782D01*
X287711Y95607D01*
X287454Y95426D01*
X287201Y95238D01*
X286953Y95044D01*
X286710Y94845D01*
X286472Y94639D01*
X286239Y94428D01*
X286011Y94211D01*
X285789Y93989D01*
X285572Y93761D01*
X285361Y93528D01*
X285155Y93290D01*
X284956Y93047D01*
X284762Y92799D01*
X284574Y92546D01*
X284393Y92289D01*
X284218Y92028D01*
X284050Y91762D01*
X283888Y91492D01*
X283732Y91219D01*
X283584Y90942D01*
X283442Y90661D01*
X283307Y90377D01*
X283179Y90089D01*
X283058Y89799D01*
X282944Y89506D01*
X282838Y89210D01*
X282739Y88911D01*
X282647Y88610D01*
X282562Y88307D01*
X282485Y88002D01*
X282415Y87696D01*
X282353Y87387D01*
X282299Y87078D01*
X282252Y86767D01*
X282212Y86454D01*
X282181Y86141D01*
X284362Y86141D01*
X284393Y86398D01*
X284430Y86655D01*
X284473Y86911D01*
X284522Y87165D01*
X284578Y87418D01*
X284640Y87670D01*
X284707Y87920D01*
X284781Y88169D01*
X284861Y88416D01*
X284947Y88660D01*
X285038Y88903D01*
X285136Y89143D01*
X285239Y89381D01*
X285348Y89616D01*
X285463Y89849D01*
X285583Y90078D01*
X285709Y90305D01*
X285840Y90529D01*
X285977Y90749D01*
X286119Y90966D01*
X286266Y91179D01*
X286418Y91389D01*
X286576Y91595D01*
X286738Y91798D01*
X286905Y91996D01*
X287077Y92190D01*
X287254Y92380D01*
X287435Y92565D01*
X287620Y92746D01*
X287810Y92923D01*
X288004Y93095D01*
X288202Y93262D01*
X288405Y93424D01*
X288611Y93582D01*
X288821Y93734D01*
X289034Y93881D01*
X289251Y94023D01*
X289471Y94160D01*
X289695Y94291D01*
X289922Y94417D01*
X290151Y94537D01*
X290384Y94652D01*
X290619Y94761D01*
X290857Y94864D01*
X291097Y94962D01*
X291340Y95053D01*
X291584Y95139D01*
X291831Y95219D01*
X292080Y95293D01*
X292330Y95360D01*
X292582Y95422D01*
X292835Y95478D01*
X293089Y95527D01*
X293345Y95570D01*
X293602Y95607D01*
X293859Y95638D01*
X293860Y93452D01*
X293657Y93422D01*
X293454Y93387D01*
X293252Y93347D01*
X293051Y93302D01*
X292852Y93253D01*
X292653Y93199D01*
X292456Y93140D01*
X292261Y93076D01*
X292067Y93008D01*
X291874Y92935D01*
X291684Y92857D01*
X291495Y92775D01*
X291309Y92688D01*
X291124Y92596D01*
X290942Y92501D01*
X290762Y92401D01*
X290585Y92296D01*
X290410Y92188D01*
X290238Y92075D01*
X290069Y91958D01*
X289903Y91837D01*
X289739Y91712D01*
X289579Y91583D01*
X289422Y91450D01*
X289268Y91314D01*
X289117Y91174D01*
X288970Y91030D01*
X288826Y90883D01*
X288686Y90732D01*
X288550Y90578D01*
X288417Y90421D01*
X288288Y90261D01*
X288163Y90097D01*
X288042Y89931D01*
X287925Y89762D01*
X287812Y89590D01*
X287704Y89415D01*
X287599Y89238D01*
X287499Y89058D01*
X287404Y88876D01*
X287312Y88691D01*
X287225Y88505D01*
X287143Y88316D01*
X287065Y88126D01*
X286992Y87933D01*
X286924Y87739D01*
X286860Y87544D01*
X286801Y87347D01*
X286747Y87148D01*
X286698Y86949D01*
X286653Y86748D01*
X286613Y86546D01*
X286578Y86343D01*
X286548Y86140D01*
X296142Y56957D02*
X296138Y77595D01*
X296139Y77594D02*
X296318Y77624D01*
X296498Y77658D01*
X296676Y77697D01*
X296853Y77740D01*
X297029Y77787D01*
X297204Y77839D01*
X297378Y77894D01*
X297550Y77954D01*
X297721Y78018D01*
X297890Y78087D01*
X298057Y78159D01*
X298223Y78236D01*
X298387Y78316D01*
X298548Y78400D01*
X298708Y78489D01*
X298865Y78581D01*
X299020Y78677D01*
X299173Y78777D01*
X299323Y78880D01*
X299471Y78987D01*
X299616Y79098D01*
X299758Y79212D01*
X299898Y79329D01*
X300034Y79450D01*
X300168Y79574D01*
X300298Y79702D01*
X300426Y79832D01*
X300550Y79966D01*
X300671Y80102D01*
X300788Y80242D01*
X300902Y80384D01*
X301013Y80529D01*
X301120Y80677D01*
X301223Y80827D01*
X301323Y80980D01*
X301419Y81135D01*
X301511Y81292D01*
X301600Y81452D01*
X301684Y81613D01*
X301764Y81777D01*
X301841Y81943D01*
X301913Y82110D01*
X301982Y82279D01*
X302046Y82450D01*
X302106Y82622D01*
X302161Y82796D01*
X302213Y82971D01*
X302260Y83147D01*
X302303Y83324D01*
X302342Y83502D01*
X302376Y83682D01*
X302406Y83861D01*
X323043Y83858D01*
X323044Y83857D01*
X323007Y83173D01*
X322955Y82490D01*
X322885Y81808D01*
X322799Y81128D01*
X322696Y80451D01*
X322577Y79776D01*
X322441Y79104D01*
X322289Y78436D01*
X322120Y77772D01*
X321936Y77112D01*
X321735Y76457D01*
X321519Y75807D01*
X321286Y75162D01*
X321038Y74523D01*
X320775Y73891D01*
X320496Y73265D01*
X320202Y72646D01*
X319893Y72034D01*
X319569Y71430D01*
X319230Y70835D01*
X318877Y70247D01*
X318510Y69669D01*
X318128Y69099D01*
X317733Y68539D01*
X317325Y67989D01*
X316903Y67449D01*
X316468Y66920D01*
X316020Y66401D01*
X315560Y65894D01*
X315087Y65397D01*
X314603Y64913D01*
X314106Y64440D01*
X313599Y63980D01*
X313080Y63532D01*
X312551Y63097D01*
X312011Y62675D01*
X311461Y62267D01*
X310901Y61872D01*
X310331Y61490D01*
X309753Y61123D01*
X309165Y60770D01*
X308570Y60431D01*
X307966Y60107D01*
X307354Y59798D01*
X306735Y59504D01*
X306109Y59225D01*
X305477Y58962D01*
X304838Y58714D01*
X304193Y58481D01*
X303543Y58265D01*
X302888Y58064D01*
X302228Y57880D01*
X301564Y57711D01*
X300896Y57559D01*
X300224Y57423D01*
X299549Y57304D01*
X298872Y57201D01*
X298192Y57115D01*
X297510Y57045D01*
X296827Y56993D01*
X296143Y56956D01*
X296143Y59129D01*
X296771Y59165D01*
X297398Y59215D01*
X298024Y59281D01*
X298648Y59362D01*
X299270Y59459D01*
X299890Y59570D01*
X300506Y59696D01*
X301119Y59837D01*
X301729Y59994D01*
X302335Y60164D01*
X302936Y60350D01*
X303533Y60550D01*
X304125Y60765D01*
X304711Y60994D01*
X305291Y61237D01*
X305866Y61494D01*
X306434Y61765D01*
X306995Y62050D01*
X307549Y62348D01*
X308096Y62660D01*
X308635Y62984D01*
X309166Y63322D01*
X309689Y63673D01*
X310203Y64036D01*
X310708Y64412D01*
X311203Y64800D01*
X311689Y65199D01*
X312166Y65611D01*
X312632Y66034D01*
X313087Y66468D01*
X313532Y66913D01*
X313966Y67368D01*
X314389Y67834D01*
X314801Y68311D01*
X315200Y68797D01*
X315588Y69292D01*
X315964Y69797D01*
X316327Y70311D01*
X316678Y70834D01*
X317016Y71365D01*
X317340Y71904D01*
X317652Y72451D01*
X317950Y73005D01*
X318235Y73566D01*
X318506Y74134D01*
X318763Y74709D01*
X319006Y75289D01*
X319235Y75875D01*
X319450Y76467D01*
X319650Y77064D01*
X319836Y77665D01*
X320006Y78271D01*
X320163Y78881D01*
X320304Y79494D01*
X320430Y80110D01*
X320541Y80730D01*
X320638Y81352D01*
X320719Y81976D01*
X320785Y82602D01*
X320835Y83229D01*
X320871Y83857D01*
X318697Y83857D01*
X318663Y83285D01*
X318615Y82714D01*
X318552Y82144D01*
X318477Y81575D01*
X318387Y81009D01*
X318284Y80445D01*
X318167Y79883D01*
X318036Y79325D01*
X317892Y78770D01*
X317735Y78218D01*
X317565Y77671D01*
X317381Y77128D01*
X317184Y76589D01*
X316974Y76055D01*
X316752Y75527D01*
X316516Y75004D01*
X316268Y74487D01*
X316008Y73976D01*
X315736Y73471D01*
X315451Y72973D01*
X315154Y72483D01*
X314846Y71999D01*
X314526Y71523D01*
X314194Y71055D01*
X313852Y70596D01*
X313498Y70144D01*
X313134Y69701D01*
X312759Y69268D01*
X312373Y68843D01*
X311978Y68428D01*
X311572Y68022D01*
X311157Y67627D01*
X310732Y67241D01*
X310299Y66866D01*
X309856Y66502D01*
X309404Y66148D01*
X308945Y65806D01*
X308477Y65474D01*
X308001Y65154D01*
X307517Y64846D01*
X307027Y64549D01*
X306529Y64264D01*
X306024Y63992D01*
X305513Y63732D01*
X304996Y63484D01*
X304473Y63248D01*
X303945Y63026D01*
X303411Y62816D01*
X302872Y62619D01*
X302329Y62435D01*
X301782Y62265D01*
X301230Y62108D01*
X300675Y61964D01*
X300117Y61833D01*
X299555Y61716D01*
X298991Y61613D01*
X298425Y61523D01*
X297856Y61448D01*
X297286Y61385D01*
X296715Y61337D01*
X296143Y61303D01*
X296142Y63476D01*
X296668Y63511D01*
X297192Y63558D01*
X297714Y63618D01*
X298235Y63690D01*
X298755Y63776D01*
X299272Y63874D01*
X299786Y63984D01*
X300298Y64107D01*
X300806Y64243D01*
X301311Y64391D01*
X301812Y64551D01*
X302309Y64723D01*
X302802Y64908D01*
X303290Y65104D01*
X303773Y65312D01*
X304251Y65532D01*
X304724Y65764D01*
X305190Y66007D01*
X305651Y66262D01*
X306105Y66527D01*
X306553Y66804D01*
X306994Y67091D01*
X307427Y67389D01*
X307853Y67698D01*
X308272Y68017D01*
X308682Y68346D01*
X309085Y68685D01*
X309479Y69033D01*
X309864Y69392D01*
X310241Y69759D01*
X310608Y70136D01*
X310967Y70521D01*
X311315Y70915D01*
X311654Y71318D01*
X311983Y71728D01*
X312302Y72147D01*
X312611Y72573D01*
X312909Y73006D01*
X313196Y73447D01*
X313473Y73895D01*
X313738Y74349D01*
X313993Y74810D01*
X314236Y75276D01*
X314468Y75749D01*
X314688Y76227D01*
X314896Y76710D01*
X315092Y77198D01*
X315277Y77691D01*
X315449Y78188D01*
X315609Y78689D01*
X315757Y79194D01*
X315893Y79702D01*
X316016Y80214D01*
X316126Y80728D01*
X316224Y81245D01*
X316310Y81765D01*
X316382Y82286D01*
X316442Y82808D01*
X316489Y83332D01*
X316524Y83858D01*
X314349Y83858D01*
X314316Y83390D01*
X314271Y82922D01*
X314215Y82456D01*
X314148Y81992D01*
X314070Y81529D01*
X313980Y81068D01*
X313879Y80610D01*
X313767Y80154D01*
X313645Y79701D01*
X313511Y79251D01*
X313366Y78805D01*
X313211Y78362D01*
X313045Y77923D01*
X312868Y77488D01*
X312681Y77058D01*
X312484Y76632D01*
X312276Y76211D01*
X312058Y75795D01*
X311830Y75385D01*
X311592Y74980D01*
X311345Y74582D01*
X311088Y74189D01*
X310821Y73803D01*
X310546Y73423D01*
X310261Y73050D01*
X309967Y72684D01*
X309664Y72325D01*
X309353Y71974D01*
X309034Y71630D01*
X308706Y71294D01*
X308370Y70966D01*
X308026Y70647D01*
X307675Y70336D01*
X307316Y70033D01*
X306950Y69739D01*
X306577Y69454D01*
X306197Y69179D01*
X305811Y68912D01*
X305418Y68655D01*
X305020Y68408D01*
X304615Y68170D01*
X304205Y67942D01*
X303789Y67724D01*
X303368Y67516D01*
X302942Y67319D01*
X302512Y67132D01*
X302077Y66955D01*
X301638Y66789D01*
X301195Y66634D01*
X300749Y66489D01*
X300299Y66355D01*
X299846Y66233D01*
X299390Y66121D01*
X298932Y66020D01*
X298471Y65930D01*
X298008Y65852D01*
X297544Y65785D01*
X297078Y65729D01*
X296610Y65684D01*
X296142Y65651D01*
X296142Y67826D01*
X296560Y67859D01*
X296978Y67902D01*
X297394Y67955D01*
X297808Y68019D01*
X298221Y68092D01*
X298632Y68176D01*
X299041Y68269D01*
X299448Y68373D01*
X299852Y68486D01*
X300253Y68609D01*
X300651Y68742D01*
X301045Y68885D01*
X301436Y69037D01*
X301823Y69198D01*
X302206Y69369D01*
X302585Y69549D01*
X302959Y69739D01*
X303329Y69937D01*
X303694Y70145D01*
X304053Y70361D01*
X304407Y70586D01*
X304756Y70820D01*
X305098Y71062D01*
X305435Y71312D01*
X305765Y71570D01*
X306090Y71837D01*
X306407Y72111D01*
X306718Y72393D01*
X307022Y72682D01*
X307318Y72978D01*
X307607Y73282D01*
X307889Y73593D01*
X308163Y73910D01*
X308430Y74235D01*
X308688Y74565D01*
X308938Y74902D01*
X309180Y75244D01*
X309414Y75593D01*
X309639Y75947D01*
X309855Y76306D01*
X310063Y76671D01*
X310261Y77041D01*
X310451Y77415D01*
X310631Y77794D01*
X310802Y78177D01*
X310963Y78564D01*
X311115Y78955D01*
X311258Y79349D01*
X311391Y79747D01*
X311514Y80148D01*
X311627Y80552D01*
X311731Y80959D01*
X311824Y81368D01*
X311908Y81779D01*
X311981Y82192D01*
X312045Y82606D01*
X312098Y83022D01*
X312141Y83440D01*
X312174Y83858D01*
X309998Y83858D01*
X309965Y83492D01*
X309924Y83126D01*
X309873Y82762D01*
X309814Y82398D01*
X309746Y82037D01*
X309669Y81677D01*
X309584Y81319D01*
X309489Y80964D01*
X309386Y80610D01*
X309275Y80260D01*
X309154Y79912D01*
X309026Y79567D01*
X308889Y79226D01*
X308743Y78888D01*
X308590Y78554D01*
X308428Y78223D01*
X308258Y77897D01*
X308080Y77575D01*
X307895Y77257D01*
X307702Y76944D01*
X307501Y76636D01*
X307292Y76332D01*
X307077Y76034D01*
X306854Y75741D01*
X306624Y75454D01*
X306387Y75173D01*
X306143Y74897D01*
X305893Y74628D01*
X305636Y74364D01*
X305372Y74107D01*
X305103Y73857D01*
X304827Y73613D01*
X304546Y73376D01*
X304259Y73146D01*
X303966Y72923D01*
X303668Y72708D01*
X303364Y72499D01*
X303056Y72298D01*
X302743Y72105D01*
X302425Y71920D01*
X302103Y71742D01*
X301777Y71572D01*
X301446Y71410D01*
X301112Y71257D01*
X300774Y71111D01*
X300433Y70974D01*
X300088Y70846D01*
X299740Y70725D01*
X299390Y70614D01*
X299036Y70511D01*
X298681Y70416D01*
X298323Y70331D01*
X297963Y70254D01*
X297602Y70186D01*
X297238Y70127D01*
X296874Y70076D01*
X296508Y70035D01*
X296142Y70002D01*
X296141Y72181D01*
X296454Y72212D01*
X296767Y72252D01*
X297078Y72299D01*
X297387Y72353D01*
X297696Y72415D01*
X298002Y72485D01*
X298307Y72562D01*
X298610Y72647D01*
X298911Y72739D01*
X299210Y72838D01*
X299506Y72944D01*
X299799Y73058D01*
X300089Y73179D01*
X300377Y73307D01*
X300661Y73442D01*
X300942Y73584D01*
X301219Y73732D01*
X301492Y73888D01*
X301762Y74050D01*
X302028Y74218D01*
X302289Y74393D01*
X302546Y74574D01*
X302799Y74762D01*
X303047Y74956D01*
X303290Y75155D01*
X303528Y75361D01*
X303761Y75572D01*
X303989Y75789D01*
X304211Y76011D01*
X304428Y76239D01*
X304639Y76472D01*
X304845Y76710D01*
X305044Y76953D01*
X305238Y77201D01*
X305426Y77454D01*
X305607Y77711D01*
X305782Y77972D01*
X305950Y78238D01*
X306112Y78508D01*
X306268Y78781D01*
X306416Y79058D01*
X306558Y79339D01*
X306693Y79623D01*
X306821Y79911D01*
X306942Y80201D01*
X307056Y80494D01*
X307162Y80790D01*
X307261Y81089D01*
X307353Y81390D01*
X307438Y81693D01*
X307515Y81998D01*
X307585Y82304D01*
X307647Y82613D01*
X307701Y82922D01*
X307748Y83233D01*
X307788Y83546D01*
X307819Y83859D01*
X305638Y83859D01*
X305607Y83602D01*
X305570Y83345D01*
X305527Y83089D01*
X305478Y82835D01*
X305422Y82582D01*
X305360Y82330D01*
X305293Y82080D01*
X305219Y81831D01*
X305139Y81584D01*
X305053Y81340D01*
X304962Y81097D01*
X304864Y80857D01*
X304761Y80619D01*
X304652Y80384D01*
X304537Y80151D01*
X304417Y79922D01*
X304291Y79695D01*
X304160Y79471D01*
X304023Y79251D01*
X303881Y79034D01*
X303734Y78821D01*
X303582Y78611D01*
X303424Y78405D01*
X303262Y78202D01*
X303095Y78004D01*
X302923Y77810D01*
X302746Y77620D01*
X302565Y77435D01*
X302380Y77254D01*
X302190Y77077D01*
X301996Y76905D01*
X301798Y76738D01*
X301595Y76576D01*
X301389Y76418D01*
X301179Y76266D01*
X300966Y76119D01*
X300749Y75977D01*
X300529Y75840D01*
X300305Y75709D01*
X300078Y75583D01*
X299849Y75463D01*
X299616Y75348D01*
X299381Y75239D01*
X299143Y75136D01*
X298903Y75038D01*
X298660Y74947D01*
X298416Y74861D01*
X298169Y74781D01*
X297920Y74707D01*
X297670Y74640D01*
X297418Y74578D01*
X297165Y74522D01*
X296911Y74473D01*
X296655Y74430D01*
X296398Y74393D01*
X296141Y74362D01*
X296140Y76548D01*
X296343Y76578D01*
X296546Y76613D01*
X296748Y76653D01*
X296949Y76698D01*
X297148Y76747D01*
X297347Y76801D01*
X297544Y76860D01*
X297739Y76924D01*
X297933Y76992D01*
X298126Y77065D01*
X298316Y77143D01*
X298505Y77225D01*
X298691Y77312D01*
X298876Y77404D01*
X299058Y77499D01*
X299238Y77599D01*
X299415Y77704D01*
X299590Y77812D01*
X299762Y77925D01*
X299931Y78042D01*
X300097Y78163D01*
X300261Y78288D01*
X300421Y78417D01*
X300578Y78550D01*
X300732Y78686D01*
X300883Y78826D01*
X301030Y78970D01*
X301174Y79117D01*
X301314Y79268D01*
X301450Y79422D01*
X301583Y79579D01*
X301712Y79739D01*
X301837Y79903D01*
X301958Y80069D01*
X302075Y80238D01*
X302188Y80410D01*
X302296Y80585D01*
X302401Y80762D01*
X302501Y80942D01*
X302596Y81124D01*
X302688Y81309D01*
X302775Y81495D01*
X302857Y81684D01*
X302935Y81874D01*
X303008Y82067D01*
X303076Y82261D01*
X303140Y82456D01*
X303199Y82653D01*
X303253Y82852D01*
X303302Y83051D01*
X303347Y83252D01*
X303387Y83454D01*
X303422Y83657D01*
X303452Y83860D01*
D12*
X288650Y85000D02*
X288652Y85159D01*
X288658Y85318D01*
X288668Y85476D01*
X288682Y85635D01*
X288700Y85793D01*
X288721Y85950D01*
X288747Y86107D01*
X288777Y86263D01*
X288810Y86419D01*
X288848Y86573D01*
X288889Y86727D01*
X288934Y86879D01*
X288983Y87030D01*
X289036Y87180D01*
X289092Y87329D01*
X289153Y87476D01*
X289216Y87621D01*
X289284Y87765D01*
X289355Y87908D01*
X289429Y88048D01*
X289507Y88186D01*
X289589Y88323D01*
X289674Y88457D01*
X289762Y88590D01*
X289853Y88720D01*
X289948Y88847D01*
X290046Y88972D01*
X290147Y89095D01*
X290251Y89215D01*
X290358Y89333D01*
X290468Y89448D01*
X290581Y89560D01*
X290696Y89669D01*
X290814Y89775D01*
X290935Y89879D01*
X291059Y89979D01*
X291184Y90076D01*
X291313Y90170D01*
X291443Y90260D01*
X291576Y90348D01*
X291711Y90432D01*
X291848Y90512D01*
X291987Y90590D01*
X292128Y90663D01*
X292270Y90733D01*
X292415Y90800D01*
X292561Y90863D01*
X292708Y90922D01*
X292857Y90978D01*
X293008Y91029D01*
X293159Y91077D01*
X293312Y91121D01*
X293466Y91162D01*
X293620Y91198D01*
X293776Y91231D01*
X293932Y91260D01*
X294089Y91284D01*
X294247Y91305D01*
X294405Y91322D01*
X294563Y91335D01*
X294722Y91344D01*
X294881Y91349D01*
X295040Y91350D01*
X295199Y91347D01*
X295357Y91340D01*
X295516Y91329D01*
X295674Y91314D01*
X295832Y91295D01*
X295989Y91272D01*
X296146Y91246D01*
X296302Y91215D01*
X296457Y91181D01*
X296611Y91142D01*
X296765Y91100D01*
X296917Y91054D01*
X297068Y91004D01*
X297217Y90950D01*
X297366Y90893D01*
X297512Y90832D01*
X297658Y90767D01*
X297801Y90699D01*
X297943Y90627D01*
X298083Y90551D01*
X298221Y90473D01*
X298357Y90390D01*
X298491Y90305D01*
X298622Y90216D01*
X298752Y90123D01*
X298879Y90028D01*
X299003Y89929D01*
X299126Y89827D01*
X299245Y89723D01*
X299362Y89615D01*
X299476Y89504D01*
X299587Y89391D01*
X299696Y89275D01*
X299801Y89156D01*
X299904Y89034D01*
X300003Y88910D01*
X300100Y88784D01*
X300193Y88655D01*
X300283Y88524D01*
X300369Y88390D01*
X300452Y88255D01*
X300532Y88117D01*
X300608Y87978D01*
X300681Y87837D01*
X300750Y87694D01*
X300816Y87549D01*
X300878Y87402D01*
X300936Y87255D01*
X300991Y87105D01*
X301042Y86955D01*
X301089Y86803D01*
X301132Y86650D01*
X301171Y86496D01*
X301207Y86341D01*
X301238Y86185D01*
X301266Y86029D01*
X301290Y85872D01*
X301310Y85714D01*
X301326Y85556D01*
X301338Y85397D01*
X301346Y85238D01*
X301350Y85079D01*
X301350Y84921D01*
X301346Y84762D01*
X301338Y84603D01*
X301326Y84444D01*
X301310Y84286D01*
X301290Y84128D01*
X301266Y83971D01*
X301238Y83815D01*
X301207Y83659D01*
X301171Y83504D01*
X301132Y83350D01*
X301089Y83197D01*
X301042Y83045D01*
X300991Y82895D01*
X300936Y82745D01*
X300878Y82598D01*
X300816Y82451D01*
X300750Y82306D01*
X300681Y82163D01*
X300608Y82022D01*
X300532Y81883D01*
X300452Y81745D01*
X300369Y81610D01*
X300283Y81476D01*
X300193Y81345D01*
X300100Y81216D01*
X300003Y81090D01*
X299904Y80966D01*
X299801Y80844D01*
X299696Y80725D01*
X299587Y80609D01*
X299476Y80496D01*
X299362Y80385D01*
X299245Y80277D01*
X299126Y80173D01*
X299003Y80071D01*
X298879Y79972D01*
X298752Y79877D01*
X298622Y79784D01*
X298491Y79695D01*
X298357Y79610D01*
X298221Y79527D01*
X298083Y79449D01*
X297943Y79373D01*
X297801Y79301D01*
X297658Y79233D01*
X297512Y79168D01*
X297366Y79107D01*
X297217Y79050D01*
X297068Y78996D01*
X296917Y78946D01*
X296765Y78900D01*
X296611Y78858D01*
X296457Y78819D01*
X296302Y78785D01*
X296146Y78754D01*
X295989Y78728D01*
X295832Y78705D01*
X295674Y78686D01*
X295516Y78671D01*
X295357Y78660D01*
X295199Y78653D01*
X295040Y78650D01*
X294881Y78651D01*
X294722Y78656D01*
X294563Y78665D01*
X294405Y78678D01*
X294247Y78695D01*
X294089Y78716D01*
X293932Y78740D01*
X293776Y78769D01*
X293620Y78802D01*
X293466Y78838D01*
X293312Y78879D01*
X293159Y78923D01*
X293008Y78971D01*
X292857Y79022D01*
X292708Y79078D01*
X292561Y79137D01*
X292415Y79200D01*
X292270Y79267D01*
X292128Y79337D01*
X291987Y79410D01*
X291848Y79488D01*
X291711Y79568D01*
X291576Y79652D01*
X291443Y79740D01*
X291313Y79830D01*
X291184Y79924D01*
X291059Y80021D01*
X290935Y80121D01*
X290814Y80225D01*
X290696Y80331D01*
X290581Y80440D01*
X290468Y80552D01*
X290358Y80667D01*
X290251Y80785D01*
X290147Y80905D01*
X290046Y81028D01*
X289948Y81153D01*
X289853Y81280D01*
X289762Y81410D01*
X289674Y81543D01*
X289589Y81677D01*
X289507Y81814D01*
X289429Y81952D01*
X289355Y82092D01*
X289284Y82235D01*
X289216Y82379D01*
X289153Y82524D01*
X289092Y82671D01*
X289036Y82820D01*
X288983Y82970D01*
X288934Y83121D01*
X288889Y83273D01*
X288848Y83427D01*
X288810Y83581D01*
X288777Y83737D01*
X288747Y83893D01*
X288721Y84050D01*
X288700Y84207D01*
X288682Y84365D01*
X288668Y84524D01*
X288658Y84682D01*
X288652Y84841D01*
X288650Y85000D01*
D13*
X265790Y85000D02*
X265799Y85717D01*
X265825Y86433D01*
X265869Y87149D01*
X265931Y87863D01*
X266010Y88576D01*
X266106Y89286D01*
X266220Y89994D01*
X266351Y90699D01*
X266500Y91400D01*
X266665Y92097D01*
X266848Y92791D01*
X267048Y93479D01*
X267264Y94163D01*
X267497Y94841D01*
X267747Y95513D01*
X268013Y96178D01*
X268296Y96837D01*
X268594Y97489D01*
X268909Y98133D01*
X269239Y98769D01*
X269585Y99398D01*
X269946Y100017D01*
X270322Y100627D01*
X270713Y101228D01*
X271118Y101819D01*
X271538Y102400D01*
X271972Y102971D01*
X272420Y103531D01*
X272882Y104079D01*
X273357Y104616D01*
X273845Y105141D01*
X274345Y105655D01*
X274859Y106155D01*
X275384Y106643D01*
X275921Y107118D01*
X276469Y107580D01*
X277029Y108028D01*
X277600Y108462D01*
X278181Y108882D01*
X278772Y109287D01*
X279373Y109678D01*
X279983Y110054D01*
X280602Y110415D01*
X281231Y110761D01*
X281867Y111091D01*
X282511Y111406D01*
X283163Y111704D01*
X283822Y111987D01*
X284487Y112253D01*
X285159Y112503D01*
X285837Y112736D01*
X286521Y112952D01*
X287209Y113152D01*
X287903Y113335D01*
X288600Y113500D01*
X289301Y113649D01*
X290006Y113780D01*
X290714Y113894D01*
X291424Y113990D01*
X292137Y114069D01*
X292851Y114131D01*
X293567Y114175D01*
X294283Y114201D01*
X295000Y114210D01*
X295717Y114201D01*
X296433Y114175D01*
X297149Y114131D01*
X297863Y114069D01*
X298576Y113990D01*
X299286Y113894D01*
X299994Y113780D01*
X300699Y113649D01*
X301400Y113500D01*
X302097Y113335D01*
X302791Y113152D01*
X303479Y112952D01*
X304163Y112736D01*
X304841Y112503D01*
X305513Y112253D01*
X306178Y111987D01*
X306837Y111704D01*
X307489Y111406D01*
X308133Y111091D01*
X308769Y110761D01*
X309398Y110415D01*
X310017Y110054D01*
X310627Y109678D01*
X311228Y109287D01*
X311819Y108882D01*
X312400Y108462D01*
X312971Y108028D01*
X313531Y107580D01*
X314079Y107118D01*
X314616Y106643D01*
X315141Y106155D01*
X315655Y105655D01*
X316155Y105141D01*
X316643Y104616D01*
X317118Y104079D01*
X317580Y103531D01*
X318028Y102971D01*
X318462Y102400D01*
X318882Y101819D01*
X319287Y101228D01*
X319678Y100627D01*
X320054Y100017D01*
X320415Y99398D01*
X320761Y98769D01*
X321091Y98133D01*
X321406Y97489D01*
X321704Y96837D01*
X321987Y96178D01*
X322253Y95513D01*
X322503Y94841D01*
X322736Y94163D01*
X322952Y93479D01*
X323152Y92791D01*
X323335Y92097D01*
X323500Y91400D01*
X323649Y90699D01*
X323780Y89994D01*
X323894Y89286D01*
X323990Y88576D01*
X324069Y87863D01*
X324131Y87149D01*
X324175Y86433D01*
X324201Y85717D01*
X324210Y85000D01*
X324201Y84283D01*
X324175Y83567D01*
X324131Y82851D01*
X324069Y82137D01*
X323990Y81424D01*
X323894Y80714D01*
X323780Y80006D01*
X323649Y79301D01*
X323500Y78600D01*
X323335Y77903D01*
X323152Y77209D01*
X322952Y76521D01*
X322736Y75837D01*
X322503Y75159D01*
X322253Y74487D01*
X321987Y73822D01*
X321704Y73163D01*
X321406Y72511D01*
X321091Y71867D01*
X320761Y71231D01*
X320415Y70602D01*
X320054Y69983D01*
X319678Y69373D01*
X319287Y68772D01*
X318882Y68181D01*
X318462Y67600D01*
X318028Y67029D01*
X317580Y66469D01*
X317118Y65921D01*
X316643Y65384D01*
X316155Y64859D01*
X315655Y64345D01*
X315141Y63845D01*
X314616Y63357D01*
X314079Y62882D01*
X313531Y62420D01*
X312971Y61972D01*
X312400Y61538D01*
X311819Y61118D01*
X311228Y60713D01*
X310627Y60322D01*
X310017Y59946D01*
X309398Y59585D01*
X308769Y59239D01*
X308133Y58909D01*
X307489Y58594D01*
X306837Y58296D01*
X306178Y58013D01*
X305513Y57747D01*
X304841Y57497D01*
X304163Y57264D01*
X303479Y57048D01*
X302791Y56848D01*
X302097Y56665D01*
X301400Y56500D01*
X300699Y56351D01*
X299994Y56220D01*
X299286Y56106D01*
X298576Y56010D01*
X297863Y55931D01*
X297149Y55869D01*
X296433Y55825D01*
X295717Y55799D01*
X295000Y55790D01*
X294283Y55799D01*
X293567Y55825D01*
X292851Y55869D01*
X292137Y55931D01*
X291424Y56010D01*
X290714Y56106D01*
X290006Y56220D01*
X289301Y56351D01*
X288600Y56500D01*
X287903Y56665D01*
X287209Y56848D01*
X286521Y57048D01*
X285837Y57264D01*
X285159Y57497D01*
X284487Y57747D01*
X283822Y58013D01*
X283163Y58296D01*
X282511Y58594D01*
X281867Y58909D01*
X281231Y59239D01*
X280602Y59585D01*
X279983Y59946D01*
X279373Y60322D01*
X278772Y60713D01*
X278181Y61118D01*
X277600Y61538D01*
X277029Y61972D01*
X276469Y62420D01*
X275921Y62882D01*
X275384Y63357D01*
X274859Y63845D01*
X274345Y64345D01*
X273845Y64859D01*
X273357Y65384D01*
X272882Y65921D01*
X272420Y66469D01*
X271972Y67029D01*
X271538Y67600D01*
X271118Y68181D01*
X270713Y68772D01*
X270322Y69373D01*
X269946Y69983D01*
X269585Y70602D01*
X269239Y71231D01*
X268909Y71867D01*
X268594Y72511D01*
X268296Y73163D01*
X268013Y73822D01*
X267747Y74487D01*
X267497Y75159D01*
X267264Y75837D01*
X267048Y76521D01*
X266848Y77209D01*
X266665Y77903D01*
X266500Y78600D01*
X266351Y79301D01*
X266220Y80006D01*
X266106Y80714D01*
X266010Y81424D01*
X265931Y82137D01*
X265869Y82851D01*
X265825Y83567D01*
X265799Y84283D01*
X265790Y85000D01*
D14*
X280000Y85000D02*
X280005Y85368D01*
X280018Y85736D01*
X280041Y86103D01*
X280072Y86470D01*
X280113Y86836D01*
X280162Y87201D01*
X280221Y87564D01*
X280288Y87926D01*
X280364Y88287D01*
X280450Y88645D01*
X280543Y89001D01*
X280646Y89354D01*
X280757Y89705D01*
X280877Y90053D01*
X281005Y90398D01*
X281142Y90740D01*
X281287Y91079D01*
X281440Y91413D01*
X281602Y91744D01*
X281771Y92071D01*
X281949Y92393D01*
X282134Y92712D01*
X282327Y93025D01*
X282528Y93334D01*
X282736Y93637D01*
X282952Y93935D01*
X283175Y94228D01*
X283405Y94516D01*
X283642Y94798D01*
X283886Y95073D01*
X284136Y95343D01*
X284393Y95607D01*
X284657Y95864D01*
X284927Y96114D01*
X285202Y96358D01*
X285484Y96595D01*
X285772Y96825D01*
X286065Y97048D01*
X286363Y97264D01*
X286666Y97472D01*
X286975Y97673D01*
X287288Y97866D01*
X287607Y98051D01*
X287929Y98229D01*
X288256Y98398D01*
X288587Y98560D01*
X288921Y98713D01*
X289260Y98858D01*
X289602Y98995D01*
X289947Y99123D01*
X290295Y99243D01*
X290646Y99354D01*
X290999Y99457D01*
X291355Y99550D01*
X291713Y99636D01*
X292074Y99712D01*
X292436Y99779D01*
X292799Y99838D01*
X293164Y99887D01*
X293530Y99928D01*
X293897Y99959D01*
X294264Y99982D01*
X294632Y99995D01*
X295000Y100000D01*
X295368Y99995D01*
X295736Y99982D01*
X296103Y99959D01*
X296470Y99928D01*
X296836Y99887D01*
X297201Y99838D01*
X297564Y99779D01*
X297926Y99712D01*
X298287Y99636D01*
X298645Y99550D01*
X299001Y99457D01*
X299354Y99354D01*
X299705Y99243D01*
X300053Y99123D01*
X300398Y98995D01*
X300740Y98858D01*
X301079Y98713D01*
X301413Y98560D01*
X301744Y98398D01*
X302071Y98229D01*
X302393Y98051D01*
X302712Y97866D01*
X303025Y97673D01*
X303334Y97472D01*
X303637Y97264D01*
X303935Y97048D01*
X304228Y96825D01*
X304516Y96595D01*
X304798Y96358D01*
X305073Y96114D01*
X305343Y95864D01*
X305607Y95607D01*
X305864Y95343D01*
X306114Y95073D01*
X306358Y94798D01*
X306595Y94516D01*
X306825Y94228D01*
X307048Y93935D01*
X307264Y93637D01*
X307472Y93334D01*
X307673Y93025D01*
X307866Y92712D01*
X308051Y92393D01*
X308229Y92071D01*
X308398Y91744D01*
X308560Y91413D01*
X308713Y91079D01*
X308858Y90740D01*
X308995Y90398D01*
X309123Y90053D01*
X309243Y89705D01*
X309354Y89354D01*
X309457Y89001D01*
X309550Y88645D01*
X309636Y88287D01*
X309712Y87926D01*
X309779Y87564D01*
X309838Y87201D01*
X309887Y86836D01*
X309928Y86470D01*
X309959Y86103D01*
X309982Y85736D01*
X309995Y85368D01*
X310000Y85000D01*
X309995Y84632D01*
X309982Y84264D01*
X309959Y83897D01*
X309928Y83530D01*
X309887Y83164D01*
X309838Y82799D01*
X309779Y82436D01*
X309712Y82074D01*
X309636Y81713D01*
X309550Y81355D01*
X309457Y80999D01*
X309354Y80646D01*
X309243Y80295D01*
X309123Y79947D01*
X308995Y79602D01*
X308858Y79260D01*
X308713Y78921D01*
X308560Y78587D01*
X308398Y78256D01*
X308229Y77929D01*
X308051Y77607D01*
X307866Y77288D01*
X307673Y76975D01*
X307472Y76666D01*
X307264Y76363D01*
X307048Y76065D01*
X306825Y75772D01*
X306595Y75484D01*
X306358Y75202D01*
X306114Y74927D01*
X305864Y74657D01*
X305607Y74393D01*
X305343Y74136D01*
X305073Y73886D01*
X304798Y73642D01*
X304516Y73405D01*
X304228Y73175D01*
X303935Y72952D01*
X303637Y72736D01*
X303334Y72528D01*
X303025Y72327D01*
X302712Y72134D01*
X302393Y71949D01*
X302071Y71771D01*
X301744Y71602D01*
X301413Y71440D01*
X301079Y71287D01*
X300740Y71142D01*
X300398Y71005D01*
X300053Y70877D01*
X299705Y70757D01*
X299354Y70646D01*
X299001Y70543D01*
X298645Y70450D01*
X298287Y70364D01*
X297926Y70288D01*
X297564Y70221D01*
X297201Y70162D01*
X296836Y70113D01*
X296470Y70072D01*
X296103Y70041D01*
X295736Y70018D01*
X295368Y70005D01*
X295000Y70000D01*
X294632Y70005D01*
X294264Y70018D01*
X293897Y70041D01*
X293530Y70072D01*
X293164Y70113D01*
X292799Y70162D01*
X292436Y70221D01*
X292074Y70288D01*
X291713Y70364D01*
X291355Y70450D01*
X290999Y70543D01*
X290646Y70646D01*
X290295Y70757D01*
X289947Y70877D01*
X289602Y71005D01*
X289260Y71142D01*
X288921Y71287D01*
X288587Y71440D01*
X288256Y71602D01*
X287929Y71771D01*
X287607Y71949D01*
X287288Y72134D01*
X286975Y72327D01*
X286666Y72528D01*
X286363Y72736D01*
X286065Y72952D01*
X285772Y73175D01*
X285484Y73405D01*
X285202Y73642D01*
X284927Y73886D01*
X284657Y74136D01*
X284393Y74393D01*
X284136Y74657D01*
X283886Y74927D01*
X283642Y75202D01*
X283405Y75484D01*
X283175Y75772D01*
X282952Y76065D01*
X282736Y76363D01*
X282528Y76666D01*
X282327Y76975D01*
X282134Y77288D01*
X281949Y77607D01*
X281771Y77929D01*
X281602Y78256D01*
X281440Y78587D01*
X281287Y78921D01*
X281142Y79260D01*
X281005Y79602D01*
X280877Y79947D01*
X280757Y80295D01*
X280646Y80646D01*
X280543Y80999D01*
X280450Y81355D01*
X280364Y81713D01*
X280288Y82074D01*
X280221Y82436D01*
X280162Y82799D01*
X280113Y83164D01*
X280072Y83530D01*
X280041Y83897D01*
X280018Y84264D01*
X280005Y84632D01*
X280000Y85000D01*
D15*
X440000Y230949D02*
X540000Y230949D01*
X423000Y230949D02*
X423000Y296949D01*
X435000Y296949D01*
X540000Y296949D02*
X545000Y296949D01*
X545000Y291949D01*
X545000Y235949D01*
X545000Y230949D01*
X540000Y230949D01*
X545000Y291949D02*
X565000Y291949D01*
X565000Y235949D01*
X545000Y235949D01*
X475000Y296949D02*
X451000Y296949D01*
X491000Y296949D02*
X505000Y296949D01*
X521000Y296949D02*
X540000Y296949D01*
X540000Y134500D02*
X440000Y134500D01*
X423000Y134500D02*
X423000Y200500D01*
X435000Y200500D01*
X540000Y200500D02*
X545000Y200500D01*
X545000Y195500D01*
X545000Y139500D01*
X545000Y134500D01*
X540000Y134500D01*
X545000Y195500D02*
X565000Y195500D01*
X565000Y139500D01*
X545000Y139500D01*
X475000Y200500D02*
X451000Y200500D01*
X491000Y200500D02*
X505000Y200500D01*
X521000Y200500D02*
X540000Y200500D01*
M02*
