G04 EAGLE Gerber RS-274X export*
G75*
%MOMM*%
%FSLAX34Y34*%
%LPD*%
%INSoldermask Bottom*%
%IPPOS*%
%AMOC8*
5,1,8,0,0,1.08239X$1,22.5*%
G01*
%ADD10C,5.203200*%
%ADD11C,4.203200*%
%ADD12C,5.537200*%
%ADD13C,1.727200*%
%ADD14R,1.703200X1.703200*%
%ADD15R,1.403200X2.703200*%
%ADD16C,1.403200*%

G36*
X286058Y165050D02*
X286058Y165050D01*
X286059Y165050D01*
X289544Y165808D01*
X289545Y165808D01*
X292887Y167055D01*
X292888Y167055D01*
X296018Y168764D01*
X296019Y168765D01*
X298875Y170902D01*
X298875Y170903D01*
X301397Y173425D01*
X301398Y173425D01*
X303535Y176281D01*
X303535Y176282D01*
X303536Y176282D01*
X305245Y179412D01*
X305245Y179413D01*
X306492Y182755D01*
X306492Y182756D01*
X307250Y186241D01*
X307250Y186242D01*
X307251Y186242D01*
X307253Y186274D01*
X307254Y186289D01*
X307256Y186314D01*
X307257Y186329D01*
X307260Y186369D01*
X307262Y186408D01*
X307265Y186448D01*
X307268Y186488D01*
X307271Y186528D01*
X307272Y186543D01*
X307275Y186582D01*
X307278Y186622D01*
X307281Y186662D01*
X307283Y186702D01*
X307286Y186741D01*
X307287Y186756D01*
X307290Y186796D01*
X307293Y186836D01*
X307296Y186875D01*
X307296Y186876D01*
X307299Y186915D01*
X307302Y186955D01*
X307303Y186970D01*
X307305Y187010D01*
X307308Y187049D01*
X307311Y187089D01*
X307314Y187129D01*
X307317Y187169D01*
X307318Y187184D01*
X307321Y187223D01*
X307324Y187263D01*
X307326Y187303D01*
X307329Y187343D01*
X307332Y187382D01*
X307333Y187397D01*
X307336Y187437D01*
X307339Y187477D01*
X307342Y187516D01*
X307342Y187517D01*
X307345Y187556D01*
X307347Y187596D01*
X307348Y187611D01*
X307351Y187651D01*
X307354Y187690D01*
X307357Y187730D01*
X307360Y187770D01*
X307363Y187810D01*
X307364Y187825D01*
X307367Y187864D01*
X307369Y187904D01*
X307372Y187944D01*
X307375Y187984D01*
X307378Y188023D01*
X307379Y188038D01*
X307382Y188078D01*
X307385Y188118D01*
X307388Y188157D01*
X307390Y188197D01*
X307393Y188237D01*
X307394Y188252D01*
X307397Y188292D01*
X307400Y188331D01*
X307403Y188371D01*
X307406Y188411D01*
X307408Y188451D01*
X307409Y188451D01*
X307408Y188451D01*
X307410Y188466D01*
X307412Y188505D01*
X307415Y188545D01*
X307418Y188585D01*
X307421Y188624D01*
X307421Y188625D01*
X307424Y188664D01*
X307425Y188679D01*
X307428Y188719D01*
X307431Y188759D01*
X307433Y188798D01*
X307436Y188838D01*
X307439Y188878D01*
X307440Y188893D01*
X307443Y188933D01*
X307446Y188972D01*
X307449Y189012D01*
X307451Y189052D01*
X307452Y189052D01*
X307451Y189052D01*
X307454Y189092D01*
X307455Y189106D01*
X307455Y189107D01*
X307458Y189146D01*
X307461Y189186D01*
X307464Y189226D01*
X307467Y189265D01*
X307467Y189266D01*
X307470Y189305D01*
X307471Y189320D01*
X307474Y189360D01*
X307476Y189400D01*
X307479Y189439D01*
X307482Y189479D01*
X307485Y189519D01*
X307486Y189534D01*
X307489Y189574D01*
X307492Y189613D01*
X307494Y189653D01*
X307495Y189653D01*
X307494Y189653D01*
X307497Y189693D01*
X307500Y189733D01*
X307501Y189747D01*
X307504Y189787D01*
X307505Y189800D01*
X307505Y265200D01*
X307251Y268758D01*
X307250Y268759D01*
X306492Y272244D01*
X306492Y272245D01*
X305245Y275587D01*
X305245Y275588D01*
X303536Y278718D01*
X303535Y278719D01*
X301398Y281575D01*
X301397Y281575D01*
X298875Y284097D01*
X298875Y284098D01*
X296019Y286235D01*
X296018Y286236D01*
X292888Y287945D01*
X292887Y287945D01*
X289545Y289192D01*
X289544Y289192D01*
X286059Y289950D01*
X286058Y289950D01*
X286058Y289951D01*
X286025Y289953D01*
X285956Y289958D01*
X285886Y289963D01*
X285817Y289968D01*
X285747Y289973D01*
X285678Y289978D01*
X285608Y289983D01*
X285539Y289988D01*
X285469Y289993D01*
X285400Y289998D01*
X285330Y290003D01*
X285261Y290008D01*
X285191Y290013D01*
X285122Y290017D01*
X285053Y290022D01*
X285052Y290022D01*
X284983Y290027D01*
X284914Y290032D01*
X284913Y290032D01*
X284844Y290037D01*
X284775Y290042D01*
X284705Y290047D01*
X284636Y290052D01*
X284566Y290057D01*
X284497Y290062D01*
X284427Y290067D01*
X284358Y290072D01*
X284288Y290077D01*
X284219Y290082D01*
X284149Y290087D01*
X284080Y290092D01*
X284010Y290097D01*
X283941Y290102D01*
X283872Y290107D01*
X283871Y290107D01*
X283802Y290112D01*
X283733Y290117D01*
X283732Y290117D01*
X283663Y290122D01*
X283594Y290127D01*
X283524Y290132D01*
X283455Y290137D01*
X283385Y290142D01*
X283316Y290147D01*
X283246Y290152D01*
X283177Y290157D01*
X283107Y290162D01*
X283038Y290167D01*
X282968Y290172D01*
X282899Y290176D01*
X282829Y290181D01*
X282760Y290186D01*
X282690Y290191D01*
X282621Y290196D01*
X282552Y290201D01*
X282551Y290201D01*
X282500Y290205D01*
X282449Y290201D01*
X282448Y290201D01*
X282379Y290196D01*
X282310Y290191D01*
X282240Y290186D01*
X282171Y290181D01*
X282101Y290176D01*
X282032Y290172D01*
X281962Y290167D01*
X281893Y290162D01*
X281823Y290157D01*
X281754Y290152D01*
X281684Y290147D01*
X281615Y290142D01*
X281545Y290137D01*
X281476Y290132D01*
X281406Y290127D01*
X281337Y290122D01*
X281268Y290117D01*
X281267Y290117D01*
X281198Y290112D01*
X281129Y290107D01*
X281128Y290107D01*
X281059Y290102D01*
X280990Y290097D01*
X280920Y290092D01*
X280851Y290087D01*
X280781Y290082D01*
X280712Y290077D01*
X280642Y290072D01*
X280573Y290067D01*
X280503Y290062D01*
X280434Y290057D01*
X280364Y290052D01*
X280295Y290047D01*
X280225Y290042D01*
X280156Y290037D01*
X280087Y290032D01*
X280086Y290032D01*
X280017Y290027D01*
X279948Y290022D01*
X279947Y290022D01*
X279878Y290017D01*
X279809Y290013D01*
X279739Y290008D01*
X279670Y290003D01*
X279600Y289998D01*
X279531Y289993D01*
X279461Y289988D01*
X279392Y289983D01*
X279322Y289978D01*
X279253Y289973D01*
X279183Y289968D01*
X279114Y289963D01*
X279044Y289958D01*
X278975Y289953D01*
X278942Y289951D01*
X278941Y289950D01*
X275456Y289192D01*
X275455Y289192D01*
X272113Y287945D01*
X272112Y287945D01*
X268982Y286236D01*
X268981Y286235D01*
X266125Y284098D01*
X266125Y284097D01*
X263603Y281575D01*
X263602Y281575D01*
X261465Y278719D01*
X261464Y278718D01*
X259755Y275588D01*
X259755Y275587D01*
X258508Y272245D01*
X258508Y272244D01*
X257750Y268759D01*
X257750Y268758D01*
X257748Y268742D01*
X257746Y268702D01*
X257745Y268702D01*
X257746Y268702D01*
X257744Y268687D01*
X257743Y268662D01*
X257742Y268647D01*
X257739Y268608D01*
X257736Y268568D01*
X257733Y268528D01*
X257730Y268489D01*
X257730Y268488D01*
X257727Y268449D01*
X257726Y268434D01*
X257723Y268394D01*
X257721Y268354D01*
X257718Y268315D01*
X257715Y268275D01*
X257712Y268235D01*
X257711Y268220D01*
X257708Y268180D01*
X257705Y268141D01*
X257703Y268101D01*
X257702Y268101D01*
X257703Y268101D01*
X257700Y268061D01*
X257697Y268021D01*
X257696Y268007D01*
X257696Y268006D01*
X257693Y267967D01*
X257690Y267927D01*
X257687Y267887D01*
X257684Y267848D01*
X257684Y267847D01*
X257682Y267808D01*
X257680Y267793D01*
X257678Y267753D01*
X257675Y267713D01*
X257672Y267674D01*
X257669Y267634D01*
X257666Y267594D01*
X257665Y267579D01*
X257662Y267539D01*
X257660Y267500D01*
X257659Y267500D01*
X257660Y267500D01*
X257657Y267460D01*
X257654Y267420D01*
X257651Y267380D01*
X257650Y267366D01*
X257647Y267326D01*
X257644Y267286D01*
X257641Y267246D01*
X257639Y267207D01*
X257636Y267167D01*
X257635Y267152D01*
X257632Y267112D01*
X257629Y267072D01*
X257626Y267033D01*
X257623Y266993D01*
X257620Y266953D01*
X257619Y266938D01*
X257617Y266899D01*
X257616Y266898D01*
X257617Y266898D01*
X257614Y266859D01*
X257611Y266819D01*
X257608Y266779D01*
X257605Y266740D01*
X257605Y266739D01*
X257604Y266725D01*
X257601Y266685D01*
X257598Y266645D01*
X257596Y266605D01*
X257593Y266566D01*
X257590Y266526D01*
X257589Y266511D01*
X257586Y266471D01*
X257583Y266431D01*
X257580Y266392D01*
X257577Y266352D01*
X257575Y266312D01*
X257574Y266297D01*
X257573Y266297D01*
X257571Y266258D01*
X257571Y266257D01*
X257568Y266218D01*
X257565Y266178D01*
X257562Y266138D01*
X257559Y266099D01*
X257559Y266098D01*
X257558Y266084D01*
X257555Y266044D01*
X257553Y266004D01*
X257550Y265964D01*
X257547Y265925D01*
X257544Y265885D01*
X257543Y265870D01*
X257540Y265830D01*
X257537Y265790D01*
X257534Y265751D01*
X257532Y265711D01*
X257529Y265671D01*
X257528Y265656D01*
X257525Y265617D01*
X257522Y265577D01*
X257519Y265537D01*
X257516Y265497D01*
X257513Y265458D01*
X257512Y265443D01*
X257510Y265403D01*
X257507Y265363D01*
X257504Y265323D01*
X257501Y265284D01*
X257498Y265244D01*
X257497Y265229D01*
X257495Y265200D01*
X257495Y189800D01*
X257750Y186242D01*
X257750Y186241D01*
X258508Y182756D01*
X258508Y182755D01*
X259755Y179413D01*
X259755Y179412D01*
X261464Y176282D01*
X261465Y176281D01*
X263602Y173425D01*
X263603Y173425D01*
X266125Y170903D01*
X266125Y170902D01*
X268981Y168765D01*
X268982Y168765D01*
X268982Y168764D01*
X272112Y167055D01*
X272113Y167055D01*
X275455Y165808D01*
X275456Y165808D01*
X278941Y165050D01*
X278942Y165050D01*
X282500Y164795D01*
X286058Y165050D01*
G37*
G36*
X346058Y165050D02*
X346058Y165050D01*
X346059Y165050D01*
X349544Y165808D01*
X349545Y165808D01*
X352887Y167055D01*
X352888Y167055D01*
X356018Y168764D01*
X356019Y168765D01*
X358875Y170902D01*
X358875Y170903D01*
X361397Y173425D01*
X361398Y173425D01*
X363535Y176281D01*
X363535Y176282D01*
X363536Y176282D01*
X365245Y179412D01*
X365245Y179413D01*
X366492Y182755D01*
X366492Y182756D01*
X367250Y186241D01*
X367250Y186242D01*
X367251Y186242D01*
X367253Y186274D01*
X367254Y186289D01*
X367256Y186314D01*
X367257Y186329D01*
X367260Y186369D01*
X367262Y186408D01*
X367265Y186448D01*
X367268Y186488D01*
X367271Y186528D01*
X367272Y186543D01*
X367275Y186582D01*
X367278Y186622D01*
X367281Y186662D01*
X367283Y186702D01*
X367286Y186741D01*
X367287Y186756D01*
X367290Y186796D01*
X367293Y186836D01*
X367296Y186875D01*
X367296Y186876D01*
X367299Y186915D01*
X367302Y186955D01*
X367303Y186970D01*
X367305Y187010D01*
X367308Y187049D01*
X367311Y187089D01*
X367314Y187129D01*
X367317Y187169D01*
X367318Y187184D01*
X367321Y187223D01*
X367324Y187263D01*
X367326Y187303D01*
X367329Y187343D01*
X367332Y187382D01*
X367333Y187397D01*
X367336Y187437D01*
X367339Y187477D01*
X367342Y187516D01*
X367342Y187517D01*
X367345Y187556D01*
X367347Y187596D01*
X367348Y187611D01*
X367351Y187651D01*
X367354Y187690D01*
X367357Y187730D01*
X367360Y187770D01*
X367363Y187810D01*
X367364Y187825D01*
X367367Y187864D01*
X367369Y187904D01*
X367372Y187944D01*
X367375Y187984D01*
X367378Y188023D01*
X367379Y188038D01*
X367382Y188078D01*
X367385Y188118D01*
X367388Y188157D01*
X367390Y188197D01*
X367393Y188237D01*
X367394Y188252D01*
X367397Y188292D01*
X367400Y188331D01*
X367403Y188371D01*
X367406Y188411D01*
X367408Y188451D01*
X367409Y188451D01*
X367408Y188451D01*
X367410Y188466D01*
X367412Y188505D01*
X367415Y188545D01*
X367418Y188585D01*
X367421Y188624D01*
X367421Y188625D01*
X367424Y188664D01*
X367425Y188679D01*
X367428Y188719D01*
X367431Y188759D01*
X367433Y188798D01*
X367436Y188838D01*
X367439Y188878D01*
X367440Y188893D01*
X367443Y188933D01*
X367446Y188972D01*
X367449Y189012D01*
X367451Y189052D01*
X367452Y189052D01*
X367451Y189052D01*
X367454Y189092D01*
X367455Y189106D01*
X367455Y189107D01*
X367458Y189146D01*
X367461Y189186D01*
X367464Y189226D01*
X367467Y189265D01*
X367467Y189266D01*
X367470Y189305D01*
X367471Y189320D01*
X367474Y189360D01*
X367476Y189400D01*
X367479Y189439D01*
X367482Y189479D01*
X367485Y189519D01*
X367486Y189534D01*
X367489Y189574D01*
X367492Y189613D01*
X367494Y189653D01*
X367495Y189653D01*
X367494Y189653D01*
X367497Y189693D01*
X367500Y189733D01*
X367501Y189747D01*
X367504Y189787D01*
X367505Y189800D01*
X367505Y265200D01*
X367251Y268758D01*
X367250Y268759D01*
X366492Y272244D01*
X366492Y272245D01*
X365245Y275587D01*
X365245Y275588D01*
X363536Y278718D01*
X363535Y278719D01*
X361398Y281575D01*
X361397Y281575D01*
X358875Y284097D01*
X358875Y284098D01*
X356019Y286235D01*
X356018Y286236D01*
X352888Y287945D01*
X352887Y287945D01*
X349545Y289192D01*
X349544Y289192D01*
X346059Y289950D01*
X346058Y289950D01*
X346058Y289951D01*
X346025Y289953D01*
X345956Y289958D01*
X345886Y289963D01*
X345817Y289968D01*
X345747Y289973D01*
X345678Y289978D01*
X345608Y289983D01*
X345539Y289988D01*
X345469Y289993D01*
X345400Y289998D01*
X345330Y290003D01*
X345261Y290008D01*
X345191Y290013D01*
X345122Y290017D01*
X345053Y290022D01*
X345052Y290022D01*
X344983Y290027D01*
X344914Y290032D01*
X344913Y290032D01*
X344844Y290037D01*
X344775Y290042D01*
X344705Y290047D01*
X344636Y290052D01*
X344566Y290057D01*
X344497Y290062D01*
X344427Y290067D01*
X344358Y290072D01*
X344288Y290077D01*
X344219Y290082D01*
X344149Y290087D01*
X344080Y290092D01*
X344010Y290097D01*
X343941Y290102D01*
X343872Y290107D01*
X343871Y290107D01*
X343802Y290112D01*
X343733Y290117D01*
X343732Y290117D01*
X343663Y290122D01*
X343594Y290127D01*
X343524Y290132D01*
X343455Y290137D01*
X343385Y290142D01*
X343316Y290147D01*
X343246Y290152D01*
X343177Y290157D01*
X343107Y290162D01*
X343038Y290167D01*
X342968Y290172D01*
X342899Y290176D01*
X342829Y290181D01*
X342760Y290186D01*
X342690Y290191D01*
X342621Y290196D01*
X342552Y290201D01*
X342551Y290201D01*
X342500Y290205D01*
X342449Y290201D01*
X342448Y290201D01*
X342379Y290196D01*
X342310Y290191D01*
X342240Y290186D01*
X342171Y290181D01*
X342101Y290176D01*
X342032Y290172D01*
X341962Y290167D01*
X341893Y290162D01*
X341823Y290157D01*
X341754Y290152D01*
X341684Y290147D01*
X341615Y290142D01*
X341545Y290137D01*
X341476Y290132D01*
X341406Y290127D01*
X341337Y290122D01*
X341268Y290117D01*
X341267Y290117D01*
X341198Y290112D01*
X341129Y290107D01*
X341128Y290107D01*
X341059Y290102D01*
X340990Y290097D01*
X340920Y290092D01*
X340851Y290087D01*
X340781Y290082D01*
X340712Y290077D01*
X340642Y290072D01*
X340573Y290067D01*
X340503Y290062D01*
X340434Y290057D01*
X340364Y290052D01*
X340295Y290047D01*
X340225Y290042D01*
X340156Y290037D01*
X340087Y290032D01*
X340086Y290032D01*
X340017Y290027D01*
X339948Y290022D01*
X339947Y290022D01*
X339878Y290017D01*
X339809Y290013D01*
X339739Y290008D01*
X339670Y290003D01*
X339600Y289998D01*
X339531Y289993D01*
X339461Y289988D01*
X339392Y289983D01*
X339322Y289978D01*
X339253Y289973D01*
X339183Y289968D01*
X339114Y289963D01*
X339044Y289958D01*
X338975Y289953D01*
X338942Y289951D01*
X338941Y289950D01*
X335456Y289192D01*
X335455Y289192D01*
X332113Y287945D01*
X332112Y287945D01*
X328982Y286236D01*
X328981Y286235D01*
X326125Y284098D01*
X326125Y284097D01*
X323603Y281575D01*
X323602Y281575D01*
X321465Y278719D01*
X321464Y278718D01*
X319755Y275588D01*
X319755Y275587D01*
X318508Y272245D01*
X318508Y272244D01*
X317750Y268759D01*
X317750Y268758D01*
X317748Y268742D01*
X317746Y268702D01*
X317745Y268702D01*
X317746Y268702D01*
X317744Y268687D01*
X317743Y268662D01*
X317742Y268647D01*
X317739Y268608D01*
X317736Y268568D01*
X317733Y268528D01*
X317730Y268489D01*
X317730Y268488D01*
X317727Y268449D01*
X317726Y268434D01*
X317723Y268394D01*
X317721Y268354D01*
X317718Y268315D01*
X317715Y268275D01*
X317712Y268235D01*
X317711Y268220D01*
X317708Y268180D01*
X317705Y268141D01*
X317703Y268101D01*
X317702Y268101D01*
X317703Y268101D01*
X317700Y268061D01*
X317697Y268021D01*
X317696Y268007D01*
X317696Y268006D01*
X317693Y267967D01*
X317690Y267927D01*
X317687Y267887D01*
X317684Y267848D01*
X317684Y267847D01*
X317682Y267808D01*
X317680Y267793D01*
X317678Y267753D01*
X317675Y267713D01*
X317672Y267674D01*
X317669Y267634D01*
X317666Y267594D01*
X317665Y267579D01*
X317662Y267539D01*
X317660Y267500D01*
X317659Y267500D01*
X317660Y267500D01*
X317657Y267460D01*
X317654Y267420D01*
X317651Y267380D01*
X317650Y267366D01*
X317647Y267326D01*
X317644Y267286D01*
X317641Y267246D01*
X317639Y267207D01*
X317636Y267167D01*
X317635Y267152D01*
X317632Y267112D01*
X317629Y267072D01*
X317626Y267033D01*
X317623Y266993D01*
X317620Y266953D01*
X317619Y266938D01*
X317617Y266899D01*
X317616Y266898D01*
X317617Y266898D01*
X317614Y266859D01*
X317611Y266819D01*
X317608Y266779D01*
X317605Y266740D01*
X317605Y266739D01*
X317604Y266725D01*
X317601Y266685D01*
X317598Y266645D01*
X317596Y266605D01*
X317593Y266566D01*
X317590Y266526D01*
X317589Y266511D01*
X317586Y266471D01*
X317583Y266431D01*
X317580Y266392D01*
X317577Y266352D01*
X317575Y266312D01*
X317574Y266297D01*
X317573Y266297D01*
X317571Y266258D01*
X317571Y266257D01*
X317568Y266218D01*
X317565Y266178D01*
X317562Y266138D01*
X317559Y266099D01*
X317559Y266098D01*
X317558Y266084D01*
X317555Y266044D01*
X317553Y266004D01*
X317550Y265964D01*
X317547Y265925D01*
X317544Y265885D01*
X317543Y265870D01*
X317540Y265830D01*
X317537Y265790D01*
X317534Y265751D01*
X317532Y265711D01*
X317529Y265671D01*
X317528Y265656D01*
X317525Y265617D01*
X317522Y265577D01*
X317519Y265537D01*
X317516Y265497D01*
X317513Y265458D01*
X317512Y265443D01*
X317510Y265403D01*
X317507Y265363D01*
X317504Y265323D01*
X317501Y265284D01*
X317498Y265244D01*
X317497Y265229D01*
X317495Y265200D01*
X317495Y189800D01*
X317750Y186242D01*
X317750Y186241D01*
X318508Y182756D01*
X318508Y182755D01*
X319755Y179413D01*
X319755Y179412D01*
X321464Y176282D01*
X321465Y176281D01*
X323602Y173425D01*
X323603Y173425D01*
X326125Y170903D01*
X326125Y170902D01*
X328981Y168765D01*
X328982Y168765D01*
X328982Y168764D01*
X332112Y167055D01*
X332113Y167055D01*
X335455Y165808D01*
X335456Y165808D01*
X338941Y165050D01*
X338942Y165050D01*
X342500Y164795D01*
X346058Y165050D01*
G37*
D10*
X203000Y63000D03*
X527000Y62000D03*
D11*
X528000Y338000D03*
D12*
X295000Y85000D03*
X432500Y85000D03*
D13*
X402500Y289400D03*
X402500Y314800D03*
X402500Y340200D03*
X402500Y365600D03*
D14*
X202500Y195000D03*
X182500Y195000D03*
D15*
X443000Y296449D03*
X432000Y231449D03*
X483000Y296449D03*
X513000Y296449D03*
D16*
X529000Y263949D03*
X459000Y263949D03*
D15*
X443000Y200000D03*
X432000Y135000D03*
X483000Y200000D03*
X513000Y200000D03*
D16*
X529000Y167500D03*
X459000Y167500D03*
D14*
X202500Y159500D03*
X222500Y159500D03*
X182500Y159500D03*
M02*
