G04 EAGLE Gerber RS-274X export*
G75*
%MOMM*%
%FSLAX34Y34*%
%LPD*%
%INTop Copper*%
%IPPOS*%
%AMOC8*
5,1,8,0,0,1.08239X$1,22.5*%
G01*
%ADD10R,1.000000X1.500000*%
%ADD11R,1.500000X1.000000*%
%ADD12R,4.500000X4.500000*%
%ADD13R,2.235200X1.219200*%
%ADD14R,2.200000X3.600000*%
%ADD15R,1.600000X1.803000*%
%ADD16R,1.803000X1.600000*%
%ADD17C,1.524000*%
%ADD18R,1.500000X1.500000*%
%ADD19C,4.216000*%
%ADD20C,3.816000*%
%ADD21C,0.756400*%
%ADD22C,0.406400*%
%ADD23C,0.304800*%
%ADD24C,0.254000*%

G36*
X210664Y352542D02*
X210664Y352542D01*
X210673Y352541D01*
X210865Y352562D01*
X211056Y352581D01*
X211064Y352583D01*
X211073Y352584D01*
X211256Y352642D01*
X211441Y352699D01*
X211449Y352703D01*
X211457Y352706D01*
X211626Y352799D01*
X211795Y352891D01*
X211802Y352896D01*
X211809Y352901D01*
X211957Y353026D01*
X212104Y353148D01*
X212110Y353155D01*
X212116Y353161D01*
X212236Y353313D01*
X212356Y353462D01*
X212360Y353470D01*
X212366Y353477D01*
X212453Y353649D01*
X212542Y353819D01*
X212544Y353828D01*
X212548Y353836D01*
X212600Y354022D01*
X212653Y354206D01*
X212654Y354215D01*
X212656Y354224D01*
X212671Y354416D01*
X212686Y354608D01*
X212685Y354616D01*
X212686Y354625D01*
X212661Y354818D01*
X212639Y355007D01*
X212637Y355016D01*
X212635Y355025D01*
X212574Y355208D01*
X212514Y355390D01*
X212510Y355398D01*
X212507Y355406D01*
X212412Y355572D01*
X212317Y355741D01*
X212311Y355748D01*
X212306Y355755D01*
X212092Y356008D01*
X210449Y357651D01*
X210449Y360648D01*
X210447Y360666D01*
X210449Y360684D01*
X210428Y360866D01*
X210409Y361049D01*
X210404Y361066D01*
X210402Y361083D01*
X210345Y361258D01*
X210291Y361434D01*
X210283Y361449D01*
X210277Y361466D01*
X210187Y361626D01*
X210099Y361788D01*
X210088Y361801D01*
X210079Y361817D01*
X209959Y361956D01*
X209842Y362097D01*
X209828Y362108D01*
X209816Y362122D01*
X209671Y362234D01*
X209528Y362349D01*
X209512Y362357D01*
X209498Y362368D01*
X209333Y362450D01*
X209171Y362535D01*
X209154Y362540D01*
X209138Y362548D01*
X208959Y362595D01*
X208784Y362646D01*
X208766Y362648D01*
X208749Y362652D01*
X208418Y362679D01*
X205901Y362679D01*
X205879Y362677D01*
X205857Y362679D01*
X205679Y362657D01*
X205501Y362639D01*
X205479Y362633D01*
X205457Y362630D01*
X205286Y362574D01*
X205116Y362521D01*
X205096Y362511D01*
X205075Y362504D01*
X204919Y362415D01*
X204762Y362329D01*
X204745Y362315D01*
X204725Y362304D01*
X204590Y362186D01*
X204453Y362072D01*
X204439Y362054D01*
X204422Y362040D01*
X204312Y361897D01*
X204200Y361758D01*
X204190Y361738D01*
X204176Y361721D01*
X204025Y361425D01*
X203699Y360638D01*
X202058Y358997D01*
X200801Y358476D01*
X200800Y358476D01*
X199914Y358109D01*
X197594Y358109D01*
X195450Y358997D01*
X193809Y360638D01*
X192798Y363078D01*
X192792Y363090D01*
X192788Y363102D01*
X192697Y363268D01*
X192608Y363433D01*
X192600Y363443D01*
X192593Y363455D01*
X192471Y363599D01*
X192352Y363743D01*
X192341Y363752D01*
X192333Y363762D01*
X192185Y363878D01*
X192039Y363997D01*
X192027Y364003D01*
X192017Y364011D01*
X191850Y364096D01*
X191683Y364184D01*
X191670Y364188D01*
X191658Y364194D01*
X191477Y364244D01*
X191296Y364297D01*
X191283Y364298D01*
X191270Y364302D01*
X191081Y364315D01*
X190895Y364332D01*
X190882Y364330D01*
X190868Y364331D01*
X190680Y364307D01*
X190495Y364286D01*
X190482Y364282D01*
X190469Y364281D01*
X190290Y364221D01*
X190112Y364163D01*
X190100Y364157D01*
X190087Y364152D01*
X189925Y364059D01*
X189760Y363967D01*
X189750Y363958D01*
X189739Y363951D01*
X189486Y363737D01*
X188304Y362555D01*
X188265Y362539D01*
X186160Y361667D01*
X183840Y361667D01*
X181696Y362555D01*
X180055Y364196D01*
X179167Y366340D01*
X179167Y368660D01*
X180055Y370804D01*
X180322Y371071D01*
X180339Y371092D01*
X180360Y371109D01*
X180467Y371247D01*
X180577Y371383D01*
X180590Y371406D01*
X180606Y371427D01*
X180684Y371584D01*
X180766Y371738D01*
X180774Y371764D01*
X180786Y371788D01*
X180831Y371957D01*
X180881Y372124D01*
X180883Y372151D01*
X180890Y372177D01*
X180917Y372507D01*
X180917Y373698D01*
X180915Y373716D01*
X180917Y373734D01*
X180896Y373916D01*
X180877Y374099D01*
X180872Y374116D01*
X180870Y374133D01*
X180813Y374308D01*
X180759Y374484D01*
X180751Y374499D01*
X180745Y374516D01*
X180655Y374676D01*
X180567Y374838D01*
X180556Y374851D01*
X180547Y374867D01*
X180427Y375006D01*
X180310Y375147D01*
X180296Y375158D01*
X180284Y375172D01*
X180139Y375284D01*
X179996Y375399D01*
X179980Y375407D01*
X179966Y375418D01*
X179801Y375500D01*
X179639Y375585D01*
X179622Y375590D01*
X179606Y375598D01*
X179427Y375645D01*
X179252Y375696D01*
X179234Y375698D01*
X179217Y375702D01*
X178886Y375729D01*
X175136Y375729D01*
X173934Y376931D01*
X173934Y394629D01*
X175136Y395831D01*
X194864Y395831D01*
X196066Y394629D01*
X196066Y376931D01*
X194864Y375729D01*
X191114Y375729D01*
X191096Y375727D01*
X191078Y375729D01*
X190896Y375708D01*
X190713Y375689D01*
X190696Y375684D01*
X190679Y375682D01*
X190504Y375625D01*
X190328Y375571D01*
X190313Y375563D01*
X190296Y375557D01*
X190135Y375467D01*
X189974Y375379D01*
X189961Y375368D01*
X189945Y375359D01*
X189806Y375239D01*
X189665Y375122D01*
X189654Y375108D01*
X189640Y375096D01*
X189528Y374951D01*
X189413Y374808D01*
X189405Y374792D01*
X189394Y374778D01*
X189312Y374613D01*
X189227Y374451D01*
X189222Y374434D01*
X189214Y374418D01*
X189166Y374239D01*
X189116Y374064D01*
X189114Y374046D01*
X189110Y374029D01*
X189083Y373698D01*
X189083Y372507D01*
X189085Y372481D01*
X189083Y372454D01*
X189105Y372280D01*
X189123Y372107D01*
X189130Y372081D01*
X189134Y372055D01*
X189189Y371889D01*
X189241Y371722D01*
X189254Y371698D01*
X189262Y371673D01*
X189349Y371521D01*
X189433Y371368D01*
X189450Y371347D01*
X189463Y371324D01*
X189678Y371071D01*
X189945Y370804D01*
X190955Y368364D01*
X190962Y368352D01*
X190966Y368340D01*
X191057Y368174D01*
X191146Y368009D01*
X191154Y367999D01*
X191161Y367987D01*
X191283Y367843D01*
X191402Y367699D01*
X191412Y367690D01*
X191421Y367680D01*
X191569Y367564D01*
X191715Y367445D01*
X191726Y367439D01*
X191737Y367431D01*
X191904Y367346D01*
X192071Y367258D01*
X192084Y367254D01*
X192096Y367248D01*
X192276Y367198D01*
X192458Y367145D01*
X192471Y367144D01*
X192484Y367140D01*
X192672Y367127D01*
X192859Y367110D01*
X192872Y367112D01*
X192885Y367111D01*
X193074Y367135D01*
X193259Y367156D01*
X193271Y367160D01*
X193285Y367161D01*
X193464Y367221D01*
X193642Y367279D01*
X193654Y367285D01*
X193666Y367290D01*
X193829Y367383D01*
X193994Y367475D01*
X194004Y367484D01*
X194015Y367491D01*
X194268Y367705D01*
X195450Y368887D01*
X195599Y368949D01*
X195600Y368949D01*
X197594Y369775D01*
X199914Y369775D01*
X200637Y369475D01*
X200667Y369466D01*
X200695Y369452D01*
X200859Y369408D01*
X201022Y369359D01*
X201053Y369356D01*
X201083Y369348D01*
X201414Y369321D01*
X208418Y369321D01*
X208436Y369323D01*
X208454Y369321D01*
X208636Y369342D01*
X208819Y369361D01*
X208836Y369366D01*
X208853Y369368D01*
X209028Y369425D01*
X209204Y369479D01*
X209219Y369487D01*
X209236Y369493D01*
X209396Y369583D01*
X209558Y369671D01*
X209571Y369682D01*
X209587Y369691D01*
X209726Y369811D01*
X209867Y369928D01*
X209878Y369942D01*
X209892Y369954D01*
X210004Y370099D01*
X210119Y370242D01*
X210127Y370258D01*
X210138Y370272D01*
X210220Y370437D01*
X210305Y370599D01*
X210310Y370616D01*
X210318Y370632D01*
X210365Y370811D01*
X210416Y370986D01*
X210418Y371004D01*
X210422Y371021D01*
X210449Y371352D01*
X210449Y374717D01*
X210479Y374803D01*
X210486Y374849D01*
X210499Y374894D01*
X210513Y375048D01*
X210534Y375202D01*
X210531Y375248D01*
X210535Y375295D01*
X210519Y375449D01*
X210509Y375604D01*
X210497Y375649D01*
X210492Y375695D01*
X210445Y375843D01*
X210405Y375993D01*
X210383Y376040D01*
X210370Y376079D01*
X210329Y376155D01*
X210263Y376293D01*
X210132Y376519D01*
X209959Y377165D01*
X209959Y381251D01*
X218282Y381251D01*
X218300Y381252D01*
X218317Y381251D01*
X218500Y381272D01*
X218682Y381291D01*
X218699Y381296D01*
X218717Y381298D01*
X218892Y381355D01*
X219067Y381409D01*
X219083Y381417D01*
X219100Y381423D01*
X219260Y381513D01*
X219421Y381600D01*
X219435Y381612D01*
X219451Y381621D01*
X219590Y381741D01*
X219731Y381858D01*
X219742Y381872D01*
X219755Y381884D01*
X219868Y382029D01*
X219983Y382172D01*
X219991Y382188D01*
X220002Y382202D01*
X220084Y382367D01*
X220168Y382529D01*
X220173Y382546D01*
X220181Y382562D01*
X220229Y382741D01*
X220280Y382916D01*
X220281Y382934D01*
X220286Y382951D01*
X220313Y383282D01*
X220313Y386718D01*
X220311Y386736D01*
X220313Y386754D01*
X220291Y386936D01*
X220273Y387119D01*
X220268Y387136D01*
X220266Y387153D01*
X220209Y387328D01*
X220155Y387504D01*
X220147Y387519D01*
X220141Y387536D01*
X220051Y387696D01*
X219963Y387858D01*
X219952Y387871D01*
X219943Y387887D01*
X219823Y388026D01*
X219705Y388167D01*
X219692Y388178D01*
X219680Y388192D01*
X219535Y388304D01*
X219392Y388419D01*
X219376Y388427D01*
X219362Y388438D01*
X219197Y388520D01*
X219034Y388605D01*
X219017Y388610D01*
X219001Y388618D01*
X218823Y388665D01*
X218648Y388716D01*
X218630Y388718D01*
X218613Y388722D01*
X218282Y388749D01*
X209959Y388749D01*
X209959Y392835D01*
X210132Y393481D01*
X210532Y394172D01*
X210572Y394221D01*
X210580Y394237D01*
X210592Y394252D01*
X210675Y394415D01*
X210760Y394577D01*
X210766Y394594D01*
X210774Y394610D01*
X210823Y394787D01*
X210875Y394962D01*
X210877Y394981D01*
X210882Y394998D01*
X210895Y395181D01*
X210912Y395363D01*
X210910Y395382D01*
X210911Y395400D01*
X210888Y395582D01*
X210869Y395764D01*
X210863Y395781D01*
X210861Y395799D01*
X210803Y395972D01*
X210747Y396148D01*
X210738Y396164D01*
X210733Y396181D01*
X210642Y396339D01*
X210553Y396500D01*
X210541Y396514D01*
X210532Y396530D01*
X210449Y396627D01*
X210449Y413349D01*
X211297Y414198D01*
X211309Y414212D01*
X211323Y414224D01*
X211437Y414368D01*
X211552Y414509D01*
X211561Y414525D01*
X211572Y414540D01*
X211655Y414703D01*
X211741Y414865D01*
X211746Y414882D01*
X211755Y414899D01*
X211804Y415075D01*
X211856Y415251D01*
X211857Y415269D01*
X211862Y415286D01*
X211876Y415469D01*
X211892Y415652D01*
X211890Y415670D01*
X211892Y415688D01*
X211869Y415869D01*
X211849Y416052D01*
X211843Y416069D01*
X211841Y416087D01*
X211783Y416260D01*
X211727Y416436D01*
X211718Y416452D01*
X211713Y416469D01*
X211641Y416593D01*
X210659Y418964D01*
X210659Y421285D01*
X211547Y423428D01*
X213188Y425069D01*
X215332Y425957D01*
X217652Y425957D01*
X219796Y425069D01*
X221437Y423428D01*
X222325Y421285D01*
X222325Y419829D01*
X222327Y419803D01*
X222325Y419776D01*
X222347Y419602D01*
X222364Y419429D01*
X222372Y419403D01*
X222376Y419377D01*
X222431Y419211D01*
X222483Y419044D01*
X222495Y419020D01*
X222504Y418995D01*
X222591Y418843D01*
X222674Y418690D01*
X222691Y418669D01*
X222705Y418646D01*
X222919Y418393D01*
X223321Y417992D01*
X223321Y416582D01*
X223323Y416564D01*
X223321Y416546D01*
X223342Y416364D01*
X223361Y416181D01*
X223366Y416164D01*
X223368Y416147D01*
X223425Y415972D01*
X223479Y415796D01*
X223487Y415781D01*
X223493Y415764D01*
X223583Y415604D01*
X223671Y415442D01*
X223682Y415429D01*
X223691Y415413D01*
X223811Y415274D01*
X223928Y415133D01*
X223942Y415122D01*
X223954Y415108D01*
X224099Y414996D01*
X224242Y414881D01*
X224258Y414873D01*
X224272Y414862D01*
X224437Y414780D01*
X224599Y414695D01*
X224616Y414690D01*
X224632Y414682D01*
X224811Y414635D01*
X224986Y414584D01*
X225004Y414582D01*
X225021Y414578D01*
X225352Y414551D01*
X226894Y414551D01*
X226912Y414553D01*
X226930Y414551D01*
X227112Y414572D01*
X227295Y414591D01*
X227312Y414596D01*
X227329Y414598D01*
X227504Y414655D01*
X227680Y414709D01*
X227695Y414717D01*
X227712Y414723D01*
X227872Y414813D01*
X228034Y414901D01*
X228047Y414912D01*
X228063Y414921D01*
X228202Y415041D01*
X228343Y415158D01*
X228354Y415172D01*
X228368Y415184D01*
X228480Y415329D01*
X228595Y415472D01*
X228603Y415488D01*
X228614Y415502D01*
X228696Y415667D01*
X228781Y415829D01*
X228786Y415846D01*
X228794Y415862D01*
X228841Y416041D01*
X228892Y416216D01*
X228894Y416234D01*
X228898Y416251D01*
X228925Y416582D01*
X228925Y424929D01*
X236203Y432207D01*
X244247Y432207D01*
X244260Y432208D01*
X244273Y432207D01*
X244460Y432228D01*
X244647Y432247D01*
X244660Y432251D01*
X244673Y432252D01*
X244853Y432310D01*
X245032Y432365D01*
X245044Y432372D01*
X245057Y432376D01*
X245221Y432467D01*
X245386Y432557D01*
X245396Y432566D01*
X245408Y432572D01*
X245550Y432694D01*
X245695Y432815D01*
X245704Y432825D01*
X245714Y432834D01*
X245830Y432982D01*
X245948Y433128D01*
X245954Y433140D01*
X245962Y433151D01*
X246047Y433319D01*
X246133Y433486D01*
X246137Y433499D01*
X246143Y433511D01*
X246192Y433691D01*
X246245Y433873D01*
X246246Y433886D01*
X246249Y433899D01*
X246262Y434085D01*
X246277Y434274D01*
X246276Y434287D01*
X246277Y434301D01*
X246252Y434487D01*
X246231Y434674D01*
X246226Y434687D01*
X246225Y434700D01*
X246123Y435016D01*
X246086Y435105D01*
X246086Y436641D01*
X246084Y436667D01*
X246086Y436694D01*
X246064Y436868D01*
X246046Y437042D01*
X246039Y437067D01*
X246035Y437094D01*
X245980Y437259D01*
X245928Y437426D01*
X245915Y437450D01*
X245907Y437475D01*
X245820Y437627D01*
X245737Y437780D01*
X245719Y437801D01*
X245706Y437824D01*
X245491Y438077D01*
X229885Y453684D01*
X229885Y495518D01*
X229882Y495545D01*
X229884Y495572D01*
X229862Y495746D01*
X229845Y495919D01*
X229837Y495944D01*
X229834Y495971D01*
X229778Y496137D01*
X229727Y496304D01*
X229714Y496327D01*
X229706Y496353D01*
X229618Y496504D01*
X229535Y496658D01*
X229518Y496678D01*
X229505Y496702D01*
X229290Y496955D01*
X221160Y505084D01*
X221140Y505101D01*
X221122Y505122D01*
X220984Y505229D01*
X220849Y505339D01*
X220825Y505352D01*
X220804Y505368D01*
X220647Y505446D01*
X220493Y505528D01*
X220468Y505536D01*
X220443Y505548D01*
X220274Y505593D01*
X220107Y505643D01*
X220081Y505645D01*
X220055Y505652D01*
X219724Y505679D01*
X212668Y505679D01*
X212659Y505678D01*
X212650Y505679D01*
X212458Y505658D01*
X212267Y505639D01*
X212258Y505637D01*
X212250Y505636D01*
X212067Y505578D01*
X211882Y505521D01*
X211874Y505517D01*
X211866Y505514D01*
X211697Y505421D01*
X211528Y505329D01*
X211521Y505324D01*
X211513Y505319D01*
X211366Y505195D01*
X211219Y505072D01*
X211213Y505065D01*
X211206Y505059D01*
X211087Y504908D01*
X210966Y504758D01*
X210962Y504750D01*
X210957Y504743D01*
X210869Y504570D01*
X210781Y504401D01*
X210778Y504392D01*
X210774Y504384D01*
X210722Y504198D01*
X210670Y504014D01*
X210669Y504005D01*
X210666Y503996D01*
X210652Y503803D01*
X210637Y503612D01*
X210638Y503604D01*
X210637Y503595D01*
X210661Y503402D01*
X210684Y503213D01*
X210686Y503204D01*
X210687Y503195D01*
X210749Y503012D01*
X210808Y502830D01*
X210813Y502822D01*
X210816Y502814D01*
X210912Y502647D01*
X211006Y502479D01*
X211012Y502472D01*
X211017Y502465D01*
X211231Y502212D01*
X215963Y497480D01*
X215984Y497463D01*
X216001Y497443D01*
X216139Y497336D01*
X216275Y497225D01*
X216298Y497212D01*
X216319Y497196D01*
X216475Y497118D01*
X216630Y497036D01*
X216656Y497029D01*
X216680Y497017D01*
X216849Y496971D01*
X217016Y496921D01*
X217043Y496919D01*
X217069Y496912D01*
X217399Y496885D01*
X218855Y496885D01*
X220999Y495997D01*
X222639Y494356D01*
X223527Y492212D01*
X223527Y489892D01*
X222639Y487748D01*
X220999Y486107D01*
X218855Y485219D01*
X216534Y485219D01*
X214391Y486107D01*
X212750Y487748D01*
X211862Y489892D01*
X211862Y491347D01*
X211859Y491374D01*
X211861Y491401D01*
X211839Y491575D01*
X211822Y491748D01*
X211814Y491773D01*
X211811Y491800D01*
X211755Y491966D01*
X211704Y492133D01*
X211691Y492156D01*
X211683Y492182D01*
X211595Y492333D01*
X211512Y492487D01*
X211495Y492507D01*
X211482Y492531D01*
X211267Y492784D01*
X204976Y499075D01*
X204955Y499092D01*
X204938Y499112D01*
X204800Y499219D01*
X204664Y499330D01*
X204641Y499342D01*
X204620Y499359D01*
X204463Y499437D01*
X204309Y499518D01*
X204283Y499526D01*
X204259Y499538D01*
X204090Y499584D01*
X203923Y499633D01*
X203896Y499636D01*
X203870Y499643D01*
X203540Y499670D01*
X198562Y499670D01*
X178860Y519372D01*
X178860Y619194D01*
X186986Y627321D01*
X192217Y627321D01*
X192243Y627323D01*
X192270Y627321D01*
X192444Y627343D01*
X192617Y627361D01*
X192643Y627368D01*
X192670Y627372D01*
X192835Y627428D01*
X193002Y627479D01*
X193026Y627492D01*
X193051Y627500D01*
X193203Y627587D01*
X193356Y627671D01*
X193377Y627688D01*
X193400Y627701D01*
X193653Y627916D01*
X194682Y628945D01*
X196725Y629791D01*
X196737Y629797D01*
X196749Y629801D01*
X196914Y629892D01*
X197080Y629981D01*
X197090Y629990D01*
X197102Y629996D01*
X197244Y630117D01*
X197390Y630237D01*
X197399Y630248D01*
X197409Y630256D01*
X197525Y630404D01*
X197644Y630550D01*
X197650Y630562D01*
X197658Y630572D01*
X197744Y630740D01*
X197831Y630907D01*
X197835Y630919D01*
X197841Y630931D01*
X197891Y631113D01*
X197944Y631293D01*
X197945Y631306D01*
X197949Y631319D01*
X197963Y631508D01*
X197979Y631694D01*
X197977Y631707D01*
X197978Y631721D01*
X197954Y631908D01*
X197933Y632094D01*
X197929Y632107D01*
X197928Y632120D01*
X197868Y632298D01*
X197810Y632477D01*
X197804Y632489D01*
X197799Y632502D01*
X197705Y632665D01*
X197614Y632829D01*
X197605Y632839D01*
X197599Y632851D01*
X197384Y633104D01*
X196403Y634084D01*
X196383Y634101D01*
X196365Y634122D01*
X196227Y634229D01*
X196092Y634339D01*
X196068Y634352D01*
X196047Y634368D01*
X195890Y634446D01*
X195736Y634528D01*
X195711Y634536D01*
X195686Y634548D01*
X195517Y634593D01*
X195350Y634643D01*
X195324Y634645D01*
X195298Y634652D01*
X194967Y634679D01*
X186625Y634679D01*
X176091Y645213D01*
X176091Y755501D01*
X193211Y772621D01*
X193418Y772621D01*
X193436Y772623D01*
X193454Y772621D01*
X193636Y772642D01*
X193819Y772661D01*
X193836Y772666D01*
X193853Y772668D01*
X194028Y772725D01*
X194204Y772779D01*
X194219Y772787D01*
X194236Y772793D01*
X194396Y772883D01*
X194558Y772971D01*
X194571Y772982D01*
X194587Y772991D01*
X194726Y773111D01*
X194867Y773228D01*
X194878Y773242D01*
X194892Y773254D01*
X195004Y773399D01*
X195119Y773542D01*
X195127Y773558D01*
X195138Y773572D01*
X195220Y773737D01*
X195305Y773899D01*
X195310Y773916D01*
X195318Y773932D01*
X195365Y774111D01*
X195416Y774286D01*
X195418Y774304D01*
X195422Y774321D01*
X195449Y774652D01*
X195449Y774926D01*
X195433Y775089D01*
X195423Y775253D01*
X195413Y775289D01*
X195409Y775327D01*
X195361Y775483D01*
X195319Y775642D01*
X195301Y775680D01*
X195291Y775712D01*
X195250Y775788D01*
X195177Y775942D01*
X195132Y776019D01*
X194959Y776665D01*
X194959Y779501D01*
X204532Y779501D01*
X204550Y779502D01*
X204567Y779501D01*
X204750Y779522D01*
X204932Y779541D01*
X204949Y779546D01*
X204967Y779548D01*
X205008Y779561D01*
X205102Y779534D01*
X205120Y779532D01*
X205137Y779528D01*
X205468Y779501D01*
X215041Y779501D01*
X215041Y776414D01*
X215043Y776396D01*
X215041Y776378D01*
X215062Y776196D01*
X215081Y776013D01*
X215086Y775996D01*
X215088Y775979D01*
X215145Y775804D01*
X215199Y775628D01*
X215207Y775613D01*
X215213Y775596D01*
X215303Y775436D01*
X215391Y775274D01*
X215402Y775261D01*
X215411Y775245D01*
X215531Y775106D01*
X215648Y774965D01*
X215662Y774954D01*
X215674Y774940D01*
X215819Y774828D01*
X215962Y774713D01*
X215978Y774705D01*
X215992Y774694D01*
X216157Y774612D01*
X216319Y774527D01*
X216336Y774522D01*
X216352Y774514D01*
X216531Y774467D01*
X216706Y774416D01*
X216724Y774414D01*
X216741Y774410D01*
X217072Y774383D01*
X295993Y774383D01*
X296019Y774385D01*
X296046Y774383D01*
X296220Y774405D01*
X296393Y774423D01*
X296419Y774430D01*
X296445Y774434D01*
X296611Y774489D01*
X296778Y774541D01*
X296802Y774554D01*
X296827Y774562D01*
X296979Y774649D01*
X297132Y774733D01*
X297153Y774750D01*
X297176Y774763D01*
X297429Y774978D01*
X297696Y775245D01*
X299840Y776133D01*
X302160Y776133D01*
X304304Y775245D01*
X305945Y773604D01*
X306833Y771460D01*
X306833Y769140D01*
X305945Y766996D01*
X304304Y765355D01*
X302160Y764467D01*
X299840Y764467D01*
X297696Y765355D01*
X297429Y765622D01*
X297408Y765639D01*
X297391Y765660D01*
X297253Y765767D01*
X297117Y765877D01*
X297094Y765890D01*
X297073Y765906D01*
X296916Y765984D01*
X296762Y766066D01*
X296736Y766074D01*
X296712Y766086D01*
X296543Y766131D01*
X296376Y766181D01*
X296349Y766183D01*
X296323Y766190D01*
X295993Y766217D01*
X216582Y766217D01*
X216564Y766215D01*
X216546Y766217D01*
X216364Y766196D01*
X216181Y766177D01*
X216164Y766172D01*
X216147Y766170D01*
X215972Y766113D01*
X215796Y766059D01*
X215781Y766051D01*
X215764Y766045D01*
X215604Y765955D01*
X215442Y765867D01*
X215429Y765856D01*
X215413Y765847D01*
X215274Y765727D01*
X215133Y765610D01*
X215122Y765596D01*
X215108Y765584D01*
X214996Y765439D01*
X214881Y765296D01*
X214873Y765280D01*
X214862Y765266D01*
X214779Y765101D01*
X214695Y764939D01*
X214690Y764922D01*
X214682Y764906D01*
X214634Y764726D01*
X214584Y764552D01*
X214582Y764534D01*
X214578Y764517D01*
X214551Y764186D01*
X214551Y738703D01*
X214552Y738695D01*
X214551Y738686D01*
X214572Y738494D01*
X214591Y738303D01*
X214593Y738294D01*
X214594Y738285D01*
X214652Y738103D01*
X214709Y737918D01*
X214713Y737910D01*
X214716Y737901D01*
X214809Y737733D01*
X214901Y737564D01*
X214906Y737557D01*
X214911Y737549D01*
X215036Y737401D01*
X215158Y737255D01*
X215165Y737249D01*
X215171Y737242D01*
X215323Y737122D01*
X215472Y737002D01*
X215480Y736998D01*
X215487Y736992D01*
X215660Y736905D01*
X215829Y736817D01*
X215838Y736814D01*
X215846Y736810D01*
X216031Y736758D01*
X216216Y736705D01*
X216225Y736705D01*
X216234Y736702D01*
X216426Y736688D01*
X216618Y736672D01*
X216626Y736673D01*
X216635Y736673D01*
X216826Y736697D01*
X217017Y736719D01*
X217026Y736722D01*
X217035Y736723D01*
X217216Y736784D01*
X217400Y736844D01*
X217408Y736849D01*
X217416Y736851D01*
X217584Y736948D01*
X217751Y737042D01*
X217758Y737048D01*
X217765Y737052D01*
X218018Y737267D01*
X218696Y737945D01*
X220365Y738636D01*
X220366Y738636D01*
X220840Y738833D01*
X222180Y738833D01*
X222211Y738836D01*
X222243Y738834D01*
X222411Y738856D01*
X222581Y738873D01*
X222611Y738882D01*
X222642Y738886D01*
X222958Y738987D01*
X223188Y739083D01*
X250993Y739083D01*
X251019Y739085D01*
X251046Y739083D01*
X251220Y739105D01*
X251393Y739123D01*
X251419Y739130D01*
X251445Y739134D01*
X251611Y739189D01*
X251778Y739241D01*
X251802Y739254D01*
X251827Y739262D01*
X251979Y739349D01*
X252132Y739433D01*
X252153Y739450D01*
X252176Y739463D01*
X252429Y739678D01*
X252696Y739945D01*
X254840Y740833D01*
X257160Y740833D01*
X259304Y739945D01*
X260945Y738304D01*
X261833Y736160D01*
X261833Y733840D01*
X260945Y731696D01*
X259304Y730055D01*
X257160Y729167D01*
X254840Y729167D01*
X252696Y730055D01*
X252429Y730322D01*
X252408Y730339D01*
X252391Y730360D01*
X252253Y730467D01*
X252117Y730577D01*
X252094Y730590D01*
X252073Y730606D01*
X251916Y730684D01*
X251762Y730766D01*
X251736Y730774D01*
X251712Y730786D01*
X251543Y730831D01*
X251376Y730881D01*
X251349Y730883D01*
X251323Y730890D01*
X250993Y730917D01*
X228808Y730917D01*
X228786Y730915D01*
X228763Y730917D01*
X228586Y730895D01*
X228407Y730877D01*
X228386Y730871D01*
X228364Y730868D01*
X228193Y730812D01*
X228022Y730759D01*
X228003Y730749D01*
X227982Y730742D01*
X227826Y730653D01*
X227668Y730567D01*
X227651Y730553D01*
X227632Y730542D01*
X227496Y730424D01*
X227359Y730310D01*
X227345Y730292D01*
X227328Y730278D01*
X227219Y730135D01*
X227107Y729996D01*
X227096Y729976D01*
X227083Y729959D01*
X226951Y729703D01*
X225304Y728055D01*
X223160Y727167D01*
X220840Y727167D01*
X218696Y728055D01*
X218018Y728733D01*
X218011Y728739D01*
X218006Y728745D01*
X217857Y728865D01*
X217707Y728988D01*
X217699Y728992D01*
X217692Y728998D01*
X217522Y729086D01*
X217351Y729177D01*
X217342Y729179D01*
X217335Y729183D01*
X217150Y729236D01*
X216965Y729291D01*
X216956Y729292D01*
X216948Y729295D01*
X216757Y729310D01*
X216564Y729328D01*
X216555Y729327D01*
X216546Y729328D01*
X216357Y729305D01*
X216164Y729284D01*
X216155Y729282D01*
X216147Y729281D01*
X215964Y729221D01*
X215780Y729163D01*
X215772Y729159D01*
X215764Y729156D01*
X215596Y729061D01*
X215428Y728968D01*
X215421Y728962D01*
X215413Y728958D01*
X215267Y728832D01*
X215121Y728708D01*
X215115Y728701D01*
X215108Y728695D01*
X214990Y728542D01*
X214871Y728392D01*
X214867Y728384D01*
X214862Y728377D01*
X214775Y728203D01*
X214689Y728033D01*
X214686Y728024D01*
X214682Y728016D01*
X214633Y727831D01*
X214581Y727645D01*
X214580Y727636D01*
X214578Y727627D01*
X214551Y727297D01*
X214551Y694228D01*
X214552Y694220D01*
X214551Y694211D01*
X214572Y694017D01*
X214591Y693828D01*
X214593Y693819D01*
X214594Y693810D01*
X214652Y693627D01*
X214709Y693443D01*
X214713Y693435D01*
X214716Y693427D01*
X214808Y693259D01*
X214901Y693089D01*
X214906Y693082D01*
X214911Y693074D01*
X215035Y692927D01*
X215158Y692780D01*
X215165Y692774D01*
X215171Y692767D01*
X215323Y692647D01*
X215472Y692527D01*
X215480Y692523D01*
X215487Y692518D01*
X215660Y692430D01*
X215829Y692342D01*
X215838Y692339D01*
X215846Y692335D01*
X216032Y692283D01*
X216216Y692230D01*
X216225Y692230D01*
X216234Y692227D01*
X216427Y692213D01*
X216618Y692198D01*
X216626Y692199D01*
X216635Y692198D01*
X216828Y692222D01*
X217017Y692244D01*
X217026Y692247D01*
X217035Y692248D01*
X217218Y692310D01*
X217400Y692369D01*
X217408Y692374D01*
X217416Y692377D01*
X217583Y692473D01*
X217751Y692567D01*
X217758Y692573D01*
X217765Y692577D01*
X218018Y692792D01*
X233974Y708748D01*
X235474Y709369D01*
X247975Y709369D01*
X248001Y709372D01*
X248028Y709370D01*
X248202Y709392D01*
X248375Y709409D01*
X248401Y709417D01*
X248427Y709420D01*
X248593Y709476D01*
X248760Y709527D01*
X248784Y709540D01*
X248809Y709549D01*
X248961Y709636D01*
X249114Y709719D01*
X249135Y709736D01*
X249158Y709750D01*
X249411Y709964D01*
X249678Y710231D01*
X251822Y711119D01*
X254142Y711119D01*
X256286Y710231D01*
X257927Y708591D01*
X258815Y706447D01*
X258815Y704126D01*
X257927Y701983D01*
X256286Y700342D01*
X254800Y699726D01*
X254142Y699454D01*
X251822Y699454D01*
X249678Y700342D01*
X249411Y700609D01*
X249390Y700626D01*
X249373Y700646D01*
X249235Y700753D01*
X249099Y700864D01*
X249076Y700877D01*
X249055Y700893D01*
X248898Y700971D01*
X248744Y701053D01*
X248718Y701060D01*
X248694Y701072D01*
X248525Y701118D01*
X248358Y701167D01*
X248331Y701170D01*
X248305Y701177D01*
X247975Y701204D01*
X238819Y701204D01*
X238793Y701201D01*
X238766Y701203D01*
X238592Y701181D01*
X238418Y701164D01*
X238393Y701156D01*
X238366Y701153D01*
X238201Y701097D01*
X238034Y701046D01*
X238010Y701033D01*
X237985Y701025D01*
X237833Y700937D01*
X237680Y700854D01*
X237659Y700837D01*
X237636Y700824D01*
X237383Y700609D01*
X232508Y695734D01*
X232502Y695727D01*
X232495Y695721D01*
X232375Y695572D01*
X232253Y695423D01*
X232249Y695415D01*
X232243Y695408D01*
X232155Y695237D01*
X232064Y695067D01*
X232062Y695058D01*
X232058Y695050D01*
X232004Y694866D01*
X231949Y694681D01*
X231949Y694672D01*
X231946Y694664D01*
X231931Y694472D01*
X231913Y694280D01*
X231914Y694271D01*
X231913Y694262D01*
X231936Y694073D01*
X231956Y693880D01*
X231959Y693871D01*
X231960Y693862D01*
X232020Y693678D01*
X232078Y693496D01*
X232082Y693488D01*
X232085Y693480D01*
X232180Y693311D01*
X232273Y693144D01*
X232279Y693137D01*
X232283Y693129D01*
X232409Y692983D01*
X232533Y692837D01*
X232540Y692831D01*
X232546Y692824D01*
X232698Y692707D01*
X232849Y692587D01*
X232857Y692583D01*
X232864Y692577D01*
X233036Y692492D01*
X233208Y692405D01*
X233217Y692402D01*
X233225Y692398D01*
X233411Y692348D01*
X233596Y692297D01*
X233605Y692296D01*
X233614Y692294D01*
X233944Y692267D01*
X287342Y692267D01*
X287424Y692275D01*
X287506Y692273D01*
X287624Y692295D01*
X287743Y692306D01*
X287822Y692331D01*
X287902Y692345D01*
X288014Y692389D01*
X288128Y692425D01*
X288200Y692464D01*
X288277Y692494D01*
X288377Y692559D01*
X288482Y692616D01*
X288545Y692669D01*
X288614Y692714D01*
X288699Y692798D01*
X288791Y692874D01*
X288843Y692938D01*
X288901Y692996D01*
X288969Y693095D01*
X289044Y693188D01*
X289081Y693261D01*
X289128Y693329D01*
X289174Y693439D01*
X289229Y693545D01*
X289252Y693624D01*
X289284Y693700D01*
X289307Y693817D01*
X289341Y693932D01*
X289347Y694014D01*
X289364Y694094D01*
X289364Y694214D01*
X289373Y694333D01*
X289364Y694415D01*
X289364Y694497D01*
X289337Y694647D01*
X289326Y694733D01*
X289314Y694772D01*
X289304Y694824D01*
X289159Y695365D01*
X289159Y714137D01*
X312168Y714137D01*
X312186Y714139D01*
X312203Y714137D01*
X312386Y714159D01*
X312569Y714177D01*
X312586Y714182D01*
X312603Y714184D01*
X312778Y714241D01*
X312953Y714295D01*
X312969Y714303D01*
X312986Y714309D01*
X313146Y714399D01*
X313307Y714487D01*
X313321Y714498D01*
X313337Y714507D01*
X313476Y714627D01*
X313617Y714744D01*
X313628Y714758D01*
X313641Y714770D01*
X313754Y714915D01*
X313869Y715058D01*
X313877Y715074D01*
X313888Y715088D01*
X313970Y715253D01*
X314055Y715415D01*
X314059Y715432D01*
X314067Y715449D01*
X314115Y715627D01*
X314166Y715802D01*
X314167Y715820D01*
X314172Y715837D01*
X314199Y716168D01*
X314199Y718201D01*
X314201Y718201D01*
X314201Y716168D01*
X314203Y716150D01*
X314201Y716133D01*
X314223Y715950D01*
X314241Y715767D01*
X314246Y715750D01*
X314248Y715733D01*
X314305Y715558D01*
X314359Y715383D01*
X314367Y715367D01*
X314373Y715350D01*
X314463Y715190D01*
X314551Y715028D01*
X314562Y715015D01*
X314571Y714999D01*
X314691Y714860D01*
X314808Y714719D01*
X314822Y714708D01*
X314834Y714695D01*
X314979Y714582D01*
X315122Y714467D01*
X315138Y714459D01*
X315152Y714448D01*
X315317Y714366D01*
X315479Y714281D01*
X315497Y714276D01*
X315513Y714268D01*
X315691Y714221D01*
X315866Y714170D01*
X315884Y714169D01*
X315901Y714164D01*
X316232Y714137D01*
X339241Y714137D01*
X339241Y695365D01*
X339096Y694824D01*
X339082Y694743D01*
X339059Y694664D01*
X339050Y694544D01*
X339030Y694426D01*
X339033Y694344D01*
X339027Y694262D01*
X339041Y694143D01*
X339045Y694024D01*
X339064Y693944D01*
X339074Y693862D01*
X339111Y693749D01*
X339138Y693632D01*
X339173Y693558D01*
X339198Y693480D01*
X339257Y693375D01*
X339307Y693267D01*
X339356Y693201D01*
X339396Y693129D01*
X339475Y693038D01*
X339545Y692942D01*
X339606Y692886D01*
X339659Y692824D01*
X339754Y692751D01*
X339842Y692670D01*
X339913Y692628D01*
X339978Y692577D01*
X340085Y692524D01*
X340187Y692462D01*
X340264Y692435D01*
X340338Y692398D01*
X340454Y692367D01*
X340566Y692327D01*
X340647Y692315D01*
X340727Y692294D01*
X340879Y692281D01*
X340965Y692269D01*
X341005Y692271D01*
X341058Y692267D01*
X388812Y692267D01*
X390313Y691645D01*
X394530Y687428D01*
X394551Y687411D01*
X394568Y687390D01*
X394706Y687283D01*
X394842Y687173D01*
X394865Y687160D01*
X394886Y687144D01*
X395043Y687066D01*
X395197Y686984D01*
X395223Y686976D01*
X395247Y686964D01*
X395416Y686919D01*
X395583Y686869D01*
X395610Y686867D01*
X395636Y686860D01*
X395966Y686833D01*
X397528Y686833D01*
X399691Y685937D01*
X399704Y685933D01*
X399715Y685927D01*
X399895Y685875D01*
X400076Y685820D01*
X400089Y685819D01*
X400102Y685815D01*
X400290Y685800D01*
X400477Y685782D01*
X400490Y685784D01*
X400504Y685783D01*
X400690Y685804D01*
X400877Y685824D01*
X400890Y685828D01*
X400903Y685829D01*
X401082Y685888D01*
X401262Y685944D01*
X401273Y685950D01*
X401286Y685954D01*
X401450Y686047D01*
X401615Y686137D01*
X401625Y686146D01*
X401637Y686152D01*
X401779Y686275D01*
X401923Y686396D01*
X401931Y686407D01*
X401942Y686415D01*
X402056Y686563D01*
X402174Y686711D01*
X402180Y686723D01*
X402188Y686733D01*
X402272Y686902D01*
X402358Y687069D01*
X402362Y687082D01*
X402368Y687094D01*
X402417Y687277D01*
X402468Y687456D01*
X402469Y687470D01*
X402472Y687483D01*
X402499Y687813D01*
X402499Y797822D01*
X402498Y797830D01*
X402499Y797839D01*
X402478Y798033D01*
X402459Y798222D01*
X402457Y798231D01*
X402456Y798240D01*
X402397Y798424D01*
X402341Y798607D01*
X402337Y798615D01*
X402334Y798623D01*
X402241Y798792D01*
X402149Y798961D01*
X402144Y798968D01*
X402139Y798976D01*
X402015Y799123D01*
X401892Y799270D01*
X401885Y799276D01*
X401879Y799283D01*
X401727Y799403D01*
X401578Y799523D01*
X401570Y799527D01*
X401563Y799532D01*
X401390Y799620D01*
X401221Y799708D01*
X401212Y799711D01*
X401204Y799715D01*
X401018Y799767D01*
X400834Y799820D01*
X400825Y799820D01*
X400816Y799823D01*
X400623Y799837D01*
X400432Y799852D01*
X400424Y799851D01*
X400415Y799852D01*
X400222Y799828D01*
X400033Y799806D01*
X400024Y799803D01*
X400015Y799802D01*
X399833Y799740D01*
X399650Y799681D01*
X399642Y799676D01*
X399634Y799673D01*
X399467Y799577D01*
X399299Y799483D01*
X399292Y799477D01*
X399285Y799473D01*
X399032Y799258D01*
X388747Y788973D01*
X387313Y787539D01*
X385812Y786917D01*
X375188Y786917D01*
X373687Y787539D01*
X365784Y795442D01*
X365774Y795451D01*
X365765Y795461D01*
X365618Y795578D01*
X365473Y795697D01*
X365461Y795703D01*
X365450Y795712D01*
X365282Y795798D01*
X365117Y795886D01*
X365104Y795890D01*
X365092Y795896D01*
X364910Y795947D01*
X364731Y796001D01*
X364718Y796002D01*
X364705Y796005D01*
X364518Y796020D01*
X364330Y796037D01*
X364317Y796035D01*
X364303Y796037D01*
X364119Y796014D01*
X363930Y795994D01*
X363917Y795989D01*
X363904Y795988D01*
X363726Y795929D01*
X363546Y795872D01*
X363534Y795866D01*
X363521Y795861D01*
X363358Y795768D01*
X363194Y795677D01*
X363183Y795669D01*
X363172Y795662D01*
X363030Y795538D01*
X362887Y795417D01*
X362878Y795406D01*
X362868Y795397D01*
X362753Y795248D01*
X362637Y795101D01*
X362631Y795089D01*
X362623Y795078D01*
X362471Y794783D01*
X361945Y793512D01*
X361678Y793245D01*
X361661Y793224D01*
X361640Y793207D01*
X361533Y793069D01*
X361423Y792934D01*
X361410Y792910D01*
X361394Y792889D01*
X361316Y792732D01*
X361234Y792578D01*
X361226Y792552D01*
X361214Y792528D01*
X361169Y792359D01*
X361119Y792192D01*
X361117Y792165D01*
X361110Y792140D01*
X361083Y791809D01*
X361083Y785007D01*
X361085Y784981D01*
X361083Y784954D01*
X361105Y784780D01*
X361123Y784607D01*
X361130Y784581D01*
X361134Y784555D01*
X361189Y784389D01*
X361241Y784222D01*
X361254Y784198D01*
X361262Y784173D01*
X361349Y784021D01*
X361433Y783868D01*
X361450Y783847D01*
X361463Y783824D01*
X361678Y783571D01*
X361945Y783304D01*
X362833Y781160D01*
X362833Y778840D01*
X361945Y776696D01*
X360304Y775055D01*
X359888Y774883D01*
X359887Y774883D01*
X358160Y774167D01*
X355840Y774167D01*
X353696Y775055D01*
X352055Y776696D01*
X351167Y778840D01*
X351167Y781160D01*
X352055Y783304D01*
X352322Y783571D01*
X352339Y783592D01*
X352360Y783609D01*
X352467Y783747D01*
X352577Y783883D01*
X352590Y783906D01*
X352606Y783927D01*
X352684Y784084D01*
X352766Y784238D01*
X352774Y784264D01*
X352786Y784288D01*
X352831Y784457D01*
X352881Y784624D01*
X352883Y784651D01*
X352890Y784677D01*
X352917Y785007D01*
X352917Y791397D01*
X352916Y791406D01*
X352917Y791415D01*
X352896Y791608D01*
X352877Y791798D01*
X352875Y791806D01*
X352874Y791815D01*
X352815Y792000D01*
X352759Y792183D01*
X352755Y792190D01*
X352752Y792199D01*
X352659Y792367D01*
X352567Y792537D01*
X352562Y792544D01*
X352557Y792551D01*
X352433Y792698D01*
X352310Y792846D01*
X352303Y792851D01*
X352297Y792858D01*
X352145Y792978D01*
X351996Y793098D01*
X351988Y793102D01*
X351981Y793108D01*
X351808Y793196D01*
X351639Y793284D01*
X351630Y793286D01*
X351622Y793290D01*
X351436Y793342D01*
X351252Y793395D01*
X351243Y793396D01*
X351234Y793398D01*
X351041Y793412D01*
X350850Y793428D01*
X350842Y793427D01*
X350833Y793428D01*
X350640Y793403D01*
X350451Y793381D01*
X350442Y793378D01*
X350433Y793377D01*
X350251Y793316D01*
X350068Y793256D01*
X350060Y793252D01*
X350052Y793249D01*
X349885Y793153D01*
X349717Y793058D01*
X349710Y793053D01*
X349703Y793048D01*
X349450Y792833D01*
X348073Y791457D01*
X348056Y791436D01*
X348036Y791419D01*
X347929Y791281D01*
X347818Y791146D01*
X347806Y791122D01*
X347789Y791101D01*
X347711Y790944D01*
X347630Y790790D01*
X347622Y790764D01*
X347610Y790740D01*
X347565Y790571D01*
X347515Y790404D01*
X347513Y790377D01*
X347506Y790352D01*
X347478Y790021D01*
X347478Y787584D01*
X346857Y786083D01*
X335313Y774539D01*
X334790Y774322D01*
X334762Y774307D01*
X334732Y774297D01*
X334585Y774212D01*
X334435Y774132D01*
X334411Y774112D01*
X334384Y774096D01*
X334131Y773882D01*
X333304Y773055D01*
X331160Y772167D01*
X328840Y772167D01*
X326696Y773055D01*
X325055Y774696D01*
X324167Y776840D01*
X324167Y779160D01*
X325055Y781304D01*
X325381Y781630D01*
X325393Y781644D01*
X325406Y781655D01*
X325520Y781799D01*
X325636Y781941D01*
X325645Y781957D01*
X325656Y781971D01*
X325739Y782135D01*
X325825Y782297D01*
X325830Y782314D01*
X325838Y782330D01*
X325887Y782506D01*
X325940Y782683D01*
X325941Y782701D01*
X325946Y782718D01*
X325959Y782900D01*
X325976Y783084D01*
X325974Y783102D01*
X325975Y783120D01*
X325953Y783300D01*
X325933Y783484D01*
X325927Y783501D01*
X325925Y783519D01*
X325867Y783693D01*
X325811Y783868D01*
X325803Y783884D01*
X325797Y783901D01*
X325705Y784060D01*
X325616Y784220D01*
X325605Y784234D01*
X325596Y784250D01*
X325381Y784503D01*
X325055Y784828D01*
X324167Y786972D01*
X324167Y788518D01*
X324165Y788536D01*
X324167Y788554D01*
X324146Y788736D01*
X324127Y788919D01*
X324122Y788936D01*
X324120Y788954D01*
X324063Y789128D01*
X324009Y789304D01*
X324001Y789320D01*
X323995Y789337D01*
X323905Y789497D01*
X323817Y789658D01*
X323806Y789672D01*
X323797Y789687D01*
X323677Y789826D01*
X323560Y789967D01*
X323546Y789978D01*
X323534Y789992D01*
X323389Y790104D01*
X323246Y790220D01*
X323230Y790228D01*
X323216Y790239D01*
X323051Y790321D01*
X322889Y790405D01*
X322872Y790410D01*
X322856Y790418D01*
X322677Y790466D01*
X322502Y790516D01*
X322484Y790518D01*
X322467Y790523D01*
X322136Y790550D01*
X292832Y790550D01*
X292819Y790548D01*
X292806Y790549D01*
X292619Y790528D01*
X292432Y790510D01*
X292419Y790506D01*
X292406Y790504D01*
X292227Y790447D01*
X292047Y790392D01*
X292035Y790385D01*
X292022Y790381D01*
X291858Y790290D01*
X291693Y790200D01*
X291682Y790191D01*
X291671Y790185D01*
X291528Y790063D01*
X291383Y789942D01*
X291375Y789932D01*
X291365Y789923D01*
X291249Y789775D01*
X291131Y789628D01*
X291125Y789617D01*
X291117Y789606D01*
X291032Y789437D01*
X290946Y789271D01*
X290942Y789258D01*
X290936Y789246D01*
X290886Y789063D01*
X290834Y788884D01*
X290833Y788871D01*
X290830Y788858D01*
X290817Y788671D01*
X290801Y788483D01*
X290803Y788469D01*
X290802Y788456D01*
X290826Y788270D01*
X290848Y788083D01*
X290852Y788070D01*
X290854Y788057D01*
X290956Y787741D01*
X291004Y787625D01*
X291004Y785304D01*
X290116Y783160D01*
X288475Y781520D01*
X287164Y780976D01*
X286331Y780632D01*
X284011Y780632D01*
X281867Y781520D01*
X281600Y781787D01*
X281579Y781804D01*
X281562Y781824D01*
X281424Y781931D01*
X281289Y782042D01*
X281265Y782054D01*
X281244Y782071D01*
X281087Y782149D01*
X280933Y782230D01*
X280907Y782238D01*
X280883Y782250D01*
X280714Y782296D01*
X280547Y782345D01*
X280520Y782348D01*
X280495Y782355D01*
X280164Y782382D01*
X243564Y782382D01*
X242064Y783003D01*
X236105Y788961D01*
X236085Y788978D01*
X236067Y788999D01*
X235929Y789106D01*
X235794Y789216D01*
X235770Y789229D01*
X235749Y789245D01*
X235592Y789323D01*
X235438Y789405D01*
X235413Y789413D01*
X235389Y789425D01*
X235219Y789470D01*
X235052Y789520D01*
X235026Y789522D01*
X235000Y789529D01*
X234669Y789556D01*
X234291Y789556D01*
X232148Y790444D01*
X230507Y792085D01*
X229619Y794229D01*
X229619Y796559D01*
X229618Y796563D01*
X229619Y796568D01*
X229599Y796762D01*
X229579Y796959D01*
X229578Y796964D01*
X229577Y796968D01*
X229519Y797155D01*
X229461Y797344D01*
X229459Y797348D01*
X229457Y797353D01*
X229362Y797527D01*
X229269Y797698D01*
X229266Y797702D01*
X229264Y797706D01*
X229135Y797859D01*
X229011Y798008D01*
X229008Y798010D01*
X229005Y798014D01*
X228850Y798137D01*
X228698Y798260D01*
X228694Y798262D01*
X228690Y798265D01*
X228510Y798357D01*
X228340Y798446D01*
X228336Y798447D01*
X228332Y798449D01*
X228142Y798503D01*
X227953Y798557D01*
X227949Y798557D01*
X227945Y798558D01*
X227753Y798573D01*
X227552Y798590D01*
X227548Y798589D01*
X227543Y798590D01*
X227349Y798566D01*
X227152Y798543D01*
X227148Y798541D01*
X227143Y798541D01*
X226958Y798480D01*
X226769Y798418D01*
X226765Y798416D01*
X226761Y798414D01*
X226592Y798318D01*
X226419Y798220D01*
X226415Y798217D01*
X226412Y798215D01*
X226265Y798087D01*
X226114Y797957D01*
X226111Y797953D01*
X226108Y797950D01*
X225987Y797794D01*
X225867Y797639D01*
X225865Y797635D01*
X225863Y797631D01*
X225711Y797336D01*
X225007Y795636D01*
X223366Y793996D01*
X221358Y793164D01*
X221222Y793108D01*
X218902Y793108D01*
X216758Y793996D01*
X215117Y795636D01*
X214229Y797780D01*
X214229Y800101D01*
X215117Y802244D01*
X216758Y803885D01*
X217135Y804041D01*
X217139Y804043D01*
X217144Y804045D01*
X217317Y804138D01*
X217490Y804232D01*
X217494Y804234D01*
X217498Y804237D01*
X217648Y804362D01*
X217801Y804488D01*
X217803Y804491D01*
X217807Y804494D01*
X217930Y804647D01*
X218054Y804801D01*
X218056Y804805D01*
X218059Y804808D01*
X218149Y804981D01*
X218241Y805157D01*
X218243Y805162D01*
X218245Y805165D01*
X218298Y805351D01*
X218355Y805543D01*
X218355Y805548D01*
X218356Y805552D01*
X218372Y805749D01*
X218389Y805945D01*
X218389Y805949D01*
X218389Y805954D01*
X218366Y806149D01*
X218344Y806345D01*
X218343Y806349D01*
X218342Y806353D01*
X218281Y806541D01*
X218221Y806728D01*
X218219Y806732D01*
X218217Y806736D01*
X218120Y806909D01*
X218024Y807080D01*
X218022Y807083D01*
X218019Y807087D01*
X217891Y807235D01*
X217763Y807385D01*
X217759Y807388D01*
X217756Y807392D01*
X217603Y807511D01*
X217446Y807634D01*
X217442Y807636D01*
X217438Y807638D01*
X217263Y807725D01*
X217086Y807814D01*
X217082Y807816D01*
X217078Y807818D01*
X216887Y807869D01*
X216698Y807921D01*
X216693Y807921D01*
X216689Y807922D01*
X216568Y807932D01*
X215349Y809151D01*
X215349Y811386D01*
X215347Y811404D01*
X215349Y811422D01*
X215328Y811603D01*
X215309Y811787D01*
X215304Y811804D01*
X215302Y811821D01*
X215245Y811996D01*
X215191Y812172D01*
X215183Y812187D01*
X215177Y812204D01*
X215087Y812364D01*
X214999Y812526D01*
X214988Y812539D01*
X214979Y812555D01*
X214859Y812694D01*
X214742Y812835D01*
X214728Y812846D01*
X214716Y812860D01*
X214571Y812972D01*
X214428Y813087D01*
X214412Y813095D01*
X214398Y813106D01*
X214233Y813188D01*
X214071Y813273D01*
X214054Y813278D01*
X214038Y813286D01*
X213859Y813333D01*
X213684Y813384D01*
X213666Y813386D01*
X213649Y813390D01*
X213318Y813417D01*
X209680Y813417D01*
X209654Y813415D01*
X209627Y813417D01*
X209453Y813395D01*
X209280Y813377D01*
X209254Y813370D01*
X209227Y813366D01*
X209062Y813311D01*
X208895Y813259D01*
X208871Y813246D01*
X208846Y813238D01*
X208694Y813151D01*
X208541Y813067D01*
X208520Y813050D01*
X208497Y813037D01*
X208244Y812822D01*
X207977Y812555D01*
X205833Y811667D01*
X203513Y811667D01*
X201369Y812555D01*
X199728Y814196D01*
X198840Y816340D01*
X198840Y818660D01*
X199728Y820804D01*
X201369Y822445D01*
X203513Y823333D01*
X205833Y823333D01*
X207977Y822445D01*
X208244Y822178D01*
X208265Y822161D01*
X208282Y822140D01*
X208420Y822033D01*
X208555Y821923D01*
X208579Y821910D01*
X208600Y821894D01*
X208757Y821816D01*
X208911Y821734D01*
X208937Y821726D01*
X208961Y821714D01*
X209130Y821669D01*
X209297Y821619D01*
X209324Y821617D01*
X209349Y821610D01*
X209680Y821583D01*
X213318Y821583D01*
X213336Y821585D01*
X213354Y821583D01*
X213536Y821604D01*
X213719Y821623D01*
X213736Y821628D01*
X213753Y821630D01*
X213928Y821687D01*
X214104Y821741D01*
X214119Y821749D01*
X214136Y821755D01*
X214296Y821845D01*
X214458Y821933D01*
X214471Y821944D01*
X214487Y821953D01*
X214626Y822073D01*
X214767Y822190D01*
X214778Y822204D01*
X214792Y822216D01*
X214904Y822361D01*
X215019Y822504D01*
X215027Y822520D01*
X215038Y822534D01*
X215120Y822699D01*
X215205Y822861D01*
X215210Y822878D01*
X215218Y822894D01*
X215265Y823073D01*
X215316Y823248D01*
X215318Y823266D01*
X215322Y823283D01*
X215349Y823614D01*
X215349Y825886D01*
X215347Y825904D01*
X215349Y825922D01*
X215328Y826104D01*
X215309Y826287D01*
X215304Y826304D01*
X215302Y826321D01*
X215245Y826496D01*
X215191Y826672D01*
X215183Y826687D01*
X215177Y826704D01*
X215087Y826864D01*
X214999Y827026D01*
X214988Y827039D01*
X214979Y827055D01*
X214859Y827194D01*
X214742Y827335D01*
X214728Y827346D01*
X214716Y827360D01*
X214571Y827472D01*
X214428Y827587D01*
X214412Y827595D01*
X214398Y827606D01*
X214233Y827688D01*
X214071Y827773D01*
X214054Y827778D01*
X214038Y827786D01*
X213859Y827833D01*
X213684Y827884D01*
X213666Y827886D01*
X213649Y827890D01*
X213318Y827917D01*
X201478Y827917D01*
X201451Y827915D01*
X201424Y827917D01*
X201251Y827895D01*
X201077Y827877D01*
X201052Y827870D01*
X201025Y827866D01*
X200859Y827811D01*
X200692Y827759D01*
X200669Y827746D01*
X200643Y827738D01*
X200492Y827651D01*
X200338Y827567D01*
X200318Y827550D01*
X200294Y827537D01*
X200041Y827322D01*
X199774Y827055D01*
X197631Y826167D01*
X195310Y826167D01*
X193166Y827055D01*
X191526Y828696D01*
X190638Y830840D01*
X190638Y833160D01*
X191526Y835304D01*
X193166Y836945D01*
X195310Y837833D01*
X197631Y837833D01*
X199774Y836945D01*
X200041Y836678D01*
X200062Y836661D01*
X200080Y836640D01*
X200218Y836533D01*
X200353Y836423D01*
X200377Y836410D01*
X200398Y836394D01*
X200555Y836316D01*
X200709Y836234D01*
X200734Y836226D01*
X200758Y836214D01*
X200928Y836169D01*
X201095Y836119D01*
X201121Y836117D01*
X201147Y836110D01*
X201478Y836083D01*
X224895Y836083D01*
X224909Y836084D01*
X224922Y836083D01*
X225109Y836104D01*
X225296Y836123D01*
X225309Y836127D01*
X225322Y836128D01*
X225501Y836186D01*
X225681Y836241D01*
X225693Y836247D01*
X225706Y836251D01*
X225869Y836343D01*
X226035Y836433D01*
X226045Y836441D01*
X226057Y836448D01*
X226200Y836570D01*
X226344Y836690D01*
X226353Y836701D01*
X226363Y836710D01*
X226478Y836857D01*
X226596Y837004D01*
X226603Y837016D01*
X226611Y837027D01*
X226695Y837195D01*
X226782Y837361D01*
X226786Y837374D01*
X226792Y837386D01*
X226841Y837567D01*
X226893Y837748D01*
X226894Y837762D01*
X226898Y837775D01*
X226911Y837961D01*
X226926Y838150D01*
X226925Y838163D01*
X226926Y838176D01*
X226901Y838363D01*
X226879Y838549D01*
X226875Y838562D01*
X226873Y838576D01*
X226850Y838650D01*
X226850Y841024D01*
X227738Y843168D01*
X229378Y844809D01*
X231522Y845697D01*
X233843Y845697D01*
X234590Y845387D01*
X234599Y845385D01*
X234606Y845380D01*
X234790Y845327D01*
X234975Y845271D01*
X234984Y845270D01*
X234993Y845267D01*
X235185Y845251D01*
X235376Y845233D01*
X235385Y845233D01*
X235394Y845233D01*
X235585Y845254D01*
X235777Y845274D01*
X235785Y845277D01*
X235794Y845278D01*
X235977Y845337D01*
X236161Y845394D01*
X236169Y845398D01*
X236177Y845401D01*
X236346Y845495D01*
X236514Y845587D01*
X236521Y845593D01*
X236529Y845597D01*
X236676Y845723D01*
X236822Y845846D01*
X236828Y845853D01*
X236835Y845859D01*
X236953Y846010D01*
X237073Y846161D01*
X237077Y846169D01*
X237083Y846176D01*
X237169Y846347D01*
X237257Y846519D01*
X237260Y846528D01*
X237264Y846536D01*
X237314Y846721D01*
X237367Y846907D01*
X237368Y846916D01*
X237370Y846924D01*
X237383Y847116D01*
X237398Y847308D01*
X237397Y847317D01*
X237398Y847326D01*
X237373Y847516D01*
X237349Y847708D01*
X237347Y847716D01*
X237345Y847725D01*
X237244Y848041D01*
X237229Y848076D01*
X237229Y851924D01*
X238702Y855478D01*
X241422Y858198D01*
X244976Y859671D01*
X248824Y859671D01*
X252378Y858198D01*
X252966Y857610D01*
X252980Y857599D01*
X252992Y857585D01*
X253136Y857471D01*
X253278Y857355D01*
X253294Y857347D01*
X253308Y857336D01*
X253472Y857252D01*
X253634Y857166D01*
X253651Y857161D01*
X253667Y857153D01*
X253844Y857104D01*
X254020Y857052D01*
X254037Y857050D01*
X254054Y857045D01*
X254238Y857032D01*
X254420Y857015D01*
X254438Y857017D01*
X254456Y857016D01*
X254638Y857039D01*
X254821Y857059D01*
X254838Y857064D01*
X254855Y857066D01*
X255029Y857125D01*
X255205Y857180D01*
X255220Y857189D01*
X255237Y857194D01*
X255397Y857286D01*
X255557Y857375D01*
X255570Y857386D01*
X255586Y857395D01*
X255839Y857610D01*
X266256Y868027D01*
X267690Y869461D01*
X269191Y870083D01*
X351812Y870083D01*
X353313Y869461D01*
X354747Y868027D01*
X374346Y848428D01*
X374367Y848411D01*
X374384Y848390D01*
X374522Y848283D01*
X374658Y848173D01*
X374681Y848160D01*
X374702Y848144D01*
X374859Y848066D01*
X375013Y847984D01*
X375039Y847976D01*
X375063Y847964D01*
X375232Y847919D01*
X375399Y847869D01*
X375426Y847867D01*
X375452Y847860D01*
X375783Y847833D01*
X376160Y847833D01*
X378304Y846945D01*
X378962Y846287D01*
X378969Y846281D01*
X378974Y846275D01*
X379124Y846154D01*
X379273Y846032D01*
X379281Y846028D01*
X379288Y846022D01*
X379458Y845934D01*
X379629Y845843D01*
X379638Y845841D01*
X379645Y845837D01*
X379830Y845784D01*
X380015Y845729D01*
X380024Y845728D01*
X380032Y845725D01*
X380223Y845710D01*
X380416Y845692D01*
X380425Y845693D01*
X380434Y845692D01*
X380623Y845715D01*
X380816Y845736D01*
X380825Y845738D01*
X380833Y845739D01*
X381016Y845799D01*
X381200Y845857D01*
X381208Y845861D01*
X381216Y845864D01*
X381384Y845959D01*
X381552Y846052D01*
X381559Y846058D01*
X381567Y846062D01*
X381713Y846188D01*
X381859Y846312D01*
X381865Y846319D01*
X381872Y846325D01*
X381990Y846478D01*
X382109Y846628D01*
X382113Y846636D01*
X382118Y846643D01*
X382204Y846815D01*
X382291Y846987D01*
X382294Y846996D01*
X382298Y847004D01*
X382347Y847189D01*
X382399Y847375D01*
X382400Y847384D01*
X382402Y847393D01*
X382429Y847723D01*
X382429Y848240D01*
X383902Y851794D01*
X386622Y854515D01*
X390176Y855987D01*
X394024Y855987D01*
X397578Y854515D01*
X400298Y851794D01*
X401771Y848240D01*
X401771Y844393D01*
X400298Y840838D01*
X397578Y838118D01*
X395408Y837219D01*
X395404Y837217D01*
X395400Y837215D01*
X395226Y837122D01*
X395053Y837029D01*
X395049Y837026D01*
X395046Y837024D01*
X394897Y836900D01*
X394743Y836772D01*
X394740Y836769D01*
X394736Y836766D01*
X394613Y836613D01*
X394489Y836460D01*
X394487Y836456D01*
X394484Y836452D01*
X394392Y836275D01*
X394302Y836103D01*
X394300Y836099D01*
X394298Y836095D01*
X394243Y835903D01*
X394189Y835717D01*
X394188Y835712D01*
X394187Y835708D01*
X394171Y835510D01*
X394154Y835316D01*
X394155Y835311D01*
X394154Y835307D01*
X394177Y835109D01*
X394199Y834915D01*
X394201Y834911D01*
X394201Y834907D01*
X394263Y834718D01*
X394322Y834532D01*
X394324Y834528D01*
X394326Y834524D01*
X394424Y834350D01*
X394519Y834181D01*
X394522Y834177D01*
X394524Y834173D01*
X394652Y834025D01*
X394781Y833875D01*
X394784Y833872D01*
X394787Y833869D01*
X394939Y833750D01*
X395098Y833627D01*
X395102Y833625D01*
X395105Y833622D01*
X395280Y833535D01*
X395457Y833446D01*
X395461Y833445D01*
X395466Y833443D01*
X395658Y833391D01*
X395846Y833339D01*
X395850Y833339D01*
X395854Y833338D01*
X396185Y833311D01*
X412183Y833311D01*
X412308Y833323D01*
X412435Y833327D01*
X412508Y833343D01*
X412583Y833351D01*
X412704Y833388D01*
X412827Y833416D01*
X412896Y833447D01*
X412968Y833469D01*
X413079Y833529D01*
X413194Y833581D01*
X413256Y833625D01*
X413322Y833661D01*
X413419Y833741D01*
X413522Y833815D01*
X413573Y833870D01*
X413631Y833918D01*
X413710Y834017D01*
X413797Y834109D01*
X413837Y834173D01*
X413884Y834232D01*
X413942Y834344D01*
X414008Y834452D01*
X414035Y834523D01*
X414069Y834590D01*
X414104Y834711D01*
X414148Y834829D01*
X414160Y834904D01*
X414181Y834976D01*
X414191Y835102D01*
X414211Y835227D01*
X414207Y835303D01*
X414214Y835378D01*
X414199Y835503D01*
X414193Y835629D01*
X414175Y835703D01*
X414167Y835778D01*
X414127Y835898D01*
X414097Y836020D01*
X414065Y836089D01*
X414042Y836160D01*
X413980Y836271D01*
X413926Y836385D01*
X413881Y836445D01*
X413844Y836511D01*
X413761Y836607D01*
X413686Y836708D01*
X413630Y836759D01*
X413581Y836816D01*
X413481Y836893D01*
X413387Y836978D01*
X413312Y837024D01*
X413263Y837062D01*
X413197Y837095D01*
X413105Y837152D01*
X412175Y837626D01*
X410881Y838566D01*
X409750Y839697D01*
X408810Y840991D01*
X408084Y842416D01*
X407641Y843777D01*
X416992Y843777D01*
X417010Y843779D01*
X417027Y843777D01*
X417210Y843799D01*
X417392Y843817D01*
X417409Y843822D01*
X417427Y843824D01*
X417505Y843850D01*
X417642Y843810D01*
X417660Y843809D01*
X417677Y843804D01*
X418008Y843777D01*
X427359Y843777D01*
X426916Y842416D01*
X426190Y840991D01*
X425250Y839697D01*
X424119Y838566D01*
X422825Y837626D01*
X421895Y837152D01*
X421789Y837084D01*
X421678Y837024D01*
X421620Y836975D01*
X421556Y836935D01*
X421466Y836847D01*
X421369Y836766D01*
X421321Y836707D01*
X421267Y836655D01*
X421195Y836551D01*
X421116Y836452D01*
X421081Y836385D01*
X421039Y836323D01*
X420989Y836207D01*
X420931Y836095D01*
X420910Y836022D01*
X420880Y835953D01*
X420854Y835829D01*
X420819Y835708D01*
X420813Y835633D01*
X420798Y835559D01*
X420797Y835432D01*
X420786Y835307D01*
X420795Y835232D01*
X420795Y835156D01*
X420819Y835032D01*
X420833Y834907D01*
X420857Y834835D01*
X420871Y834761D01*
X420919Y834644D01*
X420958Y834524D01*
X420995Y834458D01*
X421024Y834388D01*
X421094Y834284D01*
X421156Y834173D01*
X421206Y834116D01*
X421247Y834053D01*
X421337Y833964D01*
X421419Y833869D01*
X421479Y833822D01*
X421532Y833769D01*
X421638Y833699D01*
X421737Y833622D01*
X421805Y833588D01*
X421868Y833547D01*
X421985Y833499D01*
X422098Y833443D01*
X422171Y833423D01*
X422241Y833395D01*
X422365Y833371D01*
X422487Y833338D01*
X422574Y833331D01*
X422636Y833319D01*
X422710Y833320D01*
X422817Y833311D01*
X428696Y833311D01*
X428722Y833314D01*
X428749Y833312D01*
X428923Y833334D01*
X429096Y833351D01*
X429122Y833359D01*
X429148Y833362D01*
X429314Y833418D01*
X429481Y833469D01*
X429505Y833482D01*
X429530Y833490D01*
X429682Y833578D01*
X429835Y833661D01*
X429856Y833678D01*
X429879Y833691D01*
X430132Y833906D01*
X430322Y834096D01*
X430339Y834117D01*
X430360Y834134D01*
X430467Y834272D01*
X430577Y834408D01*
X430590Y834431D01*
X430606Y834452D01*
X430684Y834609D01*
X430766Y834763D01*
X430774Y834789D01*
X430786Y834813D01*
X430831Y834982D01*
X430881Y835149D01*
X430883Y835176D01*
X430890Y835202D01*
X430917Y835533D01*
X430917Y839228D01*
X431539Y840729D01*
X432847Y842038D01*
X432862Y842055D01*
X432879Y842069D01*
X432989Y842211D01*
X433103Y842349D01*
X433113Y842369D01*
X433127Y842386D01*
X433207Y842547D01*
X433291Y842705D01*
X433298Y842726D01*
X433308Y842746D01*
X433355Y842919D01*
X433406Y843091D01*
X433408Y843113D01*
X433414Y843134D01*
X433426Y843312D01*
X433442Y843492D01*
X433440Y843514D01*
X433441Y843536D01*
X433418Y843713D01*
X433399Y843892D01*
X433392Y843913D01*
X433389Y843935D01*
X433288Y844251D01*
X433229Y844393D01*
X433229Y848240D01*
X434702Y851794D01*
X437422Y854515D01*
X440976Y855987D01*
X444824Y855987D01*
X448378Y854515D01*
X451098Y851794D01*
X452571Y848240D01*
X452571Y844393D01*
X451098Y840838D01*
X448378Y838118D01*
X444824Y836645D01*
X441114Y836645D01*
X441096Y836644D01*
X441078Y836645D01*
X440896Y836624D01*
X440713Y836606D01*
X440696Y836600D01*
X440679Y836598D01*
X440504Y836541D01*
X440328Y836487D01*
X440313Y836479D01*
X440296Y836473D01*
X440136Y836383D01*
X439974Y836296D01*
X439961Y836284D01*
X439945Y836275D01*
X439806Y836155D01*
X439665Y836038D01*
X439654Y836024D01*
X439640Y836012D01*
X439528Y835867D01*
X439413Y835724D01*
X439405Y835708D01*
X439394Y835694D01*
X439312Y835529D01*
X439227Y835367D01*
X439222Y835350D01*
X439214Y835334D01*
X439167Y835156D01*
X439116Y834980D01*
X439114Y834962D01*
X439110Y834945D01*
X439083Y834614D01*
X439083Y832188D01*
X438461Y830687D01*
X433541Y825767D01*
X433292Y825664D01*
X432040Y825145D01*
X397072Y825145D01*
X397054Y825144D01*
X397036Y825145D01*
X396854Y825124D01*
X396671Y825106D01*
X396654Y825100D01*
X396637Y825098D01*
X396462Y825041D01*
X396286Y824987D01*
X396271Y824979D01*
X396254Y824973D01*
X396094Y824883D01*
X395932Y824796D01*
X395919Y824784D01*
X395903Y824775D01*
X395764Y824655D01*
X395623Y824538D01*
X395612Y824524D01*
X395598Y824512D01*
X395486Y824367D01*
X395371Y824224D01*
X395363Y824208D01*
X395352Y824194D01*
X395270Y824029D01*
X395185Y823867D01*
X395180Y823850D01*
X395172Y823834D01*
X395125Y823656D01*
X395074Y823480D01*
X395072Y823462D01*
X395068Y823445D01*
X395041Y823114D01*
X395041Y819999D01*
X387968Y819999D01*
X387950Y819997D01*
X387933Y819999D01*
X387750Y819978D01*
X387568Y819959D01*
X387551Y819954D01*
X387533Y819952D01*
X387358Y819895D01*
X387183Y819841D01*
X387167Y819833D01*
X387150Y819827D01*
X386990Y819737D01*
X386829Y819649D01*
X386815Y819638D01*
X386799Y819629D01*
X386660Y819509D01*
X386519Y819392D01*
X386508Y819378D01*
X386495Y819366D01*
X386382Y819221D01*
X386267Y819078D01*
X386259Y819062D01*
X386248Y819048D01*
X386166Y818883D01*
X386152Y818856D01*
X386054Y818801D01*
X385892Y818713D01*
X385879Y818702D01*
X385863Y818693D01*
X385724Y818573D01*
X385583Y818455D01*
X385572Y818442D01*
X385558Y818430D01*
X385446Y818285D01*
X385331Y818142D01*
X385323Y818126D01*
X385312Y818112D01*
X385230Y817947D01*
X385145Y817784D01*
X385140Y817767D01*
X385132Y817751D01*
X385084Y817573D01*
X385034Y817398D01*
X385032Y817380D01*
X385028Y817363D01*
X385001Y817032D01*
X385001Y807459D01*
X383213Y807459D01*
X383200Y807458D01*
X383186Y807459D01*
X383000Y807438D01*
X382813Y807419D01*
X382800Y807415D01*
X382786Y807414D01*
X382608Y807356D01*
X382428Y807301D01*
X382416Y807295D01*
X382403Y807291D01*
X382239Y807199D01*
X382074Y807109D01*
X382063Y807101D01*
X382052Y807094D01*
X381909Y806972D01*
X381764Y806852D01*
X381756Y806841D01*
X381746Y806832D01*
X381630Y806685D01*
X381512Y806538D01*
X381506Y806526D01*
X381498Y806515D01*
X381413Y806347D01*
X381327Y806181D01*
X381323Y806168D01*
X381317Y806156D01*
X381267Y805974D01*
X381215Y805794D01*
X381214Y805780D01*
X381211Y805767D01*
X381198Y805580D01*
X381182Y805392D01*
X381184Y805379D01*
X381183Y805366D01*
X381207Y805179D01*
X381229Y804993D01*
X381233Y804980D01*
X381235Y804966D01*
X381333Y804663D01*
X381333Y802340D01*
X380445Y800196D01*
X378799Y798550D01*
X378793Y798543D01*
X378786Y798538D01*
X378666Y798388D01*
X378544Y798239D01*
X378540Y798231D01*
X378534Y798224D01*
X378446Y798054D01*
X378355Y797883D01*
X378353Y797874D01*
X378349Y797867D01*
X378296Y797682D01*
X378241Y797497D01*
X378240Y797488D01*
X378237Y797480D01*
X378222Y797289D01*
X378204Y797096D01*
X378205Y797087D01*
X378204Y797078D01*
X378227Y796889D01*
X378248Y796696D01*
X378250Y796687D01*
X378251Y796679D01*
X378311Y796497D01*
X378369Y796312D01*
X378373Y796304D01*
X378376Y796296D01*
X378470Y796129D01*
X378564Y795960D01*
X378570Y795953D01*
X378574Y795945D01*
X378699Y795800D01*
X378824Y795653D01*
X378831Y795647D01*
X378837Y795640D01*
X378988Y795524D01*
X379140Y795403D01*
X379148Y795399D01*
X379155Y795394D01*
X379327Y795308D01*
X379499Y795221D01*
X379508Y795218D01*
X379516Y795214D01*
X379702Y795164D01*
X379887Y795113D01*
X379896Y795112D01*
X379905Y795110D01*
X380235Y795083D01*
X382468Y795083D01*
X382494Y795085D01*
X382521Y795083D01*
X382695Y795105D01*
X382868Y795123D01*
X382894Y795130D01*
X382920Y795134D01*
X383086Y795189D01*
X383253Y795241D01*
X383277Y795254D01*
X383302Y795262D01*
X383454Y795349D01*
X383607Y795433D01*
X383628Y795450D01*
X383651Y795463D01*
X383904Y795678D01*
X392218Y803992D01*
X392224Y803999D01*
X392230Y804004D01*
X392351Y804154D01*
X392473Y804303D01*
X392477Y804311D01*
X392483Y804318D01*
X392571Y804488D01*
X392662Y804659D01*
X392664Y804667D01*
X392668Y804675D01*
X392722Y804861D01*
X392776Y805045D01*
X392777Y805054D01*
X392780Y805062D01*
X392795Y805254D01*
X392813Y805446D01*
X392812Y805455D01*
X392812Y805464D01*
X392790Y805653D01*
X392769Y805846D01*
X392767Y805855D01*
X392766Y805863D01*
X392706Y806045D01*
X392648Y806230D01*
X392644Y806238D01*
X392641Y806246D01*
X392546Y806415D01*
X392453Y806582D01*
X392447Y806589D01*
X392443Y806597D01*
X392317Y806743D01*
X392193Y806889D01*
X392185Y806895D01*
X392180Y806902D01*
X392028Y807019D01*
X391877Y807139D01*
X391869Y807143D01*
X391862Y807148D01*
X391689Y807234D01*
X391518Y807321D01*
X391509Y807324D01*
X391501Y807328D01*
X391315Y807378D01*
X391130Y807429D01*
X391121Y807430D01*
X391112Y807432D01*
X390782Y807459D01*
X389999Y807459D01*
X389999Y815001D01*
X395041Y815001D01*
X395041Y811718D01*
X395042Y811710D01*
X395041Y811701D01*
X395062Y811507D01*
X395081Y811318D01*
X395083Y811309D01*
X395084Y811300D01*
X395143Y811116D01*
X395199Y810933D01*
X395203Y810925D01*
X395206Y810917D01*
X395299Y810748D01*
X395391Y810579D01*
X395396Y810572D01*
X395401Y810564D01*
X395525Y810417D01*
X395648Y810270D01*
X395655Y810264D01*
X395661Y810257D01*
X395813Y810137D01*
X395962Y810017D01*
X395970Y810013D01*
X395977Y810008D01*
X396150Y809920D01*
X396319Y809832D01*
X396328Y809829D01*
X396336Y809825D01*
X396522Y809773D01*
X396706Y809720D01*
X396715Y809720D01*
X396724Y809717D01*
X396917Y809703D01*
X397108Y809688D01*
X397116Y809689D01*
X397125Y809688D01*
X397318Y809712D01*
X397507Y809734D01*
X397516Y809737D01*
X397525Y809738D01*
X397707Y809800D01*
X397890Y809859D01*
X397898Y809864D01*
X397906Y809867D01*
X398073Y809962D01*
X398241Y810057D01*
X398248Y810063D01*
X398255Y810067D01*
X398508Y810282D01*
X399069Y810843D01*
X400503Y812277D01*
X401245Y812585D01*
X401265Y812595D01*
X401286Y812602D01*
X401442Y812690D01*
X401600Y812775D01*
X401617Y812789D01*
X401637Y812800D01*
X401773Y812917D01*
X401911Y813031D01*
X401925Y813049D01*
X401942Y813063D01*
X402051Y813204D01*
X402164Y813344D01*
X402175Y813364D01*
X402188Y813381D01*
X402268Y813541D01*
X402351Y813700D01*
X402358Y813722D01*
X402368Y813742D01*
X402414Y813915D01*
X402464Y814087D01*
X402466Y814109D01*
X402472Y814131D01*
X402499Y814461D01*
X402499Y815000D01*
X402500Y815001D01*
X460428Y815001D01*
X460446Y815003D01*
X460464Y815001D01*
X460646Y815022D01*
X460829Y815041D01*
X460846Y815046D01*
X460863Y815048D01*
X461038Y815105D01*
X461214Y815159D01*
X461229Y815167D01*
X461246Y815173D01*
X461406Y815263D01*
X461568Y815351D01*
X461581Y815362D01*
X461597Y815371D01*
X461736Y815491D01*
X461877Y815608D01*
X461888Y815622D01*
X461902Y815634D01*
X462014Y815779D01*
X462129Y815922D01*
X462137Y815938D01*
X462148Y815952D01*
X462230Y816117D01*
X462315Y816279D01*
X462320Y816296D01*
X462328Y816312D01*
X462375Y816491D01*
X462426Y816666D01*
X462428Y816684D01*
X462432Y816701D01*
X462459Y817032D01*
X462459Y894823D01*
X462451Y894910D01*
X462451Y894912D01*
X462451Y894920D01*
X462450Y894934D01*
X462443Y895079D01*
X462124Y897599D01*
X462107Y897671D01*
X462100Y897744D01*
X462053Y897906D01*
X462034Y897992D01*
X462020Y898022D01*
X462008Y898062D01*
X460187Y902877D01*
X460119Y903013D01*
X460057Y903154D01*
X460026Y903199D01*
X460008Y903237D01*
X459955Y903305D01*
X459871Y903428D01*
X456651Y907444D01*
X456544Y907553D01*
X456443Y907668D01*
X456399Y907701D01*
X456370Y907732D01*
X456298Y907780D01*
X456181Y907872D01*
X451878Y910696D01*
X451742Y910766D01*
X451610Y910844D01*
X451558Y910862D01*
X451521Y910882D01*
X451438Y910906D01*
X451298Y910957D01*
X446333Y912313D01*
X446261Y912325D01*
X446190Y912346D01*
X446022Y912365D01*
X445936Y912380D01*
X445903Y912379D01*
X445861Y912384D01*
X443448Y912458D01*
X443420Y912456D01*
X443385Y912459D01*
X443109Y912459D01*
X443067Y912455D01*
X443012Y912457D01*
X441703Y912395D01*
X441563Y912432D01*
X441539Y912434D01*
X441521Y912439D01*
X441442Y912442D01*
X441232Y912459D01*
X206718Y912459D01*
X206558Y912443D01*
X206398Y912434D01*
X206358Y912423D01*
X206317Y912419D01*
X206174Y912375D01*
X204983Y912455D01*
X204926Y912453D01*
X204848Y912459D01*
X203240Y912459D01*
X203097Y912471D01*
X200380Y912474D01*
X200347Y912471D01*
X200313Y912473D01*
X199984Y912436D01*
X191530Y910764D01*
X191434Y910735D01*
X191336Y910716D01*
X191221Y910670D01*
X191145Y910647D01*
X191096Y910621D01*
X191028Y910594D01*
X183294Y906791D01*
X183209Y906738D01*
X183120Y906694D01*
X183020Y906621D01*
X182952Y906579D01*
X182912Y906541D01*
X182853Y906497D01*
X176368Y900822D01*
X176299Y900749D01*
X176224Y900684D01*
X176147Y900587D01*
X176092Y900528D01*
X176064Y900482D01*
X176018Y900424D01*
X171222Y893264D01*
X171175Y893176D01*
X171119Y893093D01*
X171070Y892979D01*
X171032Y892909D01*
X171016Y892856D01*
X170987Y892789D01*
X168208Y884631D01*
X168200Y884599D01*
X168187Y884568D01*
X168117Y884244D01*
X167558Y880040D01*
X167556Y879954D01*
X167541Y879772D01*
X167541Y380000D01*
X167547Y379934D01*
X167547Y379841D01*
X167860Y375863D01*
X167873Y375791D01*
X167877Y375717D01*
X167916Y375552D01*
X167931Y375467D01*
X167943Y375436D01*
X167953Y375395D01*
X170412Y367828D01*
X170473Y367688D01*
X170528Y367545D01*
X170556Y367498D01*
X170573Y367460D01*
X170623Y367389D01*
X170700Y367262D01*
X175376Y360826D01*
X175478Y360712D01*
X175574Y360593D01*
X175616Y360557D01*
X175644Y360525D01*
X175713Y360473D01*
X175826Y360376D01*
X182262Y355700D01*
X182394Y355623D01*
X182522Y355540D01*
X182573Y355518D01*
X182610Y355497D01*
X182691Y355469D01*
X182828Y355412D01*
X190395Y352953D01*
X190466Y352938D01*
X190535Y352913D01*
X190703Y352886D01*
X190788Y352867D01*
X190821Y352867D01*
X190863Y352860D01*
X194841Y352547D01*
X194907Y352548D01*
X195000Y352541D01*
X210655Y352541D01*
X210664Y352542D01*
G37*
G36*
X265066Y352547D02*
X265066Y352547D01*
X265159Y352547D01*
X267573Y352737D01*
X267645Y352750D01*
X267718Y352754D01*
X267883Y352793D01*
X267969Y352808D01*
X268000Y352820D01*
X268041Y352830D01*
X272632Y354322D01*
X272772Y354383D01*
X272915Y354438D01*
X272962Y354466D01*
X273001Y354483D01*
X273071Y354533D01*
X273198Y354610D01*
X277103Y357447D01*
X277217Y357549D01*
X277336Y357645D01*
X277372Y357687D01*
X277404Y357715D01*
X277456Y357784D01*
X277553Y357897D01*
X280390Y361802D01*
X280467Y361934D01*
X280550Y362062D01*
X280572Y362113D01*
X280593Y362149D01*
X280621Y362231D01*
X280678Y362368D01*
X282170Y366959D01*
X282186Y367031D01*
X282210Y367100D01*
X282237Y367267D01*
X282256Y367352D01*
X282256Y367385D01*
X282263Y367427D01*
X282453Y369841D01*
X282452Y369907D01*
X282459Y370000D01*
X282459Y426052D01*
X283948Y427541D01*
X435000Y427541D01*
X435066Y427547D01*
X435159Y427547D01*
X439137Y427860D01*
X439209Y427873D01*
X439283Y427877D01*
X439448Y427916D01*
X439533Y427931D01*
X439564Y427943D01*
X439605Y427953D01*
X447172Y430412D01*
X447312Y430473D01*
X447455Y430528D01*
X447502Y430556D01*
X447540Y430573D01*
X447611Y430623D01*
X447738Y430700D01*
X454174Y435376D01*
X454288Y435478D01*
X454407Y435574D01*
X454443Y435616D01*
X454475Y435644D01*
X454527Y435713D01*
X454624Y435826D01*
X459300Y442262D01*
X459377Y442394D01*
X459460Y442522D01*
X459482Y442573D01*
X459503Y442610D01*
X459531Y442691D01*
X459588Y442828D01*
X462047Y450395D01*
X462062Y450466D01*
X462087Y450535D01*
X462114Y450703D01*
X462133Y450788D01*
X462133Y450821D01*
X462140Y450863D01*
X462453Y454841D01*
X462452Y454907D01*
X462459Y455000D01*
X462459Y632968D01*
X462457Y632986D01*
X462459Y633004D01*
X462438Y633186D01*
X462419Y633369D01*
X462414Y633386D01*
X462412Y633403D01*
X462355Y633578D01*
X462301Y633754D01*
X462293Y633769D01*
X462287Y633786D01*
X462197Y633946D01*
X462109Y634108D01*
X462098Y634121D01*
X462089Y634137D01*
X461969Y634276D01*
X461852Y634417D01*
X461838Y634428D01*
X461826Y634442D01*
X461681Y634554D01*
X461538Y634669D01*
X461522Y634677D01*
X461508Y634688D01*
X461343Y634770D01*
X461181Y634855D01*
X461164Y634860D01*
X461148Y634868D01*
X460969Y634915D01*
X460794Y634966D01*
X460776Y634968D01*
X460759Y634972D01*
X460428Y634999D01*
X447888Y634999D01*
X447875Y634998D01*
X447862Y634999D01*
X447675Y634978D01*
X447488Y634959D01*
X447475Y634955D01*
X447462Y634954D01*
X447282Y634896D01*
X447103Y634841D01*
X447091Y634835D01*
X447078Y634831D01*
X446914Y634739D01*
X446749Y634649D01*
X446739Y634641D01*
X446727Y634634D01*
X446584Y634512D01*
X446440Y634392D01*
X446431Y634381D01*
X446421Y634373D01*
X446305Y634225D01*
X446187Y634078D01*
X446181Y634066D01*
X446173Y634056D01*
X446088Y633887D01*
X446002Y633721D01*
X445998Y633708D01*
X445992Y633696D01*
X445942Y633515D01*
X445890Y633334D01*
X445889Y633320D01*
X445886Y633307D01*
X445873Y633119D01*
X445857Y632932D01*
X445859Y632919D01*
X445858Y632906D01*
X445883Y632718D01*
X445904Y632533D01*
X445908Y632520D01*
X445910Y632507D01*
X446012Y632191D01*
X446569Y630846D01*
X446583Y630819D01*
X446593Y630789D01*
X446678Y630641D01*
X446759Y630491D01*
X446779Y630467D01*
X446794Y630440D01*
X447009Y630187D01*
X453545Y623651D01*
X453546Y623651D01*
X456086Y621111D01*
X456086Y518889D01*
X453545Y516349D01*
X450957Y513761D01*
X450938Y513737D01*
X450914Y513717D01*
X450810Y513581D01*
X450702Y513450D01*
X450688Y513422D01*
X450669Y513397D01*
X450517Y513102D01*
X449910Y511636D01*
X448761Y510487D01*
X447261Y509866D01*
X397069Y509866D01*
X397043Y509863D01*
X397016Y509865D01*
X396842Y509843D01*
X396669Y509826D01*
X396643Y509818D01*
X396616Y509815D01*
X396451Y509759D01*
X396284Y509708D01*
X396260Y509695D01*
X396235Y509687D01*
X396083Y509599D01*
X395930Y509516D01*
X395909Y509499D01*
X395886Y509486D01*
X395633Y509271D01*
X395266Y508904D01*
X395249Y508883D01*
X395228Y508866D01*
X395121Y508728D01*
X395011Y508592D01*
X394998Y508569D01*
X394982Y508548D01*
X394904Y508391D01*
X394822Y508237D01*
X394814Y508211D01*
X394802Y508187D01*
X394757Y508018D01*
X394707Y507851D01*
X394705Y507824D01*
X394698Y507798D01*
X394671Y507467D01*
X394671Y499443D01*
X394673Y499421D01*
X394671Y499398D01*
X394693Y499221D01*
X394711Y499042D01*
X394717Y499021D01*
X394720Y498999D01*
X394776Y498829D01*
X394829Y498657D01*
X394839Y498638D01*
X394846Y498616D01*
X394935Y498461D01*
X395021Y498303D01*
X395035Y498286D01*
X395046Y498267D01*
X395164Y498131D01*
X395278Y497994D01*
X395296Y497980D01*
X395310Y497963D01*
X395453Y497854D01*
X395592Y497742D01*
X395612Y497731D01*
X395630Y497718D01*
X395906Y497576D01*
X397550Y495932D01*
X398438Y493788D01*
X398438Y491467D01*
X397550Y489324D01*
X395910Y487683D01*
X393766Y486795D01*
X391445Y486795D01*
X390575Y487155D01*
X390562Y487159D01*
X390550Y487165D01*
X390370Y487218D01*
X390190Y487272D01*
X390176Y487273D01*
X390163Y487277D01*
X389975Y487292D01*
X389789Y487310D01*
X389776Y487309D01*
X389762Y487310D01*
X389576Y487288D01*
X389388Y487268D01*
X389376Y487264D01*
X389362Y487263D01*
X389184Y487205D01*
X389004Y487149D01*
X388992Y487142D01*
X388980Y487138D01*
X388816Y487046D01*
X388651Y486955D01*
X388641Y486947D01*
X388629Y486940D01*
X388487Y486817D01*
X388343Y486696D01*
X388334Y486686D01*
X388324Y486677D01*
X388209Y486529D01*
X388092Y486381D01*
X388086Y486369D01*
X388077Y486359D01*
X387994Y486191D01*
X387908Y486023D01*
X387904Y486010D01*
X387898Y485998D01*
X387849Y485816D01*
X387798Y485636D01*
X387797Y485623D01*
X387794Y485610D01*
X387767Y485279D01*
X387767Y457872D01*
X387145Y456371D01*
X385711Y454937D01*
X383891Y453117D01*
X383877Y453100D01*
X383860Y453085D01*
X383749Y452944D01*
X383636Y452806D01*
X383625Y452786D01*
X383612Y452768D01*
X383531Y452607D01*
X383447Y452450D01*
X383441Y452429D01*
X383431Y452409D01*
X383383Y452235D01*
X383332Y452064D01*
X383330Y452042D01*
X383325Y452020D01*
X383312Y451841D01*
X383296Y451663D01*
X383298Y451641D01*
X383297Y451619D01*
X383320Y451441D01*
X383339Y451263D01*
X383346Y451241D01*
X383349Y451219D01*
X383451Y450903D01*
X384609Y448107D01*
X384609Y444260D01*
X383136Y440706D01*
X380416Y437985D01*
X376862Y436513D01*
X373014Y436513D01*
X369460Y437985D01*
X366740Y440706D01*
X365267Y444260D01*
X365267Y448107D01*
X366740Y451662D01*
X369460Y454382D01*
X373014Y455855D01*
X374239Y455855D01*
X374266Y455857D01*
X374293Y455855D01*
X374467Y455877D01*
X374640Y455894D01*
X374665Y455902D01*
X374692Y455906D01*
X374858Y455961D01*
X375025Y456013D01*
X375048Y456025D01*
X375074Y456034D01*
X375225Y456121D01*
X375379Y456204D01*
X375399Y456221D01*
X375423Y456235D01*
X375676Y456449D01*
X379006Y459780D01*
X379023Y459801D01*
X379043Y459818D01*
X379150Y459956D01*
X379261Y460091D01*
X379274Y460115D01*
X379290Y460136D01*
X379368Y460293D01*
X379450Y460447D01*
X379457Y460473D01*
X379469Y460497D01*
X379515Y460666D01*
X379565Y460833D01*
X379567Y460860D01*
X379574Y460886D01*
X379601Y461216D01*
X379601Y483645D01*
X379600Y483654D01*
X379601Y483663D01*
X379580Y483853D01*
X379561Y484045D01*
X379559Y484054D01*
X379558Y484063D01*
X379500Y484246D01*
X379443Y484430D01*
X379439Y484438D01*
X379436Y484447D01*
X379343Y484615D01*
X379251Y484784D01*
X379246Y484791D01*
X379241Y484799D01*
X379116Y484946D01*
X378993Y485094D01*
X378986Y485099D01*
X378981Y485106D01*
X378829Y485226D01*
X378680Y485346D01*
X378672Y485350D01*
X378665Y485356D01*
X378491Y485444D01*
X378322Y485531D01*
X378314Y485534D01*
X378306Y485538D01*
X378120Y485590D01*
X377936Y485643D01*
X377926Y485644D01*
X377918Y485646D01*
X377726Y485660D01*
X377534Y485676D01*
X377525Y485675D01*
X377516Y485675D01*
X377324Y485651D01*
X377134Y485629D01*
X377126Y485626D01*
X377117Y485625D01*
X376935Y485564D01*
X376752Y485504D01*
X376744Y485499D01*
X376735Y485497D01*
X376569Y485401D01*
X376401Y485306D01*
X376394Y485300D01*
X376386Y485296D01*
X376133Y485081D01*
X376076Y485024D01*
X374604Y484414D01*
X373933Y484136D01*
X371612Y484136D01*
X369468Y485024D01*
X369201Y485291D01*
X369181Y485308D01*
X369163Y485328D01*
X369025Y485435D01*
X368890Y485546D01*
X368866Y485559D01*
X368845Y485575D01*
X368688Y485653D01*
X368534Y485735D01*
X368509Y485742D01*
X368485Y485754D01*
X368315Y485800D01*
X368148Y485849D01*
X368122Y485852D01*
X368096Y485859D01*
X367765Y485886D01*
X364651Y485886D01*
X364624Y485883D01*
X364597Y485885D01*
X364424Y485863D01*
X364250Y485846D01*
X364225Y485838D01*
X364198Y485835D01*
X364032Y485779D01*
X363865Y485728D01*
X363842Y485715D01*
X363816Y485707D01*
X363665Y485619D01*
X363511Y485536D01*
X363491Y485519D01*
X363467Y485506D01*
X363214Y485291D01*
X332397Y454474D01*
X332386Y454460D01*
X332372Y454448D01*
X332258Y454304D01*
X332142Y454162D01*
X332134Y454146D01*
X332123Y454132D01*
X332039Y453968D01*
X331953Y453807D01*
X331948Y453790D01*
X331940Y453774D01*
X331891Y453596D01*
X331839Y453421D01*
X331837Y453403D01*
X331832Y453386D01*
X331819Y453202D01*
X331802Y453020D01*
X331804Y453002D01*
X331803Y452984D01*
X331826Y452802D01*
X331846Y452619D01*
X331851Y452602D01*
X331853Y452585D01*
X331912Y452411D01*
X331967Y452236D01*
X331976Y452220D01*
X331982Y452203D01*
X332073Y452043D01*
X332162Y451883D01*
X332173Y451870D01*
X332182Y451854D01*
X332328Y451683D01*
X333809Y448107D01*
X333809Y444260D01*
X332336Y440706D01*
X329616Y437985D01*
X326062Y436513D01*
X322214Y436513D01*
X318660Y437985D01*
X315940Y440706D01*
X314467Y444260D01*
X314467Y448107D01*
X315940Y451662D01*
X318660Y454382D01*
X321868Y455711D01*
X321896Y455726D01*
X321925Y455736D01*
X322073Y455821D01*
X322223Y455901D01*
X322247Y455921D01*
X322274Y455937D01*
X322527Y456151D01*
X359494Y493119D01*
X359497Y493122D01*
X359501Y493125D01*
X359624Y493277D01*
X359750Y493430D01*
X359752Y493434D01*
X359754Y493438D01*
X359847Y493614D01*
X359938Y493786D01*
X359939Y493790D01*
X359942Y493794D01*
X359998Y493987D01*
X360053Y494172D01*
X360053Y494176D01*
X360055Y494181D01*
X360071Y494374D01*
X360089Y494573D01*
X360089Y494577D01*
X360089Y494582D01*
X360068Y494771D01*
X360046Y494973D01*
X360045Y494977D01*
X360044Y494982D01*
X359986Y495164D01*
X359924Y495357D01*
X359922Y495361D01*
X359921Y495365D01*
X359824Y495539D01*
X359730Y495709D01*
X359727Y495713D01*
X359725Y495717D01*
X359598Y495865D01*
X359469Y496016D01*
X359466Y496019D01*
X359463Y496022D01*
X359309Y496142D01*
X359153Y496266D01*
X359149Y496268D01*
X359146Y496271D01*
X358972Y496358D01*
X358794Y496448D01*
X358790Y496449D01*
X358786Y496451D01*
X358599Y496503D01*
X358406Y496556D01*
X358402Y496557D01*
X358398Y496558D01*
X358202Y496571D01*
X358005Y496586D01*
X358000Y496585D01*
X357996Y496585D01*
X357800Y496560D01*
X357605Y496535D01*
X357601Y496534D01*
X357597Y496533D01*
X357281Y496432D01*
X356176Y495974D01*
X355143Y495974D01*
X355117Y495971D01*
X355090Y495973D01*
X354916Y495951D01*
X354743Y495934D01*
X354717Y495926D01*
X354691Y495923D01*
X354525Y495867D01*
X354358Y495816D01*
X354334Y495803D01*
X354309Y495795D01*
X354157Y495707D01*
X354004Y495624D01*
X353983Y495607D01*
X353960Y495594D01*
X353707Y495379D01*
X308790Y450462D01*
X308776Y450445D01*
X308759Y450431D01*
X308649Y450290D01*
X308535Y450151D01*
X308525Y450131D01*
X308511Y450114D01*
X308431Y449953D01*
X308347Y449795D01*
X308340Y449774D01*
X308330Y449754D01*
X308283Y449581D01*
X308232Y449409D01*
X308230Y449387D01*
X308224Y449366D01*
X308212Y449188D01*
X308196Y449008D01*
X308198Y448986D01*
X308197Y448964D01*
X308220Y448788D01*
X308239Y448608D01*
X308246Y448587D01*
X308249Y448565D01*
X308350Y448249D01*
X308409Y448107D01*
X308409Y444260D01*
X306936Y440706D01*
X304216Y437985D01*
X300662Y436513D01*
X296814Y436513D01*
X293260Y437985D01*
X290540Y440706D01*
X289067Y444260D01*
X289067Y448107D01*
X290540Y451662D01*
X293260Y454382D01*
X296814Y455855D01*
X300662Y455855D01*
X300803Y455796D01*
X300824Y455790D01*
X300844Y455779D01*
X301017Y455731D01*
X301188Y455680D01*
X301210Y455677D01*
X301232Y455671D01*
X301412Y455658D01*
X301589Y455641D01*
X301611Y455644D01*
X301634Y455642D01*
X301812Y455665D01*
X301990Y455683D01*
X302011Y455690D01*
X302033Y455692D01*
X302202Y455749D01*
X302374Y455803D01*
X302394Y455814D01*
X302415Y455821D01*
X302570Y455910D01*
X302727Y455996D01*
X302744Y456010D01*
X302764Y456022D01*
X303017Y456236D01*
X348588Y501807D01*
X348605Y501828D01*
X348625Y501846D01*
X348732Y501984D01*
X348843Y502119D01*
X348855Y502143D01*
X348872Y502164D01*
X348950Y502321D01*
X349031Y502475D01*
X349039Y502500D01*
X349051Y502524D01*
X349097Y502694D01*
X349146Y502861D01*
X349148Y502884D01*
X349580Y503925D01*
X349583Y503938D01*
X349590Y503950D01*
X349642Y504130D01*
X349696Y504310D01*
X349697Y504323D01*
X349701Y504336D01*
X349716Y504525D01*
X349734Y504711D01*
X349733Y504724D01*
X349734Y504738D01*
X349712Y504924D01*
X349692Y505112D01*
X349688Y505124D01*
X349687Y505138D01*
X349629Y505316D01*
X349573Y505496D01*
X349566Y505508D01*
X349562Y505520D01*
X349470Y505683D01*
X349379Y505849D01*
X349371Y505859D01*
X349364Y505871D01*
X349241Y506013D01*
X349120Y506157D01*
X349110Y506166D01*
X349101Y506176D01*
X348953Y506290D01*
X348805Y506408D01*
X348793Y506414D01*
X348783Y506423D01*
X348615Y506506D01*
X348447Y506592D01*
X348434Y506596D01*
X348422Y506602D01*
X348240Y506651D01*
X348060Y506702D01*
X348047Y506703D01*
X348034Y506706D01*
X347703Y506733D01*
X326349Y506733D01*
X326322Y506731D01*
X326295Y506733D01*
X326121Y506711D01*
X325948Y506694D01*
X325923Y506686D01*
X325896Y506682D01*
X325730Y506627D01*
X325563Y506575D01*
X325540Y506563D01*
X325514Y506554D01*
X325363Y506467D01*
X325209Y506384D01*
X325189Y506367D01*
X325165Y506353D01*
X324912Y506139D01*
X307656Y488882D01*
X307639Y488861D01*
X307619Y488844D01*
X307512Y488706D01*
X307401Y488570D01*
X307388Y488547D01*
X307372Y488526D01*
X307294Y488369D01*
X307212Y488215D01*
X307205Y488189D01*
X307193Y488165D01*
X307147Y487996D01*
X307097Y487829D01*
X307095Y487802D01*
X307088Y487776D01*
X307061Y487446D01*
X307061Y475001D01*
X306439Y473500D01*
X281714Y448775D01*
X281697Y448755D01*
X281677Y448737D01*
X281570Y448599D01*
X281459Y448464D01*
X281447Y448440D01*
X281430Y448419D01*
X281352Y448262D01*
X281271Y448108D01*
X281263Y448083D01*
X281251Y448058D01*
X281205Y447889D01*
X281156Y447722D01*
X281153Y447696D01*
X281146Y447670D01*
X281119Y447339D01*
X281119Y446759D01*
X280231Y444615D01*
X278591Y442974D01*
X276447Y442086D01*
X275940Y442086D01*
X275932Y442085D01*
X275923Y442086D01*
X275731Y442065D01*
X275540Y442046D01*
X275531Y442044D01*
X275522Y442043D01*
X275340Y441985D01*
X275155Y441928D01*
X275147Y441924D01*
X275139Y441921D01*
X274970Y441828D01*
X274801Y441737D01*
X274794Y441731D01*
X274786Y441726D01*
X274638Y441601D01*
X274492Y441479D01*
X274486Y441472D01*
X274479Y441466D01*
X274359Y441314D01*
X274239Y441165D01*
X274235Y441157D01*
X274230Y441150D01*
X274142Y440977D01*
X274054Y440808D01*
X274051Y440799D01*
X274047Y440791D01*
X273996Y440606D01*
X273942Y440421D01*
X273942Y440412D01*
X273939Y440403D01*
X273925Y440211D01*
X273910Y440020D01*
X273911Y440011D01*
X273910Y440002D01*
X273934Y439811D01*
X273956Y439620D01*
X273959Y439611D01*
X273960Y439602D01*
X274021Y439421D01*
X274081Y439237D01*
X274086Y439229D01*
X274089Y439221D01*
X274185Y439053D01*
X274279Y438886D01*
X274285Y438879D01*
X274289Y438872D01*
X274504Y438619D01*
X274933Y438190D01*
X274933Y370240D01*
X274936Y370209D01*
X274933Y370177D01*
X274956Y370008D01*
X274972Y369839D01*
X274982Y369809D01*
X274986Y369778D01*
X275087Y369462D01*
X275695Y367996D01*
X275695Y366372D01*
X275073Y364871D01*
X273924Y363723D01*
X272424Y363101D01*
X244384Y363101D01*
X244362Y363099D01*
X244340Y363101D01*
X244162Y363079D01*
X243983Y363061D01*
X243962Y363055D01*
X243940Y363052D01*
X243769Y362995D01*
X243598Y362943D01*
X243579Y362932D01*
X243558Y362925D01*
X243402Y362836D01*
X243244Y362751D01*
X243227Y362737D01*
X243208Y362726D01*
X243072Y362608D01*
X242935Y362493D01*
X242921Y362476D01*
X242904Y362461D01*
X242795Y362319D01*
X242683Y362180D01*
X242673Y362160D01*
X242659Y362142D01*
X242507Y361847D01*
X242445Y361696D01*
X240804Y360055D01*
X238660Y359167D01*
X236340Y359167D01*
X234196Y360055D01*
X233018Y361233D01*
X233011Y361239D01*
X233006Y361245D01*
X232855Y361367D01*
X232707Y361488D01*
X232699Y361492D01*
X232692Y361498D01*
X232522Y361586D01*
X232351Y361677D01*
X232342Y361679D01*
X232335Y361683D01*
X232150Y361736D01*
X231965Y361791D01*
X231956Y361792D01*
X231948Y361795D01*
X231757Y361810D01*
X231564Y361828D01*
X231555Y361827D01*
X231546Y361828D01*
X231357Y361805D01*
X231164Y361784D01*
X231155Y361782D01*
X231147Y361781D01*
X230965Y361721D01*
X230780Y361663D01*
X230772Y361659D01*
X230764Y361656D01*
X230597Y361562D01*
X230428Y361468D01*
X230421Y361462D01*
X230413Y361458D01*
X230268Y361333D01*
X230121Y361208D01*
X230115Y361201D01*
X230108Y361195D01*
X229992Y361044D01*
X229871Y360892D01*
X229867Y360884D01*
X229862Y360877D01*
X229777Y360706D01*
X229689Y360533D01*
X229686Y360524D01*
X229682Y360516D01*
X229633Y360331D01*
X229581Y360145D01*
X229580Y360136D01*
X229578Y360127D01*
X229551Y359797D01*
X229551Y357651D01*
X227908Y356008D01*
X227903Y356001D01*
X227896Y355996D01*
X227776Y355846D01*
X227653Y355697D01*
X227649Y355689D01*
X227644Y355682D01*
X227555Y355512D01*
X227465Y355341D01*
X227462Y355332D01*
X227458Y355325D01*
X227405Y355140D01*
X227350Y354955D01*
X227349Y354946D01*
X227347Y354938D01*
X227331Y354747D01*
X227314Y354554D01*
X227315Y354545D01*
X227314Y354536D01*
X227336Y354347D01*
X227357Y354154D01*
X227360Y354145D01*
X227361Y354137D01*
X227420Y353955D01*
X227478Y353770D01*
X227483Y353762D01*
X227486Y353754D01*
X227581Y353585D01*
X227673Y353418D01*
X227679Y353411D01*
X227683Y353403D01*
X227809Y353257D01*
X227934Y353111D01*
X227941Y353105D01*
X227947Y353098D01*
X228098Y352981D01*
X228250Y352861D01*
X228258Y352857D01*
X228265Y352852D01*
X228437Y352766D01*
X228609Y352679D01*
X228617Y352676D01*
X228625Y352672D01*
X228811Y352622D01*
X228997Y352571D01*
X229005Y352570D01*
X229014Y352568D01*
X229345Y352541D01*
X265000Y352541D01*
X265066Y352547D01*
G37*
G36*
X367310Y514901D02*
X367310Y514901D01*
X367332Y514899D01*
X367509Y514921D01*
X367688Y514939D01*
X367710Y514945D01*
X367732Y514948D01*
X367902Y515004D01*
X368073Y515057D01*
X368093Y515068D01*
X368114Y515075D01*
X368270Y515164D01*
X368427Y515249D01*
X368444Y515263D01*
X368464Y515274D01*
X368599Y515392D01*
X368736Y515506D01*
X368750Y515524D01*
X368767Y515539D01*
X368877Y515681D01*
X368989Y515820D01*
X368999Y515840D01*
X369013Y515858D01*
X369164Y516153D01*
X370055Y518304D01*
X371696Y519945D01*
X373840Y520833D01*
X376160Y520833D01*
X378304Y519945D01*
X379638Y518611D01*
X379652Y518600D01*
X379663Y518586D01*
X379808Y518471D01*
X379950Y518356D01*
X379965Y518347D01*
X379979Y518336D01*
X380143Y518253D01*
X380305Y518167D01*
X380322Y518162D01*
X380338Y518154D01*
X380515Y518105D01*
X380691Y518052D01*
X380709Y518051D01*
X380726Y518046D01*
X380909Y518032D01*
X381092Y518016D01*
X381110Y518018D01*
X381128Y518016D01*
X381310Y518039D01*
X381492Y518059D01*
X381509Y518065D01*
X381527Y518067D01*
X381701Y518125D01*
X381876Y518181D01*
X381892Y518189D01*
X381909Y518195D01*
X382068Y518287D01*
X382229Y518376D01*
X382242Y518387D01*
X382258Y518396D01*
X382511Y518611D01*
X399844Y535944D01*
X399861Y535965D01*
X399882Y535983D01*
X399989Y536121D01*
X400099Y536256D01*
X400112Y536280D01*
X400128Y536301D01*
X400206Y536458D01*
X400288Y536612D01*
X400293Y536629D01*
X400295Y536632D01*
X400297Y536640D01*
X400308Y536661D01*
X400353Y536831D01*
X400403Y536998D01*
X400404Y537012D01*
X400406Y537019D01*
X400407Y537031D01*
X400412Y537050D01*
X400439Y537381D01*
X400439Y538886D01*
X400437Y538904D01*
X400439Y538922D01*
X400418Y539104D01*
X400399Y539287D01*
X400394Y539304D01*
X400392Y539321D01*
X400335Y539496D01*
X400281Y539672D01*
X400273Y539687D01*
X400267Y539704D01*
X400177Y539864D01*
X400089Y540026D01*
X400078Y540039D01*
X400069Y540055D01*
X399949Y540194D01*
X399832Y540335D01*
X399818Y540346D01*
X399806Y540360D01*
X399661Y540472D01*
X399518Y540587D01*
X399502Y540595D01*
X399488Y540606D01*
X399323Y540688D01*
X399161Y540773D01*
X399144Y540778D01*
X399128Y540786D01*
X398949Y540833D01*
X398774Y540884D01*
X398756Y540886D01*
X398739Y540890D01*
X398408Y540917D01*
X366770Y540917D01*
X366752Y540915D01*
X366734Y540917D01*
X366552Y540896D01*
X366369Y540877D01*
X366352Y540872D01*
X366335Y540870D01*
X366160Y540813D01*
X365984Y540759D01*
X365969Y540751D01*
X365952Y540745D01*
X365792Y540655D01*
X365630Y540567D01*
X365617Y540556D01*
X365601Y540547D01*
X365462Y540427D01*
X365321Y540310D01*
X365310Y540296D01*
X365296Y540284D01*
X365184Y540139D01*
X365069Y539996D01*
X365061Y539980D01*
X365050Y539966D01*
X364968Y539801D01*
X364883Y539639D01*
X364878Y539622D01*
X364870Y539606D01*
X364823Y539427D01*
X364772Y539252D01*
X364770Y539234D01*
X364766Y539217D01*
X364739Y538886D01*
X364739Y538055D01*
X363537Y536853D01*
X339487Y536853D01*
X338285Y538055D01*
X338285Y551945D01*
X339487Y553147D01*
X363537Y553147D01*
X364739Y551945D01*
X364739Y551114D01*
X364741Y551096D01*
X364739Y551078D01*
X364760Y550896D01*
X364779Y550713D01*
X364784Y550696D01*
X364786Y550679D01*
X364843Y550504D01*
X364897Y550328D01*
X364905Y550313D01*
X364911Y550296D01*
X365001Y550136D01*
X365089Y549974D01*
X365100Y549961D01*
X365109Y549945D01*
X365229Y549806D01*
X365346Y549665D01*
X365360Y549654D01*
X365372Y549640D01*
X365517Y549528D01*
X365660Y549413D01*
X365676Y549405D01*
X365690Y549394D01*
X365855Y549312D01*
X366017Y549227D01*
X366034Y549222D01*
X366050Y549214D01*
X366229Y549167D01*
X366404Y549116D01*
X366422Y549114D01*
X366439Y549110D01*
X366770Y549083D01*
X398408Y549083D01*
X398426Y549085D01*
X398444Y549083D01*
X398626Y549104D01*
X398809Y549123D01*
X398826Y549128D01*
X398843Y549130D01*
X399018Y549187D01*
X399194Y549241D01*
X399209Y549249D01*
X399226Y549255D01*
X399386Y549345D01*
X399548Y549433D01*
X399561Y549444D01*
X399577Y549453D01*
X399716Y549573D01*
X399857Y549690D01*
X399868Y549704D01*
X399882Y549716D01*
X399994Y549861D01*
X400109Y550004D01*
X400117Y550020D01*
X400128Y550034D01*
X400210Y550199D01*
X400295Y550361D01*
X400300Y550378D01*
X400308Y550394D01*
X400355Y550573D01*
X400406Y550748D01*
X400408Y550766D01*
X400412Y550783D01*
X400439Y551114D01*
X400439Y551436D01*
X400437Y551462D01*
X400439Y551489D01*
X400417Y551663D01*
X400399Y551836D01*
X400392Y551862D01*
X400388Y551888D01*
X400332Y552054D01*
X400281Y552221D01*
X400268Y552245D01*
X400260Y552270D01*
X400173Y552421D01*
X400089Y552575D01*
X400072Y552596D01*
X400059Y552619D01*
X399844Y552872D01*
X384894Y567822D01*
X384873Y567839D01*
X384856Y567860D01*
X384718Y567967D01*
X384582Y568077D01*
X384559Y568090D01*
X384538Y568106D01*
X384381Y568184D01*
X384227Y568266D01*
X384201Y568274D01*
X384177Y568286D01*
X384008Y568331D01*
X383841Y568381D01*
X383814Y568383D01*
X383788Y568390D01*
X383457Y568417D01*
X382507Y568417D01*
X382481Y568415D01*
X382454Y568417D01*
X382280Y568395D01*
X382107Y568377D01*
X382081Y568370D01*
X382055Y568366D01*
X381889Y568311D01*
X381722Y568259D01*
X381698Y568246D01*
X381673Y568238D01*
X381521Y568151D01*
X381368Y568067D01*
X381347Y568050D01*
X381324Y568037D01*
X381071Y567822D01*
X380804Y567555D01*
X378660Y566667D01*
X376340Y566667D01*
X374196Y567555D01*
X372555Y569196D01*
X371667Y571340D01*
X371667Y573660D01*
X372555Y575804D01*
X374201Y577450D01*
X374207Y577457D01*
X374213Y577462D01*
X374334Y577612D01*
X374456Y577761D01*
X374460Y577769D01*
X374466Y577776D01*
X374554Y577946D01*
X374645Y578117D01*
X374647Y578125D01*
X374651Y578133D01*
X374704Y578318D01*
X374759Y578503D01*
X374760Y578512D01*
X374763Y578520D01*
X374778Y578711D01*
X374796Y578904D01*
X374795Y578913D01*
X374796Y578922D01*
X374773Y579111D01*
X374752Y579304D01*
X374750Y579313D01*
X374749Y579321D01*
X374689Y579503D01*
X374631Y579688D01*
X374627Y579696D01*
X374624Y579704D01*
X374530Y579870D01*
X374436Y580040D01*
X374430Y580047D01*
X374426Y580055D01*
X374301Y580200D01*
X374176Y580347D01*
X374169Y580353D01*
X374163Y580360D01*
X374012Y580476D01*
X373860Y580597D01*
X373852Y580601D01*
X373845Y580606D01*
X373673Y580692D01*
X373501Y580779D01*
X373492Y580782D01*
X373484Y580786D01*
X373298Y580836D01*
X373113Y580887D01*
X373104Y580888D01*
X373095Y580890D01*
X372765Y580917D01*
X299188Y580917D01*
X297687Y581539D01*
X286838Y592388D01*
X286814Y592407D01*
X286794Y592431D01*
X286659Y592535D01*
X286527Y592643D01*
X286499Y592657D01*
X286475Y592676D01*
X286179Y592828D01*
X282622Y594302D01*
X279902Y597022D01*
X278429Y600576D01*
X278429Y604424D01*
X279902Y607978D01*
X282622Y610698D01*
X286176Y612171D01*
X290024Y612171D01*
X293578Y610698D01*
X295450Y608827D01*
X295457Y608821D01*
X295462Y608814D01*
X295612Y608694D01*
X295761Y608572D01*
X295769Y608567D01*
X295776Y608562D01*
X295946Y608473D01*
X296117Y608383D01*
X296126Y608380D01*
X296133Y608376D01*
X296318Y608323D01*
X296503Y608268D01*
X296512Y608267D01*
X296520Y608265D01*
X296711Y608249D01*
X296904Y608232D01*
X296913Y608233D01*
X296922Y608232D01*
X297111Y608254D01*
X297304Y608275D01*
X297313Y608278D01*
X297321Y608279D01*
X297503Y608338D01*
X297688Y608397D01*
X297696Y608401D01*
X297704Y608404D01*
X297870Y608498D01*
X298040Y608592D01*
X298047Y608597D01*
X298055Y608602D01*
X298200Y608727D01*
X298347Y608852D01*
X298353Y608859D01*
X298360Y608865D01*
X298477Y609016D01*
X298597Y609168D01*
X298601Y609176D01*
X298606Y609183D01*
X298692Y609355D01*
X298779Y609527D01*
X298782Y609536D01*
X298786Y609544D01*
X298836Y609730D01*
X298887Y609915D01*
X298888Y609924D01*
X298890Y609932D01*
X298917Y610263D01*
X298917Y612628D01*
X299539Y614129D01*
X304892Y619482D01*
X304897Y619489D01*
X304904Y619494D01*
X305024Y619644D01*
X305147Y619793D01*
X305151Y619801D01*
X305157Y619808D01*
X305245Y619978D01*
X305335Y620149D01*
X305338Y620158D01*
X305342Y620165D01*
X305395Y620350D01*
X305450Y620535D01*
X305451Y620544D01*
X305453Y620552D01*
X305469Y620744D01*
X305487Y620936D01*
X305486Y620945D01*
X305486Y620954D01*
X305464Y621143D01*
X305443Y621336D01*
X305440Y621345D01*
X305439Y621353D01*
X305380Y621535D01*
X305322Y621720D01*
X305317Y621728D01*
X305315Y621736D01*
X305220Y621905D01*
X305127Y622072D01*
X305121Y622079D01*
X305117Y622087D01*
X304991Y622233D01*
X304866Y622379D01*
X304859Y622385D01*
X304853Y622392D01*
X304702Y622509D01*
X304550Y622629D01*
X304542Y622633D01*
X304535Y622638D01*
X304363Y622724D01*
X304191Y622811D01*
X304183Y622814D01*
X304175Y622818D01*
X303988Y622868D01*
X303804Y622919D01*
X303795Y622920D01*
X303786Y622922D01*
X303455Y622949D01*
X262889Y622949D01*
X262876Y622948D01*
X262862Y622949D01*
X262676Y622928D01*
X262488Y622909D01*
X262476Y622905D01*
X262462Y622904D01*
X262283Y622846D01*
X262103Y622791D01*
X262092Y622785D01*
X262079Y622781D01*
X261914Y622689D01*
X261749Y622599D01*
X261739Y622591D01*
X261727Y622584D01*
X261584Y622462D01*
X261440Y622342D01*
X261432Y622331D01*
X261422Y622323D01*
X261305Y622174D01*
X261188Y622028D01*
X261182Y622016D01*
X261173Y622006D01*
X261089Y621837D01*
X261002Y621671D01*
X260999Y621658D01*
X260993Y621646D01*
X260943Y621465D01*
X260891Y621284D01*
X260890Y621270D01*
X260886Y621257D01*
X260873Y621069D01*
X260858Y620882D01*
X260860Y620869D01*
X260859Y620856D01*
X260883Y620668D01*
X260905Y620483D01*
X260909Y620470D01*
X260911Y620457D01*
X261012Y620141D01*
X261833Y618160D01*
X261833Y615840D01*
X261679Y615469D01*
X261675Y615456D01*
X261669Y615445D01*
X261617Y615264D01*
X261563Y615084D01*
X261562Y615071D01*
X261558Y615058D01*
X261542Y614869D01*
X261525Y614683D01*
X261526Y614670D01*
X261525Y614656D01*
X261547Y614469D01*
X261566Y614283D01*
X261570Y614270D01*
X261572Y614257D01*
X261630Y614078D01*
X261686Y613898D01*
X261693Y613887D01*
X261697Y613874D01*
X261789Y613710D01*
X261879Y613545D01*
X261888Y613535D01*
X261895Y613523D01*
X262017Y613381D01*
X262139Y613237D01*
X262149Y613229D01*
X262158Y613218D01*
X262306Y613104D01*
X262453Y612986D01*
X262465Y612980D01*
X262476Y612972D01*
X262644Y612888D01*
X262811Y612802D01*
X262824Y612798D01*
X262836Y612792D01*
X263019Y612743D01*
X263199Y612692D01*
X263212Y612691D01*
X263225Y612688D01*
X263439Y612670D01*
X265079Y612411D01*
X266600Y611916D01*
X268025Y611190D01*
X269319Y610250D01*
X270450Y609119D01*
X271390Y607825D01*
X272116Y606400D01*
X272559Y605039D01*
X263208Y605039D01*
X263190Y605037D01*
X263173Y605039D01*
X262990Y605018D01*
X262808Y604999D01*
X262791Y604994D01*
X262773Y604992D01*
X262598Y604935D01*
X262423Y604881D01*
X262407Y604873D01*
X262390Y604867D01*
X262230Y604777D01*
X262069Y604689D01*
X262055Y604678D01*
X262039Y604669D01*
X261900Y604549D01*
X261759Y604432D01*
X261748Y604418D01*
X261735Y604406D01*
X261622Y604261D01*
X261507Y604118D01*
X261499Y604102D01*
X261488Y604088D01*
X261406Y603923D01*
X261366Y603847D01*
X261214Y603761D01*
X261052Y603673D01*
X261039Y603662D01*
X261023Y603653D01*
X260884Y603533D01*
X260743Y603415D01*
X260732Y603402D01*
X260718Y603390D01*
X260606Y603245D01*
X260491Y603102D01*
X260483Y603086D01*
X260472Y603072D01*
X260390Y602907D01*
X260305Y602744D01*
X260300Y602727D01*
X260292Y602711D01*
X260244Y602533D01*
X260194Y602358D01*
X260192Y602340D01*
X260188Y602323D01*
X260161Y601992D01*
X260161Y592641D01*
X258800Y593084D01*
X257375Y593810D01*
X257124Y593992D01*
X257080Y594018D01*
X257040Y594050D01*
X256906Y594119D01*
X256777Y594195D01*
X256728Y594212D01*
X256683Y594235D01*
X256538Y594277D01*
X256396Y594326D01*
X256345Y594332D01*
X256296Y594347D01*
X256146Y594359D01*
X255997Y594379D01*
X255946Y594375D01*
X255895Y594379D01*
X255745Y594362D01*
X255595Y594352D01*
X255546Y594338D01*
X255495Y594333D01*
X255352Y594286D01*
X255206Y594246D01*
X255161Y594224D01*
X255112Y594208D01*
X254981Y594134D01*
X254846Y594066D01*
X254806Y594035D01*
X254761Y594010D01*
X254648Y593912D01*
X254529Y593819D01*
X254495Y593780D01*
X254457Y593747D01*
X254364Y593628D01*
X254266Y593514D01*
X254241Y593469D01*
X254210Y593429D01*
X254143Y593294D01*
X254069Y593162D01*
X254053Y593114D01*
X254031Y593068D01*
X253991Y592922D01*
X253945Y592779D01*
X253939Y592729D01*
X253926Y592679D01*
X253907Y592449D01*
X253899Y592379D01*
X253900Y592366D01*
X253899Y592348D01*
X253899Y591616D01*
X253902Y591590D01*
X253900Y591563D01*
X253922Y591389D01*
X253939Y591216D01*
X253947Y591190D01*
X253950Y591164D01*
X254006Y590998D01*
X254057Y590831D01*
X254070Y590807D01*
X254078Y590782D01*
X254166Y590630D01*
X254249Y590477D01*
X254266Y590456D01*
X254279Y590433D01*
X254494Y590180D01*
X288538Y556136D01*
X288555Y556122D01*
X288569Y556105D01*
X288711Y555995D01*
X288849Y555881D01*
X288869Y555871D01*
X288886Y555857D01*
X289047Y555776D01*
X289205Y555693D01*
X289226Y555686D01*
X289246Y555676D01*
X289419Y555629D01*
X289591Y555578D01*
X289613Y555576D01*
X289635Y555570D01*
X289813Y555558D01*
X289992Y555541D01*
X290014Y555544D01*
X290036Y555542D01*
X290214Y555565D01*
X290392Y555585D01*
X290413Y555591D01*
X290435Y555594D01*
X290751Y555696D01*
X299374Y559268D01*
X308576Y559268D01*
X317078Y555746D01*
X323584Y549239D01*
X327106Y540738D01*
X327106Y534509D01*
X327108Y534483D01*
X327106Y534456D01*
X327128Y534282D01*
X327146Y534109D01*
X327154Y534083D01*
X327157Y534057D01*
X327212Y533891D01*
X327264Y533724D01*
X327277Y533700D01*
X327285Y533675D01*
X327372Y533524D01*
X327456Y533370D01*
X327473Y533349D01*
X327486Y533326D01*
X327701Y533073D01*
X334818Y525956D01*
X334825Y525950D01*
X334830Y525944D01*
X334980Y525823D01*
X335129Y525701D01*
X335137Y525697D01*
X335144Y525691D01*
X335314Y525603D01*
X335485Y525512D01*
X335494Y525510D01*
X335501Y525506D01*
X335686Y525453D01*
X335871Y525398D01*
X335880Y525397D01*
X335888Y525394D01*
X336080Y525379D01*
X336272Y525361D01*
X336281Y525362D01*
X336290Y525362D01*
X336479Y525384D01*
X336672Y525405D01*
X336681Y525407D01*
X336689Y525408D01*
X336871Y525468D01*
X337056Y525526D01*
X337064Y525530D01*
X337072Y525533D01*
X337241Y525628D01*
X337408Y525721D01*
X337415Y525727D01*
X337423Y525731D01*
X337569Y525857D01*
X337715Y525981D01*
X337721Y525989D01*
X337728Y525994D01*
X337845Y526146D01*
X337965Y526297D01*
X337969Y526305D01*
X337974Y526312D01*
X338060Y526485D01*
X338147Y526656D01*
X338150Y526665D01*
X338154Y526673D01*
X338204Y526859D01*
X338255Y527044D01*
X338256Y527053D01*
X338258Y527062D01*
X338285Y527392D01*
X338285Y528831D01*
X339487Y530033D01*
X363537Y530033D01*
X364739Y528831D01*
X364739Y516930D01*
X364741Y516912D01*
X364739Y516895D01*
X364760Y516712D01*
X364779Y516530D01*
X364784Y516512D01*
X364786Y516495D01*
X364843Y516320D01*
X364897Y516145D01*
X364905Y516129D01*
X364911Y516112D01*
X365001Y515952D01*
X365089Y515791D01*
X365100Y515777D01*
X365109Y515761D01*
X365229Y515622D01*
X365346Y515481D01*
X365360Y515470D01*
X365372Y515457D01*
X365517Y515344D01*
X365660Y515229D01*
X365676Y515221D01*
X365690Y515210D01*
X365855Y515128D01*
X366017Y515044D01*
X366034Y515039D01*
X366050Y515031D01*
X366229Y514983D01*
X366404Y514932D01*
X366422Y514931D01*
X366439Y514926D01*
X366770Y514899D01*
X367288Y514899D01*
X367310Y514901D01*
G37*
%LPC*%
G36*
X200913Y843959D02*
X200913Y843959D01*
X193019Y846075D01*
X185941Y850161D01*
X180161Y855941D01*
X176075Y863019D01*
X173959Y870913D01*
X173959Y879087D01*
X176075Y886981D01*
X180161Y894059D01*
X185941Y899839D01*
X193019Y903925D01*
X200913Y906041D01*
X209087Y906041D01*
X216981Y903925D01*
X224059Y899839D01*
X229839Y894059D01*
X233925Y886981D01*
X236041Y879087D01*
X236041Y870913D01*
X233925Y863019D01*
X229839Y855941D01*
X224059Y850161D01*
X216981Y846075D01*
X209087Y843959D01*
X200913Y843959D01*
G37*
%LPD*%
%LPC*%
G36*
X420913Y433959D02*
X420913Y433959D01*
X413019Y436075D01*
X405941Y440161D01*
X400161Y445941D01*
X396075Y453019D01*
X393959Y460913D01*
X393959Y469087D01*
X396075Y476981D01*
X400161Y484059D01*
X405941Y489839D01*
X413019Y493925D01*
X420913Y496041D01*
X429087Y496041D01*
X436981Y493925D01*
X444059Y489839D01*
X449839Y484059D01*
X453925Y476981D01*
X456041Y469087D01*
X456041Y460913D01*
X453925Y453019D01*
X449839Y445941D01*
X444059Y440161D01*
X436981Y436075D01*
X429087Y433959D01*
X420913Y433959D01*
G37*
%LPD*%
G36*
X260972Y645549D02*
X260972Y645549D01*
X260985Y645548D01*
X261174Y645572D01*
X261359Y645593D01*
X261371Y645597D01*
X261385Y645598D01*
X261563Y645658D01*
X261742Y645716D01*
X261754Y645722D01*
X261767Y645727D01*
X261930Y645821D01*
X262094Y645912D01*
X262104Y645921D01*
X262115Y645928D01*
X262368Y646142D01*
X264572Y648346D01*
X264589Y648367D01*
X264610Y648384D01*
X264717Y648522D01*
X264827Y648658D01*
X264840Y648681D01*
X264856Y648702D01*
X264934Y648859D01*
X265016Y649013D01*
X265024Y649039D01*
X265036Y649063D01*
X265081Y649232D01*
X265131Y649399D01*
X265133Y649426D01*
X265140Y649452D01*
X265167Y649783D01*
X265167Y650160D01*
X266055Y652304D01*
X267696Y653945D01*
X269840Y654833D01*
X272160Y654833D01*
X274304Y653945D01*
X275945Y652304D01*
X276830Y650166D01*
X276835Y650158D01*
X276837Y650149D01*
X276930Y649980D01*
X277021Y649811D01*
X277026Y649804D01*
X277031Y649796D01*
X277154Y649649D01*
X277277Y649500D01*
X277284Y649495D01*
X277290Y649488D01*
X277439Y649369D01*
X277590Y649247D01*
X277598Y649243D01*
X277605Y649237D01*
X277775Y649149D01*
X277946Y649060D01*
X277955Y649057D01*
X277963Y649053D01*
X278147Y649001D01*
X278333Y648947D01*
X278342Y648946D01*
X278350Y648943D01*
X278541Y648929D01*
X278734Y648912D01*
X278743Y648913D01*
X278752Y648912D01*
X278943Y648935D01*
X279134Y648957D01*
X279142Y648960D01*
X279151Y648961D01*
X279333Y649021D01*
X279517Y649080D01*
X279525Y649085D01*
X279533Y649087D01*
X279701Y649183D01*
X279869Y649277D01*
X279875Y649282D01*
X279883Y649287D01*
X280029Y649414D01*
X280174Y649538D01*
X280180Y649545D01*
X280187Y649551D01*
X280304Y649703D01*
X280423Y649855D01*
X280427Y649864D01*
X280432Y649871D01*
X280584Y650166D01*
X281055Y651304D01*
X282696Y652945D01*
X284840Y653833D01*
X287160Y653833D01*
X289304Y652945D01*
X290945Y651304D01*
X291039Y651076D01*
X291043Y651068D01*
X291046Y651060D01*
X291139Y650890D01*
X291229Y650721D01*
X291235Y650714D01*
X291239Y650707D01*
X291363Y650559D01*
X291486Y650411D01*
X291493Y650405D01*
X291498Y650398D01*
X291649Y650279D01*
X291798Y650157D01*
X291806Y650153D01*
X291813Y650148D01*
X291984Y650060D01*
X292155Y649970D01*
X292164Y649968D01*
X292171Y649964D01*
X292356Y649911D01*
X292541Y649857D01*
X292550Y649856D01*
X292559Y649854D01*
X292751Y649839D01*
X292942Y649822D01*
X292951Y649823D01*
X292960Y649823D01*
X293152Y649846D01*
X293342Y649868D01*
X293351Y649870D01*
X293360Y649871D01*
X293542Y649932D01*
X293726Y649991D01*
X293734Y649995D01*
X293742Y649998D01*
X293908Y650093D01*
X294077Y650187D01*
X294084Y650193D01*
X294092Y650197D01*
X294237Y650324D01*
X294383Y650449D01*
X294389Y650456D01*
X294395Y650462D01*
X294513Y650615D01*
X294631Y650766D01*
X294635Y650774D01*
X294641Y650781D01*
X294792Y651076D01*
X295139Y651913D01*
X317504Y674277D01*
X319004Y674899D01*
X373993Y674899D01*
X374019Y674902D01*
X374046Y674900D01*
X374220Y674922D01*
X374393Y674939D01*
X374419Y674947D01*
X374445Y674950D01*
X374611Y675006D01*
X374778Y675057D01*
X374802Y675070D01*
X374827Y675078D01*
X374979Y675166D01*
X375132Y675249D01*
X375153Y675266D01*
X375176Y675279D01*
X375429Y675494D01*
X376880Y676945D01*
X379024Y677833D01*
X381344Y677833D01*
X383488Y676945D01*
X385129Y675304D01*
X386017Y673160D01*
X386017Y670840D01*
X385624Y669891D01*
X385620Y669878D01*
X385614Y669867D01*
X385562Y669687D01*
X385507Y669506D01*
X385506Y669493D01*
X385502Y669480D01*
X385487Y669292D01*
X385469Y669105D01*
X385470Y669092D01*
X385469Y669078D01*
X385491Y668892D01*
X385511Y668705D01*
X385515Y668692D01*
X385516Y668679D01*
X385575Y668499D01*
X385631Y668320D01*
X385637Y668309D01*
X385641Y668296D01*
X385734Y668132D01*
X385824Y667967D01*
X385832Y667957D01*
X385839Y667945D01*
X385961Y667803D01*
X386083Y667659D01*
X386093Y667651D01*
X386102Y667640D01*
X386250Y667526D01*
X386398Y667408D01*
X386410Y667402D01*
X386420Y667394D01*
X386589Y667310D01*
X386756Y667224D01*
X386769Y667220D01*
X386781Y667214D01*
X386964Y667165D01*
X387143Y667114D01*
X387157Y667113D01*
X387170Y667110D01*
X387500Y667083D01*
X393312Y667083D01*
X394813Y666461D01*
X396530Y664744D01*
X396551Y664727D01*
X396568Y664707D01*
X396706Y664600D01*
X396841Y664489D01*
X396865Y664476D01*
X396886Y664460D01*
X397043Y664382D01*
X397197Y664300D01*
X397223Y664293D01*
X397247Y664281D01*
X397416Y664235D01*
X397583Y664185D01*
X397610Y664183D01*
X397636Y664176D01*
X397966Y664149D01*
X398344Y664149D01*
X399691Y663591D01*
X399704Y663587D01*
X399715Y663581D01*
X399895Y663529D01*
X400076Y663475D01*
X400089Y663473D01*
X400102Y663470D01*
X400290Y663454D01*
X400477Y663437D01*
X400490Y663438D01*
X400504Y663437D01*
X400691Y663459D01*
X400877Y663478D01*
X400890Y663482D01*
X400903Y663484D01*
X401083Y663542D01*
X401262Y663598D01*
X401273Y663604D01*
X401286Y663609D01*
X401451Y663701D01*
X401615Y663791D01*
X401625Y663800D01*
X401637Y663806D01*
X401779Y663929D01*
X401923Y664050D01*
X401931Y664061D01*
X401942Y664070D01*
X402057Y664218D01*
X402174Y664365D01*
X402180Y664377D01*
X402188Y664388D01*
X402272Y664556D01*
X402358Y664723D01*
X402362Y664736D01*
X402368Y664748D01*
X402417Y664931D01*
X402468Y665111D01*
X402469Y665124D01*
X402472Y665137D01*
X402499Y665468D01*
X402499Y674187D01*
X402498Y674200D01*
X402499Y674213D01*
X402478Y674400D01*
X402459Y674587D01*
X402455Y674600D01*
X402454Y674613D01*
X402396Y674792D01*
X402341Y674972D01*
X402335Y674984D01*
X402331Y674997D01*
X402239Y675161D01*
X402149Y675326D01*
X402141Y675336D01*
X402134Y675348D01*
X402012Y675491D01*
X401892Y675635D01*
X401881Y675644D01*
X401873Y675654D01*
X401725Y675770D01*
X401578Y675888D01*
X401566Y675894D01*
X401556Y675902D01*
X401386Y675987D01*
X401221Y676073D01*
X401208Y676077D01*
X401196Y676083D01*
X401013Y676133D01*
X400834Y676185D01*
X400820Y676186D01*
X400807Y676189D01*
X400619Y676202D01*
X400432Y676217D01*
X400419Y676216D01*
X400406Y676217D01*
X400218Y676192D01*
X400033Y676171D01*
X400020Y676166D01*
X400007Y676165D01*
X399691Y676063D01*
X397528Y675167D01*
X395207Y675167D01*
X393064Y676055D01*
X391423Y677696D01*
X390665Y679527D01*
X390650Y679554D01*
X390640Y679584D01*
X390555Y679732D01*
X390474Y679882D01*
X390455Y679906D01*
X390439Y679933D01*
X390224Y680186D01*
X386904Y683506D01*
X386883Y683523D01*
X386866Y683543D01*
X386728Y683650D01*
X386592Y683761D01*
X386569Y683774D01*
X386548Y683790D01*
X386391Y683868D01*
X386237Y683950D01*
X386211Y683957D01*
X386187Y683969D01*
X386018Y684015D01*
X385851Y684065D01*
X385824Y684067D01*
X385798Y684074D01*
X385467Y684101D01*
X253467Y684101D01*
X253454Y684100D01*
X253441Y684101D01*
X253254Y684080D01*
X253067Y684061D01*
X253054Y684057D01*
X253041Y684056D01*
X252861Y683998D01*
X252682Y683943D01*
X252670Y683937D01*
X252657Y683933D01*
X252493Y683841D01*
X252328Y683751D01*
X252318Y683743D01*
X252306Y683736D01*
X252163Y683614D01*
X252019Y683494D01*
X252010Y683483D01*
X252000Y683474D01*
X251884Y683327D01*
X251766Y683180D01*
X251760Y683168D01*
X251752Y683157D01*
X251667Y682989D01*
X251581Y682822D01*
X251577Y682810D01*
X251571Y682798D01*
X251521Y682616D01*
X251469Y682436D01*
X251468Y682422D01*
X251465Y682409D01*
X251452Y682221D01*
X251436Y682034D01*
X251438Y682021D01*
X251437Y682008D01*
X251462Y681820D01*
X251483Y681634D01*
X251487Y681622D01*
X251489Y681608D01*
X251591Y681292D01*
X251948Y680431D01*
X251948Y678111D01*
X251060Y675967D01*
X249750Y674657D01*
X249733Y674636D01*
X249712Y674619D01*
X249605Y674481D01*
X249495Y674345D01*
X249482Y674322D01*
X249466Y674301D01*
X249388Y674144D01*
X249306Y673990D01*
X249298Y673964D01*
X249286Y673940D01*
X249241Y673771D01*
X249191Y673604D01*
X249189Y673577D01*
X249182Y673551D01*
X249155Y673221D01*
X249155Y663537D01*
X249157Y663511D01*
X249155Y663484D01*
X249177Y663310D01*
X249195Y663137D01*
X249202Y663111D01*
X249206Y663085D01*
X249261Y662919D01*
X249313Y662752D01*
X249326Y662728D01*
X249334Y662703D01*
X249421Y662551D01*
X249505Y662398D01*
X249522Y662377D01*
X249535Y662354D01*
X249750Y662101D01*
X256533Y655318D01*
X257155Y653817D01*
X257155Y651012D01*
X257157Y650986D01*
X257155Y650959D01*
X257177Y650785D01*
X257195Y650612D01*
X257202Y650586D01*
X257206Y650560D01*
X257261Y650394D01*
X257313Y650227D01*
X257326Y650203D01*
X257334Y650178D01*
X257421Y650026D01*
X257505Y649873D01*
X257522Y649852D01*
X257535Y649829D01*
X257750Y649576D01*
X258017Y649309D01*
X259055Y646801D01*
X259062Y646790D01*
X259066Y646777D01*
X259157Y646612D01*
X259246Y646446D01*
X259254Y646436D01*
X259261Y646424D01*
X259382Y646282D01*
X259502Y646136D01*
X259512Y646128D01*
X259521Y646117D01*
X259669Y646001D01*
X259815Y645882D01*
X259827Y645876D01*
X259837Y645868D01*
X260005Y645782D01*
X260171Y645695D01*
X260184Y645692D01*
X260196Y645685D01*
X260378Y645635D01*
X260558Y645582D01*
X260571Y645581D01*
X260584Y645577D01*
X260773Y645564D01*
X260959Y645548D01*
X260972Y645549D01*
G37*
%LPC*%
G36*
X309820Y876285D02*
X309820Y876285D01*
X308320Y876906D01*
X303839Y881387D01*
X303217Y882888D01*
X303217Y884866D01*
X303215Y884889D01*
X303217Y884911D01*
X303195Y885089D01*
X303177Y885267D01*
X303171Y885288D01*
X303168Y885310D01*
X303112Y885481D01*
X303059Y885652D01*
X303049Y885672D01*
X303042Y885693D01*
X302953Y885848D01*
X302867Y886006D01*
X302853Y886023D01*
X302842Y886042D01*
X302724Y886178D01*
X302610Y886315D01*
X302592Y886329D01*
X302578Y886346D01*
X302435Y886455D01*
X302296Y886568D01*
X302276Y886578D01*
X302259Y886591D01*
X301963Y886743D01*
X301822Y886802D01*
X299102Y889522D01*
X297629Y893076D01*
X297629Y896924D01*
X299102Y900478D01*
X301822Y903198D01*
X305376Y904671D01*
X309224Y904671D01*
X312778Y903198D01*
X315498Y900478D01*
X316971Y896924D01*
X316971Y893076D01*
X315498Y889522D01*
X313894Y887918D01*
X313889Y887911D01*
X313882Y887905D01*
X313762Y887756D01*
X313639Y887606D01*
X313635Y887599D01*
X313629Y887592D01*
X313541Y887421D01*
X313451Y887251D01*
X313448Y887242D01*
X313444Y887234D01*
X313391Y887050D01*
X313336Y886865D01*
X313335Y886856D01*
X313333Y886847D01*
X313317Y886656D01*
X313299Y886464D01*
X313300Y886455D01*
X313300Y886446D01*
X313322Y886257D01*
X313343Y886064D01*
X313346Y886055D01*
X313347Y886046D01*
X313406Y885864D01*
X313464Y885680D01*
X313469Y885672D01*
X313471Y885663D01*
X313566Y885496D01*
X313659Y885327D01*
X313665Y885320D01*
X313669Y885313D01*
X313794Y885168D01*
X313920Y885020D01*
X313927Y885015D01*
X313933Y885008D01*
X314083Y884891D01*
X314236Y884771D01*
X314244Y884767D01*
X314251Y884761D01*
X314422Y884676D01*
X314595Y884588D01*
X314603Y884586D01*
X314611Y884582D01*
X314797Y884532D01*
X314982Y884480D01*
X314991Y884480D01*
X315000Y884477D01*
X315331Y884450D01*
X324669Y884450D01*
X324678Y884451D01*
X324687Y884450D01*
X324879Y884471D01*
X325070Y884490D01*
X325079Y884493D01*
X325087Y884494D01*
X325270Y884552D01*
X325455Y884608D01*
X325463Y884613D01*
X325471Y884615D01*
X325640Y884708D01*
X325809Y884800D01*
X325816Y884806D01*
X325824Y884810D01*
X325971Y884936D01*
X326118Y885058D01*
X326124Y885065D01*
X326131Y885071D01*
X326250Y885222D01*
X326371Y885372D01*
X326375Y885380D01*
X326380Y885387D01*
X326468Y885559D01*
X326556Y885729D01*
X326558Y885738D01*
X326563Y885746D01*
X326614Y885931D01*
X326667Y886116D01*
X326668Y886125D01*
X326671Y886133D01*
X326684Y886324D01*
X326700Y886517D01*
X326699Y886526D01*
X326700Y886535D01*
X326676Y886726D01*
X326653Y886917D01*
X326651Y886925D01*
X326650Y886934D01*
X326588Y887117D01*
X326529Y887300D01*
X326524Y887308D01*
X326521Y887316D01*
X326426Y887482D01*
X326331Y887650D01*
X326325Y887657D01*
X326320Y887665D01*
X326106Y887918D01*
X324502Y889522D01*
X323029Y893076D01*
X323029Y896924D01*
X324502Y900478D01*
X327222Y903198D01*
X330776Y904671D01*
X334624Y904671D01*
X338178Y903198D01*
X340898Y900478D01*
X342371Y896924D01*
X342371Y893076D01*
X340898Y889522D01*
X339294Y887918D01*
X339289Y887911D01*
X339282Y887905D01*
X339162Y887756D01*
X339039Y887606D01*
X339035Y887599D01*
X339029Y887592D01*
X338941Y887421D01*
X338851Y887251D01*
X338848Y887242D01*
X338844Y887234D01*
X338791Y887050D01*
X338736Y886865D01*
X338735Y886856D01*
X338733Y886847D01*
X338717Y886656D01*
X338699Y886464D01*
X338700Y886455D01*
X338700Y886446D01*
X338722Y886257D01*
X338743Y886064D01*
X338746Y886055D01*
X338747Y886046D01*
X338806Y885864D01*
X338864Y885680D01*
X338869Y885672D01*
X338871Y885663D01*
X338966Y885496D01*
X339059Y885327D01*
X339065Y885320D01*
X339069Y885313D01*
X339194Y885168D01*
X339320Y885020D01*
X339327Y885015D01*
X339333Y885008D01*
X339483Y884891D01*
X339636Y884771D01*
X339644Y884767D01*
X339651Y884761D01*
X339822Y884676D01*
X339995Y884588D01*
X340003Y884586D01*
X340011Y884582D01*
X340197Y884532D01*
X340382Y884480D01*
X340391Y884480D01*
X340400Y884477D01*
X340731Y884450D01*
X354269Y884450D01*
X354278Y884451D01*
X354287Y884450D01*
X354479Y884471D01*
X354670Y884490D01*
X354679Y884493D01*
X354687Y884494D01*
X354870Y884552D01*
X355055Y884608D01*
X355063Y884613D01*
X355071Y884615D01*
X355240Y884708D01*
X355409Y884800D01*
X355416Y884806D01*
X355424Y884810D01*
X355571Y884936D01*
X355718Y885058D01*
X355724Y885065D01*
X355731Y885071D01*
X355850Y885222D01*
X355971Y885372D01*
X355975Y885380D01*
X355980Y885387D01*
X356068Y885559D01*
X356156Y885729D01*
X356158Y885738D01*
X356163Y885746D01*
X356214Y885931D01*
X356267Y886116D01*
X356268Y886125D01*
X356271Y886133D01*
X356284Y886324D01*
X356300Y886517D01*
X356299Y886526D01*
X356300Y886535D01*
X356276Y886726D01*
X356253Y886917D01*
X356251Y886925D01*
X356250Y886934D01*
X356188Y887117D01*
X356129Y887300D01*
X356124Y887308D01*
X356121Y887316D01*
X356026Y887482D01*
X355931Y887650D01*
X355925Y887657D01*
X355920Y887665D01*
X355706Y887918D01*
X354102Y889522D01*
X352629Y893076D01*
X352629Y896924D01*
X354102Y900478D01*
X356822Y903198D01*
X360376Y904671D01*
X364224Y904671D01*
X367778Y903198D01*
X370498Y900478D01*
X371971Y896924D01*
X371971Y893076D01*
X370498Y889522D01*
X368894Y887918D01*
X368889Y887911D01*
X368882Y887905D01*
X368762Y887756D01*
X368639Y887606D01*
X368635Y887599D01*
X368629Y887592D01*
X368541Y887421D01*
X368451Y887251D01*
X368448Y887242D01*
X368444Y887234D01*
X368391Y887050D01*
X368336Y886865D01*
X368335Y886856D01*
X368333Y886847D01*
X368317Y886656D01*
X368299Y886464D01*
X368300Y886455D01*
X368300Y886446D01*
X368322Y886257D01*
X368343Y886064D01*
X368346Y886055D01*
X368347Y886046D01*
X368406Y885864D01*
X368464Y885680D01*
X368469Y885672D01*
X368471Y885663D01*
X368566Y885496D01*
X368659Y885327D01*
X368665Y885320D01*
X368669Y885313D01*
X368794Y885168D01*
X368920Y885020D01*
X368927Y885015D01*
X368933Y885008D01*
X369083Y884891D01*
X369236Y884771D01*
X369244Y884767D01*
X369251Y884761D01*
X369422Y884676D01*
X369595Y884588D01*
X369603Y884586D01*
X369611Y884582D01*
X369797Y884532D01*
X369982Y884480D01*
X369991Y884480D01*
X370000Y884477D01*
X370331Y884450D01*
X370535Y884450D01*
X370562Y884453D01*
X370588Y884451D01*
X370762Y884473D01*
X370936Y884490D01*
X370961Y884498D01*
X370988Y884501D01*
X371153Y884557D01*
X371321Y884608D01*
X371344Y884621D01*
X371369Y884630D01*
X371521Y884717D01*
X371675Y884800D01*
X371695Y884817D01*
X371718Y884831D01*
X371971Y885045D01*
X377648Y890721D01*
X377662Y890739D01*
X377679Y890753D01*
X377789Y890894D01*
X377903Y891033D01*
X377913Y891053D01*
X377927Y891070D01*
X378007Y891230D01*
X378091Y891389D01*
X378098Y891410D01*
X378108Y891430D01*
X378155Y891603D01*
X378206Y891774D01*
X378208Y891797D01*
X378214Y891818D01*
X378226Y891996D01*
X378242Y892175D01*
X378240Y892198D01*
X378241Y892220D01*
X378218Y892396D01*
X378199Y892576D01*
X378192Y892597D01*
X378189Y892619D01*
X378088Y892935D01*
X378029Y893076D01*
X378029Y896924D01*
X379502Y900478D01*
X382222Y903198D01*
X385776Y904671D01*
X389624Y904671D01*
X393178Y903198D01*
X395898Y900478D01*
X397371Y896924D01*
X397371Y893076D01*
X395898Y889522D01*
X393178Y886802D01*
X389624Y885329D01*
X385776Y885329D01*
X385635Y885388D01*
X385614Y885394D01*
X385594Y885404D01*
X385421Y885453D01*
X385250Y885504D01*
X385228Y885506D01*
X385206Y885512D01*
X385026Y885526D01*
X384849Y885542D01*
X384827Y885540D01*
X384804Y885542D01*
X384626Y885519D01*
X384448Y885501D01*
X384427Y885494D01*
X384405Y885491D01*
X384235Y885434D01*
X384064Y885381D01*
X384044Y885370D01*
X384023Y885363D01*
X383868Y885274D01*
X383711Y885188D01*
X383694Y885173D01*
X383674Y885162D01*
X383421Y884948D01*
X375380Y876906D01*
X373880Y876285D01*
X309820Y876285D01*
G37*
%LPD*%
G36*
X238561Y505685D02*
X238561Y505685D01*
X238579Y505683D01*
X238761Y505706D01*
X238943Y505726D01*
X238960Y505732D01*
X238978Y505734D01*
X239152Y505792D01*
X239327Y505848D01*
X239343Y505856D01*
X239360Y505862D01*
X239519Y505954D01*
X239680Y506043D01*
X239693Y506054D01*
X239709Y506063D01*
X239962Y506278D01*
X244943Y511259D01*
X244960Y511280D01*
X244980Y511297D01*
X245087Y511435D01*
X245198Y511571D01*
X245211Y511595D01*
X245227Y511616D01*
X245305Y511772D01*
X245387Y511927D01*
X245395Y511952D01*
X245407Y511976D01*
X245452Y512146D01*
X245502Y512312D01*
X245504Y512339D01*
X245511Y512365D01*
X245538Y512696D01*
X245538Y534105D01*
X245536Y534122D01*
X245538Y534140D01*
X245517Y534323D01*
X245498Y534505D01*
X245493Y534522D01*
X245491Y534540D01*
X245434Y534715D01*
X245380Y534890D01*
X245372Y534906D01*
X245366Y534923D01*
X245276Y535083D01*
X245188Y535244D01*
X245177Y535258D01*
X245168Y535273D01*
X245048Y535413D01*
X244931Y535553D01*
X244917Y535565D01*
X244905Y535578D01*
X244760Y535691D01*
X244617Y535806D01*
X244601Y535814D01*
X244587Y535825D01*
X244422Y535907D01*
X244260Y535991D01*
X244243Y535996D01*
X244226Y536004D01*
X244048Y536052D01*
X243873Y536103D01*
X243855Y536104D01*
X243838Y536109D01*
X243507Y536136D01*
X241474Y536136D01*
X241474Y536138D01*
X243507Y536138D01*
X243525Y536139D01*
X243543Y536138D01*
X243725Y536159D01*
X243908Y536178D01*
X243925Y536183D01*
X243942Y536185D01*
X244117Y536242D01*
X244293Y536296D01*
X244308Y536304D01*
X244325Y536310D01*
X244485Y536400D01*
X244647Y536487D01*
X244660Y536499D01*
X244676Y536508D01*
X244815Y536628D01*
X244956Y536745D01*
X244967Y536759D01*
X244980Y536771D01*
X245093Y536916D01*
X245208Y537059D01*
X245216Y537075D01*
X245227Y537089D01*
X245309Y537253D01*
X245394Y537416D01*
X245399Y537433D01*
X245407Y537449D01*
X245454Y537628D01*
X245505Y537803D01*
X245507Y537821D01*
X245511Y537838D01*
X245538Y538169D01*
X245538Y557386D01*
X247470Y556945D01*
X249762Y556143D01*
X250509Y555783D01*
X250567Y555762D01*
X250621Y555733D01*
X250755Y555694D01*
X250887Y555646D01*
X250948Y555636D01*
X251007Y555619D01*
X251147Y555606D01*
X251285Y555585D01*
X251347Y555588D01*
X251408Y555582D01*
X251548Y555597D01*
X251688Y555604D01*
X251747Y555619D01*
X251808Y555626D01*
X251942Y555668D01*
X252078Y555702D01*
X252134Y555729D01*
X252192Y555747D01*
X252315Y555815D01*
X252441Y555875D01*
X252491Y555912D01*
X252545Y555942D01*
X252651Y556033D01*
X252764Y556117D01*
X252805Y556163D01*
X252852Y556203D01*
X252938Y556312D01*
X253032Y556417D01*
X253063Y556470D01*
X253101Y556518D01*
X253165Y556643D01*
X253236Y556764D01*
X253256Y556823D01*
X253284Y556877D01*
X253321Y557012D01*
X253367Y557145D01*
X253375Y557206D01*
X253392Y557265D01*
X253402Y557405D01*
X253421Y557544D01*
X253417Y557605D01*
X253421Y557667D01*
X253403Y557806D01*
X253394Y557946D01*
X253378Y558005D01*
X253371Y558066D01*
X253326Y558199D01*
X253289Y558334D01*
X253262Y558390D01*
X253242Y558448D01*
X253173Y558569D01*
X253110Y558695D01*
X253072Y558743D01*
X253041Y558797D01*
X252914Y558947D01*
X252863Y559013D01*
X252845Y559028D01*
X252827Y559050D01*
X234744Y577133D01*
X234723Y577150D01*
X234705Y577170D01*
X234568Y577277D01*
X234432Y577388D01*
X234408Y577401D01*
X234387Y577417D01*
X234230Y577495D01*
X234076Y577577D01*
X234051Y577584D01*
X234027Y577596D01*
X233857Y577642D01*
X233690Y577691D01*
X233664Y577694D01*
X233638Y577701D01*
X233307Y577728D01*
X224679Y577728D01*
X224674Y577727D01*
X224670Y577728D01*
X224476Y577708D01*
X224278Y577688D01*
X224274Y577687D01*
X224269Y577686D01*
X224082Y577628D01*
X223893Y577570D01*
X223889Y577568D01*
X223885Y577566D01*
X223710Y577471D01*
X223539Y577378D01*
X223536Y577375D01*
X223532Y577373D01*
X223379Y577245D01*
X223230Y577120D01*
X223227Y577117D01*
X223224Y577114D01*
X223099Y576957D01*
X222978Y576807D01*
X222976Y576803D01*
X222973Y576799D01*
X222880Y576619D01*
X222792Y576449D01*
X222791Y576445D01*
X222789Y576441D01*
X222734Y576249D01*
X222681Y576062D01*
X222680Y576058D01*
X222679Y576054D01*
X222664Y575862D01*
X222648Y575661D01*
X222648Y575657D01*
X222648Y575652D01*
X222672Y575458D01*
X222695Y575261D01*
X222696Y575257D01*
X222697Y575253D01*
X222758Y575067D01*
X222820Y574878D01*
X222822Y574875D01*
X222823Y574870D01*
X222920Y574700D01*
X223017Y574528D01*
X223020Y574524D01*
X223023Y574521D01*
X223150Y574374D01*
X223281Y574223D01*
X223284Y574220D01*
X223287Y574217D01*
X223444Y574096D01*
X223599Y573976D01*
X223603Y573974D01*
X223606Y573972D01*
X223901Y573820D01*
X224932Y573393D01*
X226572Y571753D01*
X227460Y569609D01*
X227460Y567288D01*
X226572Y565145D01*
X224932Y563504D01*
X223466Y562897D01*
X223438Y562882D01*
X223409Y562872D01*
X223261Y562787D01*
X223111Y562707D01*
X223087Y562687D01*
X223060Y562671D01*
X222807Y562456D01*
X202597Y542246D01*
X202580Y542225D01*
X202559Y542208D01*
X202452Y542070D01*
X202342Y541935D01*
X202329Y541911D01*
X202313Y541890D01*
X202235Y541733D01*
X202153Y541579D01*
X202145Y541553D01*
X202133Y541529D01*
X202088Y541360D01*
X202038Y541193D01*
X202036Y541166D01*
X202029Y541141D01*
X202002Y540810D01*
X202002Y515218D01*
X202004Y515191D01*
X202002Y515164D01*
X202024Y514991D01*
X202042Y514817D01*
X202049Y514792D01*
X202053Y514765D01*
X202108Y514599D01*
X202160Y514432D01*
X202172Y514409D01*
X202181Y514383D01*
X202268Y514232D01*
X202351Y514078D01*
X202369Y514058D01*
X202382Y514034D01*
X202597Y513781D01*
X203462Y512916D01*
X203483Y512899D01*
X203501Y512878D01*
X203638Y512771D01*
X203774Y512661D01*
X203798Y512648D01*
X203819Y512632D01*
X203976Y512554D01*
X204130Y512472D01*
X204155Y512464D01*
X204179Y512452D01*
X204349Y512407D01*
X204515Y512357D01*
X204542Y512355D01*
X204568Y512348D01*
X204899Y512321D01*
X212290Y512321D01*
X212294Y512321D01*
X212299Y512321D01*
X212493Y512341D01*
X212690Y512361D01*
X212695Y512362D01*
X212699Y512362D01*
X212886Y512421D01*
X213075Y512479D01*
X213079Y512481D01*
X213083Y512482D01*
X213258Y512578D01*
X213429Y512671D01*
X213433Y512673D01*
X213437Y512676D01*
X213590Y512804D01*
X213739Y512928D01*
X213741Y512932D01*
X213745Y512935D01*
X213870Y513091D01*
X213991Y513242D01*
X213993Y513246D01*
X213996Y513249D01*
X214088Y513430D01*
X214176Y513599D01*
X214178Y513604D01*
X214180Y513608D01*
X214234Y513798D01*
X214288Y513986D01*
X214288Y513991D01*
X214289Y513995D01*
X214304Y514188D01*
X214321Y514388D01*
X214320Y514392D01*
X214320Y514396D01*
X214297Y514590D01*
X214274Y514787D01*
X214272Y514792D01*
X214272Y514796D01*
X214211Y514981D01*
X214149Y515170D01*
X214147Y515174D01*
X214145Y515178D01*
X214049Y515347D01*
X213951Y515521D01*
X213948Y515524D01*
X213946Y515528D01*
X213816Y515677D01*
X213688Y515825D01*
X213684Y515828D01*
X213681Y515832D01*
X213523Y515954D01*
X213370Y516072D01*
X213366Y516074D01*
X213362Y516077D01*
X213067Y516229D01*
X211677Y516804D01*
X210037Y518445D01*
X209149Y520589D01*
X209149Y522909D01*
X210037Y525053D01*
X211677Y526694D01*
X213821Y527582D01*
X216142Y527582D01*
X218287Y526693D01*
X218434Y526648D01*
X218579Y526597D01*
X218627Y526590D01*
X218673Y526576D01*
X218826Y526562D01*
X218978Y526540D01*
X219026Y526543D01*
X219074Y526538D01*
X219226Y526554D01*
X219380Y526563D01*
X219426Y526575D01*
X219474Y526580D01*
X219620Y526625D01*
X219769Y526664D01*
X219813Y526685D01*
X219859Y526700D01*
X219993Y526773D01*
X220131Y526841D01*
X220170Y526870D01*
X220212Y526893D01*
X220329Y526992D01*
X220451Y527085D01*
X220483Y527121D01*
X220520Y527152D01*
X220615Y527272D01*
X220717Y527387D01*
X220741Y527429D01*
X220771Y527467D01*
X220841Y527603D01*
X220917Y527737D01*
X220933Y527782D01*
X220955Y527825D01*
X220996Y527973D01*
X221045Y528118D01*
X221051Y528166D01*
X221064Y528213D01*
X221076Y528365D01*
X221095Y528518D01*
X221092Y528566D01*
X221096Y528614D01*
X221077Y528766D01*
X221066Y528919D01*
X221052Y528972D01*
X221047Y529014D01*
X221020Y529096D01*
X220982Y529240D01*
X220667Y530142D01*
X220226Y532074D01*
X237412Y532074D01*
X237412Y514887D01*
X235480Y515328D01*
X233188Y516130D01*
X232479Y516472D01*
X232421Y516493D01*
X232366Y516522D01*
X232232Y516562D01*
X232100Y516610D01*
X232040Y516619D01*
X231981Y516637D01*
X231841Y516649D01*
X231702Y516670D01*
X231641Y516668D01*
X231580Y516673D01*
X231440Y516658D01*
X231300Y516651D01*
X231241Y516636D01*
X231179Y516630D01*
X231045Y516587D01*
X230910Y516553D01*
X230854Y516527D01*
X230796Y516508D01*
X230673Y516440D01*
X230546Y516380D01*
X230497Y516343D01*
X230443Y516313D01*
X230336Y516223D01*
X230224Y516139D01*
X230183Y516093D01*
X230136Y516053D01*
X230049Y515943D01*
X229956Y515838D01*
X229925Y515785D01*
X229887Y515737D01*
X229823Y515612D01*
X229752Y515491D01*
X229732Y515433D01*
X229704Y515378D01*
X229667Y515243D01*
X229621Y515110D01*
X229613Y515049D01*
X229596Y514990D01*
X229586Y514850D01*
X229567Y514711D01*
X229571Y514650D01*
X229567Y514589D01*
X229584Y514450D01*
X229593Y514310D01*
X229610Y514250D01*
X229617Y514189D01*
X229662Y514056D01*
X229698Y513921D01*
X229726Y513866D01*
X229745Y513807D01*
X229815Y513686D01*
X229878Y513561D01*
X229916Y513512D01*
X229946Y513459D01*
X230074Y513308D01*
X230125Y513243D01*
X230142Y513228D01*
X230161Y513206D01*
X237089Y506278D01*
X237103Y506266D01*
X237114Y506253D01*
X237258Y506139D01*
X237401Y506023D01*
X237416Y506014D01*
X237430Y506003D01*
X237595Y505920D01*
X237756Y505834D01*
X237773Y505829D01*
X237789Y505821D01*
X237967Y505771D01*
X238142Y505719D01*
X238160Y505718D01*
X238177Y505713D01*
X238360Y505699D01*
X238543Y505683D01*
X238561Y505685D01*
G37*
%LPC*%
G36*
X193516Y434459D02*
X193516Y434459D01*
X185232Y437891D01*
X178891Y444232D01*
X175459Y452516D01*
X175459Y461484D01*
X178891Y469768D01*
X185232Y476109D01*
X193516Y479541D01*
X202484Y479541D01*
X210768Y476109D01*
X217109Y469768D01*
X220541Y461484D01*
X220541Y452516D01*
X217109Y444232D01*
X210768Y437891D01*
X210296Y437695D01*
X202484Y434459D01*
X193516Y434459D01*
G37*
%LPD*%
%LPC*%
G36*
X427516Y860459D02*
X427516Y860459D01*
X419232Y863891D01*
X412891Y870232D01*
X409459Y878516D01*
X409459Y887484D01*
X412891Y895768D01*
X419232Y902109D01*
X421787Y903167D01*
X421787Y903168D01*
X427516Y905541D01*
X436484Y905541D01*
X444768Y902109D01*
X451109Y895768D01*
X454541Y887484D01*
X454541Y878516D01*
X451109Y870232D01*
X444768Y863891D01*
X436484Y860459D01*
X427516Y860459D01*
G37*
%LPD*%
G36*
X445020Y518034D02*
X445020Y518034D01*
X445047Y518032D01*
X445221Y518054D01*
X445394Y518071D01*
X445420Y518079D01*
X445447Y518082D01*
X445612Y518138D01*
X445779Y518189D01*
X445803Y518202D01*
X445828Y518211D01*
X445980Y518298D01*
X446133Y518381D01*
X446154Y518398D01*
X446177Y518412D01*
X446430Y518626D01*
X447957Y520153D01*
X447960Y520157D01*
X447964Y520160D01*
X448088Y520313D01*
X448212Y520465D01*
X448214Y520469D01*
X448217Y520472D01*
X448310Y520650D01*
X448401Y520821D01*
X448402Y520825D01*
X448404Y520829D01*
X448460Y521020D01*
X448516Y521207D01*
X448516Y521211D01*
X448517Y521215D01*
X448534Y521408D01*
X448552Y521608D01*
X448552Y521612D01*
X448552Y521616D01*
X448531Y521806D01*
X448509Y522008D01*
X448507Y522012D01*
X448507Y522017D01*
X448448Y522199D01*
X448387Y522392D01*
X448385Y522396D01*
X448384Y522400D01*
X448287Y522572D01*
X448192Y522744D01*
X448190Y522747D01*
X448187Y522751D01*
X448057Y522903D01*
X447932Y523051D01*
X447928Y523054D01*
X447925Y523057D01*
X447770Y523179D01*
X447616Y523301D01*
X447612Y523303D01*
X447608Y523305D01*
X447432Y523394D01*
X447257Y523483D01*
X447253Y523484D01*
X447249Y523486D01*
X447059Y523538D01*
X446869Y523591D01*
X446865Y523591D01*
X446860Y523592D01*
X446665Y523606D01*
X446468Y523620D01*
X446463Y523620D01*
X446459Y523620D01*
X446262Y523594D01*
X446068Y523570D01*
X446064Y523569D01*
X446059Y523568D01*
X445744Y523466D01*
X443240Y522429D01*
X439393Y522429D01*
X435838Y523902D01*
X433118Y526622D01*
X431645Y530176D01*
X431645Y534024D01*
X433118Y537578D01*
X435838Y540298D01*
X439393Y541771D01*
X443240Y541771D01*
X446635Y540364D01*
X446648Y540360D01*
X446660Y540354D01*
X446840Y540302D01*
X447021Y540248D01*
X447034Y540246D01*
X447047Y540243D01*
X447235Y540227D01*
X447422Y540210D01*
X447435Y540211D01*
X447448Y540210D01*
X447635Y540232D01*
X447822Y540251D01*
X447835Y540255D01*
X447848Y540257D01*
X448027Y540315D01*
X448207Y540371D01*
X448218Y540377D01*
X448231Y540382D01*
X448395Y540474D01*
X448560Y540564D01*
X448570Y540573D01*
X448582Y540580D01*
X448723Y540702D01*
X448868Y540823D01*
X448876Y540834D01*
X448886Y540843D01*
X449001Y540991D01*
X449119Y541138D01*
X449125Y541150D01*
X449133Y541161D01*
X449217Y541329D01*
X449303Y541496D01*
X449306Y541509D01*
X449312Y541521D01*
X449362Y541704D01*
X449412Y541884D01*
X449413Y541897D01*
X449417Y541910D01*
X449444Y542241D01*
X449444Y546923D01*
X449435Y547016D01*
X449436Y547109D01*
X449415Y547216D01*
X449404Y547324D01*
X449377Y547413D01*
X449359Y547504D01*
X449318Y547605D01*
X449286Y547709D01*
X449242Y547791D01*
X449206Y547877D01*
X449146Y547967D01*
X449094Y548063D01*
X449035Y548134D01*
X448983Y548212D01*
X448906Y548288D01*
X448837Y548372D01*
X448764Y548430D01*
X448698Y548496D01*
X448607Y548556D01*
X448523Y548624D01*
X448440Y548667D01*
X448362Y548719D01*
X448262Y548760D01*
X448165Y548810D01*
X448076Y548835D01*
X447990Y548871D01*
X447883Y548891D01*
X447779Y548921D01*
X447686Y548929D01*
X447594Y548946D01*
X447485Y548945D01*
X447377Y548954D01*
X447285Y548943D01*
X447192Y548942D01*
X447085Y548920D01*
X446977Y548907D01*
X446889Y548878D01*
X446798Y548859D01*
X446674Y548808D01*
X446595Y548782D01*
X446551Y548758D01*
X446491Y548733D01*
X445217Y548084D01*
X443855Y547641D01*
X443855Y556992D01*
X443854Y557010D01*
X443855Y557027D01*
X443834Y557209D01*
X443816Y557392D01*
X443810Y557409D01*
X443808Y557427D01*
X443783Y557505D01*
X443822Y557642D01*
X443824Y557660D01*
X443828Y557677D01*
X443855Y558008D01*
X443855Y567359D01*
X445217Y566916D01*
X446491Y566267D01*
X446578Y566233D01*
X446660Y566190D01*
X446764Y566160D01*
X446866Y566121D01*
X446958Y566105D01*
X447047Y566079D01*
X447155Y566070D01*
X447262Y566051D01*
X447355Y566054D01*
X447448Y566046D01*
X447556Y566059D01*
X447665Y566061D01*
X447756Y566082D01*
X447848Y566093D01*
X447952Y566127D01*
X448057Y566151D01*
X448142Y566189D01*
X448231Y566218D01*
X448326Y566271D01*
X448425Y566316D01*
X448500Y566370D01*
X448582Y566416D01*
X448664Y566487D01*
X448752Y566550D01*
X448816Y566618D01*
X448886Y566679D01*
X448953Y566765D01*
X449027Y566844D01*
X449076Y566923D01*
X449133Y566997D01*
X449181Y567094D01*
X449239Y567187D01*
X449271Y567274D01*
X449312Y567357D01*
X449341Y567462D01*
X449378Y567564D01*
X449393Y567656D01*
X449417Y567746D01*
X449428Y567880D01*
X449441Y567962D01*
X449439Y568011D01*
X449444Y568077D01*
X449444Y572759D01*
X449443Y572773D01*
X449444Y572786D01*
X449423Y572972D01*
X449404Y573160D01*
X449400Y573173D01*
X449399Y573186D01*
X449341Y573365D01*
X449286Y573545D01*
X449280Y573556D01*
X449276Y573569D01*
X449184Y573734D01*
X449094Y573899D01*
X449086Y573909D01*
X449079Y573921D01*
X448957Y574064D01*
X448837Y574208D01*
X448826Y574216D01*
X448817Y574227D01*
X448669Y574343D01*
X448523Y574460D01*
X448511Y574467D01*
X448500Y574475D01*
X448331Y574560D01*
X448165Y574646D01*
X448153Y574650D01*
X448141Y574656D01*
X447958Y574706D01*
X447779Y574757D01*
X447765Y574758D01*
X447752Y574762D01*
X447564Y574775D01*
X447377Y574790D01*
X447364Y574789D01*
X447351Y574790D01*
X447163Y574765D01*
X446977Y574743D01*
X446965Y574739D01*
X446951Y574737D01*
X446635Y574636D01*
X443240Y573229D01*
X439393Y573229D01*
X435838Y574702D01*
X434593Y575947D01*
X434579Y575958D01*
X434568Y575972D01*
X434423Y576086D01*
X434282Y576202D01*
X434266Y576210D01*
X434252Y576221D01*
X434088Y576304D01*
X433926Y576390D01*
X433909Y576395D01*
X433893Y576404D01*
X433716Y576453D01*
X433540Y576505D01*
X433522Y576507D01*
X433505Y576512D01*
X433322Y576525D01*
X433139Y576542D01*
X433121Y576540D01*
X433103Y576541D01*
X432921Y576518D01*
X432739Y576498D01*
X432722Y576493D01*
X432704Y576490D01*
X432531Y576432D01*
X432355Y576377D01*
X432339Y576368D01*
X432322Y576362D01*
X432164Y576271D01*
X432003Y576182D01*
X431989Y576170D01*
X431973Y576161D01*
X431720Y575947D01*
X424292Y568518D01*
X424286Y568511D01*
X424280Y568506D01*
X424159Y568356D01*
X424037Y568207D01*
X424033Y568199D01*
X424027Y568192D01*
X423938Y568021D01*
X423848Y567851D01*
X423846Y567843D01*
X423842Y567835D01*
X423788Y567649D01*
X423734Y567465D01*
X423733Y567456D01*
X423730Y567448D01*
X423715Y567256D01*
X423697Y567064D01*
X423698Y567055D01*
X423698Y567046D01*
X423720Y566857D01*
X423741Y566664D01*
X423743Y566655D01*
X423744Y566647D01*
X423804Y566465D01*
X423862Y566280D01*
X423866Y566272D01*
X423869Y566264D01*
X423964Y566095D01*
X424057Y565928D01*
X424063Y565921D01*
X424067Y565913D01*
X424193Y565767D01*
X424317Y565621D01*
X424325Y565615D01*
X424330Y565608D01*
X424482Y565491D01*
X424633Y565371D01*
X424641Y565367D01*
X424648Y565362D01*
X424821Y565276D01*
X424992Y565189D01*
X425001Y565186D01*
X425009Y565182D01*
X425195Y565132D01*
X425282Y565108D01*
X426541Y563849D01*
X426541Y526151D01*
X425339Y524949D01*
X401238Y524949D01*
X401212Y524947D01*
X401185Y524949D01*
X401011Y524927D01*
X400838Y524909D01*
X400812Y524902D01*
X400786Y524898D01*
X400620Y524843D01*
X400453Y524791D01*
X400429Y524778D01*
X400404Y524770D01*
X400253Y524683D01*
X400099Y524599D01*
X400078Y524582D01*
X400055Y524569D01*
X399802Y524354D01*
X396947Y521499D01*
X396941Y521492D01*
X396934Y521486D01*
X396814Y521337D01*
X396691Y521187D01*
X396687Y521180D01*
X396682Y521173D01*
X396593Y521002D01*
X396503Y520832D01*
X396500Y520823D01*
X396496Y520815D01*
X396443Y520631D01*
X396388Y520446D01*
X396387Y520437D01*
X396385Y520428D01*
X396369Y520237D01*
X396352Y520045D01*
X396353Y520036D01*
X396352Y520027D01*
X396374Y519838D01*
X396395Y519645D01*
X396398Y519636D01*
X396399Y519627D01*
X396458Y519445D01*
X396517Y519261D01*
X396521Y519253D01*
X396524Y519244D01*
X396619Y519076D01*
X396711Y518908D01*
X396717Y518902D01*
X396722Y518894D01*
X396848Y518748D01*
X396972Y518601D01*
X396979Y518596D01*
X396985Y518589D01*
X397136Y518472D01*
X397288Y518352D01*
X397296Y518348D01*
X397303Y518342D01*
X397475Y518257D01*
X397647Y518169D01*
X397655Y518167D01*
X397663Y518163D01*
X397849Y518113D01*
X398035Y518061D01*
X398044Y518061D01*
X398052Y518058D01*
X398383Y518031D01*
X444994Y518031D01*
X445020Y518034D01*
G37*
G36*
X335327Y589084D02*
X335327Y589084D01*
X335336Y589083D01*
X335526Y589103D01*
X335719Y589123D01*
X335727Y589125D01*
X335736Y589126D01*
X335920Y589184D01*
X336104Y589241D01*
X336112Y589245D01*
X336120Y589248D01*
X336289Y589341D01*
X336458Y589433D01*
X336465Y589438D01*
X336473Y589443D01*
X336620Y589568D01*
X336767Y589690D01*
X336773Y589697D01*
X336779Y589703D01*
X336900Y589855D01*
X337019Y590004D01*
X337023Y590012D01*
X337029Y590019D01*
X337117Y590192D01*
X337205Y590361D01*
X337207Y590370D01*
X337211Y590378D01*
X337263Y590563D01*
X337316Y590748D01*
X337317Y590757D01*
X337319Y590766D01*
X337333Y590958D01*
X337349Y591150D01*
X337348Y591158D01*
X337349Y591167D01*
X337325Y591359D01*
X337302Y591549D01*
X337299Y591558D01*
X337298Y591567D01*
X337237Y591749D01*
X337177Y591932D01*
X337173Y591940D01*
X337170Y591948D01*
X337074Y592116D01*
X336980Y592283D01*
X336974Y592290D01*
X336969Y592297D01*
X336755Y592550D01*
X336669Y592636D01*
X336669Y612364D01*
X337871Y613566D01*
X355569Y613566D01*
X356771Y612364D01*
X356771Y610101D01*
X356772Y610088D01*
X356771Y610075D01*
X356792Y609888D01*
X356811Y609701D01*
X356815Y609688D01*
X356816Y609675D01*
X356874Y609495D01*
X356929Y609316D01*
X356935Y609304D01*
X356939Y609291D01*
X357031Y609127D01*
X357121Y608962D01*
X357129Y608952D01*
X357136Y608940D01*
X357259Y608796D01*
X357378Y608653D01*
X357389Y608644D01*
X357397Y608634D01*
X357546Y608517D01*
X357692Y608400D01*
X357704Y608394D01*
X357714Y608386D01*
X357884Y608301D01*
X358049Y608215D01*
X358062Y608211D01*
X358074Y608205D01*
X358256Y608155D01*
X358436Y608103D01*
X358450Y608102D01*
X358463Y608099D01*
X358649Y608086D01*
X358838Y608071D01*
X358851Y608072D01*
X358864Y608071D01*
X359050Y608095D01*
X359237Y608117D01*
X359250Y608122D01*
X359263Y608123D01*
X359579Y608225D01*
X359840Y608333D01*
X361990Y608333D01*
X361998Y608334D01*
X362007Y608333D01*
X362201Y608354D01*
X362390Y608373D01*
X362399Y608375D01*
X362408Y608376D01*
X362592Y608435D01*
X362775Y608491D01*
X362783Y608495D01*
X362791Y608498D01*
X362960Y608591D01*
X363129Y608683D01*
X363136Y608688D01*
X363144Y608693D01*
X363291Y608817D01*
X363438Y608940D01*
X363444Y608947D01*
X363451Y608953D01*
X363571Y609105D01*
X363691Y609254D01*
X363695Y609262D01*
X363700Y609269D01*
X363788Y609442D01*
X363876Y609611D01*
X363879Y609620D01*
X363883Y609628D01*
X363935Y609814D01*
X363988Y609998D01*
X363988Y610007D01*
X363991Y610016D01*
X364005Y610209D01*
X364020Y610400D01*
X364019Y610408D01*
X364020Y610417D01*
X363996Y610610D01*
X363974Y610799D01*
X363971Y610808D01*
X363970Y610817D01*
X363908Y610999D01*
X363849Y611182D01*
X363844Y611190D01*
X363841Y611198D01*
X363745Y611365D01*
X363651Y611533D01*
X363645Y611540D01*
X363641Y611547D01*
X363426Y611800D01*
X360073Y615153D01*
X358639Y616587D01*
X358017Y618088D01*
X358017Y620918D01*
X358015Y620936D01*
X358017Y620954D01*
X357996Y621136D01*
X357977Y621319D01*
X357972Y621336D01*
X357970Y621353D01*
X357913Y621528D01*
X357859Y621704D01*
X357851Y621719D01*
X357845Y621736D01*
X357755Y621896D01*
X357667Y622058D01*
X357656Y622071D01*
X357647Y622087D01*
X357527Y622226D01*
X357410Y622367D01*
X357396Y622378D01*
X357384Y622392D01*
X357239Y622504D01*
X357096Y622619D01*
X357080Y622627D01*
X357066Y622638D01*
X356901Y622720D01*
X356739Y622805D01*
X356722Y622810D01*
X356706Y622818D01*
X356527Y622865D01*
X356352Y622916D01*
X356334Y622918D01*
X356317Y622922D01*
X355986Y622949D01*
X330114Y622949D01*
X330096Y622947D01*
X330078Y622949D01*
X329896Y622928D01*
X329713Y622909D01*
X329696Y622904D01*
X329679Y622902D01*
X329504Y622845D01*
X329328Y622791D01*
X329313Y622783D01*
X329296Y622777D01*
X329136Y622687D01*
X328974Y622599D01*
X328961Y622588D01*
X328945Y622579D01*
X328806Y622459D01*
X328665Y622342D01*
X328654Y622328D01*
X328640Y622316D01*
X328528Y622171D01*
X328413Y622028D01*
X328405Y622012D01*
X328394Y621998D01*
X328312Y621833D01*
X328227Y621671D01*
X328222Y621654D01*
X328214Y621638D01*
X328167Y621459D01*
X328116Y621284D01*
X328114Y621266D01*
X328110Y621249D01*
X328083Y620918D01*
X328083Y620188D01*
X327461Y618687D01*
X326117Y617343D01*
X326025Y617230D01*
X325926Y617122D01*
X325897Y617075D01*
X325862Y617032D01*
X325794Y616903D01*
X325718Y616777D01*
X325699Y616725D01*
X325674Y616676D01*
X325632Y616536D01*
X325583Y616398D01*
X325575Y616343D01*
X325559Y616290D01*
X325545Y616144D01*
X325524Y616000D01*
X325527Y615945D01*
X325522Y615889D01*
X325538Y615743D01*
X325546Y615598D01*
X325560Y615544D01*
X325566Y615489D01*
X325610Y615349D01*
X325646Y615208D01*
X325671Y615158D01*
X325687Y615105D01*
X325758Y614977D01*
X325822Y614845D01*
X325855Y614801D01*
X325882Y614753D01*
X325977Y614641D01*
X326065Y614525D01*
X326107Y614488D01*
X326143Y614446D01*
X326257Y614355D01*
X326367Y614258D01*
X326415Y614231D01*
X326458Y614196D01*
X326589Y614130D01*
X326715Y614057D01*
X326775Y614035D01*
X326817Y614014D01*
X326898Y613991D01*
X327028Y613945D01*
X327261Y613883D01*
X327840Y613548D01*
X328313Y613075D01*
X328648Y612496D01*
X328821Y611850D01*
X328821Y606499D01*
X320248Y606499D01*
X320230Y606497D01*
X320213Y606499D01*
X320030Y606478D01*
X319848Y606459D01*
X319831Y606454D01*
X319813Y606452D01*
X319638Y606395D01*
X319463Y606341D01*
X319447Y606333D01*
X319430Y606327D01*
X319270Y606237D01*
X319109Y606149D01*
X319095Y606138D01*
X319079Y606129D01*
X318940Y606009D01*
X318799Y605892D01*
X318788Y605878D01*
X318775Y605866D01*
X318662Y605721D01*
X318547Y605578D01*
X318539Y605562D01*
X318528Y605548D01*
X318446Y605383D01*
X318362Y605221D01*
X318357Y605204D01*
X318349Y605188D01*
X318301Y605009D01*
X318250Y604834D01*
X318249Y604816D01*
X318244Y604799D01*
X318217Y604468D01*
X318217Y600532D01*
X318219Y600514D01*
X318217Y600496D01*
X318239Y600313D01*
X318257Y600131D01*
X318262Y600114D01*
X318264Y600097D01*
X318321Y599922D01*
X318375Y599746D01*
X318383Y599731D01*
X318389Y599714D01*
X318479Y599554D01*
X318567Y599392D01*
X318578Y599379D01*
X318587Y599363D01*
X318707Y599224D01*
X318825Y599083D01*
X318838Y599072D01*
X318850Y599058D01*
X318995Y598946D01*
X319138Y598831D01*
X319154Y598823D01*
X319168Y598812D01*
X319333Y598730D01*
X319496Y598645D01*
X319513Y598640D01*
X319529Y598632D01*
X319707Y598584D01*
X319882Y598534D01*
X319900Y598532D01*
X319917Y598528D01*
X320248Y598501D01*
X328821Y598501D01*
X328821Y593150D01*
X328648Y592504D01*
X328431Y592130D01*
X328371Y591996D01*
X328304Y591867D01*
X328288Y591813D01*
X328266Y591763D01*
X328233Y591620D01*
X328192Y591480D01*
X328188Y591424D01*
X328175Y591370D01*
X328171Y591224D01*
X328159Y591078D01*
X328166Y591023D01*
X328164Y590968D01*
X328189Y590824D01*
X328206Y590679D01*
X328224Y590626D01*
X328233Y590571D01*
X328286Y590435D01*
X328331Y590296D01*
X328358Y590247D01*
X328378Y590196D01*
X328457Y590073D01*
X328529Y589945D01*
X328565Y589903D01*
X328595Y589856D01*
X328697Y589751D01*
X328792Y589640D01*
X328836Y589607D01*
X328875Y589567D01*
X328995Y589483D01*
X329110Y589394D01*
X329160Y589369D01*
X329206Y589337D01*
X329340Y589280D01*
X329471Y589214D01*
X329525Y589200D01*
X329575Y589178D01*
X329718Y589148D01*
X329860Y589110D01*
X329923Y589105D01*
X329969Y589095D01*
X330053Y589094D01*
X330190Y589083D01*
X335318Y589083D01*
X335327Y589084D01*
G37*
%LPC*%
G36*
X318263Y722263D02*
X318263Y722263D01*
X318263Y743241D01*
X337035Y743241D01*
X337681Y743068D01*
X338260Y742733D01*
X338733Y742260D01*
X339068Y741681D01*
X339241Y741035D01*
X339241Y722263D01*
X318263Y722263D01*
G37*
%LPD*%
%LPC*%
G36*
X289159Y722263D02*
X289159Y722263D01*
X289159Y741035D01*
X289332Y741681D01*
X289667Y742260D01*
X290140Y742733D01*
X290719Y743068D01*
X291365Y743241D01*
X310137Y743241D01*
X310137Y722263D01*
X289159Y722263D01*
G37*
%LPD*%
G36*
X387986Y630939D02*
X387986Y630939D01*
X388004Y630937D01*
X388186Y630959D01*
X388369Y630977D01*
X388386Y630982D01*
X388403Y630984D01*
X388578Y631041D01*
X388754Y631095D01*
X388769Y631103D01*
X388786Y631109D01*
X388946Y631199D01*
X389108Y631287D01*
X389121Y631298D01*
X389137Y631307D01*
X389276Y631427D01*
X389417Y631545D01*
X389428Y631558D01*
X389442Y631570D01*
X389554Y631715D01*
X389669Y631858D01*
X389677Y631874D01*
X389688Y631888D01*
X389770Y632053D01*
X389855Y632216D01*
X389860Y632233D01*
X389868Y632249D01*
X389915Y632427D01*
X389966Y632602D01*
X389968Y632620D01*
X389972Y632637D01*
X389999Y632968D01*
X389999Y642548D01*
X390125Y642562D01*
X390315Y642581D01*
X390323Y642583D01*
X390332Y642584D01*
X390517Y642643D01*
X390699Y642699D01*
X390707Y642703D01*
X390716Y642706D01*
X390884Y642799D01*
X391054Y642891D01*
X391060Y642896D01*
X391068Y642901D01*
X391215Y643025D01*
X391363Y643148D01*
X391368Y643155D01*
X391375Y643161D01*
X391495Y643313D01*
X391615Y643462D01*
X391619Y643470D01*
X391625Y643477D01*
X391713Y643650D01*
X391801Y643819D01*
X391803Y643828D01*
X391807Y643836D01*
X391859Y644022D01*
X391912Y644206D01*
X391913Y644215D01*
X391915Y644224D01*
X391929Y644417D01*
X391945Y644608D01*
X391944Y644616D01*
X391945Y644625D01*
X391920Y644818D01*
X391898Y645007D01*
X391895Y645016D01*
X391894Y645025D01*
X391833Y645207D01*
X391773Y645390D01*
X391769Y645398D01*
X391766Y645406D01*
X391670Y645573D01*
X391575Y645741D01*
X391569Y645748D01*
X391565Y645755D01*
X391350Y646008D01*
X386352Y651006D01*
X386332Y651023D01*
X386314Y651043D01*
X386176Y651150D01*
X386041Y651261D01*
X386017Y651274D01*
X385996Y651290D01*
X385839Y651368D01*
X385685Y651450D01*
X385660Y651457D01*
X385636Y651469D01*
X385466Y651515D01*
X385299Y651565D01*
X385273Y651567D01*
X385247Y651574D01*
X384916Y651601D01*
X358481Y651601D01*
X358455Y651598D01*
X358428Y651600D01*
X358254Y651578D01*
X358080Y651561D01*
X358055Y651553D01*
X358028Y651550D01*
X357863Y651494D01*
X357696Y651443D01*
X357672Y651430D01*
X357647Y651422D01*
X357495Y651334D01*
X357342Y651251D01*
X357321Y651234D01*
X357298Y651221D01*
X357045Y651006D01*
X354078Y648039D01*
X354061Y648018D01*
X354040Y648001D01*
X353933Y647863D01*
X353823Y647727D01*
X353810Y647704D01*
X353794Y647683D01*
X353716Y647526D01*
X353634Y647372D01*
X353626Y647346D01*
X353614Y647322D01*
X353569Y647153D01*
X353519Y646986D01*
X353517Y646959D01*
X353510Y646933D01*
X353483Y646603D01*
X353483Y644082D01*
X353485Y644064D01*
X353483Y644046D01*
X353504Y643864D01*
X353523Y643681D01*
X353528Y643664D01*
X353530Y643647D01*
X353587Y643472D01*
X353641Y643296D01*
X353649Y643281D01*
X353655Y643264D01*
X353745Y643104D01*
X353833Y642942D01*
X353844Y642929D01*
X353853Y642913D01*
X353973Y642774D01*
X354090Y642633D01*
X354104Y642622D01*
X354116Y642608D01*
X354261Y642496D01*
X354404Y642381D01*
X354420Y642373D01*
X354434Y642362D01*
X354599Y642280D01*
X354761Y642195D01*
X354778Y642190D01*
X354794Y642182D01*
X354973Y642135D01*
X355148Y642084D01*
X355166Y642082D01*
X355183Y642078D01*
X355514Y642051D01*
X380426Y642051D01*
X380589Y642067D01*
X380753Y642077D01*
X380789Y642087D01*
X380827Y642091D01*
X380983Y642139D01*
X381142Y642181D01*
X381180Y642199D01*
X381212Y642209D01*
X381288Y642250D01*
X381442Y642323D01*
X381519Y642368D01*
X382165Y642541D01*
X385001Y642541D01*
X385001Y632968D01*
X385002Y632950D01*
X385001Y632933D01*
X385022Y632750D01*
X385041Y632568D01*
X385046Y632551D01*
X385048Y632533D01*
X385105Y632358D01*
X385159Y632183D01*
X385167Y632167D01*
X385173Y632150D01*
X385263Y631990D01*
X385350Y631829D01*
X385362Y631815D01*
X385371Y631799D01*
X385491Y631660D01*
X385608Y631519D01*
X385622Y631508D01*
X385634Y631495D01*
X385779Y631382D01*
X385922Y631267D01*
X385938Y631259D01*
X385952Y631248D01*
X386117Y631166D01*
X386279Y631082D01*
X386296Y631077D01*
X386312Y631069D01*
X386491Y631021D01*
X386666Y630970D01*
X386684Y630969D01*
X386701Y630964D01*
X387032Y630937D01*
X387968Y630937D01*
X387986Y630939D01*
G37*
%LPC*%
G36*
X275776Y885329D02*
X275776Y885329D01*
X272222Y886802D01*
X269502Y889522D01*
X268029Y893076D01*
X268029Y896924D01*
X269502Y900478D01*
X272222Y903198D01*
X275776Y904671D01*
X279624Y904671D01*
X283178Y903198D01*
X285898Y900478D01*
X287371Y896924D01*
X287371Y893076D01*
X285898Y889522D01*
X283178Y886802D01*
X279624Y885329D01*
X275776Y885329D01*
G37*
%LPD*%
%LPC*%
G36*
X250376Y885329D02*
X250376Y885329D01*
X246822Y886802D01*
X244102Y889522D01*
X242629Y893076D01*
X242629Y896924D01*
X244102Y900478D01*
X246822Y903198D01*
X250376Y904671D01*
X254224Y904671D01*
X257778Y903198D01*
X260498Y900478D01*
X261971Y896924D01*
X261971Y893076D01*
X260498Y889522D01*
X257778Y886802D01*
X254224Y885329D01*
X250376Y885329D01*
G37*
%LPD*%
G36*
X405327Y589084D02*
X405327Y589084D01*
X405336Y589083D01*
X405526Y589103D01*
X405719Y589123D01*
X405727Y589125D01*
X405736Y589126D01*
X405920Y589184D01*
X406104Y589241D01*
X406112Y589245D01*
X406120Y589248D01*
X406289Y589341D01*
X406458Y589433D01*
X406465Y589438D01*
X406473Y589443D01*
X406620Y589568D01*
X406767Y589690D01*
X406773Y589697D01*
X406779Y589703D01*
X406900Y589855D01*
X407019Y590004D01*
X407023Y590012D01*
X407029Y590019D01*
X407117Y590192D01*
X407205Y590361D01*
X407207Y590370D01*
X407211Y590378D01*
X407263Y590563D01*
X407316Y590748D01*
X407317Y590757D01*
X407319Y590766D01*
X407333Y590958D01*
X407349Y591150D01*
X407348Y591158D01*
X407349Y591167D01*
X407325Y591359D01*
X407302Y591549D01*
X407299Y591558D01*
X407298Y591567D01*
X407237Y591749D01*
X407177Y591932D01*
X407173Y591940D01*
X407170Y591948D01*
X407074Y592116D01*
X406980Y592283D01*
X406974Y592290D01*
X406969Y592297D01*
X406755Y592550D01*
X406669Y592636D01*
X406669Y605935D01*
X406667Y605962D01*
X406669Y605989D01*
X406647Y606163D01*
X406629Y606336D01*
X406622Y606362D01*
X406618Y606388D01*
X406563Y606554D01*
X406511Y606721D01*
X406498Y606745D01*
X406490Y606770D01*
X406403Y606922D01*
X406319Y607075D01*
X406302Y607096D01*
X406289Y607119D01*
X406074Y607372D01*
X404874Y608572D01*
X404853Y608589D01*
X404836Y608610D01*
X404698Y608717D01*
X404562Y608827D01*
X404539Y608840D01*
X404518Y608856D01*
X404361Y608934D01*
X404207Y609016D01*
X404181Y609024D01*
X404157Y609036D01*
X403988Y609081D01*
X403821Y609131D01*
X403794Y609133D01*
X403768Y609140D01*
X403437Y609167D01*
X401840Y609167D01*
X401629Y609254D01*
X401616Y609258D01*
X401605Y609264D01*
X401424Y609316D01*
X401244Y609371D01*
X401231Y609372D01*
X401218Y609376D01*
X401029Y609391D01*
X400843Y609409D01*
X400830Y609408D01*
X400816Y609409D01*
X400630Y609387D01*
X400443Y609367D01*
X400430Y609363D01*
X400417Y609362D01*
X400239Y609304D01*
X400058Y609248D01*
X400047Y609241D01*
X400034Y609237D01*
X399870Y609145D01*
X399705Y609054D01*
X399695Y609046D01*
X399683Y609039D01*
X399541Y608916D01*
X399397Y608795D01*
X399389Y608785D01*
X399378Y608776D01*
X399263Y608627D01*
X399146Y608480D01*
X399140Y608468D01*
X399132Y608458D01*
X399048Y608289D01*
X398962Y608122D01*
X398958Y608109D01*
X398952Y608097D01*
X398903Y607915D01*
X398852Y607735D01*
X398851Y607722D01*
X398848Y607709D01*
X398821Y607378D01*
X398821Y606499D01*
X390248Y606499D01*
X390230Y606497D01*
X390213Y606499D01*
X390030Y606478D01*
X389848Y606459D01*
X389831Y606454D01*
X389813Y606452D01*
X389638Y606395D01*
X389463Y606341D01*
X389447Y606333D01*
X389430Y606327D01*
X389270Y606237D01*
X389109Y606149D01*
X389095Y606138D01*
X389079Y606129D01*
X388940Y606009D01*
X388799Y605892D01*
X388788Y605878D01*
X388775Y605866D01*
X388662Y605721D01*
X388547Y605578D01*
X388539Y605562D01*
X388528Y605548D01*
X388446Y605383D01*
X388362Y605221D01*
X388357Y605204D01*
X388349Y605188D01*
X388301Y605009D01*
X388250Y604834D01*
X388249Y604816D01*
X388244Y604799D01*
X388217Y604468D01*
X388217Y600532D01*
X388219Y600514D01*
X388217Y600496D01*
X388239Y600313D01*
X388257Y600131D01*
X388262Y600114D01*
X388264Y600097D01*
X388321Y599922D01*
X388375Y599746D01*
X388383Y599731D01*
X388389Y599714D01*
X388479Y599554D01*
X388567Y599392D01*
X388578Y599379D01*
X388587Y599363D01*
X388707Y599224D01*
X388825Y599083D01*
X388838Y599072D01*
X388850Y599058D01*
X388995Y598946D01*
X389138Y598831D01*
X389154Y598823D01*
X389168Y598812D01*
X389333Y598730D01*
X389496Y598645D01*
X389513Y598640D01*
X389529Y598632D01*
X389707Y598584D01*
X389882Y598534D01*
X389900Y598532D01*
X389917Y598528D01*
X390248Y598501D01*
X398821Y598501D01*
X398821Y593150D01*
X398648Y592504D01*
X398431Y592130D01*
X398371Y591996D01*
X398304Y591867D01*
X398288Y591813D01*
X398266Y591763D01*
X398233Y591620D01*
X398192Y591480D01*
X398188Y591424D01*
X398175Y591370D01*
X398171Y591224D01*
X398159Y591078D01*
X398166Y591023D01*
X398164Y590968D01*
X398189Y590824D01*
X398206Y590679D01*
X398224Y590626D01*
X398233Y590571D01*
X398286Y590435D01*
X398331Y590296D01*
X398358Y590247D01*
X398378Y590196D01*
X398457Y590073D01*
X398529Y589945D01*
X398565Y589903D01*
X398595Y589856D01*
X398697Y589751D01*
X398792Y589640D01*
X398836Y589607D01*
X398875Y589567D01*
X398995Y589483D01*
X399110Y589394D01*
X399160Y589369D01*
X399206Y589337D01*
X399340Y589280D01*
X399471Y589214D01*
X399525Y589200D01*
X399575Y589178D01*
X399718Y589148D01*
X399860Y589110D01*
X399923Y589105D01*
X399969Y589095D01*
X400053Y589094D01*
X400190Y589083D01*
X405318Y589083D01*
X405327Y589084D01*
G37*
G36*
X282964Y841725D02*
X282964Y841725D01*
X283081Y841730D01*
X283163Y841750D01*
X283247Y841760D01*
X283358Y841798D01*
X283472Y841826D01*
X283549Y841862D01*
X283628Y841888D01*
X283730Y841947D01*
X283836Y841997D01*
X283904Y842047D01*
X283977Y842089D01*
X284091Y842186D01*
X284160Y842237D01*
X284188Y842268D01*
X284230Y842304D01*
X287648Y845721D01*
X287662Y845739D01*
X287679Y845753D01*
X287789Y845894D01*
X287903Y846033D01*
X287913Y846053D01*
X287927Y846070D01*
X288007Y846229D01*
X288091Y846389D01*
X288098Y846410D01*
X288108Y846430D01*
X288155Y846602D01*
X288206Y846775D01*
X288208Y846797D01*
X288214Y846818D01*
X288226Y846996D01*
X288242Y847175D01*
X288240Y847198D01*
X288241Y847220D01*
X288218Y847397D01*
X288199Y847576D01*
X288192Y847597D01*
X288189Y847619D01*
X288088Y847935D01*
X288029Y848076D01*
X288029Y851924D01*
X289502Y855478D01*
X292473Y858450D01*
X292479Y858457D01*
X292486Y858462D01*
X292606Y858612D01*
X292728Y858761D01*
X292733Y858769D01*
X292738Y858776D01*
X292827Y858946D01*
X292917Y859117D01*
X292920Y859126D01*
X292924Y859133D01*
X292977Y859318D01*
X293032Y859503D01*
X293033Y859512D01*
X293035Y859520D01*
X293051Y859711D01*
X293068Y859904D01*
X293067Y859913D01*
X293068Y859922D01*
X293046Y860111D01*
X293025Y860304D01*
X293022Y860313D01*
X293021Y860321D01*
X292962Y860503D01*
X292903Y860688D01*
X292899Y860696D01*
X292896Y860704D01*
X292801Y860873D01*
X292708Y861040D01*
X292703Y861047D01*
X292698Y861055D01*
X292572Y861201D01*
X292448Y861347D01*
X292441Y861353D01*
X292435Y861360D01*
X292284Y861477D01*
X292132Y861597D01*
X292124Y861601D01*
X292117Y861606D01*
X291945Y861692D01*
X291773Y861779D01*
X291764Y861782D01*
X291756Y861786D01*
X291570Y861836D01*
X291385Y861887D01*
X291376Y861888D01*
X291368Y861890D01*
X291037Y861917D01*
X279435Y861917D01*
X279268Y861901D01*
X279100Y861889D01*
X279068Y861881D01*
X279035Y861877D01*
X278874Y861828D01*
X278711Y861784D01*
X278682Y861769D01*
X278650Y861759D01*
X278501Y861679D01*
X278351Y861604D01*
X278325Y861583D01*
X278296Y861567D01*
X278167Y861460D01*
X278034Y861356D01*
X278012Y861331D01*
X277986Y861310D01*
X277881Y861179D01*
X277771Y861051D01*
X277755Y861022D01*
X277734Y860996D01*
X277657Y860847D01*
X277574Y860700D01*
X277564Y860668D01*
X277549Y860639D01*
X277502Y860477D01*
X277450Y860317D01*
X277446Y860284D01*
X277437Y860252D01*
X277423Y860084D01*
X277404Y859917D01*
X277407Y859884D01*
X277404Y859850D01*
X277424Y859684D01*
X277438Y859516D01*
X277447Y859484D01*
X277451Y859451D01*
X277503Y859291D01*
X277550Y859129D01*
X277566Y859099D01*
X277576Y859068D01*
X277659Y858921D01*
X277737Y858772D01*
X277758Y858746D01*
X277774Y858717D01*
X277884Y858590D01*
X277990Y858459D01*
X278018Y858435D01*
X278037Y858413D01*
X278105Y858360D01*
X278241Y858243D01*
X278919Y857750D01*
X280050Y856619D01*
X280990Y855325D01*
X281716Y853900D01*
X282159Y852539D01*
X272808Y852539D01*
X272790Y852537D01*
X272773Y852539D01*
X272590Y852518D01*
X272408Y852499D01*
X272391Y852494D01*
X272373Y852492D01*
X272198Y852435D01*
X272023Y852381D01*
X272007Y852373D01*
X271990Y852367D01*
X271830Y852277D01*
X271669Y852189D01*
X271655Y852178D01*
X271639Y852169D01*
X271500Y852049D01*
X271359Y851932D01*
X271348Y851918D01*
X271335Y851906D01*
X271222Y851761D01*
X271107Y851618D01*
X271099Y851602D01*
X271088Y851588D01*
X271006Y851423D01*
X270922Y851261D01*
X270917Y851244D01*
X270909Y851228D01*
X270861Y851049D01*
X270810Y850874D01*
X270809Y850856D01*
X270804Y850839D01*
X270777Y850508D01*
X270777Y849492D01*
X270779Y849474D01*
X270777Y849456D01*
X270799Y849274D01*
X270817Y849091D01*
X270822Y849074D01*
X270824Y849057D01*
X270881Y848882D01*
X270935Y848706D01*
X270943Y848691D01*
X270949Y848674D01*
X271039Y848514D01*
X271127Y848352D01*
X271138Y848339D01*
X271147Y848323D01*
X271267Y848184D01*
X271385Y848043D01*
X271398Y848032D01*
X271410Y848018D01*
X271555Y847906D01*
X271698Y847791D01*
X271714Y847783D01*
X271728Y847772D01*
X271893Y847690D01*
X272056Y847605D01*
X272073Y847600D01*
X272089Y847592D01*
X272267Y847544D01*
X272442Y847494D01*
X272460Y847492D01*
X272477Y847488D01*
X272808Y847461D01*
X282159Y847461D01*
X281716Y846100D01*
X280984Y844663D01*
X280953Y844584D01*
X280914Y844510D01*
X280880Y844397D01*
X280838Y844288D01*
X280823Y844204D01*
X280799Y844124D01*
X280789Y844007D01*
X280768Y843891D01*
X280770Y843807D01*
X280763Y843723D01*
X280775Y843606D01*
X280778Y843488D01*
X280797Y843406D01*
X280806Y843322D01*
X280842Y843211D01*
X280868Y843096D01*
X280902Y843019D01*
X280928Y842939D01*
X280984Y842836D01*
X281033Y842729D01*
X281082Y842660D01*
X281123Y842586D01*
X281198Y842497D01*
X281267Y842401D01*
X281328Y842343D01*
X281383Y842279D01*
X281475Y842207D01*
X281561Y842126D01*
X281633Y842082D01*
X281699Y842030D01*
X281804Y841976D01*
X281904Y841915D01*
X281983Y841885D01*
X282058Y841847D01*
X282171Y841816D01*
X282281Y841775D01*
X282365Y841762D01*
X282446Y841739D01*
X282563Y841731D01*
X282679Y841712D01*
X282763Y841716D01*
X282847Y841710D01*
X282964Y841725D01*
G37*
%LPC*%
G36*
X220226Y540200D02*
X220226Y540200D01*
X220667Y542132D01*
X221469Y544424D01*
X222522Y546612D01*
X223814Y548668D01*
X225328Y550566D01*
X227045Y552284D01*
X228944Y553798D01*
X231000Y555090D01*
X233188Y556143D01*
X235480Y556945D01*
X237412Y557386D01*
X237412Y540200D01*
X220226Y540200D01*
G37*
%LPD*%
%LPC*%
G36*
X354559Y571161D02*
X354559Y571161D01*
X354559Y576751D01*
X363023Y576751D01*
X363669Y576578D01*
X364248Y576243D01*
X364721Y575770D01*
X365056Y575191D01*
X365229Y574545D01*
X365229Y571161D01*
X354559Y571161D01*
G37*
%LPD*%
%LPC*%
G36*
X337795Y571161D02*
X337795Y571161D01*
X337795Y574545D01*
X337968Y575191D01*
X338303Y575770D01*
X338776Y576243D01*
X339355Y576578D01*
X340001Y576751D01*
X348465Y576751D01*
X348465Y571161D01*
X337795Y571161D01*
G37*
%LPD*%
%LPC*%
G36*
X354559Y559477D02*
X354559Y559477D01*
X354559Y565067D01*
X365229Y565067D01*
X365229Y561683D01*
X365056Y561037D01*
X364721Y560458D01*
X364248Y559985D01*
X363669Y559650D01*
X363023Y559477D01*
X354559Y559477D01*
G37*
%LPD*%
%LPC*%
G36*
X340001Y559477D02*
X340001Y559477D01*
X339355Y559650D01*
X338776Y559985D01*
X338303Y560458D01*
X337968Y561037D01*
X337795Y561683D01*
X337795Y565067D01*
X348465Y565067D01*
X348465Y559477D01*
X340001Y559477D01*
G37*
%LPD*%
%LPC*%
G36*
X188999Y418219D02*
X188999Y418219D01*
X188999Y424761D01*
X194350Y424761D01*
X194996Y424588D01*
X195575Y424253D01*
X196048Y423780D01*
X196383Y423201D01*
X196556Y422555D01*
X196556Y418219D01*
X188999Y418219D01*
G37*
%LPD*%
%LPC*%
G36*
X188999Y410221D02*
X188999Y410221D01*
X196556Y410221D01*
X196556Y405885D01*
X196383Y405239D01*
X196048Y404660D01*
X195575Y404187D01*
X194996Y403852D01*
X194350Y403679D01*
X188999Y403679D01*
X188999Y410221D01*
G37*
%LPD*%
%LPC*%
G36*
X173444Y418219D02*
X173444Y418219D01*
X173444Y422555D01*
X173617Y423201D01*
X173952Y423780D01*
X174425Y424253D01*
X175004Y424588D01*
X175650Y424761D01*
X181001Y424761D01*
X181001Y418219D01*
X173444Y418219D01*
G37*
%LPD*%
%LPC*%
G36*
X175650Y403679D02*
X175650Y403679D01*
X175004Y403852D01*
X174425Y404187D01*
X173952Y404660D01*
X173617Y405239D01*
X173444Y405885D01*
X173444Y410221D01*
X181001Y410221D01*
X181001Y403679D01*
X175650Y403679D01*
G37*
%LPD*%
%LPC*%
G36*
X207499Y784499D02*
X207499Y784499D01*
X207499Y789541D01*
X212835Y789541D01*
X213481Y789368D01*
X214060Y789033D01*
X214533Y788560D01*
X214868Y787981D01*
X215041Y787335D01*
X215041Y784499D01*
X207499Y784499D01*
G37*
%LPD*%
%LPC*%
G36*
X194959Y784499D02*
X194959Y784499D01*
X194959Y787335D01*
X195132Y787981D01*
X195467Y788560D01*
X195940Y789033D01*
X196519Y789368D01*
X197165Y789541D01*
X202501Y789541D01*
X202501Y784499D01*
X194959Y784499D01*
G37*
%LPD*%
%LPC*%
G36*
X420039Y848855D02*
X420039Y848855D01*
X420039Y856175D01*
X421400Y855732D01*
X422825Y855006D01*
X424119Y854066D01*
X425250Y852935D01*
X426190Y851642D01*
X426916Y850217D01*
X427359Y848855D01*
X420039Y848855D01*
G37*
%LPD*%
%LPC*%
G36*
X352077Y448723D02*
X352077Y448723D01*
X352077Y456042D01*
X353438Y455600D01*
X354863Y454874D01*
X356157Y453934D01*
X357288Y452803D01*
X358228Y451509D01*
X358954Y450084D01*
X359397Y448723D01*
X352077Y448723D01*
G37*
%LPD*%
%LPC*%
G36*
X407641Y848855D02*
X407641Y848855D01*
X408084Y850217D01*
X408810Y851642D01*
X409750Y852935D01*
X410881Y854066D01*
X412175Y855006D01*
X413600Y855732D01*
X414961Y856175D01*
X414961Y848855D01*
X407641Y848855D01*
G37*
%LPD*%
%LPC*%
G36*
X431458Y560039D02*
X431458Y560039D01*
X431900Y561400D01*
X432626Y562825D01*
X433566Y564119D01*
X434697Y565250D01*
X435991Y566190D01*
X437416Y566916D01*
X438777Y567359D01*
X438777Y560039D01*
X431458Y560039D01*
G37*
%LPD*%
%LPC*%
G36*
X339679Y448723D02*
X339679Y448723D01*
X340122Y450084D01*
X340848Y451509D01*
X341788Y452803D01*
X342919Y453934D01*
X344213Y454874D01*
X345638Y455600D01*
X346999Y456042D01*
X346999Y448723D01*
X339679Y448723D01*
G37*
%LPD*%
%LPC*%
G36*
X352077Y443644D02*
X352077Y443644D01*
X359397Y443644D01*
X358954Y442283D01*
X358228Y440858D01*
X357288Y439565D01*
X356157Y438434D01*
X354863Y437494D01*
X353438Y436767D01*
X352077Y436325D01*
X352077Y443644D01*
G37*
%LPD*%
%LPC*%
G36*
X265239Y599961D02*
X265239Y599961D01*
X272559Y599961D01*
X272116Y598600D01*
X271390Y597175D01*
X270450Y595881D01*
X269319Y594750D01*
X268025Y593810D01*
X266600Y593084D01*
X265239Y592641D01*
X265239Y599961D01*
G37*
%LPD*%
%LPC*%
G36*
X437416Y548084D02*
X437416Y548084D01*
X435991Y548810D01*
X434697Y549750D01*
X433566Y550881D01*
X432626Y552175D01*
X431900Y553600D01*
X431458Y554961D01*
X438777Y554961D01*
X438777Y547641D01*
X437416Y548084D01*
G37*
%LPD*%
%LPC*%
G36*
X345638Y436767D02*
X345638Y436767D01*
X344213Y437494D01*
X342919Y438434D01*
X341788Y439565D01*
X340848Y440858D01*
X340122Y442283D01*
X339679Y443644D01*
X346999Y443644D01*
X346999Y436325D01*
X345638Y436767D01*
G37*
%LPD*%
D10*
X349400Y817500D03*
X336700Y817500D03*
X324000Y817500D03*
X311300Y817500D03*
X298600Y817500D03*
X285900Y817500D03*
X273200Y817500D03*
X260500Y817500D03*
D11*
X205000Y667700D03*
D10*
X222400Y632500D03*
X235100Y632500D03*
X247800Y632500D03*
X260500Y632500D03*
X273200Y632500D03*
X285900Y632500D03*
X298600Y632500D03*
D11*
X205000Y756600D03*
D10*
X247800Y817500D03*
X235100Y817500D03*
X222400Y817500D03*
D11*
X205000Y782000D03*
X205000Y769300D03*
D10*
X362100Y817500D03*
X374800Y817500D03*
X387500Y817500D03*
D11*
X205000Y743900D03*
X205000Y731200D03*
X205000Y718500D03*
X205000Y680400D03*
X205000Y693100D03*
X205000Y705800D03*
D10*
X311300Y632500D03*
X324000Y632500D03*
X336700Y632500D03*
X349400Y632500D03*
X362100Y632500D03*
X374800Y632500D03*
X387500Y632500D03*
D12*
X314200Y718200D03*
D13*
X351512Y568114D03*
X351512Y545000D03*
X351512Y521886D03*
D14*
X413490Y545000D03*
D15*
X318280Y602500D03*
X346720Y602500D03*
X388280Y602500D03*
X416720Y602500D03*
D16*
X185000Y414220D03*
X185000Y385780D03*
D17*
X298738Y446184D03*
X324138Y446184D03*
X349538Y446184D03*
X374938Y446184D03*
X441316Y532100D03*
X441316Y557500D03*
X441316Y582900D03*
X211900Y602500D03*
X237300Y602500D03*
X262700Y602500D03*
X288100Y602500D03*
X323100Y850000D03*
X297700Y850000D03*
X272300Y850000D03*
X246900Y850000D03*
X442900Y846316D03*
X417500Y846316D03*
X392100Y846316D03*
D18*
X220000Y366000D03*
X220000Y385000D03*
X255000Y385000D03*
X255000Y405000D03*
D17*
X332700Y895000D03*
X307300Y895000D03*
X362300Y895000D03*
X387700Y895000D03*
X277700Y895000D03*
X252300Y895000D03*
D18*
X220000Y405000D03*
D19*
X303975Y536137D03*
D20*
X241475Y536137D03*
D21*
X393000Y713000D03*
D22*
X319400Y713000D01*
X314200Y718200D01*
D21*
X308338Y676132D03*
X345500Y679500D03*
X275453Y736441D03*
X345500Y736500D03*
X219500Y742500D03*
X297500Y618500D03*
X274500Y615500D03*
X289500Y570500D03*
D22*
X318280Y602500D02*
X332868Y602500D01*
D21*
X332868Y602500D03*
D22*
X389464Y602500D02*
X389780Y602184D01*
X401816Y602184D01*
D21*
X401816Y602184D03*
X430684Y523846D03*
X360316Y646684D03*
X386883Y533316D03*
X444033Y822933D03*
X391945Y774397D03*
X386026Y803992D03*
D22*
X288100Y602500D02*
X288100Y596900D01*
X300000Y585000D02*
X412500Y585000D01*
X300000Y585000D02*
X288100Y596900D01*
D21*
X412500Y585000D03*
D22*
X224000Y370000D02*
X220000Y366000D01*
X224000Y370000D02*
X230000Y370000D01*
X232500Y372500D01*
D23*
X232500Y423449D01*
D24*
X257868Y424184D02*
X257868Y418816D01*
X257868Y424184D02*
X253419Y428632D01*
D23*
X237684Y428632D01*
X232500Y423449D01*
D21*
X257868Y418816D03*
X275287Y447919D03*
D22*
X275287Y449103D01*
X302978Y489978D02*
X323816Y510816D01*
X370816Y510816D02*
X375000Y515000D01*
D21*
X375000Y515000D03*
D22*
X370816Y510816D02*
X323816Y510816D01*
X374800Y817500D02*
X374800Y820000D01*
X404220Y615000D02*
X416720Y602500D01*
X404220Y615000D02*
X403000Y615000D01*
D21*
X403000Y615000D03*
D22*
X254003Y850000D02*
X270003Y866000D01*
X254003Y850000D02*
X246900Y850000D01*
X351000Y866000D02*
X375000Y842000D01*
D21*
X375000Y842000D03*
X375500Y803500D03*
D22*
X375500Y819300D01*
X374800Y820000D01*
X351000Y866000D02*
X270003Y866000D01*
X416720Y602500D02*
X417904Y601316D01*
X417904Y590404D01*
X412500Y585000D01*
X275287Y447919D02*
X275084Y447919D01*
X302978Y475813D02*
X302978Y489978D01*
X302978Y475813D02*
X275084Y447919D01*
D24*
X220000Y366000D02*
X200812Y366000D01*
X198754Y363942D01*
D21*
X198754Y363942D03*
D22*
X335000Y520000D02*
X349626Y520000D01*
X351512Y521886D01*
X249816Y589084D02*
X249816Y611816D01*
X255000Y617000D01*
X256000Y617000D01*
D21*
X256000Y617000D03*
X253072Y646005D03*
D22*
X245072Y661005D02*
X245072Y677256D01*
X253072Y653005D02*
X253072Y646005D01*
X253072Y653005D02*
X245072Y661005D01*
X245072Y677256D02*
X246115Y679271D01*
D21*
X246115Y679271D03*
D22*
X303975Y536137D02*
X318863Y536137D01*
X335000Y520000D01*
X302763Y536137D02*
X249816Y589084D01*
X302763Y536137D02*
X303975Y536137D01*
X351512Y545000D02*
X413490Y545000D01*
X413490Y563490D01*
X432900Y582900D02*
X441316Y582900D01*
X432900Y582900D02*
X413490Y563490D01*
X413490Y545000D02*
X385990Y572500D01*
X377500Y572500D01*
D21*
X377500Y572500D03*
D22*
X383684Y458684D02*
X374938Y449938D01*
X383684Y514010D02*
X413490Y543816D01*
X413490Y545000D01*
X374938Y449938D02*
X374938Y446184D01*
X383684Y458684D02*
X383684Y514010D01*
D21*
X330000Y788132D03*
D22*
X307300Y883700D02*
X307300Y895000D01*
X307300Y883700D02*
X310632Y880368D01*
X373068Y880368D01*
X387700Y895000D01*
X361000Y602500D02*
X346720Y602500D01*
D21*
X361000Y602500D03*
D22*
X185000Y385780D02*
X185000Y367500D01*
D21*
X185000Y367500D03*
X222000Y733000D03*
D22*
X224000Y735000D01*
X256000Y735000D01*
D21*
X256000Y735000D03*
X271816Y804000D03*
D22*
X271816Y816116D01*
X273200Y817500D01*
D21*
X259838Y450978D03*
D24*
X205768Y581049D02*
X191830Y594986D01*
X191830Y612695D01*
X194198Y615062D01*
D21*
X194198Y615062D03*
D22*
X244000Y805000D02*
X248000Y809000D01*
X248000Y817300D01*
X247800Y817500D01*
D21*
X412022Y808816D03*
D22*
X402816Y808816D01*
X385000Y791000D01*
X376000Y791000D01*
X361590Y805410D01*
X335250Y805410D01*
X324473Y794632D02*
X253368Y794632D01*
X244000Y804000D01*
X244000Y805000D01*
X324473Y794632D02*
X335250Y805410D01*
D24*
X259838Y458081D02*
X259838Y450978D01*
X259838Y458081D02*
X243738Y474181D01*
X243738Y505358D01*
X265047Y526666D01*
X265047Y551526D01*
X235524Y581049D01*
X205768Y581049D01*
D21*
X220062Y798940D03*
D22*
X225122Y804000D01*
X244000Y804000D01*
X235100Y817500D02*
X235100Y824900D01*
X228000Y832000D02*
X196470Y832000D01*
X228000Y832000D02*
X235100Y824900D01*
X435000Y838416D02*
X442900Y846316D01*
X435000Y838416D02*
X435000Y833000D01*
X232772Y829228D02*
X230000Y832000D01*
X228000Y832000D01*
X431228Y829228D02*
X435000Y833000D01*
X431228Y829228D02*
X232772Y829228D01*
D21*
X196470Y832000D03*
D22*
X204673Y817500D02*
X222400Y817500D01*
X283700Y836000D02*
X297700Y850000D01*
X236270Y836000D02*
X232682Y839588D01*
X236270Y836000D02*
X283700Y836000D01*
X232682Y839588D02*
X232682Y839864D01*
D21*
X232682Y839864D03*
X204673Y817500D03*
X237500Y365000D03*
D22*
X239684Y367184D02*
X271612Y367184D01*
X239684Y367184D02*
X237500Y365000D01*
D24*
X179412Y646588D02*
X179412Y754125D01*
X194587Y769300D02*
X205000Y769300D01*
X248470Y499436D02*
X248470Y477581D01*
X248470Y499436D02*
X272149Y523115D01*
X272149Y555078D01*
X208000Y588000D02*
X199000Y597000D01*
X199000Y608000D01*
D22*
X206000Y615000D01*
D24*
X206000Y629184D01*
X197184Y638000D01*
X188000Y638000D01*
X179412Y646588D01*
X179412Y754125D02*
X194587Y769300D01*
D22*
X206000Y770300D02*
X301000Y770300D01*
X206000Y770300D02*
X205000Y769300D01*
D21*
X301000Y770300D03*
D24*
X239227Y588000D02*
X272149Y555078D01*
X239227Y588000D02*
X208000Y588000D01*
X267001Y441426D02*
X271612Y436815D01*
X267001Y441426D02*
X267001Y459051D01*
X248470Y477581D01*
X271612Y436815D02*
X271612Y367184D01*
D22*
X188551Y649949D02*
X188551Y678551D01*
X190400Y680400D02*
X205000Y680400D01*
X190400Y680400D02*
X188551Y678551D01*
X200682Y645956D02*
X212772Y633866D01*
X212772Y603372D02*
X211900Y602500D01*
X212772Y603372D02*
X212772Y633866D01*
X192544Y645956D02*
X188551Y649949D01*
X192544Y645956D02*
X200682Y645956D01*
X205000Y680400D02*
X211400Y680400D01*
X236287Y705287D02*
X252982Y705287D01*
D21*
X252982Y705287D03*
D22*
X236287Y705287D02*
X211400Y680400D01*
X205300Y668000D02*
X205000Y667700D01*
X205300Y668000D02*
X222632Y668000D01*
X242632Y648000D01*
D21*
X242632Y648000D03*
X218632Y650897D03*
D22*
X222400Y647130D01*
X222400Y632500D01*
D21*
X396368Y681000D03*
D22*
X395184Y681000D01*
X388000Y688184D01*
X231184Y688184D01*
X221000Y678000D01*
D21*
X221000Y678000D03*
X197986Y624000D03*
X235000Y616000D03*
D22*
X235000Y632400D01*
X235100Y632500D01*
D24*
X220000Y416616D02*
X220000Y405000D01*
X220000Y416616D02*
X216492Y420124D01*
D21*
X216492Y420124D03*
X217695Y491052D03*
D24*
X205756Y502990D01*
X199938Y502990D01*
X197986Y624000D02*
X188362Y624000D01*
X182181Y617819D01*
X182181Y520747D01*
X199938Y502990D01*
D22*
X260500Y632500D02*
X260500Y638500D01*
X271000Y649000D01*
D21*
X271000Y649000D03*
X286000Y648000D03*
D22*
X286000Y632600D01*
X285900Y632500D01*
D21*
X414000Y622000D03*
D22*
X392973Y617000D02*
X380000Y617000D01*
X412986Y623014D02*
X414000Y622000D01*
X412986Y623014D02*
X398987Y623014D01*
X392973Y617000D01*
X380000Y617000D02*
X380000Y618000D01*
D21*
X380000Y618000D03*
X380184Y672000D03*
D22*
X380184Y670816D01*
X319816Y670816D01*
X298600Y649600D02*
X298600Y632500D01*
X298600Y649600D02*
X319816Y670816D01*
D24*
X255735Y405000D02*
X255000Y405000D01*
X255735Y405000D02*
X265184Y414449D01*
X265184Y434789D01*
X238250Y461723D02*
X238250Y500421D01*
X238250Y461723D02*
X265184Y434789D01*
X238250Y500421D02*
X216922Y521749D01*
X214981Y521749D01*
D21*
X214981Y521749D03*
X303000Y604000D03*
D22*
X303000Y611816D01*
X308684Y617500D01*
X320500Y617500D01*
X324000Y621000D01*
X324000Y632500D01*
X336700Y632500D02*
X336700Y649200D01*
D21*
X397184Y658316D03*
D22*
X392500Y663000D01*
X350500Y663000D01*
X336700Y649200D01*
X354361Y501807D02*
X355015Y501807D01*
X354361Y501807D02*
X298738Y446184D01*
D21*
X355015Y501807D03*
D22*
X390588Y510000D02*
X394537Y513949D01*
D24*
X446449Y513949D02*
X452765Y520265D01*
X452765Y619735D01*
D22*
X442500Y630000D02*
X400000Y630000D01*
X397500Y632500D01*
X397500Y645632D01*
X387449Y655684D01*
X355949Y655684D01*
X349400Y649135D01*
X349400Y632500D01*
X394537Y513949D02*
X446449Y513949D01*
D24*
X452765Y619735D02*
X442500Y630000D01*
D22*
X390588Y510000D02*
X390588Y494645D01*
X392606Y492628D01*
D21*
X392606Y492628D03*
X372772Y489969D03*
D22*
X362118Y489969D01*
X324138Y451988D01*
X324138Y446184D01*
X255000Y385000D02*
X251000Y385000D01*
D23*
X242551Y393449D01*
X242551Y393894D01*
D24*
X242551Y419740D02*
X242354Y419938D01*
X242551Y419740D02*
X242551Y393894D01*
D21*
X242354Y419938D03*
X251919Y436265D03*
D24*
X233206Y455059D02*
X233206Y497735D01*
X202682Y509000D02*
X198681Y513001D01*
X221941Y509000D02*
X233206Y497735D01*
X221941Y509000D02*
X202682Y509000D01*
X251919Y436346D02*
X251919Y436265D01*
X251919Y436346D02*
X233206Y455059D01*
X198681Y513001D02*
X198681Y543027D01*
X220444Y564790D01*
X220444Y568449D02*
X221628Y568449D01*
X220444Y568449D02*
X220444Y564790D01*
D21*
X221628Y568449D03*
X362670Y593000D03*
D22*
X362100Y593570D01*
X363000Y593000D01*
X372000Y602000D01*
X372000Y609000D01*
X362100Y618900D01*
X362100Y632500D01*
D21*
X344580Y796212D03*
D22*
X343396Y795028D01*
X343396Y788396D01*
X333000Y778000D01*
X330000Y778000D01*
D21*
X330000Y778000D03*
X357000Y780000D03*
D22*
X357000Y796816D01*
D21*
X357000Y796816D03*
X235452Y795389D03*
D22*
X244376Y786464D01*
X285171Y786464D01*
D21*
X285171Y786464D03*
M02*
