M48
;GenerationSoftware,Autodesk,EAGLE,9.5.1*%
;CreationDate,2020-11-05T18:46:27Z*%
FMAT,2
ICI,OFF
METRIC,TZ,000.000
T7C0.350
T6C0.900
T5C1.016
T4C2.800
T3C3.200
T2C4.000
T1C5.700
%
G90
M71
T1
X20500Y87500
X42500Y46500
T2
X43200Y88300
X19800Y45700
T3
X30398Y53614
T4
X24148Y53614
X27498Y48814
T5
X29770Y85000
X29874Y44618
X32414Y44618
X34954Y44618
X37494Y44618
X44132Y53210
X44132Y55750
X44132Y58290
X21190Y60250
X23730Y60250
X26270Y60250
X28810Y60250
X32310Y85000
X27230Y85000
X24690Y85000
X44290Y84632
X41750Y84632
X39210Y84632
X33270Y89500
X30730Y89500
X36230Y89500
X38770Y89500
X27770Y89500
X25230Y89500
T6
X43700Y70400
X43700Y67400
T7
X25600Y73500
X27182Y80400
X25984Y45098
X19420Y61506
X41202Y80882
X22006Y79894
X19647Y83200
X23268Y83986
X20467Y81750
X23750Y36500
X30100Y77030
X25298Y70529
X24263Y64800
X21863Y65090
X39637Y68100
X22100Y67800
X19799Y62400
X23500Y61600
X21649Y42012
X21769Y49105
X38688Y53332
X28600Y64800
X41400Y62200
X38000Y61800
X38018Y67200
X21498Y52175
X30300Y60400
X39718Y65832
X35502Y50181
X39261Y49263
X37277Y48997
X24235Y41994
X25192Y43626
X22163Y56845
X36267Y59300
X34458Y79621
X33000Y77800
X35700Y78000
X35700Y79682
X23545Y79539
X28517Y78646
X39300Y71300
X30834Y67613
X34550Y67950
X27545Y73644
X34550Y73650
X21950Y74250
X29750Y61850
X27450Y61550
X28950Y57050
X33287Y60250
X40182Y60218
X43068Y52385
X36032Y64668
X44403Y82293
X39195Y77440
X38603Y80399
X41250Y58500
X25787Y41882
X27529Y44792
X27100Y64900
X37500Y51500
X40300Y61500
X37500Y84200
X37550Y80350
X19875Y36394
X25600Y61700
X25307Y64600
X24611Y67927
X37750Y57250
X33000Y78813
X36100Y60250
X18500Y36750
X22200Y73300
M30