G04 EAGLE Gerber RS-274X export*
G75*
%MOMM*%
%FSLAX34Y34*%
%LPD*%
%INSilkscreen Top*%
%IPPOS*%
%AMOC8*
5,1,8,0,0,1.08239X$1,22.5*%
G01*
%ADD10R,0.118400X0.118381*%
%ADD11R,0.236800X0.118375*%
%ADD12R,0.236800X0.118381*%
%ADD13R,0.947100X0.118381*%
%ADD14R,0.828700X0.118375*%
%ADD15R,0.355200X0.118381*%
%ADD16R,0.591900X0.118375*%
%ADD17R,0.236700X0.118381*%
%ADD18R,0.236700X0.118375*%
%ADD19R,0.118400X0.118375*%
%ADD20R,0.710300X0.118375*%
%ADD21R,0.473600X0.118381*%
%ADD22R,0.355100X0.118375*%
%ADD23R,0.355100X0.118381*%
%ADD24R,0.947100X0.118375*%
%ADD25R,0.355200X0.118375*%
%ADD26R,0.710300X0.118381*%
%ADD27R,0.947000X0.118375*%
%ADD28R,1.302200X0.118375*%
%ADD29R,1.183800X0.118381*%
%ADD30R,0.591800X0.118375*%
%ADD31R,0.591800X0.118381*%
%ADD32R,0.828700X0.118381*%
%ADD33R,0.591900X0.118381*%
%ADD34R,0.473500X0.118381*%
%ADD35R,1.302200X0.118381*%
%ADD36R,1.065400X0.118381*%
%ADD37R,0.473500X0.118375*%
%ADD38R,0.710200X0.118375*%
%ADD39R,0.828600X0.118375*%
%ADD40R,0.828600X0.118381*%
%ADD41R,1.183900X0.118375*%
%ADD42R,1.183800X0.118375*%
%ADD43R,1.065400X0.118375*%
%ADD44R,0.592000X0.118381*%
%ADD45R,1.065500X0.118375*%
%ADD46R,1.065500X0.118381*%
%ADD47R,0.118300X0.118381*%
%ADD48R,0.118300X0.118375*%
%ADD49R,0.710200X0.118381*%
%ADD50R,2.722800X0.118381*%
%ADD51R,2.959500X0.118375*%
%ADD52R,2.959500X0.118381*%
%ADD53R,1.420600X0.118375*%
%ADD54R,0.473600X0.118375*%
%ADD55R,0.947000X0.118381*%
%ADD56C,0.127000*%
%ADD57C,0.177800*%
%ADD58C,0.203200*%
%ADD59R,1.854200X3.200400*%
%ADD60R,1.854200X0.863600*%
%ADD61C,0.076200*%
%ADD62C,0.152400*%
%ADD63R,0.736600X1.752600*%
%ADD64C,0.101600*%
%ADD65R,1.752600X0.736600*%
%ADD66C,0.304800*%
%ADD67R,0.508000X0.508000*%

G36*
X191064Y395377D02*
X191064Y395377D01*
X191129Y395379D01*
X191173Y395397D01*
X191221Y395405D01*
X191277Y395438D01*
X191337Y395463D01*
X191373Y395495D01*
X191414Y395520D01*
X191455Y395570D01*
X191503Y395614D01*
X191525Y395656D01*
X191555Y395694D01*
X191576Y395755D01*
X191606Y395813D01*
X191612Y395861D01*
X191627Y395906D01*
X191625Y395971D01*
X191633Y396036D01*
X191622Y396083D01*
X191621Y396131D01*
X191596Y396191D01*
X191581Y396254D01*
X191551Y396302D01*
X191536Y396338D01*
X191510Y396367D01*
X191482Y396413D01*
X185482Y403413D01*
X185480Y403414D01*
X185479Y403415D01*
X185424Y403460D01*
X185405Y403481D01*
X185387Y403490D01*
X185308Y403555D01*
X185306Y403555D01*
X185305Y403556D01*
X185197Y403592D01*
X185095Y403627D01*
X185094Y403627D01*
X185092Y403628D01*
X184981Y403624D01*
X184871Y403621D01*
X184870Y403620D01*
X184868Y403620D01*
X184766Y403579D01*
X184663Y403537D01*
X184662Y403536D01*
X184660Y403536D01*
X184578Y403464D01*
X184566Y403457D01*
X184557Y403446D01*
X184518Y403413D01*
X178518Y396413D01*
X178486Y396357D01*
X178445Y396306D01*
X178429Y396261D01*
X178405Y396219D01*
X178394Y396155D01*
X178373Y396094D01*
X178374Y396046D01*
X178366Y395998D01*
X178377Y395934D01*
X178379Y395869D01*
X178397Y395825D01*
X178406Y395778D01*
X178439Y395722D01*
X178464Y395662D01*
X178496Y395626D01*
X178521Y395585D01*
X178571Y395544D01*
X178615Y395496D01*
X178658Y395474D01*
X178695Y395444D01*
X178757Y395423D01*
X178815Y395393D01*
X178870Y395385D01*
X178908Y395372D01*
X178947Y395374D01*
X179000Y395366D01*
X191000Y395366D01*
X191064Y395377D01*
G37*
D10*
X205857Y364486D03*
D11*
X205265Y365670D03*
D12*
X205265Y366853D03*
D10*
X205857Y368037D03*
D11*
X205265Y369221D03*
D13*
X201713Y370405D03*
D14*
X201121Y371589D03*
D15*
X203489Y373956D03*
D16*
X203489Y375140D03*
D17*
X201713Y376324D03*
D10*
X205857Y376324D03*
D11*
X198162Y377508D03*
D18*
X201713Y377508D03*
D19*
X205857Y377508D03*
D12*
X198162Y378691D03*
D17*
X201713Y378691D03*
D10*
X205857Y378691D03*
D12*
X198162Y379875D03*
D17*
X201713Y379875D03*
D12*
X205265Y379875D03*
D11*
X198162Y381059D03*
D19*
X205857Y381059D03*
D13*
X201713Y382243D03*
D20*
X201713Y383427D03*
D11*
X205265Y386978D03*
D21*
X204081Y388162D03*
D22*
X202305Y389346D03*
D23*
X201121Y390529D03*
D12*
X199346Y391713D03*
D24*
X201713Y392897D03*
D13*
X201713Y394081D03*
D25*
X203489Y395265D03*
D12*
X202897Y396448D03*
D23*
X201121Y397632D03*
D22*
X199937Y398816D03*
D13*
X201713Y400000D03*
D24*
X201713Y401184D03*
D20*
X201713Y404735D03*
D13*
X201713Y405919D03*
D11*
X198162Y407103D03*
X205265Y407103D03*
D12*
X198162Y408286D03*
D10*
X205857Y408286D03*
D12*
X198162Y409470D03*
X205265Y409470D03*
D11*
X198162Y410654D03*
D19*
X205857Y410654D03*
D12*
X198162Y411838D03*
X205265Y411838D03*
D24*
X201713Y413022D03*
D26*
X201713Y414205D03*
X205264Y417757D03*
D27*
X205265Y418941D03*
D17*
X201713Y420124D03*
X208816Y420124D03*
X201713Y421308D03*
X208816Y421308D03*
D18*
X201713Y422492D03*
X208816Y422492D03*
D17*
X201713Y423676D03*
X208816Y423676D03*
D18*
X201713Y424860D03*
X208816Y424860D03*
D17*
X201713Y426043D03*
X208816Y426043D03*
X208816Y427227D03*
D28*
X203489Y428411D03*
D29*
X202897Y429595D03*
D12*
X259720Y433146D03*
D10*
X267414Y433146D03*
D22*
X260311Y434330D03*
D18*
X266822Y434330D03*
D23*
X261495Y435514D03*
X266230Y435514D03*
D30*
X263863Y436698D03*
D15*
X263863Y437881D03*
D31*
X263863Y439065D03*
D22*
X261495Y440249D03*
X266230Y440249D03*
D23*
X260311Y441433D03*
D17*
X266822Y441433D03*
D19*
X259128Y442617D03*
X267414Y442617D03*
X259128Y446168D03*
D20*
X268006Y446168D03*
D12*
X259720Y447352D03*
D32*
X267414Y447352D03*
D22*
X260311Y448536D03*
D11*
X264455Y448536D03*
X270374Y448536D03*
D33*
X262679Y449719D03*
D12*
X270374Y449719D03*
D34*
X263271Y450903D03*
D12*
X270374Y450903D03*
D25*
X263863Y452087D03*
D11*
X270374Y452087D03*
D12*
X264455Y453271D03*
X270374Y453271D03*
D11*
X264455Y454455D03*
X270374Y454455D03*
D12*
X270374Y455638D03*
D35*
X265047Y456822D03*
D28*
X265047Y458006D03*
D11*
X304704Y463925D03*
D19*
X312399Y463925D03*
D14*
X336074Y463925D03*
D15*
X305296Y465109D03*
D12*
X311807Y465109D03*
D36*
X336075Y465109D03*
D17*
X367445Y465109D03*
D25*
X306480Y466293D03*
X311215Y466293D03*
D22*
X331339Y466293D03*
D11*
X341402Y466293D03*
D37*
X366261Y466293D03*
D33*
X308847Y467476D03*
D17*
X330747Y467476D03*
D12*
X341402Y467476D03*
D31*
X364486Y467476D03*
D23*
X308847Y468660D03*
D17*
X330747Y468660D03*
D12*
X341402Y468660D03*
D33*
X362118Y468660D03*
D16*
X308847Y469844D03*
D18*
X330747Y469844D03*
D11*
X341402Y469844D03*
D16*
X359750Y469844D03*
D15*
X306480Y471028D03*
X311215Y471028D03*
D17*
X330747Y471028D03*
D12*
X341402Y471028D03*
D34*
X357975Y471028D03*
D25*
X305296Y472212D03*
D11*
X311807Y472212D03*
D18*
X330747Y472212D03*
D11*
X341402Y472212D03*
D37*
X357975Y472212D03*
D10*
X304112Y473395D03*
X312399Y473395D03*
D17*
X330747Y473395D03*
D12*
X341402Y473395D03*
D34*
X360342Y473395D03*
D35*
X336075Y474579D03*
D34*
X362710Y474579D03*
D11*
X315358Y475763D03*
D28*
X336075Y475763D03*
D16*
X365669Y475763D03*
D12*
X315358Y476947D03*
D23*
X366853Y476947D03*
D11*
X315358Y478131D03*
D19*
X368037Y478131D03*
D12*
X315358Y479314D03*
D35*
X310031Y480498D03*
X336075Y480498D03*
D33*
X359750Y480498D03*
D28*
X310031Y481682D03*
X336075Y481682D03*
D38*
X359159Y481682D03*
D18*
X367445Y481682D03*
D12*
X315358Y482866D03*
D23*
X332523Y482866D03*
D17*
X356791Y482866D03*
D23*
X362118Y482866D03*
D17*
X367445Y482866D03*
D11*
X315358Y484050D03*
D25*
X333707Y484050D03*
D18*
X356791Y484050D03*
X362710Y484050D03*
X367445Y484050D03*
D12*
X315358Y485233D03*
X335483Y485233D03*
D17*
X356791Y485233D03*
D23*
X362118Y485233D03*
D17*
X367445Y485233D03*
D12*
X315358Y486417D03*
D17*
X336666Y486417D03*
X356791Y486417D03*
X362710Y486417D03*
X367445Y486417D03*
D19*
X315950Y487601D03*
D18*
X337850Y487601D03*
X356791Y487601D03*
X362710Y487601D03*
X367445Y487601D03*
D12*
X339034Y488785D03*
D17*
X356791Y488785D03*
X362710Y488785D03*
X367445Y488785D03*
D25*
X339626Y489969D03*
D18*
X356791Y489969D03*
D38*
X365078Y489969D03*
D35*
X336075Y491152D03*
D17*
X356791Y491152D03*
D33*
X365669Y491152D03*
D35*
X336075Y492336D03*
D39*
X333707Y495888D03*
D11*
X341402Y495888D03*
D40*
X333707Y497071D03*
D12*
X341402Y497071D03*
D17*
X330747Y498255D03*
D23*
X336074Y498255D03*
D12*
X341402Y498255D03*
D18*
X330747Y499439D03*
D22*
X336074Y499439D03*
D11*
X341402Y499439D03*
D17*
X330747Y500623D03*
D23*
X336074Y500623D03*
D12*
X341402Y500623D03*
D18*
X330747Y501807D03*
X336666Y501807D03*
D11*
X341402Y501807D03*
X417165Y501807D03*
D22*
X427227Y501807D03*
D41*
X438473Y501807D03*
D42*
X452679Y501807D03*
D17*
X330747Y502990D03*
D23*
X336074Y502990D03*
D12*
X341402Y502990D03*
X417165Y502990D03*
D23*
X426043Y502990D03*
D35*
X437882Y502990D03*
X453271Y502990D03*
D17*
X330747Y504174D03*
D12*
X341402Y504174D03*
X417165Y504174D03*
D15*
X424860Y504174D03*
D17*
X432554Y504174D03*
D12*
X443209Y504174D03*
X447944Y504174D03*
X458598Y504174D03*
D18*
X330747Y505358D03*
D11*
X341402Y505358D03*
X417165Y505358D03*
D25*
X423676Y505358D03*
D18*
X432554Y505358D03*
D11*
X443209Y505358D03*
X447944Y505358D03*
X458598Y505358D03*
D35*
X336075Y506542D03*
D12*
X417165Y506542D03*
D40*
X423676Y506542D03*
D17*
X432554Y506542D03*
D12*
X443209Y506542D03*
X447944Y506542D03*
D23*
X458006Y506542D03*
D43*
X336075Y507726D03*
D11*
X417165Y507726D03*
D27*
X424268Y507726D03*
D18*
X432554Y507726D03*
D14*
X440249Y507726D03*
D11*
X447944Y507726D03*
D14*
X454454Y507726D03*
D12*
X417165Y508909D03*
D17*
X427819Y508909D03*
X432554Y508909D03*
D26*
X439657Y508909D03*
D12*
X447944Y508909D03*
D32*
X454454Y508909D03*
D12*
X417165Y510093D03*
D17*
X427819Y510093D03*
X432554Y510093D03*
D12*
X447944Y510093D03*
D17*
X457414Y510093D03*
D11*
X417165Y511277D03*
D18*
X427819Y511277D03*
X432554Y511277D03*
D11*
X447944Y511277D03*
D22*
X458006Y511277D03*
D35*
X422492Y512461D03*
X437882Y512461D03*
D29*
X452679Y512461D03*
D28*
X422492Y513645D03*
D41*
X438473Y513645D03*
D42*
X452679Y513645D03*
D26*
X210000Y579937D03*
D23*
X217694Y579937D03*
D33*
X237819Y579937D03*
D10*
X287539Y579937D03*
D26*
X210000Y581121D03*
D12*
X217103Y581121D03*
D26*
X236043Y581121D03*
D12*
X286947Y581121D03*
D19*
X212960Y582305D03*
X216511Y582305D03*
D11*
X233676Y582305D03*
D20*
X262087Y582305D03*
X286947Y582305D03*
D33*
X210592Y583489D03*
D10*
X216511Y583489D03*
D33*
X236635Y583489D03*
D26*
X262087Y583489D03*
X286947Y583489D03*
D20*
X208816Y584673D03*
D19*
X216511Y584673D03*
D20*
X237227Y584673D03*
D11*
X286947Y584673D03*
D12*
X206449Y585856D03*
D10*
X216511Y585856D03*
X240187Y585856D03*
D12*
X286947Y585856D03*
X206449Y587040D03*
D10*
X216511Y587040D03*
X240187Y587040D03*
D11*
X180405Y588224D03*
D25*
X186916Y588224D03*
D20*
X210000Y588224D03*
D19*
X216511Y588224D03*
D14*
X236635Y588224D03*
D12*
X180405Y589408D03*
D44*
X186916Y589408D03*
D11*
X180405Y590592D03*
D19*
X184548Y590592D03*
X189284Y590592D03*
D12*
X180405Y591775D03*
D10*
X184548Y591775D03*
X189284Y591775D03*
D12*
X180405Y592959D03*
D10*
X184548Y592959D03*
D12*
X188692Y592959D03*
D11*
X180405Y594143D03*
D19*
X184548Y594143D03*
X189284Y594143D03*
D12*
X180405Y595327D03*
D17*
X183956Y595327D03*
D12*
X188692Y595327D03*
D16*
X182180Y596511D03*
D19*
X189284Y596511D03*
D22*
X184548Y605981D03*
D17*
X182772Y607165D03*
D12*
X186324Y607165D03*
D19*
X179813Y608349D03*
D18*
X182772Y608349D03*
D11*
X186324Y608349D03*
D10*
X179813Y609532D03*
D17*
X182772Y609532D03*
D12*
X186324Y609532D03*
D10*
X179813Y610716D03*
D17*
X182772Y610716D03*
D12*
X186324Y610716D03*
D11*
X180405Y611900D03*
X186324Y611900D03*
D33*
X183364Y613084D03*
D26*
X182772Y616635D03*
D11*
X180405Y617819D03*
X186324Y617819D03*
D12*
X180405Y619003D03*
X186324Y619003D03*
D11*
X180405Y620187D03*
X186324Y620187D03*
D12*
X180405Y621370D03*
X186324Y621370D03*
X180405Y622554D03*
D43*
X185732Y623738D03*
D33*
X183364Y627289D03*
D12*
X180405Y628473D03*
X186324Y628473D03*
D11*
X180405Y629657D03*
X186324Y629657D03*
D12*
X180405Y630841D03*
X186324Y630841D03*
D11*
X180405Y632025D03*
X186324Y632025D03*
D12*
X180405Y633208D03*
X186324Y633208D03*
D26*
X182772Y634392D03*
D12*
X186324Y636760D03*
D11*
X186324Y637944D03*
D12*
X186324Y639127D03*
X186324Y640311D03*
D11*
X186324Y641495D03*
D26*
X182772Y642679D03*
D21*
X186324Y645046D03*
D26*
X186324Y646230D03*
D18*
X182772Y647414D03*
D11*
X188692Y647414D03*
D17*
X182772Y648598D03*
D10*
X189284Y648598D03*
D18*
X182772Y649782D03*
D11*
X188692Y649782D03*
D17*
X182772Y650965D03*
D12*
X188692Y650965D03*
D17*
X182772Y652149D03*
D12*
X188692Y652149D03*
D45*
X184548Y653333D03*
D13*
X183956Y654517D03*
D11*
X429003Y677009D03*
D33*
X428411Y678193D03*
D14*
X427227Y679377D03*
D10*
X417757Y680560D03*
D12*
X424268Y680560D03*
X430187Y680560D03*
X417165Y681744D03*
X424268Y681744D03*
X430187Y681744D03*
D11*
X417165Y682928D03*
D25*
X423676Y682928D03*
D11*
X430187Y682928D03*
D12*
X417165Y684112D03*
X424268Y684112D03*
X430187Y684112D03*
D11*
X417165Y685296D03*
X424268Y685296D03*
X430187Y685296D03*
D12*
X417165Y686479D03*
X424268Y686479D03*
X430187Y686479D03*
X417165Y687663D03*
D15*
X423676Y687663D03*
D12*
X430187Y687663D03*
D11*
X417165Y688847D03*
X424268Y688847D03*
X430187Y688847D03*
D12*
X417165Y690031D03*
D15*
X423676Y690031D03*
D11*
X417165Y691215D03*
D37*
X421900Y691215D03*
D26*
X419532Y692398D03*
D34*
X418348Y693582D03*
D19*
X416573Y694766D03*
D22*
X428411Y694766D03*
D32*
X427227Y695950D03*
D45*
X426043Y697134D03*
D26*
X421900Y698317D03*
D12*
X430187Y698317D03*
D23*
X418940Y699501D03*
D15*
X423676Y699501D03*
D12*
X430187Y699501D03*
D25*
X417757Y700685D03*
D11*
X424268Y700685D03*
X430187Y700685D03*
D12*
X417165Y701869D03*
D15*
X423676Y701869D03*
D12*
X430187Y701869D03*
D11*
X417165Y703053D03*
D25*
X423676Y703053D03*
D11*
X430187Y703053D03*
D12*
X417165Y704236D03*
X424268Y704236D03*
X430187Y704236D03*
X417165Y705420D03*
D15*
X423676Y705420D03*
D12*
X430187Y705420D03*
D11*
X417165Y706604D03*
X424268Y706604D03*
D19*
X429595Y706604D03*
D12*
X417165Y707788D03*
D15*
X423676Y707788D03*
D11*
X417165Y708972D03*
D12*
X417165Y710155D03*
D10*
X416573Y711339D03*
D23*
X428411Y717258D03*
D14*
X427227Y718442D03*
D13*
X426635Y719626D03*
D25*
X422492Y720810D03*
D11*
X430187Y720810D03*
D12*
X421900Y721993D03*
X430187Y721993D03*
D23*
X421308Y723177D03*
D12*
X430187Y723177D03*
D22*
X421308Y724361D03*
D11*
X430187Y724361D03*
D23*
X421308Y725545D03*
D12*
X430187Y725545D03*
D22*
X421308Y726729D03*
D11*
X430187Y726729D03*
D23*
X421308Y727912D03*
D12*
X430187Y727912D03*
D23*
X421308Y729096D03*
D15*
X429595Y729096D03*
D18*
X420716Y730280D03*
D37*
X427819Y730280D03*
D26*
X425451Y731464D03*
D14*
X422492Y732648D03*
D26*
X419532Y733831D03*
D15*
X417757Y735015D03*
D11*
X430187Y736199D03*
D12*
X421900Y737383D03*
X430187Y737383D03*
D16*
X421308Y738567D03*
D11*
X430187Y738567D03*
D32*
X421308Y739750D03*
D12*
X430187Y739750D03*
D15*
X417757Y740934D03*
X423676Y740934D03*
D12*
X430187Y740934D03*
D11*
X417165Y742118D03*
D25*
X423676Y742118D03*
D11*
X430187Y742118D03*
D12*
X417165Y743302D03*
D15*
X423676Y743302D03*
D12*
X430187Y743302D03*
D11*
X417165Y744486D03*
X424268Y744486D03*
X430187Y744486D03*
D12*
X417165Y745669D03*
X424268Y745669D03*
X430187Y745669D03*
X417165Y746853D03*
D15*
X423676Y746853D03*
D12*
X430187Y746853D03*
D11*
X417165Y748037D03*
D25*
X423676Y748037D03*
D11*
X429003Y748037D03*
D12*
X417165Y749221D03*
D26*
X426635Y749221D03*
D11*
X417165Y750405D03*
D37*
X425451Y750405D03*
D12*
X417165Y751588D03*
D10*
X430779Y751588D03*
D12*
X417165Y752772D03*
X430187Y752772D03*
D19*
X416573Y753956D03*
D11*
X430187Y753956D03*
D10*
X424860Y755140D03*
D12*
X430187Y755140D03*
D11*
X417165Y756324D03*
X424268Y756324D03*
X430187Y756324D03*
D12*
X417165Y757507D03*
D15*
X423676Y757507D03*
D12*
X430187Y757507D03*
X417165Y758691D03*
X424268Y758691D03*
X430187Y758691D03*
D11*
X417165Y759875D03*
X424268Y759875D03*
X430187Y759875D03*
D12*
X417165Y761059D03*
X424268Y761059D03*
X430187Y761059D03*
D11*
X417165Y762243D03*
D25*
X423676Y762243D03*
D11*
X430187Y762243D03*
D12*
X417165Y763426D03*
D15*
X423676Y763426D03*
D12*
X430187Y763426D03*
X417165Y764610D03*
D33*
X428411Y764610D03*
D11*
X417165Y765794D03*
D14*
X426043Y765794D03*
D46*
X421308Y766978D03*
D20*
X419532Y768162D03*
D12*
X418349Y769345D03*
D29*
X182773Y778816D03*
D42*
X182773Y780000D03*
D12*
X187508Y781183D03*
D10*
X186916Y782367D03*
D17*
X183956Y788286D03*
D37*
X183956Y789470D03*
D10*
X182181Y790654D03*
X185732Y790654D03*
D37*
X180405Y791838D03*
D19*
X185732Y791838D03*
D34*
X180405Y793021D03*
D10*
X185732Y793021D03*
D17*
X179221Y794205D03*
D10*
X182181Y794205D03*
X185732Y794205D03*
D18*
X179221Y795389D03*
D11*
X185140Y795389D03*
D26*
X182772Y796573D03*
D33*
X182180Y800124D03*
D39*
X182181Y801308D03*
D17*
X179221Y802492D03*
D10*
X185732Y802492D03*
D18*
X179221Y803676D03*
D19*
X185732Y803676D03*
D17*
X179221Y804859D03*
D10*
X185732Y804859D03*
D17*
X179221Y806043D03*
D10*
X185732Y806043D03*
D42*
X183957Y807227D03*
D46*
X184548Y808411D03*
D33*
X182180Y811962D03*
D39*
X182181Y813146D03*
D17*
X179221Y814330D03*
D10*
X185732Y814330D03*
D18*
X179221Y815514D03*
D19*
X185732Y815514D03*
D17*
X179221Y816697D03*
D10*
X185732Y816697D03*
D17*
X179221Y817881D03*
D10*
X185732Y817881D03*
D18*
X179221Y819065D03*
D11*
X185140Y819065D03*
D26*
X182772Y820249D03*
D10*
X185732Y823800D03*
D19*
X185732Y824984D03*
D10*
X185732Y826168D03*
D40*
X392897Y826168D03*
D10*
X400000Y826168D03*
D47*
X439065Y826168D03*
D17*
X449127Y826168D03*
D19*
X185732Y827352D03*
D48*
X297009Y827352D03*
D14*
X304112Y827352D03*
D48*
X319501Y827352D03*
D20*
X326012Y827352D03*
D19*
X389346Y827352D03*
D11*
X400592Y827352D03*
D48*
X439065Y827352D03*
D18*
X449127Y827352D03*
D40*
X182181Y828535D03*
D47*
X297009Y828535D03*
D10*
X300561Y828535D03*
D47*
X319501Y828535D03*
D12*
X328380Y828535D03*
D10*
X389346Y828535D03*
X401184Y828535D03*
D47*
X439065Y828535D03*
D17*
X449127Y828535D03*
D49*
X181589Y829719D03*
D17*
X249065Y829719D03*
D47*
X297009Y829719D03*
D10*
X300561Y829719D03*
D47*
X319501Y829719D03*
D10*
X328972Y829719D03*
D26*
X392305Y829719D03*
D17*
X401775Y829719D03*
D47*
X439065Y829719D03*
D40*
X446168Y829719D03*
D18*
X249065Y830903D03*
D48*
X297009Y830903D03*
D20*
X303520Y830903D03*
D48*
X319501Y830903D03*
D20*
X326012Y830903D03*
D16*
X392897Y830903D03*
D18*
X402959Y830903D03*
D20*
X418348Y830903D03*
D48*
X439065Y830903D03*
D39*
X446168Y830903D03*
D34*
X185140Y832087D03*
D26*
X249065Y832087D03*
X273925Y832087D03*
D47*
X297009Y832087D03*
D26*
X304704Y832087D03*
D47*
X319501Y832087D03*
D26*
X326012Y832087D03*
D17*
X395856Y832087D03*
X402959Y832087D03*
D32*
X418940Y832087D03*
D47*
X439065Y832087D03*
D10*
X442617Y832087D03*
D17*
X449127Y832087D03*
D20*
X185140Y833271D03*
D19*
X215327Y833271D03*
D20*
X249065Y833271D03*
X273925Y833271D03*
D48*
X297009Y833271D03*
D11*
X307072Y833271D03*
D48*
X319501Y833271D03*
D19*
X328972Y833271D03*
D38*
X393489Y833271D03*
D20*
X401775Y833271D03*
D18*
X438473Y833271D03*
D19*
X442617Y833271D03*
D18*
X449127Y833271D03*
D10*
X182181Y834454D03*
D12*
X188692Y834454D03*
D15*
X216511Y834454D03*
D17*
X249065Y834454D03*
X296417Y834454D03*
D26*
X304704Y834454D03*
D17*
X318909Y834454D03*
D26*
X326012Y834454D03*
D33*
X391713Y834454D03*
D32*
X401183Y834454D03*
D23*
X437881Y834454D03*
D10*
X442617Y834454D03*
D17*
X449127Y834454D03*
D12*
X181589Y835638D03*
X188692Y835638D03*
D33*
X217694Y835638D03*
D17*
X249065Y835638D03*
D23*
X295825Y835638D03*
D33*
X302928Y835638D03*
D23*
X318317Y835638D03*
D33*
X325420Y835638D03*
D11*
X181589Y836822D03*
X188692Y836822D03*
D14*
X218878Y836822D03*
D12*
X181589Y838006D03*
X188692Y838006D03*
D50*
X211776Y838006D03*
D11*
X181589Y839190D03*
X188692Y839190D03*
D51*
X212959Y839190D03*
D12*
X188692Y840373D03*
D52*
X212959Y840373D03*
D29*
X183957Y841557D03*
D50*
X211776Y841557D03*
D43*
X183365Y842741D03*
D14*
X218878Y842741D03*
D33*
X217694Y843925D03*
D25*
X216511Y845109D03*
D10*
X215327Y846292D03*
D17*
X344953Y864049D03*
X344953Y865233D03*
D12*
X382835Y865233D03*
D18*
X344953Y866417D03*
D11*
X382835Y866417D03*
D35*
X252025Y867601D03*
D36*
X266231Y867601D03*
X279252Y867601D03*
D10*
X292274Y867601D03*
D12*
X299969Y867601D03*
D32*
X320685Y867601D03*
D12*
X328380Y867601D03*
X335483Y867601D03*
X340218Y867601D03*
D17*
X344953Y867601D03*
D33*
X350280Y867601D03*
D32*
X360934Y867601D03*
D15*
X377508Y867601D03*
D12*
X382835Y867601D03*
D29*
X392305Y867601D03*
D42*
X251433Y868785D03*
D43*
X266231Y868785D03*
D42*
X279844Y868785D03*
D37*
X291682Y868785D03*
D11*
X299969Y868785D03*
D24*
X320093Y868785D03*
D11*
X328380Y868785D03*
X335483Y868785D03*
X340218Y868785D03*
D18*
X344953Y868785D03*
D20*
X350872Y868785D03*
D24*
X361526Y868785D03*
D25*
X377508Y868785D03*
D11*
X382835Y868785D03*
D42*
X392305Y868785D03*
D12*
X246698Y869968D03*
D17*
X260903Y869968D03*
D12*
X275109Y869968D03*
D23*
X285171Y869968D03*
D34*
X291682Y869968D03*
D12*
X299969Y869968D03*
X315358Y869968D03*
X323645Y869968D03*
X328380Y869968D03*
X335483Y869968D03*
X340218Y869968D03*
D17*
X344953Y869968D03*
D12*
X353240Y869968D03*
X365078Y869968D03*
D15*
X377508Y869968D03*
D12*
X382835Y869968D03*
X387570Y869968D03*
X246698Y871152D03*
D17*
X260903Y871152D03*
D12*
X275109Y871152D03*
X285763Y871152D03*
D34*
X291682Y871152D03*
D12*
X299969Y871152D03*
D32*
X306479Y871152D03*
D12*
X315358Y871152D03*
X323645Y871152D03*
X328380Y871152D03*
D10*
X334891Y871152D03*
D12*
X340218Y871152D03*
D17*
X344953Y871152D03*
D12*
X353240Y871152D03*
X365078Y871152D03*
D15*
X377508Y871152D03*
D12*
X382835Y871152D03*
X387570Y871152D03*
D11*
X246698Y872336D03*
D18*
X260903Y872336D03*
D11*
X275109Y872336D03*
X285763Y872336D03*
D37*
X291682Y872336D03*
D11*
X299969Y872336D03*
D24*
X307071Y872336D03*
D11*
X315358Y872336D03*
X323645Y872336D03*
X328380Y872336D03*
X335483Y872336D03*
X340218Y872336D03*
D18*
X344953Y872336D03*
D11*
X353240Y872336D03*
D24*
X361526Y872336D03*
D25*
X377508Y872336D03*
D11*
X382835Y872336D03*
X387570Y872336D03*
D12*
X246698Y873520D03*
D17*
X260903Y873520D03*
D26*
X266822Y873520D03*
D12*
X275109Y873520D03*
X285763Y873520D03*
D34*
X291682Y873520D03*
D12*
X299969Y873520D03*
X310623Y873520D03*
X315358Y873520D03*
X323645Y873520D03*
X328380Y873520D03*
D10*
X334891Y873520D03*
D12*
X340218Y873520D03*
D17*
X344953Y873520D03*
D12*
X353240Y873520D03*
D26*
X360342Y873520D03*
D15*
X377508Y873520D03*
D12*
X382835Y873520D03*
D36*
X391713Y873520D03*
D11*
X246698Y874704D03*
D18*
X260903Y874704D03*
D20*
X266822Y874704D03*
D11*
X275109Y874704D03*
X285763Y874704D03*
D37*
X291682Y874704D03*
D11*
X299969Y874704D03*
X310623Y874704D03*
X315358Y874704D03*
X323645Y874704D03*
D53*
X334299Y874704D03*
D43*
X349097Y874704D03*
D14*
X360934Y874704D03*
D25*
X377508Y874704D03*
D11*
X382835Y874704D03*
D27*
X393489Y874704D03*
D12*
X246698Y875887D03*
D17*
X260903Y875887D03*
D12*
X275109Y875887D03*
X285763Y875887D03*
D34*
X291682Y875887D03*
D12*
X299969Y875887D03*
X310623Y875887D03*
X315358Y875887D03*
X323645Y875887D03*
D35*
X333707Y875887D03*
D13*
X349688Y875887D03*
D32*
X360934Y875887D03*
D15*
X377508Y875887D03*
D12*
X382835Y875887D03*
D17*
X397040Y875887D03*
D12*
X246698Y877071D03*
D17*
X260903Y877071D03*
D12*
X275109Y877071D03*
X285763Y877071D03*
D34*
X291682Y877071D03*
D12*
X299969Y877071D03*
X310623Y877071D03*
D15*
X377508Y877071D03*
D12*
X382835Y877071D03*
D17*
X397040Y877071D03*
D11*
X246698Y878255D03*
D42*
X265639Y878255D03*
X279844Y878255D03*
D37*
X291682Y878255D03*
D28*
X305296Y878255D03*
D54*
X376916Y878255D03*
D11*
X382835Y878255D03*
D43*
X392897Y878255D03*
D12*
X246698Y879439D03*
D29*
X265639Y879439D03*
D36*
X279252Y879439D03*
D34*
X291682Y879439D03*
D36*
X305296Y879439D03*
D15*
X376324Y879439D03*
D12*
X382835Y879439D03*
D55*
X392305Y879439D03*
D37*
X291682Y880623D03*
X346137Y880623D03*
D11*
X382835Y880623D03*
D34*
X291682Y881806D03*
X346137Y881806D03*
D12*
X382835Y881806D03*
D34*
X291682Y882990D03*
X346137Y882990D03*
D37*
X291682Y884174D03*
X346137Y884174D03*
D34*
X291682Y885358D03*
X346137Y885358D03*
D37*
X291682Y886542D03*
X346137Y886542D03*
D34*
X291682Y887725D03*
X346137Y887725D03*
X291682Y888909D03*
X346137Y888909D03*
D37*
X291682Y890093D03*
X346137Y890093D03*
D34*
X291682Y891277D03*
X346137Y891277D03*
D37*
X291682Y892461D03*
X346137Y892461D03*
D34*
X291682Y893644D03*
X346137Y893644D03*
X291682Y894828D03*
X346137Y894828D03*
D37*
X291682Y896012D03*
X346137Y896012D03*
D34*
X291682Y897196D03*
X346137Y897196D03*
D37*
X291682Y898380D03*
X346137Y898380D03*
D34*
X291682Y899563D03*
X346137Y899563D03*
X291682Y900747D03*
X346137Y900747D03*
D37*
X291682Y901931D03*
X346137Y901931D03*
D34*
X291682Y903115D03*
X346137Y903115D03*
D37*
X291682Y904299D03*
X346137Y904299D03*
D34*
X291682Y905482D03*
X346137Y905482D03*
X291682Y906666D03*
X346137Y906666D03*
D37*
X291682Y907850D03*
X346137Y907850D03*
D34*
X291682Y909034D03*
X346137Y909034D03*
D37*
X291682Y910218D03*
X346137Y910218D03*
D34*
X291682Y911401D03*
X346137Y911401D03*
X291682Y912585D03*
X346137Y912585D03*
D56*
X462500Y815000D02*
X462500Y635000D01*
X207500Y635000D01*
X207500Y815000D01*
X462500Y815000D01*
D57*
X364647Y714889D02*
X354266Y714889D01*
X364647Y714889D02*
X366723Y716965D01*
X366723Y721117D01*
X364647Y723193D01*
X354266Y723193D01*
X358419Y727986D02*
X354266Y732138D01*
X366723Y732138D01*
X366723Y727986D02*
X366723Y736291D01*
D58*
X365990Y512234D02*
X399010Y512234D01*
X365990Y512234D02*
X365990Y577766D01*
X399010Y577766D01*
X399010Y512234D01*
D59*
X409805Y545000D03*
D60*
X355195Y545000D03*
X355195Y568114D03*
X355195Y521886D03*
D59*
X409805Y545000D03*
D60*
X355195Y545000D03*
X355195Y568114D03*
X355195Y521886D03*
D61*
X387864Y532189D02*
X387864Y535324D01*
X387864Y533756D02*
X378458Y533756D01*
X378458Y532189D02*
X378458Y535324D01*
X378458Y543129D02*
X380026Y544696D01*
X378458Y543129D02*
X378458Y539993D01*
X380026Y538426D01*
X386296Y538426D01*
X387864Y539993D01*
X387864Y543129D01*
X386296Y544696D01*
X381593Y547781D02*
X378458Y550916D01*
X387864Y550916D01*
X387864Y547781D02*
X387864Y554051D01*
D62*
X342152Y610628D02*
X322975Y610628D01*
X322975Y594372D02*
X342152Y594372D01*
D63*
X345708Y602500D03*
X319292Y602500D03*
D64*
X327161Y590852D02*
X329110Y588903D01*
X327161Y590852D02*
X323263Y590852D01*
X321314Y588903D01*
X321314Y581107D01*
X323263Y579158D01*
X327161Y579158D01*
X329110Y581107D01*
X338855Y579158D02*
X338855Y590852D01*
X333008Y585005D01*
X340804Y585005D01*
D62*
X392975Y610628D02*
X412152Y610628D01*
X412152Y594372D02*
X392975Y594372D01*
D63*
X415708Y602500D03*
X389292Y602500D03*
D64*
X397161Y590852D02*
X399110Y588903D01*
X397161Y590852D02*
X393263Y590852D01*
X391314Y588903D01*
X391314Y581107D01*
X393263Y579158D01*
X397161Y579158D01*
X399110Y581107D01*
X403008Y590852D02*
X410804Y590852D01*
X403008Y590852D02*
X403008Y585005D01*
X406906Y586954D01*
X408855Y586954D01*
X410804Y585005D01*
X410804Y581107D01*
X408855Y579158D01*
X404957Y579158D01*
X403008Y581107D01*
D62*
X193128Y409525D02*
X193128Y390348D01*
X176872Y390348D02*
X176872Y409525D01*
D65*
X185000Y386792D03*
X185000Y413208D03*
D56*
X179000Y404000D02*
X191000Y404000D01*
D66*
X175586Y427000D02*
X175588Y427075D01*
X175594Y427149D01*
X175604Y427223D01*
X175617Y427296D01*
X175635Y427369D01*
X175656Y427440D01*
X175681Y427511D01*
X175710Y427580D01*
X175743Y427647D01*
X175779Y427712D01*
X175818Y427776D01*
X175860Y427837D01*
X175906Y427896D01*
X175955Y427953D01*
X176007Y428006D01*
X176061Y428057D01*
X176118Y428106D01*
X176178Y428150D01*
X176240Y428192D01*
X176304Y428231D01*
X176370Y428266D01*
X176437Y428297D01*
X176507Y428325D01*
X176577Y428349D01*
X176649Y428370D01*
X176722Y428386D01*
X176795Y428399D01*
X176870Y428408D01*
X176944Y428413D01*
X177019Y428414D01*
X177093Y428411D01*
X177168Y428404D01*
X177241Y428393D01*
X177315Y428379D01*
X177387Y428360D01*
X177458Y428338D01*
X177528Y428312D01*
X177597Y428282D01*
X177663Y428249D01*
X177728Y428212D01*
X177791Y428172D01*
X177852Y428128D01*
X177910Y428082D01*
X177966Y428032D01*
X178019Y427980D01*
X178070Y427925D01*
X178117Y427867D01*
X178161Y427807D01*
X178202Y427744D01*
X178240Y427680D01*
X178274Y427614D01*
X178305Y427545D01*
X178332Y427476D01*
X178355Y427405D01*
X178374Y427333D01*
X178390Y427260D01*
X178402Y427186D01*
X178410Y427112D01*
X178414Y427037D01*
X178414Y426963D01*
X178410Y426888D01*
X178402Y426814D01*
X178390Y426740D01*
X178374Y426667D01*
X178355Y426595D01*
X178332Y426524D01*
X178305Y426455D01*
X178274Y426386D01*
X178240Y426320D01*
X178202Y426256D01*
X178161Y426193D01*
X178117Y426133D01*
X178070Y426075D01*
X178019Y426020D01*
X177966Y425968D01*
X177910Y425918D01*
X177852Y425872D01*
X177791Y425828D01*
X177728Y425788D01*
X177663Y425751D01*
X177597Y425718D01*
X177528Y425688D01*
X177458Y425662D01*
X177387Y425640D01*
X177315Y425621D01*
X177241Y425607D01*
X177168Y425596D01*
X177093Y425589D01*
X177019Y425586D01*
X176944Y425587D01*
X176870Y425592D01*
X176795Y425601D01*
X176722Y425614D01*
X176649Y425630D01*
X176577Y425651D01*
X176507Y425675D01*
X176437Y425703D01*
X176370Y425734D01*
X176304Y425769D01*
X176240Y425808D01*
X176178Y425850D01*
X176118Y425894D01*
X176061Y425943D01*
X176007Y425994D01*
X175955Y426047D01*
X175906Y426104D01*
X175860Y426163D01*
X175818Y426224D01*
X175779Y426288D01*
X175743Y426353D01*
X175710Y426420D01*
X175681Y426489D01*
X175656Y426560D01*
X175635Y426631D01*
X175617Y426704D01*
X175604Y426777D01*
X175594Y426851D01*
X175588Y426925D01*
X175586Y427000D01*
D62*
X336838Y452534D02*
X343188Y458884D01*
X355888Y458884D01*
X362238Y452534D01*
X362238Y439834D01*
X355888Y433484D01*
X343188Y433484D01*
X336838Y439834D01*
X305088Y458884D02*
X292388Y458884D01*
X305088Y458884D02*
X311438Y452534D01*
X311438Y439834D01*
X305088Y433484D01*
X311438Y452534D02*
X317788Y458884D01*
X330488Y458884D01*
X336838Y452534D01*
X336838Y439834D01*
X330488Y433484D01*
X317788Y433484D01*
X311438Y439834D01*
X286038Y439834D02*
X286038Y452534D01*
X292388Y458884D01*
X286038Y439834D02*
X292388Y433484D01*
X305088Y433484D01*
X368588Y458884D02*
X381288Y458884D01*
X387638Y452534D01*
X387638Y439834D01*
X381288Y433484D01*
X362238Y452534D02*
X368588Y458884D01*
X362238Y439834D02*
X368588Y433484D01*
X381288Y433484D01*
D67*
X349538Y446184D03*
X324138Y446184D03*
X298738Y446184D03*
X374938Y446184D03*
D62*
X428616Y525750D02*
X428616Y538450D01*
X434966Y544800D01*
X447666Y544800D01*
X454016Y538450D01*
X434966Y544800D02*
X428616Y551150D01*
X428616Y563850D01*
X434966Y570200D01*
X447666Y570200D01*
X454016Y563850D01*
X454016Y551150D01*
X447666Y544800D01*
X447666Y519400D02*
X434966Y519400D01*
X428616Y525750D01*
X447666Y519400D02*
X454016Y525750D01*
X454016Y538450D01*
X434966Y570200D02*
X428616Y576550D01*
X428616Y589250D01*
X434966Y595600D01*
X447666Y595600D01*
X454016Y589250D01*
X454016Y576550D01*
X447666Y570200D01*
D67*
X441316Y557500D03*
X441316Y532100D03*
X441316Y582900D03*
D62*
X256350Y615200D02*
X250000Y608850D01*
X256350Y615200D02*
X269050Y615200D01*
X275400Y608850D01*
X275400Y596150D01*
X269050Y589800D01*
X256350Y589800D01*
X250000Y596150D01*
X218250Y615200D02*
X205550Y615200D01*
X218250Y615200D02*
X224600Y608850D01*
X224600Y596150D01*
X218250Y589800D01*
X224600Y608850D02*
X230950Y615200D01*
X243650Y615200D01*
X250000Y608850D01*
X250000Y596150D01*
X243650Y589800D01*
X230950Y589800D01*
X224600Y596150D01*
X199200Y596150D02*
X199200Y608850D01*
X205550Y615200D01*
X199200Y596150D02*
X205550Y589800D01*
X218250Y589800D01*
X281750Y615200D02*
X294450Y615200D01*
X300800Y608850D01*
X300800Y596150D01*
X294450Y589800D01*
X275400Y608850D02*
X281750Y615200D01*
X275400Y596150D02*
X281750Y589800D01*
X294450Y589800D01*
D67*
X262700Y602500D03*
X237300Y602500D03*
X211900Y602500D03*
X288100Y602500D03*
D62*
X278650Y837300D02*
X285000Y843650D01*
X278650Y837300D02*
X265950Y837300D01*
X259600Y843650D01*
X259600Y856350D01*
X265950Y862700D01*
X278650Y862700D01*
X285000Y856350D01*
X316750Y837300D02*
X329450Y837300D01*
X316750Y837300D02*
X310400Y843650D01*
X310400Y856350D01*
X316750Y862700D01*
X310400Y843650D02*
X304050Y837300D01*
X291350Y837300D01*
X285000Y843650D01*
X285000Y856350D01*
X291350Y862700D01*
X304050Y862700D01*
X310400Y856350D01*
X335800Y856350D02*
X335800Y843650D01*
X329450Y837300D01*
X335800Y856350D02*
X329450Y862700D01*
X316750Y862700D01*
X253250Y837300D02*
X240550Y837300D01*
X234200Y843650D01*
X234200Y856350D01*
X240550Y862700D01*
X259600Y843650D02*
X253250Y837300D01*
X259600Y856350D02*
X253250Y862700D01*
X240550Y862700D01*
D67*
X272300Y850000D03*
X297700Y850000D03*
X323100Y850000D03*
X246900Y850000D03*
D62*
X436550Y833616D02*
X449250Y833616D01*
X436550Y833616D02*
X430200Y839966D01*
X430200Y852666D01*
X436550Y859016D01*
X430200Y839966D02*
X423850Y833616D01*
X411150Y833616D01*
X404800Y839966D01*
X404800Y852666D01*
X411150Y859016D01*
X423850Y859016D01*
X430200Y852666D01*
X455600Y852666D02*
X455600Y839966D01*
X449250Y833616D01*
X455600Y852666D02*
X449250Y859016D01*
X436550Y859016D01*
X404800Y839966D02*
X398450Y833616D01*
X385750Y833616D01*
X379400Y839966D01*
X379400Y852666D01*
X385750Y859016D01*
X398450Y859016D01*
X404800Y852666D01*
D67*
X417500Y846316D03*
X442900Y846316D03*
X392100Y846316D03*
D62*
X339050Y882300D02*
X326350Y882300D01*
X320000Y888650D01*
X320000Y901350D01*
X326350Y907700D01*
X345400Y901350D02*
X345400Y888650D01*
X339050Y882300D01*
X345400Y901350D02*
X339050Y907700D01*
X326350Y907700D01*
X320000Y888650D02*
X313650Y882300D01*
X300950Y882300D01*
X294600Y888650D01*
X294600Y901350D01*
X300950Y907700D01*
X313650Y907700D01*
X320000Y901350D01*
D67*
X332700Y895000D03*
X307300Y895000D03*
D62*
X355950Y907700D02*
X368650Y907700D01*
X375000Y901350D01*
X375000Y888650D01*
X368650Y882300D01*
X349600Y888650D02*
X349600Y901350D01*
X355950Y907700D01*
X349600Y888650D02*
X355950Y882300D01*
X368650Y882300D01*
X375000Y901350D02*
X381350Y907700D01*
X394050Y907700D01*
X400400Y901350D01*
X400400Y888650D01*
X394050Y882300D01*
X381350Y882300D01*
X375000Y888650D01*
D67*
X362300Y895000D03*
X387700Y895000D03*
D62*
X284050Y882300D02*
X271350Y882300D01*
X265000Y888650D01*
X265000Y901350D01*
X271350Y907700D01*
X290400Y901350D02*
X290400Y888650D01*
X284050Y882300D01*
X290400Y901350D02*
X284050Y907700D01*
X271350Y907700D01*
X265000Y888650D02*
X258650Y882300D01*
X245950Y882300D01*
X239600Y888650D01*
X239600Y901350D01*
X245950Y907700D01*
X258650Y907700D01*
X265000Y901350D01*
D67*
X277700Y895000D03*
X252300Y895000D03*
D58*
X309975Y512137D02*
X309975Y491137D01*
X200975Y581137D02*
X167975Y581137D01*
X167975Y491137D02*
X200975Y491137D01*
X167975Y491137D02*
X167975Y581137D01*
X200975Y491137D02*
X251975Y491137D01*
X298975Y491137D02*
X309975Y491137D01*
X309975Y581137D02*
X200975Y581137D01*
X309975Y581137D02*
X309975Y562137D01*
X200975Y581137D02*
X200975Y491137D01*
X200975Y581137D01*
X292475Y581137D01*
X309975Y581137D01*
X251475Y491137D02*
X200975Y491137D01*
X251475Y491137D02*
X251975Y491137D01*
X309975Y509637D02*
X309975Y581137D01*
X309975Y509637D02*
X309975Y491137D01*
X309975Y509637D02*
X309975Y512137D01*
X309975Y491137D02*
X251475Y491137D01*
X292475Y492137D02*
X292475Y581137D01*
M02*
