G04 EAGLE Gerber RS-274X export*
G75*
%MOMM*%
%FSLAX34Y34*%
%LPD*%
%INSilkscreen Bottom*%
%IPPOS*%
%AMOC8*
5,1,8,0,0,1.08239X$1,22.5*%
G01*
%ADD10C,0.203200*%
%ADD11R,1.854200X3.200400*%
%ADD12R,1.854200X0.863600*%
%ADD13C,0.076200*%
%ADD14C,0.152400*%
%ADD15R,0.736600X1.752600*%
%ADD16R,1.752600X0.736600*%
%ADD17R,0.457200X0.584200*%
%ADD18C,0.127000*%
%ADD19R,1.800000X0.362500*%
%ADD20R,1.800000X0.362400*%


D10*
X399010Y577766D02*
X365990Y577766D01*
X365990Y512234D01*
X399010Y512234D01*
X399010Y577766D01*
D11*
X409805Y545000D03*
D12*
X355195Y545000D03*
X355195Y521886D03*
X355195Y568114D03*
D11*
X409805Y545000D03*
D12*
X355195Y545000D03*
X355195Y521886D03*
X355195Y568114D03*
D13*
X378466Y538261D02*
X378466Y535126D01*
X378466Y536694D02*
X387872Y536694D01*
X387872Y538261D02*
X387872Y535126D01*
X387872Y546066D02*
X386304Y547633D01*
X387872Y546066D02*
X387872Y542930D01*
X386304Y541363D01*
X380034Y541363D01*
X378466Y542930D01*
X378466Y546066D01*
X380034Y547633D01*
X378466Y550718D02*
X378466Y556989D01*
X378466Y550718D02*
X384737Y556989D01*
X386304Y556989D01*
X387872Y555421D01*
X387872Y552286D01*
X386304Y550718D01*
D14*
X342152Y594372D02*
X322975Y594372D01*
X322975Y610628D02*
X342152Y610628D01*
D15*
X345708Y602500D03*
X319292Y602500D03*
D13*
X335204Y623139D02*
X336771Y624707D01*
X339907Y624707D01*
X341474Y623139D01*
X341474Y616869D01*
X339907Y615301D01*
X336771Y615301D01*
X335204Y616869D01*
X332119Y615301D02*
X325848Y615301D01*
X332119Y615301D02*
X325848Y621572D01*
X325848Y623139D01*
X327416Y624707D01*
X330551Y624707D01*
X332119Y623139D01*
D14*
X392975Y594372D02*
X412152Y594372D01*
X412152Y610628D02*
X392975Y610628D01*
D15*
X415708Y602500D03*
X389292Y602500D03*
D13*
X405204Y623139D02*
X406771Y624707D01*
X409907Y624707D01*
X411474Y623139D01*
X411474Y616869D01*
X409907Y615301D01*
X406771Y615301D01*
X405204Y616869D01*
X402119Y623139D02*
X400551Y624707D01*
X397416Y624707D01*
X395848Y623139D01*
X395848Y621572D01*
X397416Y620004D01*
X398984Y620004D01*
X397416Y620004D02*
X395848Y618436D01*
X395848Y616869D01*
X397416Y615301D01*
X400551Y615301D01*
X402119Y616869D01*
D14*
X323128Y492152D02*
X323128Y472975D01*
X306872Y472975D02*
X306872Y492152D01*
D16*
X315000Y495708D03*
X315000Y469292D03*
D13*
X336639Y482797D02*
X338207Y481229D01*
X338207Y478093D01*
X336639Y476526D01*
X330369Y476526D01*
X328801Y478093D01*
X328801Y481229D01*
X330369Y482797D01*
X335072Y485881D02*
X338207Y489016D01*
X328801Y489016D01*
X328801Y485881D02*
X328801Y492152D01*
D14*
X176872Y409525D02*
X176872Y390348D01*
X193128Y390348D02*
X193128Y409525D01*
D16*
X185000Y386792D03*
X185000Y413208D03*
D13*
X197801Y391026D02*
X207207Y391026D01*
X207207Y395729D01*
X205639Y397297D01*
X202504Y397297D01*
X200936Y395729D01*
X200936Y391026D01*
X200936Y394161D02*
X197801Y397297D01*
X204072Y400381D02*
X207207Y403516D01*
X197801Y403516D01*
X197801Y400381D02*
X197801Y406652D01*
D14*
X210475Y656872D02*
X229652Y656872D01*
X229652Y673128D02*
X210475Y673128D01*
D15*
X233208Y665000D03*
X206792Y665000D03*
D13*
X195207Y657026D02*
X185801Y657026D01*
X195207Y657026D02*
X195207Y661729D01*
X193639Y663297D01*
X190504Y663297D01*
X188936Y661729D01*
X188936Y657026D01*
X188936Y660161D02*
X185801Y663297D01*
X185801Y666381D02*
X185801Y672652D01*
X185801Y666381D02*
X192072Y672652D01*
X193639Y672652D01*
X195207Y671084D01*
X195207Y667949D01*
X193639Y666381D01*
D14*
X270475Y658056D02*
X289652Y658056D01*
X289652Y674312D02*
X270475Y674312D01*
D15*
X293208Y666184D03*
X266792Y666184D03*
D13*
X305801Y659210D02*
X315207Y659210D01*
X315207Y663913D01*
X313639Y665480D01*
X310504Y665480D01*
X308936Y663913D01*
X308936Y659210D01*
X308936Y662345D02*
X305801Y665480D01*
X305801Y673268D02*
X315207Y673268D01*
X310504Y668565D01*
X310504Y674836D01*
D14*
X302525Y828628D02*
X283348Y828628D01*
X283348Y812372D02*
X302525Y812372D01*
D15*
X279792Y820500D03*
X306208Y820500D03*
D13*
X266707Y813026D02*
X257301Y813026D01*
X266707Y813026D02*
X266707Y817729D01*
X265139Y819297D01*
X262004Y819297D01*
X260436Y817729D01*
X260436Y813026D01*
X260436Y816161D02*
X257301Y819297D01*
X266707Y822381D02*
X266707Y828652D01*
X266707Y822381D02*
X262004Y822381D01*
X263572Y825516D01*
X263572Y827084D01*
X262004Y828652D01*
X258869Y828652D01*
X257301Y827084D01*
X257301Y823949D01*
X258869Y822381D01*
D14*
X204460Y772788D02*
X204460Y759580D01*
X232908Y759580D01*
X232908Y772788D01*
X204460Y772788D01*
D17*
X218684Y776217D03*
X209286Y756151D03*
X228082Y756151D03*
D13*
X226353Y745453D02*
X226353Y739182D01*
X226353Y745453D02*
X224785Y747021D01*
X221650Y747021D01*
X220082Y745453D01*
X220082Y739182D01*
X221650Y737615D01*
X224785Y737615D01*
X226353Y739182D01*
X223217Y740750D02*
X220082Y737615D01*
X216998Y743886D02*
X213862Y747021D01*
X213862Y737615D01*
X210727Y737615D02*
X216998Y737615D01*
D14*
X210475Y709372D02*
X229652Y709372D01*
X229652Y725628D02*
X210475Y725628D01*
D15*
X233208Y717500D03*
X206792Y717500D03*
D13*
X194707Y710026D02*
X185301Y710026D01*
X194707Y710026D02*
X194707Y714729D01*
X193139Y716297D01*
X190004Y716297D01*
X188436Y714729D01*
X188436Y710026D01*
X188436Y713161D02*
X185301Y716297D01*
X193139Y722516D02*
X194707Y725652D01*
X193139Y722516D02*
X190004Y719381D01*
X186869Y719381D01*
X185301Y720949D01*
X185301Y724084D01*
X186869Y725652D01*
X188436Y725652D01*
X190004Y724084D01*
X190004Y719381D01*
D14*
X210348Y701812D02*
X229525Y701812D01*
X229525Y685556D02*
X210348Y685556D01*
D15*
X206792Y693684D03*
X233208Y693684D03*
D13*
X194707Y686210D02*
X185301Y686210D01*
X194707Y686210D02*
X194707Y690913D01*
X193139Y692480D01*
X190004Y692480D01*
X188436Y690913D01*
X188436Y686210D01*
X188436Y689345D02*
X185301Y692480D01*
X194707Y695565D02*
X194707Y701835D01*
X193139Y701835D01*
X186869Y695565D01*
X185301Y695565D01*
D14*
X260776Y758396D02*
X260776Y771604D01*
X260776Y758396D02*
X289224Y758396D01*
X289224Y771604D01*
X260776Y771604D01*
D17*
X275000Y775033D03*
X265602Y754967D03*
X284398Y754967D03*
D13*
X282669Y742269D02*
X282669Y735999D01*
X282669Y742269D02*
X281101Y743837D01*
X277966Y743837D01*
X276398Y742269D01*
X276398Y735999D01*
X277966Y734431D01*
X281101Y734431D01*
X282669Y735999D01*
X279534Y737566D02*
X276398Y734431D01*
X273314Y734431D02*
X267043Y734431D01*
X273314Y734431D02*
X267043Y740702D01*
X267043Y742269D01*
X268611Y743837D01*
X271746Y743837D01*
X273314Y742269D01*
D14*
X270475Y709372D02*
X289652Y709372D01*
X289652Y725628D02*
X270475Y725628D01*
D15*
X293208Y717500D03*
X266792Y717500D03*
D13*
X306301Y710026D02*
X315707Y710026D01*
X315707Y714729D01*
X314139Y716297D01*
X311004Y716297D01*
X309436Y714729D01*
X309436Y710026D01*
X309436Y713161D02*
X306301Y716297D01*
X314139Y719381D02*
X315707Y720949D01*
X315707Y724084D01*
X314139Y725652D01*
X312572Y725652D01*
X311004Y724084D01*
X309436Y725652D01*
X307869Y725652D01*
X306301Y724084D01*
X306301Y720949D01*
X307869Y719381D01*
X309436Y719381D01*
X311004Y720949D01*
X312572Y719381D01*
X314139Y719381D01*
X311004Y720949D02*
X311004Y724084D01*
D14*
X289525Y698260D02*
X270348Y698260D01*
X270348Y682004D02*
X289525Y682004D01*
D15*
X266792Y690132D03*
X293208Y690132D03*
D13*
X306301Y682658D02*
X315707Y682658D01*
X315707Y687361D01*
X314139Y688929D01*
X311004Y688929D01*
X309436Y687361D01*
X309436Y682658D01*
X309436Y685794D02*
X306301Y688929D01*
X307869Y692013D02*
X306301Y693581D01*
X306301Y696716D01*
X307869Y698284D01*
X314139Y698284D01*
X315707Y696716D01*
X315707Y693581D01*
X314139Y692013D01*
X312572Y692013D01*
X311004Y693581D01*
X311004Y698284D01*
D14*
X328276Y758396D02*
X328276Y771604D01*
X328276Y758396D02*
X356724Y758396D01*
X356724Y771604D01*
X328276Y771604D01*
D17*
X342500Y775033D03*
X333102Y754967D03*
X351898Y754967D03*
D13*
X350169Y743269D02*
X350169Y736999D01*
X350169Y743269D02*
X348601Y744837D01*
X345466Y744837D01*
X343898Y743269D01*
X343898Y736999D01*
X345466Y735431D01*
X348601Y735431D01*
X350169Y736999D01*
X347034Y738566D02*
X343898Y735431D01*
X340814Y743269D02*
X339246Y744837D01*
X336111Y744837D01*
X334543Y743269D01*
X334543Y741702D01*
X336111Y740134D01*
X337678Y740134D01*
X336111Y740134D02*
X334543Y738566D01*
X334543Y736999D01*
X336111Y735431D01*
X339246Y735431D01*
X340814Y736999D01*
D14*
X334975Y709372D02*
X354152Y709372D01*
X354152Y725628D02*
X334975Y725628D01*
D15*
X357708Y717500D03*
X331292Y717500D03*
D13*
X371301Y708848D02*
X380707Y708848D01*
X380707Y713551D01*
X379139Y715119D01*
X376004Y715119D01*
X374436Y713551D01*
X374436Y708848D01*
X374436Y711984D02*
X371301Y715119D01*
X377572Y718203D02*
X380707Y721339D01*
X371301Y721339D01*
X371301Y724474D02*
X371301Y718203D01*
X372869Y727559D02*
X379139Y727559D01*
X380707Y729126D01*
X380707Y732262D01*
X379139Y733829D01*
X372869Y733829D01*
X371301Y732262D01*
X371301Y729126D01*
X372869Y727559D01*
X379139Y733829D01*
D14*
X354025Y701628D02*
X334848Y701628D01*
X334848Y685372D02*
X354025Y685372D01*
D15*
X331292Y693500D03*
X357708Y693500D03*
D13*
X371301Y677848D02*
X380707Y677848D01*
X380707Y682551D01*
X379139Y684119D01*
X376004Y684119D01*
X374436Y682551D01*
X374436Y677848D01*
X374436Y680984D02*
X371301Y684119D01*
X377572Y687203D02*
X380707Y690339D01*
X371301Y690339D01*
X371301Y693474D02*
X371301Y687203D01*
X377572Y696559D02*
X380707Y699694D01*
X371301Y699694D01*
X371301Y696559D02*
X371301Y702829D01*
D18*
X301650Y751275D02*
X301650Y788725D01*
X318350Y788725D02*
X318350Y751275D01*
X314763Y766825D02*
X310000Y773175D01*
X310000Y766825D02*
X314763Y766825D01*
X310000Y766825D02*
X305237Y766825D01*
X310000Y773175D01*
X314763Y773175D01*
X310000Y773175D02*
X305237Y773175D01*
X310000Y766825D02*
X310000Y764387D01*
X310000Y773175D02*
X310000Y775613D01*
D19*
X310000Y787688D03*
X310000Y752313D03*
D20*
X310000Y778437D03*
D13*
X317849Y798791D02*
X317849Y808197D01*
X317849Y798791D02*
X313146Y798791D01*
X311579Y800359D01*
X311579Y806629D01*
X313146Y808197D01*
X317849Y808197D01*
X308494Y805062D02*
X305359Y808197D01*
X305359Y798791D01*
X308494Y798791D02*
X302224Y798791D01*
D18*
X369150Y787674D02*
X369150Y750224D01*
X385850Y750224D02*
X385850Y787674D01*
X377500Y772124D02*
X382263Y765774D01*
X377500Y765774D01*
X372737Y765774D01*
X377500Y772124D01*
X382263Y772124D01*
X377500Y772124D02*
X372737Y772124D01*
X377500Y765774D02*
X377500Y763336D01*
X377500Y772124D02*
X377500Y774562D01*
D19*
X377500Y786636D03*
X377500Y751261D03*
D20*
X377500Y777386D03*
D13*
X386349Y796740D02*
X386349Y806146D01*
X386349Y796740D02*
X381646Y796740D01*
X380079Y798307D01*
X380079Y804578D01*
X381646Y806146D01*
X386349Y806146D01*
X376994Y796740D02*
X370724Y796740D01*
X376994Y796740D02*
X370724Y803010D01*
X370724Y804578D01*
X372291Y806146D01*
X375427Y806146D01*
X376994Y804578D01*
D10*
X424000Y722500D02*
X450000Y722500D01*
X450000Y655500D01*
X424000Y655500D01*
X424000Y722500D01*
D18*
X452000Y675000D02*
X465000Y675000D01*
X465000Y703000D01*
X452000Y703000D01*
M02*
