G04 EAGLE Gerber RS-274X export*
G75*
%MOMM*%
%FSLAX34Y34*%
%LPD*%
%INSolderpaste Bottom*%
%IPPOS*%
%AMOC8*
5,1,8,0,0,1.08239X$1,22.5*%
G01*
%ADD10R,2.235200X1.219200*%
%ADD11R,2.200000X3.600000*%
%ADD12R,1.600000X1.803000*%
%ADD13R,1.803000X1.600000*%
%ADD14R,1.000000X1.400000*%
%ADD15R,2.100000X1.500000*%
%ADD16R,0.800000X1.000000*%
%ADD17R,1.500000X0.700000*%


D10*
X351512Y521886D03*
X351512Y545000D03*
X351512Y568114D03*
D11*
X413490Y545000D03*
D12*
X318280Y602500D03*
X346720Y602500D03*
X388280Y602500D03*
X416720Y602500D03*
D13*
X315000Y468280D03*
X315000Y496720D03*
X185000Y414220D03*
X185000Y385780D03*
D12*
X205780Y665000D03*
X234220Y665000D03*
X265780Y666184D03*
X294220Y666184D03*
X307220Y820500D03*
X278780Y820500D03*
D14*
X218684Y777184D03*
X209184Y755184D03*
X228184Y755184D03*
D12*
X205780Y717500D03*
X234220Y717500D03*
X234220Y693684D03*
X205780Y693684D03*
D14*
X275000Y776000D03*
X265500Y754000D03*
X284500Y754000D03*
D12*
X265780Y717500D03*
X294220Y717500D03*
X294220Y690132D03*
X265780Y690132D03*
D14*
X342500Y776000D03*
X333000Y754000D03*
X352000Y754000D03*
D12*
X330280Y717500D03*
X358720Y717500D03*
X358720Y693500D03*
X330280Y693500D03*
D15*
X310000Y752000D03*
X310000Y788000D03*
X377500Y750949D03*
X377500Y786949D03*
D16*
X426000Y730500D03*
X448000Y730500D03*
X448000Y647500D03*
X426000Y647500D03*
D17*
X414500Y711500D03*
X414500Y681500D03*
X414500Y666500D03*
M02*
