G04 EAGLE Gerber RS-274X export*
G75*
%MOMM*%
%FSLAX34Y34*%
%LPD*%
%INSoldermask Bottom*%
%IPPOS*%
%AMOC8*
5,1,8,0,0,1.08239X$1,22.5*%
G01*
%ADD10C,5.903200*%
%ADD11C,4.203200*%
%ADD12R,2.438400X1.422400*%
%ADD13R,2.403200X3.803200*%
%ADD14R,1.803200X2.006200*%
%ADD15R,2.006200X1.803200*%
%ADD16C,1.727200*%
%ADD17R,1.203200X1.603200*%
%ADD18R,2.303200X1.703200*%
%ADD19R,1.703200X1.703200*%
%ADD20R,1.003200X1.203200*%
%ADD21R,1.703200X0.903200*%
%ADD22C,1.103200*%
%ADD23C,4.419200*%
%ADD24C,4.019200*%
%ADD25C,3.003200*%


D10*
X205000Y875000D03*
X425000Y465000D03*
D11*
X198000Y457000D03*
X432000Y883000D03*
D12*
X351512Y521886D03*
X351512Y545000D03*
X351512Y568114D03*
D13*
X413490Y545000D03*
D14*
X318280Y602500D03*
X346720Y602500D03*
X388280Y602500D03*
X416720Y602500D03*
D15*
X315000Y468280D03*
X315000Y496720D03*
X185000Y414220D03*
X185000Y385780D03*
D16*
X298738Y446184D03*
X324138Y446184D03*
X349538Y446184D03*
X374938Y446184D03*
D14*
X205780Y665000D03*
X234220Y665000D03*
D16*
X441316Y532100D03*
X441316Y557500D03*
X441316Y582900D03*
X211900Y602500D03*
X237300Y602500D03*
X262700Y602500D03*
X288100Y602500D03*
D14*
X265780Y666184D03*
X294220Y666184D03*
D16*
X323100Y850000D03*
X297700Y850000D03*
X272300Y850000D03*
X246900Y850000D03*
D14*
X307220Y820500D03*
X278780Y820500D03*
D16*
X442900Y846316D03*
X417500Y846316D03*
X392100Y846316D03*
D17*
X218684Y777184D03*
X209184Y755184D03*
X228184Y755184D03*
D14*
X205780Y717500D03*
X234220Y717500D03*
X234220Y693684D03*
X205780Y693684D03*
D16*
X332700Y895000D03*
X307300Y895000D03*
X362300Y895000D03*
X387700Y895000D03*
X277700Y895000D03*
X252300Y895000D03*
D17*
X275000Y776000D03*
X265500Y754000D03*
X284500Y754000D03*
D14*
X265780Y717500D03*
X294220Y717500D03*
X294220Y690132D03*
X265780Y690132D03*
D17*
X342500Y776000D03*
X333000Y754000D03*
X352000Y754000D03*
D14*
X330280Y717500D03*
X358720Y717500D03*
X358720Y693500D03*
X330280Y693500D03*
D18*
X310000Y752000D03*
X310000Y788000D03*
X377500Y750949D03*
X377500Y786949D03*
D19*
X255000Y405000D03*
X220000Y405000D03*
X220000Y385000D03*
X220000Y366000D03*
X255000Y385000D03*
X255000Y366000D03*
D20*
X426000Y730500D03*
X448000Y730500D03*
X448000Y647500D03*
X426000Y647500D03*
D21*
X414500Y711500D03*
X414500Y681500D03*
X414500Y666500D03*
D22*
X437000Y704000D03*
X437000Y674000D03*
D23*
X303975Y536137D03*
D24*
X241475Y536137D03*
D25*
X274975Y488137D03*
M02*
