G04 EAGLE Gerber RS-274X export*
G75*
%MOMM*%
%FSLAX34Y34*%
%LPD*%
%INSoldermask Top*%
%IPPOS*%
%AMOC8*
5,1,8,0,0,1.08239X$1,22.5*%
G01*
%ADD10C,5.903200*%
%ADD11C,4.203200*%
%ADD12R,1.203200X1.703200*%
%ADD13R,1.703200X1.203200*%
%ADD14R,4.703200X4.703200*%
%ADD15R,2.438400X1.422400*%
%ADD16R,2.403200X3.803200*%
%ADD17R,1.803200X2.006200*%
%ADD18R,2.006200X1.803200*%
%ADD19C,1.727200*%
%ADD20R,1.703200X1.703200*%
%ADD21C,1.103200*%
%ADD22C,4.419200*%
%ADD23C,4.019200*%
%ADD24C,3.003200*%


D10*
X205000Y875000D03*
X425000Y465000D03*
D11*
X198000Y457000D03*
X432000Y883000D03*
D12*
X349400Y817500D03*
X336700Y817500D03*
X324000Y817500D03*
X311300Y817500D03*
X298600Y817500D03*
X285900Y817500D03*
X273200Y817500D03*
X260500Y817500D03*
D13*
X205000Y667700D03*
D12*
X222400Y632500D03*
X235100Y632500D03*
X247800Y632500D03*
X260500Y632500D03*
X273200Y632500D03*
X285900Y632500D03*
X298600Y632500D03*
D13*
X205000Y756600D03*
D12*
X247800Y817500D03*
X235100Y817500D03*
X222400Y817500D03*
D13*
X205000Y782000D03*
X205000Y769300D03*
D12*
X362100Y817500D03*
X374800Y817500D03*
X387500Y817500D03*
D13*
X205000Y743900D03*
X205000Y731200D03*
X205000Y718500D03*
X205000Y680400D03*
X205000Y693100D03*
X205000Y705800D03*
D12*
X311300Y632500D03*
X324000Y632500D03*
X336700Y632500D03*
X349400Y632500D03*
X362100Y632500D03*
X374800Y632500D03*
X387500Y632500D03*
D14*
X314200Y718200D03*
D15*
X351512Y568114D03*
X351512Y545000D03*
X351512Y521886D03*
D16*
X413490Y545000D03*
D17*
X318280Y602500D03*
X346720Y602500D03*
X388280Y602500D03*
X416720Y602500D03*
D18*
X185000Y414220D03*
X185000Y385780D03*
D19*
X298738Y446184D03*
X324138Y446184D03*
X349538Y446184D03*
X374938Y446184D03*
X441316Y532100D03*
X441316Y557500D03*
X441316Y582900D03*
X211900Y602500D03*
X237300Y602500D03*
X262700Y602500D03*
X288100Y602500D03*
X323100Y850000D03*
X297700Y850000D03*
X272300Y850000D03*
X246900Y850000D03*
X442900Y846316D03*
X417500Y846316D03*
X392100Y846316D03*
D20*
X220000Y366000D03*
X220000Y385000D03*
X255000Y385000D03*
X255000Y405000D03*
D19*
X332700Y895000D03*
X307300Y895000D03*
X362300Y895000D03*
X387700Y895000D03*
X277700Y895000D03*
X252300Y895000D03*
D20*
X220000Y405000D03*
D21*
X437000Y704000D03*
X437000Y674000D03*
D22*
X303975Y536137D03*
D23*
X241475Y536137D03*
D24*
X274975Y488137D03*
M02*
