G04 EAGLE Gerber RS-274X export*
G75*
%MOMM*%
%FSLAX34Y34*%
%LPD*%
%INSolderpaste Top*%
%IPPOS*%
%AMOC8*
5,1,8,0,0,1.08239X$1,22.5*%
G01*
%ADD10R,1.000000X1.500000*%
%ADD11R,1.500000X1.000000*%
%ADD12R,4.500000X4.500000*%
%ADD13R,2.235200X1.219200*%
%ADD14R,2.200000X3.600000*%
%ADD15R,1.600000X1.803000*%
%ADD16R,1.803000X1.600000*%


D10*
X349400Y817500D03*
X336700Y817500D03*
X324000Y817500D03*
X311300Y817500D03*
X298600Y817500D03*
X285900Y817500D03*
X273200Y817500D03*
X260500Y817500D03*
D11*
X205000Y667700D03*
D10*
X222400Y632500D03*
X235100Y632500D03*
X247800Y632500D03*
X260500Y632500D03*
X273200Y632500D03*
X285900Y632500D03*
X298600Y632500D03*
D11*
X205000Y756600D03*
D10*
X247800Y817500D03*
X235100Y817500D03*
X222400Y817500D03*
D11*
X205000Y782000D03*
X205000Y769300D03*
D10*
X362100Y817500D03*
X374800Y817500D03*
X387500Y817500D03*
D11*
X205000Y743900D03*
X205000Y731200D03*
X205000Y718500D03*
X205000Y680400D03*
X205000Y693100D03*
X205000Y705800D03*
D10*
X311300Y632500D03*
X324000Y632500D03*
X336700Y632500D03*
X349400Y632500D03*
X362100Y632500D03*
X374800Y632500D03*
X387500Y632500D03*
D12*
X314200Y718200D03*
D13*
X351512Y568114D03*
X351512Y545000D03*
X351512Y521886D03*
D14*
X413490Y545000D03*
D15*
X318280Y602500D03*
X346720Y602500D03*
X388280Y602500D03*
X416720Y602500D03*
D16*
X185000Y414220D03*
X185000Y385780D03*
M02*
