M48
;GenerationSoftware,Autodesk,EAGLE,9.5.1*%
;CreationDate,2021-12-12T11:21:21Z*%
FMAT,2
ICI,OFF
METRIC,TZ,000.000
T6C0.600
T5C0.900
T4C1.016
T3C1.194
T2C2.000
T1C3.000
%
G90
M71
T1
X5000Y75000
X5000Y5000
X75000Y5000
X75000Y75000
T2
X2500Y53500
X19500Y14500
X2500Y14500
X19500Y53500
T3
X44540Y7635
X39460Y7635
X55040Y7635
X13960Y72865
X19040Y72865
X49960Y7635
X28960Y72865
X34040Y72865
X39460Y72865
X44540Y72865
X49960Y72865
X55040Y72865
X34040Y7635
X28960Y7635
T4
X64070Y62950
X25000Y43690
X25000Y46230
X25000Y48770
X25000Y51310
X78000Y21810
X78000Y19270
X78000Y16730
X78000Y14190
X61530Y75650
X64070Y75650
X61530Y73110
X64070Y73110
X61530Y70570
X64070Y70570
X61530Y68030
X64070Y68030
X61530Y65490
X64070Y65490
X61530Y62950
T5
X77400Y63000
X77400Y66000
T6
X69400Y50800
X70300Y59200
X68300Y58900
X68298Y53000
X66920Y50900
X65800Y58800
X65750Y52952
X64400Y60700
X64470Y50890
X62900Y59100
X63000Y52800
X61650Y50750
X60400Y60800
X55500Y37400
X61100Y25000
X73100Y18600
X68800Y43600
X51700Y44400
X65500Y45400
X60500Y27600
X56900Y36100
X51800Y34400
X65800Y43300
X73900Y58700
X66900Y28000
X68200Y26900
X34600Y40500
X65700Y35900
X29000Y67500
X34000Y67500
X31500Y67500
X29000Y65000
X29000Y62500
X31500Y62500
X34000Y62500
X34000Y65000
X31500Y65000
X17500Y2000
X64700Y25500
X69000Y42000
X44800Y42200
X48300Y53200
X56900Y52300
X67400Y46600
X37300Y47600
X60600Y46800
X59300Y51100
X46800Y49400
X6543Y76552
X58500Y24500
X58000Y46400
X50000Y46100
X39500Y67500
X44500Y67500
X42000Y67500
X39500Y65000
X39500Y62500
X42000Y62500
X44500Y62500
X44500Y65000
X42000Y65000
X50000Y67500
X55000Y67500
X52500Y67500
X50000Y65000
X50000Y62500
X52500Y62500
X55000Y62500
X55000Y65000
X52500Y65000
X29000Y18000
X34000Y18000
X31500Y18000
X29000Y15500
X29000Y13000
X31500Y13000
X34000Y13000
X34000Y15500
X31500Y15500
X39500Y18000
X44500Y18000
X42000Y18000
X39500Y15500
X39500Y13000
X42000Y13000
X44500Y13000
X44500Y15500
X42000Y15500
X50000Y18000
X55000Y18000
X52500Y18000
X50000Y15500
X50000Y13000
X52500Y13000
X75000Y63800
X55000Y15500
X52500Y15500
X69500Y20300
X77000Y50000
X55500Y51200
X72800Y5000
X73442Y6551
X74992Y7194
X76543Y6552
X77186Y5001
X76544Y3450
X74994Y2808
X73443Y3449
X2800Y5000
X3442Y6551
X4992Y7194
X6543Y6552
X7186Y5001
X6544Y3450
X4994Y2808
X3443Y3449
X2800Y75000
X48000Y28500
X3442Y76551
X4992Y77194
X7186Y75001
X6544Y73450
X4994Y72808
X3443Y73449
X72800Y75000
X73442Y76551
X74992Y77194
X76543Y76552
X77186Y75001
X76544Y73450
X74994Y72808
X73443Y73449
X75200Y54000
X65800Y4700
X21400Y5100
X74700Y19600
X70700Y46000
X76300Y55700
X5400Y39300
X8400Y35100
X55000Y13000
M30